<?xml version="1.0" encoding="utf-8"?>
<!-- Generator: Adobe Illustrator 16.0.0, SVG Export Plug-In . SVG Version: 6.00 Build 0)  -->
<!DOCTYPE svg PUBLIC "-//W3C//DTD SVG 1.1//EN" "http://www.w3.org/Graphics/SVG/1.1/DTD/svg11.dtd">
<svg version="1.1" id="Layer_1" xmlns="http://www.w3.org/2000/svg" xmlns:xlink="http://www.w3.org/1999/xlink" x="0px" y="0px"
	 width="216px" height="180px" viewBox="0 0 216 180" enable-background="new 0 0 216 180" xml:space="preserve">
<g>
	<path fill="#5E6A71" d="M56.695,149.021v-7.873h-2.799v-0.875h6.823v0.875h-2.812v7.873H56.695z"/>
	<path fill="#5E6A71" d="M66.833,140.273h2.5c1.424,0,2.537,0.737,2.537,2.25c0,1.287-0.625,2.012-1.462,2.549l2.174,3.725
		l-1.225,0.375l-2.024-3.774h-1.288v3.624h-1.212V140.273z M68.045,144.522h0.688c1.55,0,1.837-1.149,1.837-1.887
		c0-1.075-0.675-1.487-1.487-1.487h-1.038V144.522z"/>
	<path fill="#5E6A71" d="M79.783,149.021v-8.748h1.212v8.748H79.783z"/>
	<path fill="#5E6A71" d="M88.571,146.56v-1.024h3.112v1.024H88.571z"/>
	<path fill="#5E6A71" d="M105.869,141.761c-0.413-0.337-1.35-0.763-2.287-0.763c-2.162,0-3.437,1.55-3.437,3.6
		c0,2.212,1.524,3.699,3.437,3.699c0.95,0,1.7-0.3,2.212-0.65l0.475,0.726c-0.587,0.399-1.625,0.8-2.75,0.8
		c-3.124,0-4.711-2.138-4.711-4.549c0-2.2,1.724-4.499,4.861-4.499c1.25,0,2.125,0.438,2.7,0.887L105.869,141.761z"/>
	<path fill="#5E6A71" d="M113.809,149.021v-8.748h1.211v8.748H113.809z"/>
	<path fill="#5E6A71" d="M124.933,149.021v-7.873h-2.8v-0.875h6.824v0.875h-2.812v7.873H124.933z"/>
	<path fill="#5E6A71" d="M136.07,149.021v-8.748h1.213v8.748H136.07z"/>
	<path fill="#5E6A71" d="M149.695,141.148h-3.1v2.824h3.037v0.875h-3.037v3.299h3.637v0.875h-4.85v-8.748h4.312V141.148z"/>
	<path fill="#5E6A71" d="M161.695,141.623c-0.426-0.312-0.988-0.625-1.513-0.625c-0.875,0-1.362,0.513-1.362,1.188
		c0,0.625,0.537,1.087,1.662,1.899c1.199,0.875,1.899,1.675,1.899,2.8c0,1.387-1.312,2.287-2.712,2.287
		c-0.837,0-1.837-0.301-2.462-0.913l0.538-0.725c0.512,0.362,1.074,0.763,1.898,0.763c0.863,0,1.525-0.463,1.525-1.438
		c0-1.1-1.312-1.812-2.024-2.337c-0.726-0.562-1.538-1.1-1.538-2.337c0-1.175,1.138-2.062,2.5-2.062
		c0.912,0,1.675,0.324,2.162,0.874L161.695,141.623z"/>
</g>
<g>
	<g>
		<g>
			<path fill="#5E6A71" d="M130.867,119.02c-1.758-1.318-2.988-2.057-2.988-3.287c0-1.299,0.914-1.829,1.936-1.829
				c1.404,0,2.072,0.985,2.213,2.217h0.457v-2.304c0-0.088-0.018-0.159-0.123-0.192c-0.703-0.246-1.705-0.333-2.461-0.333
				c-2.021,0-3.777,1.246-3.777,2.829c0,0.854,0.236,1.468,0.58,1.937h-0.006c0.008,0.008,0.016,0.014,0.021,0.02
				c0.428,0.568,1.012,0.931,1.529,1.276c2.637,1.741,3.23,2.673,3.252,3.813c0.049,2.537-4.701,3.871-7.83-1.003l-1.623-2.471
				c1.277-0.497,2.32-1.675,2.32-3.384c0-1.943-1.676-2.816-3.348-2.816h-4.828v0.43c1.492,0.178,1.426,0.1,1.426,1.64v7.462
				c0,1.548,0.066,1.461-1.426,1.643v0.432h4.463v-0.432c-1.494-0.182-1.43-0.095-1.43-1.643v-3.065h1.562
				c2.004,3.333,2.502,4.78,3.512,5.14c0.227,0.08,2.828,0.917,4.666,0.917c2.109,0,4.361-1.16,4.361-3.251
				C133.326,121.305,132.729,120.406,130.867,119.02z M120.605,119.604h-1.381v-5.405h1.277c1.209,0,2.209,0.628,2.209,2.438
				C122.711,118.511,122.047,119.604,120.605,119.604z"/>
			<path fill="#5E6A71" d="M87.241,125.08c0,0,0,0-8.115-9.615v7.366c0,0.349,0.068,0.632,0.098,0.898
				c0.086,0.601,0.654,0.833,1.752,0.918v0.433h-4.082v-0.433c0.803-0.085,1.35-0.317,1.432-0.918
				c0.035-0.267,0.102-0.55,0.102-0.898v-7.849c-0.465-0.6-0.986-1.133-1.932-1.133v-0.438h3.029
				c2.482,3.02,5.068,6.085,7.551,9.103h0.033v-6.852c0-0.351-0.068-0.632-0.102-0.899c-0.086-0.6-0.646-0.83-1.748-0.914v-0.438
				h4.082v0.438c-0.783,0.084-1.35,0.314-1.436,0.914c-0.033,0.268-0.098,0.549-0.098,0.899v9.417H87.241z"/>
			<path fill="#5E6A71" d="M93.79,122.996c0,1.553-0.066,1.467,1.432,1.651v0.433h-4.482v-0.433
				c1.502-0.185,1.434-0.099,1.434-1.651v-7.498c0-1.547,0.068-1.468-1.434-1.648v-0.432h4.482v0.432
				c-1.498,0.181-1.432,0.102-1.432,1.648V122.996z"/>
			<path fill="#5E6A71" d="M114.99,122.079c-0.766,1.785-0.65,2.47-3.064,2.47c-1.5,0-2.152-0.119-2.152-1.537v-3.765h1.402
				c1.115,0,1.5,0.587,1.531,1.569h0.432v-3.553h-0.432c-0.031,1.033-0.482,1.451-1.531,1.451h-1.402v-4.764h2.646
				c1.197,0,1.533,0.914,1.697,2.147h0.432v-2.681h-7.673h-3.301v0.432c1.131,0,1.564,0.515,1.148,1.566
				c-1.033,2.55-2.051,5.113-3.119,7.664c-0.865-2.531-1.83-5.396-2.477-7.363c-0.555-1.603,0.115-1.867,1.033-1.867v-0.432h-4.238
				v0.432c0.803,0,1.016,0.515,1.637,2.299c1.014,2.833,2.15,6.048,3.166,8.932h0.848c1.402-3.416,2.818-6.816,4.217-10.229
				c0.35-0.835,0.6-1.001,1.086-1.001c1.498,0.181,1.283,0.102,1.283,1.648v7.498c0,1.553,0.215,1.467-1.283,1.651v0.433h8.048
				l0.5-3.001H114.99z"/>
			<path fill="#5E6A71" d="M137.316,122.996c0,1.553-0.07,1.467,1.432,1.651v0.433h-4.484v-0.433
				c1.502-0.185,1.436-0.099,1.436-1.651v-7.498c0-1.547,0.066-1.468-1.436-1.648v-0.432h4.484v0.432
				c-1.502,0.181-1.432,0.102-1.432,1.648V122.996z"/>
			<path fill="#5E6A71" d="M154.357,113.418v0.432c0.982,0,1.516,0.48,0.947,1.498l-2.297,4.186l-2.018-4.186
				c-0.418-0.867-0.531-1.498,0.732-1.498v-0.432h-2.793h-1.156h-7.76l-0.451,2.545h0.418c0.547-1.098,0.881-2.012,2.33-2.012h1.354
				v9.045c0,1.553,0.064,1.467-1.436,1.651v0.433h4.482v-0.433c-1.498-0.185-1.434-0.099-1.434-1.651v-9.045h1.352
				c1.365,0,2.285,0.814,2.848,1.828l2.346,4.654v2.562c0,1.553,0.068,1.467-1.432,1.651v0.433h4.48v-0.433
				c-1.496-0.185-1.432-0.099-1.432-1.651v-1.866c0-0.415,0.033-0.884,0.201-1.216l2.781-5.049c0.451-0.801,0.9-1.016,1.367-1.016
				v-0.432H154.357z"/>
			<path fill="#5E6A71" d="M76.514,113.408l-5.252,0.014v0.436c1.053,0.113,1.816,0.576,1.926,1.385
				c0.045,0.355,0.137,0.736,0.137,1.207v6.229c0,3.589-1.617,5.647-4.686,5.647c-3.34,0-4.342-2.396-4.342-5.536v-6.565
				c0-2.084,0.061-2.121,2.078-2.367v-0.436h-6.031v0.436c2.021,0.246,1.932,0.283,1.932,2.367v6.679
				c0,4.056,1.479,6.479,6.25,6.479c2.891,0,5.965-1.793,5.965-6.613v-6.32c0-0.039,0-0.075,0-0.111
				c-0.02-1.945,0.736-2.229,2.01-2.435L76.514,113.408z"/>
		</g>
		<g>
			<path fill="#5E6A71" d="M65.235,105.058c0,1.544-0.066,1.461,1.426,1.643v0.432h-4.463V106.7
				c1.494-0.182,1.428-0.099,1.428-1.643v-7.469c0-1.54-0.719-1.457-2.211-1.64v-0.43h5.246v0.43c-1.492,0.183-1.426,0.1-1.426,1.64
				v2.874h5.824v-2.874c0-1.54,0.064-1.457-1.428-1.64v-0.43h4.463v0.43c-1.492,0.183-1.428,0.1-1.428,1.64v7.469
				c0,1.544-0.064,1.461,1.428,1.643v0.432h-4.463V106.7c1.492-0.182,1.428-0.099,1.428-1.643v-3.918h-5.824V105.058z"/>
			<path fill="#5E6A71" d="M78.959,105.058c0,1.544-0.068,1.461,1.424,1.643v0.432h-4.461V106.7
				c1.492-0.182,1.426-0.099,1.426-1.643v-7.469c0-1.54,0.066-1.457-1.426-1.64v-0.43h4.461v0.43c-1.492,0.183-1.424,0.1-1.424,1.64
				V105.058z"/>
			<path fill="#5E6A71" d="M92.752,107.132c-2.639-3.119-5.377-6.389-8.08-9.575v7.337c0,0.345,0.066,0.629,0.102,0.895
				c0.082,0.599,0.645,0.827,1.738,0.912v0.432H82.45V106.7c0.795-0.085,1.344-0.313,1.428-0.912c0.031-0.266,0.1-0.55,0.1-0.895
				v-7.816c-0.467-0.596-0.98-1.128-1.926-1.128v-0.43h3.02c2.473,3.001,5.043,6.054,7.516,9.056h0.031v-6.816
				c0-0.35-0.064-0.633-0.1-0.898c-0.08-0.598-0.646-0.827-1.742-0.911v-0.43h4.066v0.43c-0.779,0.084-1.344,0.313-1.428,0.911
				c-0.033,0.266-0.1,0.549-0.1,0.898v9.373H92.752z"/>
			<path fill="#5E6A71" d="M95.198,101.259c0-2.555,2.158-5.943,6.637-5.943c1.607,0,2.371,0.301,3.186,0.568
				c0.463,0.149,0.646,0.379,0.646,0.646v2.141h-0.432c-0.049-1.328-0.896-2.771-3.533-2.771c-3.469,0-4.598,2.389-4.611,5.225
				c-0.018,2.621,1.309,5.627,4.678,5.627c2.074,0,2.256-0.766,2.256-2.059v-1.012c0-1.545,0.064-1.459-1.76-1.643v-0.43h4.795v0.43
				c-1.492,0.184-1.426,0.098-1.426,1.643v2.888c-1.062,0.414-2.455,0.763-3.965,0.763
				C98.268,107.331,95.198,105.705,95.198,101.259z"/>
			<path fill="#5E6A71" d="M112.752,105.058c0,1.544-0.066,1.461,1.426,1.643v0.432h-4.463V106.7
				c1.492-0.182,1.426-0.099,1.426-1.643v-9.009h-1.346c-1.443,0-1.773,0.909-2.322,2.007h-0.414l0.449-2.536h8.876l0.447,2.536
				h-0.414c-0.547-1.098-0.879-2.007-2.322-2.007h-1.344V105.058z"/>
			<path fill="#5E6A71" d="M116.832,101.54c0-3.586,2.787-6.225,6.238-6.225c3.6,0,5.689,3.105,5.689,5.662
				c0,3.501-2.621,6.354-6.289,6.354C119.303,107.331,116.832,104.761,116.832,101.54z M126.867,101.474
				c0-3.965-2.139-5.574-4.164-5.574c-2.818,0-3.979,2.521-3.979,4.777c0,4.016,2.055,6.074,4.195,6.074
				C126.006,106.751,126.867,103.698,126.867,101.474z"/>
			<path fill="#5E6A71" d="M139.463,107.132c-2.641-3.119-5.375-6.389-8.082-9.575v7.337c0,0.345,0.066,0.629,0.102,0.895
				c0.082,0.599,0.646,0.827,1.74,0.912v0.432h-4.064V106.7c0.797-0.085,1.344-0.313,1.428-0.912c0.033-0.266,0.1-0.55,0.1-0.895
				v-7.816c-0.465-0.596-0.979-1.128-1.926-1.128v-0.43h3.021c2.473,3.001,5.041,6.054,7.516,9.056h0.031v-6.816
				c0-0.35-0.066-0.633-0.1-0.898c-0.082-0.598-0.645-0.827-1.742-0.911v-0.43h4.064v0.43c-0.779,0.084-1.342,0.313-1.426,0.911
				c-0.033,0.266-0.1,0.549-0.1,0.898v9.373H139.463z"/>
			<path fill="#5E6A71" d="M46.569,93.298v-0.019h-4.488v0.556c1.732,0.02,2.016,0.638,1.561,1.947l-3.396,9.248h-0.188l-4-11.561
				h-1.014l-4.201,11.561h-0.285l-3.012-9.187c-0.428-1.454,0.17-2.009,1.516-2.009v-0.556h-5.326v0.556
				c1.133,0,1.336,0.881,2.062,2.971l3.867,11.43h1.018l4.137-11.658l4.076,11.668h1.139c1.744-4.641,4.201-11.505,5.104-13.354
				c0.336-0.693,0.943-1.05,1.512-1.05v-0.544H46.569z"/>
			<path fill="#5E6A71" d="M58.502,100.899c-1.746-1.311-2.969-2.043-2.969-3.266c0-1.291,0.908-1.816,1.922-1.816
				c1.396,0,2.059,0.979,2.199,2.201h0.453v-2.287c0-0.088-0.018-0.157-0.123-0.192c-0.697-0.244-1.693-0.333-2.443-0.333
				c-2.008,0-3.752,1.24-3.752,2.812c0,0.852,0.234,1.457,0.578,1.924h-0.006c0.006,0.007,0.014,0.013,0.021,0.02
				c0.422,0.564,1.002,0.924,1.518,1.269c2.619,1.728,3.23,2.653,3.23,3.788c0,1.055-0.793,2.113-2.252,2.217
				c-1.494,0.107-3.416-0.615-4.225-2.712c-0.717-2.011-2.178-6.239-3.164-9.157h-0.963c-1.377,3.668-3.242,9.044-3.957,10.503
				c-0.264,0.548-0.744,0.831-1.193,0.831v0.432h0.717h2.301V106.7c-0.729,0-1.043-0.549-0.828-1.195l0.764-2.225h4.23l0.713,2.141
				l0.551,1.649c0,0,2.967,0.776,4.896,0.776c2.096,0,4.225-1.152,4.225-3.229C60.946,103.167,60.352,102.278,58.502,100.899z
				 M46.579,102.651l1.975-5.393h0.033l1.76,5.393H46.579z"/>
		</g>
		<g>
			<path fill="#5E6A71" d="M153.021,96.292c-0.178-1.566-1.027-2.816-2.811-2.816c-1.297,0-2.605,0.67-2.605,2.321
				c0,1.563,1.562,2.499,3.797,4.175c2.363,1.764,3.125,2.902,3.125,4.756c0,2.654-2.576,4.129-5.252,4.129
				c-1.432,0-2.66-0.271-3.82-0.715c-0.088-0.045-0.156-0.135-0.156-0.31v-3.218h0.58c0.248,2.477,1.873,3.46,3.596,3.46
				c1.584,0,3.025-1.206,3.025-2.835c0-1.452-0.781-2.635-4.129-4.841c-1.205-0.804-2.699-1.677-2.699-4.106
				c0-2.016,2.08-3.598,4.648-3.598c0.961,0,2.232,0.111,3.125,0.426c0.135,0.041,0.156,0.135,0.156,0.246v2.926H153.021z"/>
			<path fill="#5E6A71" d="M160.16,105.069c0,1.547-0.064,1.457,1.43,1.646v0.428h-4.467v-0.428c1.494-0.189,1.43-0.1,1.43-1.646
				v-9.014h-1.348c-1.443,0-1.775,0.914-2.322,2.008h-0.412l0.445-2.537h8.879l0.449,2.537h-0.416
				c-0.547-1.094-0.879-2.008-2.32-2.008h-1.348V105.069z"/>
			<path fill="#5E6A71" d="M165.953,103.292l-0.76,2.226c-0.217,0.649,0.098,1.198,0.828,1.198v0.428H163v-0.428
				c0.447,0,0.93-0.288,1.195-0.832c0.713-1.463,2.654-6.887,4.033-10.557h0.928c1.129,3.336,2.82,8.451,3.385,9.926
				c0.369,0.926,0.633,1.463,1.346,1.463v0.428h-3.867v-0.428c1.045,0,1.148-0.549,0.883-1.282l-0.717-2.142H165.953z
				 M169.973,102.663l-1.76-5.395h-0.033l-1.977,5.395H169.973z"/>
			<path fill="#5E6A71" d="M178.42,105.069c0,1.547-0.066,1.457,1.426,1.646v0.428h-4.465v-0.428c1.494-0.189,1.43-0.1,1.43-1.646
				v-9.014h-1.346c-1.445,0-1.773,0.914-2.324,2.008h-0.416l0.451-2.537h8.879l0.445,2.537h-0.416
				c-0.543-1.094-0.875-2.008-2.318-2.008h-1.346V105.069z"/>
			<path fill="#5E6A71" d="M183.285,106.716c1.496-0.189,1.281-0.1,1.281-1.646v-7.471c0-1.543,0.215-1.461-1.281-1.643v-0.43h7.27
				v2.668h-0.434c-0.166-1.225-0.494-2.139-1.689-2.139h-2.262v4.752h1.395c1.045,0,1.496-0.417,1.525-1.445h0.434v3.531h-0.434
				c-0.029-0.982-0.412-1.562-1.525-1.562h-1.395v3.75c0,1.415,0.65,1.534,2.145,1.534c2.406,0,2.289-0.684,3.055-2.459h0.43
				l-0.5,2.986h-8.014V106.716z"/>
		</g>
	</g>
	<g>
		<g>
			<g>
				<g>
					<path fill="#5E6A71" d="M116.787,75.41l-8.5,6.066l-8.492-6.066c-6.039-4.139-11.215-7.688-13.926-13.078
						c2.24,10.104,12.094,13.882,22.418,21.985c10.326-8.103,20.185-11.88,22.425-21.985C128,67.723,122.824,71.271,116.787,75.41z"
						/>
					<g>
						<path fill="#981E32" d="M84.696,26v1.06c0.656,0.227,0.873,0.436,0.943,1.397v24.422c0,13.585,11.025,17.174,22.656,26.301
							c11.632-9.127,22.664-12.716,22.664-26.301V28.184c0.086-0.741,0.322-0.921,0.912-1.125V26H84.696z"/>
					</g>
				</g>
			</g>
		</g>
		<g>
			<g>
				<g>
					<path fill="#FFFFFF" d="M112.883,65.758c0,0,1.887-0.804,2.916-3.93c0.91,1.905,0.67,3.864,0.67,3.864
						C115.637,65.88,112.883,65.758,112.883,65.758z"/>
					<path fill="#FFFFFF" d="M123.006,47.893c0,0,1.146,6.275-2.92,6.491c-3.926,0.206-5.781-5.717-5.781-5.717
						s0.949,11.576,6.453,10.814C126.961,58.623,123.006,47.893,123.006,47.893z"/>
				</g>
			</g>
			<path fill="#FFFFFF" d="M93.106,64.265c0.002,0,0.006,0,0.008,0c4.592-1.047,8.104-6.42,9.137-8.577l0.654-1.368l0.396,1.464
				c0.02,0.082,0.449,1.691,0.449,3.821c0,0.234-0.008,0.478-0.02,0.723c1.584,0.059,2.713-0.261,3.418-0.992
				c1.006-1.051,1.311-3.03,0.932-6.058c-0.184-1.45-0.719-3.757-1.189-5.791c-0.244-1.039-0.471-2.022-0.607-2.717
				c-0.885-4.45,0.211-7.211,1.289-8.743c0.17-0.243,0.354-0.472,0.547-0.691c-3.172,1.073-5.836,2.741-8.584,5.491l1.932,2.25
				l0.791-0.739c0.744,2.79,0.209,5.362,0.209,5.362c-1.018-1.554-2.219-2.812-2.219-2.812l0.529-0.887l-1.742-2.03l-0.203-0.225
				c-2.141,2.95-2.836,5.368-2.836,5.368l1.521,1.387l0.885,0.806l0.295-0.854c1.635,3.066,0.145,5.934,0.145,5.934
				c-0.271-1.047-1.346-2.59-1.346-2.59l0.424-1.406l-2.26-2.054c-2.352,7.369-5.498,9.758-5.498,9.758s3.404-0.615,5.295-1.252
				C95.458,56.844,95.405,60.727,93.106,64.265z"/>
			<path fill="#FFFFFF" d="M127.418,37.686l-5.43,0.23c0.006,0.644-0.082,1.29-0.291,1.903c0.508,2.225,0.16,3.432,0.16,3.432
				c-0.912-2.121-1.607-2.707-1.607-2.707c-4.984-2.226-7.785,2.8-7.486,6.042c0.246,2.662,1.207,6.198,1.961,11.743
				c0.635,4.667-1.723,6.681-4.436,7.146c-0.059,0.01-0.115,0.021-0.176,0.03c-0.014,0-0.027,0.006-0.041,0.006
				c-0.438,0.057-0.908,0.078-1.402,0.063c-0.018,0-0.035,0-0.049,0c-0.055,0-0.109-0.006-0.162-0.006
				c-0.211-0.014-0.422-0.034-0.629-0.062c-2.107-0.29-6.83-1.15-11.705-1.269c2.867-1.682,5.111-4.586,6.361-6.65
				c0.076,0.572,0.137,1.269,0.137,2.036c0,0.383-0.016,0.782-0.053,1.195l-0.047,0.559l0.561,0.051
				c2.244,0.195,3.84-0.234,4.871-1.31c1.279-1.33,1.669-3.548,1.24-6.979c-0.189-1.51-0.73-3.844-1.207-5.905
				c-0.242-1.032-0.471-2.006-0.602-2.685c-0.807-4.056,0.152-6.52,1.102-7.871c0.748-1.062,1.775-1.835,2.902-2.209
				c0.02-0.001,0.037-0.007,0.059-0.007l1.85-5.71h0.582l-1.242,5.486c0.289-0.055,0.582-0.1,0.881-0.144l1.596-5.057h0.578
				l-1.047,4.898c1.656-0.215,3.451-0.38,5.443-0.529c0.324,0.135,0.668,0.507,0.979,1.026l5.229-1.613l0.189,0.563l-4.992,1.949
				c0.039,0.102,0.076,0.21,0.115,0.317l5.459-0.68l0.092,0.589l-5.303,1.06c0.02,0.1,0.035,0.199,0.049,0.298l5.52,0.176
				L127.418,37.686z M111.688,40.134c1.094-0.769,2.957-1.363,4.703-1.229c0.445,0.037,0.818-0.08,0.34-0.338
				c-1.309-0.689-4.354-0.456-5.432,0.284c-1.729,1.182-1.436,3.284-1.395,3.334C110.248,41.583,110.834,40.736,111.688,40.134z"/>
		</g>
	</g>
</g>
</svg>
