<?xml version="1.0" encoding="utf-8"?>
<!-- Generator: Adobe Illustrator 17.0.0, SVG Export Plug-In . SVG Version: 6.00 Build 0)  -->
<!DOCTYPE svg PUBLIC "-//W3C//DTD SVG 1.1//EN" "http://www.w3.org/Graphics/SVG/1.1/DTD/svg11.dtd">
<svg version="1.1" id="Layer_1" xmlns="http://www.w3.org/2000/svg" xmlns:xlink="http://www.w3.org/1999/xlink" x="0px" y="0px"
	 width="216px" height="180px" viewBox="0 0 216 180" enable-background="new 0 0 216 180" xml:space="preserve">
<g>
	<g>
		<g>
			<path fill="#5E6A71" d="M130.867,118.872c-1.757-1.317-2.99-2.056-2.99-3.287c0-1.299,0.915-1.828,1.935-1.828
				c1.405,0,2.073,0.986,2.214,2.217h0.456v-2.304c0-0.089-0.019-0.159-0.124-0.193c-0.704-0.247-1.703-0.333-2.46-0.333
				c-2.022,0-3.776,1.246-3.776,2.829c0,0.855,0.237,1.468,0.58,1.935h-0.007c0.009,0.008,0.017,0.014,0.023,0.02
				c0.428,0.568,1.013,0.932,1.53,1.276c2.637,1.741,3.23,2.673,3.251,3.813c0.048,2.536-4.701,3.871-7.828-1.005l-1.623-2.47
				c1.279-0.496,2.321-1.675,2.321-3.383c0-1.942-1.676-2.816-3.347-2.816h-4.827v0.43c1.493,0.177,1.425,0.1,1.425,1.639v7.461
				c0,1.548,0.068,1.461-1.425,1.642v0.431h4.462v-0.431c-1.495-0.181-1.43-0.096-1.43-1.642v-3.064h1.564
				c2.003,3.333,2.501,4.781,3.511,5.138c0.228,0.08,2.828,0.917,4.666,0.917c2.11,0,4.362-1.16,4.362-3.251
				C133.327,121.158,132.729,120.259,130.867,118.872z M120.608,119.457h-1.38v-5.404h1.277c1.209,0,2.209,0.629,2.209,2.438
				C122.711,118.363,122.047,119.457,120.608,119.457z"/>
			<path fill="#5E6A71" d="M87.245,124.933c0,0,0,0-8.114-9.615v7.365c0,0.349,0.069,0.632,0.098,0.899
				c0.087,0.6,0.654,0.832,1.752,0.918v0.433h-4.083V124.5c0.803-0.086,1.35-0.319,1.433-0.918c0.034-0.267,0.101-0.55,0.101-0.899
				v-7.847c-0.464-0.599-0.987-1.132-1.931-1.132v-0.437h3.03c2.483,3.02,5.069,6.084,7.55,9.102h0.034v-6.85
				c0-0.35-0.069-0.632-0.102-0.9c-0.086-0.599-0.647-0.83-1.747-0.915v-0.437h4.081v0.437c-0.782,0.084-1.35,0.315-1.435,0.915
				c-0.033,0.268-0.098,0.549-0.098,0.9v9.417L87.245,124.933L87.245,124.933z"/>
			<path fill="#5E6A71" d="M93.793,122.849c0,1.553-0.066,1.467,1.432,1.651v0.433h-4.481V124.5
				c1.502-0.185,1.433-0.099,1.433-1.651v-7.497c0-1.548,0.069-1.468-1.433-1.649v-0.431h4.481v0.431
				c-1.498,0.181-1.432,0.102-1.432,1.649V122.849z"/>
			<path fill="#5E6A71" d="M114.992,121.932c-0.766,1.784-0.65,2.469-3.063,2.469c-1.5,0-2.153-0.119-2.153-1.538v-3.764h1.403
				c1.114,0,1.5,0.587,1.531,1.57h0.433v-3.553h-0.433c-0.03,1.032-0.482,1.451-1.531,1.451h-1.403v-4.764h2.646
				c1.196,0,1.533,0.915,1.698,2.148h0.433v-2.68h-7.675h-3.301v0.431c1.13,0,1.566,0.514,1.148,1.567
				c-1.032,2.548-2.05,5.111-3.117,7.664c-0.865-2.53-1.831-5.395-2.476-7.363c-0.553-1.602,0.116-1.868,1.032-1.868v-0.431h-4.238
				v0.431c0.803,0,1.018,0.514,1.637,2.299c1.016,2.833,2.15,6.047,3.166,8.931h0.848c1.401-3.416,2.817-6.815,4.215-10.229
				c0.35-0.835,0.599-1.002,1.085-1.002c1.498,0.181,1.284,0.102,1.284,1.649v7.497c0,1.553,0.215,1.467-1.284,1.651v0.433h8.048
				l0.499-3.001L114.992,121.932L114.992,121.932z"/>
			<path fill="#5E6A71" d="M137.316,122.849c0,1.553-0.071,1.467,1.431,1.651v0.433h-4.484V124.5
				c1.502-0.185,1.435-0.099,1.435-1.651v-7.497c0-1.548,0.066-1.468-1.435-1.649v-0.431h4.484v0.431
				c-1.503,0.181-1.431,0.102-1.431,1.649V122.849z"/>
			<path fill="#5E6A71" d="M154.356,113.271v0.431c0.983,0,1.516,0.48,0.948,1.498l-2.297,4.185l-2.018-4.185
				c-0.418-0.867-0.532-1.498,0.731-1.498v-0.431h-2.792h-1.156h-7.759l-0.451,2.544h0.418c0.546-1.096,0.882-2.011,2.331-2.011
				h1.353v9.045c0,1.553,0.065,1.467-1.435,1.651v0.433h4.482V124.5c-1.498-0.185-1.433-0.099-1.433-1.651v-9.045h1.351
				c1.364,0,2.285,0.814,2.847,1.828l2.346,4.654v2.562c0,1.553,0.07,1.467-1.431,1.651v0.433h4.48V124.5
				c-1.497-0.185-1.432-0.099-1.432-1.651v-1.867c0-0.416,0.034-0.884,0.202-1.216l2.78-5.049c0.45-0.801,0.901-1.017,1.367-1.017
				v-0.431C157.788,113.271,154.356,113.271,154.356,113.271z"/>
			<path fill="#5E6A71" d="M76.518,113.262l-5.251,0.014v0.436c1.05,0.114,1.815,0.576,1.924,1.385
				c0.045,0.355,0.138,0.736,0.138,1.207v6.23c0,3.589-1.618,5.648-4.685,5.648c-3.34,0-4.343-2.396-4.343-5.536v-6.563
				c0-2.084,0.062-2.121,2.078-2.368v-0.436H60.35v0.436c2.02,0.247,1.93,0.283,1.93,2.368v6.678c0,4.055,1.478,6.479,6.249,6.479
				c2.892,0,5.965-1.792,5.965-6.612v-6.32c0-0.039,0-0.075,0-0.111c-0.021-1.944,0.735-2.228,2.009-2.434L76.518,113.262z"/>
		</g>
		<g>
			<path fill="#5E6A71" d="M65.241,104.913c0,1.544-0.066,1.461,1.425,1.642v0.431h-4.462v-0.431
				c1.494-0.181,1.426-0.099,1.426-1.642v-7.468c0-1.541-0.719-1.457-2.211-1.639v-0.43h5.246v0.43
				c-1.493,0.183-1.425,0.1-1.425,1.639v2.874h5.823v-2.874c0-1.541,0.065-1.457-1.427-1.639v-0.43h4.462v0.43
				c-1.493,0.183-1.427,0.1-1.427,1.639v7.468c0,1.544-0.065,1.461,1.427,1.642v0.431h-4.462v-0.431
				c1.494-0.181,1.427-0.099,1.427-1.642v-3.918H65.24L65.241,104.913L65.241,104.913z"/>
			<path fill="#5E6A71" d="M78.964,104.913c0,1.544-0.069,1.461,1.425,1.642v0.431h-4.461v-0.431
				c1.493-0.181,1.425-0.099,1.425-1.642v-7.468c0-1.541,0.066-1.457-1.425-1.639v-0.43h4.461v0.43
				c-1.494,0.183-1.425,0.1-1.425,1.639V104.913z"/>
			<path fill="#5E6A71" d="M92.756,106.986c-2.638-3.118-5.376-6.388-8.077-9.574v7.336c0,0.345,0.065,0.63,0.101,0.894
				c0.082,0.598,0.644,0.827,1.738,0.912v0.431h-4.063v-0.431c0.795-0.086,1.343-0.314,1.427-0.912c0.033-0.266,0.1-0.55,0.1-0.894
				v-7.816c-0.466-0.596-0.98-1.128-1.925-1.128v-0.43h3.02c2.472,3.002,5.043,6.053,7.515,9.056h0.033v-6.817
				c0-0.349-0.066-0.632-0.1-0.899c-0.082-0.597-0.648-0.827-1.742-0.911v-0.43h4.066v0.43c-0.78,0.084-1.343,0.314-1.428,0.911
				c-0.032,0.266-0.099,0.549-0.099,0.899v9.373H92.756z"/>
			<path fill="#5E6A71" d="M95.2,101.114c0-2.554,2.158-5.943,6.635-5.943c1.608,0,2.371,0.302,3.185,0.568
				c0.463,0.149,0.647,0.379,0.647,0.645v2.141h-0.431c-0.05-1.328-0.897-2.77-3.534-2.77c-3.467,0-4.596,2.388-4.611,5.224
				c-0.018,2.62,1.309,5.627,4.677,5.627c2.074,0,2.255-0.765,2.255-2.058v-1.013c0-1.546,0.065-1.459-1.759-1.642v-0.429h4.795
				v0.429c-1.493,0.184-1.425,0.098-1.425,1.642v2.887c-1.061,0.415-2.456,0.763-3.965,0.763
				C98.271,107.184,95.2,105.559,95.2,101.114z"/>
			<path fill="#5E6A71" d="M112.754,104.913c0,1.544-0.066,1.461,1.425,1.642v0.431h-4.461v-0.431
				c1.491-0.181,1.425-0.099,1.425-1.642v-9.009h-1.345c-1.443,0-1.773,0.91-2.322,2.006h-0.415l0.448-2.536h8.875l0.446,2.536
				h-0.413c-0.546-1.096-0.879-2.006-2.323-2.006h-1.343C112.754,95.904,112.754,104.913,112.754,104.913z"/>
			<path fill="#5E6A71" d="M116.834,101.395c0-3.587,2.787-6.225,6.239-6.225c3.599,0,5.688,3.105,5.688,5.663
				c0,3.501-2.62,6.352-6.287,6.352C119.303,107.184,116.834,104.615,116.834,101.395z M126.868,101.329
				c0-3.964-2.139-5.574-4.165-5.574c-2.819,0-3.978,2.52-3.978,4.778c0,4.015,2.055,6.073,4.195,6.073
				C126.007,106.605,126.868,103.552,126.868,101.329z"/>
			<path fill="#5E6A71" d="M139.462,106.986c-2.639-3.118-5.375-6.388-8.081-9.574v7.336c0,0.345,0.068,0.63,0.102,0.894
				c0.082,0.598,0.647,0.827,1.739,0.912v0.431h-4.063v-0.431c0.796-0.086,1.343-0.314,1.426-0.912
				c0.034-0.266,0.101-0.55,0.101-0.894v-7.816c-0.464-0.596-0.98-1.128-1.926-1.128v-0.43h3.022
				c2.472,3.002,5.041,6.053,7.515,9.056h0.03v-6.817c0-0.349-0.066-0.632-0.1-0.899c-0.082-0.597-0.644-0.827-1.742-0.911v-0.43
				h4.064v0.43c-0.78,0.084-1.342,0.314-1.425,0.911c-0.034,0.266-0.1,0.549-0.1,0.899v9.373H139.462z"/>
			<path fill="#5E6A71" d="M46.575,93.152v-0.018h-4.487v0.555c1.732,0.02,2.014,0.638,1.56,1.947l-3.395,9.247h-0.187
				l-3.999-11.559h-1.015l-4.202,11.559h-0.286l-3.011-9.185c-0.428-1.454,0.17-2.009,1.517-2.009v-0.555h-5.326v0.555
				c1.131,0,1.335,0.881,2.062,2.971l3.866,11.429h1.017l4.137-11.657l4.077,11.667h1.139c1.743-4.64,4.201-11.503,5.102-13.352
				c0.337-0.694,0.945-1.049,1.512-1.049v-0.545C46.656,93.152,46.575,93.152,46.575,93.152z"/>
			<path fill="#5E6A71" d="M58.508,100.754c-1.746-1.309-2.968-2.042-2.968-3.266c0-1.291,0.908-1.816,1.92-1.816
				c1.397,0,2.058,0.979,2.199,2.2h0.452v-2.287c0-0.089-0.018-0.158-0.123-0.193c-0.698-0.244-1.693-0.333-2.445-0.333
				c-2.006,0-3.751,1.24-3.751,2.812c0,0.852,0.234,1.458,0.578,1.923h-0.003c0.007,0.007,0.014,0.012,0.021,0.02
				c0.421,0.563,1.004,0.924,1.517,1.268c2.619,1.727,3.23,2.653,3.23,3.787c0,1.053-0.793,2.113-2.252,2.217
				c-1.494,0.108-3.416-0.615-4.223-2.711c-0.719-2.01-2.179-6.239-3.164-9.156h-0.962c-1.378,3.668-3.243,9.044-3.958,10.502
				c-0.264,0.548-0.744,0.831-1.193,0.831v0.431h0.718h2.301v-0.431c-0.729,0-1.043-0.549-0.829-1.195l0.764-2.224h4.23l0.713,2.141
				l0.55,1.649c0,0,2.967,0.776,4.897,0.776c2.095,0,4.224-1.151,4.224-3.227C60.952,103.022,60.358,102.133,58.508,100.754z
				 M46.586,102.506l1.974-5.392h0.033l1.76,5.392H46.586z"/>
		</g>
		<g>
			<path fill="#5E6A71" d="M153.02,96.148c-0.177-1.567-1.026-2.816-2.811-2.816c-1.297,0-2.605,0.67-2.605,2.322
				c0,1.565,1.564,2.498,3.796,4.175c2.363,1.763,3.124,2.902,3.124,4.756c0,2.654-2.575,4.13-5.252,4.13
				c-1.431,0-2.66-0.271-3.819-0.715c-0.088-0.045-0.157-0.135-0.157-0.31v-3.217h0.58c0.249,2.475,1.873,3.46,3.597,3.46
				c1.584,0,3.026-1.207,3.026-2.834c0-1.452-0.781-2.635-4.13-4.841c-1.204-0.803-2.699-1.676-2.699-4.106
				c0-2.015,2.08-3.598,4.647-3.598c0.962,0,2.233,0.113,3.125,0.426c0.135,0.042,0.155,0.135,0.155,0.246v2.926
				C153.599,96.148,153.02,96.148,153.02,96.148z"/>
			<path fill="#5E6A71" d="M160.157,104.924c0,1.548-0.064,1.458,1.43,1.647v0.428h-4.466v-0.428c1.494-0.189,1.428-0.1,1.428-1.647
				v-9.013h-1.346c-1.443,0-1.775,0.915-2.323,2.007h-0.411l0.444-2.536h8.877l0.448,2.536h-0.416
				c-0.546-1.093-0.88-2.007-2.321-2.007h-1.347L160.157,104.924L160.157,104.924z"/>
			<path fill="#5E6A71" d="M165.951,103.146l-0.759,2.226c-0.217,0.65,0.098,1.198,0.827,1.198v0.428h-3.021v-0.428
				c0.446,0,0.93-0.288,1.194-0.832c0.714-1.463,2.654-6.885,4.033-10.556h0.928c1.129,3.336,2.821,8.45,3.384,9.925
				c0.368,0.926,0.632,1.463,1.345,1.463v0.428h-3.867v-0.428c1.044,0,1.148-0.549,0.883-1.283l-0.718-2.143L165.951,103.146
				L165.951,103.146z M169.971,102.517l-1.76-5.394h-0.033l-1.977,5.394H169.971z"/>
			<path fill="#5E6A71" d="M178.417,104.924c0,1.548-0.068,1.458,1.425,1.647v0.428h-4.464v-0.428c1.495-0.189,1.43-0.1,1.43-1.647
				v-9.013h-1.345c-1.445,0-1.773,0.915-2.324,2.007h-0.416l0.45-2.536h8.878l0.444,2.536h-0.417
				c-0.542-1.093-0.874-2.007-2.317-2.007h-1.345L178.417,104.924L178.417,104.924z"/>
			<path fill="#5E6A71" d="M183.279,106.57c1.497-0.189,1.282-0.1,1.282-1.647v-7.469c0-1.543,0.215-1.461-1.282-1.642v-0.429h7.268
				v2.668h-0.434c-0.166-1.225-0.493-2.139-1.69-2.139h-2.262v4.752h1.394c1.044,0,1.497-0.417,1.525-1.445h0.434v3.53h-0.434
				c-0.028-0.983-0.411-1.562-1.525-1.562h-1.394v3.749c0,1.415,0.65,1.535,2.145,1.535c2.405,0,2.289-0.684,3.055-2.459h0.429
				L191.292,107h-8.012V106.57L183.279,106.57z"/>
		</g>
	</g>
	<g>
		<path fill="#5E6A71" d="M116.789,75.268l-8.499,6.066l-8.493-6.066c-6.038-4.139-11.213-7.687-13.925-13.077
			c2.241,10.103,12.092,13.881,22.417,21.983c10.325-8.101,20.184-11.88,22.423-21.983C128.001,67.58,122.826,71.129,116.789,75.268
			z"/>
		<path fill="#981E32" d="M84.7,25.862v1.059c0.656,0.228,0.872,0.436,0.943,1.397v24.42c0,13.584,11.024,17.173,22.654,26.298
			c11.634-9.127,22.662-12.714,22.662-26.298V28.046c0.087-0.741,0.323-0.921,0.912-1.124v-1.059H84.7z"/>
		<g>
			<g>
				<g>
					<path fill="#FFFFFF" d="M112.885,65.617c0,0,1.887-0.804,2.917-3.928c0.91,1.904,0.67,3.864,0.67,3.864
						C115.64,65.738,112.885,65.617,112.885,65.617z"/>
					<path fill="#FFFFFF" d="M123.007,47.753c0,0,1.146,6.275-2.92,6.49c-3.925,0.206-5.781-5.717-5.781-5.717
						s0.951,11.575,6.454,10.813C126.961,58.48,123.007,47.753,123.007,47.753z"/>
				</g>
			</g>
			<path fill="#FFFFFF" d="M93.108,64.123c0.002,0,0.006,0,0.008,0c4.591-1.047,8.103-6.42,9.137-8.575l0.653-1.368l0.397,1.464
				c0.02,0.082,0.448,1.692,0.448,3.821c0,0.233-0.007,0.478-0.019,0.724c1.584,0.059,2.711-0.261,3.417-0.992
				c1.007-1.05,1.31-3.03,0.933-6.057c-0.184-1.45-0.719-3.756-1.19-5.79c-0.243-1.038-0.47-2.022-0.607-2.717
				c-0.885-4.45,0.212-7.21,1.289-8.742c0.17-0.243,0.353-0.471,0.546-0.692c-3.171,1.073-5.834,2.742-8.583,5.491l1.931,2.251
				l0.791-0.739c0.744,2.789,0.211,5.362,0.211,5.362c-1.018-1.555-2.218-2.812-2.218-2.812l0.528-0.888l-1.742-2.03l-0.203-0.225
				C96.694,44.559,96,46.977,96,46.977l1.522,1.387l0.887,0.807l0.295-0.854c1.635,3.064,0.145,5.933,0.145,5.933
				c-0.273-1.047-1.344-2.59-1.344-2.59l0.424-1.406l-2.26-2.054c-2.353,7.369-5.499,9.757-5.499,9.757s3.404-0.615,5.296-1.252
				C95.461,56.704,95.409,60.586,93.108,64.123z"/>
			<path fill="#FFFFFF" d="M127.419,37.546l-5.429,0.231c0.006,0.644-0.082,1.29-0.292,1.902c0.507,2.225,0.16,3.431,0.16,3.431
				c-0.911-2.121-1.608-2.707-1.608-2.707c-4.984-2.226-7.784,2.799-7.486,6.042c0.247,2.662,1.207,6.198,1.96,11.742
				c0.634,4.666-1.721,6.679-4.435,7.144c-0.059,0.01-0.116,0.021-0.175,0.03c-0.015,0-0.027,0.006-0.042,0.006
				c-0.437,0.057-0.909,0.078-1.403,0.063c-0.018,0-0.034,0-0.048,0c-0.054,0-0.11-0.006-0.162-0.006
				c-0.211-0.015-0.421-0.035-0.63-0.063c-2.107-0.289-6.829-1.149-11.704-1.268c2.868-1.682,5.11-4.585,6.361-6.649
				c0.075,0.572,0.137,1.268,0.137,2.036c0,0.383-0.017,0.782-0.054,1.195l-0.047,0.559l0.56,0.051
				c2.244,0.195,3.839-0.234,4.871-1.309c1.28-1.329,1.669-3.548,1.24-6.979c-0.19-1.511-0.731-3.844-1.208-5.905
				c-0.242-1.031-0.47-2.006-0.602-2.684c-0.807-4.057,0.153-6.519,1.101-7.87c0.748-1.06,1.775-1.835,2.903-2.209
				c0.02-0.001,0.037-0.007,0.06-0.007l1.849-5.71h0.582l-1.241,5.485c0.289-0.055,0.582-0.1,0.881-0.144l1.596-5.058h0.579
				l-1.047,4.898c1.657-0.215,3.451-0.38,5.442-0.53c0.324,0.136,0.668,0.507,0.979,1.026l5.228-1.613l0.189,0.562l-4.993,1.949
				c0.039,0.101,0.077,0.211,0.116,0.318l5.459-0.68l0.092,0.588l-5.303,1.059c0.02,0.1,0.035,0.198,0.05,0.298l5.519,0.176
				L127.419,37.546z M111.689,39.994c1.094-0.769,2.958-1.362,4.703-1.229c0.444,0.037,0.818-0.08,0.339-0.339
				c-1.309-0.689-4.353-0.455-5.431,0.284c-1.727,1.182-1.435,3.284-1.394,3.336C110.25,41.443,110.835,40.596,111.689,39.994z"/>
		</g>
	</g>
</g>
<g>
	<path fill="#5E6A71" d="M51.914,148.816l-3.237-8.646l1.237-0.225c0.849,2.386,1.686,4.785,2.523,7.472h0.025
		c0.875-2.688,1.773-5.086,2.661-7.472l1.086,0.15l-3.487,8.722C52.723,148.816,51.914,148.816,51.914,148.816z"/>
	<path fill="#5E6A71" d="M65.585,140.067l3.261,8.747h-1.4l-0.9-2.574h-3.338l-0.937,2.574h-1.174l3.562-8.747H65.585z
		 M66.26,145.366c-0.437-1.212-0.863-2.424-1.3-3.998h-0.025c-0.448,1.575-0.912,2.787-1.387,3.998H66.26z"/>
	<path fill="#5E6A71" d="M83.507,148.816h-0.951c-1.899-2.274-5.16-6.198-5.686-6.961h-0.026v6.961h-1v-8.747h0.9
		c1.924,2.274,5.147,6.098,5.736,6.973h0.025v-6.973h1.001C83.507,140.069,83.507,148.816,83.507,148.816z"/>
	<path fill="#5E6A71" d="M98.22,141.555c-0.413-0.339-1.35-0.763-2.288-0.763c-2.162,0-3.436,1.55-3.436,3.6
		c0,2.211,1.525,3.698,3.436,3.698c0.951,0,1.7-0.301,2.211-0.651l0.474,0.726c-0.587,0.399-1.624,0.8-2.75,0.8
		c-3.124,0-4.711-2.138-4.711-4.549c0-2.199,1.724-4.498,4.86-4.498c1.25,0,2.125,0.437,2.699,0.888L98.22,141.555z"/>
	<path fill="#5E6A71" d="M105.707,144.292c0-2.45,1.849-4.374,4.374-4.374c2.523,0,4.373,1.923,4.373,4.374
		c0,2.611-1.674,4.674-4.373,4.674C107.381,148.966,105.707,146.903,105.707,144.292z M113.117,144.292c0-1.637-0.874-3.5-3.037-3.5
		s-3.037,1.862-3.037,3.5c0,1.711,0.774,3.799,3.037,3.799C112.342,148.091,113.117,146.003,113.117,144.292z"/>
	<path fill="#5E6A71" d="M123.193,140.067v5.298c0,1.813,0.676,2.761,2.236,2.761c1.638,0,2.187-1.3,2.187-2.548v-5.511h1.137v5.536
		c0,1.961-1.211,3.362-3.324,3.362c-2.46,0-3.448-1.3-3.448-3.55v-5.349L123.193,140.067L123.193,140.067z"/>
	<path fill="#5E6A71" d="M138.854,148.816l-3.237-8.646l1.237-0.225c0.849,2.386,1.687,4.785,2.525,7.472h0.024
		c0.874-2.688,1.774-5.086,2.661-7.472l1.087,0.15l-3.485,8.722C139.666,148.816,138.854,148.816,138.854,148.816z"/>
	<path fill="#5E6A71" d="M154.452,140.944h-3.099v2.824h3.037v0.875h-3.037v3.298h3.635v0.875h-4.849v-8.747h4.313L154.452,140.944
		L154.452,140.944L154.452,140.944z"/>
	<path fill="#5E6A71" d="M162.351,140.067h2.499c1.424,0,2.536,0.737,2.536,2.25c0,1.288-0.625,2.011-1.462,2.548l2.173,3.724
		l-1.225,0.375l-2.023-3.774h-1.288v3.625h-1.212v-8.747L162.351,140.067L162.351,140.067z M163.563,144.317h0.687
		c1.55,0,1.837-1.149,1.837-1.887c0-1.074-0.676-1.487-1.487-1.487h-1.037C163.563,140.944,163.563,144.317,163.563,144.317z"/>
</g>
</svg>
