<?xml version="1.0" encoding="utf-8"?>
<!-- Generator: Adobe Illustrator 16.0.0, SVG Export Plug-In . SVG Version: 6.00 Build 0)  -->
<!DOCTYPE svg PUBLIC "-//W3C//DTD SVG 1.1//EN" "http://www.w3.org/Graphics/SVG/1.1/DTD/svg11.dtd">
<svg version="1.1" id="Layer_1" xmlns="http://www.w3.org/2000/svg" xmlns:xlink="http://www.w3.org/1999/xlink" x="0px" y="0px"
	 width="432px" height="72px" viewBox="0 0 432 72" enable-background="new 0 0 432 72" xml:space="preserve">
<g>
	<g>
		<g>
			<path fill="#5E6A71" d="M326.405,47.258l-4.532,3.229l-4.537-3.229c-3.221-2.203-5.979-4.09-7.427-6.964
				c1.192,5.379,6.45,7.396,11.964,11.706c5.507-4.311,10.769-6.327,11.962-11.706C332.387,43.168,329.625,45.055,326.405,47.258z"
				/>
			<g>
				<path fill="#981E32" d="M309.281,20.958v0.564c0.353,0.123,0.464,0.233,0.504,0.743v13.001c0,7.228,5.882,9.141,12.088,13.998
					c6.209-4.857,12.094-6.771,12.094-13.998V22.117c0.044-0.387,0.171-0.488,0.485-0.595v-0.564H309.281z"/>
			</g>
		</g>
		<g>
			<g>
				<g>
					<path fill="#FFFFFF" d="M324.321,42.122c0,0,1.007-0.43,1.556-2.094c0.485,1.014,0.359,2.057,0.359,2.057
						C325.789,42.188,324.321,42.122,324.321,42.122z"/>
					<path fill="#FFFFFF" d="M329.721,32.607c0,0,0.612,3.346-1.559,3.458c-2.093,0.114-3.079-3.045-3.079-3.045
						s0.505,6.163,3.439,5.758C331.833,38.322,329.721,32.607,329.721,32.607z"/>
				</g>
			</g>
			<path fill="#FFFFFF" d="M313.768,41.326h0.007c2.449-0.559,4.322-3.417,4.873-4.565l0.351-0.728l0.211,0.78
				c0.011,0.038,0.239,0.898,0.239,2.034c0,0.124-0.005,0.25-0.012,0.383c0.845,0.031,1.449-0.137,1.822-0.531
				c0.538-0.557,0.701-1.612,0.5-3.221c-0.098-0.773-0.382-2.001-0.636-3.081c-0.129-0.558-0.249-1.077-0.324-1.446
				c-0.474-2.369,0.114-3.844,0.689-4.655c0.09-0.131,0.189-0.249,0.291-0.368c-1.694,0.571-3.114,1.461-4.584,2.927l1.036,1.196
				l0.419-0.396c0.4,1.486,0.113,2.856,0.113,2.856c-0.544-0.83-1.185-1.499-1.185-1.499l0.284-0.471l-0.932-1.081l-0.109-0.119
				c-1.143,1.568-1.514,2.857-1.514,2.857l0.813,0.736l0.474,0.432l0.159-0.455c0.869,1.634,0.072,3.159,0.072,3.159
				c-0.142-0.559-0.718-1.383-0.718-1.383l0.229-0.745l-1.206-1.095c-1.256,3.925-2.934,5.192-2.934,5.192s1.815-0.327,2.828-0.667
				C315.026,37.373,314.998,39.439,313.768,41.326z"/>
			<path fill="#FFFFFF" d="M332.078,27.178l-2.899,0.123c0.002,0.345-0.041,0.69-0.151,1.013c0.269,1.184,0.081,1.825,0.081,1.825
				c-0.483-1.124-0.854-1.44-0.854-1.44c-2.661-1.182-4.154,1.495-3.995,3.215c0.13,1.421,0.644,3.305,1.045,6.252
				c0.338,2.485-0.917,3.558-2.367,3.806c-0.029,0.005-0.062,0.011-0.093,0.017c-0.011,0-0.014,0.001-0.022,0.001
				c-0.234,0.03-0.486,0.044-0.747,0.033c-0.01,0-0.018,0-0.031,0c-0.023,0-0.054-0.003-0.084-0.003
				c-0.113-0.009-0.225-0.02-0.335-0.031c-1.122-0.157-3.644-0.616-6.246-0.678c1.531-0.894,2.729-2.443,3.398-3.537
				c0.034,0.301,0.07,0.672,0.07,1.082c0,0.205-0.008,0.416-0.026,0.637l-0.026,0.298l0.3,0.022c1.197,0.106,2.047-0.122,2.6-0.693
				c0.679-0.707,0.891-1.886,0.661-3.715c-0.101-0.802-0.39-2.044-0.646-3.144c-0.128-0.548-0.247-1.065-0.322-1.428
				c-0.427-2.16,0.085-3.473,0.591-4.192c0.399-0.564,0.948-0.976,1.549-1.173c0.012-0.003,0.022-0.003,0.029-0.006l0.988-3.04
				h0.312l-0.666,2.922c0.155-0.025,0.312-0.053,0.468-0.075l0.857-2.695h0.309l-0.561,2.61c0.88-0.116,1.842-0.203,2.905-0.284
				c0.173,0.072,0.359,0.272,0.521,0.55l2.791-0.86l0.101,0.3l-2.666,1.035c0.025,0.054,0.043,0.113,0.062,0.171l2.917-0.362
				l0.043,0.311l-2.825,0.565c0.007,0.051,0.018,0.105,0.026,0.159l2.942,0.095L332.078,27.178z M323.683,28.482
				c0.586-0.412,1.58-0.729,2.514-0.654c0.234,0.019,0.433-0.047,0.178-0.18c-0.697-0.37-2.324-0.243-2.899,0.15
				c-0.918,0.63-0.764,1.748-0.74,1.772C322.914,29.253,323.227,28.801,323.683,28.482z"/>
		</g>
	</g>
	<g>
		<g>
			<g>
				<path fill="#5E6A71" d="M275.23,33.582c-1.904-1.431-3.237-2.229-3.237-3.561c0-1.41,0.989-1.981,2.096-1.981
					c1.522,0,2.245,1.066,2.396,2.401h0.496v-2.497c0-0.096-0.019-0.171-0.133-0.208c-0.763-0.267-1.847-0.361-2.665-0.361
					c-2.19,0-4.093,1.35-4.093,3.066c0,0.925,0.256,1.589,0.631,2.097h-0.009c0.009,0.009,0.019,0.015,0.024,0.021
					c0.461,0.614,1.095,1.008,1.656,1.383c2.855,1.887,3.5,2.895,3.522,4.131c0.053,2.748-5.094,4.192-8.481-1.087l-1.759-2.677
					c1.383-0.539,2.513-1.813,2.513-3.665c0-2.104-1.813-3.052-3.626-3.052h-5.229v0.466c1.616,0.193,1.542,0.108,1.542,1.776v8.085
					c0,1.675,0.074,1.582-1.542,1.779v0.467h4.832v-0.467c-1.617-0.197-1.547-0.104-1.547-1.779v-3.322h1.692
					c2.17,3.61,2.709,5.178,3.804,5.568c0.243,0.086,3.062,0.993,5.055,0.993c2.284,0,4.725-1.258,4.725-3.522
					C277.895,36.057,277.248,35.084,275.23,33.582z M264.113,34.215h-1.494v-5.856h1.384c1.311,0,2.393,0.682,2.393,2.642
					C266.396,33.03,265.676,34.215,264.113,34.215z"/>
				<path fill="#5E6A71" d="M227.97,40.147c0,0,0,0-8.791-10.416v7.979c0,0.377,0.075,0.685,0.106,0.974
					c0.092,0.65,0.708,0.902,1.898,0.994v0.47h-4.423v-0.47c0.871-0.092,1.462-0.344,1.552-0.994
					c0.037-0.289,0.108-0.597,0.108-0.974v-8.502c-0.503-0.649-1.067-1.229-2.092-1.229v-0.473h3.282
					c2.689,3.271,5.49,6.591,8.178,9.86h0.037v-7.422c0-0.379-0.074-0.684-0.109-0.973c-0.092-0.651-0.701-0.9-1.895-0.993v-0.473
					h4.423v0.473c-0.849,0.093-1.462,0.342-1.556,0.993c-0.035,0.289-0.105,0.594-0.105,0.973v10.202H227.97z"/>
				<path fill="#5E6A71" d="M235.064,37.888c0,1.683-0.071,1.592,1.552,1.79v0.47h-4.855v-0.47c1.625-0.198,1.552-0.107,1.552-1.79
					v-8.121c0-1.677,0.073-1.591-1.552-1.787v-0.466h4.855v0.466c-1.623,0.196-1.552,0.11-1.552,1.787V37.888z"/>
				<path fill="#5E6A71" d="M258.031,36.896c-0.83,1.934-0.705,2.674-3.32,2.674c-1.624,0-2.331-0.129-2.331-1.663v-4.08h1.52
					c1.208,0,1.624,0.636,1.659,1.7h0.466v-3.849h-0.466c-0.035,1.121-0.523,1.572-1.659,1.572h-1.52V28.09h2.866
					c1.298,0,1.662,0.991,1.839,2.327h0.469v-2.903h-8.313h-3.576v0.466c1.225,0,1.695,0.559,1.243,1.698
					c-1.119,2.763-2.22,5.54-3.377,8.301c-0.938-2.74-1.983-5.846-2.683-7.975c-0.601-1.736,0.124-2.024,1.117-2.024v-0.466h-4.592
					v0.466c0.871,0,1.103,0.559,1.775,2.49c1.099,3.071,2.329,6.552,3.43,9.678h0.918c1.52-3.7,3.051-7.384,4.567-11.083
					c0.38-0.904,0.649-1.085,1.177-1.085c1.623,0.196,1.389,0.11,1.389,1.787v8.121c0,1.683,0.234,1.592-1.389,1.79v0.47h8.719
					l0.543-3.251H258.031z"/>
				<path fill="#5E6A71" d="M282.217,37.888c0,1.683-0.076,1.592,1.55,1.79v0.47h-4.856v-0.47c1.627-0.198,1.555-0.107,1.555-1.79
					v-8.121c0-1.677,0.072-1.591-1.555-1.787v-0.466h4.856v0.466c-1.626,0.196-1.55,0.11-1.55,1.787V37.888z"/>
				<path fill="#5E6A71" d="M300.676,27.514v0.466c1.065,0,1.643,0.521,1.028,1.625l-2.49,4.534l-2.185-4.534
					c-0.451-0.939-0.575-1.625,0.794-1.625v-0.466h-3.026h-1.253h-8.406l-0.489,2.756h0.452c0.595-1.188,0.956-2.18,2.525-2.18
					h1.467v9.798c0,1.683,0.069,1.592-1.556,1.79v0.47h4.856v-0.47c-1.625-0.198-1.554-0.107-1.554-1.79V28.09h1.465
					c1.479,0,2.475,0.883,3.084,1.982l2.543,5.041v2.774c0,1.683,0.072,1.592-1.552,1.79v0.47h4.854v-0.47
					c-1.621-0.198-1.552-0.107-1.552-1.79v-2.021c0-0.45,0.038-0.958,0.217-1.316l3.014-5.47c0.49-0.867,0.976-1.102,1.482-1.102
					v-0.466H300.676z"/>
			</g>
			<path fill="#5E6A71" d="M216.401,24.965l-5.688,0.016v0.472c1.14,0.123,1.965,0.623,2.085,1.499
				c0.049,0.387,0.148,0.798,0.148,1.309v6.748c0,3.888-1.751,6.118-5.075,6.118c-3.618,0-4.704-2.597-4.704-5.997v-7.112
				c0-2.258,0.065-2.299,2.252-2.564V24.98h-6.534v0.472c2.188,0.266,2.091,0.307,2.091,2.564v7.234c0,4.395,1.603,7.02,6.771,7.02
				c3.133,0,6.462-1.942,6.462-7.163V28.26c0-0.043,0-0.082,0-0.121c-0.021-2.106,0.797-2.414,2.177-2.636L216.401,24.965z"/>
		</g>
		<g>
			<path fill="#5E6A71" d="M153.817,28.321c-0.192-1.698-1.111-3.051-3.045-3.051c-1.403,0-2.821,0.726-2.821,2.515
				c0,1.693,1.692,2.707,4.111,4.522c2.561,1.911,3.386,3.145,3.386,5.15c0,2.878-2.79,4.474-5.688,4.474
				c-1.551,0-2.881-0.292-4.139-0.773c-0.094-0.049-0.168-0.147-0.168-0.336v-3.485h0.628c0.269,2.683,2.029,3.748,3.894,3.748
				c1.717,0,3.277-1.308,3.277-3.071c0-1.573-0.846-2.854-4.472-5.246c-1.304-0.868-2.924-1.815-2.924-4.446
				c0-2.184,2.253-3.897,5.036-3.897c1.04,0,2.419,0.121,3.385,0.463c0.146,0.042,0.169,0.145,0.169,0.264v3.171H153.817z"/>
			<path fill="#5E6A71" d="M161.55,37.83c0,1.674-0.069,1.579,1.547,1.782v0.463h-4.836v-0.463c1.618-0.203,1.547-0.108,1.547-1.782
				v-9.765h-1.459c-1.563,0-1.924,0.99-2.516,2.174h-0.447l0.483-2.748h9.618l0.486,2.748h-0.449
				c-0.593-1.184-0.953-2.174-2.515-2.174h-1.459V37.83z"/>
			<path fill="#5E6A71" d="M167.824,35.904l-0.823,2.411c-0.235,0.704,0.106,1.297,0.898,1.297v0.463h-3.272v-0.463
				c0.483,0,1.007-0.311,1.295-0.9c0.772-1.585,2.875-7.461,4.369-11.436h1.006c1.222,3.612,3.054,9.154,3.666,10.753
				c0.398,1.001,0.686,1.583,1.457,1.583v0.463h-4.188v-0.463c1.132,0,1.243-0.593,0.956-1.388l-0.777-2.32H167.824z M172.18,35.224
				l-1.907-5.845h-0.036l-2.14,5.845H172.18z"/>
			<path fill="#5E6A71" d="M181.33,37.83c0,1.674-0.071,1.579,1.544,1.782v0.463h-4.836v-0.463c1.618-0.203,1.548-0.108,1.548-1.782
				v-9.765h-1.459c-1.564,0-1.92,0.99-2.518,2.174h-0.45l0.489-2.748h9.618l0.484,2.748h-0.452c-0.588-1.184-0.946-2.174-2.51-2.174
				h-1.458V37.83z"/>
			<path fill="#5E6A71" d="M186.6,39.612c1.622-0.203,1.389-0.108,1.389-1.782v-8.095c0-1.67,0.232-1.581-1.389-1.779v-0.465h7.875
				v2.89h-0.469c-0.179-1.325-0.535-2.315-1.831-2.315h-2.448v5.148h1.51c1.132,0,1.619-0.454,1.652-1.568h0.469v3.825h-0.469
				c-0.033-1.062-0.447-1.689-1.652-1.689h-1.51v4.062c0,1.532,0.704,1.66,2.322,1.66c2.607,0,2.48-0.739,3.308-2.663h0.467
				l-0.542,3.234H186.6V39.612z"/>
		</g>
		<g>
			<path fill="#5E6A71" d="M58.765,37.844c0,1.674-0.072,1.582,1.544,1.78v0.467h-4.834v-0.467c1.617-0.198,1.545-0.106,1.545-1.78
				v-8.09c0-1.668-0.777-1.58-2.395-1.777v-0.463h5.684v0.463c-1.616,0.197-1.544,0.109-1.544,1.777v3.113h6.307v-3.113
				c0-1.668,0.071-1.58-1.546-1.777v-0.463h4.833v0.463c-1.615,0.197-1.545,0.109-1.545,1.777v8.09c0,1.674-0.07,1.582,1.545,1.78
				v0.467h-4.833v-0.467c1.617-0.198,1.546-0.106,1.546-1.78v-4.242h-6.307V37.844z"/>
			<path fill="#5E6A71" d="M73.63,37.844c0,1.674-0.074,1.582,1.544,1.78v0.467h-4.833v-0.467c1.616-0.198,1.544-0.106,1.544-1.78
				v-8.09c0-1.668,0.072-1.58-1.544-1.777v-0.463h4.833v0.463c-1.618,0.197-1.544,0.109-1.544,1.777V37.844z"/>
			<path fill="#5E6A71" d="M88.572,40.091c-2.857-3.379-5.823-6.92-8.751-10.372v7.948c0,0.373,0.071,0.681,0.109,0.968
				c0.089,0.649,0.699,0.897,1.885,0.989v0.467h-4.401v-0.467c0.861-0.092,1.455-0.34,1.545-0.989
				c0.035-0.287,0.108-0.595,0.108-0.968v-8.468c-0.505-0.646-1.062-1.223-2.087-1.223v-0.463h3.273
				c2.678,3.249,5.463,6.558,8.14,9.809h0.035v-7.385c0-0.379-0.071-0.686-0.108-0.974c-0.087-0.646-0.702-0.896-1.887-0.987v-0.463
				h4.405v0.463c-0.845,0.091-1.455,0.342-1.548,0.987c-0.034,0.288-0.105,0.595-0.105,0.974v10.153H88.572z"/>
			<path fill="#5E6A71" d="M91.222,33.729c0-2.767,2.337-6.438,7.188-6.438c1.743,0,2.57,0.326,3.451,0.616
				c0.504,0.16,0.701,0.411,0.701,0.699v2.317h-0.468c-0.054-1.438-0.971-3.001-3.827-3.001c-3.757,0-4.979,2.588-4.997,5.661
				c-0.018,2.839,1.419,6.095,5.068,6.095c2.247,0,2.445-0.831,2.445-2.229v-1.098c0-1.675,0.069-1.58-1.906-1.78v-0.464h5.194
				v0.464c-1.617,0.2-1.543,0.105-1.543,1.78v3.128c-1.152,0.449-2.661,0.827-4.297,0.827
				C94.547,40.308,91.222,38.546,91.222,33.729z"/>
			<path fill="#5E6A71" d="M110.238,37.844c0,1.674-0.072,1.582,1.546,1.78v0.467h-4.835v-0.467c1.616-0.198,1.544-0.106,1.544-1.78
				v-9.758h-1.457c-1.564,0-1.922,0.984-2.517,2.174h-0.448l0.487-2.746h9.615l0.485,2.746h-0.45
				c-0.592-1.189-0.951-2.174-2.515-2.174h-1.457V37.844z"/>
			<path fill="#5E6A71" d="M114.659,34.034c0-3.885,3.019-6.743,6.756-6.743c3.899,0,6.166,3.364,6.166,6.134
				c0,3.792-2.84,6.883-6.813,6.883C117.335,40.308,114.659,37.523,114.659,34.034z M125.53,33.963c0-4.297-2.317-6.04-4.511-6.04
				c-3.054,0-4.311,2.732-4.311,5.176c0,4.352,2.228,6.58,4.545,6.58C124.597,39.679,125.53,36.372,125.53,33.963z"/>
			<path fill="#5E6A71" d="M139.173,40.091c-2.86-3.379-5.823-6.92-8.753-10.372v7.948c0,0.373,0.071,0.681,0.108,0.968
				c0.09,0.649,0.701,0.897,1.886,0.989v0.467h-4.403v-0.467c0.864-0.092,1.457-0.34,1.547-0.989
				c0.036-0.287,0.107-0.595,0.107-0.968v-8.468c-0.502-0.646-1.059-1.223-2.084-1.223v-0.463h3.271
				c2.678,3.249,5.461,6.558,8.141,9.809h0.034v-7.385c0-0.379-0.072-0.686-0.107-0.974c-0.089-0.646-0.699-0.896-1.887-0.987
				v-0.463h4.402v0.463c-0.844,0.091-1.454,0.342-1.544,0.987c-0.036,0.288-0.109,0.595-0.109,0.974v10.153H139.173z"/>
			<path fill="#5E6A71" d="M38.544,25.105v-0.021h-4.862v0.603c1.876,0.021,2.181,0.69,1.688,2.11l-3.678,10.018h-0.204
				l-4.333-12.524H26.06l-4.552,12.524h-0.31l-3.262-9.951c-0.463-1.577,0.183-2.177,1.643-2.177v-0.603h-5.77v0.603
				c1.227,0,1.446,0.955,2.234,3.218l4.188,12.382h1.103l4.48-12.63l4.417,12.641h1.234c1.889-5.026,4.549-12.465,5.527-14.466
				c0.364-0.751,1.023-1.138,1.637-1.138v-0.589H38.544z"/>
			<path fill="#5E6A71" d="M51.471,33.339c-1.891-1.418-3.215-2.212-3.215-3.536c0-1.399,0.983-1.969,2.08-1.969
				c1.513,0,2.231,1.061,2.383,2.385h0.491V27.74c0-0.094-0.018-0.169-0.132-0.206c-0.756-0.265-1.834-0.362-2.647-0.362
				c-2.174,0-4.065,1.345-4.065,3.047c0,0.923,0.255,1.579,0.627,2.085h-0.006c0.008,0.008,0.015,0.014,0.022,0.021
				c0.458,0.611,1.088,1.002,1.646,1.374c2.836,1.872,3.499,2.875,3.499,4.104c0,1.143-0.859,2.289-2.439,2.403
				c-1.619,0.114-3.7-0.667-4.575-2.939c-0.778-2.178-2.36-6.758-3.429-9.92h-1.042c-1.492,3.973-3.514,9.798-4.288,11.377
				c-0.285,0.595-0.806,0.9-1.292,0.9v0.468h0.776h2.494v-0.468c-0.791,0-1.132-0.593-0.899-1.295l0.827-2.408h4.583l0.773,2.318
				l0.595,1.787c0,0,3.214,0.84,5.305,0.84c2.269,0,4.576-1.248,4.576-3.498C54.118,35.798,53.475,34.832,51.471,33.339z
				 M38.555,35.237l2.138-5.842h0.036l1.905,5.842H38.555z"/>
		</g>
	</g>
</g>
<g>
	<path fill="#5E6A71" d="M342.119,37.997l-3.236-8.648l1.237-0.225c0.85,2.387,1.687,4.787,2.524,7.474h0.025
		c0.875-2.687,1.773-5.086,2.661-7.474l1.087,0.15l-3.486,8.723H342.119z"/>
	<path fill="#5E6A71" d="M351.731,29.249l3.262,8.748h-1.399l-0.9-2.574h-3.336l-0.938,2.574h-1.175l3.562-8.748H351.731z
		 M352.406,34.548c-0.438-1.212-0.862-2.424-1.3-3.999h-0.024c-0.45,1.575-0.912,2.787-1.388,3.999H352.406z"/>
	<path fill="#5E6A71" d="M365.53,37.997h-0.95c-1.899-2.274-5.16-6.198-5.686-6.961h-0.025v6.961h-1v-8.748h0.9
		c1.924,2.274,5.148,6.099,5.736,6.974h0.024v-6.974h1V37.997z"/>
	<path fill="#5E6A71" d="M376.117,30.736c-0.412-0.337-1.35-0.762-2.287-0.762c-2.161,0-3.436,1.549-3.436,3.599
		c0,2.212,1.523,3.699,3.436,3.699c0.95,0,1.7-0.3,2.213-0.65l0.475,0.725c-0.588,0.399-1.625,0.799-2.75,0.799
		c-3.123,0-4.711-2.136-4.711-4.548c0-2.2,1.725-4.499,4.861-4.499c1.25,0,2.125,0.438,2.699,0.887L376.117,30.736z"/>
	<path fill="#5E6A71" d="M379.482,33.473c0-2.449,1.849-4.374,4.373-4.374s4.374,1.925,4.374,4.374c0,2.612-1.675,4.673-4.374,4.673
		S379.482,36.085,379.482,33.473z M386.893,33.473c0-1.637-0.875-3.499-3.037-3.499s-3.037,1.862-3.037,3.499
		c0,1.712,0.775,3.799,3.037,3.799S386.893,35.185,386.893,33.473z"/>
	<path fill="#5E6A71" d="M392.844,29.249v5.299c0,1.812,0.675,2.762,2.236,2.762c1.638,0,2.188-1.299,2.188-2.549v-5.511h1.137
		v5.536c0,1.962-1.212,3.361-3.324,3.361c-2.461,0-3.449-1.299-3.449-3.549v-5.349H392.844z"/>
	<path fill="#5E6A71" d="M404.381,37.997l-3.236-8.648l1.236-0.225c0.85,2.387,1.688,4.787,2.525,7.474h0.024
		c0.874-2.687,1.774-5.086,2.661-7.474l1.088,0.15l-3.486,8.723H404.381z"/>
	<path fill="#5E6A71" d="M415.855,30.124h-3.1v2.824h3.037v0.875h-3.037v3.299h3.637v0.875h-4.85v-8.748h4.312V30.124z"/>
	<path fill="#5E6A71" d="M419.631,29.249h2.5c1.424,0,2.536,0.737,2.536,2.25c0,1.287-0.625,2.012-1.462,2.549l2.174,3.724
		l-1.225,0.375l-2.023-3.773h-1.288v3.624h-1.212V29.249z M420.843,33.498h0.688c1.55,0,1.837-1.149,1.837-1.887
		c0-1.075-0.675-1.487-1.486-1.487h-1.038V33.498z"/>
</g>
</svg>
