<?xml version="1.0" encoding="utf-8"?>
<!-- Generator: Adobe Illustrator 16.0.0, SVG Export Plug-In . SVG Version: 6.00 Build 0)  -->
<!DOCTYPE svg PUBLIC "-//W3C//DTD SVG 1.1//EN" "http://www.w3.org/Graphics/SVG/1.1/DTD/svg11.dtd">
<svg version="1.1" id="Layer_1" xmlns="http://www.w3.org/2000/svg" xmlns:xlink="http://www.w3.org/1999/xlink" x="0px" y="0px"
	 width="216px" height="72px" viewBox="0 0 216 72" enable-background="new 0 0 216 72" xml:space="preserve">
<g>
	<path fill="#5E6A71" d="M78.44,58.018v3.136c-0.748,0.265-1.683,0.517-2.662,0.517c-2.739,0-4.147-1.892-4.147-4.004
		c0-1.947,1.518-3.961,4.291-3.961c1.122,0,2.002,0.363,2.464,0.748l-0.44,0.639c-0.462-0.319-1.166-0.616-2.013-0.616
		c-2.002,0-3.125,1.364-3.125,3.169c0,1.947,1.332,3.256,3.003,3.256c0.649,0,1.133-0.066,1.562-0.275v-2.607H78.44z"/>
	<path fill="#5E6A71" d="M81.751,53.838h1.067v6.931h3.202v0.771h-4.269V53.838z"/>
	<path fill="#5E6A71" d="M88.021,57.557c0-2.156,1.628-3.852,3.851-3.852c2.223,0,3.851,1.695,3.851,3.852
		c0,2.299-1.474,4.113-3.851,4.113C89.495,61.67,88.021,59.855,88.021,57.557z M94.545,57.557c0-1.441-0.771-3.081-2.674-3.081
		c-1.903,0-2.673,1.64-2.673,3.081c0,1.506,0.682,3.344,2.673,3.344C93.863,60.9,94.545,59.062,94.545,57.557z"/>
	<path fill="#5E6A71" d="M98.768,61.539v-7.701h2.387c1.144,0,2.002,0.572,2.002,1.572c0,1.255-0.979,1.849-1.573,1.959v0.021
		c1.012,0.033,2.046,0.66,2.046,1.914c0,1.287-1.1,2.234-2.695,2.234H98.768z M99.834,57.139h0.528c0.924,0,1.727-0.639,1.727-1.464
		c0-0.683-0.473-1.067-1.353-1.067h-0.902V57.139z M99.834,60.769h1.034c0.869,0,1.617-0.474,1.617-1.397
		c0-1.078-0.924-1.463-1.793-1.463h-0.858V60.769z"/>
	<path fill="#5E6A71" d="M109.438,53.838l2.871,7.701h-1.231l-0.792-2.267h-2.938l-0.825,2.267h-1.034l3.135-7.701H109.438z
		 M110.031,58.502c-0.385-1.066-0.758-2.135-1.144-3.521h-0.022c-0.396,1.386-0.803,2.454-1.221,3.521H110.031z"/>
	<path fill="#5E6A71" d="M114.783,53.838h1.067v6.931h3.202v0.771h-4.27V53.838z"/>
	<path fill="#5E6A71" d="M131.691,55.146c-0.363-0.297-1.189-0.671-2.014-0.671c-1.903,0-3.025,1.364-3.025,3.169
		c0,1.947,1.342,3.256,3.025,3.256c0.836,0,1.496-0.264,1.947-0.572l0.418,0.639c-0.518,0.352-1.43,0.703-2.42,0.703
		c-2.751,0-4.148-1.881-4.148-4.004c0-1.936,1.519-3.961,4.279-3.961c1.101,0,1.871,0.385,2.377,0.781L131.691,55.146z"/>
	<path fill="#5E6A71" d="M137.972,53.838l2.871,7.701h-1.231l-0.793-2.267h-2.938l-0.824,2.267h-1.035l3.136-7.701H137.972z
		 M138.565,58.502c-0.385-1.066-0.759-2.135-1.144-3.521h-0.022c-0.396,1.386-0.804,2.454-1.222,3.521H138.565z"/>
	<path fill="#5E6A71" d="M151.678,61.539h-1.066v-6.271h-0.021c-0.309,0.902-2.059,4.302-3.092,6.271h-0.43
		c-0.957-1.97-2.552-5.26-2.85-6.271h-0.021v6.271h-0.88v-7.701h1.144c0.99,2.046,1.98,4.104,2.96,6.271
		c1.089-2.167,2.179-4.225,3.257-6.271h1V61.539z"/>
	<path fill="#5E6A71" d="M156.188,61.539h-1.067v-7.701h1.937c1.628,0,2.629,0.726,2.629,2.222c0,1.298-1.111,2.476-2.838,2.476
		h-0.342v-0.704l0.353-0.011c1.034-0.055,1.683-0.605,1.683-1.75c0-0.847-0.473-1.463-1.617-1.463h-0.736V61.539z"/>
	<path fill="#5E6A71" d="M163.359,53.838v4.664c0,1.596,0.594,2.432,1.969,2.432c1.441,0,1.926-1.145,1.926-2.244v-4.852h1v4.873
		c0,1.728-1.066,2.959-2.926,2.959c-2.168,0-3.037-1.144-3.037-3.123v-4.709H163.359z"/>
	<path fill="#5E6A71" d="M175.195,55.025c-0.374-0.275-0.869-0.55-1.331-0.55c-0.771,0-1.199,0.451-1.199,1.045
		c0,0.55,0.474,0.958,1.463,1.673c1.056,0.77,1.673,1.474,1.673,2.464c0,1.222-1.156,2.013-2.388,2.013
		c-0.737,0-1.617-0.264-2.167-0.803l0.473-0.638c0.451,0.319,0.946,0.671,1.672,0.671c0.76,0,1.343-0.406,1.343-1.266
		c0-0.968-1.155-1.595-1.782-2.057c-0.639-0.495-1.354-0.969-1.354-2.058c0-1.034,1.001-1.815,2.2-1.815
		c0.804,0,1.475,0.287,1.903,0.771L175.195,55.025z"/>
</g>
<g>
	<g>
		<g>
			<g>
				<g>
					<path fill="#5E6A71" d="M57.227,56.522L52.4,59.96l-4.823-3.438c-3.429-2.344-6.368-4.354-7.909-7.406
						c1.272,5.723,6.869,7.863,12.732,12.453c5.865-4.59,11.463-6.73,12.734-12.453C63.595,52.169,60.656,54.179,57.227,56.522z"/>
					<g>
						<path fill="#981E32" d="M39.003,28.536v0.6c0.373,0.129,0.496,0.248,0.534,0.791v13.834c0,7.695,6.264,9.729,12.869,14.898
							c6.605-5.17,12.871-7.203,12.871-14.898V29.774c0.048-0.422,0.184-0.523,0.519-0.639v-0.6H39.003z"/>
					</g>
				</g>
			</g>
		</g>
		<g>
			<g>
				<g>
					<path fill="#FFFFFF" d="M55.009,51.056c0,0,1.073-0.455,1.658-2.225c0.517,1.076,0.381,2.188,0.381,2.188
						C56.575,51.124,55.009,51.056,55.009,51.056z"/>
					<path fill="#FFFFFF" d="M60.759,40.937c0,0,0.651,3.557-1.658,3.676c-2.23,0.117-3.283-3.238-3.283-3.238
						s0.54,6.559,3.664,6.127C63.006,47.015,60.759,40.937,60.759,40.937z"/>
				</g>
			</g>
			<path fill="#FFFFFF" d="M43.779,50.21h0.005c2.607-0.592,4.602-3.637,5.188-4.857l0.371-0.775l0.226,0.828
				c0.011,0.049,0.253,0.959,0.253,2.164c0,0.133-0.003,0.273-0.01,0.41c0.901,0.033,1.542-0.146,1.941-0.561
				c0.571-0.596,0.744-1.717,0.528-3.43c-0.103-0.824-0.407-2.129-0.675-3.281c-0.137-0.59-0.266-1.146-0.345-1.541
				c-0.502-2.52,0.121-4.084,0.733-4.951c0.097-0.137,0.2-0.268,0.31-0.393c-1.802,0.609-3.313,1.553-4.876,3.111l1.098,1.275
				l0.448-0.418c0.423,1.58,0.12,3.035,0.12,3.035c-0.577-0.879-1.259-1.592-1.259-1.592l0.299-0.502l-0.989-1.15l-0.116-0.127
				c-1.216,1.672-1.611,3.039-1.611,3.039l0.864,0.787l0.504,0.455l0.167-0.484c0.928,1.738,0.081,3.363,0.081,3.363
				c-0.154-0.594-0.764-1.469-0.764-1.469l0.24-0.795L45.23,41.19c-1.336,4.172-3.122,5.525-3.122,5.525s1.932-0.35,3.008-0.709
				C45.116,46.007,45.085,48.204,43.779,50.21z"/>
			<path fill="#FFFFFF" d="M63.264,35.153l-3.083,0.133c0.002,0.363-0.047,0.73-0.166,1.078c0.289,1.26,0.091,1.943,0.091,1.943
				c-0.518-1.201-0.912-1.535-0.912-1.535c-2.831-1.26-4.421,1.586-4.251,3.424c0.14,1.508,0.685,3.51,1.113,6.652
				c0.361,2.643-0.978,3.783-2.518,4.045c-0.034,0.006-0.067,0.014-0.101,0.02c-0.009,0-0.016,0.002-0.024,0.002
				c-0.25,0.031-0.514,0.045-0.797,0.037c-0.009,0-0.018,0-0.027,0c-0.03,0-0.062-0.006-0.092-0.006
				c-0.119-0.006-0.239-0.02-0.356-0.033c-1.196-0.166-3.879-0.652-6.649-0.719c1.629-0.953,2.904-2.6,3.614-3.766
				c0.043,0.322,0.077,0.717,0.077,1.15c0,0.219-0.011,0.443-0.03,0.678l-0.028,0.316l0.318,0.029
				c1.274,0.111,2.182-0.133,2.768-0.742c0.726-0.752,0.948-2.01,0.704-3.953c-0.109-0.854-0.416-2.178-0.688-3.344
				c-0.135-0.586-0.265-1.137-0.34-1.521c-0.458-2.297,0.087-3.693,0.627-4.457c0.424-0.604,1.007-1.041,1.646-1.252
				c0.012,0,0.021-0.004,0.034-0.006l1.052-3.232h0.33L54.871,33.2c0.165-0.029,0.332-0.057,0.501-0.08l0.906-2.865h0.33
				l-0.595,2.775c0.94-0.123,1.961-0.215,3.092-0.301c0.182,0.076,0.379,0.287,0.554,0.582l2.969-0.914l0.108,0.32L59.9,33.821
				c0.023,0.057,0.044,0.119,0.065,0.18l3.102-0.387l0.052,0.334l-3.012,0.602c0.011,0.057,0.021,0.111,0.028,0.168l3.133,0.1
				L63.264,35.153z M54.332,36.542c0.622-0.436,1.68-0.773,2.67-0.695c0.253,0.02,0.465-0.045,0.194-0.191
				c-0.743-0.393-2.474-0.26-3.085,0.16c-0.98,0.67-0.815,1.859-0.792,1.889C53.514,37.364,53.848,36.884,54.332,36.542z"/>
		</g>
	</g>
	<g>
		<g>
			<path fill="#5E6A71" d="M147.432,37.572c-2.039-1.528-3.465-2.385-3.465-3.81c0-1.506,1.059-2.12,2.242-2.12
				c1.629,0,2.404,1.142,2.564,2.568h0.531V31.54c0-0.1-0.02-0.182-0.143-0.221c-0.812-0.286-1.975-0.388-2.852-0.388
				c-2.344,0-4.379,1.445-4.379,3.279c0,0.99,0.273,1.702,0.676,2.244H142.6c0.01,0.01,0.018,0.018,0.023,0.024
				c0.494,0.657,1.172,1.078,1.773,1.479c3.057,2.019,3.744,3.098,3.77,4.421c0.057,2.94-5.451,4.485-9.076-1.163l-1.881-2.863
				c1.48-0.577,2.688-1.94,2.688-3.922c0-2.253-1.941-3.266-3.879-3.266h-5.596v0.498c1.729,0.208,1.652,0.116,1.652,1.902v8.648
				c0,1.794,0.076,1.692-1.652,1.902v0.501h5.172v-0.501c-1.734-0.21-1.656-0.108-1.656-1.902v-3.555h1.811
				c2.322,3.863,2.898,5.54,4.07,5.958c0.264,0.094,3.279,1.063,5.41,1.063c2.441,0,5.053-1.347,5.053-3.769
				C150.281,40.22,149.59,39.18,147.432,37.572z M135.535,38.25h-1.598v-6.266h1.482c1.4,0,2.559,0.727,2.559,2.826
				C137.979,36.982,137.209,38.25,135.535,38.25z"/>
			<path fill="#5E6A71" d="M94.564,31.58c1.28,0.098,1.929,0.364,2.027,1.06c0.039,0.31,0.118,0.636,0.118,1.042v7.941H96.67
				c-2.876-3.498-5.873-7.02-8.751-10.519h-8.175v0.388c0.94,0.102,1.622,0.515,1.721,1.236c0.039,0.319,0.122,0.658,0.122,1.08
				v5.567c0,3.208-1.445,5.048-4.187,5.048c-2.985,0-3.881-2.143-3.881-4.948v-5.868c0-1.861,0.055-1.896,1.858-2.115v-0.388h-5.391
				v0.388c1.806,0.22,1.724,0.254,1.724,2.115v5.969c0,3.626,1.323,5.791,5.586,5.791c2.584,0,5.332-1.601,5.332-5.908v-5.65
				c0-0.034,0-0.066,0-0.1c-0.018-1.729,0.652-1.989,1.779-2.173l0,0c1.097,0,1.7,0.663,2.239,1.356v9.098
				c0,0.403-0.076,0.732-0.116,1.041c-0.095,0.697-0.73,0.967-1.661,1.063v0.501h4.732v-0.501c-1.273-0.097-1.932-0.366-2.03-1.063
				c-0.035-0.309-0.114-0.638-0.114-1.041v-8.538c9.406,11.144,9.406,11.144,9.406,11.144h0.659V33.682
				c0-0.406,0.076-0.732,0.113-1.042c0.1-0.695,0.758-0.962,1.665-1.06v-0.507h-4.735V31.58z"/>
			<path fill="#5E6A71" d="M100.921,31.58c1.74,0.209,1.659,0.116,1.659,1.91v8.69c0,1.801,0.081,1.702-1.659,1.914v0.501h5.194
				v-0.501c-1.735-0.212-1.659-0.113-1.659-1.914v-8.69c0-1.794-0.076-1.701,1.659-1.91v-0.501h-5.194V31.58z"/>
			<path fill="#5E6A71" d="M125.479,43.981c-1.74,0-2.494-0.139-2.494-1.781v-4.365h1.623c1.293,0,1.738,0.681,1.777,1.82h0.498
				v-4.118h-0.498c-0.039,1.198-0.561,1.684-1.777,1.684h-1.623v-5.524h3.066c1.387,0,1.777,1.06,1.967,2.491h0.5v-3.108h-8.895
				h-3.826v0.501c1.311,0,1.814,0.596,1.33,1.816c-1.197,2.954-2.375,5.925-3.613,8.882c-1.002-2.934-2.121-6.254-2.871-8.534
				c-0.641-1.857,0.133-2.164,1.197-2.164v-0.501h-4.913v0.501c0.931,0,1.179,0.596,1.898,2.665
				c1.177,3.282,2.494,7.008,3.669,10.351h0.984c1.623-3.959,3.264-7.898,4.885-11.855c0.406-0.969,0.695-1.16,1.26-1.16
				c1.736,0.209,1.486,0.116,1.486,1.91v8.69c0,1.801,0.25,1.702-1.486,1.914v0.501h9.328l0.582-3.477h-0.506
				C128.141,43.188,128.275,43.981,125.479,43.981z"/>
			<path fill="#5E6A71" d="M151.369,31.58c1.74,0.209,1.662,0.116,1.662,1.91v8.69c0,1.801,0.078,1.702-1.662,1.914v0.501h5.195
				v-0.501c-1.736-0.212-1.656-0.113-1.656-1.914v-8.69c0-1.794-0.08-1.701,1.656-1.91v-0.501h-5.195V31.58z"/>
			<path fill="#5E6A71" d="M174.656,31.079v0.501c1.141,0,1.758,0.556,1.1,1.736l-2.662,4.853l-2.338-4.853
				c-0.484-1.004-0.617-1.736,0.848-1.736v-0.501h-3.236h-1.34h-8.996l-0.521,2.949h0.484c0.635-1.272,1.021-2.332,2.699-2.332h1.57
				v10.484c0,1.801,0.076,1.702-1.664,1.914v0.501h5.197v-0.501c-1.74-0.212-1.664-0.113-1.664-1.914V31.696h1.568
				c1.582,0,2.648,0.945,3.299,2.121l2.721,5.394v2.97c0,1.801,0.078,1.702-1.66,1.914v0.501h5.193v-0.501
				c-1.736-0.212-1.66-0.113-1.66-1.914v-2.162c0-0.482,0.041-1.024,0.23-1.41l3.227-5.853c0.521-0.927,1.043-1.176,1.584-1.176
				v-0.501H174.656z"/>
		</g>
		<g>
			<path fill="#5E6A71" d="M57.326,21.231c0,1.825-0.079,1.727,1.685,1.941v0.509h-5.275v-0.509
				c1.765-0.215,1.686-0.116,1.686-1.941v-8.829c0-1.821-0.848-1.723-2.612-1.938V9.957h6.201v0.508
				c-1.764,0.215-1.685,0.116-1.685,1.938V15.8h6.882v-3.397c0-1.821,0.078-1.723-1.687-1.938V9.957h5.274v0.508
				c-1.762,0.215-1.687,0.116-1.687,1.938v8.829c0,1.825-0.075,1.727,1.687,1.941v0.509h-5.274v-0.509
				c1.765-0.215,1.687-0.116,1.687-1.941v-4.631h-6.882V21.231z"/>
			<path fill="#5E6A71" d="M73.546,21.231c0,1.825-0.08,1.727,1.686,1.941v0.509h-5.274v-0.509c1.765-0.215,1.686-0.116,1.686-1.941
				v-8.829c0-1.821,0.079-1.723-1.686-1.938V9.957h5.274v0.508c-1.765,0.215-1.686,0.116-1.686,1.938V21.231z"/>
			<path fill="#5E6A71" d="M89.852,23.682c-3.118-3.685-6.354-7.552-9.55-11.318v8.673c0,0.408,0.078,0.744,0.119,1.058
				c0.098,0.708,0.763,0.978,2.057,1.079v0.509h-4.803v-0.509c0.939-0.102,1.588-0.371,1.687-1.079
				c0.038-0.313,0.118-0.649,0.118-1.058v-9.24c-0.551-0.703-1.159-1.331-2.277-1.331V9.957h3.57
				c2.922,3.545,5.962,7.156,8.883,10.704h0.039v-8.06c0-0.413-0.077-0.747-0.118-1.061c-0.096-0.705-0.765-0.979-2.059-1.076V9.957
				h4.807v0.508c-0.923,0.098-1.588,0.371-1.69,1.076c-0.038,0.313-0.116,0.647-0.116,1.061v11.08H89.852z"/>
			<path fill="#5E6A71" d="M92.743,16.74c0-3.02,2.551-7.025,7.844-7.025c1.903,0,2.807,0.355,3.768,0.673
				c0.549,0.175,0.765,0.448,0.765,0.762v2.531h-0.51c-0.059-1.57-1.059-3.274-4.179-3.274c-4.099,0-5.433,2.821-5.451,6.176
				c-0.021,3.098,1.549,6.651,5.529,6.651c2.455,0,2.67-0.907,2.67-2.434v-1.197c0-1.825,0.076-1.725-2.082-1.941v-0.507h5.67v0.507
				c-1.764,0.217-1.685,0.116-1.685,1.941v3.415c-1.255,0.488-2.903,0.9-4.69,0.9C96.371,23.918,92.743,21.996,92.743,16.74z"/>
			<path fill="#5E6A71" d="M113.494,21.231c0,1.825-0.076,1.727,1.688,1.941v0.509h-5.275v-0.509
				c1.764-0.215,1.686-0.116,1.686-1.941v-10.65H110c-1.706,0-2.096,1.076-2.744,2.373h-0.489l0.531-2.997h10.492l0.529,2.997h-0.49
				c-0.645-1.297-1.037-2.373-2.744-2.373h-1.59V21.231z"/>
			<path fill="#5E6A71" d="M118.318,17.072c0-4.238,3.293-7.357,7.373-7.357c4.256,0,6.727,3.671,6.727,6.692
				c0,4.139-3.098,7.511-7.434,7.511C121.24,23.918,118.318,20.88,118.318,17.072z M130.182,16.995c0-4.689-2.527-6.589-4.922-6.589
				c-3.334,0-4.705,2.979-4.705,5.646c0,4.747,2.43,7.181,4.961,7.181C129.162,23.233,130.182,19.624,130.182,16.995z"/>
			<path fill="#5E6A71" d="M145.07,23.682c-3.121-3.685-6.355-7.552-9.553-11.318v8.673c0,0.408,0.078,0.744,0.117,1.058
				c0.1,0.708,0.766,0.978,2.059,1.079v0.509h-4.805v-0.509c0.943-0.102,1.59-0.371,1.688-1.079
				c0.039-0.313,0.117-0.649,0.117-1.058v-9.24c-0.549-0.703-1.154-1.331-2.275-1.331V9.957h3.572
				c2.922,3.545,5.959,7.156,8.883,10.704h0.037v-8.06c0-0.413-0.078-0.747-0.117-1.061c-0.098-0.705-0.764-0.979-2.059-1.076V9.957
				h4.803v0.508c-0.92,0.098-1.586,0.371-1.684,1.076c-0.041,0.313-0.119,0.647-0.119,1.061v11.08H145.07z"/>
			<path fill="#5E6A71" d="M35.26,7.329V7.309h-5.305v0.656c2.047,0.022,2.38,0.754,1.843,2.301l-4.015,10.934h-0.223L22.833,7.533
				h-1.196l-4.968,13.666h-0.337l-3.56-10.86c-0.505-1.72,0.2-2.374,1.793-2.374V7.309H8.269v0.656c1.338,0,1.579,1.042,2.438,3.512
				l4.57,13.51h1.204l4.889-13.779L26.189,25h1.346c2.061-5.486,4.964-13.601,6.032-15.786c0.397-0.819,1.116-1.241,1.787-1.241
				V7.329H35.26z"/>
			<path fill="#5E6A71" d="M49.365,16.315c-2.062-1.548-3.507-2.415-3.507-3.86c0-1.525,1.073-2.147,2.27-2.147
				c1.651,0,2.434,1.157,2.601,2.603h0.536v-2.704c0-0.104-0.02-0.187-0.145-0.228c-0.825-0.288-2.001-0.393-2.889-0.393
				c-2.372,0-4.436,1.467-4.436,3.324c0,1.007,0.277,1.723,0.684,2.276h-0.006c0.008,0.007,0.017,0.013,0.024,0.021
				c0.499,0.669,1.187,1.094,1.795,1.499c3.095,2.043,3.818,3.138,3.818,4.479c0,1.248-0.937,2.497-2.662,2.621
				c-1.766,0.128-4.038-0.728-4.993-3.206c-0.848-2.378-2.575-7.376-3.74-10.825h-1.137c-1.628,4.336-3.834,10.69-4.679,12.416
				c-0.311,0.648-0.88,0.981-1.411,0.981v0.51h0.849h2.721v-0.51c-0.862,0-1.235-0.647-0.98-1.413l0.902-2.628h5.001l0.843,2.529
				l0.649,1.95c0,0,3.508,0.918,5.79,0.918c2.476,0,4.994-1.363,4.994-3.816C52.255,18.996,51.553,17.944,49.365,16.315z
				 M35.272,18.387l2.333-6.375h0.039l2.08,6.375H35.272z"/>
		</g>
		<g>
			<path fill="#5E6A71" d="M161.098,10.869c-0.211-1.851-1.213-3.328-3.324-3.328c-1.531,0-3.076,0.791-3.076,2.742
				c0,1.85,1.846,2.955,4.486,4.937c2.793,2.084,3.693,3.432,3.693,5.621c0,3.138-3.045,4.88-6.207,4.88
				c-1.693,0-3.143-0.319-4.518-0.845c-0.102-0.053-0.182-0.158-0.182-0.366v-3.803h0.684c0.293,2.928,2.215,4.09,4.25,4.09
				c1.873,0,3.576-1.426,3.576-3.352c0-1.716-0.924-3.114-4.879-5.722c-1.426-0.95-3.193-1.983-3.193-4.854
				c0-2.383,2.461-4.253,5.498-4.253c1.133,0,2.639,0.133,3.693,0.504c0.158,0.048,0.184,0.16,0.184,0.29v3.459H161.098z"/>
			<path fill="#5E6A71" d="M169.537,21.245c0,1.827-0.076,1.723,1.688,1.946v0.504h-5.277v-0.504
				c1.766-0.224,1.688-0.119,1.688-1.946V10.59h-1.592c-1.707,0-2.1,1.081-2.746,2.372h-0.486l0.525-2.997h10.496l0.529,2.997
				h-0.488c-0.646-1.291-1.041-2.372-2.744-2.372h-1.592V21.245z"/>
			<path fill="#5E6A71" d="M176.381,19.144l-0.896,2.632c-0.256,0.768,0.115,1.416,0.979,1.416v0.504h-3.568v-0.504
				c0.525,0,1.098-0.342,1.412-0.984c0.842-1.729,3.137-8.141,4.766-12.479h1.1c1.332,3.943,3.33,9.99,4,11.733
				c0.434,1.095,0.748,1.729,1.59,1.729v0.504h-4.57v-0.504c1.234,0,1.355-0.648,1.041-1.517l-0.846-2.531H176.381z M181.135,18.4
				l-2.082-6.378h-0.037L176.68,18.4H181.135z"/>
			<path fill="#5E6A71" d="M191.121,21.245c0,1.827-0.078,1.723,1.686,1.946v0.504h-5.279v-0.504
				c1.768-0.224,1.689-0.119,1.689-1.946V10.59h-1.59c-1.709,0-2.096,1.081-2.748,2.372h-0.49l0.533-2.997h10.494l0.527,2.997
				h-0.492c-0.643-1.291-1.033-2.372-2.74-2.372h-1.59V21.245z"/>
			<path fill="#5E6A71" d="M196.871,23.191c1.768-0.224,1.514-0.119,1.514-1.946v-8.831c0-1.824,0.254-1.727-1.514-1.941V9.965
				h8.592v3.152h-0.512c-0.193-1.446-0.584-2.527-1.996-2.527h-2.672v5.617h1.648c1.234,0,1.766-0.493,1.801-1.709h0.512v4.174
				h-0.512c-0.035-1.16-0.486-1.845-1.801-1.845h-1.648v4.433c0,1.674,0.766,1.812,2.533,1.812c2.844,0,2.707-0.807,3.609-2.906
				h0.51l-0.592,3.529h-9.473V23.191z"/>
		</g>
	</g>
</g>
</svg>
