<?xml version="1.0" encoding="utf-8"?>
<!-- Generator: Adobe Illustrator 16.0.0, SVG Export Plug-In . SVG Version: 6.00 Build 0)  -->
<!DOCTYPE svg PUBLIC "-//W3C//DTD SVG 1.1//EN" "http://www.w3.org/Graphics/SVG/1.1/DTD/svg11.dtd">
<svg version="1.1" id="Layer_1" xmlns="http://www.w3.org/2000/svg" xmlns:xlink="http://www.w3.org/1999/xlink" x="0px" y="0px"
	 width="268.908px" height="171.429px" viewBox="0 0 268.908 171.429" enable-background="new 0 0 268.908 171.429"
	 xml:space="preserve">
<g>
	<g>
		<path fill="#5E6A71" d="M147.633,80.931l-13.076,9.333l-13.066-9.333c-9.291-6.368-17.252-11.828-21.425-20.12
			c3.446,15.545,18.607,21.357,34.492,33.823c15.886-12.465,31.052-18.278,34.5-33.823
			C164.883,69.103,156.921,74.563,147.633,80.931z"/>
		<path fill="#981E32" d="M98.262,4.915v1.63c1.01,0.35,1.342,0.67,1.45,2.149v37.573c0,20.9,16.963,26.421,34.854,40.463
			c17.897-14.042,34.869-19.562,34.869-40.463V8.275c0.133-1.141,0.496-1.417,1.404-1.73v-1.63H98.262z"/>
		<g>
			<g>
				<g>
					<path fill="#FFFFFF" d="M141.625,66.081c0,0,2.902-1.237,4.488-6.045c1.398,2.931,1.03,5.945,1.03,5.945
						C145.865,66.269,141.625,66.081,141.625,66.081z"/>
					<path fill="#FFFFFF" d="M157.2,38.596c0,0,1.765,9.654-4.49,9.987c-6.041,0.316-8.895-8.796-8.895-8.796
						s1.461,17.81,9.926,16.638C163.286,55.103,157.2,38.596,157.2,38.596z"/>
				</g>
			</g>
			<path fill="#FFFFFF" d="M111.2,63.784c0.003,0,0.007,0,0.012,0c7.063-1.611,12.467-9.877,14.057-13.195l1.006-2.104l0.61,2.252
				c0.029,0.125,0.69,2.602,0.69,5.879c0,0.359-0.01,0.735-0.027,1.112c2.434,0.09,4.171-0.402,5.255-1.526
				c1.548-1.617,2.018-4.661,1.434-9.32c-0.281-2.231-1.103-5.78-1.829-8.909c-0.374-1.599-0.724-3.112-0.934-4.181
				c-1.362-6.846,0.327-11.094,1.983-13.45c0.262-0.374,0.544-0.727,0.841-1.063c-4.879,1.651-8.977,4.217-13.207,8.448l2.972,3.462
				l1.216-1.137c1.145,4.292,0.324,8.25,0.324,8.25c-1.565-2.39-3.413-4.326-3.413-4.326l0.812-1.364l-2.68-3.123l-0.313-0.347
				c-3.293,4.539-4.364,8.258-4.364,8.258l2.34,2.133l1.363,1.24l0.453-1.314c2.516,4.717,0.222,9.129,0.222,9.129
				c-0.418-1.611-2.069-3.985-2.069-3.985l0.652-2.163l-3.476-3.161c-3.62,11.336-8.461,15.013-8.461,15.013
				s5.237-0.946,8.149-1.926C114.819,52.367,114.738,58.341,111.2,63.784z"/>
			<path fill="#FFFFFF" d="M163.989,22.893l-8.354,0.354c0.008,0.99-0.127,1.984-0.449,2.928c0.783,3.422,0.248,5.28,0.248,5.28
				c-1.403-3.262-2.473-4.165-2.473-4.165c-7.669-3.425-11.978,4.308-11.518,9.295c0.378,4.096,1.857,9.536,3.017,18.065
				c0.976,7.179-2.651,10.278-6.823,10.993c-0.09,0.015-0.18,0.033-0.271,0.046c-0.021,0-0.043,0.009-0.064,0.009
				c-0.673,0.087-1.396,0.119-2.157,0.097c-0.026,0-0.052,0-0.075,0c-0.082,0-0.168-0.01-0.248-0.01
				c-0.324-0.021-0.648-0.052-0.969-0.096c-3.24-0.445-10.506-1.77-18.008-1.951c4.413-2.587,7.865-7.056,9.789-10.231
				c0.115,0.881,0.21,1.952,0.21,3.132c0,0.59-0.025,1.204-0.083,1.839l-0.072,0.86l0.863,0.078c3.454,0.3,5.908-0.359,7.494-2.016
				c1.967-2.046,2.569-5.458,1.91-10.737c-0.294-2.323-1.126-5.914-1.859-9.085c-0.373-1.587-0.724-3.086-0.925-4.131
				c-1.241-6.24,0.236-10.03,1.695-12.108c1.152-1.633,2.73-2.823,4.466-3.398c0.03-0.003,0.058-0.012,0.089-0.012l2.848-8.785
				h0.893l-1.91,8.439c0.445-0.084,0.895-0.153,1.355-0.221l2.455-7.78h0.891l-1.612,7.536c2.548-0.331,5.312-0.584,8.376-0.814
				c0.499,0.208,1.027,0.78,1.504,1.579l8.043-2.481l0.293,0.866l-7.68,2.999c0.061,0.156,0.116,0.324,0.176,0.488l8.398-1.046
				l0.141,0.906l-8.156,1.63c0.029,0.153,0.055,0.305,0.074,0.458L164,21.976L163.989,22.893z M139.787,26.659
				c1.685-1.183,4.552-2.096,7.235-1.891c0.688,0.056,1.26-0.122,0.523-0.52c-2.012-1.06-6.697-0.701-8.355,0.438
				c-2.658,1.818-2.21,5.052-2.146,5.13C137.573,28.888,138.476,27.585,139.787,26.659z"/>
		</g>
	</g>
	<g>
		<g>
			<path fill="#5E6A71" d="M169.294,148.021c-2.705-2.029-4.597-3.164-4.597-5.057c0-2,1.406-2.814,2.977-2.814
				c2.162,0,3.188,1.516,3.404,3.41h0.703v-3.545c0-0.135-0.026-0.244-0.188-0.295c-1.083-0.379-2.624-0.514-3.787-0.514
				c-3.109,0-5.812,1.918-5.812,4.354c0,1.314,0.363,2.258,0.895,2.979h-0.01c0.012,0.012,0.024,0.021,0.033,0.031
				c0.656,0.873,1.556,1.432,2.352,1.963c4.057,2.68,4.972,4.111,5.004,5.867c0.074,3.902-7.234,5.955-12.046-1.543l-2.498-3.801
				c1.964-0.766,3.57-2.576,3.57-5.205c0-2.99-2.577-4.334-5.151-4.334h-7.426v0.66c2.295,0.275,2.191,0.154,2.191,2.523v11.48
				c0,2.381,0.104,2.248-2.191,2.527v0.664h6.863v-0.664c-2.298-0.279-2.197-0.146-2.197-2.527v-4.717h2.402
				c3.084,5.127,3.849,7.354,5.403,7.908c0.348,0.123,4.351,1.41,7.178,1.41c3.245,0,6.711-1.785,6.711-5.002
				C173.079,151.537,172.16,150.154,169.294,148.021z M153.506,148.92h-2.122v-8.316h1.965c1.86,0,3.398,0.967,3.398,3.752
				C156.748,147.238,155.725,148.92,153.506,148.92z"/>
			<path fill="#5E6A71" d="M102.175,157.346c0,0,0,0-12.484-14.793v11.332c0,0.537,0.105,0.973,0.151,1.383
				c0.131,0.924,1.005,1.281,2.695,1.412v0.666h-6.281v-0.666c1.235-0.131,2.077-0.488,2.204-1.412
				c0.054-0.41,0.154-0.846,0.154-1.383v-12.074c-0.715-0.922-1.516-1.744-2.972-1.744v-0.672h4.662
				c3.819,4.645,7.798,9.361,11.615,14.004h0.052v-10.541c0-0.539-0.105-0.973-0.156-1.383c-0.131-0.924-0.994-1.277-2.69-1.408
				v-0.672h6.281v0.672c-1.204,0.131-2.077,0.484-2.209,1.408c-0.05,0.41-0.15,0.844-0.15,1.383v14.488H102.175z"/>
			<path fill="#5E6A71" d="M112.251,154.139c0,2.389-0.102,2.258,2.203,2.541v0.666h-6.896v-0.666
				c2.309-0.283,2.204-0.152,2.204-2.541v-11.535c0-2.381,0.104-2.258-2.204-2.537v-0.664h6.896v0.664
				c-2.305,0.279-2.203,0.156-2.203,2.537V154.139z"/>
			<path fill="#5E6A71" d="M144.87,152.729c-1.18,2.746-1,3.799-4.715,3.799c-2.308,0-3.311-0.184-3.311-2.363v-5.793H139
				c1.717,0,2.307,0.902,2.356,2.414h0.663v-5.465h-0.663c-0.05,1.59-0.744,2.232-2.356,2.232h-2.156v-7.33h4.069
				c1.843,0,2.36,1.406,2.612,3.305h0.664v-4.125h-11.806h-5.079v0.664c1.74,0,2.408,0.793,1.767,2.41
				c-1.59,3.924-3.153,7.867-4.797,11.791c-1.331-3.893-2.815-8.303-3.811-11.328c-0.853-2.465,0.177-2.873,1.589-2.873v-0.664
				h-6.521v0.664c1.235,0,1.564,0.793,2.52,3.537c1.561,4.359,3.308,9.305,4.87,13.742h1.306c2.155-5.256,4.334-10.486,6.486-15.738
				c0.539-1.285,0.922-1.541,1.671-1.541c2.305,0.279,1.974,0.156,1.974,2.537v11.535c0,2.389,0.331,2.258-1.974,2.541v0.666h12.382
				l0.771-4.617H144.87z"/>
			<path fill="#5E6A71" d="M179.218,154.139c0,2.389-0.108,2.258,2.2,2.541v0.666h-6.897v-0.666c2.31-0.283,2.207-0.152,2.207-2.541
				v-11.535c0-2.381,0.103-2.258-2.207-2.537v-0.664h6.897v0.664c-2.309,0.279-2.2,0.156-2.2,2.537V154.139z"/>
			<path fill="#5E6A71" d="M205.434,139.402v0.664c1.511,0,2.331,0.74,1.458,2.307l-3.536,6.439l-3.103-6.439
				c-0.642-1.334-0.816-2.307,1.127-2.307v-0.664h-4.297h-1.78h-11.938l-0.694,3.916h0.643c0.843-1.689,1.356-3.096,3.587-3.096
				h2.08v13.916c0,2.389,0.101,2.258-2.207,2.541v0.666h6.896v-0.666c-2.307-0.283-2.206-0.152-2.206-2.541v-13.916h2.079
				c2.102,0,3.516,1.254,4.381,2.814l3.61,7.16v3.941c0,2.389,0.104,2.258-2.204,2.541v0.666h6.894v-0.666
				c-2.303-0.283-2.203-0.152-2.203-2.541v-2.871c0-0.639,0.053-1.359,0.31-1.869l4.279-7.77c0.695-1.23,1.384-1.562,2.104-1.562
				v-0.664H205.434z"/>
			<path fill="#5E6A71" d="M85.673,139.389l-8.078,0.021v0.67c1.618,0.174,2.792,0.885,2.962,2.129
				c0.069,0.549,0.211,1.133,0.211,1.857v9.584c0,5.521-2.488,8.689-7.208,8.689c-5.139,0-6.681-3.688-6.681-8.518v-10.102
				c0-3.205,0.094-3.264,3.198-3.641v-0.67h-9.279v0.67c3.108,0.377,2.97,0.436,2.97,3.641v10.275c0,6.24,2.276,9.969,9.616,9.969
				c4.448,0,9.178-2.758,9.178-10.174v-9.725c0-0.059,0-0.115,0-0.17c-0.032-2.994,1.132-3.43,3.092-3.746L85.673,139.389z"/>
		</g>
		<g>
			<path fill="#5E6A71" d="M68.323,126.543c0,2.375-0.103,2.246,2.193,2.527v0.662H63.65v-0.662
				c2.297-0.281,2.194-0.152,2.194-2.527v-11.49c0-2.371-1.104-2.242-3.4-2.523v-0.662h8.072v0.662
				c-2.296,0.281-2.193,0.152-2.193,2.523v4.42h8.958v-4.42c0-2.371,0.102-2.242-2.195-2.523v-0.662h6.864v0.662
				c-2.294,0.281-2.194,0.152-2.194,2.523v11.49c0,2.375-0.1,2.246,2.194,2.527v0.662h-6.864v-0.662
				c2.297-0.281,2.195-0.152,2.195-2.527v-6.027h-8.958V126.543z"/>
			<path fill="#5E6A71" d="M89.435,126.543c0,2.375-0.104,2.246,2.192,2.527v0.662h-6.864v-0.662
				c2.297-0.281,2.194-0.152,2.194-2.527v-11.49c0-2.371,0.103-2.242-2.194-2.523v-0.662h6.864v0.662
				c-2.297,0.281-2.192,0.152-2.192,2.523V126.543z"/>
			<path fill="#5E6A71" d="M110.655,129.732c-4.058-4.797-8.271-9.828-12.429-14.73v11.287c0,0.531,0.102,0.969,0.154,1.375
				c0.128,0.922,0.993,1.273,2.677,1.406v0.662h-6.251v-0.662c1.224-0.133,2.067-0.484,2.196-1.406
				c0.049-0.406,0.153-0.844,0.153-1.375v-12.025c-0.718-0.916-1.508-1.734-2.964-1.734v-0.662h4.646
				c3.804,4.617,7.759,9.314,11.562,13.934h0.05v-10.488c0-0.539-0.102-0.975-0.153-1.381c-0.125-0.92-0.996-1.273-2.68-1.402
				v-0.662h6.256v0.662c-1.2,0.129-2.067,0.482-2.199,1.402c-0.049,0.406-0.15,0.842-0.15,1.381v14.42H110.655z"/>
			<path fill="#5E6A71" d="M114.418,120.697c0-3.932,3.319-9.143,10.209-9.143c2.475,0,3.649,0.461,4.9,0.875
				c0.715,0.229,0.995,0.582,0.995,0.992v3.293h-0.664c-0.075-2.043-1.378-4.262-5.435-4.262c-5.336,0-7.072,3.674-7.096,8.037
				c-0.026,4.033,2.015,8.658,7.196,8.658c3.192,0,3.473-1.18,3.473-3.168v-1.559c0-2.375,0.099-2.244-2.707-2.525v-0.662h7.377
				v0.662c-2.296,0.281-2.193,0.15-2.193,2.525v4.443c-1.635,0.639-3.778,1.176-6.102,1.176
				C119.141,130.041,114.418,127.537,114.418,120.697z"/>
			<path fill="#5E6A71" d="M141.424,126.543c0,2.375-0.103,2.246,2.195,2.527v0.662h-6.866v-0.662
				c2.295-0.281,2.193-0.152,2.193-2.527v-13.861h-2.069c-2.221,0-2.729,1.4-3.573,3.088h-0.637l0.691-3.902h13.654l0.689,3.902
				h-0.639c-0.841-1.688-1.351-3.088-3.571-3.088h-2.068V126.543z"/>
			<path fill="#5E6A71" d="M147.703,121.129c0-5.516,4.288-9.574,9.596-9.574c5.538,0,8.756,4.775,8.756,8.709
				c0,5.387-4.033,9.777-9.676,9.777C151.504,130.041,147.703,126.086,147.703,121.129z M163.142,121.029
				c0-6.102-3.291-8.576-6.407-8.576c-4.337,0-6.122,3.877-6.122,7.35c0,6.178,3.163,9.346,6.455,9.346
				C161.817,129.148,163.142,124.451,163.142,121.029z"/>
			<path fill="#5E6A71" d="M182.518,129.732c-4.062-4.797-8.27-9.828-12.432-14.73v11.287c0,0.531,0.102,0.969,0.154,1.375
				c0.128,0.922,0.994,1.273,2.678,1.406v0.662h-6.253v-0.662c1.227-0.133,2.068-0.484,2.196-1.406
				c0.051-0.406,0.152-0.844,0.152-1.375v-12.025c-0.713-0.916-1.504-1.734-2.96-1.734v-0.662h4.646
				c3.804,4.617,7.756,9.314,11.562,13.934h0.049v-10.488c0-0.539-0.103-0.975-0.152-1.381c-0.127-0.92-0.993-1.273-2.68-1.402
				v-0.662h6.252v0.662c-1.197,0.129-2.064,0.482-2.192,1.402c-0.052,0.406-0.155,0.842-0.155,1.381v14.42H182.518z"/>
			<path fill="#5E6A71" d="M39.605,108.449v-0.027h-6.904v0.855c2.665,0.029,3.099,0.98,2.398,2.994L29.875,126.5h-0.289
				l-6.154-17.785h-1.557L15.41,126.5H14.97l-4.633-14.133c-0.657-2.238,0.261-3.09,2.333-3.09v-0.855H4.476v0.855
				c1.742,0,2.055,1.355,3.173,4.568l5.948,17.584h1.566l6.363-17.934l6.272,17.951h1.752c2.683-7.141,6.461-17.701,7.851-20.545
				c0.517-1.066,1.452-1.615,2.325-1.615v-0.838H39.605z"/>
			<path fill="#5E6A71" d="M57.962,120.145c-2.685-2.016-4.564-3.143-4.564-5.023c0-1.986,1.396-2.795,2.954-2.795
				c2.148,0,3.168,1.506,3.384,3.387h0.697v-3.52c0-0.135-0.026-0.242-0.188-0.295c-1.074-0.377-2.605-0.512-3.76-0.512
				c-3.088,0-5.773,1.908-5.773,4.326c0,1.311,0.361,2.242,0.89,2.961h-0.009c0.011,0.01,0.021,0.018,0.032,0.027
				c0.649,0.871,1.544,1.424,2.336,1.953c4.028,2.658,4.969,4.082,4.969,5.828c0,1.623-1.219,3.25-3.464,3.41
				c-2.299,0.166-5.255-0.945-6.498-4.172c-1.104-3.094-3.352-9.6-4.869-14.088H42.62c-2.119,5.643-4.99,13.912-6.09,16.158
				c-0.404,0.844-1.145,1.277-1.836,1.277v0.664h1.104h3.541v-0.664c-1.122,0-1.606-0.844-1.275-1.84l1.175-3.42h6.509l1.097,3.293
				l0.846,2.537c0,0,4.565,1.195,7.535,1.195c3.223,0,6.499-1.773,6.499-4.969C61.723,123.635,60.81,122.266,57.962,120.145z
				 M39.621,122.84l3.037-8.297h0.051l2.706,8.297H39.621z"/>
		</g>
		<g>
			<path fill="#5E6A71" d="M203.377,113.057c-0.271-2.41-1.578-4.332-4.324-4.332c-1.993,0-4.006,1.029-4.006,3.57
				c0,2.404,2.402,3.846,5.839,6.424c3.637,2.713,4.809,4.465,4.809,7.314c0,4.086-3.963,6.354-8.08,6.354
				c-2.203,0-4.091-0.416-5.878-1.1c-0.133-0.068-0.238-0.207-0.238-0.477v-4.951h0.892c0.382,3.811,2.881,5.324,5.53,5.324
				c2.438,0,4.654-1.855,4.654-4.361c0-2.234-1.201-4.055-6.351-7.449c-1.854-1.234-4.153-2.58-4.153-6.316
				c0-3.102,3.2-5.535,7.153-5.535c1.476,0,3.435,0.172,4.808,0.656c0.207,0.061,0.239,0.207,0.239,0.377v4.502H203.377z"/>
			<path fill="#5E6A71" d="M214.362,126.561c0,2.379-0.099,2.242,2.197,2.533v0.656h-6.869v-0.656
				c2.298-0.291,2.197-0.154,2.197-2.533v-13.867h-2.071c-2.221,0-2.732,1.406-3.574,3.088h-0.635l0.687-3.902h13.658l0.691,3.902
				h-0.638c-0.842-1.682-1.353-3.088-3.572-3.088h-2.071V126.561z"/>
			<path fill="#5E6A71" d="M223.272,123.826l-1.169,3.424c-0.333,1,0.15,1.844,1.274,1.844v0.656h-4.646v-0.656
				c0.687,0,1.431-0.443,1.839-1.281c1.097-2.25,4.084-10.594,6.203-16.24h1.43c1.735,5.131,4.337,13.002,5.207,15.271
				c0.565,1.424,0.973,2.25,2.068,2.25v0.656h-5.948v-0.656c1.607,0,1.766-0.844,1.357-1.973l-1.104-3.295H223.272z
				 M229.457,122.859l-2.708-8.301h-0.051l-3.039,8.301H229.457z"/>
			<path fill="#5E6A71" d="M242.453,126.561c0,2.379-0.102,2.242,2.193,2.533v0.656h-6.868v-0.656
				c2.298-0.291,2.198-0.154,2.198-2.533v-13.867h-2.07c-2.223,0-2.729,1.406-3.576,3.088h-0.639l0.694-3.902h13.658l0.688,3.902
				h-0.642c-0.835-1.682-1.345-3.088-3.565-3.088h-2.071V126.561z"/>
			<path fill="#5E6A71" d="M249.937,129.094c2.302-0.291,1.972-0.154,1.972-2.533v-11.494c0-2.373,0.33-2.246-1.972-2.527v-0.66
				h11.184v4.104h-0.666c-0.254-1.883-0.76-3.289-2.6-3.289h-3.478v7.311h2.146c1.607,0,2.299-0.643,2.347-2.225h0.666v5.432h-0.666
				c-0.048-1.51-0.635-2.4-2.347-2.4h-2.146v5.77c0,2.178,1,2.359,3.298,2.359c3.702,0,3.522-1.051,4.698-3.783h0.663l-0.769,4.594
				h-12.331V129.094z"/>
		</g>
	</g>
</g>
</svg>
