<?xml version="1.0" encoding="utf-8"?>
<!-- Generator: Adobe Illustrator 16.0.0, SVG Export Plug-In . SVG Version: 6.00 Build 0)  -->
<!DOCTYPE svg PUBLIC "-//W3C//DTD SVG 1.1//EN" "http://www.w3.org/Graphics/SVG/1.1/DTD/svg11.dtd">
<svg version="1.1" id="Layer_1" xmlns="http://www.w3.org/2000/svg" xmlns:xlink="http://www.w3.org/1999/xlink" x="0px" y="0px"
	 width="468px" height="72px" viewBox="0 0 468 72" enable-background="new 0 0 468 72" xml:space="preserve">
<g>
	<path fill="#5E6A71" d="M297.34,52.662l-6.438,4.587l-6.444-4.587c-4.573-3.129-8.492-5.811-10.548-9.891
		c1.695,7.639,9.162,10.502,16.992,16.625c7.82-6.123,15.293-8.986,16.988-16.625C305.834,46.851,301.91,49.533,297.34,52.662z"/>
	<g>
		<path fill="#981E32" d="M273.02,15.311v0.8c0.5,0.176,0.66,0.333,0.715,1.057V35.63c0,10.266,8.354,12.982,17.168,19.881
			c8.818-6.898,17.176-9.615,17.176-19.881V16.958c0.062-0.552,0.242-0.694,0.689-0.847v-0.8H273.02z"/>
	</g>
	<g>
		<g>
			<g>
				<path fill="#FFFFFF" d="M294.379,45.367c0,0,1.432-0.609,2.211-2.972c0.689,1.438,0.51,2.919,0.51,2.919
					C296.466,45.46,294.379,45.367,294.379,45.367z"/>
				<path fill="#FFFFFF" d="M302.049,31.856c0,0,0.869,4.749-2.215,4.909c-2.973,0.163-4.373-4.322-4.373-4.322
					s0.717,8.752,4.885,8.176C305.047,39.971,302.049,31.856,302.049,31.856z"/>
			</g>
		</g>
		<path fill="#FFFFFF" d="M279.393,44.236h0.008c3.479-0.793,6.138-4.852,6.92-6.482l0.498-1.032l0.301,1.106
			c0.016,0.056,0.34,1.275,0.34,2.889c0,0.176-0.008,0.356-0.018,0.545c1.2,0.046,2.059-0.195,2.588-0.755
			c0.766-0.79,0.997-2.29,0.712-4.575c-0.14-1.098-0.544-2.841-0.903-4.374c-0.184-0.791-0.354-1.529-0.461-2.055
			c-0.673-3.364,0.162-5.458,0.979-6.61c0.129-0.186,0.269-0.355,0.415-0.523c-2.408,0.811-4.424,2.074-6.51,4.156l1.471,1.697
			l0.595-0.562c0.568,2.111,0.16,4.056,0.16,4.056c-0.771-1.178-1.683-2.127-1.683-2.127l0.403-0.67l-1.322-1.534l-0.154-0.169
			c-1.625,2.227-2.15,4.057-2.15,4.057l1.155,1.048l0.671,0.61l0.227-0.645c1.233,2.318,0.104,4.484,0.104,4.484
			c-0.201-0.791-1.019-1.963-1.019-1.963l0.322-1.059l-1.711-1.553c-1.784,5.572-4.167,7.373-4.167,7.373s2.578-0.465,4.016-0.947
			C281.178,38.623,281.137,41.558,279.393,44.236z"/>
		<path fill="#FFFFFF" d="M305.396,24.144l-4.117,0.174c0.003,0.489-0.06,0.98-0.216,1.438c0.381,1.682,0.116,2.594,0.116,2.594
			c-0.688-1.598-1.214-2.047-1.214-2.047c-3.781-1.678-5.899,2.123-5.674,4.566c0.184,2.019,0.914,4.691,1.482,8.879
			c0.481,3.529-1.301,5.053-3.36,5.404c-0.043,0.008-0.089,0.016-0.131,0.023c-0.017,0-0.021,0.002-0.033,0.002
			c-0.333,0.044-0.69,0.062-1.062,0.047c-0.014,0-0.025,0-0.043,0c-0.034,0-0.076-0.003-0.12-0.003
			c-0.16-0.013-0.317-0.027-0.476-0.046c-1.594-0.223-5.174-0.873-8.871-0.963c2.176-1.268,3.878-3.468,4.826-5.023
			c0.05,0.429,0.1,0.955,0.1,1.539c0,0.29-0.011,0.59-0.037,0.902l-0.036,0.424l0.425,0.033c1.701,0.15,2.906-0.176,3.692-0.986
			c0.964-1.006,1.265-2.68,0.938-5.275c-0.143-1.139-0.555-2.904-0.918-4.465c-0.182-0.777-0.353-1.514-0.457-2.027
			c-0.606-3.067,0.121-4.932,0.84-5.954c0.566-0.802,1.346-1.386,2.197-1.666c0.019-0.005,0.033-0.005,0.043-0.009l1.402-4.315
			h0.444l-0.945,4.149c0.22-0.036,0.441-0.076,0.665-0.109l1.217-3.826h0.438l-0.795,3.707c1.25-0.166,2.615-0.289,4.125-0.403
			c0.246,0.103,0.512,0.386,0.74,0.78l3.963-1.223l0.144,0.429l-3.786,1.469c0.035,0.076,0.061,0.161,0.09,0.241l4.141-0.514
			l0.062,0.441l-4.013,0.803c0.009,0.072,0.024,0.151,0.036,0.227l4.18,0.134L305.396,24.144z M293.473,25.998
			c0.832-0.586,2.244-1.036,3.568-0.93c0.334,0.025,0.615-0.065,0.254-0.256c-0.99-0.525-3.301-0.345-4.118,0.213
			c-1.304,0.895-1.085,2.483-1.052,2.52C292.382,27.091,292.824,26.449,293.473,25.998z"/>
	</g>
</g>
<g>
	<g>
		<path fill="#5E6A71" d="M422.424,33.027c-2.705-2.029-4.598-3.164-4.598-5.057c0-2,1.406-2.814,2.977-2.814
			c2.162,0,3.189,1.516,3.404,3.41h0.704v-3.545c0-0.135-0.026-0.244-0.188-0.295c-1.082-0.379-2.623-0.514-3.786-0.514
			c-3.11,0-5.812,1.918-5.812,4.354c0,1.314,0.363,2.258,0.895,2.979h-0.01c0.012,0.012,0.024,0.021,0.033,0.031
			c0.656,0.873,1.556,1.432,2.352,1.963c4.057,2.68,4.971,4.111,5.004,5.867c0.074,3.902-7.234,5.955-12.047-1.543l-2.497-3.801
			c1.964-0.766,3.569-2.576,3.569-5.205c0-2.99-2.576-4.334-5.15-4.334h-7.426v0.66c2.295,0.275,2.191,0.154,2.191,2.523v11.48
			c0,2.381,0.104,2.248-2.191,2.527v0.664h6.863v-0.664c-2.298-0.279-2.197-0.146-2.197-2.527V34.47h2.402
			c3.084,5.127,3.848,7.354,5.403,7.908c0.347,0.123,4.351,1.41,7.178,1.41c3.245,0,6.711-1.785,6.711-5.002
			C426.208,36.542,425.289,35.16,422.424,33.027z M406.635,33.925h-2.121v-8.316h1.965c1.86,0,3.398,0.967,3.398,3.752
			C409.877,32.244,408.854,33.925,406.635,33.925z"/>
		<path fill="#5E6A71" d="M355.305,42.351c0,0,0,0-12.484-14.793V38.89c0,0.537,0.105,0.973,0.15,1.383
			c0.131,0.924,1.006,1.281,2.695,1.412v0.666h-6.28v-0.666c1.235-0.131,2.077-0.488,2.204-1.412
			c0.053-0.41,0.154-0.846,0.154-1.383V26.816c-0.715-0.922-1.516-1.744-2.972-1.744V24.4h4.661
			c3.82,4.645,7.799,9.361,11.615,14.004h0.053V27.863c0-0.539-0.105-0.973-0.156-1.383c-0.131-0.924-0.994-1.277-2.69-1.408V24.4
			h6.281v0.672c-1.204,0.131-2.077,0.484-2.209,1.408c-0.05,0.41-0.151,0.844-0.151,1.383v14.488H355.305z"/>
		<path fill="#5E6A71" d="M365.381,39.144c0,2.389-0.102,2.258,2.203,2.541v0.666h-6.896v-0.666
			c2.308-0.283,2.204-0.152,2.204-2.541V27.609c0-2.381,0.104-2.258-2.204-2.537v-0.664h6.896v0.664
			c-2.305,0.279-2.203,0.156-2.203,2.537V39.144z"/>
		<path fill="#5E6A71" d="M397.998,37.734c-1.18,2.746-1,3.799-4.714,3.799c-2.308,0-3.312-0.184-3.312-2.363v-5.793h2.157
			c1.716,0,2.306,0.902,2.356,2.414h0.662v-5.465h-0.662c-0.051,1.59-0.744,2.232-2.356,2.232h-2.157v-7.33h4.07
			c1.842,0,2.359,1.406,2.611,3.305h0.665v-4.125h-11.806h-5.08v0.664c1.74,0,2.409,0.793,1.768,2.41
			c-1.59,3.924-3.153,7.867-4.797,11.791c-1.332-3.893-2.816-8.303-3.811-11.328c-0.853-2.465,0.177-2.873,1.588-2.873v-0.664
			h-6.521v0.664c1.236,0,1.564,0.793,2.52,3.537c1.562,4.359,3.309,9.305,4.871,13.742h1.305c2.156-5.256,4.334-10.486,6.486-15.738
			c0.54-1.285,0.923-1.541,1.672-1.541c2.305,0.279,1.973,0.156,1.973,2.537v11.535c0,2.389,0.332,2.258-1.973,2.541v0.666h12.381
			l0.771-4.617H397.998z"/>
		<path fill="#5E6A71" d="M432.348,39.144c0,2.389-0.108,2.258,2.199,2.541v0.666h-6.896v-0.666c2.31-0.283,2.207-0.152,2.207-2.541
			V27.609c0-2.381,0.103-2.258-2.207-2.537v-0.664h6.896v0.664c-2.308,0.279-2.199,0.156-2.199,2.537V39.144z"/>
		<path fill="#5E6A71" d="M458.562,24.408v0.664c1.512,0,2.332,0.74,1.459,2.307l-3.536,6.439l-3.103-6.439
			c-0.642-1.334-0.816-2.307,1.127-2.307v-0.664h-4.297h-1.78h-11.938l-0.693,3.916h0.643c0.843-1.689,1.355-3.096,3.586-3.096
			h2.081v13.916c0,2.389,0.101,2.258-2.207,2.541v0.666h6.896v-0.666c-2.308-0.283-2.206-0.152-2.206-2.541V25.228h2.079
			c2.102,0,3.516,1.254,4.38,2.814l3.611,7.16v3.941c0,2.389,0.104,2.258-2.204,2.541v0.666h6.894v-0.666
			c-2.303-0.283-2.203-0.152-2.203-2.541v-2.871c0-0.639,0.053-1.359,0.309-1.869l4.279-7.77c0.695-1.23,1.385-1.562,2.104-1.562
			v-0.664H458.562z"/>
	</g>
	<path fill="#5E6A71" d="M338.875,20.79l-8.078,0.021v0.67c1.619,0.174,2.793,0.885,2.963,2.129
		c0.068,0.549,0.211,1.133,0.211,1.857v9.584c0,5.521-2.488,8.689-7.208,8.689c-5.139,0-6.681-3.688-6.681-8.518V25.122
		c0-3.205,0.094-3.264,3.197-3.641v-0.67h-9.278v0.67c3.108,0.377,2.97,0.436,2.97,3.641v10.275c0,6.24,2.275,9.969,9.616,9.969
		c4.448,0,9.177-2.758,9.177-10.174v-9.725c0-0.059,0-0.115,0-0.17c-0.031-2.994,1.133-3.43,3.093-3.746L338.875,20.79z"/>
</g>
<g>
	<path fill="#5E6A71" d="M206.696,25.767c-0.272-2.409-1.578-4.332-4.325-4.332c-1.993,0-4.005,1.03-4.005,3.57
		c0,2.405,2.402,3.846,5.838,6.424c3.637,2.713,4.809,4.465,4.809,7.315c0,4.085-3.963,6.353-8.08,6.353
		c-2.203,0-4.091-0.416-5.878-1.1c-0.132-0.068-0.238-0.207-0.238-0.477V38.57h0.892c0.381,3.811,2.88,5.324,5.53,5.324
		c2.438,0,4.654-1.855,4.654-4.361c0-2.234-1.201-4.055-6.351-7.448c-1.854-1.235-4.153-2.58-4.153-6.317
		c0-3.102,3.2-5.535,7.153-5.535c1.476,0,3.435,0.172,4.808,0.656c0.207,0.062,0.24,0.207,0.24,0.377v4.502H206.696z"/>
	<path fill="#5E6A71" d="M217.68,39.271c0,2.379-0.099,2.242,2.197,2.533v0.657h-6.869v-0.657c2.298-0.291,2.198-0.154,2.198-2.533
		V25.404h-2.072c-2.221,0-2.732,1.406-3.574,3.088h-0.635l0.687-3.901h13.659l0.691,3.901h-0.638
		c-0.842-1.682-1.353-3.088-3.572-3.088h-2.071V39.271z"/>
	<path fill="#5E6A71" d="M226.59,36.537l-1.168,3.424c-0.333,1,0.15,1.844,1.274,1.844v0.657h-4.646v-0.657
		c0.686,0,1.43-0.443,1.838-1.281c1.097-2.25,4.084-10.594,6.204-16.24h1.429c1.735,5.132,4.337,13.002,5.207,15.271
		c0.565,1.424,0.973,2.25,2.068,2.25v0.657h-5.948v-0.657c1.607,0,1.765-0.844,1.357-1.973l-1.103-3.295H226.59z M232.775,35.57
		l-2.708-8.301h-0.05l-3.039,8.301H232.775z"/>
	<path fill="#5E6A71" d="M245.771,39.271c0,2.379-0.101,2.242,2.194,2.533v0.657h-6.869v-0.657c2.298-0.291,2.199-0.154,2.199-2.533
		V25.404h-2.071c-2.223,0-2.728,1.406-3.576,3.088h-0.638l0.694-3.901h13.658l0.687,3.901h-0.641
		c-0.835-1.682-1.345-3.088-3.566-3.088h-2.071V39.271z"/>
	<path fill="#5E6A71" d="M253.255,41.804c2.302-0.291,1.972-0.154,1.972-2.533V27.778c0-2.374,0.33-2.247-1.972-2.527v-0.66h11.184
		v4.103h-0.667c-0.253-1.883-0.759-3.289-2.6-3.289h-3.477v7.311h2.145c1.607,0,2.299-0.642,2.347-2.225h0.666v5.433h-0.666
		c-0.047-1.51-0.635-2.401-2.347-2.401h-2.145v5.77c0,2.178,1,2.359,3.297,2.359c3.703,0,3.522-1.051,4.698-3.783h0.663
		l-0.769,4.595h-12.331V41.804z"/>
</g>
<g>
	<path fill="#5E6A71" d="M71.704,39.293c0,2.375-0.103,2.246,2.193,2.527v0.662h-6.866v-0.662c2.297-0.281,2.194-0.152,2.194-2.527
		v-11.49c0-2.37-1.104-2.242-3.4-2.523v-0.661h8.072v0.661c-2.296,0.281-2.193,0.153-2.193,2.523v4.421h8.958v-4.421
		c0-2.37,0.101-2.242-2.196-2.523v-0.661h6.864v0.661c-2.293,0.281-2.194,0.153-2.194,2.523v11.49c0,2.375-0.099,2.246,2.194,2.527
		v0.662h-6.864v-0.662c2.297-0.281,2.196-0.152,2.196-2.527v-6.027h-8.958V39.293z"/>
	<path fill="#5E6A71" d="M92.816,39.293c0,2.375-0.104,2.246,2.193,2.527v0.662h-6.865v-0.662c2.297-0.281,2.195-0.152,2.195-2.527
		v-11.49c0-2.37,0.102-2.242-2.195-2.523v-0.661h6.865v0.661c-2.297,0.281-2.193,0.153-2.193,2.523V39.293z"/>
	<path fill="#5E6A71" d="M114.036,42.483c-4.058-4.797-8.271-9.828-12.429-14.73V39.04c0,0.531,0.101,0.969,0.154,1.376
		c0.127,0.922,0.993,1.273,2.677,1.405v0.662h-6.251v-0.662c1.223-0.132,2.067-0.483,2.196-1.405
		c0.049-0.407,0.153-0.845,0.153-1.376V27.014c-0.717-0.916-1.508-1.734-2.964-1.734v-0.661h4.647
		c3.803,4.616,7.759,9.314,11.561,13.933h0.05V28.063c0-0.538-0.101-0.974-0.153-1.381c-0.125-0.919-0.996-1.273-2.68-1.402v-0.661
		h6.256v0.661c-1.2,0.129-2.067,0.483-2.199,1.402c-0.049,0.407-0.15,0.843-0.15,1.381v14.42H114.036z"/>
	<path fill="#5E6A71" d="M117.799,33.448c0-3.931,3.319-9.143,10.209-9.143c2.475,0,3.649,0.462,4.9,0.875
		c0.715,0.229,0.995,0.583,0.995,0.992v3.293h-0.664c-0.076-2.043-1.378-4.262-5.435-4.262c-5.336,0-7.072,3.674-7.096,8.038
		c-0.026,4.032,2.015,8.657,7.197,8.657c3.192,0,3.473-1.18,3.473-3.167v-1.559c0-2.376,0.099-2.244-2.707-2.526v-0.661h7.377v0.661
		c-2.296,0.282-2.193,0.15-2.193,2.526v4.443c-1.635,0.638-3.778,1.175-6.102,1.175C122.522,42.792,117.799,40.289,117.799,33.448z"
		/>
	<path fill="#5E6A71" d="M144.806,39.293c0,2.375-0.103,2.246,2.195,2.527v0.662h-6.866v-0.662c2.295-0.281,2.194-0.152,2.194-2.527
		v-13.86h-2.069c-2.221,0-2.73,1.399-3.574,3.087h-0.636l0.691-3.901h13.655l0.689,3.901h-0.639
		c-0.84-1.688-1.351-3.087-3.571-3.087h-2.068V39.293z"/>
	<path fill="#5E6A71" d="M151.084,33.88c0-5.517,4.288-9.575,9.595-9.575c5.538,0,8.756,4.776,8.756,8.71
		c0,5.387-4.033,9.776-9.675,9.776C154.886,42.792,151.084,38.836,151.084,33.88z M166.523,33.78c0-6.102-3.291-8.576-6.407-8.576
		c-4.337,0-6.123,3.878-6.123,7.35c0,6.179,3.163,9.346,6.456,9.346C165.198,41.899,166.523,37.202,166.523,33.78z"/>
	<path fill="#5E6A71" d="M185.899,42.483c-4.062-4.797-8.27-9.828-12.432-14.73V39.04c0,0.531,0.101,0.969,0.154,1.376
		c0.128,0.922,0.995,1.273,2.678,1.405v0.662h-6.253v-0.662c1.227-0.132,2.068-0.483,2.196-1.405
		c0.051-0.407,0.152-0.845,0.152-1.376V27.014c-0.713-0.916-1.504-1.734-2.96-1.734v-0.661h4.646
		c3.804,4.616,7.756,9.314,11.562,13.933h0.048V28.063c0-0.538-0.102-0.974-0.152-1.381c-0.127-0.919-0.993-1.273-2.679-1.402
		v-0.661h6.252v0.661c-1.198,0.129-2.065,0.483-2.193,1.402c-0.051,0.407-0.155,0.843-0.155,1.381v14.42H185.899z"/>
	<path fill="#5E6A71" d="M42.986,21.2v-0.027h-6.904v0.855c2.665,0.029,3.098,0.98,2.398,2.995l-5.225,14.229h-0.29l-6.154-17.786
		h-1.557l-6.465,17.786h-0.439l-4.633-14.134c-0.658-2.238,0.26-3.09,2.333-3.09v-0.855H7.857v0.855
		c1.742,0,2.054,1.355,3.173,4.569l5.948,17.584h1.566l6.363-17.935l6.272,17.951h1.752c2.683-7.141,6.46-17.701,7.85-20.544
		c0.517-1.067,1.453-1.616,2.325-1.616V21.2H42.986z"/>
	<path fill="#5E6A71" d="M61.344,32.895c-2.685-2.015-4.565-3.143-4.565-5.023c0-1.986,1.396-2.795,2.954-2.795
		c2.149,0,3.168,1.506,3.384,3.387h0.697v-3.52c0-0.135-0.026-0.241-0.188-0.295c-1.074-0.376-2.605-0.512-3.76-0.512
		c-3.088,0-5.773,1.908-5.773,4.326c0,1.311,0.361,2.242,0.89,2.961h-0.009c0.01,0.01,0.021,0.019,0.032,0.028
		c0.649,0.87,1.544,1.423,2.336,1.952c4.028,2.658,4.969,4.082,4.969,5.828c0,1.623-1.219,3.25-3.464,3.411
		c-2.299,0.165-5.255-0.946-6.498-4.173c-1.104-3.094-3.352-9.599-4.869-14.088H46c-2.119,5.643-4.99,13.913-6.089,16.158
		c-0.405,0.844-1.145,1.277-1.836,1.277v0.664h1.104h3.541v-0.664c-1.122,0-1.607-0.843-1.276-1.839l1.175-3.421h6.509l1.097,3.293
		l0.845,2.537c0,0,4.565,1.195,7.535,1.195c3.223,0,6.499-1.773,6.499-4.969C65.104,36.385,64.191,35.016,61.344,32.895z
		 M43.002,35.59l3.037-8.296h0.051l2.706,8.296H43.002z"/>
</g>
</svg>
