<?xml version="1.0" encoding="utf-8"?>
<!-- Generator: Adobe Illustrator 16.0.0, SVG Export Plug-In . SVG Version: 6.00 Build 0)  -->
<!DOCTYPE svg PUBLIC "-//W3C//DTD SVG 1.1//EN" "http://www.w3.org/Graphics/SVG/1.1/DTD/svg11.dtd">
<svg version="1.1" id="Layer_1" xmlns="http://www.w3.org/2000/svg" xmlns:xlink="http://www.w3.org/1999/xlink" x="0px" y="0px"
	 width="216px" height="180px" viewBox="0 0 216 180" enable-background="new 0 0 216 180" xml:space="preserve">
<g>
	<path fill="#5E6A71" d="M47.442,148.979H46.23v-4.349h-4.274v4.349h-1.212v-8.748h1.212v3.524h4.274v-3.524h1.212V148.979z"/>
	<path fill="#5E6A71" d="M56.355,141.106h-3.1v2.824h3.037v0.875h-3.037v3.299h3.637v0.875h-4.849v-8.748h4.312V141.106z"/>
	<path fill="#5E6A71" d="M64.143,140.231l3.262,8.748h-1.4l-0.9-2.574h-3.336l-0.938,2.574h-1.174l3.562-8.748H64.143z
		 M64.818,145.53c-0.438-1.212-0.862-2.424-1.3-3.999h-0.025c-0.45,1.575-0.912,2.787-1.387,3.999H64.818z"/>
	<path fill="#5E6A71" d="M70.906,140.231h1.212v7.873h3.637v0.875h-4.849V140.231z"/>
	<path fill="#5E6A71" d="M80.73,148.979v-7.873h-2.799v-0.875h6.823v0.875h-2.812v7.873H80.73z"/>
	<path fill="#5E6A71" d="M95.067,148.979h-1.212v-4.349h-4.274v4.349h-1.212v-8.748h1.212v3.524h4.274v-3.524h1.212V148.979z"/>
	<path fill="#5E6A71" d="M109.23,141.581c-0.426-0.312-0.988-0.625-1.513-0.625c-0.875,0-1.362,0.512-1.362,1.187
		c0,0.625,0.538,1.087,1.662,1.899c1.199,0.875,1.899,1.675,1.899,2.799c0,1.387-1.312,2.287-2.712,2.287
		c-0.837,0-1.837-0.3-2.462-0.912l0.538-0.725c0.512,0.363,1.075,0.763,1.899,0.763c0.862,0,1.525-0.462,1.525-1.438
		c0-1.1-1.312-1.812-2.025-2.337c-0.725-0.562-1.537-1.1-1.537-2.337c0-1.175,1.138-2.062,2.5-2.062
		c0.913,0,1.675,0.325,2.162,0.875L109.23,141.581z"/>
	<path fill="#5E6A71" d="M120.742,141.719c-0.413-0.337-1.35-0.762-2.287-0.762c-2.162,0-3.438,1.549-3.438,3.599
		c0,2.212,1.525,3.699,3.438,3.699c0.949,0,1.699-0.3,2.211-0.65l0.476,0.725c-0.587,0.4-1.624,0.8-2.749,0.8
		c-3.125,0-4.711-2.137-4.711-4.549c0-2.2,1.724-4.499,4.86-4.499c1.25,0,2.124,0.438,2.7,0.887L120.742,141.719z"/>
	<path fill="#5E6A71" d="M125.181,148.979v-8.748h1.212v8.748H125.181z"/>
	<path fill="#5E6A71" d="M135.305,141.106h-3.1v2.824h3.037v0.875h-3.037v3.299h3.637v0.875h-4.849v-8.748h4.312V141.106z"/>
	<path fill="#5E6A71" d="M147.366,148.979h-0.95c-1.899-2.274-5.16-6.198-5.686-6.961h-0.025v6.961h-1v-8.748h0.9
		c1.924,2.274,5.148,6.099,5.736,6.974h0.024v-6.974h1V148.979z"/>
	<path fill="#5E6A71" d="M158.578,141.719c-0.412-0.337-1.35-0.762-2.287-0.762c-2.161,0-3.436,1.549-3.436,3.599
		c0,2.212,1.523,3.699,3.436,3.699c0.95,0,1.7-0.3,2.213-0.65l0.475,0.725c-0.588,0.4-1.625,0.8-2.75,0.8
		c-3.123,0-4.711-2.137-4.711-4.549c0-2.2,1.725-4.499,4.861-4.499c1.25,0,2.125,0.438,2.699,0.887L158.578,141.719z"/>
	<path fill="#5E6A71" d="M167.329,141.106h-3.1v2.824h3.037v0.875h-3.037v3.299h3.637v0.875h-4.849v-8.748h4.312V141.106z"/>
	<path fill="#5E6A71" d="M175.829,141.581c-0.425-0.312-0.987-0.625-1.513-0.625c-0.875,0-1.361,0.512-1.361,1.187
		c0,0.625,0.537,1.087,1.662,1.899c1.199,0.875,1.898,1.675,1.898,2.799c0,1.387-1.312,2.287-2.711,2.287
		c-0.838,0-1.838-0.3-2.463-0.912l0.538-0.725c0.513,0.363,1.075,0.763,1.899,0.763c0.862,0,1.525-0.462,1.525-1.438
		c0-1.1-1.312-1.812-2.025-2.337c-0.725-0.562-1.537-1.1-1.537-2.337c0-1.175,1.137-2.062,2.5-2.062
		c0.912,0,1.674,0.325,2.162,0.875L175.829,141.581z"/>
</g>
<g>
	<g>
		<g>
			<path fill="#5E6A71" d="M130.866,119.02c-1.758-1.318-2.988-2.057-2.988-3.287c0-1.299,0.914-1.829,1.936-1.829
				c1.404,0,2.072,0.985,2.213,2.217h0.457v-2.304c0-0.088-0.018-0.159-0.123-0.192c-0.703-0.246-1.705-0.333-2.461-0.333
				c-2.021,0-3.777,1.246-3.777,2.829c0,0.854,0.236,1.468,0.58,1.937h-0.006c0.008,0.008,0.016,0.014,0.021,0.02
				c0.428,0.568,1.012,0.931,1.529,1.276c2.637,1.741,3.23,2.673,3.252,3.813c0.049,2.537-4.701,3.871-7.83-1.003l-1.623-2.471
				c1.277-0.497,2.32-1.675,2.32-3.384c0-1.943-1.676-2.816-3.348-2.816h-4.828v0.43c1.492,0.178,1.426,0.1,1.426,1.64v7.462
				c0,1.548,0.066,1.461-1.426,1.643v0.432h4.463v-0.432c-1.494-0.182-1.43-0.095-1.43-1.643v-3.065h1.562
				c2.004,3.333,2.502,4.78,3.512,5.14c0.227,0.08,2.828,0.917,4.666,0.917c2.109,0,4.361-1.16,4.361-3.251
				C133.325,121.305,132.728,120.406,130.866,119.02z M120.604,119.604h-1.381v-5.405h1.277c1.209,0,2.209,0.628,2.209,2.438
				C122.71,118.511,122.046,119.604,120.604,119.604z"/>
			<path fill="#5E6A71" d="M87.239,125.08c0,0,0,0-8.115-9.615v7.366c0,0.349,0.068,0.632,0.098,0.898
				c0.086,0.601,0.654,0.833,1.752,0.918v0.433h-4.082v-0.433c0.803-0.085,1.35-0.317,1.432-0.918
				c0.035-0.267,0.102-0.55,0.102-0.898v-7.849c-0.465-0.6-0.986-1.133-1.932-1.133v-0.438h3.029
				c2.482,3.02,5.068,6.085,7.551,9.103h0.033v-6.852c0-0.351-0.068-0.632-0.102-0.899c-0.086-0.6-0.646-0.83-1.748-0.914v-0.438
				h4.082v0.438c-0.783,0.084-1.35,0.314-1.436,0.914c-0.033,0.268-0.098,0.549-0.098,0.899v9.417H87.239z"/>
			<path fill="#5E6A71" d="M93.788,122.996c0,1.553-0.066,1.467,1.432,1.651v0.433h-4.482v-0.433
				c1.502-0.185,1.434-0.099,1.434-1.651v-7.498c0-1.547,0.068-1.468-1.434-1.648v-0.432h4.482v0.432
				c-1.498,0.181-1.432,0.102-1.432,1.648V122.996z"/>
			<path fill="#5E6A71" d="M114.989,122.079c-0.766,1.785-0.65,2.47-3.064,2.47c-1.5,0-2.152-0.119-2.152-1.537v-3.765h1.402
				c1.115,0,1.5,0.587,1.531,1.569h0.432v-3.553h-0.432c-0.031,1.033-0.482,1.451-1.531,1.451h-1.402v-4.764h2.646
				c1.197,0,1.533,0.914,1.697,2.147h0.432v-2.681h-7.674h-3.301v0.432c1.131,0,1.564,0.515,1.148,1.566
				c-1.033,2.55-2.051,5.113-3.119,7.664c-0.865-2.531-1.83-5.396-2.477-7.363c-0.555-1.603,0.115-1.867,1.033-1.867v-0.432h-4.238
				v0.432c0.803,0,1.016,0.515,1.637,2.299c1.014,2.833,2.15,6.048,3.166,8.932h0.848c1.402-3.416,2.818-6.816,4.217-10.229
				c0.35-0.835,0.6-1.001,1.086-1.001c1.498,0.181,1.283,0.102,1.283,1.648v7.498c0,1.553,0.215,1.467-1.283,1.651v0.433h8.049
				l0.5-3.001H114.989z"/>
			<path fill="#5E6A71" d="M137.315,122.996c0,1.553-0.07,1.467,1.432,1.651v0.433h-4.484v-0.433
				c1.502-0.185,1.436-0.099,1.436-1.651v-7.498c0-1.547,0.066-1.468-1.436-1.648v-0.432h4.484v0.432
				c-1.502,0.181-1.432,0.102-1.432,1.648V122.996z"/>
			<path fill="#5E6A71" d="M154.356,113.418v0.432c0.982,0,1.516,0.48,0.947,1.498l-2.297,4.186l-2.018-4.186
				c-0.418-0.867-0.531-1.498,0.732-1.498v-0.432h-2.793h-1.156h-7.76l-0.451,2.545h0.418c0.547-1.098,0.881-2.012,2.33-2.012h1.354
				v9.045c0,1.553,0.064,1.467-1.436,1.651v0.433h4.482v-0.433c-1.498-0.185-1.434-0.099-1.434-1.651v-9.045h1.352
				c1.365,0,2.285,0.814,2.848,1.828l2.346,4.654v2.562c0,1.553,0.068,1.467-1.432,1.651v0.433h4.48v-0.433
				c-1.496-0.185-1.432-0.099-1.432-1.651v-1.866c0-0.415,0.033-0.884,0.201-1.216l2.781-5.049c0.451-0.801,0.9-1.016,1.367-1.016
				v-0.432H154.356z"/>
			<path fill="#5E6A71" d="M76.513,113.408l-5.252,0.014v0.436c1.053,0.113,1.816,0.576,1.926,1.385
				c0.045,0.355,0.137,0.736,0.137,1.207v6.229c0,3.589-1.617,5.647-4.686,5.647c-3.34,0-4.342-2.396-4.342-5.536v-6.565
				c0-2.084,0.061-2.121,2.078-2.367v-0.436h-6.031v0.436c2.021,0.246,1.932,0.283,1.932,2.367v6.679
				c0,4.056,1.479,6.479,6.25,6.479c2.891,0,5.965-1.793,5.965-6.613v-6.32c0-0.039,0-0.075,0-0.111
				c-0.02-1.945,0.736-2.229,2.01-2.435L76.513,113.408z"/>
		</g>
		<g>
			<path fill="#5E6A71" d="M65.233,105.058c0,1.543-0.066,1.46,1.426,1.643v0.431h-4.463v-0.431
				c1.494-0.183,1.428-0.099,1.428-1.643v-7.469c0-1.541-0.719-1.458-2.211-1.64v-0.43h5.246v0.43
				c-1.492,0.183-1.426,0.1-1.426,1.64v2.874h5.824v-2.874c0-1.541,0.064-1.458-1.428-1.64v-0.43h4.463v0.43
				c-1.492,0.183-1.428,0.1-1.428,1.64v7.469c0,1.543-0.064,1.46,1.428,1.643v0.431H69.63v-0.431
				c1.492-0.183,1.428-0.099,1.428-1.643v-3.918h-5.824V105.058z"/>
			<path fill="#5E6A71" d="M78.958,105.058c0,1.543-0.068,1.46,1.424,1.643v0.431h-4.461v-0.431
				c1.492-0.183,1.426-0.099,1.426-1.643v-7.469c0-1.541,0.066-1.458-1.426-1.64v-0.43h4.461v0.43
				c-1.492,0.183-1.424,0.1-1.424,1.64V105.058z"/>
			<path fill="#5E6A71" d="M92.751,107.131c-2.639-3.118-5.377-6.389-8.08-9.575v7.336c0,0.345,0.066,0.629,0.102,0.895
				c0.082,0.599,0.645,0.828,1.738,0.913v0.431h-4.062v-0.431c0.795-0.085,1.344-0.314,1.428-0.913c0.031-0.265,0.1-0.549,0.1-0.895
				v-7.816c-0.467-0.596-0.98-1.127-1.926-1.127v-0.43h3.02c2.473,3,5.043,6.054,7.516,9.056h0.031v-6.817
				c0-0.35-0.064-0.633-0.1-0.897c-0.08-0.598-0.646-0.828-1.742-0.912v-0.43h4.066v0.43c-0.779,0.084-1.344,0.314-1.428,0.912
				c-0.033,0.265-0.1,0.548-0.1,0.897v9.373H92.751z"/>
			<path fill="#5E6A71" d="M95.196,101.258c0-2.555,2.158-5.942,6.637-5.942c1.607,0,2.371,0.3,3.186,0.568
				c0.463,0.149,0.646,0.379,0.646,0.645v2.141h-0.432c-0.049-1.328-0.896-2.77-3.533-2.77c-3.469,0-4.598,2.388-4.611,5.225
				c-0.018,2.621,1.309,5.627,4.678,5.627c2.074,0,2.256-0.767,2.256-2.059v-1.013c0-1.544,0.064-1.459-1.76-1.643v-0.43h4.795v0.43
				c-1.492,0.184-1.426,0.098-1.426,1.643v2.888c-1.062,0.414-2.455,0.763-3.965,0.763
				C98.267,107.332,95.196,105.705,95.196,101.258z"/>
			<path fill="#5E6A71" d="M112.751,105.058c0,1.543-0.066,1.46,1.426,1.643v0.431h-4.463v-0.431
				c1.492-0.183,1.426-0.099,1.426-1.643v-9.009h-1.346c-1.443,0-1.773,0.91-2.322,2.006h-0.414l0.449-2.536h8.877l0.447,2.536
				h-0.414c-0.547-1.097-0.879-2.006-2.322-2.006h-1.344V105.058z"/>
			<path fill="#5E6A71" d="M116.831,101.54c0-3.586,2.787-6.224,6.238-6.224c3.6,0,5.689,3.104,5.689,5.661
				c0,3.501-2.621,6.354-6.289,6.354C119.302,107.332,116.831,104.761,116.831,101.54z M126.866,101.474
				c0-3.966-2.139-5.574-4.164-5.574c-2.818,0-3.979,2.521-3.979,4.777c0,4.016,2.055,6.075,4.195,6.075
				C126.005,106.751,126.866,103.698,126.866,101.474z"/>
			<path fill="#5E6A71" d="M139.462,107.131c-2.641-3.118-5.375-6.389-8.082-9.575v7.336c0,0.345,0.066,0.629,0.102,0.895
				c0.082,0.599,0.646,0.828,1.74,0.913v0.431h-4.064v-0.431c0.797-0.085,1.344-0.314,1.428-0.913c0.033-0.265,0.1-0.549,0.1-0.895
				v-7.816c-0.465-0.596-0.979-1.127-1.926-1.127v-0.43h3.021c2.473,3,5.041,6.054,7.516,9.056h0.031v-6.817
				c0-0.35-0.066-0.633-0.1-0.897c-0.082-0.598-0.645-0.828-1.742-0.912v-0.43h4.064v0.43c-0.779,0.084-1.342,0.314-1.426,0.912
				c-0.033,0.265-0.1,0.548-0.1,0.897v9.373H139.462z"/>
			<path fill="#5E6A71" d="M46.567,93.297v-0.018h-4.488v0.556c1.732,0.019,2.016,0.637,1.561,1.947l-3.396,9.249h-0.188l-4-11.561
				h-1.014l-4.201,11.561h-0.285l-3.012-9.187c-0.428-1.455,0.17-2.008,1.516-2.008v-0.556h-5.326v0.556
				c1.133,0,1.336,0.881,2.062,2.97l3.867,11.429h1.018l4.137-11.657l4.076,11.668h1.139c1.744-4.641,4.201-11.505,5.104-13.354
				c0.336-0.693,0.943-1.05,1.512-1.05v-0.544H46.567z"/>
			<path fill="#5E6A71" d="M58.501,100.899c-1.746-1.31-2.969-2.042-2.969-3.265c0-1.291,0.908-1.816,1.922-1.816
				c1.396,0,2.059,0.979,2.199,2.201h0.453v-2.288c0-0.088-0.018-0.157-0.123-0.192c-0.697-0.244-1.693-0.333-2.443-0.333
				c-2.008,0-3.752,1.24-3.752,2.812c0,0.852,0.234,1.458,0.578,1.924H54.36c0.006,0.006,0.014,0.012,0.021,0.019
				c0.422,0.565,1.002,0.925,1.518,1.269c2.619,1.728,3.23,2.653,3.23,3.788c0,1.055-0.793,2.113-2.252,2.217
				c-1.494,0.107-3.416-0.615-4.225-2.712c-0.717-2.011-2.178-6.239-3.164-9.157h-0.963c-1.377,3.667-3.242,9.043-3.957,10.502
				c-0.264,0.548-0.744,0.831-1.193,0.831v0.432h0.717h2.301V106.7c-0.729,0-1.043-0.548-0.828-1.195l0.764-2.224h4.23l0.713,2.14
				l0.551,1.649c0,0,2.967,0.777,4.896,0.777c2.096,0,4.225-1.153,4.225-3.229C60.944,103.167,60.351,102.278,58.501,100.899z
				 M46.577,102.651l1.975-5.392h0.033l1.76,5.392H46.577z"/>
		</g>
		<g>
			<path fill="#5E6A71" d="M153.021,96.292c-0.178-1.566-1.027-2.816-2.811-2.816c-1.297,0-2.605,0.67-2.605,2.321
				c0,1.563,1.562,2.5,3.797,4.175c2.363,1.764,3.125,2.902,3.125,4.755c0,2.655-2.576,4.129-5.252,4.129
				c-1.432,0-2.66-0.271-3.82-0.715c-0.088-0.044-0.156-0.134-0.156-0.31v-3.218h0.58c0.248,2.477,1.873,3.46,3.596,3.46
				c1.584,0,3.025-1.206,3.025-2.834c0-1.453-0.781-2.636-4.129-4.841c-1.205-0.803-2.699-1.677-2.699-4.106
				c0-2.016,2.08-3.598,4.648-3.598c0.961,0,2.232,0.111,3.125,0.426c0.135,0.04,0.156,0.135,0.156,0.245v2.926H153.021z"/>
			<path fill="#5E6A71" d="M160.159,105.069c0,1.546-0.064,1.458,1.43,1.646v0.427h-4.467v-0.427c1.494-0.189,1.43-0.1,1.43-1.646
				v-9.014h-1.348c-1.443,0-1.775,0.914-2.322,2.007h-0.412l0.445-2.536h8.879l0.449,2.536h-0.416
				c-0.547-1.093-0.879-2.007-2.32-2.007h-1.348V105.069z"/>
			<path fill="#5E6A71" d="M165.952,103.292l-0.76,2.226c-0.217,0.65,0.098,1.198,0.828,1.198v0.427h-3.021v-0.427
				c0.447,0,0.93-0.288,1.195-0.833c0.713-1.462,2.654-6.886,4.033-10.556h0.928c1.129,3.335,2.82,8.451,3.385,9.926
				c0.369,0.926,0.633,1.462,1.346,1.462v0.427h-3.867v-0.427c1.045,0,1.148-0.548,0.883-1.282l-0.717-2.142H165.952z
				 M169.972,102.664l-1.76-5.396h-0.033l-1.977,5.396H169.972z"/>
			<path fill="#5E6A71" d="M178.419,105.069c0,1.546-0.066,1.458,1.426,1.646v0.427h-4.465v-0.427c1.494-0.189,1.43-0.1,1.43-1.646
				v-9.014h-1.346c-1.445,0-1.773,0.914-2.324,2.007h-0.416l0.451-2.536h8.879l0.445,2.536h-0.416
				c-0.543-1.093-0.875-2.007-2.318-2.007h-1.346V105.069z"/>
			<path fill="#5E6A71" d="M183.284,106.716c1.496-0.189,1.281-0.1,1.281-1.646v-7.47c0-1.543,0.215-1.461-1.281-1.643v-0.429h7.27
				v2.667h-0.434c-0.166-1.224-0.494-2.138-1.689-2.138h-2.262v4.752h1.395c1.045,0,1.496-0.417,1.525-1.446h0.434v3.531h-0.434
				c-0.029-0.981-0.412-1.561-1.525-1.561h-1.395v3.75c0,1.416,0.65,1.534,2.145,1.534c2.406,0,2.289-0.683,3.055-2.459h0.43
				l-0.5,2.986h-8.014V106.716z"/>
		</g>
	</g>
	<g>
		<g>
			<g>
				<g>
					<path fill="#5E6A71" d="M116.786,75.41l-8.5,6.066l-8.492-6.066c-6.039-4.139-11.215-7.688-13.926-13.078
						c2.24,10.104,12.094,13.882,22.418,21.985c10.326-8.103,20.186-11.88,22.426-21.985
						C127.999,67.723,122.823,71.271,116.786,75.41z"/>
					<g>
						<path fill="#981E32" d="M84.694,26v1.06c0.656,0.227,0.873,0.436,0.943,1.397v24.422c0,13.585,11.025,17.174,22.656,26.301
							c11.633-9.127,22.664-12.716,22.664-26.301V28.184c0.086-0.741,0.322-0.921,0.912-1.125V26H84.694z"/>
					</g>
				</g>
			</g>
		</g>
		<g>
			<g>
				<g>
					<path fill="#FFFFFF" d="M112.882,65.758c0,0,1.887-0.804,2.916-3.93c0.91,1.905,0.67,3.864,0.67,3.864
						C115.636,65.88,112.882,65.758,112.882,65.758z"/>
					<path fill="#FFFFFF" d="M123.005,47.893c0,0,1.146,6.275-2.92,6.491c-3.926,0.206-5.781-5.717-5.781-5.717
						s0.949,11.576,6.453,10.814C126.96,58.623,123.005,47.893,123.005,47.893z"/>
				</g>
			</g>
			<path fill="#FFFFFF" d="M93.104,64.265c0.002,0,0.006,0,0.008,0c4.592-1.047,8.104-6.42,9.137-8.577l0.654-1.368l0.396,1.464
				c0.02,0.082,0.449,1.691,0.449,3.821c0,0.234-0.008,0.478-0.02,0.723c1.584,0.059,2.713-0.261,3.418-0.992
				c1.006-1.051,1.311-3.03,0.932-6.058c-0.184-1.45-0.719-3.757-1.189-5.791c-0.244-1.039-0.471-2.022-0.607-2.717
				c-0.885-4.45,0.211-7.211,1.289-8.743c0.17-0.243,0.354-0.472,0.547-0.691c-3.172,1.073-5.836,2.741-8.584,5.491l1.932,2.25
				l0.791-0.739c0.744,2.79,0.209,5.362,0.209,5.362c-1.018-1.554-2.219-2.812-2.219-2.812l0.529-0.887l-1.742-2.03l-0.203-0.225
				c-2.141,2.95-2.836,5.368-2.836,5.368l1.521,1.387l0.885,0.806l0.295-0.854c1.635,3.066,0.145,5.934,0.145,5.934
				c-0.271-1.047-1.346-2.59-1.346-2.59l0.424-1.406l-2.26-2.054c-2.352,7.369-5.498,9.758-5.498,9.758s3.404-0.615,5.295-1.252
				C95.456,56.844,95.403,60.727,93.104,64.265z"/>
			<path fill="#FFFFFF" d="M127.417,37.686l-5.43,0.23c0.006,0.644-0.082,1.29-0.291,1.903c0.508,2.225,0.16,3.432,0.16,3.432
				c-0.912-2.121-1.607-2.707-1.607-2.707c-4.984-2.226-7.785,2.8-7.486,6.042c0.246,2.662,1.207,6.198,1.961,11.743
				c0.635,4.667-1.723,6.681-4.436,7.146c-0.059,0.01-0.115,0.021-0.176,0.03c-0.014,0-0.027,0.006-0.041,0.006
				c-0.438,0.057-0.908,0.078-1.402,0.063c-0.018,0-0.035,0-0.049,0c-0.055,0-0.109-0.006-0.162-0.006
				c-0.211-0.014-0.422-0.034-0.629-0.062c-2.107-0.29-6.83-1.15-11.705-1.269c2.867-1.682,5.111-4.586,6.361-6.65
				c0.076,0.572,0.137,1.269,0.137,2.036c0,0.383-0.016,0.782-0.053,1.195l-0.047,0.559l0.561,0.051
				c2.244,0.195,3.84-0.234,4.871-1.31c1.279-1.33,1.67-3.548,1.24-6.979c-0.189-1.51-0.73-3.844-1.207-5.905
				c-0.242-1.032-0.471-2.006-0.602-2.685c-0.807-4.056,0.152-6.52,1.102-7.871c0.748-1.062,1.775-1.835,2.902-2.209
				c0.02-0.001,0.037-0.007,0.059-0.007l1.85-5.71h0.582l-1.242,5.486c0.289-0.055,0.582-0.1,0.881-0.144l1.596-5.057h0.578
				l-1.047,4.898c1.656-0.215,3.451-0.38,5.443-0.529c0.324,0.135,0.668,0.507,0.979,1.026l5.229-1.613l0.189,0.563l-4.992,1.949
				c0.039,0.102,0.076,0.21,0.115,0.317l5.459-0.68l0.092,0.589l-5.303,1.06c0.02,0.1,0.035,0.199,0.049,0.298l5.52,0.176
				L127.417,37.686z M111.687,40.134c1.094-0.769,2.957-1.363,4.703-1.229c0.445,0.037,0.818-0.08,0.34-0.338
				c-1.309-0.689-4.354-0.456-5.432,0.284c-1.729,1.182-1.436,3.284-1.395,3.334C110.247,41.583,110.833,40.736,111.687,40.134z"/>
		</g>
	</g>
</g>
</svg>
