<?xml version="1.0" encoding="utf-8"?>
<!-- Generator: Adobe Illustrator 16.0.0, SVG Export Plug-In . SVG Version: 6.00 Build 0)  -->
<!DOCTYPE svg PUBLIC "-//W3C//DTD SVG 1.1//EN" "http://www.w3.org/Graphics/SVG/1.1/DTD/svg11.dtd">
<svg version="1.1" id="Layer_1" xmlns="http://www.w3.org/2000/svg" xmlns:xlink="http://www.w3.org/1999/xlink" x="0px" y="0px"
	 width="183.224px" height="75.31px" viewBox="0 0 183.224 75.31" enable-background="new 0 0 183.224 75.31" xml:space="preserve">
<g>
	<path fill="#5E6A71" d="M57.865,10.521c-0.727-0.594-2.377-1.342-4.027-1.342c-3.806,0-6.051,2.729-6.051,6.337
		c0,3.895,2.685,6.513,6.051,6.513c1.673,0,2.993-0.528,3.895-1.144l0.837,1.275c-1.034,0.704-2.86,1.408-4.841,1.408
		c-5.501,0-8.296-3.762-8.296-8.009c0-3.873,3.037-7.921,8.56-7.921c2.2,0,3.74,0.77,4.753,1.562L57.865,10.521z"/>
	<path fill="#5E6A71" d="M59.755,17.671c0-3.564,2.641-5.633,5.413-5.633s5.435,2.068,5.435,5.633c0,3.41-2.178,5.896-5.435,5.896
		C61.934,23.568,59.755,21.082,59.755,17.671z M61.89,17.671c0,2.068,0.704,4.488,3.278,4.488c2.597,0,3.301-2.42,3.301-4.488
		c0-1.98-0.814-4.225-3.301-4.225C62.703,13.447,61.89,15.691,61.89,17.671z"/>
	<path fill="#5E6A71" d="M72.889,23.304V7.132h1.98v16.172H72.889z"/>
	<path fill="#5E6A71" d="M77.903,23.304V7.132h1.98v16.172H77.903z"/>
	<path fill="#5E6A71" d="M84.218,17.936c-0.022,2.201,1.54,4.224,3.718,4.224c1.013,0,2.245-0.374,3.015-0.945l0.572,1.078
		c-1.145,0.813-2.509,1.275-3.652,1.275c-3.433,0-5.699-2.112-5.699-5.984c0-3.807,2.729-5.545,5.215-5.545
		c3.345,0,4.467,3.015,4.247,5.897H84.218z M89.828,16.615c0-1.716-0.726-3.168-2.464-3.168c-2.112,0-2.949,1.76-3.015,3.168H89.828
		z"/>
	<path fill="#5E6A71" d="M103.952,22.908c0,4.203-2.618,5.897-5.589,5.897c-1.628,0-3.257-0.309-4.533-1.101l0.551-1.298
		c1.342,0.771,2.574,0.99,3.938,0.99c2.267,0,3.652-1.452,3.652-4.335v-1.496h-0.044c-0.771,1.078-1.937,2.002-3.675,2.002
		c-3.036,0-4.929-2.376-4.929-5.896c0-2.86,2.112-5.633,5.259-5.633c1.32,0,2.729,0.66,3.345,1.782h0.044v-1.518h1.98V22.908z
		 M101.972,17.451c0-2.068-1.122-4.004-3.278-4.004c-2.288,0-3.234,1.804-3.234,4.137c0,2.354,1.012,4.576,3.103,4.576
		C100.96,22.16,101.972,19.894,101.972,17.451z"/>
	<path fill="#5E6A71" d="M108.461,17.936c-0.022,2.201,1.54,4.224,3.718,4.224c1.013,0,2.245-0.374,3.015-0.945l0.572,1.078
		c-1.145,0.813-2.509,1.275-3.652,1.275c-3.433,0-5.699-2.112-5.699-5.984c0-3.807,2.729-5.545,5.215-5.545
		c3.345,0,4.467,3.015,4.247,5.897H108.461z M114.071,16.615c0-1.716-0.726-3.168-2.464-3.168c-2.112,0-2.949,1.76-3.015,3.168
		H114.071z"/>
	<path fill="#5E6A71" d="M123.881,17.671c0-3.564,2.641-5.633,5.413-5.633s5.435,2.068,5.435,5.633c0,3.41-2.178,5.896-5.435,5.896
		C126.06,23.568,123.881,21.082,123.881,17.671z M126.016,17.671c0,2.068,0.704,4.488,3.278,4.488c2.597,0,3.301-2.42,3.301-4.488
		c0-1.98-0.814-4.225-3.301-4.225C126.829,13.447,126.016,15.691,126.016,17.671z"/>
	<path fill="#5E6A71" d="M137.346,23.304v-9.857h-1.761v-1.144h1.761V10.96c0-2.948,1.98-3.829,3.213-3.829
		c0.571,0,1.254,0.11,1.737,0.462l-0.439,1.012c-0.33-0.088-0.639-0.154-1.078-0.154c-0.33,0-1.452,0.088-1.452,1.87v1.98h2.641
		v1.144h-2.641v9.857H137.346z"/>
	<path fill="#5E6A71" d="M53.816,32.442h-5.457v4.973h5.347v1.541h-5.347v5.809h6.403v1.54h-8.537V30.902h7.591V32.442z"/>
	<path fill="#5E6A71" d="M58.897,36.667c1.034-1.1,2.618-1.628,3.762-1.628c2.531,0,3.895,1.408,3.895,4.181v7.085h-1.979v-6.667
		c0-2.068-0.881-3.146-2.663-3.146c-1.562,0-2.992,1.078-2.992,3.19v6.623h-1.98V35.302h1.959V36.667z"/>
	<path fill="#5E6A71" d="M79.248,45.908c0,4.203-2.618,5.897-5.589,5.897c-1.628,0-3.257-0.309-4.533-1.101l0.551-1.298
		c1.342,0.771,2.574,0.99,3.938,0.99c2.267,0,3.652-1.452,3.652-4.335v-1.496h-0.044c-0.771,1.078-1.937,2.002-3.675,2.002
		c-3.036,0-4.929-2.376-4.929-5.896c0-2.86,2.112-5.633,5.259-5.633c1.32,0,2.729,0.66,3.345,1.782h0.044v-1.519h1.98V45.908z
		 M77.268,40.452c0-2.068-1.122-4.005-3.278-4.005c-2.288,0-3.234,1.805-3.234,4.137c0,2.354,1.012,4.576,3.103,4.576
		C76.256,45.16,77.268,42.894,77.268,40.452z"/>
	<path fill="#5E6A71" d="M82.194,31.672c0-0.551,0.462-1.166,1.254-1.166s1.254,0.615,1.254,1.166c0,0.594-0.285,1.342-1.254,1.342
		C82.48,33.014,82.194,32.266,82.194,31.672z M84.438,35.302v11.002h-1.98V35.302H84.438z"/>
	<path fill="#5E6A71" d="M89.652,36.667c1.034-1.1,2.618-1.628,3.762-1.628c2.531,0,3.895,1.408,3.895,4.181v7.085h-1.979v-6.667
		c0-2.068-0.881-3.146-2.663-3.146c-1.562,0-2.992,1.078-2.992,3.19v6.623h-1.98V35.302h1.959V36.667z"/>
	<path fill="#5E6A71" d="M101.423,40.935c-0.022,2.201,1.54,4.225,3.718,4.225c1.013,0,2.245-0.374,3.015-0.945l0.572,1.078
		c-1.145,0.813-2.509,1.275-3.652,1.275c-3.433,0-5.699-2.112-5.699-5.984c0-3.807,2.729-5.545,5.215-5.545
		c3.345,0,4.467,3.015,4.247,5.896H101.423z M107.033,39.615c0-1.716-0.726-3.168-2.464-3.168c-2.112,0-2.949,1.76-3.015,3.168
		H107.033z"/>
	<path fill="#5E6A71" d="M112.576,40.935c-0.022,2.201,1.54,4.225,3.718,4.225c1.013,0,2.245-0.374,3.015-0.945l0.572,1.078
		c-1.145,0.813-2.509,1.275-3.652,1.275c-3.433,0-5.699-2.112-5.699-5.984c0-3.807,2.729-5.545,5.215-5.545
		c3.345,0,4.467,3.015,4.247,5.896H112.576z M118.187,39.615c0-1.716-0.726-3.168-2.464-3.168c-2.112,0-2.949,1.76-3.015,3.168
		H118.187z"/>
	<path fill="#5E6A71" d="M124.367,36.667l0.792-0.836c0.462-0.462,1.188-0.792,1.65-0.792c0.484,0,1.21,0.352,1.826,1.078
		l-0.902,1.276c-0.483-0.242-0.968-0.462-1.474-0.462c-1.013,0-1.849,1.012-1.849,3.454v5.919h-1.98V35.302h1.937V36.667z"/>
	<path fill="#5E6A71" d="M129.823,31.672c0-0.551,0.462-1.166,1.254-1.166s1.254,0.615,1.254,1.166c0,0.594-0.285,1.342-1.254,1.342
		C130.109,33.014,129.823,32.266,129.823,31.672z M132.067,35.302v11.002h-1.98V35.302H132.067z"/>
	<path fill="#5E6A71" d="M137.281,36.667c1.034-1.1,2.618-1.628,3.762-1.628c2.531,0,3.895,1.408,3.895,4.181v7.085h-1.979v-6.667
		c0-2.068-0.881-3.146-2.663-3.146c-1.562,0-2.992,1.078-2.992,3.19v6.623h-1.98V35.302h1.959V36.667z"/>
	<path fill="#5E6A71" d="M157.632,45.908c0,4.203-2.618,5.897-5.589,5.897c-1.628,0-3.257-0.309-4.533-1.101l0.551-1.298
		c1.342,0.771,2.574,0.99,3.938,0.99c2.267,0,3.652-1.452,3.652-4.335v-1.496h-0.044c-0.771,1.078-1.937,2.002-3.675,2.002
		c-3.036,0-4.929-2.376-4.929-5.896c0-2.86,2.112-5.633,5.259-5.633c1.32,0,2.729,0.66,3.345,1.782h0.044v-1.519h1.98V45.908z
		 M155.651,40.452c0-2.068-1.122-4.005-3.278-4.005c-2.288,0-3.234,1.805-3.234,4.137c0,2.354,1.012,4.576,3.103,4.576
		C154.64,45.16,155.651,42.894,155.651,40.452z"/>
	<path fill="#5E6A71" d="M56.435,64.639c0.639-1.298,0.22-3.564-0.638-4.796h-2.156l0.66-1.364h6.601l-0.682,1.364h-2.597
		c0.792,1.275,1.056,3.762,0,5.853l3.366,2.882l-1.958,0.99l-2.509-2.31c-1.188,1.342-2.926,2.31-5.061,2.31
		c-4.797,0-5.479-3.652-5.479-4.599c0-2.024,1.474-3.608,3.3-4.444c-0.857-0.814-2.002-1.87-2.002-3.454
		c0-1.805,1.65-3.433,4.114-3.433c1.167,0,2.179,0.352,3.146,1.056l-0.77,1.232c-0.374-0.242-1.232-0.748-2.179-0.748
		c-1.43,0-2.156,0.814-2.156,1.782c0,0.88,0.55,1.694,2.068,3.08L56.435,64.639z M50.252,61.582c-1.387,0.77-1.98,1.914-1.98,3.19
		c0,1.408,1.101,3.344,3.433,3.344c1.694,0,3.103-0.968,3.74-1.87L50.252,61.582z"/>
	<path fill="#5E6A71" d="M76.432,53.902l5.742,15.402H79.71l-1.584-4.532h-5.875l-1.65,4.532h-2.068l6.271-15.402H76.432z
		 M77.619,63.231c-0.77-2.134-1.518-4.269-2.288-7.041h-0.044c-0.792,2.772-1.606,4.907-2.442,7.041H77.619z"/>
	<path fill="#5E6A71" d="M85.648,59.667l0.792-0.836c0.462-0.462,1.188-0.792,1.65-0.792c0.484,0,1.21,0.352,1.826,1.078
		l-0.902,1.276c-0.483-0.242-0.968-0.462-1.474-0.462c-1.013,0-1.849,1.012-1.849,3.454v5.919h-1.98V58.302h1.937V59.667z"/>
	<path fill="#5E6A71" d="M99.422,68.424c-1.078,0.77-2.376,1.144-3.322,1.144c-5.215,0-5.875-4.269-5.875-5.786
		c0-2.751,1.826-5.743,5.963-5.743c1.122,0,2.135,0.286,2.948,0.902l-0.66,1.122c-0.638-0.309-1.452-0.572-2.266-0.572
		c-1.805,0-3.851,1.188-3.851,4.181c0,2.288,1.166,4.444,3.828,4.444c0.946,0,1.826-0.242,2.685-0.792L99.422,68.424z"/>
	<path fill="#5E6A71" d="M103.073,59.667c1.034-1.1,2.618-1.628,3.762-1.628c2.531,0,3.895,1.408,3.895,4.181v7.085h-1.979v-6.667
		c0-2.068-0.881-3.146-2.663-3.146c-1.562,0-2.992,1.078-2.992,3.19v6.623h-1.98V53.132h1.959V59.667z"/>
	<path fill="#5E6A71" d="M113.171,54.672c0-0.551,0.462-1.166,1.254-1.166s1.254,0.615,1.254,1.166c0,0.594-0.285,1.342-1.254,1.342
		C113.457,56.014,113.171,55.266,113.171,54.672z M115.415,58.302v11.002h-1.98V58.302H115.415z"/>
	<path fill="#5E6A71" d="M121.112,58.302h2.883v1.145h-2.883v6.227c0,1.541,0.309,2.465,1.519,2.465
		c0.726,0,1.145-0.176,1.519-0.374l0.483,1.1c-0.682,0.44-1.496,0.704-2.244,0.704c-2.2,0-3.257-1.275-3.257-3.521v-6.601h-1.54
		v-1.145h1.54v-2.64l1.98-0.66V58.302z"/>
	<path fill="#5E6A71" d="M127.119,63.935c-0.022,2.201,1.54,4.225,3.718,4.225c1.013,0,2.245-0.374,3.015-0.945l0.572,1.078
		c-1.145,0.813-2.509,1.275-3.652,1.275c-3.433,0-5.699-2.112-5.699-5.984c0-3.807,2.729-5.545,5.215-5.545
		c3.345,0,4.467,3.015,4.247,5.896H127.119z M132.729,62.615c0-1.716-0.726-3.168-2.464-3.168c-2.112,0-2.949,1.76-3.015,3.168
		H132.729z"/>
	<path fill="#5E6A71" d="M145.423,68.424c-1.078,0.77-2.376,1.144-3.322,1.144c-5.215,0-5.875-4.269-5.875-5.786
		c0-2.751,1.826-5.743,5.963-5.743c1.122,0,2.135,0.286,2.948,0.902l-0.66,1.122c-0.638-0.309-1.452-0.572-2.266-0.572
		c-1.805,0-3.851,1.188-3.851,4.181c0,2.288,1.166,4.444,3.828,4.444c0.946,0,1.826-0.242,2.685-0.792L145.423,68.424z"/>
	<path fill="#5E6A71" d="M149.558,58.302h2.883v1.145h-2.883v6.227c0,1.541,0.309,2.465,1.519,2.465
		c0.726,0,1.145-0.176,1.519-0.374l0.483,1.1c-0.682,0.44-1.496,0.704-2.244,0.704c-2.2,0-3.257-1.275-3.257-3.521v-6.601h-1.54
		v-1.145h1.54v-2.64l1.98-0.66V58.302z"/>
	<path fill="#5E6A71" d="M162.055,68.028c-1.122,0.969-2.112,1.54-3.543,1.54c-2.53,0-3.895-1.408-3.895-4.181v-7.085h1.98v6.646
		c0,2.068,0.88,3.168,2.662,3.168c1.519,0,2.772-1.254,2.772-3.388v-6.426h1.98v11.002h-1.958V68.028z"/>
	<path fill="#5E6A71" d="M169.203,59.667l0.792-0.836c0.462-0.462,1.188-0.792,1.65-0.792c0.484,0,1.21,0.352,1.826,1.078
		l-0.902,1.276c-0.483-0.242-0.968-0.462-1.474-0.462c-1.013,0-1.849,1.012-1.849,3.454v5.919h-1.98V58.302h1.937V59.667z"/>
	<path fill="#5E6A71" d="M175.782,63.935c-0.022,2.201,1.54,4.225,3.718,4.225c1.013,0,2.245-0.374,3.015-0.945l0.572,1.078
		c-1.145,0.813-2.509,1.275-3.652,1.275c-3.433,0-5.699-2.112-5.699-5.984c0-3.807,2.729-5.545,5.215-5.545
		c3.345,0,4.467,3.015,4.247,5.896H175.782z M181.393,62.615c0-1.716-0.726-3.168-2.464-3.168c-2.112,0-2.949,1.76-3.015,3.168
		H181.393z"/>
</g>
<g>
	<g>
		<g>
			<g>
				<path fill="#5E6A71" d="M17.445,34.792l-4.616,3.289L8.21,34.792c-3.283-2.244-6.098-4.17-7.571-7.094
					c1.216,5.48,6.575,7.531,12.19,11.924c5.613-4.393,10.972-6.443,12.188-11.924C23.543,30.623,20.729,32.548,17.445,34.792z"/>
				<g>
					<path fill="#981E32" d="M0,8v0.574C0.357,8.698,0.475,8.81,0.512,9.332v13.243c0,7.365,5.995,9.313,12.319,14.26
						c6.325-4.947,12.321-6.896,12.321-14.26V9.182c0.047-0.399,0.175-0.499,0.496-0.608V8H0z"/>
				</g>
			</g>
		</g>
	</g>
	<g>
		<g>
			<g>
				<path fill="#FFFFFF" d="M15.325,29.56c0,0,1.024-0.437,1.586-2.132c0.494,1.034,0.365,2.095,0.365,2.095
					C16.822,29.625,15.325,29.56,15.325,29.56z"/>
				<path fill="#FFFFFF" d="M20.826,19.87c0,0,0.626,3.405-1.587,3.521c-2.135,0.111-3.141-3.101-3.141-3.101
					s0.516,6.278,3.509,5.863C22.978,25.69,20.826,19.87,20.826,19.87z"/>
			</g>
		</g>
		<path fill="#FFFFFF" d="M4.572,28.75c0.001,0,0.004,0,0.004,0c2.495-0.569,4.406-3.482,4.968-4.651L9.9,23.357l0.215,0.793
			c0.011,0.043,0.243,0.917,0.243,2.073c0,0.126-0.004,0.258-0.011,0.391c0.861,0.032,1.476-0.142,1.858-0.54
			c0.548-0.567,0.713-1.641,0.508-3.283c-0.1-0.786-0.39-2.037-0.647-3.139c-0.132-0.565-0.256-1.098-0.331-1.476
			c-0.481-2.413,0.116-3.91,0.702-4.742c0.093-0.131,0.193-0.253,0.299-0.372c-1.728,0.582-3.176,1.484-4.669,2.978l1.051,1.22
			l0.43-0.404c0.406,1.515,0.114,2.909,0.114,2.909c-0.553-0.842-1.205-1.525-1.205-1.525l0.285-0.479l-0.947-1.1l-0.109-0.125
			c-1.165,1.601-1.541,2.909-1.541,2.909l0.825,0.756l0.481,0.436l0.161-0.464c0.889,1.663,0.077,3.218,0.077,3.218
			c-0.146-0.567-0.73-1.405-0.73-1.405l0.23-0.763L5.96,20.113c-1.278,3.996-2.986,5.29-2.986,5.29s1.848-0.333,2.877-0.679
			C5.851,24.724,5.822,26.829,4.572,28.75z"/>
		<path fill="#FFFFFF" d="M23.228,14.336l-2.952,0.125c0.002,0.348-0.045,0.7-0.157,1.033c0.275,1.206,0.084,1.861,0.084,1.861
			c-0.494-1.149-0.87-1.47-0.87-1.47c-2.711-1.205-4.234,1.519-4.071,3.276c0.133,1.446,0.657,3.362,1.065,6.368
			c0.344,2.531-0.937,3.625-2.41,3.875c-0.032,0.005-0.064,0.011-0.097,0.017c-0.009,0-0.016,0-0.023,0.003
			c-0.239,0.03-0.492,0.043-0.762,0.036c-0.008-0.002-0.019-0.002-0.027-0.002c-0.03,0-0.058-0.004-0.088-0.004
			c-0.114-0.007-0.228-0.018-0.34-0.033c-1.146-0.158-3.714-0.625-6.365-0.689c1.56-0.91,2.78-2.487,3.46-3.604
			c0.04,0.309,0.072,0.688,0.072,1.104c0,0.207-0.007,0.426-0.028,0.647l-0.025,0.305l0.305,0.025
			c1.221,0.107,2.086-0.126,2.65-0.708c0.692-0.722,0.905-1.923,0.671-3.785c-0.101-0.816-0.397-2.084-0.657-3.201
			c-0.129-0.559-0.251-1.089-0.326-1.455c-0.438-2.202,0.086-3.539,0.603-4.271c0.404-0.574,0.963-0.995,1.574-1.197
			c0.012-0.002,0.022-0.004,0.033-0.006l1.008-3.094h0.316l-0.677,2.973c0.156-0.026,0.315-0.051,0.477-0.077l0.87-2.742h0.313
			l-0.569,2.656c0.9-0.116,1.878-0.207,2.961-0.286c0.176,0.071,0.364,0.272,0.531,0.556l2.842-0.875l0.105,0.308l-2.716,1.053
			c0.021,0.056,0.042,0.114,0.06,0.174l2.97-0.37l0.049,0.318l-2.881,0.576c0.011,0.054,0.02,0.107,0.028,0.161l2.997,0.097
			L23.228,14.336z M14.674,15.664c0.596-0.417,1.608-0.739,2.56-0.666c0.24,0.019,0.444-0.045,0.185-0.183
			c-0.711-0.374-2.368-0.247-2.954,0.152c-0.939,0.64-0.78,1.781-0.759,1.809C13.893,16.45,14.21,15.988,14.674,15.664z"/>
	</g>
</g>
<g>
	<line fill="#5E6A71" x1="35.928" y1="0" x2="35.928" y2="75.31"/>
	<rect x="35.553" fill="#5E6A71" width="0.75" height="75.31"/>
</g>
</svg>
