<?xml version="1.0" encoding="utf-8"?>
<!-- Generator: Adobe Illustrator 16.0.0, SVG Export Plug-In . SVG Version: 6.00 Build 0)  -->
<!DOCTYPE svg PUBLIC "-//W3C//DTD SVG 1.1//EN" "http://www.w3.org/Graphics/SVG/1.1/DTD/svg11.dtd">
<svg version="1.1" id="Layer_1" xmlns="http://www.w3.org/2000/svg" xmlns:xlink="http://www.w3.org/1999/xlink" x="0px" y="0px"
	 width="221.532px" height="63.627px" viewBox="0 0 221.532 63.627" enable-background="new 0 0 221.532 63.627"
	 xml:space="preserve">
<g>
	<path fill="#5E6A71" d="M56.615,30.646L50.916,15.42l2.179-0.396c1.496,4.203,2.971,8.427,4.444,13.157h0.044
		c1.54-4.73,3.125-8.955,4.687-13.157l1.915,0.264l-6.14,15.358H56.615z"/>
	<path fill="#5E6A71" d="M65.437,16.014c0-0.55,0.462-1.166,1.254-1.166s1.255,0.616,1.255,1.166c0,0.594-0.286,1.342-1.255,1.342
		C65.723,17.356,65.437,16.608,65.437,16.014z M67.681,19.645v11.001H65.7V19.645H67.681z"/>
	<path fill="#5E6A71" d="M73.378,19.645h2.883v1.144h-2.883v6.227c0,1.541,0.309,2.465,1.519,2.465c0.726,0,1.145-0.176,1.519-0.374
		l0.483,1.1c-0.682,0.44-1.496,0.704-2.244,0.704c-2.2,0-3.257-1.275-3.257-3.521v-6.601h-1.54v-1.144h1.54v-2.641l1.98-0.66V19.645
		z"/>
	<path fill="#5E6A71" d="M78.262,16.014c0-0.55,0.462-1.166,1.254-1.166s1.254,0.616,1.254,1.166c0,0.594-0.285,1.342-1.254,1.342
		C78.548,17.356,78.262,16.608,78.262,16.014z M80.506,19.645v11.001h-1.98V19.645H80.506z"/>
	<path fill="#5E6A71" d="M92.21,29.767c-1.078,0.77-2.376,1.144-3.322,1.144c-5.215,0-5.875-4.269-5.875-5.787
		c0-2.75,1.826-5.743,5.963-5.743c1.122,0,2.135,0.286,2.948,0.902l-0.66,1.122c-0.638-0.308-1.452-0.572-2.266-0.572
		c-1.805,0-3.851,1.188-3.851,4.181c0,2.288,1.166,4.444,3.828,4.444c0.946,0,1.826-0.242,2.685-0.792L92.21,29.767z"/>
	<path fill="#5E6A71" d="M101.692,29.37c-1.122,0.969-2.112,1.54-3.543,1.54c-2.53,0-3.895-1.408-3.895-4.181v-7.084h1.98v6.645
		c0,2.068,0.88,3.168,2.662,3.168c1.519,0,2.772-1.254,2.772-3.388v-6.425h1.98v11.001h-1.958V29.37z"/>
	<path fill="#5E6A71" d="M106.904,30.646V14.474h1.98v16.172H106.904z"/>
	<path fill="#5E6A71" d="M114.582,19.645h2.883v1.144h-2.883v6.227c0,1.541,0.309,2.465,1.519,2.465
		c0.726,0,1.145-0.176,1.519-0.374l0.483,1.1c-0.682,0.44-1.496,0.704-2.244,0.704c-2.2,0-3.257-1.275-3.257-3.521v-6.601h-1.54
		v-1.144h1.54v-2.641l1.98-0.66V19.645z"/>
	<path fill="#5E6A71" d="M127.079,29.37c-1.122,0.969-2.112,1.54-3.543,1.54c-2.53,0-3.895-1.408-3.895-4.181v-7.084h1.98v6.645
		c0,2.068,0.88,3.168,2.662,3.168c1.519,0,2.772-1.254,2.772-3.388v-6.425h1.98v11.001h-1.958V29.37z"/>
	<path fill="#5E6A71" d="M133.787,21.009l0.792-0.836c0.462-0.462,1.188-0.792,1.65-0.792c0.484,0,1.21,0.352,1.826,1.078
		l-0.902,1.276c-0.483-0.242-0.968-0.462-1.474-0.462c-1.013,0-1.849,1.012-1.849,3.455v5.919h-1.98V19.645h1.937V21.009z"/>
	<path fill="#5E6A71" d="M140.586,25.278c-0.022,2.201,1.54,4.224,3.718,4.224c1.013,0,2.245-0.374,3.015-0.945l0.572,1.078
		c-1.145,0.813-2.509,1.275-3.652,1.275c-3.433,0-5.699-2.112-5.699-5.984c0-3.807,2.729-5.545,5.215-5.545
		c3.345,0,4.467,3.015,4.247,5.897H140.586z M146.196,23.958c0-1.716-0.726-3.168-2.464-3.168c-2.112,0-2.949,1.76-3.015,3.168
		H146.196z"/>
	<path fill="#5E6A71" d="M167.184,25.981c0.639-1.298,0.22-3.564-0.638-4.796h-2.156l0.66-1.364h6.601l-0.682,1.364h-2.597
		c0.792,1.276,1.056,3.763,0,5.853l3.366,2.882l-1.958,0.99l-2.509-2.31c-1.188,1.342-2.926,2.31-5.061,2.31
		c-4.797,0-5.479-3.652-5.479-4.599c0-2.024,1.474-3.608,3.3-4.444c-0.857-0.814-2.002-1.87-2.002-3.455
		c0-1.804,1.65-3.432,4.114-3.432c1.167,0,2.179,0.352,3.146,1.056l-0.77,1.232c-0.374-0.242-1.232-0.748-2.179-0.748
		c-1.43,0-2.156,0.814-2.156,1.782c0,0.88,0.55,1.694,2.068,3.081L167.184,25.981z M161.001,22.923
		c-1.387,0.77-1.98,1.915-1.98,3.191c0,1.408,1.101,3.344,3.433,3.344c1.694,0,3.103-0.968,3.74-1.87L161.001,22.923z"/>
	<path fill="#5E6A71" d="M60.466,39.784h-5.457v4.973h5.347v1.541h-5.347v5.809h6.403v1.54h-8.537V38.244h7.591V39.784z"/>
	<path fill="#5E6A71" d="M65.547,44.009c1.034-1.1,2.618-1.628,3.762-1.628c2.531,0,3.895,1.408,3.895,4.181v7.085h-1.979v-6.667
		c0-2.068-0.881-3.146-2.663-3.146c-1.562,0-2.992,1.078-2.992,3.19v6.623h-1.98V42.645h1.959V44.009z"/>
	<path fill="#5E6A71" d="M75.49,48.014c0-3.564,2.641-5.633,5.413-5.633s5.435,2.068,5.435,5.633c0,3.41-2.178,5.896-5.435,5.896
		C77.669,53.91,75.49,51.424,75.49,48.014z M77.625,48.014c0,2.068,0.704,4.488,3.278,4.488c2.597,0,3.301-2.42,3.301-4.488
		c0-1.98-0.814-4.225-3.301-4.225C78.438,43.789,77.625,46.033,77.625,48.014z"/>
	<path fill="#5E6A71" d="M88.623,53.646V37.475h1.98v16.172H88.623z"/>
	<path fill="#5E6A71" d="M92.891,48.014c0-3.564,2.641-5.633,5.413-5.633s5.435,2.068,5.435,5.633c0,3.41-2.178,5.896-5.435,5.896
		C95.069,53.91,92.891,51.424,92.891,48.014z M95.025,48.014c0,2.068,0.704,4.488,3.278,4.488c2.597,0,3.301-2.42,3.301-4.488
		c0-1.98-0.814-4.225-3.301-4.225C95.839,43.789,95.025,46.033,95.025,48.014z"/>
	<path fill="#5E6A71" d="M116.125,53.25c0,4.203-2.618,5.897-5.589,5.897c-1.628,0-3.257-0.309-4.533-1.101l0.551-1.298
		c1.342,0.771,2.574,0.99,3.938,0.99c2.267,0,3.652-1.452,3.652-4.335v-1.496h-0.044c-0.771,1.078-1.937,2.002-3.675,2.002
		c-3.036,0-4.929-2.376-4.929-5.896c0-2.86,2.112-5.633,5.259-5.633c1.32,0,2.729,0.66,3.345,1.782h0.044v-1.519h1.98V53.25z
		 M114.145,47.794c0-2.068-1.122-4.005-3.278-4.005c-2.288,0-3.234,1.805-3.234,4.137c0,2.354,1.012,4.576,3.103,4.576
		C113.133,52.502,114.145,50.236,114.145,47.794z"/>
	<path fill="#5E6A71" d="M119.886,42.425c1.122,2.795,2.266,5.611,3.366,8.934h0.044c1.145-3.322,2.288-6.139,3.454-8.934
		l1.738,0.418l-5.654,12.74c-1.034,2.332-2.398,3.564-4.291,3.564h-0.99v-1.408h0.771c1.364,0,2.332-0.353,3.895-4.709
		l-4.312-10.056L119.886,42.425z"/>
	<path fill="#5E6A71" d="M138.893,53.646h-2.134V38.244h3.872c3.257,0,5.259,1.452,5.259,4.444c0,2.597-2.223,4.951-5.677,4.951
		h-0.682v-1.408l0.704-0.022c2.067-0.109,3.366-1.21,3.366-3.498c0-1.694-0.946-2.927-3.234-2.927h-1.475V53.646z"/>
	<path fill="#5E6A71" d="M149.738,44.009l0.792-0.836c0.462-0.462,1.188-0.792,1.65-0.792c0.484,0,1.21,0.352,1.826,1.078
		l-0.902,1.276c-0.483-0.242-0.968-0.462-1.474-0.462c-1.013,0-1.849,1.012-1.849,3.454v5.919h-1.98V42.645h1.937V44.009z"/>
	<path fill="#5E6A71" d="M154.49,48.014c0-3.564,2.641-5.633,5.413-5.633s5.435,2.068,5.435,5.633c0,3.41-2.178,5.896-5.435,5.896
		C156.669,53.91,154.49,51.424,154.49,48.014z M156.625,48.014c0,2.068,0.704,4.488,3.278,4.488c2.597,0,3.301-2.42,3.301-4.488
		c0-1.98-0.814-4.225-3.301-4.225C157.438,43.789,156.625,46.033,156.625,48.014z"/>
	<path fill="#5E6A71" d="M177.725,53.25c0,4.203-2.618,5.897-5.589,5.897c-1.628,0-3.257-0.309-4.533-1.101l0.551-1.298
		c1.342,0.771,2.574,0.99,3.938,0.99c2.267,0,3.652-1.452,3.652-4.335v-1.496H175.7c-0.771,1.078-1.937,2.002-3.675,2.002
		c-3.036,0-4.929-2.376-4.929-5.896c0-2.86,2.112-5.633,5.259-5.633c1.32,0,2.729,0.66,3.345,1.782h0.044v-1.519h1.98V53.25z
		 M175.744,47.794c0-2.068-1.122-4.005-3.278-4.005c-2.288,0-3.234,1.805-3.234,4.137c0,2.354,1.012,4.576,3.103,4.576
		C174.732,52.502,175.744,50.236,175.744,47.794z"/>
	<path fill="#5E6A71" d="M182.431,44.009l0.792-0.836c0.462-0.462,1.188-0.792,1.65-0.792c0.484,0,1.21,0.352,1.826,1.078
		l-0.902,1.276c-0.483-0.242-0.968-0.462-1.474-0.462c-1.013,0-1.849,1.012-1.849,3.454v5.919h-1.98V42.645h1.937V44.009z"/>
	<path fill="#5E6A71" d="M193.277,52.458c-0.77,0.771-1.738,1.452-2.75,1.452c-1.849,0-3.125-1.32-3.125-3.388
		c0-1.915,1.629-3.125,3.917-3.807l2.662-0.837c-0.088-1.342-1.122-2.2-2.2-2.2c-1.276,0-2.09,0.528-2.883,1.188l-0.77-0.99
		c1.1-1.056,2.222-1.496,3.763-1.496c1.649,0,4.07,0.528,4.07,3.74v4.841c0,0.836,0.11,1.893,0.484,2.685h-2.156
		c-0.265-0.462-0.309-1.166-0.309-1.87L193.277,52.458z M192.089,47.75c-1.738,0.527-2.64,1.364-2.64,2.75
		c0,1.145,0.792,1.87,1.584,1.87c1.408,0,3.212-1.738,2.948-5.171L192.089,47.75z"/>
	<path fill="#5E6A71" d="M201.109,44.009c0.901-1.056,2.222-1.628,3.432-1.628c1.738,0,2.816,0.727,3.499,1.628
		c1.056-0.968,2.553-1.628,3.784-1.628c2.442,0,3.675,1.584,3.741,3.917v7.349h-1.98V47.09c0-1.585-0.396-3.169-2.421-3.169
		c-1.672,0-2.816,0.88-2.816,3.103v6.623h-1.979V47.09c0-2.068-0.881-3.169-2.486-3.169c-1.673,0-2.751,1.078-2.751,3.19v6.535
		h-1.98V42.645h1.959V44.009z"/>
</g>
<g>
	<g>
		<g>
			<g>
				<path fill="#5E6A71" d="M24.095,42.135l-4.616,3.289l-4.619-3.289c-3.283-2.244-6.098-4.17-7.571-7.094
					c1.216,5.48,6.575,7.531,12.19,11.924c5.613-4.393,10.972-6.443,12.188-11.924C30.192,37.965,27.379,39.891,24.095,42.135z"/>
				<g>
					<path fill="#981E32" d="M6.649,15.342v0.574c0.357,0.125,0.475,0.236,0.512,0.758v13.243c0,7.365,5.995,9.313,12.319,14.26
						c6.325-4.947,12.321-6.896,12.321-14.26V16.524c0.047-0.399,0.175-0.499,0.496-0.608v-0.574H6.649z"/>
				</g>
			</g>
		</g>
	</g>
	<g>
		<g>
			<g>
				<path fill="#FFFFFF" d="M21.975,36.902c0,0,1.024-0.437,1.586-2.132c0.494,1.034,0.365,2.095,0.365,2.095
					C23.472,36.967,21.975,36.902,21.975,36.902z"/>
				<path fill="#FFFFFF" d="M27.476,27.212c0,0,0.626,3.405-1.587,3.521c-2.135,0.111-3.141-3.101-3.141-3.101
					s0.516,6.278,3.509,5.863C29.627,33.033,27.476,27.212,27.476,27.212z"/>
			</g>
		</g>
		<path fill="#FFFFFF" d="M11.222,36.092c0.001,0,0.004,0,0.004,0c2.495-0.569,4.406-3.482,4.968-4.651l0.356-0.741l0.215,0.793
			c0.011,0.043,0.243,0.917,0.243,2.073c0,0.126-0.004,0.258-0.011,0.391c0.861,0.032,1.476-0.142,1.858-0.54
			c0.548-0.567,0.713-1.641,0.508-3.283c-0.1-0.786-0.39-2.037-0.647-3.139c-0.132-0.565-0.256-1.098-0.331-1.476
			c-0.481-2.413,0.116-3.91,0.702-4.742c0.093-0.131,0.193-0.253,0.299-0.372c-1.728,0.582-3.176,1.484-4.669,2.978l1.051,1.22
			l0.43-0.404c0.406,1.515,0.114,2.909,0.114,2.909c-0.553-0.842-1.205-1.525-1.205-1.525l0.285-0.479l-0.947-1.1l-0.109-0.125
			c-1.165,1.601-1.541,2.909-1.541,2.909l0.825,0.756l0.481,0.436l0.161-0.464c0.889,1.663,0.077,3.218,0.077,3.218
			c-0.146-0.567-0.73-1.405-0.73-1.405l0.23-0.763l-1.229-1.113c-1.278,3.996-2.986,5.29-2.986,5.29s1.848-0.333,2.877-0.679
			C12.5,32.066,12.472,34.171,11.222,36.092z"/>
		<path fill="#FFFFFF" d="M29.877,21.678l-2.952,0.125c0.002,0.348-0.045,0.7-0.157,1.033c0.275,1.206,0.084,1.861,0.084,1.861
			c-0.494-1.149-0.87-1.47-0.87-1.47c-2.711-1.205-4.234,1.519-4.071,3.276c0.133,1.446,0.657,3.362,1.065,6.368
			c0.344,2.531-0.937,3.625-2.41,3.875c-0.032,0.005-0.064,0.011-0.097,0.017c-0.009,0-0.016,0-0.023,0.003
			c-0.239,0.03-0.492,0.043-0.762,0.036c-0.008-0.002-0.019-0.002-0.027-0.002c-0.03,0-0.058-0.004-0.088-0.004
			c-0.114-0.007-0.228-0.018-0.34-0.033c-1.146-0.158-3.714-0.625-6.365-0.689c1.56-0.91,2.78-2.487,3.46-3.604
			c0.04,0.309,0.072,0.688,0.072,1.104c0,0.207-0.007,0.426-0.028,0.647l-0.025,0.305l0.305,0.025
			c1.221,0.107,2.086-0.126,2.65-0.708c0.692-0.722,0.905-1.923,0.671-3.785c-0.101-0.816-0.397-2.084-0.657-3.201
			c-0.129-0.559-0.251-1.089-0.326-1.455c-0.438-2.202,0.086-3.539,0.603-4.271c0.404-0.574,0.963-0.995,1.574-1.197
			c0.012-0.002,0.022-0.004,0.033-0.006l1.008-3.094h0.316l-0.677,2.973c0.156-0.026,0.315-0.051,0.477-0.077l0.87-2.742h0.313
			l-0.569,2.656c0.9-0.116,1.878-0.207,2.961-0.286c0.176,0.071,0.364,0.272,0.531,0.556l2.842-0.875l0.105,0.308L26.656,20.4
			c0.021,0.056,0.042,0.114,0.06,0.174l2.97-0.37l0.049,0.318l-2.881,0.576c0.011,0.054,0.02,0.107,0.028,0.161l2.997,0.097
			L29.877,21.678z M21.323,23.006c0.596-0.417,1.608-0.739,2.56-0.666c0.24,0.019,0.444-0.045,0.185-0.183
			c-0.711-0.374-2.368-0.247-2.954,0.152c-0.939,0.64-0.78,1.781-0.759,1.809C20.542,23.792,20.859,23.33,21.323,23.006z"/>
	</g>
</g>
<g>
	<line fill="#5E6A71" x1="42.577" y1="7.342" x2="42.577" y2="59.598"/>
	<rect x="42.202" y="7.342" fill="#5E6A71" width="0.75" height="52.255"/>
</g>
</svg>
