<?xml version="1.0" encoding="utf-8"?>
<!-- Generator: Adobe Illustrator 16.0.0, SVG Export Plug-In . SVG Version: 6.00 Build 0)  -->
<!DOCTYPE svg PUBLIC "-//W3C//DTD SVG 1.1//EN" "http://www.w3.org/Graphics/SVG/1.1/DTD/svg11.dtd">
<svg version="1.1" id="Layer_1" xmlns="http://www.w3.org/2000/svg" xmlns:xlink="http://www.w3.org/1999/xlink" x="0px" y="0px"
	 width="394.262px" height="39.676px" viewBox="0 0 394.262 39.676" enable-background="new 0 0 394.262 39.676"
	 xml:space="preserve">
<g>
	<g>
		<g>
			<g>
				<path fill="#5E6A71" d="M17.447,34.847l-4.619,3.289l-4.619-3.289c-3.282-2.246-6.097-4.171-7.57-7.095
					c1.216,5.479,6.576,7.53,12.189,11.924c5.614-4.394,10.973-6.445,12.19-11.924C23.543,30.676,20.73,32.601,17.447,34.847z"/>
				<g>
					<path fill="#981E32" d="M0,8.051v0.574C0.359,8.75,0.475,8.863,0.512,9.383v13.243c0,7.365,5.996,9.313,12.319,14.262
						c6.324-4.948,12.321-6.896,12.321-14.262V9.235c0.047-0.401,0.176-0.498,0.498-0.61V8.051H0z"/>
				</g>
			</g>
		</g>
	</g>
	<g>
		<g>
			<g>
				<path fill="#FFFFFF" d="M15.325,29.611c0,0,1.024-0.436,1.585-2.131c0.494,1.033,0.365,2.094,0.365,2.094
					C16.822,29.677,15.325,29.611,15.325,29.611z"/>
				<path fill="#FFFFFF" d="M20.827,19.921c0,0,0.625,3.405-1.588,3.521c-2.136,0.111-3.141-3.098-3.141-3.098
					s0.516,6.276,3.508,5.861C22.978,25.742,20.827,19.921,20.827,19.921z"/>
			</g>
		</g>
		<path fill="#FFFFFF" d="M4.572,28.8c0.002,0,0.004,0,0.004,0c2.494-0.568,4.406-3.48,4.968-4.65L9.9,23.408l0.215,0.795
			c0.011,0.043,0.242,0.918,0.242,2.072c0,0.126-0.002,0.258-0.011,0.393c0.862,0.032,1.477-0.142,1.858-0.539
			c0.548-0.569,0.714-1.644,0.51-3.285c-0.102-0.786-0.392-2.037-0.649-3.139c-0.131-0.563-0.253-1.098-0.33-1.474
			c-0.481-2.415,0.115-3.91,0.702-4.742c0.093-0.131,0.193-0.255,0.299-0.374c-1.728,0.582-3.174,1.487-4.669,2.978l1.053,1.22
			l0.428-0.401c0.406,1.512,0.114,2.909,0.114,2.909c-0.553-0.844-1.206-1.527-1.206-1.527l0.288-0.479l-0.949-1.1l-0.109-0.123
			C6.521,18.19,6.145,19.5,6.145,19.5l0.827,0.754l0.481,0.436l0.159-0.462c0.89,1.663,0.077,3.216,0.077,3.216
			c-0.146-0.567-0.73-1.405-0.73-1.405l0.232-0.76l-1.229-1.115c-1.28,3.996-2.988,5.292-2.988,5.292s1.848-0.333,2.879-0.681
			C5.853,24.775,5.822,26.88,4.572,28.8z"/>
		<path fill="#FFFFFF" d="M23.227,14.389l-2.951,0.125c0.002,0.348-0.043,0.701-0.157,1.031c0.275,1.206,0.086,1.861,0.086,1.861
			c-0.496-1.149-0.872-1.47-0.872-1.47c-2.712-1.205-4.234,1.521-4.071,3.278c0.133,1.444,0.657,3.36,1.065,6.366
			c0.344,2.53-0.935,3.624-2.41,3.878c-0.032,0.004-0.064,0.011-0.097,0.015c-0.009,0-0.016,0.003-0.024,0.003
			c-0.238,0.029-0.491,0.043-0.76,0.036c-0.009,0-0.02,0-0.028-0.003c-0.03,0-0.058-0.002-0.088-0.004
			c-0.114-0.006-0.228-0.018-0.34-0.032c-1.147-0.157-3.715-0.625-6.365-0.689c1.56-0.911,2.779-2.487,3.461-3.603
			c0.038,0.307,0.07,0.686,0.07,1.102c0,0.209-0.006,0.426-0.025,0.646l-0.028,0.306l0.306,0.028
			c1.22,0.104,2.088-0.127,2.651-0.712c0.691-0.72,0.906-1.923,0.672-3.783c-0.103-0.818-0.397-2.084-0.657-3.203
			c-0.131-0.559-0.254-1.087-0.326-1.455c-0.44-2.2,0.083-3.537,0.602-4.269c0.403-0.576,0.962-0.995,1.574-1.197
			c0.011-0.002,0.021-0.004,0.032-0.006l1.008-3.094h0.315l-0.677,2.974c0.157-0.028,0.316-0.054,0.478-0.078l0.87-2.741h0.313
			l-0.567,2.653c0.898-0.116,1.876-0.204,2.959-0.286c0.176,0.073,0.365,0.275,0.532,0.559l2.841-0.877l0.104,0.308l-2.713,1.055
			c0.02,0.056,0.041,0.114,0.06,0.172l2.97-0.37l0.049,0.32l-2.883,0.576c0.011,0.052,0.02,0.107,0.028,0.161l2.997,0.095
			L23.227,14.389z M14.674,15.717c0.596-0.419,1.609-0.739,2.559-0.668c0.241,0.019,0.445-0.043,0.186-0.183
			c-0.712-0.374-2.368-0.247-2.954,0.155c-0.939,0.64-0.78,1.779-0.757,1.809C13.892,16.501,14.21,16.042,14.674,15.717z"/>
	</g>
</g>
<g>
	<path fill="#5E6A71" d="M53.619,8.06c8.46,0,11.399,4.83,11.399,9.869c0,6.96-4.439,11.13-11.879,11.13h-6.24V8.06H53.619z
		 M49.809,26.959h3.24c5.909,0,8.76-2.94,8.76-9.09c0-4.68-2.61-7.71-8.13-7.71h-3.87V26.959z"/>
	<path fill="#5E6A71" d="M70.15,21.74c-0.03,3,2.1,5.76,5.069,5.76c1.38,0,3.06-0.511,4.11-1.29l0.779,1.47
		c-1.56,1.11-3.42,1.74-4.979,1.74c-4.68,0-7.77-2.88-7.77-8.16c0-5.189,3.72-7.56,7.109-7.56c4.56,0,6.09,4.109,5.79,8.04H70.15z
		 M77.799,19.939c0-2.34-0.99-4.319-3.36-4.319c-2.88,0-4.02,2.399-4.109,4.319H77.799z"/>
	<path fill="#5E6A71" d="M86.29,16.4h0.06c1.11-1.8,3.24-2.7,4.92-2.7c5.85,0,6.81,5.25,6.81,7.41c0,4.56-2.699,8.31-7.109,8.31
		c-1.89,0-3.51-0.9-4.62-2.34h-0.06v9.479h-2.7V14.06h2.7V16.4z M95.169,21.139c0-2.729-1.38-5.52-4.17-5.52
		c-3.061,0-4.71,2.37-4.71,6.239c0,2.881,1.32,5.641,4.68,5.641C94.209,27.5,95.169,23.87,95.169,21.139z"/>
	<path fill="#5E6A71" d="M107.888,27.439c-1.05,1.05-2.37,1.98-3.75,1.98c-2.521,0-4.26-1.801-4.26-4.62
		c0-2.61,2.22-4.26,5.34-5.189l3.63-1.141c-0.12-1.83-1.53-3-3-3c-1.74,0-2.85,0.721-3.93,1.62l-1.051-1.35
		c1.5-1.44,3.03-2.04,5.13-2.04c2.25,0,5.55,0.72,5.55,5.1v6.6c0,1.141,0.15,2.58,0.66,3.66h-2.939c-0.36-0.63-0.42-1.59-0.42-2.55
		L107.888,27.439z M106.268,21.019c-2.37,0.721-3.6,1.86-3.6,3.75c0,1.561,1.079,2.55,2.159,2.55c1.92,0,4.38-2.369,4.021-7.05
		L106.268,21.019z"/>
	<path fill="#5E6A71" d="M117.938,15.919l1.08-1.14c0.63-0.63,1.62-1.08,2.25-1.08c0.66,0,1.65,0.479,2.49,1.47l-1.23,1.74
		c-0.659-0.33-1.319-0.63-2.01-0.63c-1.38,0-2.52,1.38-2.52,4.71v8.069h-2.7V14.06h2.64V15.919z"/>
	<path fill="#5E6A71" d="M129.068,14.06h3.93v1.56h-3.93v8.489c0,2.101,0.42,3.36,2.07,3.36c0.989,0,1.56-0.24,2.069-0.51l0.66,1.5
		c-0.93,0.6-2.04,0.96-3.06,0.96c-3,0-4.44-1.74-4.44-4.8v-9h-2.1v-1.56h2.1v-3.601l2.7-0.899V14.06z"/>
	<path fill="#5E6A71" d="M138.757,15.919c1.23-1.439,3.03-2.22,4.68-2.22c2.37,0,3.84,0.99,4.771,2.22
		c1.439-1.319,3.479-2.22,5.159-2.22c3.33,0,5.01,2.16,5.1,5.34v10.02h-2.699V20.12c0-2.16-0.54-4.32-3.3-4.32
		c-2.28,0-3.84,1.2-3.84,4.23v9.029h-2.7V20.12c0-2.82-1.2-4.32-3.39-4.32c-2.28,0-3.75,1.471-3.75,4.351v8.909h-2.7V14.06h2.67
		V15.919z"/>
	<path fill="#5E6A71" d="M164.079,21.74c-0.03,3,2.1,5.76,5.069,5.76c1.38,0,3.06-0.511,4.11-1.29l0.779,1.47
		c-1.56,1.11-3.42,1.74-4.979,1.74c-4.68,0-7.77-2.88-7.77-8.16c0-5.189,3.72-7.56,7.109-7.56c4.56,0,6.09,4.109,5.79,8.04H164.079z
		 M171.728,19.939c0-2.34-0.99-4.319-3.36-4.319c-2.88,0-4.02,2.399-4.109,4.319H171.728z"/>
	<path fill="#5E6A71" d="M180.188,15.919c1.41-1.5,3.57-2.22,5.13-2.22c3.45,0,5.31,1.92,5.31,5.7v9.659h-2.699v-9.09
		c0-2.819-1.2-4.29-3.63-4.29c-2.13,0-4.08,1.471-4.08,4.351v9.029h-2.7V14.06h2.67V15.919z"/>
	<path fill="#5E6A71" d="M198.398,14.06h3.93v1.56h-3.93v8.489c0,2.101,0.42,3.36,2.07,3.36c0.989,0,1.56-0.24,2.069-0.51l0.66,1.5
		c-0.93,0.6-2.04,0.96-3.06,0.96c-3,0-4.44-1.74-4.44-4.8v-9h-2.1v-1.56h2.1v-3.601l2.7-0.899V14.06z"/>
	<path fill="#5E6A71" d="M213.007,21.379c0-4.859,3.6-7.68,7.38-7.68c3.779,0,7.409,2.82,7.409,7.68c0,4.649-2.97,8.04-7.409,8.04
		C215.977,29.419,213.007,26.029,213.007,21.379z M215.917,21.379c0,2.82,0.96,6.12,4.471,6.12c3.539,0,4.499-3.3,4.499-6.12
		c0-2.7-1.109-5.76-4.499-5.76C217.027,15.62,215.917,18.679,215.917,21.379z"/>
	<path fill="#5E6A71" d="M231.367,29.059V15.62h-2.4v-1.56h2.4v-1.83c0-4.021,2.699-5.22,4.38-5.22c0.779,0,1.71,0.149,2.369,0.63
		l-0.6,1.38c-0.45-0.12-0.87-0.21-1.47-0.21c-0.45,0-1.98,0.12-1.98,2.55v2.7h3.601v1.56h-3.601v13.439H231.367z"/>
	<path fill="#5E6A71" d="M251.916,29.059h-2.91V8.06h5.28c4.439,0,7.17,1.979,7.17,6.06c0,3.54-3.03,6.75-7.74,6.75h-0.93v-1.92
		l0.96-0.03c2.819-0.15,4.59-1.649,4.59-4.77c0-2.311-1.29-3.99-4.41-3.99h-2.01V29.059z"/>
	<path fill="#5E6A71" d="M271.264,16.459c-1.08-0.72-1.95-0.96-2.76-0.96c-0.96,0-2.189,0.45-2.189,1.71s1.38,1.89,3.09,3.18
		c1.92,1.47,3.18,2.7,3.18,4.8c0,2.521-2.49,4.23-5.25,4.23c-1.71,0-3.63-0.75-4.62-1.891l1.32-1.529c0.87,0.81,2.04,1.5,3.239,1.5
		c1.261,0,2.551-0.66,2.551-2.13c0-1.74-1.561-2.49-2.971-3.511c-1.71-1.229-3.209-2.249-3.209-4.289c0-2.37,2.34-3.87,4.979-3.87
		c1.47,0,2.91,0.6,3.689,1.38L271.264,16.459z"/>
	<path fill="#5E6A71" d="M276.634,13.759c1.53,3.811,3.09,7.65,4.59,12.18h0.061c1.56-4.529,3.119-8.369,4.709-12.18l2.37,0.57
		l-7.71,17.369c-1.409,3.18-3.27,4.86-5.85,4.86h-1.35v-1.92h1.05c1.86,0,3.18-0.48,5.31-6.42l-5.88-13.71L276.634,13.759z"/>
	<path fill="#5E6A71" d="M301.954,27.859c-1.47,1.05-3.239,1.561-4.529,1.561c-7.11,0-8.01-5.82-8.01-7.89
		c0-3.75,2.489-7.83,8.13-7.83c1.529,0,2.909,0.39,4.02,1.229l-0.9,1.53c-0.87-0.42-1.979-0.78-3.09-0.78
		c-2.46,0-5.25,1.62-5.25,5.7c0,3.12,1.591,6.06,5.221,6.06c1.289,0,2.489-0.33,3.659-1.08L301.954,27.859z"/>
	<path fill="#5E6A71" d="M307.534,15.919c1.41-1.5,3.57-2.22,5.13-2.22c3.45,0,5.31,1.92,5.31,5.7v9.659h-2.699v-9.09
		c0-2.819-1.2-4.29-3.63-4.29c-2.13,0-4.08,1.471-4.08,4.351v9.029h-2.7V7.01h2.67V15.919z"/>
	<path fill="#5E6A71" d="M321.394,21.379c0-4.859,3.6-7.68,7.38-7.68c3.779,0,7.409,2.82,7.409,7.68c0,4.649-2.97,8.04-7.409,8.04
		C324.364,29.419,321.394,26.029,321.394,21.379z M324.303,21.379c0,2.82,0.96,6.12,4.471,6.12c3.539,0,4.499-3.3,4.499-6.12
		c0-2.7-1.109-5.76-4.499-5.76C325.414,15.62,324.303,18.679,324.303,21.379z"/>
	<path fill="#5E6A71" d="M339.603,29.059V7.01h2.7v22.049H339.603z"/>
	<path fill="#5E6A71" d="M345.723,21.379c0-4.859,3.6-7.68,7.38-7.68c3.779,0,7.409,2.82,7.409,7.68c0,4.649-2.97,8.04-7.409,8.04
		C348.693,29.419,345.723,26.029,345.723,21.379z M348.632,21.379c0,2.82,0.96,6.12,4.471,6.12c3.539,0,4.499-3.3,4.499-6.12
		c0-2.7-1.109-5.76-4.499-5.76C349.743,15.62,348.632,18.679,348.632,21.379z"/>
	<path fill="#5E6A71" d="M377.403,28.519c0,5.729-3.57,8.04-7.62,8.04c-2.22,0-4.439-0.42-6.18-1.5l0.75-1.771
		c1.83,1.051,3.51,1.351,5.37,1.351c3.09,0,4.979-1.98,4.979-5.91v-2.04h-0.06c-1.05,1.47-2.64,2.73-5.01,2.73
		c-4.14,0-6.72-3.24-6.72-8.04c0-3.899,2.88-7.68,7.17-7.68c1.8,0,3.72,0.9,4.56,2.43h0.06V14.06h2.7V28.519z M374.703,21.08
		c0-2.82-1.529-5.46-4.47-5.46c-3.12,0-4.41,2.46-4.41,5.64c0,3.21,1.381,6.24,4.23,6.24C373.323,27.5,374.703,24.41,374.703,21.08z
		"/>
	<path fill="#5E6A71" d="M382.533,13.759c1.53,3.811,3.09,7.65,4.59,12.18h0.061c1.56-4.529,3.119-8.369,4.709-12.18l2.37,0.57
		l-7.71,17.369c-1.409,3.18-3.27,4.86-5.85,4.86h-1.35v-1.92h1.05c1.86,0,3.18-0.48,5.31-6.42l-5.88-13.71L382.533,13.759z"/>
</g>
<rect x="35.555" fill="#5E6A71" width="0.75" height="39.676"/>
<path fill="none" stroke="#5E6A71" stroke-width="0.75" stroke-miterlimit="10" d="M35.945,36.792"/>
</svg>
