<?xml version="1.0" encoding="utf-8"?>
<!-- Generator: Adobe Illustrator 16.0.0, SVG Export Plug-In . SVG Version: 6.00 Build 0)  -->
<!DOCTYPE svg PUBLIC "-//W3C//DTD SVG 1.1//EN" "http://www.w3.org/Graphics/SVG/1.1/DTD/svg11.dtd">
<svg version="1.1" id="Layer_1" xmlns="http://www.w3.org/2000/svg" xmlns:xlink="http://www.w3.org/1999/xlink" x="0px" y="0px"
	 width="101.421px" height="108.184px" viewBox="0 0 101.421 108.184" enable-background="new 0 0 101.421 108.184"
	 xml:space="preserve">
<g>
	<g>
		<g>
			<g>
				<g>
					<path fill="#5E6A71" d="M62.168,65.131l-11.23,7.996L39.71,65.131c-7.979-5.453-14.818-10.133-18.406-17.237
						c2.961,13.318,15.984,18.3,29.634,28.979c13.646-10.68,26.674-15.661,29.635-28.979C76.988,54.998,70.148,59.678,62.168,65.131
						z"/>
					<g>
						<path fill="#981E32" d="M19.755,0v1.396c0.869,0.3,1.152,0.575,1.248,1.843v32.194c0,17.906,14.57,22.637,29.94,34.669
							C66.318,58.07,80.898,53.34,80.898,35.434V2.881c0.113-0.979,0.426-1.215,1.207-1.484V0H19.755z"/>
					</g>
				</g>
			</g>
		</g>
		<g>
			<g>
				<g>
					<path fill="#FFFFFF" d="M57.01,52.409c0,0,2.492-1.062,3.855-5.179c1.201,2.51,0.883,5.094,0.883,5.094
						C60.648,52.57,57.01,52.409,57.01,52.409z"/>
					<path fill="#FFFFFF" d="M70.387,28.86c0,0,1.518,8.272-3.859,8.556c-5.188,0.271-7.639-7.536-7.639-7.536
						s1.254,15.261,8.529,14.255C75.613,43.002,70.387,28.86,70.387,28.86z"/>
				</g>
			</g>
			<path fill="#FFFFFF" d="M30.87,50.443c0,0,0.006,0,0.012,0c6.066-1.381,10.709-8.465,12.074-11.309l0.866-1.801l0.523,1.93
				c0.025,0.107,0.592,2.228,0.592,5.035c0,0.309-0.01,0.631-0.023,0.951c2.092,0.077,3.584-0.344,4.514-1.305
				c1.332-1.387,1.734-3.994,1.232-7.986c-0.242-1.91-0.947-4.953-1.57-7.633c-0.322-1.37-0.621-2.666-0.805-3.582
				c-1.17-5.867,0.281-9.507,1.703-11.525c0.227-0.318,0.469-0.621,0.727-0.909c-4.191,1.413-7.714,3.61-11.349,7.237l2.553,2.967
				l1.045-0.975c0.985,3.677,0.277,7.068,0.277,7.068C41.899,26.561,40.31,24.9,40.31,24.9l0.699-1.17l-2.303-2.674l-0.27-0.298
				c-2.828,3.891-3.746,7.075-3.746,7.075l2.01,1.83l1.17,1.062l0.391-1.127c2.16,4.039,0.191,7.82,0.191,7.82
				c-0.363-1.38-1.779-3.412-1.779-3.412l0.561-1.854l-2.984-2.709c-3.111,9.712-7.271,12.863-7.271,12.863s4.5-0.811,7.002-1.648
				C33.979,40.66,33.909,45.777,30.87,50.443z"/>
			<path fill="#FFFFFF" d="M76.219,15.404l-7.176,0.303c0.008,0.85-0.109,1.701-0.387,2.511c0.674,2.931,0.215,4.522,0.215,4.522
				c-1.205-2.796-2.125-3.568-2.125-3.568c-6.586-2.934-10.289,3.693-9.893,7.964c0.322,3.511,1.594,8.172,2.59,15.479
				c0.84,6.151-2.277,8.809-5.863,9.42c-0.076,0.012-0.154,0.027-0.23,0.041c-0.018,0-0.037,0.006-0.057,0.006
				c-0.576,0.076-1.199,0.104-1.854,0.082c-0.023,0-0.043,0-0.064,0c-0.072,0-0.145-0.006-0.213-0.006
				c-0.279-0.02-0.557-0.045-0.83-0.082c-2.787-0.384-9.028-1.519-15.474-1.674c3.793-2.216,6.76-6.045,8.412-8.766
				c0.096,0.754,0.178,1.674,0.178,2.683c0,0.505-0.021,1.032-0.072,1.577l-0.061,0.738l0.743,0.066
				c2.967,0.257,5.074-0.309,6.438-1.729c1.688-1.752,2.207-4.676,1.639-9.199c-0.25-1.99-0.967-5.066-1.594-7.785
				c-0.322-1.361-0.623-2.645-0.799-3.539c-1.064-5.347,0.205-8.593,1.459-10.374c0.992-1.399,2.348-2.417,3.838-2.913
				c0.025,0,0.049-0.011,0.072-0.011l2.451-7.525h0.764l-1.641,7.231c0.385-0.072,0.768-0.133,1.166-0.19l2.109-6.666h0.764
				l-1.385,6.458c2.189-0.283,4.562-0.5,7.197-0.699c0.426,0.18,0.881,0.668,1.291,1.354l6.91-2.125l0.248,0.741l-6.598,2.569
				c0.055,0.134,0.1,0.277,0.152,0.418l7.217-0.898l0.119,0.779l-7.006,1.396c0.025,0.134,0.047,0.262,0.062,0.392l7.295,0.234
				L76.219,15.404z M55.428,18.631c1.449-1.012,3.91-1.794,6.217-1.619c0.59,0.048,1.082-0.106,0.449-0.447
				c-1.727-0.908-5.754-0.6-7.178,0.377c-2.281,1.555-1.898,4.327-1.844,4.395C53.527,20.543,54.305,19.426,55.428,18.631z"/>
		</g>
	</g>
	<rect y="87.203" fill="#5E6A71" width="101.421" height="0.75"/>
	<g>
		<path fill="#5E6A71" d="M12.65,104.682h-1.358v-4.875H6.5v4.875H5.142v-9.806H6.5v3.95h4.791v-3.95h1.358V104.682z"/>
		<path fill="#5E6A71" d="M14.102,101.096c0-2.27,1.681-3.586,3.446-3.586c1.765,0,3.459,1.316,3.459,3.586
			c0,2.171-1.387,3.754-3.459,3.754C15.489,104.85,14.102,103.267,14.102,101.096z M15.46,101.096c0,1.316,0.448,2.857,2.087,2.857
			c1.653,0,2.101-1.541,2.101-2.857c0-1.261-0.519-2.689-2.101-2.689C15.979,98.406,15.46,99.835,15.46,101.096z"/>
		<path fill="#5E6A71" d="M23.566,98.546c0.658-0.7,1.667-1.036,2.396-1.036c1.611,0,2.479,0.896,2.479,2.661v4.511H27.18v-4.244
			c0-1.316-0.56-2.003-1.695-2.003c-0.995,0-1.905,0.687-1.905,2.031v4.216H22.32v-7.004h1.247V98.546z"/>
		<path fill="#5E6A71" d="M29.754,101.096c0-2.27,1.681-3.586,3.446-3.586c1.765,0,3.459,1.316,3.459,3.586
			c0,2.171-1.387,3.754-3.459,3.754C31.141,104.85,29.754,103.267,29.754,101.096z M31.112,101.096c0,1.316,0.448,2.857,2.087,2.857
			c1.653,0,2.101-1.541,2.101-2.857c0-1.261-0.519-2.689-2.101-2.689C31.631,98.406,31.112,99.835,31.112,101.096z"/>
		<path fill="#5E6A71" d="M39.204,98.546l0.504-0.532c0.294-0.294,0.756-0.504,1.051-0.504c0.308,0,0.77,0.224,1.163,0.687
			l-0.574,0.812c-0.309-0.154-0.617-0.294-0.938-0.294c-0.645,0-1.177,0.644-1.177,2.199v3.768h-1.261v-7.004h1.232V98.546z"/>
		<path fill="#5E6A71" d="M46.274,98.799c-0.504-0.337-0.91-0.448-1.288-0.448c-0.448,0-1.023,0.21-1.023,0.798
			c0,0.589,0.645,0.883,1.443,1.485c0.896,0.686,1.484,1.261,1.484,2.241c0,1.177-1.162,1.975-2.451,1.975
			c-0.798,0-1.694-0.35-2.157-0.883l0.616-0.714c0.406,0.378,0.953,0.7,1.514,0.7c0.588,0,1.19-0.308,1.19-0.994
			c0-0.812-0.729-1.163-1.387-1.64c-0.799-0.574-1.499-1.05-1.499-2.003c0-1.106,1.093-1.807,2.325-1.807
			c0.687,0,1.358,0.28,1.723,0.645L46.274,98.799z"/>
		<path fill="#5E6A71" d="M59.997,96.543c-0.463-0.378-1.513-0.854-2.563-0.854c-2.424,0-3.853,1.737-3.853,4.034
			c0,2.479,1.709,4.146,3.853,4.146c1.064,0,1.905-0.336,2.479-0.729l0.532,0.812c-0.658,0.448-1.821,0.896-3.082,0.896
			c-3.502,0-5.281-2.396-5.281-5.099c0-2.465,1.934-5.043,5.449-5.043c1.401,0,2.382,0.49,3.025,0.995L59.997,96.543z"/>
		<path fill="#5E6A71" d="M61.197,101.096c0-2.27,1.681-3.586,3.445-3.586c1.766,0,3.46,1.316,3.46,3.586
			c0,2.171-1.387,3.754-3.46,3.754C62.584,104.85,61.197,103.267,61.197,101.096z M62.556,101.096c0,1.316,0.448,2.857,2.087,2.857
			c1.653,0,2.102-1.541,2.102-2.857c0-1.261-0.519-2.689-2.102-2.689C63.074,98.406,62.556,99.835,62.556,101.096z"/>
		<path fill="#5E6A71" d="M69.555,104.682V94.386h1.261v10.296H69.555z"/>
		<path fill="#5E6A71" d="M72.746,104.682V94.386h1.261v10.296H72.746z"/>
		<path fill="#5E6A71" d="M76.766,101.264c-0.015,1.401,0.98,2.689,2.367,2.689c0.645,0,1.429-0.238,1.919-0.603l0.364,0.687
			c-0.729,0.519-1.597,0.812-2.325,0.812c-2.186,0-3.628-1.345-3.628-3.81c0-2.424,1.736-3.53,3.319-3.53
			c2.129,0,2.844,1.919,2.704,3.754H76.766z M80.337,100.423c0-1.092-0.462-2.017-1.568-2.017c-1.345,0-1.877,1.12-1.919,2.017
			H80.337z"/>
		<path fill="#5E6A71" d="M89.326,104.43c0,2.675-1.667,3.754-3.559,3.754c-1.036,0-2.072-0.196-2.885-0.7l0.35-0.827
			c0.854,0.491,1.639,0.631,2.508,0.631c1.442,0,2.325-0.925,2.325-2.76v-0.952h-0.028c-0.49,0.687-1.232,1.274-2.339,1.274
			c-1.934,0-3.138-1.513-3.138-3.754c0-1.821,1.345-3.586,3.348-3.586c0.841,0,1.737,0.42,2.129,1.135h0.028v-0.967h1.261V104.43z
			 M88.065,100.956c0-1.317-0.715-2.55-2.087-2.55c-1.457,0-2.06,1.148-2.06,2.634c0,1.498,0.645,2.913,1.976,2.913
			C87.421,103.953,88.065,102.511,88.065,100.956z"/>
		<path fill="#5E6A71" d="M92.193,101.264c-0.015,1.401,0.98,2.689,2.367,2.689c0.645,0,1.429-0.238,1.919-0.603l0.364,0.687
			c-0.729,0.519-1.597,0.812-2.325,0.812c-2.186,0-3.628-1.345-3.628-3.81c0-2.424,1.736-3.53,3.319-3.53
			c2.129,0,2.844,1.919,2.704,3.754H92.193z M95.765,100.423c0-1.092-0.462-2.017-1.568-2.017c-1.345,0-1.877,1.12-1.919,2.017
			H95.765z"/>
	</g>
</g>
</svg>
