<?xml version="1.0" encoding="utf-8"?>
<!-- Generator: Adobe Illustrator 16.0.0, SVG Export Plug-In . SVG Version: 6.00 Build 0)  -->
<!DOCTYPE svg PUBLIC "-//W3C//DTD SVG 1.1//EN" "http://www.w3.org/Graphics/SVG/1.1/DTD/svg11.dtd">
<svg version="1.1" id="Layer_1" xmlns="http://www.w3.org/2000/svg" xmlns:xlink="http://www.w3.org/1999/xlink" x="0px" y="0px"
	 width="174.849px" height="39.667px" viewBox="0 0 174.849 39.667" enable-background="new 0 0 174.849 39.667"
	 xml:space="preserve">
<g>
	<path fill="#5E6A71" d="M17.447,34.837l-4.619,3.29l-4.619-3.29c-3.282-2.245-6.097-4.17-7.57-7.094
		c1.216,5.479,6.576,7.53,12.189,11.924c5.614-4.394,10.973-6.445,12.19-11.924C23.543,30.667,20.73,32.592,17.447,34.837z"/>
	<path fill="#981E32" d="M0,8.042v0.573C0.359,8.74,0.475,8.854,0.512,9.374v13.243c0,7.364,5.996,9.313,12.319,14.261
		c6.324-4.947,12.321-6.896,12.321-14.261V9.226c0.047-0.401,0.176-0.498,0.498-0.61V8.042H0z"/>
	<g>
		<g>
			<g>
				<path fill="#FFFFFF" d="M15.325,29.602c0,0,1.024-0.437,1.585-2.131c0.494,1.033,0.365,2.095,0.365,2.095
					C16.822,29.668,15.325,29.602,15.325,29.602z"/>
				<path fill="#FFFFFF" d="M20.827,19.912c0,0,0.625,3.405-1.588,3.521c-2.136,0.111-3.141-3.099-3.141-3.099
					s0.516,6.276,3.508,5.861C22.978,25.732,20.827,19.912,20.827,19.912z"/>
			</g>
		</g>
		<path fill="#FFFFFF" d="M4.572,28.792c0.002,0,0.004,0,0.004,0c2.494-0.569,4.406-3.48,4.968-4.651L9.9,23.399l0.215,0.795
			c0.011,0.043,0.242,0.917,0.242,2.07c0,0.127-0.002,0.258-0.011,0.394c0.862,0.032,1.477-0.142,1.858-0.539
			c0.548-0.569,0.714-1.644,0.51-3.285c-0.102-0.786-0.392-2.037-0.649-3.139c-0.131-0.563-0.253-1.098-0.33-1.474
			c-0.481-2.415,0.115-3.91,0.702-4.742c0.093-0.131,0.193-0.256,0.299-0.374c-1.728,0.583-3.174,1.487-4.669,2.979l1.053,1.22
			l0.428-0.401c0.406,1.513,0.114,2.909,0.114,2.909c-0.553-0.845-1.206-1.528-1.206-1.528l0.288-0.479l-0.949-1.101l-0.109-0.122
			c-1.165,1.599-1.541,2.909-1.541,2.909l0.827,0.754l0.481,0.437l0.159-0.462c0.89,1.662,0.077,3.216,0.077,3.216
			c-0.146-0.567-0.73-1.405-0.73-1.405l0.232-0.761l-1.229-1.114c-1.28,3.996-2.988,5.291-2.988,5.291s1.848-0.333,2.879-0.681
			C5.853,24.766,5.822,26.871,4.572,28.792z"/>
		<path fill="#FFFFFF" d="M23.227,14.38l-2.951,0.125c0.002,0.348-0.043,0.7-0.157,1.031c0.275,1.205,0.086,1.86,0.086,1.86
			c-0.496-1.149-0.872-1.47-0.872-1.47c-2.712-1.205-4.234,1.521-4.071,3.278c0.133,1.444,0.657,3.36,1.065,6.366
			c0.344,2.53-0.935,3.624-2.41,3.878c-0.032,0.004-0.064,0.011-0.097,0.015c-0.009,0-0.016,0.002-0.024,0.002
			c-0.238,0.03-0.491,0.043-0.76,0.037c-0.009,0-0.02,0-0.028-0.002c-0.03,0-0.058-0.003-0.088-0.005
			c-0.114-0.006-0.228-0.017-0.34-0.032c-1.147-0.156-3.715-0.625-6.365-0.689c1.56-0.911,2.779-2.488,3.461-3.603
			c0.038,0.307,0.07,0.685,0.07,1.102c0,0.209-0.006,0.426-0.025,0.646l-0.028,0.306l0.306,0.027
			c1.22,0.105,2.088-0.126,2.651-0.711c0.691-0.72,0.906-1.923,0.672-3.783c-0.103-0.818-0.397-2.084-0.657-3.203
			c-0.131-0.559-0.254-1.087-0.326-1.455c-0.44-2.199,0.083-3.536,0.602-4.269c0.403-0.576,0.962-0.995,1.574-1.196
			c0.011-0.003,0.021-0.005,0.032-0.007l1.008-3.094h0.315l-0.677,2.974c0.157-0.028,0.316-0.054,0.478-0.077l0.87-2.742h0.313
			l-0.567,2.653c0.898-0.115,1.876-0.204,2.959-0.285c0.176,0.073,0.365,0.274,0.532,0.559l2.841-0.877l0.104,0.308l-2.713,1.055
			c0.02,0.056,0.041,0.114,0.06,0.172l2.97-0.369l0.049,0.319L20.204,13.8c0.011,0.052,0.02,0.107,0.028,0.161l2.997,0.095
			L23.227,14.38z M14.674,15.708c0.596-0.419,1.609-0.739,2.559-0.669c0.241,0.02,0.445-0.043,0.186-0.183
			c-0.712-0.373-2.368-0.247-2.954,0.155c-0.939,0.64-0.78,1.778-0.757,1.809C13.892,16.492,14.21,16.032,14.674,15.708z"/>
	</g>
</g>
<g>
	<path fill="#5E6A71" d="M51.249,29.309V10.41h-6.72v-2.1h16.379v2.1h-6.75v18.898H51.249z"/>
	<path fill="#5E6A71" d="M63.578,8.311h6c3.42,0,6.09,1.77,6.09,5.398c0,3.09-1.5,4.83-3.51,6.121l5.22,8.939l-2.939,0.9
		l-4.86-9.061h-3.09v8.699h-2.91V8.311z M66.488,18.51h1.65c3.72,0,4.409-2.76,4.409-4.529c0-2.58-1.62-3.57-3.569-3.57h-2.49V18.51
		z"/>
	<path fill="#5E6A71" d="M80.258,29.309V8.311h2.91v20.998H80.258z"/>
	<path fill="#5E6A71" d="M86.948,23.398v-2.459h7.47v2.459H86.948z"/>
	<path fill="#5E6A71" d="M114.068,11.879c-0.99-0.809-3.24-1.828-5.49-1.828c-5.189,0-8.25,3.719-8.25,8.639
		c0,5.311,3.66,8.879,8.25,8.879c2.28,0,4.08-0.719,5.31-1.559l1.141,1.74c-1.41,0.959-3.9,1.92-6.601,1.92
		c-7.499,0-11.309-5.131-11.309-10.92c0-5.279,4.14-10.801,11.669-10.801c3,0,5.1,1.051,6.479,2.131L114.068,11.879z"/>
	<path fill="#5E6A71" d="M117.968,29.309V8.311h2.91v20.998H117.968z"/>
	<path fill="#5E6A71" d="M130.269,29.309V10.41h-6.72v-2.1h16.379v2.1h-6.75v18.898H130.269z"/>
	<path fill="#5E6A71" d="M142.598,29.309V8.311h2.91v20.998H142.598z"/>
	<path fill="#5E6A71" d="M159.997,10.41h-7.439v6.779h7.29v2.1h-7.29v7.92h8.729v2.1h-11.64V8.311h10.35V10.41z"/>
	<path fill="#5E6A71" d="M173.198,11.551c-1.02-0.75-2.37-1.5-3.63-1.5c-2.1,0-3.27,1.229-3.27,2.85c0,1.5,1.29,2.609,3.989,4.559
		c2.88,2.1,4.561,4.02,4.561,6.721c0,3.33-3.15,5.49-6.51,5.49c-2.01,0-4.41-0.721-5.91-2.191l1.29-1.74
		c1.229,0.871,2.58,1.83,4.56,1.83c2.07,0,3.66-1.109,3.66-3.449c0-2.641-3.15-4.35-4.86-5.609c-1.739-1.35-3.689-2.641-3.689-5.609
		c0-2.82,2.73-4.951,6-4.951c2.189,0,4.02,0.781,5.189,2.102L173.198,11.551z"/>
</g>
<rect x="35.555" fill="#5E6A71" width="0.75" height="39.667"/>
</svg>
