<?xml version="1.0" encoding="utf-8"?>
<!-- Generator: Adobe Illustrator 16.0.0, SVG Export Plug-In . SVG Version: 6.00 Build 0)  -->
<!DOCTYPE svg PUBLIC "-//W3C//DTD SVG 1.1//EN" "http://www.w3.org/Graphics/SVG/1.1/DTD/svg11.dtd">
<svg version="1.1" id="Layer_1" xmlns="http://www.w3.org/2000/svg" xmlns:xlink="http://www.w3.org/1999/xlink" x="0px" y="0px"
	 width="112.184px" height="109.512px" viewBox="0 0 112.184 109.512" enable-background="new 0 0 112.184 109.512"
	 xml:space="preserve">
<g>
	<g>
		<g>
			<g>
				<g>
					<path fill="#5E6A71" d="M67.299,65.131l-11.231,7.996l-11.226-7.996c-7.979-5.453-14.819-10.133-18.406-17.238
						c2.961,13.318,15.984,18.301,29.632,28.98c13.647-10.68,26.674-15.662,29.635-28.98C82.119,54.998,75.279,59.678,67.299,65.131
						z"/>
					<g>
						<path fill="#981E32" d="M24.886,0v1.396c0.869,0.299,1.153,0.574,1.249,1.842v32.195c0,17.906,14.569,22.637,29.939,34.668
							C71.449,58.07,86.029,53.34,86.029,35.434V2.881c0.113-0.98,0.426-1.215,1.207-1.484V0H24.886z"/>
					</g>
				</g>
			</g>
		</g>
		<g>
			<g>
				<g>
					<path fill="#FFFFFF" d="M62.141,52.408c0,0,2.492-1.061,3.855-5.178c1.201,2.51,0.883,5.094,0.883,5.094
						C65.779,52.57,62.141,52.408,62.141,52.408z"/>
					<path fill="#FFFFFF" d="M75.518,28.859c0,0,1.518,8.273-3.859,8.557c-5.188,0.271-7.639-7.537-7.639-7.537
						s1.254,15.262,8.529,14.256C80.744,43.002,75.518,28.859,75.518,28.859z"/>
				</g>
			</g>
			<path fill="#FFFFFF" d="M36.002,50.443c0,0,0.006,0,0.011,0c6.067-1.381,10.709-8.465,12.074-11.309l0.866-1.801l0.523,1.93
				c0.024,0.107,0.592,2.227,0.592,5.035c0,0.309-0.01,0.631-0.023,0.951c2.091,0.076,3.584-0.344,4.514-1.305
				c1.331-1.387,1.734-3.994,1.231-7.986c-0.241-1.91-0.947-4.953-1.57-7.633c-0.322-1.371-0.621-2.666-0.805-3.582
				c-1.17-5.867,0.281-9.508,1.704-11.525c0.227-0.318,0.469-0.621,0.726-0.91c-4.191,1.414-7.713,3.611-11.347,7.238l2.553,2.967
				l1.045-0.975c0.984,3.676,0.277,7.068,0.277,7.068c-1.343-2.047-2.932-3.707-2.932-3.707l0.699-1.17l-2.304-2.674l-0.269-0.299
				c-2.828,3.891-3.747,7.076-3.747,7.076l2.011,1.83l1.17,1.062l0.391-1.127c2.159,4.039,0.191,7.82,0.191,7.82
				c-0.363-1.381-1.779-3.412-1.779-3.412l0.561-1.854l-2.985-2.709c-3.11,9.711-7.271,12.863-7.271,12.863s4.5-0.811,7.002-1.648
				C39.112,40.66,39.042,45.777,36.002,50.443z"/>
			<path fill="#FFFFFF" d="M81.35,15.404l-7.176,0.303c0.008,0.85-0.109,1.701-0.387,2.51c0.674,2.932,0.215,4.523,0.215,4.523
				c-1.205-2.797-2.125-3.568-2.125-3.568c-6.586-2.934-10.289,3.693-9.893,7.963c0.322,3.512,1.594,8.172,2.59,15.48
				c0.84,6.15-2.277,8.809-5.863,9.42c-0.076,0.012-0.154,0.027-0.23,0.041c-0.018,0-0.037,0.006-0.057,0.006
				c-0.576,0.076-1.199,0.104-1.853,0.082c-0.023,0-0.044,0-0.064,0c-0.072,0-0.146-0.006-0.213-0.006
				c-0.28-0.02-0.558-0.045-0.831-0.082c-2.786-0.385-9.027-1.52-15.472-1.674c3.792-2.217,6.759-6.045,8.412-8.766
				c0.096,0.754,0.178,1.674,0.178,2.682c0,0.506-0.022,1.033-0.072,1.578l-0.062,0.738l0.743,0.066
				c2.967,0.256,5.074-0.309,6.437-1.729c1.688-1.752,2.208-4.676,1.639-9.199c-0.25-1.99-0.966-5.066-1.594-7.785
				c-0.322-1.361-0.623-2.645-0.798-3.539c-1.064-5.348,0.204-8.594,1.458-10.375c0.993-1.398,2.348-2.416,3.838-2.912
				c0.025,0,0.049-0.012,0.072-0.012l2.451-7.525h0.764l-1.641,7.232c0.385-0.072,0.768-0.133,1.166-0.191L65.092,4h0.764
				l-1.385,6.459c2.189-0.283,4.562-0.5,7.197-0.699c0.426,0.18,0.881,0.668,1.291,1.354l6.91-2.125l0.248,0.74l-6.598,2.57
				c0.055,0.133,0.1,0.277,0.152,0.418l7.217-0.898l0.119,0.779l-7.006,1.395c0.025,0.135,0.047,0.262,0.062,0.393l7.295,0.234
				L81.35,15.404z M60.559,18.631c1.449-1.012,3.91-1.795,6.217-1.619c0.59,0.047,1.082-0.107,0.449-0.447
				c-1.727-0.908-5.754-0.6-7.178,0.377c-2.281,1.555-1.898,4.326-1.844,4.395C58.658,20.543,59.436,19.426,60.559,18.631z"/>
		</g>
	</g>
	<rect y="87.203" fill="#5E6A71" width="112.184" height="0.75"/>
	<g>
		<path fill="#5E6A71" d="M9.743,109.512L5.08,97.051l1.782-0.324c1.225,3.439,2.431,6.896,3.637,10.768h0.036
			c1.26-3.871,2.557-7.328,3.835-10.768l1.566,0.217l-5.023,12.568H9.743z"/>
		<path fill="#5E6A71" d="M20.615,96.908l4.699,12.604h-2.016l-1.297-3.709h-4.808l-1.35,3.709h-1.693l5.132-12.604H20.615z
			 M21.588,104.541c-0.63-1.746-1.242-3.492-1.873-5.762H19.68c-0.648,2.27-1.314,4.016-1.999,5.762H21.588z"/>
		<path fill="#5E6A71" d="M37.79,109.512h-1.368c-2.737-3.277-7.437-8.932-8.192-10.029h-0.036v10.029h-1.44V96.908h1.296
			c2.773,3.275,7.418,8.785,8.265,10.047h0.036V96.908h1.44V109.512z"/>
		<path fill="#5E6A71" d="M50.154,99.051c-0.594-0.486-1.944-1.1-3.295-1.1c-3.115,0-4.951,2.232-4.951,5.186
			c0,3.188,2.196,5.33,4.951,5.33c1.368,0,2.449-0.432,3.188-0.936l0.684,1.043c-0.846,0.576-2.341,1.152-3.961,1.152
			c-4.501,0-6.788-3.078-6.788-6.553c0-3.17,2.484-6.482,7.004-6.482c1.801,0,3.062,0.631,3.89,1.279L50.154,99.051z"/>
		<path fill="#5E6A71" d="M51.844,102.994c0-3.529,2.665-6.303,6.302-6.303c3.638,0,6.302,2.773,6.302,6.303
			c0,3.762-2.412,6.732-6.302,6.732C54.257,109.727,51.844,106.756,51.844,102.994z M62.521,102.994c0-2.359-1.26-5.043-4.375-5.043
			s-4.375,2.684-4.375,5.043c0,2.467,1.116,5.473,4.375,5.473S62.521,105.461,62.521,102.994z"/>
		<path fill="#5E6A71" d="M67.937,96.908v7.633c0,2.611,0.972,3.98,3.223,3.98c2.358,0,3.151-1.873,3.151-3.674v-7.939h1.639v7.977
			c0,2.826-1.747,4.842-4.79,4.842c-3.547,0-4.97-1.871-4.97-5.113v-7.705H67.937z"/>
		<path fill="#5E6A71" d="M81.851,109.512l-4.663-12.461l1.782-0.324c1.225,3.439,2.431,6.896,3.638,10.768h0.035
			c1.261-3.871,2.557-7.328,3.836-10.768l1.566,0.217l-5.023,12.568H81.851z"/>
		<path fill="#5E6A71" d="M95.676,98.168H91.21v4.068h4.376v1.262H91.21v4.752h5.239v1.262h-6.985V96.908h6.212V98.168z"/>
		<path fill="#5E6A71" d="M98.41,96.908h3.601c2.053,0,3.655,1.062,3.655,3.24c0,1.855-0.9,2.898-2.106,3.674l3.133,5.365
			l-1.765,0.539l-2.917-5.438h-1.854v5.223H98.41V96.908z M100.156,103.029h0.99c2.232,0,2.647-1.656,2.647-2.719
			c0-1.549-0.973-2.143-2.144-2.143h-1.494V103.029z"/>
	</g>
</g>
</svg>
