<?xml version="1.0" encoding="utf-8"?>
<!-- Generator: Adobe Illustrator 16.0.0, SVG Export Plug-In . SVG Version: 6.00 Build 0)  -->
<!DOCTYPE svg PUBLIC "-//W3C//DTD SVG 1.1//EN" "http://www.w3.org/Graphics/SVG/1.1/DTD/svg11.dtd">
<svg version="1.1" xmlns="http://www.w3.org/2000/svg" xmlns:xlink="http://www.w3.org/1999/xlink" x="0px" y="0px"
	 width="300.385px" height="69.292px" viewBox="0 0 300.385 69.292" enable-background="new 0 0 300.385 69.292"
	 xml:space="preserve">
<g id="Layer_1">
	<g>
		
			<text transform="matrix(1 0 0 1 47.314 73.415)" display="none" fill="#5E6A71" font-family="'StoneSansStd-Medium'" font-size="7.7582">ZVANCOUVER</text>
		<g id="Good_WSU">
			<g>
				<g>
					<path fill="#5E6A71" d="M155.594,60.099c-0.793-0.595-1.346-0.926-1.346-1.479c0-0.586,0.41-0.824,0.869-0.824
						c0.633,0,0.934,0.443,0.996,0.998h0.207v-1.037c0-0.04-0.008-0.071-0.055-0.086c-0.318-0.111-0.768-0.15-1.107-0.15
						c-0.91,0-1.701,0.561-1.701,1.273c0,0.384,0.105,0.66,0.262,0.87h-0.004c0.004,0.005,0.01,0.008,0.012,0.01
						c0.191,0.256,0.455,0.419,0.688,0.574c1.186,0.784,1.455,1.203,1.463,1.716c0.023,1.142-2.117,1.743-3.523-0.45l-0.73-1.112
						c0.574-0.225,1.043-0.754,1.043-1.522c0-0.875-0.752-1.269-1.506-1.269h-2.172v0.194c0.67,0.08,0.641,0.044,0.641,0.736v3.36
						c0,0.695,0.029,0.656-0.641,0.739v0.194h2.008v-0.194c-0.672-0.083-0.645-0.044-0.645-0.739v-1.38h0.705
						c0.9,1.499,1.125,2.151,1.58,2.313c0.1,0.035,1.271,0.412,2.1,0.412c0.949,0,1.963-0.523,1.963-1.464
						C156.699,61.127,156.432,60.723,155.594,60.099z M150.975,60.361h-0.623v-2.434h0.576c0.545,0,0.994,0.283,0.994,1.099
						C151.922,59.869,151.623,60.361,150.975,60.361z"/>
					<path fill="#5E6A71" d="M135.957,62.826c0,0,0,0-3.652-4.327v3.314c0,0.156,0.031,0.285,0.045,0.405
						c0.037,0.271,0.293,0.374,0.789,0.413v0.194h-1.84v-0.194c0.363-0.039,0.607-0.143,0.646-0.413
						c0.014-0.12,0.043-0.249,0.043-0.405v-3.532c-0.207-0.27-0.441-0.511-0.867-0.511v-0.195h1.363
						c1.117,1.359,2.281,2.738,3.398,4.097h0.014v-3.084c0-0.157-0.029-0.283-0.045-0.404c-0.037-0.271-0.291-0.374-0.787-0.413
						v-0.195h1.838v0.195c-0.352,0.039-0.607,0.142-0.646,0.413c-0.014,0.121-0.043,0.247-0.043,0.404v4.238H135.957z"/>
					<path fill="#5E6A71" d="M138.904,61.888c0,0.7-0.029,0.661,0.645,0.744v0.194h-2.018v-0.194
						c0.676-0.083,0.645-0.044,0.645-0.744v-3.374c0-0.696,0.031-0.66-0.645-0.743v-0.192h2.018v0.192
						c-0.674,0.083-0.645,0.047-0.645,0.743V61.888z"/>
					<path fill="#5E6A71" d="M148.447,61.477c-0.346,0.803-0.293,1.111-1.379,1.111c-0.676,0-0.969-0.055-0.969-0.691V60.2h0.631
						c0.502,0,0.676,0.265,0.689,0.707h0.193v-1.6h-0.193c-0.014,0.466-0.217,0.653-0.689,0.653H146.1v-2.144h1.189
						c0.539,0,0.691,0.411,0.764,0.967h0.195v-1.206h-3.455h-1.484v0.192c0.508,0,0.705,0.232,0.518,0.706
						c-0.467,1.147-0.924,2.302-1.404,3.449c-0.391-1.139-0.824-2.429-1.115-3.313c-0.25-0.721,0.053-0.842,0.465-0.842v-0.192
						h-1.908v0.192c0.363,0,0.459,0.232,0.738,1.034c0.455,1.277,0.967,2.724,1.426,4.021h0.381
						c0.631-1.537,1.268-3.067,1.896-4.604c0.158-0.377,0.271-0.452,0.488-0.452c0.676,0.083,0.578,0.047,0.578,0.743v3.374
						c0,0.7,0.098,0.661-0.578,0.744v0.194h3.623l0.227-1.35H148.447z"/>
					<path fill="#5E6A71" d="M158.494,61.888c0,0.7-0.031,0.661,0.645,0.744v0.194h-2.018v-0.194
						c0.676-0.083,0.646-0.044,0.646-0.744v-3.374c0-0.696,0.029-0.66-0.646-0.743v-0.192h2.018v0.192
						c-0.676,0.083-0.645,0.047-0.645,0.743V61.888z"/>
					<path fill="#5E6A71" d="M166.166,57.578v0.192c0.441,0,0.682,0.218,0.426,0.676l-1.035,1.884l-0.908-1.884
						c-0.186-0.39-0.238-0.676,0.33-0.676v-0.192h-1.258h-0.52h-3.492l-0.203,1.145h0.188c0.248-0.494,0.396-0.905,1.049-0.905
						h0.609v4.07c0,0.7,0.029,0.661-0.645,0.744v0.194h2.018v-0.194c-0.676-0.083-0.646-0.044-0.646-0.744v-4.07h0.609
						c0.613,0,1.027,0.366,1.279,0.823l1.059,2.095v1.152c0,0.7,0.029,0.661-0.645,0.744v0.194h2.016v-0.194
						c-0.674-0.083-0.645-0.044-0.645-0.744v-0.839c0-0.188,0.016-0.398,0.09-0.547l1.252-2.273c0.203-0.36,0.404-0.458,0.615-0.458
						v-0.192H166.166z"/>
				</g>
				<path fill="#5E6A71" d="M131.15,56.52l-2.363,0.006v0.195c0.475,0.051,0.816,0.259,0.867,0.624
					c0.02,0.16,0.061,0.331,0.061,0.543v2.804c0,1.615-0.727,2.542-2.107,2.542c-1.504,0-1.955-1.079-1.955-2.492v-2.955
					c0-0.938,0.027-0.954,0.936-1.065v-0.195h-2.715v0.195c0.91,0.111,0.869,0.128,0.869,1.065v3.006
					c0,1.826,0.666,2.917,2.812,2.917c1.303,0,2.686-0.807,2.686-2.977v-2.845c0-0.018,0-0.034,0-0.05
					c-0.008-0.876,0.332-1.004,0.904-1.096L131.15,56.52z"/>
			</g>
			<g>
				<path fill="#5E6A71" d="M105.148,57.912c-0.08-0.704-0.462-1.267-1.266-1.267c-0.583,0-1.172,0.303-1.172,1.046
					c0,0.702,0.703,1.124,1.708,1.878c1.064,0.794,1.407,1.307,1.407,2.14c0,1.196-1.16,1.858-2.364,1.858
					c-0.645,0-1.197-0.121-1.72-0.32c-0.039-0.021-0.069-0.062-0.069-0.14v-1.448h0.261c0.112,1.114,0.843,1.558,1.617,1.558
					c0.714,0,1.362-0.543,1.362-1.276c0-0.654-0.352-1.187-1.858-2.18c-0.542-0.361-1.215-0.755-1.215-1.849
					c0-0.906,0.937-1.618,2.092-1.618c0.432,0,1.005,0.051,1.407,0.192c0.061,0.017,0.07,0.061,0.07,0.109v1.316H105.148z"/>
				<path fill="#5E6A71" d="M108.361,61.863c0,0.696-0.029,0.656,0.643,0.741v0.191h-2.009v-0.191
					c0.672-0.085,0.643-0.045,0.643-0.741v-4.057h-0.606c-0.65,0-0.8,0.412-1.046,0.903h-0.185l0.2-1.143h3.996l0.202,1.143h-0.187
					c-0.247-0.491-0.396-0.903-1.045-0.903h-0.606V61.863z"/>
				<path fill="#5E6A71" d="M110.968,61.064l-0.342,1.001c-0.098,0.293,0.044,0.539,0.374,0.539v0.191h-1.36v-0.191
					c0.201,0,0.418-0.13,0.538-0.375c0.321-0.658,1.194-3.1,1.815-4.751h0.418c0.507,1.502,1.269,3.804,1.523,4.468
					c0.166,0.416,0.284,0.658,0.604,0.658v0.191h-1.74v-0.191c0.472,0,0.518-0.246,0.397-0.576l-0.322-0.964H110.968z
					 M112.778,60.78l-0.792-2.427h-0.016l-0.888,2.427H112.778z"/>
				<path fill="#5E6A71" d="M116.58,61.863c0,0.696-0.029,0.656,0.641,0.741v0.191h-2.01v-0.191
					c0.674-0.085,0.645-0.045,0.645-0.741v-4.057h-0.607c-0.649,0-0.797,0.412-1.045,0.903h-0.187l0.203-1.143h3.996l0.201,1.143
					h-0.188c-0.244-0.491-0.393-0.903-1.043-0.903h-0.605V61.863z"/>
				<path fill="#5E6A71" d="M118.768,62.604c0.676-0.085,0.578-0.045,0.578-0.741v-3.362c0-0.694,0.098-0.657-0.578-0.74v-0.193
					h3.273v1.202h-0.195c-0.074-0.551-0.223-0.963-0.76-0.963h-1.018v2.139h0.627c0.471,0,0.672-0.188,0.688-0.651h0.193v1.59
					h-0.193c-0.016-0.441-0.186-0.702-0.688-0.702h-0.627v1.688c0,0.637,0.291,0.689,0.965,0.689c1.082,0,1.029-0.308,1.375-1.107
					h0.193l-0.225,1.344h-3.609V62.604z"/>
			</g>
			<g>
				<path fill="#5E6A71" d="M65.657,61.87c0,0.695-0.03,0.656,0.642,0.738v0.195H64.29v-0.195c0.671-0.082,0.642-0.043,0.642-0.738
					v-3.362c0-0.692-0.323-0.656-0.995-0.737v-0.192h2.362v0.192c-0.672,0.081-0.642,0.045-0.642,0.737v1.294h2.621v-1.294
					c0-0.692,0.029-0.656-0.643-0.737v-0.192h2.009v0.192c-0.671,0.081-0.642,0.045-0.642,0.737v3.362
					c0,0.695-0.029,0.656,0.642,0.738v0.195h-2.009v-0.195c0.672-0.082,0.643-0.043,0.643-0.738v-1.763h-2.621V61.87z"/>
				<path fill="#5E6A71" d="M71.833,61.87c0,0.695-0.031,0.656,0.642,0.738v0.195h-2.008v-0.195
					c0.671-0.082,0.642-0.043,0.642-0.738v-3.362c0-0.692,0.03-0.656-0.642-0.737v-0.192h2.008v0.192
					c-0.672,0.081-0.642,0.045-0.642,0.737V61.87z"/>
				<path fill="#5E6A71" d="M78.041,62.804c-1.187-1.404-2.419-2.876-3.636-4.31v3.303c0,0.154,0.029,0.281,0.045,0.401
					c0.037,0.27,0.29,0.373,0.783,0.41v0.195h-1.829v-0.195c0.358-0.037,0.605-0.141,0.643-0.41c0.014-0.12,0.044-0.247,0.044-0.401
					v-3.52c-0.21-0.269-0.441-0.507-0.867-0.507v-0.192h1.359c1.113,1.349,2.27,2.724,3.382,4.074h0.015v-3.067
					c0-0.158-0.03-0.285-0.045-0.405c-0.036-0.268-0.292-0.372-0.784-0.409v-0.192h1.83v0.192c-0.351,0.037-0.604,0.142-0.644,0.409
					c-0.014,0.12-0.043,0.247-0.043,0.405v4.219H78.041z"/>
				<path fill="#5E6A71" d="M79.142,60.159c0-1.149,0.971-2.674,2.986-2.674c0.725,0,1.068,0.136,1.434,0.256
					c0.209,0.066,0.292,0.171,0.292,0.29v0.964h-0.194c-0.022-0.599-0.403-1.248-1.59-1.248c-1.561,0-2.068,1.075-2.076,2.353
					c-0.007,1.18,0.59,2.532,2.106,2.532c0.934,0,1.016-0.345,1.016-0.926V61.25c0-0.695,0.029-0.657-0.792-0.739v-0.193h2.158
					v0.193c-0.672,0.082-0.641,0.044-0.641,0.739v1.3c-0.479,0.187-1.106,0.343-1.786,0.343
					C80.523,62.893,79.142,62.161,79.142,60.159z"/>
				<path fill="#5E6A71" d="M87.042,61.87c0,0.695-0.03,0.656,0.642,0.738v0.195h-2.009v-0.195c0.671-0.082,0.642-0.043,0.642-0.738
					v-4.055h-0.605c-0.649,0-0.798,0.408-1.045,0.903H84.48l0.203-1.141h3.995l0.201,1.141h-0.187
					c-0.246-0.495-0.396-0.903-1.045-0.903h-0.605V61.87z"/>
				<path fill="#5E6A71" d="M88.879,60.286c0-1.614,1.255-2.801,2.808-2.801c1.62,0,2.561,1.397,2.561,2.548
					c0,1.576-1.18,2.859-2.831,2.859C89.991,62.893,88.879,61.736,88.879,60.286z M93.396,60.258c0-1.786-0.962-2.511-1.874-2.511
					c-1.269,0-1.791,1.136-1.791,2.15c0,1.809,0.925,2.734,1.888,2.734C93.008,62.632,93.396,61.258,93.396,60.258z"/>
				<path fill="#5E6A71" d="M99.064,62.804c-1.188-1.404-2.42-2.876-3.637-4.31v3.303c0,0.154,0.029,0.281,0.044,0.401
					c0.038,0.27,0.291,0.373,0.784,0.41v0.195h-1.829v-0.195c0.359-0.037,0.605-0.141,0.643-0.41
					c0.015-0.12,0.044-0.247,0.044-0.401v-3.52c-0.208-0.269-0.44-0.507-0.866-0.507v-0.192h1.359
					c1.112,1.349,2.269,2.724,3.383,4.074h0.014v-3.067c0-0.158-0.03-0.285-0.044-0.405c-0.038-0.268-0.291-0.372-0.785-0.409
					v-0.192h1.829v0.192c-0.35,0.037-0.604,0.142-0.641,0.409c-0.015,0.12-0.045,0.247-0.045,0.405v4.219H99.064z"/>
				<path fill="#5E6A71" d="M57.255,56.577v-0.009h-2.02v0.25c0.78,0.009,0.907,0.287,0.702,0.877l-1.528,4.162h-0.085l-1.8-5.203
					h-0.456l-1.891,5.203h-0.129l-1.355-4.134c-0.192-0.656,0.077-0.905,0.683-0.905v-0.25h-2.397v0.25
					c0.509,0,0.601,0.397,0.928,1.338l1.74,5.145h0.458l1.861-5.248l1.835,5.251h0.513c0.785-2.087,1.89-5.179,2.296-6.009
					c0.152-0.312,0.425-0.474,0.681-0.474v-0.244H57.255z"/>
				<path fill="#5E6A71" d="M62.626,59.997c-0.786-0.589-1.336-0.918-1.336-1.469c0-0.581,0.409-0.817,0.864-0.817
					c0.629,0,0.927,0.44,0.99,0.991h0.204v-1.03c0-0.039-0.008-0.07-0.056-0.086c-0.313-0.109-0.762-0.15-1.099-0.15
					c-0.904,0-1.689,0.558-1.689,1.267c0,0.382,0.106,0.655,0.261,0.865h-0.003c0.003,0.003,0.006,0.006,0.01,0.009
					c0.19,0.254,0.452,0.417,0.683,0.57c1.179,0.778,1.454,1.194,1.454,1.705c0,0.475-0.357,0.952-1.014,1
					c-0.672,0.046-1.537-0.278-1.9-1.222c-0.324-0.905-0.98-2.809-1.425-4.121h-0.433c-0.62,1.65-1.46,4.07-1.782,4.727
					c-0.119,0.246-0.335,0.373-0.537,0.373v0.195h0.322h1.037v-0.195c-0.329,0-0.471-0.246-0.374-0.537l0.344-1.001h1.904
					l0.321,0.963l0.247,0.742c0,0,1.335,0.35,2.204,0.35c0.943,0,1.901-0.519,1.901-1.453C63.726,61.02,63.459,60.618,62.626,59.997
					z M57.26,60.787l0.889-2.429h0.015l0.792,2.429H57.26z"/>
			</g>
		</g>
		<g>
			<path fill="#5E6A71" d="M52.581,9.2h-0.229c0.009-0.995-0.141-1.488-1.382-1.488c-1.902,0-2.888,1.638-2.888,3.53
				c0,1.039,0.466,2.298,1.778,2.298c1.338,0,1.726-0.801,2.201-1.497l0.202,0.07l-0.484,1.259c-0.079,0.202-0.96,0.449-1.937,0.449
				c-1.717,0-2.694-1.294-2.694-2.641c0-2.597,2.271-3.733,3.892-3.733c0.634,0,1.813,0.123,1.761,0.422L52.581,9.2z"/>
			<path fill="#5E6A71" d="M53.37,12.088c0-1.153,0.994-2.879,2.465-2.879c1.171,0,1.426,0.792,1.426,1.585
				c0,0.968-0.774,3.028-2.456,3.028C53.678,13.822,53.37,12.916,53.37,12.088z M56.451,10.371c0-0.916-0.555-0.951-0.695-0.951
				c-0.951,0-1.576,1.708-1.576,2.853c0,0.458,0.079,1.285,0.73,1.285C55.914,13.558,56.451,11.903,56.451,10.371z"/>
			<path fill="#5E6A71" d="M59.082,12.66c-0.053,0.282-0.044,0.449,0.08,0.449c0.062,0,0.158-0.035,0.229-0.07l0.414-0.203
				l0.07,0.194l-1.471,0.792c-0.149-0.053-0.211-0.176-0.237-0.282c-0.026-0.132,0.009-0.282,0.097-0.695l1.013-4.702
				c0.035-0.176,0.097-0.378,0-0.484c-0.07-0.08-0.212-0.08-0.353-0.062l-0.343,0.035l0.044-0.193l1.62-0.194L59.082,12.66z"/>
			<path fill="#5E6A71" d="M61.906,12.66c-0.053,0.282-0.044,0.449,0.08,0.449c0.062,0,0.158-0.035,0.229-0.07l0.414-0.203
				l0.07,0.194l-1.471,0.792c-0.149-0.053-0.211-0.176-0.237-0.282c-0.026-0.132,0.009-0.282,0.097-0.695l1.013-4.702
				c0.035-0.176,0.097-0.378,0-0.484c-0.07-0.08-0.212-0.08-0.353-0.062l-0.343,0.035l0.044-0.193l1.62-0.194L61.906,12.66z"/>
			<path fill="#5E6A71" d="M66.65,12.88l-0.934,0.572c-0.414,0.255-0.748,0.37-1.039,0.37c-0.854,0-1.047-0.968-1.047-1.62
				c0-1.444,1.285-2.994,2.729-2.994c0.476,0,0.688,0.264,0.688,0.792c0,0.863-1.136,1.743-2.589,1.391
				c-0.211,0.916-0.009,1.875,0.766,1.875c0.388,0,0.881-0.282,1.312-0.599L66.65,12.88z M66.412,9.834
				c0-0.247-0.158-0.414-0.29-0.414c-0.687,0-1.471,1.118-1.594,1.761C66.078,11.472,66.412,10.354,66.412,9.834z"/>
			<path fill="#5E6A71" d="M70.751,9.623c0.149,0.203,0.176,0.379,0.176,0.528c0,0.705-0.51,1.259-0.845,1.479
				c-0.37,0.229-0.881,0.396-0.881,0.713c0,0.555,1.471,1.039,1.471,1.805c0,1.021-1.224,1.549-2.201,1.549
				c-0.651,0-1.638-0.203-1.638-0.933c0-0.845,1.276-1.312,1.911-1.55c-0.142-0.088-0.309-0.229-0.309-0.405
				c0-0.326,0.484-0.616,0.748-0.898c-0.097-0.009-0.193,0.018-0.281,0.009c-0.52,0.009-0.907-0.361-0.907-0.942
				c0-0.916,0.872-1.77,1.822-1.77c0.212,0,0.423,0.044,0.591,0.132c0.483,0.027,0.994-0.044,1.276-0.132l0.141,0.123L71.57,9.623
				H70.751z M67.511,14.527c0,0.59,0.599,0.907,1.197,0.907c0.52,0,1.181-0.326,1.181-0.889c0-0.405-0.67-0.933-0.995-1.18
				C68.348,13.549,67.511,13.84,67.511,14.527z M69.272,11.736c0.581,0,0.933-0.863,0.933-1.409c0-0.378-0.097-0.88-0.546-0.88
				c-0.704,0-0.986,0.863-0.986,1.417C68.673,11.26,68.841,11.736,69.272,11.736z"/>
			<path fill="#5E6A71" d="M74.905,12.88l-0.934,0.572c-0.414,0.255-0.748,0.37-1.039,0.37c-0.854,0-1.047-0.968-1.047-1.62
				c0-1.444,1.285-2.994,2.729-2.994c0.476,0,0.688,0.264,0.688,0.792c0,0.863-1.136,1.743-2.589,1.391
				c-0.211,0.916-0.009,1.875,0.766,1.875c0.388,0,0.881-0.282,1.312-0.599L74.905,12.88z M74.667,9.834
				c0-0.247-0.158-0.414-0.29-0.414c-0.687,0-1.471,1.118-1.594,1.761C74.333,11.472,74.667,10.354,74.667,9.834z"/>
			<path fill="#5E6A71" d="M78.591,12.088c0-1.153,0.994-2.879,2.465-2.879c1.171,0,1.426,0.792,1.426,1.585
				c0,0.968-0.774,3.028-2.456,3.028C78.898,13.822,78.591,12.916,78.591,12.088z M81.672,10.371c0-0.916-0.555-0.951-0.695-0.951
				c-0.951,0-1.576,1.708-1.576,2.853c0,0.458,0.079,1.285,0.73,1.285C81.135,13.558,81.672,11.903,81.672,10.371z"/>
			<path fill="#5E6A71" d="M86.407,9.5l-0.211,0.185h-1.153c-0.432,2.095-1.136,4.886-1.638,6.225h-0.396l1.259-6.225h-0.836
				l0.079-0.37h0.828c0.466-1.875,2.016-2.069,2.386-2.069c0.202,0,0.625,0.035,0.757,0.159l-0.105,0.581l-0.22,0.105
				c-0.124-0.238-0.405-0.511-0.775-0.511c-0.528,0-0.924,0.361-1.136,1.312l-0.097,0.422h1.294L86.407,9.5z"/>
			<path fill="#5E6A71" d="M55.913,21.795l7.727,20.722h-3.316l-2.131-6.098h-7.903l-2.221,6.098h-2.782l8.437-20.722H55.913z
				 M57.512,34.347c-1.036-2.872-2.043-5.743-3.079-9.473h-0.059c-1.066,3.729-2.161,6.601-3.286,9.473H57.512z"/>
			<path fill="#5E6A71" d="M68.315,29.551l1.065-1.125c0.621-0.622,1.599-1.065,2.22-1.065c0.651,0,1.629,0.474,2.457,1.451
				l-1.214,1.717c-0.65-0.326-1.302-0.622-1.983-0.622c-1.361,0-2.486,1.361-2.486,4.647v7.963H65.71V27.716h2.605V29.551z"/>
			<path fill="#5E6A71" d="M79.593,27.716h3.878v1.539h-3.878v8.377c0,2.072,0.414,3.315,2.042,3.315
				c0.978,0,1.54-0.237,2.043-0.503l0.651,1.48c-0.918,0.592-2.013,0.947-3.02,0.947c-2.96,0-4.381-1.717-4.381-4.736v-8.881h-2.072
				v-1.539h2.072v-3.553l2.664-0.888V27.716z"/>
			<path fill="#5E6A71" d="M93.476,30.084c-1.066-0.711-1.925-0.947-2.724-0.947c-0.947,0-2.161,0.444-2.161,1.687
				s1.361,1.865,3.049,3.138c1.895,1.451,3.138,2.665,3.138,4.736c0,2.487-2.457,4.174-5.18,4.174c-1.688,0-3.582-0.74-4.56-1.865
				l1.303-1.51c0.858,0.799,2.014,1.48,3.197,1.48c1.243,0,2.517-0.651,2.517-2.102c0-1.717-1.54-2.457-2.931-3.463
				c-1.688-1.214-3.168-2.22-3.168-4.233c0-2.339,2.31-3.819,4.914-3.819c1.45,0,2.871,0.592,3.641,1.362L93.476,30.084z"/>
			<path fill="#5E6A71" d="M120.559,36.242c0.858-1.747,0.296-4.796-0.858-6.454h-2.9l0.888-1.835h8.881l-0.918,1.835h-3.493
				c1.065,1.717,1.421,5.062,0,7.875l4.529,3.877l-2.635,1.333l-3.375-3.108c-1.598,1.806-3.937,3.108-6.808,3.108
				c-6.454,0-7.371-4.914-7.371-6.187c0-2.724,1.983-4.855,4.44-5.979c-1.154-1.095-2.694-2.516-2.694-4.648
				c0-2.427,2.221-4.618,5.536-4.618c1.568,0,2.931,0.474,4.232,1.421l-1.036,1.658c-0.503-0.326-1.657-1.006-2.931-1.006
				c-1.924,0-2.9,1.095-2.9,2.397c0,1.184,0.74,2.28,2.782,4.145L120.559,36.242z M112.24,32.127
				c-1.864,1.036-2.664,2.575-2.664,4.292c0,1.895,1.48,4.5,4.618,4.5c2.279,0,4.174-1.302,5.032-2.516L112.24,32.127z"/>
			<path fill="#5E6A71" d="M149.152,24.993c-1.007-0.74-2.339-1.48-3.582-1.48c-2.072,0-3.227,1.213-3.227,2.812
				c0,1.48,1.272,2.575,3.937,4.5c2.842,2.072,4.5,3.967,4.5,6.631c0,3.286-3.108,5.417-6.424,5.417
				c-1.983,0-4.352-0.711-5.831-2.161l1.272-1.717c1.214,0.858,2.546,1.806,4.5,1.806c2.042,0,3.611-1.095,3.611-3.404
				c0-2.605-3.108-4.292-4.796-5.536c-1.717-1.332-3.641-2.605-3.641-5.536c0-2.783,2.693-4.884,5.92-4.884
				c2.161,0,3.967,0.77,5.121,2.072L149.152,24.993z"/>
			<path fill="#5E6A71" d="M165.313,41.333c-1.45,1.036-3.197,1.54-4.47,1.54c-7.016,0-7.903-5.743-7.903-7.786
				c0-3.7,2.456-7.726,8.021-7.726c1.51,0,2.871,0.385,3.967,1.214l-0.888,1.51c-0.858-0.415-1.954-0.77-3.05-0.77
				c-2.427,0-5.18,1.599-5.18,5.625c0,3.079,1.568,5.979,5.15,5.979c1.273,0,2.457-0.326,3.611-1.065L165.313,41.333z"/>
			<path fill="#5E6A71" d="M167.828,22.832c0-0.74,0.622-1.569,1.688-1.569s1.688,0.829,1.688,1.569
				c0,0.799-0.385,1.806-1.688,1.806S167.828,23.631,167.828,22.832z M170.848,27.716v14.801h-2.664V27.716H170.848z"/>
			<path fill="#5E6A71" d="M176.976,35.294c-0.03,2.96,2.071,5.684,5.002,5.684c1.362,0,3.02-0.503,4.056-1.273l0.77,1.45
				c-1.539,1.095-3.374,1.717-4.914,1.717c-4.617,0-7.667-2.842-7.667-8.052c0-5.122,3.671-7.46,7.017-7.46
				c4.499,0,6.009,4.056,5.713,7.934H176.976z M184.523,33.518c0-2.309-0.977-4.263-3.315-4.263c-2.842,0-3.967,2.368-4.056,4.263
				H184.523z"/>
			<path fill="#5E6A71" d="M192.87,29.551c1.392-1.48,3.522-2.19,5.062-2.19c3.404,0,5.24,1.895,5.24,5.625v9.532h-2.664v-8.969
				c0-2.783-1.185-4.233-3.582-4.233c-2.102,0-4.026,1.451-4.026,4.292v8.91h-2.664V27.716h2.635V29.551z"/>
			<path fill="#5E6A71" d="M218.326,41.333c-1.45,1.036-3.197,1.54-4.47,1.54c-7.016,0-7.904-5.743-7.904-7.786
				c0-3.7,2.457-7.726,8.022-7.726c1.51,0,2.872,0.385,3.967,1.214l-0.888,1.51c-0.858-0.415-1.954-0.77-3.049-0.77
				c-2.428,0-5.181,1.599-5.181,5.625c0,3.079,1.568,5.979,5.15,5.979c1.273,0,2.457-0.326,3.611-1.065L218.326,41.333z"/>
			<path fill="#5E6A71" d="M222.203,35.294c-0.03,2.96,2.071,5.684,5.002,5.684c1.362,0,3.02-0.503,4.056-1.273l0.77,1.45
				c-1.539,1.095-3.374,1.717-4.914,1.717c-4.617,0-7.666-2.842-7.666-8.052c0-5.122,3.67-7.46,7.016-7.46
				c4.499,0,6.009,4.056,5.713,7.934H222.203z M229.751,33.518c0-2.309-0.977-4.263-3.315-4.263c-2.842,0-3.967,2.368-4.056,4.263
				H229.751z"/>
			<path fill="#5E6A71" d="M242.42,30.084c-1.066-0.711-1.925-0.947-2.724-0.947c-0.947,0-2.161,0.444-2.161,1.687
				s1.361,1.865,3.049,3.138c1.895,1.451,3.138,2.665,3.138,4.736c0,2.487-2.457,4.174-5.18,4.174c-1.688,0-3.582-0.74-4.559-1.865
				l1.302-1.51c0.858,0.799,2.013,1.48,3.197,1.48c1.243,0,2.517-0.651,2.517-2.102c0-1.717-1.54-2.457-2.931-3.463
				c-1.688-1.214-3.168-2.22-3.168-4.233c0-2.339,2.31-3.819,4.914-3.819c1.45,0,2.871,0.592,3.642,1.362L242.42,30.084z"/>
		</g>
		<rect x="36.158" y="1.54" fill="#5E6A71" width="0.75" height="67.752"/>
		<g>
			<path fill="#5E6A71" d="M17.445,48.571l-4.615,3.29l-4.619-3.29c-3.283-2.246-6.098-4.17-7.572-7.094
				c1.217,5.48,6.574,7.529,12.191,11.924c5.613-4.395,10.971-6.444,12.188-11.924C23.543,44.401,20.729,46.325,17.445,48.571z"/>
			<path fill="#981E32" d="M0,21.776v0.574c0.357,0.125,0.473,0.236,0.512,0.76v13.242c0,7.365,5.994,9.314,12.32,14.262
				c6.324-4.948,12.32-6.897,12.32-14.262V22.959c0.047-0.4,0.174-0.498,0.496-0.609v-0.574H0z"/>
			<g>
				<g>
					<g>
						<path fill="#FFFFFF" d="M15.326,43.336c0,0,1.023-0.438,1.586-2.131c0.494,1.033,0.365,2.094,0.365,2.094
							C16.822,43.401,15.326,43.336,15.326,43.336z"/>
						<path fill="#FFFFFF" d="M20.826,33.647c0,0,0.627,3.406-1.586,3.521c-2.135,0.111-3.141-3.1-3.141-3.1
							s0.516,6.277,3.508,5.863C22.979,39.467,20.826,33.647,20.826,33.647z"/>
					</g>
				</g>
				<path fill="#FFFFFF" d="M4.572,42.528c0-0.002,0.004-0.002,0.004-0.002c2.496-0.568,4.404-3.482,4.969-4.65l0.355-0.74
					l0.215,0.791c0.012,0.043,0.244,0.918,0.244,2.072c0,0.129-0.006,0.26-0.012,0.393c0.861,0.033,1.477-0.141,1.859-0.539
					c0.547-0.566,0.713-1.641,0.506-3.283c-0.098-0.785-0.389-2.037-0.646-3.139c-0.131-0.564-0.256-1.098-0.33-1.477
					c-0.482-2.412,0.115-3.91,0.701-4.74c0.094-0.131,0.193-0.256,0.299-0.373c-1.727,0.582-3.176,1.486-4.668,2.979l1.051,1.219
					l0.43-0.402c0.406,1.516,0.113,2.908,0.113,2.908c-0.553-0.842-1.205-1.525-1.205-1.525l0.285-0.479l-0.947-1.102l-0.109-0.123
					c-1.164,1.602-1.541,2.91-1.541,2.91l0.826,0.756l0.48,0.436l0.162-0.465C8.5,35.616,7.689,37.17,7.689,37.17
					c-0.145-0.566-0.73-1.404-0.73-1.404l0.23-0.764l-1.229-1.111c-1.279,3.994-2.986,5.289-2.986,5.289s1.848-0.334,2.877-0.68
					C5.852,38.5,5.822,40.606,4.572,42.528z"/>
				<path fill="#FFFFFF" d="M23.229,28.114l-2.953,0.123c0.002,0.35-0.045,0.701-0.156,1.035c0.275,1.205,0.084,1.859,0.084,1.859
					c-0.494-1.15-0.871-1.469-0.871-1.469c-2.711-1.205-4.234,1.518-4.07,3.275c0.133,1.445,0.656,3.361,1.064,6.369
					c0.344,2.529-0.936,3.623-2.41,3.875c-0.031,0.004-0.064,0.012-0.096,0.018c-0.01,0-0.016,0-0.023,0
					c-0.24,0.031-0.492,0.045-0.764,0.039c-0.006-0.002-0.018-0.002-0.025-0.002c-0.031,0-0.059-0.006-0.088-0.006
					c-0.115-0.006-0.229-0.018-0.34-0.031c-1.146-0.16-3.715-0.625-6.365-0.689c1.559-0.912,2.779-2.488,3.459-3.605
					c0.041,0.309,0.072,0.688,0.072,1.104c0,0.207-0.006,0.426-0.027,0.646l-0.025,0.307l0.305,0.025
					c1.221,0.105,2.086-0.127,2.648-0.711c0.693-0.721,0.906-1.922,0.672-3.783c-0.1-0.816-0.396-2.084-0.656-3.201
					c-0.129-0.559-0.252-1.09-0.326-1.457c-0.439-2.201,0.086-3.537,0.602-4.27c0.404-0.574,0.963-0.994,1.574-1.197
					c0.012-0.002,0.023-0.004,0.033-0.006l1.008-3.094h0.316l-0.676,2.975c0.156-0.027,0.314-0.053,0.477-0.078l0.869-2.742h0.314
					l-0.57,2.656c0.9-0.115,1.879-0.207,2.961-0.285c0.176,0.07,0.363,0.271,0.531,0.557l2.842-0.875l0.105,0.307l-2.715,1.053
					c0.021,0.057,0.041,0.113,0.059,0.174l2.971-0.369l0.049,0.318l-2.881,0.576c0.01,0.053,0.02,0.107,0.027,0.16l2.998,0.098
					L23.229,28.114z M14.674,29.44c0.596-0.416,1.607-0.738,2.561-0.666c0.24,0.02,0.443-0.045,0.184-0.182
					c-0.711-0.375-2.367-0.248-2.953,0.152c-0.939,0.641-0.781,1.781-0.76,1.809C13.893,30.227,14.211,29.766,14.674,29.44z"/>
			</g>
		</g>
		<g id="bad_wsu" display="none">
			<g display="inline">
				<path fill="#5E6A71" d="M104.959,75.192c-0.08-0.697-0.459-1.256-1.254-1.256c-0.576,0-1.16,0.299-1.16,1.035
					c0,0.695,0.695,1.115,1.691,1.861c1.053,0.785,1.393,1.293,1.393,2.119c0,1.184-1.148,1.84-2.342,1.84
					c-0.637,0-1.184-0.121-1.701-0.318c-0.039-0.021-0.068-0.061-0.068-0.139v-1.434h0.258c0.109,1.104,0.834,1.541,1.602,1.541
					c0.707,0,1.35-0.535,1.35-1.262c0-0.648-0.35-1.176-1.842-2.16c-0.537-0.355-1.203-0.746-1.203-1.828
					c0-0.898,0.928-1.604,2.074-1.604c0.426,0,0.994,0.049,1.391,0.189c0.061,0.02,0.07,0.061,0.07,0.109v1.305H104.959z"/>
				<path fill="#5E6A71" d="M108.43,79.104c0,0.688-0.029,0.65,0.637,0.73v0.193h-1.99v-0.193c0.666-0.08,0.637-0.043,0.637-0.73
					v-4.016h-0.6c-0.645,0-0.793,0.406-1.035,0.895h-0.186l0.199-1.133h3.957l0.199,1.133h-0.184
					c-0.244-0.488-0.391-0.895-1.035-0.895h-0.6V79.104z"/>
				<path fill="#5E6A71" d="M111.061,78.339l-0.334,0.975c-0.096,0.285,0.043,0.527,0.363,0.527v0.188h-1.326v-0.188
					c0.197,0,0.408-0.125,0.525-0.365c0.312-0.641,1.166-3.025,1.771-4.635h0.408c0.494,1.463,1.236,3.711,1.486,4.357
					c0.16,0.408,0.275,0.643,0.59,0.643v0.188h-1.697v-0.188c0.457,0,0.502-0.242,0.385-0.562l-0.314-0.939H111.061z
					 M112.824,78.062l-0.773-2.369h-0.014l-0.865,2.369H112.824z"/>
				<path fill="#5E6A71" d="M116.566,79.104c0,0.688-0.027,0.65,0.637,0.73v0.193h-1.99v-0.193c0.666-0.08,0.637-0.043,0.637-0.73
					v-4.016h-0.6c-0.643,0-0.791,0.406-1.035,0.895h-0.186l0.201-1.133h3.957l0.199,1.133h-0.186
					c-0.242-0.488-0.391-0.895-1.033-0.895h-0.602V79.104z"/>
				<path fill="#5E6A71" d="M118.734,79.835c0.666-0.08,0.572-0.043,0.572-0.73v-3.33c0-0.686,0.094-0.65-0.572-0.732v-0.191h3.24
					v1.189h-0.191c-0.074-0.545-0.221-0.951-0.754-0.951h-1.006v2.115h0.621c0.465,0,0.666-0.186,0.68-0.645h0.193v1.574h-0.193
					c-0.014-0.436-0.184-0.693-0.68-0.693h-0.621v1.67c0,0.631,0.289,0.682,0.953,0.682c1.074,0,1.021-0.305,1.361-1.096h0.191
					l-0.221,1.332h-3.574V79.835z"/>
			</g>
			<g display="inline">
				<g>
					<path fill="#5E6A71" d="M136.004,80.028c0,0,0,0-3.602-4.268v3.27c0,0.154,0.031,0.281,0.043,0.398
						c0.037,0.268,0.289,0.371,0.777,0.406v0.193h-1.811v-0.193c0.355-0.035,0.598-0.139,0.635-0.406
						c0.016-0.117,0.045-0.244,0.045-0.398v-3.484c-0.207-0.266-0.438-0.502-0.857-0.502v-0.193h1.346
						c1.102,1.338,2.248,2.701,3.35,4.039h0.016v-3.039c0-0.156-0.029-0.283-0.045-0.4c-0.037-0.266-0.287-0.367-0.777-0.406v-0.193
						h1.812v0.193c-0.348,0.039-0.598,0.141-0.637,0.406c-0.014,0.117-0.043,0.244-0.043,0.4v4.178H136.004z"/>
				</g>
				<path fill="#5E6A71" d="M138.91,79.104c0,0.688-0.029,0.652,0.637,0.73v0.193h-1.99v-0.193c0.666-0.078,0.637-0.043,0.637-0.73
					v-3.328c0-0.688,0.029-0.652-0.637-0.732v-0.191h1.99v0.191c-0.666,0.08-0.637,0.045-0.637,0.732V79.104z"/>
				<path fill="#5E6A71" d="M148.322,78.696c-0.34,0.793-0.289,1.096-1.361,1.096c-0.664,0-0.955-0.051-0.955-0.682v-1.67h0.623
					c0.496,0,0.664,0.26,0.68,0.695h0.191V76.56h-0.191c-0.016,0.459-0.215,0.645-0.68,0.645h-0.623v-2.115h1.176
					c0.531,0,0.68,0.406,0.752,0.953h0.193v-1.189h-3.406h-1.467v0.191c0.502,0,0.695,0.229,0.51,0.695
					c-0.459,1.133-0.91,2.27-1.383,3.402c-0.385-1.123-0.812-2.395-1.1-3.27c-0.246-0.711,0.051-0.828,0.457-0.828v-0.191h-1.881
					v0.191c0.355,0,0.451,0.229,0.727,1.02c0.451,1.258,0.955,2.686,1.406,3.965h0.377c0.619-1.516,1.25-3.023,1.871-4.539
					c0.154-0.371,0.266-0.445,0.482-0.445c0.664,0.08,0.568,0.045,0.568,0.732v3.328c0,0.688,0.096,0.652-0.568,0.73v0.193h3.572
					l0.223-1.332H148.322z"/>
				<path fill="#5E6A71" d="M158.625,79.104c0,0.688-0.031,0.652,0.635,0.73v0.193h-1.99v-0.193c0.666-0.078,0.637-0.043,0.637-0.73
					v-3.328c0-0.688,0.029-0.652-0.637-0.732v-0.191h1.99v0.191c-0.666,0.08-0.635,0.045-0.635,0.732V79.104z"/>
				<path fill="#5E6A71" d="M166.188,74.853v0.191c0.436,0,0.674,0.213,0.422,0.666l-1.021,1.857l-0.895-1.857
					c-0.186-0.385-0.236-0.666,0.324-0.666v-0.191h-1.238h-0.514h-3.445l-0.201,1.131h0.188c0.242-0.488,0.391-0.895,1.033-0.895
					h0.602v4.016c0,0.688,0.029,0.652-0.637,0.73v0.193h1.99v-0.193c-0.666-0.078-0.637-0.043-0.637-0.73v-4.016h0.6
					c0.605,0,1.014,0.361,1.264,0.812l1.041,2.064v1.139c0,0.688,0.029,0.652-0.635,0.73v0.193h1.988v-0.193
					c-0.664-0.078-0.635-0.043-0.635-0.73v-0.828c0-0.184,0.014-0.393,0.088-0.539l1.234-2.242c0.201-0.355,0.4-0.451,0.607-0.451
					v-0.191H166.188z"/>
				<path fill="#5E6A71" d="M131.242,73.731l-2.33,0.006v0.193c0.467,0.051,0.807,0.256,0.855,0.615
					c0.02,0.158,0.059,0.326,0.059,0.537v2.764c0,1.592-0.717,2.508-2.078,2.508c-1.482,0-1.928-1.064-1.928-2.459v-2.914
					c0-0.924,0.027-0.941,0.924-1.051v-0.193h-2.678v0.193c0.896,0.109,0.855,0.127,0.855,1.051v2.965
					c0,1.801,0.658,2.877,2.775,2.877c1.283,0,2.646-0.797,2.646-2.938v-2.803c0-0.02,0-0.035,0-0.051
					c-0.008-0.863,0.328-0.988,0.893-1.08L131.242,73.731z"/>
				<path fill="#5E6A71" d="M155.672,77.321c-0.785-0.59-1.334-0.918-1.334-1.467c0-0.582,0.408-0.816,0.863-0.816
					c0.629,0,0.926,0.439,0.988,0.988h0.203v-1.027c0-0.039-0.008-0.072-0.055-0.086c-0.312-0.109-0.76-0.15-1.098-0.15
					c-0.902,0-1.686,0.557-1.686,1.264c0,0.381,0.105,0.654,0.26,0.865h-0.004c0.004,0.002,0.008,0.006,0.01,0.008
					c0.189,0.254,0.451,0.416,0.682,0.57c1.178,0.775,1.443,1.191,1.453,1.699c0.021,1.135-2.1,1.729-3.494-0.445l-0.725-1.104
					c0.568-0.223,1.035-0.746,1.035-1.508c0-0.867-0.748-1.258-1.494-1.258h-2.154v0.191c0.666,0.08,0.635,0.043,0.635,0.73v3.33
					c0,0.691,0.031,0.652-0.635,0.734v0.193h1.99v-0.193c-0.666-0.082-0.637-0.043-0.637-0.734v-1.367h0.697
					c0.895,1.486,1.115,2.133,1.566,2.295c0.102,0.035,1.262,0.406,2.082,0.406c0.941,0,1.947-0.516,1.947-1.449
					C156.77,78.339,156.502,77.938,155.672,77.321z M151.092,77.581h-0.615v-2.412h0.568c0.541,0,0.988,0.281,0.988,1.088
					C152.033,77.093,151.736,77.581,151.092,77.581z"/>
			</g>
			<g display="inline">
				<path fill="#5E6A71" d="M65.377,79.104c0,0.688-0.031,0.652,0.635,0.734v0.191h-1.99v-0.191
					c0.666-0.082,0.637-0.047,0.637-0.734v-3.328c0-0.688-0.32-0.65-0.984-0.732v-0.191h2.338v0.191
					c-0.666,0.082-0.635,0.045-0.635,0.732v1.279h2.596v-1.279c0-0.688,0.029-0.65-0.637-0.732v-0.191h1.988v0.191
					c-0.664,0.082-0.635,0.045-0.635,0.732v3.328c0,0.688-0.029,0.652,0.635,0.734v0.191h-1.988v-0.191
					c0.666-0.082,0.637-0.047,0.637-0.734v-1.746h-2.596V79.104z"/>
				<path fill="#5E6A71" d="M71.494,79.104c0,0.688-0.029,0.652,0.635,0.734v0.191h-1.988v-0.191
					c0.666-0.082,0.635-0.047,0.635-0.734v-3.328c0-0.688,0.031-0.65-0.635-0.732v-0.191h1.988v0.191
					c-0.664,0.082-0.635,0.045-0.635,0.732V79.104z"/>
				<path fill="#5E6A71" d="M77.643,80.03c-1.176-1.391-2.396-2.848-3.6-4.27v3.271c0,0.152,0.027,0.279,0.043,0.398
					c0.037,0.266,0.289,0.369,0.775,0.408v0.191h-1.811v-0.191c0.354-0.039,0.6-0.143,0.637-0.408
					c0.014-0.119,0.043-0.246,0.043-0.398v-3.486c-0.207-0.266-0.438-0.502-0.857-0.502v-0.191h1.346
					c1.104,1.338,2.248,2.699,3.352,4.037h0.014v-3.039c0-0.156-0.029-0.283-0.045-0.4c-0.035-0.266-0.289-0.367-0.775-0.406v-0.191
					h1.812v0.191c-0.348,0.039-0.6,0.141-0.639,0.406c-0.014,0.117-0.043,0.244-0.043,0.4v4.18H77.643z"/>
				<path fill="#5E6A71" d="M78.734,77.411c0-1.139,0.961-2.648,2.957-2.648c0.719,0,1.059,0.133,1.42,0.252
					c0.209,0.068,0.289,0.17,0.289,0.289v0.953h-0.191c-0.023-0.592-0.4-1.234-1.576-1.234c-1.545,0-2.049,1.064-2.055,2.328
					c-0.008,1.17,0.582,2.51,2.084,2.51c0.926,0,1.006-0.342,1.006-0.918v-0.451c0-0.689,0.029-0.65-0.783-0.732v-0.191h2.139v0.191
					c-0.668,0.082-0.637,0.043-0.637,0.732v1.287c-0.475,0.184-1.096,0.342-1.77,0.342C80.102,80.12,78.734,79.394,78.734,77.411z"
					/>
				<path fill="#5E6A71" d="M86.559,79.104c0,0.688-0.029,0.652,0.637,0.734v0.191h-1.99v-0.191
					c0.666-0.082,0.637-0.047,0.637-0.734v-4.016h-0.6c-0.643,0-0.791,0.406-1.037,0.895h-0.182l0.199-1.131h3.955l0.201,1.131
					h-0.186c-0.242-0.488-0.391-0.895-1.035-0.895h-0.6V79.104z"/>
				<path fill="#5E6A71" d="M88.379,77.538c0-1.6,1.242-2.775,2.779-2.775c1.605,0,2.537,1.383,2.537,2.523
					c0,1.561-1.168,2.834-2.803,2.834C89.48,80.12,88.379,78.974,88.379,77.538z M92.854,77.507c0-1.768-0.955-2.484-1.857-2.484
					c-1.258,0-1.773,1.123-1.773,2.131c0,1.789,0.916,2.707,1.869,2.707C92.469,79.86,92.854,78.499,92.854,77.507z"/>
				<path fill="#5E6A71" d="M98.467,80.03c-1.176-1.391-2.395-2.848-3.602-4.27v3.271c0,0.152,0.029,0.279,0.045,0.398
					c0.037,0.266,0.287,0.369,0.775,0.408v0.191h-1.812v-0.191c0.355-0.039,0.6-0.143,0.637-0.408
					c0.016-0.119,0.045-0.246,0.045-0.398v-3.486c-0.207-0.266-0.438-0.502-0.859-0.502v-0.191h1.348
					c1.102,1.338,2.248,2.699,3.35,4.037h0.014v-3.039c0-0.156-0.029-0.283-0.043-0.4c-0.037-0.266-0.287-0.367-0.775-0.406v-0.191
					h1.811v0.191c-0.346,0.039-0.598,0.141-0.637,0.406c-0.014,0.117-0.043,0.244-0.043,0.4v4.18H98.467z"/>
				<path fill="#5E6A71" d="M57.158,73.862v-0.008h-2v0.246c0.771,0.01,0.898,0.285,0.695,0.869l-1.516,4.123h-0.082l-1.783-5.154
					h-0.451l-1.875,5.154H50.02l-1.342-4.096c-0.191-0.648,0.074-0.896,0.676-0.896v-0.246h-2.375v0.246
					c0.506,0,0.596,0.395,0.92,1.326l1.725,5.094h0.453l1.844-5.195l1.818,5.201h0.508c0.777-2.068,1.871-5.131,2.273-5.953
					c0.15-0.311,0.422-0.469,0.674-0.469v-0.242H57.158z"/>
				<path fill="#5E6A71" d="M62.357,77.267c-0.771-0.58-1.314-0.906-1.314-1.447c0-0.574,0.402-0.807,0.85-0.807
					c0.621,0,0.914,0.434,0.977,0.977h0.201v-1.014c0-0.039-0.008-0.07-0.055-0.084c-0.309-0.109-0.75-0.148-1.082-0.148
					c-0.891,0-1.664,0.549-1.664,1.246c0,0.379,0.104,0.646,0.256,0.854h-0.002c0.002,0.002,0.006,0.004,0.01,0.008
					c0.186,0.25,0.443,0.41,0.672,0.562c1.162,0.766,1.432,1.176,1.432,1.68c0,0.467-0.352,0.936-0.998,0.98
					c-0.662,0.049-1.514-0.271-1.873-1.201c-0.318-0.891-0.965-2.764-1.402-4.059h-0.426c-0.609,1.625-1.438,4.01-1.754,4.656
					c-0.117,0.242-0.33,0.367-0.529,0.367v0.191h0.316h1.021v-0.191c-0.324,0-0.463-0.242-0.367-0.531l0.338-0.982h1.875
					l0.316,0.947l0.244,0.73c0,0,1.314,0.344,2.17,0.344c0.93,0,1.873-0.51,1.873-1.432C63.441,78.272,63.178,77.876,62.357,77.267z
					 M57.074,78.044l0.875-2.391h0.014l0.779,2.391H57.074z"/>
			</g>
		</g>
	</g>
</g>
<g id="Guides_and_measurements" display="none">
	<rect x="45.529" y="63.304" display="inline" width="6" height="6"/>
	<rect x="43.654" y="1.556" display="inline" width="6" height="6"/>
	<rect x="36.908" y="23.817" display="inline" width="10.99" height="10.99"/>
	<rect x="25.161" y="23.817" display="inline" width="10.99" height="10.99"/>
	<rect id="box-above_WSU_2_" x="49.03" y="42.511" display="inline" width="14.058" height="14.058"/>
</g>
</svg>
