<?xml version="1.0" encoding="utf-8"?>
<!-- Generator: Adobe Illustrator 16.0.0, SVG Export Plug-In . SVG Version: 6.00 Build 0)  -->
<!DOCTYPE svg PUBLIC "-//W3C//DTD SVG 1.1//EN" "http://www.w3.org/Graphics/SVG/1.1/DTD/svg11.dtd">
<svg version="1.1" id="Layer_1" xmlns="http://www.w3.org/2000/svg" xmlns:xlink="http://www.w3.org/1999/xlink" x="0px" y="0px"
	 width="300.227px" height="70.75px" viewBox="19.387 0 300.227 70.75" enable-background="new 19.387 0 300.227 70.75"
	 xml:space="preserve">
<g>
	
		<text transform="matrix(1 0 0 1 66.7009 74.8491)" display="none" fill="#5E6A71" enable-background="new    " font-family="'StoneSansStd-Medium'" font-size="7.7582">ZVANCOUVER</text>
	<g id="Good_WSU">
		<g>
			<g>
				<path fill="#5E6A71" d="M174.98,61.535c-0.793-0.595-1.346-0.926-1.346-1.479c0-0.586,0.41-0.824,0.869-0.824
					c0.633,0,0.934,0.443,0.996,0.998h0.207v-1.037c0-0.04-0.008-0.07-0.056-0.086c-0.317-0.111-0.768-0.15-1.106-0.15
					c-0.91,0-1.701,0.562-1.701,1.273c0,0.385,0.105,0.66,0.262,0.87h-0.004c0.004,0.005,0.01,0.008,0.012,0.01
					c0.191,0.257,0.455,0.419,0.688,0.574c1.186,0.784,1.455,1.203,1.463,1.716c0.023,1.143-2.117,1.743-3.522-0.449l-0.73-1.113
					c0.574-0.225,1.043-0.754,1.043-1.521c0-0.875-0.752-1.27-1.506-1.27h-2.172v0.195c0.67,0.079,0.641,0.043,0.641,0.735v3.36
					c0,0.695,0.029,0.656-0.641,0.738v0.194h2.008v-0.194c-0.672-0.082-0.645-0.043-0.645-0.738v-1.381h0.704
					c0.9,1.5,1.125,2.151,1.58,2.313c0.101,0.035,1.271,0.412,2.101,0.412c0.949,0,1.963-0.522,1.963-1.464
					C176.086,62.563,175.818,62.16,174.98,61.535z M170.361,61.796h-0.623v-2.434h0.576c0.545,0,0.994,0.283,0.994,1.1
					C171.309,61.305,171.01,61.796,170.361,61.796z"/>
				<path fill="#5E6A71" d="M155.344,64.262c0,0,0,0-3.652-4.327v3.314c0,0.155,0.031,0.285,0.045,0.404
					c0.037,0.271,0.293,0.374,0.789,0.413v0.194h-1.84v-0.194c0.363-0.039,0.607-0.144,0.646-0.413
					c0.014-0.119,0.043-0.249,0.043-0.404v-3.533c-0.207-0.27-0.441-0.51-0.867-0.51v-0.195h1.363
					c1.116,1.359,2.28,2.738,3.397,4.097h0.015v-3.084c0-0.157-0.029-0.282-0.046-0.403c-0.036-0.271-0.291-0.375-0.786-0.414
					v-0.194h1.838v0.194c-0.353,0.039-0.607,0.143-0.646,0.414c-0.014,0.121-0.043,0.246-0.043,0.403v4.238H155.344z"/>
				<path fill="#5E6A71" d="M158.291,63.324c0,0.7-0.029,0.661,0.645,0.744v0.194h-2.018v-0.194
					c0.676-0.083,0.645-0.044,0.645-0.744v-3.373c0-0.697,0.031-0.66-0.645-0.744v-0.191h2.018v0.191
					c-0.674,0.084-0.645,0.047-0.645,0.744V63.324z"/>
				<path fill="#5E6A71" d="M167.834,62.914c-0.347,0.803-0.293,1.11-1.379,1.11c-0.677,0-0.97-0.056-0.97-0.69v-1.696h0.632
					c0.502,0,0.676,0.265,0.688,0.706H167v-1.6h-0.193c-0.014,0.467-0.217,0.653-0.688,0.653h-0.632v-2.144h1.189
					c0.539,0,0.691,0.41,0.764,0.967h0.195v-1.206h-3.455h-1.484v0.192c0.509,0,0.705,0.231,0.519,0.705
					c-0.467,1.147-0.924,2.303-1.404,3.449c-0.391-1.139-0.824-2.429-1.115-3.312c-0.25-0.721,0.054-0.842,0.466-0.842v-0.192
					h-1.908v0.192c0.363,0,0.459,0.231,0.738,1.033c0.454,1.277,0.967,2.725,1.426,4.021h0.381c0.631-1.537,1.268-3.067,1.896-4.604
					c0.158-0.378,0.271-0.453,0.488-0.453c0.676,0.084,0.578,0.047,0.578,0.744v3.373c0,0.7,0.098,0.661-0.578,0.744v0.193h3.623
					l0.228-1.35h-0.197V62.914z"/>
				<path fill="#5E6A71" d="M177.881,63.324c0,0.7-0.031,0.661,0.645,0.744v0.194h-2.018v-0.194
					c0.676-0.083,0.646-0.044,0.646-0.744v-3.373c0-0.697,0.029-0.66-0.646-0.744v-0.191h2.018v0.191
					c-0.676,0.084-0.645,0.047-0.645,0.744V63.324z"/>
				<path fill="#5E6A71" d="M185.553,59.014v0.192c0.441,0,0.682,0.217,0.426,0.676l-1.035,1.884l-0.907-1.884
					c-0.187-0.391-0.238-0.676,0.33-0.676v-0.192h-1.259h-0.52h-3.492l-0.203,1.146h0.188c0.248-0.494,0.396-0.906,1.049-0.906
					h0.608v4.07c0,0.7,0.029,0.661-0.645,0.744v0.194h2.018v-0.194c-0.676-0.083-0.646-0.044-0.646-0.744v-4.07h0.609
					c0.612,0,1.026,0.367,1.278,0.824l1.06,2.094v1.152c0,0.7,0.028,0.661-0.646,0.744v0.194h2.017v-0.194
					c-0.675-0.083-0.646-0.044-0.646-0.744v-0.839c0-0.188,0.016-0.397,0.09-0.547l1.252-2.272c0.203-0.36,0.404-0.459,0.615-0.459
					v-0.191L185.553,59.014L185.553,59.014z"/>
			</g>
			<path fill="#5E6A71" d="M150.537,57.957l-2.363,0.006v0.195c0.475,0.051,0.816,0.258,0.867,0.623
				c0.02,0.16,0.061,0.331,0.061,0.543v2.805c0,1.615-0.727,2.541-2.106,2.541c-1.504,0-1.955-1.078-1.955-2.491v-2.955
				c0-0.938,0.026-0.954,0.936-1.065v-0.195h-2.715v0.195c0.91,0.111,0.869,0.129,0.869,1.065v3.006
				c0,1.826,0.666,2.917,2.812,2.917c1.304,0,2.687-0.807,2.687-2.977v-2.846c0-0.018,0-0.033,0-0.05
				c-0.008-0.876,0.332-1.004,0.904-1.096L150.537,57.957z"/>
		</g>
		<g>
			<path fill="#5E6A71" d="M124.535,59.348c-0.08-0.704-0.462-1.267-1.267-1.267c-0.583,0-1.172,0.303-1.172,1.045
				c0,0.703,0.703,1.125,1.708,1.879c1.064,0.793,1.407,1.307,1.407,2.14c0,1.196-1.16,1.858-2.364,1.858
				c-0.645,0-1.197-0.121-1.72-0.32c-0.039-0.021-0.069-0.062-0.069-0.141v-1.447h0.261c0.112,1.113,0.844,1.558,1.617,1.558
				c0.714,0,1.362-0.543,1.362-1.276c0-0.653-0.353-1.187-1.858-2.18c-0.542-0.361-1.215-0.755-1.215-1.849
				c0-0.906,0.938-1.618,2.092-1.618c0.433,0,1.006,0.051,1.407,0.191c0.062,0.018,0.07,0.062,0.07,0.109v1.316L124.535,59.348
				L124.535,59.348z"/>
			<path fill="#5E6A71" d="M127.748,63.298c0,0.697-0.029,0.656,0.643,0.742v0.19h-2.009v-0.19c0.672-0.086,0.643-0.045,0.643-0.742
				v-4.057h-0.605c-0.65,0-0.8,0.412-1.046,0.903h-0.186l0.2-1.144h3.996l0.202,1.144h-0.188c-0.247-0.491-0.396-0.903-1.045-0.903
				h-0.605V63.298z"/>
			<path fill="#5E6A71" d="M130.355,62.5l-0.342,1.002c-0.098,0.293,0.044,0.539,0.374,0.539v0.19h-1.36v-0.19
				c0.201,0,0.418-0.131,0.538-0.375c0.321-0.658,1.194-3.101,1.815-4.752h0.418c0.507,1.502,1.269,3.805,1.522,4.469
				c0.166,0.416,0.284,0.658,0.604,0.658v0.19h-1.74v-0.19c0.473,0,0.519-0.246,0.397-0.576L132.26,62.5H130.355z M132.165,62.216
				l-0.792-2.428h-0.017l-0.888,2.428H132.165z"/>
			<path fill="#5E6A71" d="M135.967,63.298c0,0.697-0.029,0.656,0.641,0.742v0.19h-2.01v-0.19c0.674-0.086,0.646-0.045,0.646-0.742
				v-4.057h-0.607c-0.649,0-0.797,0.412-1.045,0.903h-0.188l0.203-1.144h3.996l0.201,1.144h-0.188
				c-0.244-0.491-0.394-0.903-1.043-0.903h-0.605L135.967,63.298L135.967,63.298z"/>
			<path fill="#5E6A71" d="M138.154,64.041c0.677-0.084,0.578-0.045,0.578-0.74v-3.362c0-0.694,0.099-0.657-0.578-0.739v-0.193
				h3.273v1.201h-0.195c-0.073-0.551-0.223-0.963-0.76-0.963h-1.018v2.139h0.627c0.471,0,0.672-0.188,0.688-0.65h0.193v1.59h-0.193
				c-0.016-0.441-0.186-0.701-0.688-0.701h-0.627v1.688c0,0.637,0.291,0.689,0.965,0.689c1.082,0,1.029-0.309,1.375-1.107h0.192
				l-0.225,1.344h-3.609L138.154,64.041L138.154,64.041z"/>
		</g>
		<g>
			<path fill="#5E6A71" d="M85.043,63.306c0,0.695-0.03,0.656,0.642,0.738v0.195h-2.008v-0.195c0.671-0.082,0.642-0.043,0.642-0.738
				v-3.362c0-0.692-0.322-0.655-0.994-0.737v-0.191h2.361v0.191c-0.672,0.082-0.642,0.045-0.642,0.737v1.294h2.621v-1.294
				c0-0.692,0.028-0.655-0.644-0.737v-0.191h2.009v0.191c-0.671,0.082-0.642,0.045-0.642,0.737v3.362
				c0,0.695-0.029,0.656,0.642,0.738v0.195h-2.009v-0.195c0.672-0.082,0.644-0.043,0.644-0.738v-1.764h-2.621L85.043,63.306
				L85.043,63.306z"/>
			<path fill="#5E6A71" d="M91.22,63.306c0,0.695-0.031,0.656,0.642,0.738v0.195h-2.008v-0.195c0.671-0.082,0.643-0.043,0.643-0.738
				v-3.362c0-0.692,0.029-0.655-0.643-0.737v-0.191h2.008v0.191c-0.672,0.082-0.642,0.045-0.642,0.737V63.306z"/>
			<path fill="#5E6A71" d="M97.427,64.24c-1.187-1.404-2.419-2.875-3.636-4.31v3.303c0,0.154,0.028,0.281,0.045,0.401
				c0.037,0.27,0.29,0.373,0.783,0.41v0.195H92.79v-0.195c0.357-0.037,0.604-0.142,0.643-0.41c0.014-0.12,0.044-0.247,0.044-0.401
				v-3.521c-0.21-0.269-0.44-0.506-0.867-0.506v-0.192h1.359c1.113,1.349,2.27,2.724,3.382,4.073h0.016v-3.066
				c0-0.158-0.03-0.285-0.046-0.404c-0.035-0.269-0.292-0.373-0.783-0.41v-0.191h1.83v0.191c-0.352,0.037-0.604,0.143-0.645,0.41
				c-0.014,0.119-0.043,0.246-0.043,0.404v4.219H97.427z"/>
			<path fill="#5E6A71" d="M98.528,61.595c0-1.149,0.972-2.674,2.986-2.674c0.725,0,1.068,0.136,1.435,0.256
				c0.209,0.066,0.292,0.171,0.292,0.289v0.965h-0.194c-0.022-0.6-0.403-1.248-1.59-1.248c-1.562,0-2.068,1.074-2.076,2.354
				c-0.007,1.18,0.59,2.531,2.105,2.531c0.935,0,1.017-0.345,1.017-0.926v-0.456c0-0.694,0.029-0.657-0.792-0.739v-0.193h2.158
				v0.193c-0.673,0.082-0.642,0.045-0.642,0.739v1.3c-0.479,0.188-1.105,0.344-1.786,0.344C99.91,64.33,98.528,63.597,98.528,61.595
				z"/>
			<path fill="#5E6A71" d="M106.429,63.306c0,0.695-0.03,0.656,0.642,0.738v0.195h-2.009v-0.195
				c0.671-0.082,0.643-0.043,0.643-0.738v-4.055h-0.605c-0.648,0-0.798,0.408-1.045,0.902h-0.186l0.202-1.141h3.995l0.201,1.141
				h-0.187c-0.246-0.494-0.396-0.902-1.045-0.902h-0.605L106.429,63.306L106.429,63.306z"/>
			<path fill="#5E6A71" d="M108.266,61.722c0-1.614,1.255-2.801,2.809-2.801c1.619,0,2.561,1.396,2.561,2.547
				c0,1.576-1.18,2.859-2.831,2.859C109.378,64.33,108.266,63.171,108.266,61.722z M112.782,61.694c0-1.786-0.963-2.511-1.874-2.511
				c-1.27,0-1.791,1.136-1.791,2.15c0,1.809,0.925,2.733,1.888,2.733C112.395,64.068,112.782,62.694,112.782,61.694z"/>
			<path fill="#5E6A71" d="M118.451,64.24c-1.188-1.404-2.421-2.875-3.638-4.31v3.303c0,0.154,0.029,0.281,0.044,0.401
				c0.038,0.27,0.291,0.373,0.784,0.41v0.195h-1.829v-0.195c0.359-0.037,0.605-0.142,0.644-0.41c0.015-0.12,0.044-0.247,0.044-0.401
				v-3.521c-0.208-0.269-0.44-0.506-0.866-0.506v-0.192h1.359c1.111,1.349,2.269,2.724,3.383,4.073h0.014v-3.066
				c0-0.158-0.03-0.285-0.044-0.404c-0.038-0.269-0.291-0.373-0.785-0.41v-0.191h1.829v0.191c-0.35,0.037-0.604,0.143-0.641,0.41
				c-0.016,0.119-0.045,0.246-0.045,0.404v4.219H118.451z"/>
			<path fill="#5E6A71" d="M76.642,58.013v-0.01h-2.02v0.25c0.779,0.01,0.906,0.287,0.702,0.877l-1.528,4.162H73.71l-1.8-5.203
				h-0.456l-1.892,5.203h-0.129L68.08,59.16c-0.192-0.656,0.077-0.904,0.683-0.904v-0.25h-2.396v0.25
				c0.509,0,0.601,0.396,0.928,1.338l1.74,5.145h0.458l1.86-5.248l1.835,5.252h0.514c0.784-2.088,1.89-5.18,2.296-6.01
				c0.151-0.312,0.425-0.475,0.681-0.475v-0.243L76.642,58.013L76.642,58.013z"/>
			<path fill="#5E6A71" d="M82.013,61.433c-0.786-0.59-1.336-0.918-1.336-1.469c0-0.582,0.409-0.817,0.864-0.817
				c0.629,0,0.927,0.44,0.989,0.991h0.204v-1.03c0-0.039-0.008-0.069-0.056-0.086c-0.312-0.108-0.762-0.149-1.099-0.149
				c-0.904,0-1.689,0.558-1.689,1.267c0,0.382,0.106,0.655,0.261,0.864h-0.003c0.003,0.004,0.006,0.006,0.011,0.01
				c0.189,0.254,0.451,0.417,0.683,0.57c1.179,0.777,1.454,1.193,1.454,1.705c0,0.475-0.357,0.951-1.014,1
				c-0.673,0.045-1.537-0.279-1.9-1.223c-0.324-0.904-0.98-2.809-1.425-4.121h-0.434c-0.62,1.65-1.46,4.07-1.781,4.727
				c-0.119,0.246-0.335,0.373-0.537,0.373v0.195h0.321h1.037v-0.195c-0.329,0-0.471-0.246-0.374-0.537l0.345-1h1.903l0.321,0.963
				l0.247,0.742c0,0,1.335,0.35,2.204,0.35c0.942,0,1.9-0.52,1.9-1.453C83.112,62.457,82.846,62.054,82.013,61.433z M76.646,62.223
				l0.89-2.429h0.015l0.792,2.429H76.646z"/>
		</g>
	</g>
	<g>
		<path fill="#5E6A71" d="M69.779,21.151L64.183,6.2l2.141-0.389c1.469,4.127,2.917,8.275,4.363,12.921h0.043
			c1.514-4.646,3.068-8.794,4.604-12.921l1.88,0.26l-6.028,15.081L69.779,21.151L69.779,21.151z"/>
		<path fill="#5E6A71" d="M78.439,6.783c0-0.54,0.453-1.146,1.231-1.146c0.776,0,1.23,0.605,1.23,1.146
			c0,0.583-0.28,1.318-1.23,1.318S78.439,7.366,78.439,6.783z M80.644,10.348v10.803h-1.944V10.348H80.644z"/>
		<path fill="#5E6A71" d="M86.237,10.348h2.83v1.124h-2.83v6.115c0,1.512,0.304,2.42,1.491,2.42c0.713,0,1.123-0.173,1.49-0.368
			l0.476,1.081c-0.67,0.432-1.469,0.691-2.203,0.691c-2.16,0-3.197-1.253-3.197-3.457v-6.482H82.78v-1.124h1.514V7.755l1.943-0.648
			V10.348z"/>
		<path fill="#5E6A71" d="M91.032,6.783c0-0.54,0.452-1.146,1.23-1.146c0.777,0,1.231,0.605,1.231,1.146
			c0,0.583-0.281,1.318-1.231,1.318C91.312,8.101,91.032,7.366,91.032,6.783z M93.235,10.348v10.803h-1.943V10.348H93.235z"/>
		<path fill="#5E6A71" d="M104.729,20.287c-1.059,0.756-2.333,1.124-3.263,1.124c-5.12,0-5.77-4.192-5.77-5.683
			c0-2.701,1.794-5.639,5.855-5.639c1.102,0,2.096,0.281,2.896,0.886l-0.648,1.102c-0.627-0.302-1.426-0.562-2.226-0.562
			c-1.771,0-3.781,1.167-3.781,4.105c0,2.247,1.146,4.364,3.76,4.364c0.929,0,1.793-0.237,2.636-0.777L104.729,20.287z"/>
		<path fill="#5E6A71" d="M114.038,19.898c-1.103,0.95-2.074,1.512-3.479,1.512c-2.483,0-3.824-1.383-3.824-4.105v-6.958h1.944
			v6.525c0,2.031,0.864,3.111,2.614,3.111c1.491,0,2.723-1.231,2.723-3.327v-6.309h1.944V21.15h-1.923L114.038,19.898
			L114.038,19.898z"/>
		<path fill="#5E6A71" d="M119.155,21.151V5.271h1.945v15.881L119.155,21.151L119.155,21.151z"/>
		<path fill="#5E6A71" d="M126.694,10.348h2.83v1.124h-2.83v6.115c0,1.512,0.304,2.42,1.491,2.42c0.713,0,1.123-0.173,1.49-0.368
			l0.476,1.081c-0.67,0.432-1.469,0.691-2.204,0.691c-2.159,0-3.196-1.253-3.196-3.457v-6.482h-1.514v-1.124h1.514V7.755
			l1.943-0.648V10.348z"/>
		<path fill="#5E6A71" d="M138.965,19.898c-1.103,0.95-2.074,1.512-3.479,1.512c-2.484,0-3.823-1.383-3.823-4.105v-6.958h1.943
			v6.525c0,2.031,0.864,3.111,2.614,3.111c1.491,0,2.723-1.231,2.723-3.327v-6.309h1.944V21.15h-1.923L138.965,19.898
			L138.965,19.898z"/>
		<path fill="#5E6A71" d="M145.983,11.688l0.778-0.821c0.453-0.454,1.167-0.778,1.62-0.778c0.476,0,1.188,0.346,1.793,1.059
			l-0.886,1.253c-0.476-0.238-0.95-0.454-1.447-0.454c-0.994,0-1.815,0.994-1.815,3.392v5.812h-1.943V10.348h1.9V11.688
			L145.983,11.688z"/>
		<path fill="#5E6A71" d="M152.874,15.879c-0.021,2.161,1.512,4.148,3.65,4.148c0.993,0,2.204-0.367,2.96-0.929l0.562,1.059
			c-1.123,0.8-2.463,1.253-3.587,1.253c-3.37,0-5.597-2.074-5.597-5.877c0-3.738,2.681-5.445,5.121-5.445
			c3.284,0,4.387,2.96,4.17,5.791H152.874z M158.384,14.583c0-1.686-0.714-3.111-2.42-3.111c-2.074,0-2.896,1.729-2.961,3.111
			H158.384z"/>
		<path fill="#5E6A71" d="M178.991,16.571c0.626-1.275,0.216-3.5-0.628-4.71h-2.116l0.646-1.339h6.482l-0.67,1.339h-2.551
			c0.778,1.253,1.037,3.695,0,5.748l3.307,2.831l-1.923,0.972l-2.463-2.269c-1.167,1.318-2.874,2.269-4.971,2.269
			c-4.71,0-5.38-3.586-5.38-4.516c0-1.988,1.447-3.543,3.241-4.365c-0.843-0.799-1.966-1.836-1.966-3.392
			c0-1.772,1.62-3.371,4.04-3.371c1.146,0,2.139,0.346,3.09,1.037l-0.757,1.21c-0.367-0.238-1.21-0.734-2.14-0.734
			c-1.403,0-2.116,0.799-2.116,1.75c0,0.864,0.539,1.664,2.03,3.025L178.991,16.571z M172.919,13.567
			c-1.361,0.756-1.944,1.88-1.944,3.133c0,1.383,1.08,3.284,3.371,3.284c1.663,0,3.046-0.95,3.673-1.836L172.919,13.567z"/>
		<path fill="#5E6A71" d="M73.561,30.339h-5.357v4.883h5.25v1.513h-5.25v5.703h6.287v1.515h-8.384V28.827h7.454V30.339z"/>
		<path fill="#5E6A71" d="M78.008,34.487c1.016-1.08,2.571-1.598,3.695-1.598c2.483,0,3.823,1.383,3.823,4.106v6.957h-1.943v-6.548
			c0-2.031-0.864-3.09-2.615-3.09c-1.533,0-2.938,1.059-2.938,3.134v6.504h-1.944V33.148h1.923V34.487z"/>
		<path fill="#5E6A71" d="M87.446,38.419c0-3.5,2.594-5.531,5.315-5.531s5.337,2.032,5.337,5.531c0,3.35-2.14,5.791-5.337,5.791
			C89.585,44.21,87.446,41.769,87.446,38.419z M89.542,38.419c0,2.031,0.69,4.408,3.22,4.408c2.55,0,3.241-2.377,3.241-4.408
			c0-1.944-0.8-4.147-3.241-4.147C90.342,34.272,89.542,36.475,89.542,38.419z"/>
		<path fill="#5E6A71" d="M100.018,43.953V28.07h1.944v15.881h-1.944V43.953z"/>
		<path fill="#5E6A71" d="M103.884,38.419c0-3.5,2.593-5.531,5.315-5.531c2.722,0,5.337,2.032,5.337,5.531
			c0,3.35-2.141,5.791-5.337,5.791C106.022,44.21,103.884,41.769,103.884,38.419z M105.979,38.419c0,2.031,0.691,4.408,3.221,4.408
			c2.55,0,3.24-2.377,3.24-4.408c0-1.944-0.8-4.147-3.24-4.147C106.779,34.272,105.979,36.475,105.979,38.419z"/>
		<path fill="#5E6A71" d="M126.156,43.563c0,4.126-2.57,5.789-5.486,5.789c-1.601,0-3.198-0.302-4.451-1.08l0.54-1.274
			c1.318,0.758,2.528,0.973,3.867,0.973c2.226,0,3.587-1.426,3.587-4.256v-1.469h-0.043c-0.756,1.059-1.901,1.965-3.608,1.965
			c-2.98,0-4.84-2.332-4.84-5.789c0-2.81,2.074-5.532,5.164-5.532c1.296,0,2.679,0.648,3.284,1.75h0.043v-1.491h1.943V43.563z
			 M124.212,38.205c0-2.031-1.103-3.933-3.219-3.933c-2.248,0-3.178,1.771-3.178,4.062c0,2.312,0.994,4.494,3.047,4.494
			C123.218,42.828,124.212,40.602,124.212,38.205z"/>
		<path fill="#5E6A71" d="M129.307,32.932c1.104,2.745,2.227,5.51,3.306,8.772h0.045c1.122-3.263,2.246-6.028,3.392-8.772
			l1.707,0.411l-5.553,12.51c-1.017,2.291-2.355,3.5-4.213,3.5h-0.974V47.97h0.756c1.34,0,2.291-0.346,3.825-4.623l-4.235-9.874
			L129.307,32.932z"/>
		<path fill="#5E6A71" d="M146.891,43.953h-2.097V28.827h3.803c3.198,0,5.164,1.426,5.164,4.365c0,2.549-2.182,4.862-5.574,4.862
			h-0.67v-1.385l0.691-0.021c2.03-0.108,3.306-1.189,3.306-3.436c0-1.664-0.929-2.874-3.176-2.874h-1.447V43.953L146.891,43.953z"/>
		<path fill="#5E6A71" d="M157.538,34.487l0.777-0.82c0.453-0.454,1.167-0.778,1.62-0.778c0.477,0,1.188,0.346,1.793,1.059
			l-0.886,1.253c-0.475-0.237-0.95-0.454-1.447-0.454c-0.994,0-1.814,0.994-1.814,3.393v5.812h-1.944V33.148h1.901V34.487
			L157.538,34.487z"/>
		<path fill="#5E6A71" d="M161.879,38.419c0-3.5,2.593-5.531,5.314-5.531c2.723,0,5.338,2.032,5.338,5.531
			c0,3.35-2.141,5.791-5.338,5.791C164.018,44.21,161.879,41.769,161.879,38.419z M163.975,38.419c0,2.031,0.691,4.408,3.22,4.408
			c2.55,0,3.24-2.377,3.24-4.408c0-1.944-0.799-4.147-3.24-4.147C164.774,34.272,163.975,36.475,163.975,38.419z"/>
		<path fill="#5E6A71" d="M184.151,43.563c0,4.126-2.569,5.789-5.486,5.789c-1.601,0-3.198-0.302-4.451-1.08l0.54-1.274
			c1.317,0.758,2.527,0.973,3.867,0.973c2.226,0,3.587-1.426,3.587-4.256v-1.469h-0.043c-0.757,1.059-1.901,1.965-3.608,1.965
			c-2.98,0-4.84-2.332-4.84-5.789c0-2.81,2.074-5.532,5.164-5.532c1.296,0,2.679,0.648,3.284,1.75h0.043v-1.491h1.943V43.563z
			 M182.207,38.205c0-2.031-1.103-3.933-3.221-3.933c-2.245,0-3.176,1.771-3.176,4.062c0,2.312,0.994,4.494,3.047,4.494
			C181.213,42.828,182.207,40.602,182.207,38.205z"/>
		<path fill="#5E6A71" d="M188.663,34.487l0.777-0.82c0.453-0.454,1.167-0.778,1.62-0.778c0.477,0,1.188,0.346,1.793,1.059
			l-0.886,1.253c-0.475-0.237-0.95-0.454-1.447-0.454c-0.994,0-1.814,0.994-1.814,3.393v5.812h-1.944V33.148h1.901V34.487
			L188.663,34.487z"/>
		<path fill="#5E6A71" d="M198.773,42.785c-0.756,0.756-1.706,1.426-2.699,1.426c-1.815,0-3.068-1.295-3.068-3.326
			c0-1.881,1.599-3.068,3.846-3.738l2.614-0.82c-0.086-1.318-1.103-2.161-2.16-2.161c-1.253,0-2.053,0.519-2.831,1.167l-0.756-0.973
			c1.08-1.037,2.183-1.469,3.695-1.469c1.62,0,3.997,0.519,3.997,3.672v4.754c0,0.821,0.106,1.857,0.475,2.637h-2.117
			c-0.259-0.453-0.303-1.146-0.303-1.836L198.773,42.785z M197.607,38.162c-1.707,0.519-2.593,1.34-2.593,2.7
			c0,1.123,0.777,1.837,1.556,1.837c1.384,0,3.154-1.707,2.896-5.078L197.607,38.162z"/>
		<path fill="#5E6A71" d="M205.922,34.487c0.886-1.037,2.183-1.598,3.371-1.598c1.707,0,2.766,0.713,3.436,1.598
			c1.037-0.95,2.506-1.598,3.716-1.598c2.398,0,3.608,1.555,3.675,3.846v7.218h-1.945v-6.439c0-1.555-0.389-3.111-2.377-3.111
			c-1.643,0-2.767,0.865-2.767,3.047v6.504h-1.943v-6.438c0-2.031-0.864-3.111-2.441-3.111c-1.642,0-2.7,1.059-2.7,3.134v6.418
			h-1.944V33.148h1.923v1.339H205.922z"/>
	</g>
	<rect x="55.545" fill="#5E6A71" width="0.75" height="70.75"/>
	<g>
		<path fill="#5E6A71" d="M36.832,32.816l-4.615,3.29l-4.619-3.29c-3.283-2.246-6.098-4.17-7.572-7.094
			c1.218,5.48,6.574,7.529,12.191,11.924c5.613-4.395,10.971-6.444,12.188-11.924C42.93,28.646,40.115,30.57,36.832,32.816z"/>
		<path fill="#981E32" d="M19.387,6.021v0.574c0.357,0.125,0.473,0.236,0.512,0.76v13.242c0,7.365,5.994,9.314,12.32,14.262
			c6.324-4.948,12.32-6.897,12.32-14.262V7.205c0.047-0.4,0.174-0.498,0.496-0.609V6.021H19.387z"/>
		<g>
			<g>
				<g>
					<path fill="#FFFFFF" d="M34.713,27.582c0,0,1.022-0.438,1.586-2.131c0.494,1.033,0.365,2.094,0.365,2.094
						C36.209,27.646,34.713,27.582,34.713,27.582z"/>
					<path fill="#FFFFFF" d="M40.213,17.893c0,0,0.627,3.406-1.586,3.521c-2.135,0.111-3.142-3.1-3.142-3.1s0.517,6.277,3.509,5.863
						C42.365,23.713,40.213,17.893,40.213,17.893z"/>
				</g>
			</g>
			<path fill="#FFFFFF" d="M23.959,26.773c0-0.002,0.004-0.002,0.004-0.002c2.496-0.568,4.404-3.482,4.969-4.65l0.355-0.74
				l0.215,0.791c0.012,0.043,0.244,0.918,0.244,2.072c0,0.129-0.006,0.26-0.013,0.393c0.861,0.033,1.478-0.141,1.859-0.539
				c0.547-0.566,0.713-1.641,0.506-3.283c-0.098-0.785-0.389-2.037-0.646-3.139c-0.132-0.564-0.257-1.098-0.33-1.477
				c-0.482-2.412,0.114-3.91,0.701-4.74c0.094-0.131,0.192-0.256,0.299-0.373c-1.728,0.582-3.177,1.486-4.668,2.979l1.051,1.219
				l0.43-0.402c0.406,1.516,0.113,2.908,0.113,2.908c-0.553-0.842-1.205-1.525-1.205-1.525l0.285-0.479l-0.947-1.102l-0.108-0.123
				c-1.164,1.602-1.541,2.91-1.541,2.91l0.825,0.756l0.48,0.436L27,18.197c0.887,1.664,0.076,3.219,0.076,3.219
				c-0.146-0.566-0.73-1.404-0.73-1.404l0.23-0.764l-1.229-1.111c-1.279,3.994-2.986,5.289-2.986,5.289s1.849-0.334,2.877-0.68
				C25.238,22.746,25.209,24.852,23.959,26.773z"/>
			<path fill="#FFFFFF" d="M42.615,12.359l-2.953,0.123c0.002,0.35-0.045,0.701-0.156,1.035c0.275,1.205,0.084,1.859,0.084,1.859
				c-0.494-1.15-0.871-1.469-0.871-1.469c-2.711-1.205-4.234,1.518-4.07,3.275c0.134,1.445,0.656,3.361,1.064,6.369
				c0.344,2.529-0.937,3.623-2.41,3.875c-0.031,0.004-0.064,0.012-0.096,0.018c-0.011,0-0.017,0-0.023,0
				c-0.24,0.031-0.492,0.045-0.764,0.039c-0.006-0.002-0.019-0.002-0.025-0.002c-0.031,0-0.059-0.006-0.088-0.006
				c-0.115-0.006-0.229-0.018-0.34-0.031c-1.146-0.16-3.715-0.625-6.365-0.689c1.56-0.912,2.779-2.488,3.459-3.605
				c0.041,0.309,0.072,0.688,0.072,1.104c0,0.207-0.006,0.426-0.027,0.646l-0.024,0.307l0.305,0.025
				c1.221,0.105,2.086-0.127,2.648-0.711c0.692-0.721,0.905-1.922,0.672-3.783c-0.101-0.816-0.396-2.084-0.656-3.201
				c-0.129-0.559-0.252-1.09-0.326-1.457c-0.438-2.201,0.086-3.537,0.603-4.27c0.403-0.574,0.963-0.994,1.573-1.197
				c0.013-0.002,0.023-0.004,0.033-0.006l1.008-3.094h0.316l-0.676,2.975c0.155-0.027,0.313-0.053,0.477-0.078l0.869-2.742h0.314
				l-0.57,2.656c0.899-0.115,1.879-0.207,2.961-0.285c0.176,0.07,0.363,0.271,0.531,0.557l2.842-0.875l0.104,0.307l-2.715,1.053
				c0.021,0.057,0.041,0.113,0.06,0.174l2.971-0.369l0.049,0.318l-2.881,0.576c0.01,0.053,0.02,0.107,0.027,0.16l2.998,0.098
				L42.615,12.359z M34.061,13.686c0.597-0.416,1.607-0.738,2.562-0.666c0.239,0.02,0.442-0.045,0.184-0.182
				c-0.711-0.375-2.367-0.248-2.953,0.152c-0.938,0.641-0.781,1.781-0.76,1.809C33.279,14.473,33.598,14.012,34.061,13.686z"/>
		</g>
	</g>
	<g id="bad_wsu" display="none">
		<g display="inline">
			<path fill="#5E6A71" d="M124.346,59.438c-0.08-0.696-0.459-1.256-1.254-1.256c-0.576,0-1.16,0.299-1.16,1.034
				c0,0.695,0.695,1.115,1.691,1.861c1.053,0.785,1.393,1.293,1.393,2.119c0,1.184-1.147,1.84-2.342,1.84
				c-0.637,0-1.184-0.121-1.701-0.318c-0.039-0.02-0.068-0.061-0.068-0.139v-1.434h0.259c0.108,1.104,0.834,1.541,1.602,1.541
				c0.707,0,1.351-0.535,1.351-1.262c0-0.648-0.351-1.176-1.843-2.16c-0.537-0.355-1.203-0.746-1.203-1.828
				c0-0.898,0.929-1.604,2.074-1.604c0.426,0,0.994,0.049,1.392,0.188c0.061,0.021,0.069,0.062,0.069,0.108v1.306h-0.259V59.438z"/>
			<path fill="#5E6A71" d="M127.816,63.35c0,0.688-0.028,0.649,0.638,0.729v0.193h-1.99V64.08c0.666-0.08,0.637-0.043,0.637-0.729
				v-4.017h-0.6c-0.646,0-0.793,0.406-1.035,0.896h-0.187l0.199-1.133h3.957l0.199,1.133h-0.184
				c-0.244-0.487-0.392-0.896-1.035-0.896h-0.601L127.816,63.35L127.816,63.35z"/>
			<path fill="#5E6A71" d="M130.447,62.583l-0.334,0.976c-0.096,0.284,0.044,0.526,0.363,0.526v0.188h-1.326v-0.188
				c0.197,0,0.408-0.125,0.525-0.364c0.312-0.642,1.166-3.025,1.771-4.636h0.408c0.494,1.463,1.236,3.711,1.486,4.357
				c0.16,0.408,0.275,0.643,0.59,0.643v0.188h-1.697v-0.188c0.457,0,0.502-0.242,0.386-0.562l-0.314-0.938h-1.857V62.583z
				 M132.211,62.307l-0.773-2.369h-0.014l-0.865,2.369H132.211z"/>
			<path fill="#5E6A71" d="M135.953,63.35c0,0.688-0.027,0.649,0.637,0.729v0.193h-1.99V64.08c0.666-0.08,0.637-0.043,0.637-0.729
				v-4.017h-0.6c-0.643,0-0.791,0.406-1.035,0.896h-0.186l0.201-1.133h3.957l0.198,1.133h-0.186
				c-0.242-0.487-0.392-0.896-1.033-0.896h-0.602L135.953,63.35L135.953,63.35z"/>
			<path fill="#5E6A71" d="M138.121,64.082c0.666-0.08,0.571-0.043,0.571-0.73v-3.33c0-0.686,0.095-0.65-0.571-0.732v-0.19h3.239
				v1.188h-0.19c-0.074-0.545-0.221-0.951-0.754-0.951h-1.006v2.115h0.621c0.465,0,0.666-0.186,0.68-0.645h0.192v1.574h-0.192
				c-0.015-0.437-0.185-0.693-0.68-0.693h-0.621v1.67c0,0.631,0.289,0.682,0.952,0.682c1.074,0,1.021-0.305,1.361-1.096h0.191
				l-0.222,1.332h-3.573L138.121,64.082L138.121,64.082z"/>
		</g>
		<g display="inline">
			<g>
				<path fill="#5E6A71" d="M155.391,64.274c0,0,0,0-3.602-4.269v3.271c0,0.154,0.03,0.281,0.043,0.397
					c0.037,0.269,0.289,0.371,0.776,0.406v0.193h-1.811V64.08c0.354-0.035,0.598-0.139,0.635-0.406
					c0.017-0.116,0.045-0.243,0.045-0.397v-3.483c-0.207-0.267-0.438-0.502-0.856-0.502v-0.193h1.346
					c1.102,1.338,2.248,2.701,3.35,4.039h0.017v-3.039c0-0.156-0.029-0.283-0.045-0.4c-0.037-0.266-0.287-0.367-0.777-0.406v-0.192
					h1.812v0.192c-0.349,0.039-0.599,0.142-0.638,0.406c-0.014,0.117-0.043,0.244-0.043,0.4v4.178L155.391,64.274L155.391,64.274z"
					/>
			</g>
			<path fill="#5E6A71" d="M158.297,63.35c0,0.688-0.029,0.651,0.637,0.729v0.193h-1.99V64.08c0.666-0.078,0.638-0.043,0.638-0.729
				v-3.328c0-0.688,0.028-0.651-0.638-0.731v-0.191h1.99v0.191c-0.666,0.08-0.637,0.045-0.637,0.731V63.35z"/>
			<path fill="#5E6A71" d="M167.709,62.942c-0.34,0.793-0.289,1.097-1.361,1.097c-0.664,0-0.955-0.052-0.955-0.683v-1.67h0.623
				c0.496,0,0.664,0.26,0.68,0.694h0.191v-1.575h-0.191c-0.016,0.459-0.215,0.646-0.68,0.646h-0.623v-2.115h1.176
				c0.531,0,0.681,0.406,0.752,0.953h0.193v-1.189h-3.406h-1.467v0.191c0.502,0,0.695,0.229,0.51,0.694
				c-0.459,1.134-0.909,2.271-1.383,3.402c-0.385-1.123-0.812-2.396-1.1-3.271c-0.246-0.711,0.051-0.828,0.457-0.828v-0.19h-1.881
				v0.19c0.354,0,0.45,0.229,0.727,1.021c0.451,1.258,0.955,2.687,1.406,3.965h0.377c0.619-1.517,1.25-3.022,1.871-4.539
				c0.153-0.37,0.266-0.444,0.481-0.444c0.664,0.08,0.568,0.045,0.568,0.731v3.328c0,0.688,0.096,0.651-0.568,0.729v0.193h3.572
				l0.223-1.332L167.709,62.942L167.709,62.942z"/>
			<path fill="#5E6A71" d="M178.012,63.35c0,0.688-0.031,0.651,0.635,0.729v0.193h-1.989V64.08c0.665-0.078,0.637-0.043,0.637-0.729
				v-3.328c0-0.688,0.028-0.651-0.637-0.731v-0.191h1.989v0.191c-0.666,0.08-0.635,0.045-0.635,0.731V63.35z"/>
			<path fill="#5E6A71" d="M185.574,59.098v0.19c0.436,0,0.674,0.213,0.422,0.666l-1.021,1.857l-0.895-1.857
				c-0.187-0.385-0.236-0.666,0.323-0.666v-0.19h-1.237h-0.515h-3.444l-0.201,1.131h0.188c0.242-0.487,0.392-0.896,1.033-0.896
				h0.603v4.017c0,0.688,0.028,0.651-0.638,0.729v0.193h1.99V64.08c-0.666-0.078-0.637-0.043-0.637-0.729v-4.017h0.6
				c0.605,0,1.015,0.361,1.265,0.812l1.041,2.064v1.139c0,0.688,0.028,0.652-0.636,0.73v0.192h1.988V64.08
				c-0.664-0.078-0.635-0.043-0.635-0.73v-0.828c0-0.184,0.014-0.393,0.088-0.539l1.234-2.242c0.2-0.355,0.399-0.451,0.606-0.451
				v-0.19H185.574z"/>
			<path fill="#5E6A71" d="M150.629,57.977l-2.33,0.006v0.192c0.467,0.052,0.807,0.257,0.854,0.615
				c0.021,0.158,0.06,0.326,0.06,0.537v2.764c0,1.593-0.717,2.509-2.078,2.509c-1.482,0-1.928-1.063-1.928-2.459v-2.914
				c0-0.924,0.026-0.94,0.924-1.052v-0.192h-2.678v0.192c0.896,0.109,0.854,0.128,0.854,1.052v2.965
				c0,1.802,0.658,2.877,2.775,2.877c1.283,0,2.646-0.797,2.646-2.938v-2.803c0-0.02,0-0.035,0-0.051
				c-0.008-0.863,0.328-0.988,0.894-1.08L150.629,57.977z"/>
			<path fill="#5E6A71" d="M175.059,61.567c-0.785-0.59-1.334-0.918-1.334-1.467c0-0.582,0.408-0.815,0.863-0.815
				c0.629,0,0.926,0.438,0.988,0.987h0.202v-1.026c0-0.039-0.008-0.072-0.055-0.086c-0.312-0.109-0.76-0.15-1.098-0.15
				c-0.902,0-1.687,0.557-1.687,1.264c0,0.381,0.105,0.654,0.261,0.865h-0.005c0.005,0.002,0.009,0.006,0.011,0.008
				c0.188,0.254,0.451,0.416,0.682,0.57c1.178,0.775,1.443,1.191,1.453,1.699c0.021,1.135-2.1,1.729-3.494-0.445l-0.725-1.104
				c0.567-0.224,1.035-0.746,1.035-1.509c0-0.866-0.748-1.258-1.494-1.258h-2.154v0.19c0.666,0.08,0.635,0.043,0.635,0.73v3.33
				c0,0.691,0.031,0.652-0.635,0.734v0.192h1.99v-0.192c-0.666-0.082-0.638-0.043-0.638-0.734v-1.367h0.697
				c0.896,1.486,1.115,2.133,1.566,2.295c0.102,0.035,1.262,0.406,2.082,0.406c0.94,0,1.946-0.516,1.946-1.449
				C176.156,62.583,175.889,62.184,175.059,61.567z M170.479,61.828h-0.615v-2.412h0.568c0.541,0,0.988,0.28,0.988,1.088
				C171.42,61.337,171.123,61.828,170.479,61.828z"/>
		</g>
		<g display="inline">
			<path fill="#5E6A71" d="M84.764,63.35c0,0.688-0.031,0.651,0.635,0.733v0.191h-1.989v-0.191c0.666-0.082,0.637-0.047,0.637-0.733
				v-3.328c0-0.688-0.32-0.649-0.984-0.731v-0.191H85.4v0.191c-0.666,0.082-0.635,0.045-0.635,0.731V61.3h2.596v-1.278
				c0-0.688,0.029-0.649-0.637-0.731v-0.191h1.988v0.191c-0.664,0.082-0.635,0.045-0.635,0.731v3.328
				c0,0.688-0.029,0.651,0.635,0.733v0.191h-1.988v-0.191c0.666-0.082,0.637-0.047,0.637-0.733v-1.746h-2.596L84.764,63.35
				L84.764,63.35z"/>
			<path fill="#5E6A71" d="M90.881,63.35c0,0.688-0.029,0.651,0.635,0.733v0.191h-1.988v-0.191c0.666-0.082,0.636-0.047,0.636-0.733
				v-3.328c0-0.688,0.03-0.649-0.636-0.731v-0.191h1.988v0.191c-0.664,0.082-0.635,0.045-0.635,0.731V63.35z"/>
			<path fill="#5E6A71" d="M97.029,64.276c-1.176-1.392-2.396-2.848-3.6-4.271v3.271c0,0.152,0.027,0.279,0.043,0.398
				c0.037,0.266,0.289,0.369,0.775,0.408v0.19h-1.812v-0.19c0.354-0.039,0.601-0.144,0.638-0.408
				c0.014-0.119,0.043-0.246,0.043-0.398v-3.486c-0.207-0.266-0.438-0.502-0.857-0.502v-0.19h1.346
				c1.104,1.338,2.248,2.698,3.353,4.036h0.014v-3.038c0-0.156-0.029-0.283-0.045-0.4c-0.035-0.266-0.289-0.366-0.775-0.405v-0.191
				h1.812v0.191c-0.348,0.039-0.601,0.141-0.639,0.405c-0.015,0.117-0.044,0.244-0.044,0.4v4.18H97.029z"/>
			<path fill="#5E6A71" d="M98.121,61.658c0-1.14,0.961-2.648,2.957-2.648c0.719,0,1.059,0.133,1.42,0.252
				c0.209,0.068,0.289,0.17,0.289,0.289v0.953h-0.191c-0.022-0.592-0.4-1.234-1.576-1.234c-1.545,0-2.049,1.064-2.055,2.328
				c-0.008,1.17,0.582,2.51,2.084,2.51c0.926,0,1.006-0.342,1.006-0.918v-0.451c0-0.689,0.029-0.65-0.783-0.732v-0.19h2.14v0.19
				c-0.668,0.082-0.638,0.043-0.638,0.732v1.287c-0.475,0.184-1.096,0.342-1.77,0.342C99.488,64.367,98.121,63.639,98.121,61.658z"
				/>
			<path fill="#5E6A71" d="M105.945,63.35c0,0.688-0.028,0.651,0.638,0.733v0.191h-1.99v-0.191c0.666-0.082,0.637-0.047,0.637-0.733
				v-4.017h-0.6c-0.644,0-0.791,0.406-1.037,0.896h-0.182l0.198-1.131h3.955l0.201,1.131h-0.186
				c-0.242-0.487-0.392-0.896-1.035-0.896h-0.601L105.945,63.35L105.945,63.35z"/>
			<path fill="#5E6A71" d="M107.766,61.785c0-1.601,1.242-2.775,2.779-2.775c1.604,0,2.537,1.383,2.537,2.523
				c0,1.561-1.168,2.834-2.804,2.834C108.867,64.367,107.766,63.218,107.766,61.785z M112.24,61.751
				c0-1.768-0.955-2.483-1.857-2.483c-1.258,0-1.773,1.123-1.773,2.131c0,1.789,0.916,2.707,1.869,2.707
				C111.855,64.106,112.24,62.746,112.24,61.751z"/>
			<path fill="#5E6A71" d="M117.854,64.276c-1.176-1.392-2.395-2.848-3.602-4.271v3.271c0,0.152,0.028,0.279,0.045,0.398
				c0.037,0.266,0.287,0.369,0.774,0.408v0.19h-1.812v-0.19c0.355-0.039,0.6-0.144,0.637-0.408c0.017-0.119,0.045-0.246,0.045-0.398
				v-3.486c-0.207-0.266-0.438-0.502-0.858-0.502v-0.19h1.348c1.103,1.338,2.248,2.698,3.35,4.036h0.015v-3.038
				c0-0.156-0.029-0.283-0.043-0.4c-0.037-0.266-0.287-0.366-0.775-0.405v-0.191h1.812v0.191c-0.347,0.039-0.599,0.141-0.638,0.405
				c-0.014,0.117-0.043,0.244-0.043,0.4v4.18H117.854z"/>
			<path fill="#5E6A71" d="M76.545,58.108V58.1h-2v0.246c0.771,0.01,0.897,0.284,0.695,0.868l-1.517,4.123h-0.082l-1.783-5.153
				h-0.45l-1.875,5.153h-0.127l-1.343-4.096c-0.19-0.648,0.074-0.896,0.677-0.896V58.1h-2.375v0.246c0.506,0,0.596,0.396,0.92,1.325
				l1.725,5.095h0.453l1.844-5.195l1.818,5.201h0.508c0.777-2.067,1.871-5.131,2.273-5.953c0.149-0.312,0.422-0.469,0.674-0.469
				v-0.242H76.545z"/>
			<path fill="#5E6A71" d="M81.744,61.512c-0.771-0.58-1.314-0.906-1.314-1.447c0-0.573,0.402-0.808,0.85-0.808
				c0.621,0,0.914,0.435,0.978,0.978h0.201v-1.014c0-0.039-0.008-0.07-0.056-0.084c-0.309-0.109-0.75-0.147-1.082-0.147
				c-0.891,0-1.663,0.549-1.663,1.245c0,0.38,0.104,0.646,0.256,0.854H79.91c0.002,0.002,0.006,0.004,0.01,0.008
				c0.186,0.25,0.442,0.41,0.672,0.562c1.162,0.766,1.432,1.176,1.432,1.68c0,0.467-0.352,0.936-0.998,0.979
				c-0.662,0.05-1.514-0.271-1.873-1.2c-0.317-0.892-0.965-2.765-1.401-4.06h-0.426c-0.609,1.625-1.438,4.01-1.755,4.655
				c-0.116,0.242-0.329,0.367-0.528,0.367v0.191h0.315h1.021v-0.191c-0.324,0-0.463-0.242-0.367-0.531l0.338-0.981h1.875
				l0.316,0.947l0.244,0.729c0,0,1.313,0.344,2.17,0.344c0.93,0,1.873-0.51,1.873-1.432C82.828,62.518,82.564,62.123,81.744,61.512z
				 M76.461,62.291l0.875-2.392h0.014l0.779,2.392H76.461z"/>
		</g>
	</g>
</g>
</svg>
