<?xml version="1.0" encoding="utf-8"?>
<!-- Generator: Adobe Illustrator 16.0.0, SVG Export Plug-In . SVG Version: 6.00 Build 0)  -->
<!DOCTYPE svg PUBLIC "-//W3C//DTD SVG 1.1//EN" "http://www.w3.org/Graphics/SVG/1.1/DTD/svg11.dtd">
<svg version="1.1" id="Layer_1" xmlns="http://www.w3.org/2000/svg" xmlns:xlink="http://www.w3.org/1999/xlink" x="0px" y="0px"
	 width="300.002px" height="84.594px" viewBox="19.387 0 300.002 84.594" enable-background="new 19.387 0 300.002 84.594"
	 xml:space="preserve">
<g>
	
		<text transform="matrix(1 0 0 1 66.7009 88.6875)" display="none" fill="#5E6A71" enable-background="new    " font-family="'StoneSansStd-Medium'" font-size="7.7582">ZVANCOUVER</text>
	<g id="Good_WSU">
		<g>
			<g>
				<path fill="#5E6A71" d="M174.98,75.372c-0.793-0.595-1.346-0.927-1.346-1.479c0-0.586,0.41-0.824,0.869-0.824
					c0.633,0,0.934,0.443,0.996,0.998h0.207v-1.037c0-0.039-0.008-0.07-0.056-0.086c-0.317-0.11-0.768-0.149-1.106-0.149
					c-0.91,0-1.701,0.562-1.701,1.272c0,0.385,0.105,0.66,0.262,0.871h-0.004c0.004,0.004,0.01,0.008,0.012,0.01
					c0.191,0.256,0.455,0.419,0.688,0.574c1.186,0.783,1.455,1.203,1.463,1.715c0.023,1.143-2.117,1.744-3.522-0.449l-0.73-1.112
					c0.574-0.225,1.043-0.754,1.043-1.522c0-0.875-0.752-1.269-1.506-1.269h-2.172v0.194c0.67,0.08,0.641,0.044,0.641,0.736v3.359
					c0,0.695,0.029,0.656-0.641,0.739v0.194h2.008v-0.194c-0.672-0.083-0.645-0.044-0.645-0.739v-1.38h0.704
					c0.9,1.499,1.125,2.151,1.58,2.313c0.101,0.035,1.271,0.412,2.101,0.412c0.949,0,1.963-0.523,1.963-1.465
					C176.086,76.4,175.818,75.996,174.98,75.372z M170.361,75.634h-0.623V73.2h0.576c0.545,0,0.994,0.282,0.994,1.099
					C171.309,75.143,171.01,75.634,170.361,75.634z"/>
				<path fill="#5E6A71" d="M155.344,78.1c0,0,0,0-3.652-4.328v3.314c0,0.156,0.031,0.285,0.045,0.405
					c0.037,0.271,0.293,0.374,0.789,0.413v0.193h-1.84v-0.193c0.363-0.039,0.607-0.144,0.646-0.413
					c0.014-0.12,0.043-0.249,0.043-0.405v-3.531c-0.207-0.271-0.441-0.512-0.867-0.512v-0.195h1.363
					c1.116,1.359,2.28,2.738,3.397,4.098h0.015v-3.084c0-0.157-0.029-0.283-0.046-0.404c-0.036-0.271-0.291-0.374-0.786-0.413V72.85
					h1.838v0.194c-0.353,0.039-0.607,0.142-0.646,0.413c-0.014,0.121-0.043,0.247-0.043,0.404V78.1H155.344z"/>
				<path fill="#5E6A71" d="M158.291,77.161c0,0.7-0.029,0.661,0.645,0.743V78.1h-2.018v-0.195c0.676-0.082,0.645-0.043,0.645-0.743
					v-3.374c0-0.696,0.031-0.66-0.645-0.743v-0.192h2.018v0.192c-0.674,0.083-0.645,0.047-0.645,0.743V77.161z"/>
				<path fill="#5E6A71" d="M167.834,76.75c-0.347,0.803-0.293,1.111-1.379,1.111c-0.677,0-0.97-0.055-0.97-0.691v-1.695h0.632
					c0.502,0,0.676,0.265,0.688,0.707H167v-1.601h-0.193c-0.014,0.466-0.217,0.653-0.688,0.653h-0.632V73.09h1.189
					c0.539,0,0.691,0.411,0.764,0.967h0.195v-1.205h-3.455h-1.484v0.191c0.509,0,0.705,0.232,0.519,0.706
					c-0.467,1.147-0.924,2.302-1.404,3.449c-0.391-1.14-0.824-2.429-1.115-3.313c-0.25-0.721,0.054-0.842,0.466-0.842v-0.191h-1.908
					v0.191c0.363,0,0.459,0.232,0.738,1.034c0.454,1.276,0.967,2.724,1.426,4.021h0.381c0.631-1.537,1.268-3.066,1.896-4.604
					c0.158-0.377,0.271-0.452,0.488-0.452c0.676,0.083,0.578,0.047,0.578,0.743v3.374c0,0.7,0.098,0.661-0.578,0.743v0.195h3.623
					l0.228-1.351h-0.197V76.75z"/>
				<path fill="#5E6A71" d="M177.881,77.161c0,0.7-0.031,0.661,0.645,0.743V78.1h-2.018v-0.195c0.676-0.082,0.646-0.043,0.646-0.743
					v-3.374c0-0.696,0.029-0.66-0.646-0.743v-0.192h2.018v0.192c-0.676,0.083-0.645,0.047-0.645,0.743V77.161z"/>
				<path fill="#5E6A71" d="M185.553,72.852v0.191c0.441,0,0.682,0.218,0.426,0.676l-1.035,1.885l-0.907-1.885
					c-0.187-0.39-0.238-0.676,0.33-0.676v-0.191h-1.259h-0.52h-3.492l-0.203,1.145h0.188c0.248-0.494,0.396-0.905,1.049-0.905h0.608
					v4.07c0,0.7,0.029,0.661-0.645,0.743V78.1h2.018v-0.195c-0.676-0.082-0.646-0.043-0.646-0.743v-4.07h0.609
					c0.612,0,1.026,0.366,1.278,0.823l1.06,2.095v1.152c0,0.7,0.028,0.661-0.646,0.743V78.1h2.017v-0.195
					c-0.675-0.082-0.646-0.043-0.646-0.743v-0.839c0-0.188,0.016-0.398,0.09-0.547l1.252-2.273c0.203-0.359,0.404-0.458,0.615-0.458
					v-0.192H185.553L185.553,72.852z"/>
			</g>
			<path fill="#5E6A71" d="M150.537,71.792l-2.363,0.006v0.195c0.475,0.051,0.816,0.259,0.867,0.624
				c0.02,0.16,0.061,0.331,0.061,0.543v2.804c0,1.615-0.727,2.542-2.106,2.542c-1.504,0-1.955-1.079-1.955-2.492v-2.955
				c0-0.938,0.026-0.953,0.936-1.064v-0.195h-2.715v0.195c0.91,0.111,0.869,0.128,0.869,1.064v3.006
				c0,1.826,0.666,2.918,2.812,2.918c1.304,0,2.687-0.808,2.687-2.978V73.16c0-0.018,0-0.034,0-0.051
				c-0.008-0.875,0.332-1.004,0.904-1.096L150.537,71.792z"/>
		</g>
		<g>
			<path fill="#5E6A71" d="M124.535,73.186c-0.08-0.705-0.462-1.268-1.267-1.268c-0.583,0-1.172,0.303-1.172,1.046
				c0,0.702,0.703,1.124,1.708,1.878c1.064,0.794,1.407,1.307,1.407,2.141c0,1.195-1.16,1.857-2.364,1.857
				c-0.645,0-1.197-0.121-1.72-0.32c-0.039-0.021-0.069-0.062-0.069-0.14v-1.448h0.261c0.112,1.114,0.844,1.559,1.617,1.559
				c0.714,0,1.362-0.543,1.362-1.276c0-0.653-0.353-1.187-1.858-2.18c-0.542-0.361-1.215-0.755-1.215-1.849
				c0-0.906,0.938-1.619,2.092-1.619c0.433,0,1.006,0.052,1.407,0.192c0.062,0.017,0.07,0.062,0.07,0.109v1.315h-0.26V73.186z"/>
			<path fill="#5E6A71" d="M127.748,77.136c0,0.696-0.029,0.656,0.643,0.741v0.191h-2.009v-0.191
				c0.672-0.085,0.643-0.045,0.643-0.741V73.08h-0.605c-0.65,0-0.8,0.412-1.046,0.902h-0.186l0.2-1.143h3.996l0.202,1.143h-0.188
				c-0.247-0.49-0.396-0.902-1.045-0.902h-0.605V77.136z"/>
			<path fill="#5E6A71" d="M130.355,76.337l-0.342,1.001c-0.098,0.293,0.044,0.539,0.374,0.539v0.191h-1.36v-0.191
				c0.201,0,0.418-0.13,0.538-0.375c0.321-0.658,1.194-3.1,1.815-4.751h0.418c0.507,1.502,1.269,3.804,1.522,4.468
				c0.166,0.416,0.284,0.658,0.604,0.658v0.191h-1.74v-0.191c0.473,0,0.519-0.246,0.397-0.576l-0.322-0.964H130.355z
				 M132.165,76.053l-0.792-2.427h-0.017l-0.888,2.427H132.165z"/>
			<path fill="#5E6A71" d="M135.967,77.136c0,0.696-0.029,0.656,0.641,0.741v0.191h-2.01v-0.191
				c0.674-0.085,0.646-0.045,0.646-0.741V73.08h-0.607c-0.649,0-0.797,0.412-1.045,0.902h-0.188l0.203-1.143h3.996l0.201,1.143
				h-0.188c-0.244-0.49-0.394-0.902-1.043-0.902h-0.605L135.967,77.136L135.967,77.136z"/>
			<path fill="#5E6A71" d="M138.154,77.877c0.677-0.085,0.578-0.045,0.578-0.741v-3.362c0-0.693,0.099-0.656-0.578-0.739V72.84
				h3.273v1.202h-0.195c-0.073-0.551-0.223-0.963-0.76-0.963h-1.018v2.139h0.627c0.471,0,0.672-0.188,0.688-0.651h0.193v1.591
				h-0.193c-0.016-0.441-0.186-0.702-0.688-0.702h-0.627v1.688c0,0.637,0.291,0.689,0.965,0.689c1.082,0,1.029-0.309,1.375-1.107
				h0.192l-0.225,1.344h-3.609L138.154,77.877L138.154,77.877z"/>
		</g>
		<g>
			<path fill="#5E6A71" d="M85.043,77.143c0,0.695-0.03,0.656,0.642,0.738v0.195h-2.008v-0.195c0.671-0.082,0.642-0.043,0.642-0.738
				v-3.361c0-0.692-0.322-0.656-0.994-0.737v-0.192h2.361v0.192c-0.672,0.081-0.642,0.045-0.642,0.737v1.294h2.621v-1.294
				c0-0.692,0.028-0.656-0.644-0.737v-0.192h2.009v0.192c-0.671,0.081-0.642,0.045-0.642,0.737v3.361
				c0,0.695-0.029,0.656,0.642,0.738v0.195h-2.009v-0.195c0.672-0.082,0.644-0.043,0.644-0.738V75.38h-2.621L85.043,77.143
				L85.043,77.143z"/>
			<path fill="#5E6A71" d="M91.22,77.143c0,0.695-0.031,0.656,0.642,0.738v0.195h-2.008v-0.195c0.671-0.082,0.643-0.043,0.643-0.738
				v-3.361c0-0.692,0.029-0.656-0.643-0.737v-0.192h2.008v0.192c-0.672,0.081-0.642,0.045-0.642,0.737V77.143z"/>
			<path fill="#5E6A71" d="M97.427,78.077c-1.187-1.404-2.419-2.876-3.636-4.31v3.303c0,0.154,0.028,0.281,0.045,0.4
				c0.037,0.271,0.29,0.373,0.783,0.41v0.195H92.79v-0.195c0.357-0.037,0.604-0.141,0.643-0.41c0.014-0.119,0.044-0.246,0.044-0.4
				V73.55c-0.21-0.269-0.44-0.507-0.867-0.507v-0.191h1.359c1.113,1.349,2.27,2.724,3.382,4.073h0.016v-3.067
				c0-0.157-0.03-0.284-0.046-0.404c-0.035-0.268-0.292-0.372-0.783-0.409v-0.192h1.83v0.192c-0.352,0.037-0.604,0.142-0.645,0.409
				c-0.014,0.12-0.043,0.247-0.043,0.404v4.22H97.427z"/>
			<path fill="#5E6A71" d="M98.528,75.432c0-1.148,0.972-2.674,2.986-2.674c0.725,0,1.068,0.137,1.435,0.256
				c0.209,0.066,0.292,0.172,0.292,0.291v0.963h-0.194c-0.022-0.599-0.403-1.248-1.59-1.248c-1.562,0-2.068,1.075-2.076,2.354
				c-0.007,1.18,0.59,2.531,2.105,2.531c0.935,0,1.017-0.344,1.017-0.926v-0.455c0-0.695,0.029-0.657-0.792-0.739V75.59h2.158v0.193
				c-0.673,0.082-0.642,0.044-0.642,0.738v1.301c-0.479,0.187-1.105,0.343-1.786,0.343C99.91,78.166,98.528,77.434,98.528,75.432z"
				/>
			<path fill="#5E6A71" d="M106.429,77.143c0,0.695-0.03,0.656,0.642,0.738v0.195h-2.009v-0.195
				c0.671-0.082,0.643-0.043,0.643-0.738v-4.055h-0.605c-0.648,0-0.798,0.408-1.045,0.903h-0.186l0.202-1.142h3.995l0.201,1.142
				h-0.187c-0.246-0.495-0.396-0.903-1.045-0.903h-0.605L106.429,77.143L106.429,77.143z"/>
			<path fill="#5E6A71" d="M108.266,75.559c0-1.613,1.255-2.801,2.809-2.801c1.619,0,2.561,1.396,2.561,2.549
				c0,1.575-1.18,2.858-2.831,2.858C109.378,78.166,108.266,77.009,108.266,75.559z M112.782,75.531
				c0-1.786-0.963-2.512-1.874-2.512c-1.27,0-1.791,1.137-1.791,2.15c0,1.809,0.925,2.734,1.888,2.734
				C112.395,77.904,112.782,76.531,112.782,75.531z"/>
			<path fill="#5E6A71" d="M118.451,78.077c-1.188-1.404-2.421-2.876-3.638-4.31v3.303c0,0.154,0.029,0.281,0.044,0.4
				c0.038,0.271,0.291,0.373,0.784,0.41v0.195h-1.829v-0.195c0.359-0.037,0.605-0.141,0.644-0.41c0.015-0.119,0.044-0.246,0.044-0.4
				V73.55c-0.208-0.269-0.44-0.507-0.866-0.507v-0.191h1.359c1.111,1.349,2.269,2.724,3.383,4.073h0.014v-3.067
				c0-0.157-0.03-0.284-0.044-0.404c-0.038-0.268-0.291-0.372-0.785-0.409v-0.192h1.829v0.192c-0.35,0.037-0.604,0.142-0.641,0.409
				c-0.016,0.12-0.045,0.247-0.045,0.404v4.22H118.451z"/>
			<path fill="#5E6A71" d="M76.642,71.85v-0.009h-2.02v0.25c0.779,0.009,0.906,0.287,0.702,0.877l-1.528,4.162H73.71l-1.8-5.203
				h-0.456l-1.892,5.203h-0.129l-1.354-4.134c-0.192-0.656,0.076-0.905,0.683-0.905v-0.25h-2.396v0.25
				c0.509,0,0.601,0.397,0.928,1.339l1.74,5.145h0.458l1.86-5.248l1.835,5.251H73.7c0.784-2.087,1.89-5.179,2.296-6.009
				c0.151-0.312,0.425-0.475,0.681-0.475V71.85H76.642z"/>
			<path fill="#5E6A71" d="M82.013,75.27c-0.786-0.588-1.336-0.918-1.336-1.469c0-0.58,0.409-0.816,0.864-0.816
				c0.629,0,0.927,0.439,0.989,0.99h0.204v-1.029c0-0.039-0.008-0.07-0.056-0.086c-0.312-0.109-0.762-0.15-1.099-0.15
				c-0.904,0-1.689,0.559-1.689,1.268c0,0.381,0.106,0.654,0.261,0.864h-0.003c0.003,0.003,0.006,0.007,0.011,0.009
				c0.189,0.254,0.451,0.418,0.683,0.57c1.179,0.778,1.454,1.193,1.454,1.705c0,0.475-0.357,0.952-1.014,1
				c-0.673,0.046-1.537-0.277-1.9-1.223c-0.324-0.904-0.98-2.809-1.425-4.12h-0.434c-0.62,1.649-1.46,4.069-1.781,4.727
				c-0.119,0.246-0.335,0.373-0.537,0.373v0.195h0.321h1.037v-0.195c-0.329,0-0.471-0.246-0.374-0.537l0.345-1.001h1.903
				l0.321,0.963l0.247,0.742c0,0,1.335,0.35,2.204,0.35c0.942,0,1.9-0.519,1.9-1.453C83.112,76.292,82.846,75.891,82.013,75.27z
				 M76.646,76.061l0.89-2.43h0.015l0.792,2.43H76.646z"/>
		</g>
	</g>
	<g>
		<path fill="#5E6A71" d="M70.629,7.326H70.4c0.035-0.792-0.344-1.127-0.897-1.127c-0.537,0-1.058,0.317-1.058,0.986
			c0,0.555,0.458,0.898,1.216,1.664c0.739,0.731,0.811,1.233,0.811,1.788c0,0.695-0.723,1.646-2.096,1.646
			c-0.66,0-1.127-0.114-1.55-0.291c-0.026-0.018-0.054-0.053-0.035-0.123l0.247-1.268h0.229c-0.097,0.995,0.458,1.374,1.118,1.374
			c0.562,0,1.232-0.431,1.232-1.206c0-0.423-0.344-1.021-0.97-1.559c-0.704-0.616-1.003-1.127-1.003-1.628
			c0-0.925,0.941-1.673,1.84-1.673c0.405,0,0.872,0.035,1.304,0.158c0.053,0.018,0.069,0.08,0.062,0.124L70.629,7.326z"/>
		<path fill="#5E6A71" d="M74.526,8.55c-0.157-0.247-0.404-0.52-0.722-0.52c-1.013,0-1.655,1.435-1.655,2.474
			c0,0.563,0.186,1.224,0.854,1.224c0.388,0,0.89-0.282,1.321-0.599l0.104,0.211l-0.925,0.572c-0.414,0.255-0.748,0.37-0.934,0.37
			c-0.925,0-1.197-0.889-1.152-1.62c-0.01-0.141,0.035-1.77,1.575-2.633c0.396-0.22,0.811-0.361,1.092-0.361
			c0.291,0,0.66,0.062,0.837,0.194L74.8,8.436L74.526,8.55z"/>
		<path fill="#5E6A71" d="M76.612,6.604c0.035-0.141,0.054-0.22,0.054-0.317c0-0.247-0.203-0.255-0.3-0.238l-0.448,0.044L75.961,5.9
			l1.619-0.194l-0.871,3.909l0.018,0.018c0.484-0.819,1.655-1.963,2.482-1.963c0.439,0,0.644,0.22,0.449,1.021l-0.625,2.447
			c-0.054,0.264-0.045,0.432,0.078,0.432c0.062,0,0.158-0.035,0.238-0.07l0.404-0.203l0.079,0.194l-1.471,0.792
			c-0.157-0.053-0.221-0.176-0.237-0.282c-0.035-0.132,0-0.282,0.105-0.695l0.563-2.219c0.097-0.387,0.237-0.88-0.124-0.88
			c-0.757,0-1.989,1.409-2.368,3.319l-0.141,0.651H75.38L76.612,6.604z"/>
		<path fill="#5E6A71" d="M80.615,10.548c0-1.153,0.993-2.879,2.465-2.879c1.171,0,1.426,0.792,1.426,1.585
			c0,0.968-0.774,3.028-2.456,3.028C80.923,12.283,80.615,11.376,80.615,10.548z M83.696,8.832c0-0.916-0.555-0.951-0.694-0.951
			c-0.951,0-1.576,1.708-1.576,2.853c0,0.458,0.079,1.285,0.729,1.285C83.159,12.019,83.696,10.364,83.696,8.832z"/>
		<path fill="#5E6A71" d="M85.227,10.548c0-1.153,0.994-2.879,2.465-2.879c1.171,0,1.427,0.792,1.427,1.585
			c0,0.968-0.774,3.028-2.456,3.028C85.534,12.283,85.227,11.376,85.227,10.548z M88.308,8.832c0-0.916-0.555-0.951-0.695-0.951
			c-0.95,0-1.575,1.708-1.575,2.853c0,0.458,0.079,1.285,0.729,1.285C87.771,12.019,88.308,10.364,88.308,8.832z"/>
		<path fill="#5E6A71" d="M90.938,11.121c-0.053,0.282-0.044,0.449,0.08,0.449c0.062,0,0.158-0.035,0.229-0.07l0.414-0.203
			l0.069,0.194l-1.471,0.792c-0.149-0.053-0.211-0.176-0.237-0.282c-0.025-0.132,0.01-0.282,0.098-0.695l1.013-4.702
			c0.035-0.176,0.097-0.378,0-0.484c-0.07-0.08-0.212-0.08-0.354-0.062l-0.343,0.035L90.48,5.9l1.62-0.194L90.938,11.121z"/>
		<path fill="#5E6A71" d="M95.408,10.548c0-1.153,0.993-2.879,2.465-2.879c1.171,0,1.426,0.792,1.426,1.585
			c0,0.968-0.774,3.028-2.456,3.028C95.716,12.283,95.408,11.376,95.408,10.548z M98.489,8.832c0-0.916-0.555-0.951-0.694-0.951
			c-0.951,0-1.576,1.708-1.576,2.853c0,0.458,0.079,1.285,0.73,1.285C97.952,12.019,98.489,10.364,98.489,8.832z"/>
		<path fill="#5E6A71" d="M103.224,7.96l-0.211,0.185h-1.153c-0.432,2.095-1.136,4.886-1.638,6.225h-0.396l1.259-6.225h-0.836
			l0.079-0.37h0.828c0.466-1.875,2.016-2.069,2.386-2.069c0.202,0,0.625,0.035,0.757,0.159l-0.105,0.581l-0.22,0.105
			c-0.124-0.238-0.405-0.511-0.774-0.511c-0.528,0-0.925,0.361-1.137,1.312l-0.097,0.422h1.294L103.224,7.96z"/>
		<path fill="#5E6A71" d="M74.186,21.365h-5.357v4.883h5.25v1.512h-5.25v5.704h6.287v1.513h-8.384V19.853h7.454V21.365z"/>
		<path fill="#5E6A71" d="M77.25,34.978V19.097h1.943v15.881H77.25z"/>
		<path fill="#5E6A71" d="M83.666,29.706c-0.022,2.161,1.512,4.148,3.65,4.148c0.994,0,2.203-0.367,2.96-0.929l0.562,1.059
			c-1.123,0.8-2.463,1.253-3.587,1.253c-3.37,0-5.597-2.074-5.597-5.877c0-3.738,2.68-5.445,5.121-5.445
			c3.284,0,4.387,2.96,4.17,5.791H83.666z M89.175,28.409c0-1.686-0.713-3.111-2.42-3.111c-2.074,0-2.896,1.729-2.96,3.111H89.175z"
			/>
		<path fill="#5E6A71" d="M101.639,34.113c-1.059,0.756-2.333,1.124-3.263,1.124c-5.12,0-5.77-4.192-5.77-5.683
			c0-2.701,1.793-5.639,5.855-5.639c1.102,0,2.096,0.281,2.896,0.886l-0.647,1.102c-0.627-0.302-1.426-0.562-2.227-0.562
			c-1.771,0-3.78,1.167-3.78,4.105c0,2.247,1.146,4.364,3.76,4.364c0.929,0,1.793-0.237,2.636-0.777L101.639,34.113z"/>
		<path fill="#5E6A71" d="M106.13,24.174h2.83v1.124h-2.83v6.115c0,1.512,0.303,2.42,1.491,2.42c0.713,0,1.123-0.173,1.489-0.368
			l0.477,1.081c-0.67,0.432-1.469,0.691-2.204,0.691c-2.16,0-3.197-1.253-3.197-3.457v-6.482h-1.513v-1.124h1.513v-2.593
			l1.944-0.648V24.174z"/>
		<path fill="#5E6A71" d="M113.085,25.514l0.777-0.821c0.453-0.454,1.167-0.778,1.62-0.778c0.477,0,1.188,0.346,1.793,1.059
			l-0.886,1.253c-0.475-0.238-0.95-0.454-1.447-0.454c-0.993,0-1.814,0.994-1.814,3.392v5.812h-1.944V24.174h1.901V25.514z"/>
		<path fill="#5E6A71" d="M118.441,20.609c0-0.54,0.453-1.146,1.231-1.146c0.777,0,1.23,0.605,1.23,1.146
			c0,0.583-0.28,1.318-1.23,1.318S118.441,21.192,118.441,20.609z M120.646,24.174v10.803H118.7V24.174H120.646z"/>
		<path fill="#5E6A71" d="M132.138,34.113c-1.059,0.756-2.333,1.124-3.263,1.124c-5.12,0-5.77-4.192-5.77-5.683
			c0-2.701,1.793-5.639,5.855-5.639c1.102,0,2.096,0.281,2.896,0.886l-0.647,1.102c-0.627-0.302-1.426-0.562-2.227-0.562
			c-1.771,0-3.78,1.167-3.78,4.105c0,2.247,1.146,4.364,3.76,4.364c0.929,0,1.793-0.237,2.636-0.777L132.138,34.113z"/>
		<path fill="#5E6A71" d="M139.265,33.811c-0.756,0.756-1.707,1.426-2.7,1.426c-1.814,0-3.067-1.296-3.067-3.328
			c0-1.879,1.599-3.068,3.846-3.738l2.614-0.821c-0.086-1.318-1.103-2.161-2.16-2.161c-1.253,0-2.053,0.519-2.83,1.167l-0.757-0.972
			c1.08-1.037,2.183-1.469,3.693-1.469c1.621,0,3.998,0.519,3.998,3.673v4.754c0,0.821,0.107,1.858,0.476,2.636h-2.117
			c-0.259-0.454-0.303-1.145-0.303-1.836L139.265,33.811z M138.099,29.187c-1.707,0.519-2.593,1.339-2.593,2.701
			c0,1.124,0.777,1.837,1.556,1.837c1.383,0,3.154-1.707,2.896-5.078L138.099,29.187z"/>
		<path fill="#5E6A71" d="M145.03,34.978V19.097h1.945v15.881H145.03z"/>
		<path fill="#5E6A71" d="M164.041,21.365h-5.358v4.883h5.25v1.512h-5.25v5.704h6.287v1.513h-8.383V19.853h7.454V21.365z"/>
		<path fill="#5E6A71" d="M169.028,25.514c1.017-1.08,2.571-1.599,3.695-1.599c2.484,0,3.824,1.383,3.824,4.105v6.957h-1.944V28.43
			c0-2.031-0.863-3.09-2.613-3.09c-1.534,0-2.939,1.059-2.939,3.133v6.503h-1.944V24.174h1.923L169.028,25.514L169.028,25.514z"/>
		<path fill="#5E6A71" d="M189.442,34.589c0,4.126-2.569,5.79-5.486,5.79c-1.601,0-3.198-0.302-4.451-1.08l0.54-1.275
			c1.317,0.756,2.527,0.972,3.867,0.972c2.226,0,3.587-1.426,3.587-4.256v-1.469h-0.043c-0.757,1.059-1.901,1.966-3.608,1.966
			c-2.98,0-4.84-2.333-4.84-5.791c0-2.809,2.074-5.531,5.164-5.531c1.296,0,2.679,0.648,3.284,1.75h0.043v-1.491h1.943V34.589z
			 M187.498,29.23c0-2.031-1.103-3.933-3.221-3.933c-2.245,0-3.176,1.771-3.176,4.062c0,2.312,0.994,4.494,3.047,4.494
			C186.504,33.854,187.498,31.628,187.498,29.23z"/>
		<path fill="#5E6A71" d="M192.334,20.609c0-0.54,0.453-1.146,1.23-1.146s1.231,0.605,1.231,1.146c0,0.583-0.281,1.318-1.231,1.318
			C192.614,21.927,192.334,21.192,192.334,20.609z M194.538,24.174v10.803h-1.945V24.174H194.538z"/>
		<path fill="#5E6A71" d="M199.656,25.514c1.016-1.08,2.57-1.599,3.694-1.599c2.484,0,3.824,1.383,3.824,4.105v6.957h-1.944V28.43
			c0-2.031-0.863-3.09-2.614-3.09c-1.533,0-2.938,1.059-2.938,3.133v6.503h-1.945V24.174h1.924V25.514z"/>
		<path fill="#5E6A71" d="M211.645,29.706c-0.021,2.161,1.513,4.148,3.651,4.148c0.994,0,2.203-0.367,2.96-0.929l0.562,1.059
			c-1.123,0.8-2.463,1.253-3.587,1.253c-3.37,0-5.596-2.074-5.596-5.877c0-3.738,2.679-5.445,5.121-5.445
			c3.284,0,4.386,2.96,4.17,5.791H211.645z M217.153,28.409c0-1.686-0.713-3.111-2.42-3.111c-2.073,0-2.895,1.729-2.96,3.111
			H217.153z"/>
		<path fill="#5E6A71" d="M222.596,29.706c-0.021,2.161,1.512,4.148,3.651,4.148c0.994,0,2.203-0.367,2.96-0.929l0.562,1.059
			c-1.123,0.8-2.463,1.253-3.587,1.253c-3.37,0-5.596-2.074-5.596-5.877c0-3.738,2.679-5.445,5.121-5.445
			c3.284,0,4.386,2.96,4.17,5.791H222.596z M228.104,28.409c0-1.686-0.713-3.111-2.42-3.111c-2.074,0-2.895,1.729-2.96,3.111
			H228.104z"/>
		<path fill="#5E6A71" d="M234.173,25.514l0.778-0.821c0.452-0.454,1.167-0.778,1.619-0.778c0.477,0,1.188,0.346,1.793,1.059
			l-0.886,1.253c-0.475-0.238-0.95-0.454-1.447-0.454c-0.993,0-1.814,0.994-1.814,3.392v5.812h-1.944V24.174h1.901V25.514
			L234.173,25.514z"/>
		<path fill="#5E6A71" d="M239.529,20.609c0-0.54,0.453-1.146,1.231-1.146c0.777,0,1.231,0.605,1.231,1.146
			c0,0.583-0.281,1.318-1.231,1.318S239.529,21.192,239.529,20.609z M241.733,24.174v10.803h-1.944V24.174H241.733z"/>
		<path fill="#5E6A71" d="M246.852,25.514c1.017-1.08,2.571-1.599,3.695-1.599c2.484,0,3.824,1.383,3.824,4.105v6.957h-1.944V28.43
			c0-2.031-0.864-3.09-2.615-3.09c-1.533,0-2.938,1.059-2.938,3.133v6.503h-1.945V24.174h1.923V25.514z"/>
		<path fill="#5E6A71" d="M267.266,34.589c0,4.126-2.571,5.79-5.487,5.79c-1.6,0-3.197-0.302-4.45-1.08l0.54-1.275
			c1.317,0.756,2.527,0.972,3.866,0.972c2.227,0,3.588-1.426,3.588-4.256v-1.469h-0.044c-0.756,1.059-1.9,1.966-3.607,1.966
			c-2.981,0-4.84-2.333-4.84-5.791c0-2.809,2.074-5.531,5.164-5.531c1.296,0,2.679,0.648,3.283,1.75h0.044v-1.491h1.943V34.589
			L267.266,34.589z M265.321,29.23c0-2.031-1.102-3.933-3.219-3.933c-2.248,0-3.177,1.771-3.177,4.062
			c0,2.312,0.994,4.494,3.047,4.494C264.327,33.854,265.321,31.628,265.321,29.23z"/>
		<path fill="#5E6A71" d="M76.757,53.197c0.626-1.274,0.216-3.502-0.627-4.711h-2.117l0.647-1.34h6.481l-0.67,1.34h-2.55
			c0.778,1.254,1.037,3.695,0,5.748l3.306,2.83l-1.923,0.973l-2.463-2.27c-1.167,1.318-2.874,2.27-4.97,2.27
			c-4.71,0-5.38-3.587-5.38-4.516c0-1.987,1.446-3.545,3.24-4.364c-0.843-0.8-1.966-1.837-1.966-3.394
			c0-1.771,1.62-3.371,4.04-3.371c1.146,0,2.139,0.346,3.09,1.037l-0.757,1.211c-0.367-0.238-1.21-0.734-2.139-0.734
			c-1.404,0-2.117,0.799-2.117,1.75c0,0.863,0.54,1.664,2.031,3.025L76.757,53.197z M70.685,50.193
			c-1.36,0.757-1.943,1.88-1.943,3.134c0,1.383,1.079,3.282,3.37,3.282c1.663,0,3.047-0.948,3.674-1.836L70.685,50.193z"/>
		<path fill="#5E6A71" d="M101.964,45.225c-0.713-0.584-2.334-1.318-3.954-1.318c-3.738,0-5.942,2.679-5.942,6.223
			c0,3.824,2.638,6.395,5.942,6.395c1.642,0,2.938-0.518,3.824-1.123l0.82,1.254c-1.016,0.691-2.81,1.383-4.754,1.383
			c-5.4,0-8.146-3.694-8.146-7.864c0-3.803,2.98-7.779,8.405-7.779c2.159,0,3.673,0.756,4.667,1.534L101.964,45.225z"/>
		<path fill="#5E6A71" d="M104.357,52.247c0-3.5,2.594-5.532,5.315-5.532s5.337,2.032,5.337,5.532c0,3.349-2.14,5.79-5.337,5.79
			C106.496,58.037,104.357,55.596,104.357,52.247z M106.453,52.247c0,2.03,0.69,4.407,3.22,4.407c2.549,0,3.24-2.377,3.24-4.407
			c0-1.945-0.8-4.147-3.24-4.147C107.253,48.098,106.453,50.301,106.453,52.247z"/>
		<path fill="#5E6A71" d="M119.392,48.312c0.887-1.037,2.184-1.598,3.371-1.598c1.707,0,2.766,0.713,3.437,1.598
			c1.036-0.949,2.506-1.598,3.716-1.598c2.397,0,3.607,1.555,3.673,3.846v7.217h-1.944v-6.438c0-1.555-0.389-3.11-2.376-3.11
			c-1.643,0-2.766,0.864-2.766,3.047v6.504h-1.945V51.34c0-2.031-0.864-3.111-2.44-3.111c-1.643,0-2.701,1.06-2.701,3.133v6.418
			h-1.944V46.975h1.923v1.338H119.392z"/>
		<path fill="#5E6A71" d="M138.724,48.659h0.044c0.799-1.295,2.333-1.944,3.543-1.944c4.214,0,4.905,3.782,4.905,5.336
			c0,3.285-1.945,5.985-5.121,5.985c-1.361,0-2.528-0.647-3.327-1.685h-0.044v6.825h-1.944V46.975h1.944V48.659z M145.12,52.073
			c0-1.966-0.994-3.976-3.004-3.976c-2.204,0-3.394,1.707-3.394,4.494c0,2.074,0.951,4.062,3.371,4.062
			C144.429,56.654,145.12,54.04,145.12,52.073z"/>
		<path fill="#5E6A71" d="M156.891,56.523c-1.102,0.951-2.074,1.514-3.479,1.514c-2.485,0-3.824-1.383-3.824-4.104v-6.959h1.944
			v6.524c0,2.03,0.863,3.11,2.613,3.11c1.491,0,2.724-1.229,2.724-3.325v-6.31h1.943v10.803h-1.923L156.891,56.523L156.891,56.523z"
			/>
		<path fill="#5E6A71" d="M164.406,46.975h2.83v1.123h-2.83v6.114c0,1.513,0.303,2.42,1.49,2.42c0.713,0,1.123-0.173,1.49-0.368
			l0.476,1.082c-0.67,0.432-1.469,0.69-2.203,0.69c-2.16,0-3.197-1.253-3.197-3.457v-6.481h-1.513v-1.123h1.513v-2.594l1.944-0.648
			V46.975z"/>
		<path fill="#5E6A71" d="M170.735,52.505c-0.021,2.161,1.513,4.147,3.651,4.147c0.993,0,2.204-0.366,2.96-0.928l0.562,1.059
			c-1.123,0.799-2.464,1.253-3.588,1.253c-3.369,0-5.596-2.074-5.596-5.877c0-3.737,2.68-5.445,5.121-5.445
			c3.284,0,4.386,2.959,4.17,5.791H170.735z M176.245,51.209c0-1.686-0.715-3.111-2.42-3.111c-2.074,0-2.896,1.729-2.962,3.111
			H176.245z"/>
		<path fill="#5E6A71" d="M182.312,48.312l0.778-0.819c0.453-0.454,1.166-0.778,1.62-0.778c0.476,0,1.188,0.346,1.794,1.059
			l-0.887,1.254c-0.476-0.237-0.95-0.454-1.447-0.454c-0.994,0-1.814,0.993-1.814,3.393v5.812h-1.944V46.975h1.9V48.312z"/>
		<path fill="#5E6A71" d="M201.431,44.986c-0.735-0.541-1.707-1.08-2.615-1.08c-1.512,0-2.354,0.886-2.354,2.052
			c0,1.081,0.929,1.88,2.873,3.284c2.074,1.513,3.284,2.896,3.284,4.84c0,2.398-2.27,3.954-4.688,3.954
			c-1.447,0-3.176-0.519-4.256-1.577l0.929-1.254c0.887,0.627,1.858,1.318,3.284,1.318c1.491,0,2.636-0.799,2.636-2.484
			c0-1.9-2.269-3.133-3.5-4.041c-1.253-0.973-2.656-1.9-2.656-4.04c0-2.031,1.966-3.565,4.32-3.565c1.577,0,2.896,0.562,3.737,1.513
			L201.431,44.986z"/>
		<path fill="#5E6A71" d="M213.224,56.913c-1.059,0.757-2.333,1.124-3.263,1.124c-5.12,0-5.77-4.191-5.77-5.684
			c0-2.701,1.793-5.639,5.855-5.639c1.102,0,2.096,0.281,2.896,0.885l-0.647,1.104c-0.627-0.303-1.426-0.562-2.227-0.562
			c-1.771,0-3.78,1.166-3.78,4.105c0,2.246,1.146,4.363,3.76,4.363c0.929,0,1.793-0.236,2.636-0.777L213.224,56.913z"/>
		<path fill="#5E6A71" d="M215.058,43.409c0-0.54,0.453-1.146,1.231-1.146c0.776,0,1.23,0.605,1.23,1.146
			c0,0.583-0.281,1.317-1.23,1.317C215.338,44.727,215.058,43.992,215.058,43.409z M217.261,46.975v10.803h-1.944V46.975H217.261z"
			/>
		<path fill="#5E6A71" d="M221.732,52.505c-0.021,2.161,1.513,4.147,3.651,4.147c0.994,0,2.203-0.366,2.96-0.928l0.562,1.059
			c-1.122,0.799-2.463,1.253-3.587,1.253c-3.369,0-5.596-2.074-5.596-5.877c0-3.737,2.679-5.445,5.121-5.445
			c3.284,0,4.386,2.959,4.17,5.791H221.732z M227.241,51.209c0-1.686-0.714-3.111-2.421-3.111c-2.073,0-2.895,1.729-2.96,3.111
			H227.241z"/>
		<path fill="#5E6A71" d="M233.331,48.312c1.016-1.08,2.57-1.598,3.694-1.598c2.484,0,3.824,1.383,3.824,4.105v6.957h-1.943V51.23
			c0-2.03-0.864-3.09-2.614-3.09c-1.534,0-2.939,1.06-2.939,3.133v6.504h-1.943V46.975h1.923L233.331,48.312L233.331,48.312z"/>
		<path fill="#5E6A71" d="M251.908,56.913c-1.06,0.757-2.333,1.124-3.264,1.124c-5.12,0-5.769-4.191-5.769-5.684
			c0-2.701,1.793-5.639,5.854-5.639c1.103,0,2.097,0.281,2.896,0.885l-0.648,1.104c-0.627-0.303-1.426-0.562-2.226-0.562
			c-1.771,0-3.781,1.166-3.781,4.105c0,2.246,1.146,4.363,3.76,4.363c0.93,0,1.793-0.236,2.637-0.777L251.908,56.913z"/>
		<path fill="#5E6A71" d="M254.736,52.505c-0.021,2.161,1.513,4.147,3.651,4.147c0.994,0,2.203-0.366,2.96-0.928l0.562,1.059
			c-1.123,0.799-2.464,1.253-3.588,1.253c-3.369,0-5.596-2.074-5.596-5.877c0-3.737,2.679-5.445,5.121-5.445
			c3.284,0,4.386,2.959,4.17,5.791H254.736z M260.245,51.209c0-1.686-0.713-3.111-2.42-3.111c-2.074,0-2.896,1.729-2.961,3.111
			H260.245z"/>
	</g>
	<rect x="55.545" fill="#5E6A71" width="0.75" height="84.594"/>
	<g>
		<path fill="#5E6A71" d="M36.832,46.625l-4.615,3.29l-4.619-3.29c-3.283-2.246-6.098-4.17-7.572-7.094
			c1.218,5.479,6.574,7.529,12.191,11.924c5.613-4.395,10.971-6.444,12.188-11.924C42.93,42.455,40.115,44.379,36.832,46.625z"/>
		<path fill="#981E32" d="M19.387,19.83v0.574c0.357,0.125,0.473,0.236,0.512,0.76v13.242c0,7.365,5.994,9.314,12.32,14.262
			c6.324-4.947,12.32-6.897,12.32-14.262V21.014c0.047-0.4,0.174-0.498,0.496-0.609V19.83H19.387z"/>
		<g>
			<g>
				<g>
					<path fill="#FFFFFF" d="M34.713,41.391c0,0,1.022-0.438,1.586-2.131c0.494,1.033,0.365,2.094,0.365,2.094
						C36.209,41.455,34.713,41.391,34.713,41.391z"/>
					<path fill="#FFFFFF" d="M40.213,31.701c0,0,0.627,3.406-1.586,3.521c-2.135,0.111-3.142-3.1-3.142-3.1s0.517,6.277,3.509,5.863
						C42.365,37.521,40.213,31.701,40.213,31.701z"/>
				</g>
			</g>
			<path fill="#FFFFFF" d="M23.959,40.582c0-0.002,0.004-0.002,0.004-0.002c2.496-0.568,4.404-3.482,4.969-4.65l0.355-0.74
				l0.215,0.791c0.012,0.043,0.244,0.918,0.244,2.072c0,0.129-0.006,0.26-0.013,0.393c0.861,0.033,1.478-0.141,1.859-0.539
				c0.547-0.566,0.713-1.641,0.506-3.283c-0.098-0.785-0.389-2.037-0.646-3.139c-0.132-0.564-0.257-1.098-0.33-1.477
				c-0.482-2.412,0.114-3.91,0.701-4.74c0.094-0.131,0.192-0.256,0.299-0.373c-1.728,0.582-3.177,1.486-4.668,2.979l1.051,1.219
				l0.43-0.402c0.406,1.516,0.113,2.908,0.113,2.908c-0.553-0.842-1.205-1.525-1.205-1.525l0.285-0.479l-0.947-1.102l-0.108-0.123
				c-1.164,1.602-1.541,2.91-1.541,2.91l0.825,0.756l0.48,0.436L27,32.006c0.887,1.664,0.076,3.219,0.076,3.219
				c-0.146-0.566-0.73-1.404-0.73-1.404l0.23-0.764l-1.229-1.111c-1.279,3.994-2.986,5.289-2.986,5.289s1.849-0.334,2.877-0.68
				C25.238,36.555,25.209,38.66,23.959,40.582z"/>
			<path fill="#FFFFFF" d="M42.615,26.168l-2.953,0.123c0.002,0.35-0.045,0.701-0.156,1.035c0.275,1.205,0.084,1.859,0.084,1.859
				c-0.494-1.15-0.871-1.469-0.871-1.469c-2.711-1.205-4.234,1.518-4.07,3.275c0.134,1.445,0.656,3.361,1.064,6.369
				c0.344,2.529-0.937,3.623-2.41,3.875c-0.031,0.004-0.064,0.012-0.096,0.018c-0.011,0-0.017,0-0.023,0
				c-0.24,0.031-0.492,0.045-0.764,0.039c-0.006-0.002-0.019-0.002-0.025-0.002c-0.031,0-0.059-0.006-0.088-0.006
				c-0.115-0.006-0.229-0.018-0.34-0.031c-1.146-0.16-3.715-0.625-6.365-0.689c1.56-0.912,2.779-2.488,3.459-3.605
				c0.041,0.309,0.072,0.688,0.072,1.104c0,0.207-0.006,0.426-0.027,0.646l-0.024,0.307l0.305,0.025
				c1.221,0.105,2.086-0.127,2.648-0.711c0.692-0.721,0.905-1.922,0.672-3.783c-0.101-0.816-0.396-2.084-0.656-3.201
				c-0.129-0.559-0.252-1.09-0.326-1.457c-0.438-2.201,0.086-3.537,0.603-4.27c0.403-0.574,0.963-0.994,1.573-1.197
				c0.013-0.002,0.023-0.004,0.033-0.006l1.008-3.094h0.316l-0.676,2.975c0.155-0.027,0.313-0.053,0.477-0.078l0.869-2.742h0.314
				l-0.57,2.656c0.899-0.115,1.879-0.207,2.961-0.285c0.176,0.07,0.363,0.271,0.531,0.557l2.842-0.875l0.104,0.307l-2.715,1.053
				c0.021,0.057,0.041,0.113,0.06,0.174l2.971-0.369l0.049,0.318l-2.881,0.576c0.01,0.053,0.02,0.107,0.027,0.16l2.998,0.098
				L42.615,26.168z M34.061,27.494c0.597-0.416,1.607-0.738,2.562-0.666c0.239,0.02,0.442-0.045,0.184-0.182
				c-0.711-0.375-2.367-0.248-2.953,0.152c-0.938,0.641-0.781,1.781-0.76,1.809C33.279,28.281,33.598,27.82,34.061,27.494z"/>
		</g>
	</g>
</g>
</svg>
