<?xml version="1.0" encoding="utf-8"?>
<!-- Generator: Adobe Illustrator 16.0.0, SVG Export Plug-In . SVG Version: 6.00 Build 0)  -->
<!DOCTYPE svg PUBLIC "-//W3C//DTD SVG 1.1//EN" "http://www.w3.org/Graphics/SVG/1.1/DTD/svg11.dtd">
<svg version="1.1" id="Layer_1" xmlns="http://www.w3.org/2000/svg" xmlns:xlink="http://www.w3.org/1999/xlink" x="0px" y="0px"
	 width="300.125px" height="53.559px" viewBox="19.387 0 300.125 53.559" enable-background="new 19.387 0 300.125 53.559"
	 xml:space="preserve">
<g>
	
		<text transform="matrix(1 0 0 1 66.7004 57.6599)" display="none" fill="#5E6A71" enable-background="new    " font-family="'StoneSansStd-Medium'" font-size="7.7582">ZVANCOUVER</text>
	<g id="Good_WSU">
		<g>
			<g>
				<path fill="#5E6A71" d="M174.98,44.344c-0.793-0.595-1.347-0.926-1.347-1.479c0-0.586,0.41-0.824,0.869-0.824
					c0.634,0,0.935,0.443,0.996,0.998h0.207v-1.037c0-0.04-0.008-0.07-0.055-0.086c-0.318-0.11-0.769-0.149-1.107-0.149
					c-0.91,0-1.701,0.561-1.701,1.272c0,0.384,0.105,0.66,0.263,0.87h-0.004c0.004,0.005,0.01,0.008,0.012,0.01
					c0.191,0.256,0.455,0.419,0.688,0.574c1.187,0.784,1.455,1.203,1.464,1.716c0.022,1.143-2.117,1.743-3.523-0.45l-0.729-1.111
					c0.573-0.226,1.043-0.754,1.043-1.522c0-0.875-0.752-1.269-1.507-1.269h-2.172v0.193c0.67,0.08,0.642,0.044,0.642,0.736v3.36
					c0,0.694,0.028,0.655-0.642,0.738v0.194h2.008v-0.194c-0.672-0.083-0.645-0.044-0.645-0.738v-1.38h0.705
					c0.9,1.499,1.125,2.15,1.58,2.312c0.1,0.035,1.271,0.412,2.1,0.412c0.949,0,1.963-0.523,1.963-1.464
					C176.086,45.373,175.818,44.968,174.98,44.344z M170.361,44.607h-0.623v-2.435h0.576c0.545,0,0.994,0.283,0.994,1.1
					C171.309,44.115,171.01,44.607,170.361,44.607z"/>
				<path fill="#5E6A71" d="M155.344,47.072c0,0,0,0-3.651-4.327v3.314c0,0.155,0.031,0.284,0.045,0.404
					c0.037,0.271,0.293,0.374,0.789,0.413v0.194h-1.84v-0.194c0.362-0.039,0.606-0.143,0.646-0.413
					c0.015-0.12,0.043-0.249,0.043-0.404v-3.532c-0.207-0.271-0.44-0.511-0.867-0.511v-0.195h1.363
					c1.117,1.359,2.281,2.738,3.398,4.097h0.014v-3.084c0-0.157-0.029-0.283-0.045-0.403c-0.037-0.271-0.291-0.374-0.787-0.413
					v-0.195h1.838v0.195c-0.352,0.039-0.606,0.142-0.646,0.413c-0.015,0.12-0.043,0.246-0.043,0.403v4.238H155.344z"/>
				<path fill="#5E6A71" d="M158.291,46.133c0,0.7-0.028,0.661,0.646,0.744v0.194h-2.019v-0.194
					c0.676-0.083,0.646-0.044,0.646-0.744v-3.374c0-0.695,0.031-0.659-0.646-0.742v-0.192h2.019v0.192
					c-0.674,0.083-0.646,0.047-0.646,0.742V46.133z"/>
				<path fill="#5E6A71" d="M167.834,45.722c-0.346,0.803-0.293,1.11-1.379,1.11c-0.676,0-0.969-0.055-0.969-0.69v-1.696h0.631
					c0.502,0,0.676,0.265,0.689,0.707H167v-1.6h-0.192c-0.015,0.466-0.218,0.652-0.689,0.652h-0.631v-2.144h1.188
					c0.539,0,0.691,0.411,0.765,0.967h0.195v-1.206h-3.455h-1.484v0.192c0.508,0,0.705,0.231,0.518,0.706
					c-0.467,1.146-0.924,2.302-1.403,3.448c-0.392-1.139-0.824-2.429-1.115-3.312c-0.25-0.722,0.053-0.842,0.465-0.842v-0.192
					h-1.908v0.192c0.363,0,0.459,0.231,0.738,1.033c0.455,1.277,0.967,2.725,1.426,4.021h0.381c0.632-1.537,1.269-3.067,1.896-4.604
					c0.158-0.377,0.271-0.451,0.488-0.451c0.676,0.083,0.577,0.047,0.577,0.742v3.374c0,0.7,0.099,0.661-0.577,0.744v0.194h3.623
					l0.227-1.351h-0.197V45.722z"/>
				<path fill="#5E6A71" d="M177.881,46.133c0,0.7-0.03,0.661,0.646,0.744v0.194h-2.019v-0.194c0.677-0.083,0.646-0.044,0.646-0.744
					v-3.374c0-0.695,0.029-0.659-0.646-0.742v-0.192h2.019v0.192c-0.676,0.083-0.646,0.047-0.646,0.742V46.133z"/>
				<path fill="#5E6A71" d="M185.553,41.824v0.192c0.44,0,0.682,0.218,0.426,0.676l-1.035,1.884l-0.908-1.884
					c-0.186-0.391-0.238-0.676,0.33-0.676v-0.192h-1.258h-0.521h-3.491l-0.203,1.145h0.188c0.248-0.493,0.396-0.904,1.049-0.904
					h0.609v4.069c0,0.7,0.029,0.661-0.646,0.744v0.194h2.019v-0.194c-0.676-0.083-0.646-0.044-0.646-0.744v-4.069h0.609
					c0.613,0,1.027,0.366,1.279,0.823l1.059,2.095v1.151c0,0.7,0.029,0.661-0.645,0.744v0.194h2.016v-0.194
					c-0.674-0.083-0.645-0.044-0.645-0.744v-0.839c0-0.188,0.016-0.397,0.09-0.547l1.252-2.272c0.203-0.36,0.403-0.458,0.615-0.458
					v-0.192L185.553,41.824L185.553,41.824z"/>
			</g>
			<path fill="#5E6A71" d="M150.537,40.765l-2.363,0.006v0.194c0.476,0.052,0.816,0.26,0.867,0.624
				c0.021,0.16,0.062,0.331,0.062,0.543v2.805c0,1.614-0.728,2.542-2.107,2.542c-1.504,0-1.955-1.079-1.955-2.492v-2.955
				c0-0.938,0.027-0.954,0.937-1.065v-0.194h-2.715v0.194c0.909,0.111,0.868,0.129,0.868,1.065v3.006
				c0,1.826,0.666,2.917,2.812,2.917c1.303,0,2.686-0.807,2.686-2.977v-2.846c0-0.018,0-0.033,0-0.05
				c-0.008-0.876,0.332-1.004,0.904-1.096L150.537,40.765z"/>
		</g>
		<g>
			<path fill="#5E6A71" d="M124.535,42.158c-0.08-0.704-0.462-1.267-1.266-1.267c-0.583,0-1.172,0.303-1.172,1.046
				c0,0.702,0.702,1.124,1.708,1.878c1.063,0.794,1.406,1.307,1.406,2.14c0,1.196-1.16,1.858-2.363,1.858
				c-0.646,0-1.197-0.121-1.721-0.32c-0.039-0.021-0.068-0.062-0.068-0.14v-1.448h0.261c0.112,1.114,0.843,1.558,1.617,1.558
				c0.714,0,1.361-0.543,1.361-1.275c0-0.654-0.352-1.188-1.857-2.181c-0.542-0.36-1.215-0.755-1.215-1.849
				c0-0.906,0.937-1.618,2.092-1.618c0.432,0,1.005,0.051,1.407,0.192c0.061,0.017,0.069,0.061,0.069,0.108v1.316L124.535,42.158
				L124.535,42.158z"/>
			<path fill="#5E6A71" d="M127.748,46.109c0,0.696-0.028,0.656,0.644,0.741v0.19h-2.01v-0.19c0.673-0.085,0.644-0.045,0.644-0.741
				v-4.058h-0.606c-0.649,0-0.8,0.412-1.046,0.903h-0.185l0.2-1.143h3.995l0.202,1.143h-0.187c-0.247-0.491-0.396-0.903-1.045-0.903
				h-0.606V46.109z"/>
			<path fill="#5E6A71" d="M130.355,45.31l-0.342,1.001c-0.099,0.293,0.044,0.539,0.374,0.539v0.19h-1.36v-0.19
				c0.201,0,0.418-0.13,0.538-0.375c0.32-0.658,1.193-3.101,1.814-4.751h0.418c0.508,1.502,1.27,3.804,1.523,4.468
				c0.166,0.416,0.284,0.658,0.604,0.658v0.19h-1.739v-0.19c0.472,0,0.518-0.246,0.396-0.576l-0.322-0.964H130.355z M132.165,45.026
				l-0.792-2.427h-0.016l-0.889,2.427H132.165z"/>
			<path fill="#5E6A71" d="M135.967,46.109c0,0.696-0.028,0.656,0.642,0.741v0.19h-2.01v-0.19c0.674-0.085,0.645-0.045,0.645-0.741
				v-4.058h-0.606c-0.649,0-0.798,0.412-1.046,0.903h-0.187l0.203-1.143h3.996l0.201,1.143h-0.188
				c-0.244-0.491-0.393-0.903-1.043-0.903h-0.604v4.058H135.967z"/>
			<path fill="#5E6A71" d="M138.154,46.85c0.676-0.085,0.578-0.045,0.578-0.741v-3.362c0-0.693,0.098-0.657-0.578-0.74v-0.192h3.272
				v1.202h-0.194c-0.074-0.552-0.224-0.964-0.76-0.964h-1.019v2.14h0.627c0.471,0,0.672-0.188,0.688-0.651h0.192v1.59h-0.192
				c-0.017-0.44-0.187-0.701-0.688-0.701h-0.627v1.688c0,0.637,0.291,0.689,0.965,0.689c1.082,0,1.029-0.309,1.375-1.107h0.193
				l-0.225,1.344h-3.609L138.154,46.85L138.154,46.85z"/>
		</g>
		<g>
			<path fill="#5E6A71" d="M85.043,46.116c0,0.695-0.029,0.656,0.643,0.738v0.194h-2.009v-0.194
				c0.672-0.082,0.643-0.043,0.643-0.738v-3.362c0-0.691-0.323-0.655-0.995-0.736v-0.192h2.362v0.192
				c-0.672,0.081-0.643,0.045-0.643,0.736v1.294h2.621v-1.294c0-0.691,0.029-0.655-0.643-0.736v-0.192h2.009v0.192
				c-0.671,0.081-0.642,0.045-0.642,0.736v3.362c0,0.695-0.029,0.656,0.642,0.738v0.194h-2.009v-0.194
				c0.672-0.082,0.643-0.043,0.643-0.738v-1.763h-2.621L85.043,46.116L85.043,46.116z"/>
			<path fill="#5E6A71" d="M91.22,46.116c0,0.695-0.031,0.656,0.642,0.738v0.194h-2.008v-0.194c0.671-0.082,0.642-0.043,0.642-0.738
				v-3.362c0-0.691,0.03-0.655-0.642-0.736v-0.192h2.008v0.192c-0.672,0.081-0.642,0.045-0.642,0.736V46.116z"/>
			<path fill="#5E6A71" d="M97.427,47.049c-1.187-1.403-2.419-2.876-3.636-4.31v3.303c0,0.154,0.029,0.281,0.045,0.401
				c0.037,0.27,0.29,0.373,0.783,0.41v0.194H92.79v-0.194c0.358-0.037,0.605-0.142,0.644-0.41c0.014-0.12,0.044-0.247,0.044-0.401
				v-3.52c-0.21-0.27-0.441-0.507-0.867-0.507v-0.192h1.358c1.113,1.349,2.271,2.724,3.383,4.074h0.015V42.83
				c0-0.158-0.03-0.285-0.045-0.405c-0.036-0.268-0.292-0.371-0.784-0.408v-0.192h1.83v0.192c-0.351,0.037-0.604,0.142-0.644,0.408
				c-0.015,0.12-0.043,0.247-0.043,0.405v4.219H97.427z"/>
			<path fill="#5E6A71" d="M98.528,44.405c0-1.149,0.971-2.674,2.986-2.674c0.725,0,1.067,0.136,1.434,0.256
				c0.209,0.066,0.292,0.171,0.292,0.29v0.964h-0.194c-0.021-0.599-0.402-1.248-1.59-1.248c-1.561,0-2.067,1.075-2.076,2.354
				c-0.007,1.18,0.591,2.531,2.106,2.531c0.934,0,1.016-0.345,1.016-0.926v-0.456c0-0.695,0.029-0.657-0.792-0.739v-0.192h2.158
				v0.192c-0.672,0.082-0.641,0.044-0.641,0.739v1.3c-0.479,0.188-1.106,0.344-1.786,0.344
				C99.91,47.138,98.528,46.407,98.528,44.405z"/>
			<path fill="#5E6A71" d="M106.429,46.116c0,0.695-0.03,0.656,0.642,0.738v0.194h-2.009v-0.194
				c0.671-0.082,0.642-0.043,0.642-0.738v-4.055h-0.604c-0.649,0-0.799,0.407-1.045,0.902h-0.187l0.203-1.141h3.995l0.201,1.141
				h-0.188c-0.246-0.495-0.396-0.902-1.045-0.902h-0.604L106.429,46.116L106.429,46.116z"/>
			<path fill="#5E6A71" d="M108.266,44.532c0-1.614,1.255-2.801,2.808-2.801c1.62,0,2.561,1.396,2.561,2.548
				c0,1.576-1.18,2.859-2.83,2.859C109.378,47.138,108.266,45.982,108.266,44.532z M112.782,44.503c0-1.786-0.962-2.511-1.874-2.511
				c-1.269,0-1.791,1.136-1.791,2.15c0,1.809,0.925,2.733,1.888,2.733C112.395,46.877,112.782,45.503,112.782,44.503z"/>
			<path fill="#5E6A71" d="M118.451,47.049c-1.188-1.403-2.42-2.876-3.637-4.31v3.303c0,0.154,0.028,0.281,0.044,0.401
				c0.038,0.27,0.291,0.373,0.784,0.41v0.194h-1.829v-0.194c0.358-0.037,0.604-0.142,0.643-0.41c0.016-0.12,0.044-0.247,0.044-0.401
				v-3.52c-0.208-0.27-0.439-0.507-0.866-0.507v-0.192h1.359c1.112,1.349,2.27,2.724,3.383,4.074h0.015V42.83
				c0-0.158-0.03-0.285-0.044-0.405c-0.038-0.268-0.291-0.371-0.785-0.408v-0.192h1.829v0.192c-0.351,0.037-0.604,0.142-0.642,0.408
				c-0.015,0.12-0.045,0.247-0.045,0.405v4.219H118.451z"/>
			<path fill="#5E6A71" d="M76.642,40.823v-0.009h-2.021v0.25c0.78,0.009,0.907,0.287,0.702,0.877l-1.528,4.162H73.71l-1.8-5.203
				h-0.456l-1.891,5.203h-0.129l-1.355-4.135c-0.191-0.655,0.077-0.904,0.684-0.904v-0.25h-2.397v0.25
				c0.509,0,0.601,0.396,0.928,1.338l1.74,5.145h0.458l1.861-5.248l1.835,5.251H73.7c0.785-2.087,1.89-5.179,2.296-6.009
				c0.152-0.312,0.425-0.474,0.681-0.474v-0.244H76.642z"/>
			<path fill="#5E6A71" d="M82.013,44.243c-0.786-0.589-1.337-0.918-1.337-1.469c0-0.581,0.409-0.817,0.864-0.817
				c0.629,0,0.927,0.44,0.99,0.991h0.204v-1.03c0-0.039-0.008-0.069-0.056-0.086c-0.313-0.108-0.763-0.149-1.1-0.149
				c-0.904,0-1.688,0.558-1.688,1.267c0,0.382,0.105,0.655,0.261,0.865h-0.003c0.003,0.003,0.006,0.006,0.01,0.009
				c0.19,0.254,0.452,0.417,0.683,0.57c1.18,0.777,1.454,1.193,1.454,1.705c0,0.475-0.356,0.951-1.014,1
				c-0.672,0.046-1.537-0.278-1.9-1.223c-0.323-0.904-0.979-2.809-1.425-4.121h-0.433c-0.62,1.65-1.46,4.07-1.782,4.728
				c-0.119,0.246-0.335,0.373-0.537,0.373v0.194h0.322h1.037v-0.194c-0.329,0-0.472-0.246-0.374-0.537l0.344-1.001h1.904l0.32,0.963
				l0.247,0.742c0,0,1.335,0.35,2.204,0.35c0.943,0,1.901-0.519,1.901-1.453C83.112,45.265,82.846,44.864,82.013,44.243z
				 M76.646,45.033l0.889-2.429h0.015l0.792,2.429H76.646z"/>
		</g>
	</g>
	<g>
		<path fill="#5E6A71" d="M82.645,26.763h-2.872V16.461H69.649v10.303h-2.872V6.041h2.872v8.349h10.123V6.041h2.872L82.645,26.763
			L82.645,26.763z"/>
		<path fill="#5E6A71" d="M85.722,19.185c0-4.795,3.552-7.578,7.28-7.578c3.73,0,7.312,2.783,7.312,7.578
			c0,4.588-2.932,7.934-7.312,7.934C88.651,27.118,85.722,23.773,85.722,19.185z M88.593,19.185c0,2.782,0.947,6.039,4.41,6.039
			c3.493,0,4.44-3.257,4.44-6.039c0-2.664-1.095-5.685-4.44-5.685C89.688,13.501,88.593,16.521,88.593,19.185z"/>
		<path fill="#5E6A71" d="M105.731,13.797c1.392-1.479,3.521-2.189,5.062-2.189c3.404,0,5.24,1.895,5.24,5.625v9.532h-2.664v-8.97
			c0-2.782-1.185-4.232-3.582-4.232c-2.102,0-4.025,1.451-4.025,4.292v8.91h-2.664V11.962h2.635L105.731,13.797L105.731,13.797z"/>
		<path fill="#5E6A71" d="M118.813,19.185c0-4.795,3.552-7.578,7.281-7.578s7.312,2.783,7.312,7.578
			c0,4.588-2.931,7.934-7.312,7.934C121.743,27.118,118.813,23.773,118.813,19.185z M121.685,19.185c0,2.782,0.946,6.039,4.41,6.039
			c3.492,0,4.439-3.257,4.439-6.039c0-2.664-1.095-5.685-4.439-5.685C122.779,13.501,121.685,16.521,121.685,19.185z"/>
		<path fill="#5E6A71" d="M138.794,13.797l1.065-1.125c0.621-0.622,1.599-1.064,2.22-1.064c0.651,0,1.629,0.474,2.457,1.451
			l-1.214,1.717c-0.65-0.326-1.302-0.622-1.983-0.622c-1.36,0-2.485,1.361-2.485,4.646v7.964h-2.664V11.962h2.604V13.797
			L138.794,13.797z"/>
		<path fill="#5E6A71" d="M153.742,14.33c-1.066-0.711-1.925-0.947-2.724-0.947c-0.947,0-2.161,0.444-2.161,1.688
			s1.36,1.865,3.049,3.138c1.895,1.451,3.138,2.665,3.138,4.736c0,2.487-2.457,4.174-5.18,4.174c-1.688,0-3.582-0.74-4.559-1.865
			l1.302-1.51c0.857,0.799,2.013,1.48,3.197,1.48c1.242,0,2.517-0.651,2.517-2.103c0-1.717-1.54-2.457-2.931-3.463
			c-1.688-1.214-3.168-2.22-3.168-4.233c0-2.339,2.31-3.818,4.914-3.818c1.449,0,2.87,0.592,3.642,1.361L153.742,14.33z"/>
		<path fill="#5E6A71" d="M181.418,9.564c-0.978-0.799-3.196-1.807-5.418-1.807c-5.121,0-8.141,3.67-8.141,8.525
			c0,5.239,3.612,8.762,8.141,8.762c2.25,0,4.026-0.71,5.24-1.54l1.125,1.718c-1.392,0.946-3.849,1.895-6.513,1.895
			c-7.4,0-11.16-5.062-11.16-10.775c0-5.21,4.085-10.656,11.516-10.656c2.96,0,5.032,1.036,6.395,2.102L181.418,9.564z"/>
		<path fill="#5E6A71" d="M183.962,19.185c0-4.795,3.554-7.578,7.282-7.578c3.73,0,7.312,2.783,7.312,7.578
			c0,4.588-2.932,7.934-7.312,7.934C186.893,27.118,183.962,23.773,183.962,19.185z M186.834,19.185c0,2.782,0.947,6.039,4.41,6.039
			c3.493,0,4.44-3.257,4.44-6.039c0-2.664-1.096-5.685-4.44-5.685C187.929,13.501,186.834,16.521,186.834,19.185z"/>
		<path fill="#5E6A71" d="M201.633,26.763V5.005h2.664v21.758L201.633,26.763L201.633,26.763z"/>
		<path fill="#5E6A71" d="M208.382,26.763V5.005h2.664v21.758L208.382,26.763L208.382,26.763z"/>
		<path fill="#5E6A71" d="M216.878,19.54c-0.029,2.96,2.071,5.685,5.002,5.685c1.362,0,3.021-0.503,4.057-1.273l0.77,1.45
			c-1.539,1.095-3.374,1.717-4.914,1.717c-4.617,0-7.667-2.842-7.667-8.052c0-5.122,3.671-7.46,7.018-7.46
			c4.499,0,6.009,4.056,5.713,7.934H216.878z M224.426,17.764c0-2.31-0.977-4.264-3.314-4.264c-2.842,0-3.967,2.368-4.056,4.264
			H224.426z"/>
		<path fill="#5E6A71" d="M243.429,26.23c0,5.653-3.522,7.933-7.52,7.933c-2.189,0-4.381-0.414-6.098-1.479l0.738-1.747
			c1.808,1.036,3.465,1.332,5.3,1.332c3.05,0,4.914-1.954,4.914-5.832v-2.014h-0.06c-1.036,1.45-2.604,2.694-4.942,2.694
			c-4.087,0-6.632-3.197-6.632-7.934c0-3.849,2.843-7.578,7.074-7.578c1.776,0,3.671,0.888,4.5,2.397h0.06v-2.042h2.664
			L243.429,26.23L243.429,26.23z M240.765,18.889c0-2.783-1.511-5.389-4.41-5.389c-3.079,0-4.353,2.427-4.353,5.565
			c0,3.167,1.361,6.157,4.174,6.157C239.403,25.224,240.765,22.174,240.765,18.889z"/>
		<path fill="#5E6A71" d="M249.496,19.54c-0.03,2.96,2.071,5.685,5.002,5.685c1.362,0,3.021-0.503,4.057-1.273l0.77,1.45
			c-1.539,1.095-3.374,1.717-4.914,1.717c-4.617,0-7.666-2.842-7.666-8.052c0-5.122,3.67-7.46,7.016-7.46
			c4.499,0,6.01,4.056,5.714,7.934H249.496z M257.044,17.764c0-2.31-0.977-4.264-3.314-4.264c-2.842,0-3.967,2.368-4.057,4.264
			H257.044z"/>
	</g>
	<rect x="55.545" y="0" fill="#5E6A71" width="0.75" height="53.559"/>
	<g>
		<path fill="#5E6A71" d="M36.832,32.816l-4.615,3.29l-4.618-3.29c-3.283-2.246-6.099-4.17-7.572-7.094
			c1.217,5.479,6.574,7.528,12.19,11.924c5.613-4.396,10.972-6.444,12.188-11.924C42.93,28.646,40.115,30.57,36.832,32.816z"/>
		<path fill="#981E32" d="M19.387,6.021v0.573c0.356,0.125,0.473,0.236,0.512,0.761v13.242c0,7.364,5.994,9.313,12.319,14.262
			c6.324-4.948,12.32-6.897,12.32-14.262V7.205c0.047-0.399,0.174-0.498,0.496-0.608V6.021H19.387z"/>
		<g>
			<g>
				<g>
					<path fill="#FFFFFF" d="M34.713,27.582c0,0,1.023-0.438,1.586-2.131c0.494,1.033,0.365,2.094,0.365,2.094
						C36.209,27.646,34.713,27.582,34.713,27.582z"/>
					<path fill="#FFFFFF" d="M40.213,17.893c0,0,0.627,3.405-1.586,3.521c-2.135,0.111-3.141-3.1-3.141-3.1s0.516,6.276,3.508,5.862
						C42.365,23.713,40.213,17.893,40.213,17.893z"/>
				</g>
			</g>
			<path fill="#FFFFFF" d="M23.959,26.773c0-0.002,0.004-0.002,0.004-0.002c2.496-0.568,4.404-3.482,4.97-4.65l0.354-0.74
				l0.215,0.791c0.013,0.043,0.244,0.918,0.244,2.072c0,0.129-0.006,0.26-0.012,0.394c0.861,0.032,1.477-0.142,1.858-0.539
				c0.548-0.566,0.714-1.642,0.507-3.283c-0.099-0.785-0.39-2.037-0.646-3.14c-0.131-0.563-0.256-1.098-0.33-1.477
				c-0.481-2.412,0.115-3.91,0.701-4.74c0.094-0.131,0.193-0.256,0.299-0.373c-1.727,0.582-3.176,1.486-4.668,2.979l1.051,1.219
				l0.431-0.402c0.405,1.517,0.112,2.908,0.112,2.908c-0.553-0.842-1.204-1.524-1.204-1.524l0.284-0.479l-0.946-1.102l-0.109-0.123
				c-1.164,1.602-1.541,2.91-1.541,2.91l0.826,0.756l0.479,0.436L27,18.197c0.888,1.664,0.076,3.219,0.076,3.219
				c-0.145-0.565-0.729-1.403-0.729-1.403l0.229-0.765l-1.229-1.11c-1.279,3.993-2.986,5.288-2.986,5.288s1.848-0.334,2.877-0.68
				C25.238,22.746,25.209,24.852,23.959,26.773z"/>
			<path fill="#FFFFFF" d="M42.615,12.359l-2.953,0.123c0.002,0.35-0.045,0.701-0.156,1.035c0.275,1.205,0.084,1.858,0.084,1.858
				c-0.493-1.149-0.87-1.469-0.87-1.469c-2.712-1.205-4.234,1.518-4.07,3.275c0.133,1.444,0.656,3.36,1.063,6.368
				c0.345,2.529-0.936,3.623-2.409,3.875c-0.031,0.005-0.064,0.013-0.097,0.019c-0.01,0-0.016,0-0.022,0
				c-0.24,0.031-0.492,0.045-0.765,0.039c-0.006-0.002-0.018-0.002-0.024-0.002c-0.031,0-0.06-0.006-0.088-0.006
				c-0.115-0.007-0.229-0.019-0.341-0.031c-1.146-0.16-3.715-0.625-6.364-0.689c1.559-0.912,2.778-2.487,3.459-3.604
				c0.041,0.309,0.071,0.688,0.071,1.104c0,0.207-0.006,0.427-0.026,0.646l-0.025,0.307l0.306,0.025
				c1.221,0.104,2.086-0.127,2.647-0.711c0.693-0.722,0.906-1.922,0.672-3.783c-0.1-0.816-0.396-2.084-0.656-3.201
				c-0.129-0.559-0.252-1.09-0.325-1.457c-0.439-2.201,0.086-3.537,0.602-4.27c0.404-0.574,0.963-0.994,1.574-1.197
				c0.012-0.002,0.022-0.004,0.033-0.006l1.008-3.094h0.315l-0.676,2.975c0.156-0.027,0.314-0.053,0.478-0.078l0.869-2.742h0.313
				l-0.57,2.656c0.9-0.115,1.879-0.207,2.961-0.285c0.177,0.07,0.363,0.271,0.531,0.558l2.842-0.875l0.105,0.307l-2.715,1.053
				c0.021,0.058,0.041,0.113,0.059,0.174l2.971-0.369l0.05,0.318l-2.882,0.576c0.011,0.053,0.021,0.107,0.027,0.16l2.998,0.098
				L42.615,12.359z M34.061,13.686c0.596-0.416,1.606-0.738,2.561-0.666c0.24,0.02,0.443-0.045,0.185-0.183
				c-0.711-0.375-2.367-0.248-2.953,0.152c-0.939,0.641-0.781,1.781-0.761,1.809C33.279,14.473,33.598,14.012,34.061,13.686z"/>
		</g>
	</g>
	<g id="bad_wsu" display="none">
		<g display="inline">
			<path fill="#5E6A71" d="M124.346,59.438c-0.08-0.697-0.459-1.256-1.255-1.256c-0.575,0-1.159,0.299-1.159,1.034
				c0,0.695,0.694,1.115,1.69,1.861c1.053,0.785,1.394,1.293,1.394,2.119c0,1.184-1.148,1.84-2.343,1.84
				c-0.637,0-1.184-0.121-1.7-0.318c-0.039-0.021-0.068-0.061-0.068-0.139v-1.434h0.258c0.109,1.104,0.834,1.541,1.603,1.541
				c0.707,0,1.35-0.535,1.35-1.263c0-0.647-0.35-1.176-1.842-2.159c-0.537-0.355-1.203-0.746-1.203-1.828
				c0-0.898,0.928-1.604,2.074-1.604c0.426,0,0.994,0.049,1.391,0.189c0.062,0.02,0.07,0.061,0.07,0.108v1.306h-0.259V59.438z"/>
			<path fill="#5E6A71" d="M127.816,63.35c0,0.688-0.029,0.649,0.637,0.729v0.193h-1.99V64.08c0.666-0.08,0.638-0.043,0.638-0.729
				v-4.017H126.5c-0.645,0-0.793,0.406-1.035,0.896h-0.186l0.199-1.133h3.957l0.198,1.133h-0.184
				c-0.244-0.488-0.391-0.896-1.035-0.896h-0.6L127.816,63.35L127.816,63.35z"/>
			<path fill="#5E6A71" d="M130.447,62.584l-0.334,0.976c-0.096,0.284,0.043,0.526,0.363,0.526v0.188h-1.326v-0.188
				c0.197,0,0.408-0.125,0.524-0.364c0.312-0.642,1.166-3.025,1.771-4.636h0.408c0.494,1.463,1.235,3.711,1.485,4.357
				c0.16,0.408,0.275,0.643,0.591,0.643v0.188h-1.697v-0.188c0.457,0,0.502-0.242,0.385-0.562l-0.313-0.939L130.447,62.584
				L130.447,62.584z M132.211,62.307l-0.772-2.369h-0.015l-0.864,2.369H132.211z"/>
			<path fill="#5E6A71" d="M135.953,63.35c0,0.688-0.027,0.649,0.637,0.729v0.193H134.6V64.08c0.666-0.08,0.637-0.043,0.637-0.729
				v-4.017h-0.6c-0.644,0-0.791,0.406-1.035,0.896h-0.187l0.201-1.133h3.957l0.199,1.133h-0.187
				c-0.242-0.488-0.391-0.896-1.032-0.896h-0.603L135.953,63.35L135.953,63.35z"/>
			<path fill="#5E6A71" d="M138.121,64.081c0.666-0.08,0.572-0.043,0.572-0.729v-3.33c0-0.687,0.094-0.65-0.572-0.732v-0.19h3.24
				v1.188h-0.191c-0.073-0.545-0.221-0.951-0.754-0.951h-1.006v2.115h0.621c0.465,0,0.666-0.186,0.68-0.645h0.193v1.573h-0.193
				c-0.014-0.436-0.184-0.692-0.68-0.692h-0.621v1.67c0,0.631,0.289,0.682,0.953,0.682c1.074,0,1.021-0.305,1.361-1.096h0.19
				l-0.221,1.332h-3.574L138.121,64.081L138.121,64.081z"/>
		</g>
		<g display="inline">
			<g>
				<path fill="#5E6A71" d="M155.391,64.274c0,0,0,0-3.603-4.269v3.271c0,0.154,0.031,0.281,0.043,0.397
					c0.037,0.269,0.289,0.371,0.777,0.406v0.193h-1.812V64.08c0.355-0.035,0.599-0.139,0.636-0.406
					c0.016-0.116,0.045-0.243,0.045-0.397v-3.484c-0.207-0.266-0.438-0.502-0.857-0.502v-0.192h1.346
					c1.103,1.338,2.248,2.7,3.351,4.039h0.016v-3.039c0-0.156-0.028-0.283-0.045-0.4c-0.037-0.266-0.287-0.367-0.776-0.406v-0.192
					h1.812v0.192c-0.348,0.039-0.598,0.142-0.637,0.406c-0.015,0.117-0.043,0.244-0.043,0.4v4.178L155.391,64.274L155.391,64.274z"
					/>
			</g>
			<path fill="#5E6A71" d="M158.297,63.35c0,0.688-0.028,0.651,0.638,0.729v0.193h-1.99V64.08c0.666-0.078,0.637-0.043,0.637-0.729
				v-3.328c0-0.688,0.029-0.652-0.637-0.732v-0.19h1.99v0.19c-0.666,0.08-0.638,0.045-0.638,0.732V63.35z"/>
			<path fill="#5E6A71" d="M167.709,62.942c-0.34,0.793-0.289,1.096-1.36,1.096c-0.664,0-0.955-0.051-0.955-0.682v-1.67h0.623
				c0.496,0,0.664,0.26,0.68,0.694h0.191v-1.575h-0.191c-0.016,0.459-0.215,0.645-0.68,0.645h-0.623v-2.115h1.176
				c0.531,0,0.68,0.406,0.752,0.953h0.193v-1.188h-3.406h-1.467v0.19c0.502,0,0.694,0.229,0.51,0.695
				c-0.459,1.133-0.91,2.27-1.383,3.402c-0.386-1.123-0.812-2.396-1.101-3.271c-0.246-0.711,0.051-0.828,0.457-0.828v-0.19h-1.881
				v0.19c0.355,0,0.451,0.229,0.728,1.021c0.45,1.258,0.954,2.686,1.405,3.965h0.377c0.619-1.517,1.25-3.023,1.871-4.539
				c0.154-0.371,0.267-0.445,0.482-0.445c0.664,0.08,0.567,0.045,0.567,0.732v3.328c0,0.688,0.097,0.651-0.567,0.729v0.193h3.572
				l0.223-1.332L167.709,62.942L167.709,62.942z"/>
			<path fill="#5E6A71" d="M178.012,63.35c0,0.688-0.031,0.651,0.635,0.729v0.193h-1.99V64.08c0.666-0.078,0.637-0.043,0.637-0.729
				v-3.328c0-0.688,0.029-0.652-0.637-0.732v-0.19h1.99v0.19c-0.666,0.08-0.635,0.045-0.635,0.732V63.35z"/>
			<path fill="#5E6A71" d="M185.574,59.098v0.19c0.436,0,0.674,0.213,0.422,0.666l-1.021,1.857l-0.896-1.857
				c-0.186-0.385-0.235-0.666,0.324-0.666v-0.19h-1.238h-0.514h-3.445l-0.201,1.131h0.188c0.242-0.488,0.391-0.896,1.033-0.896
				h0.602v4.017c0,0.688,0.029,0.651-0.637,0.729v0.193h1.99V64.08c-0.666-0.078-0.638-0.043-0.638-0.729v-4.017h0.601
				c0.604,0,1.014,0.361,1.264,0.812l1.041,2.063v1.14c0,0.688,0.029,0.651-0.635,0.729v0.193h1.988v-0.193
				c-0.664-0.078-0.636-0.043-0.636-0.729v-0.828c0-0.185,0.015-0.394,0.088-0.539l1.234-2.242c0.201-0.355,0.4-0.451,0.607-0.451
				v-0.19H185.574z"/>
			<path fill="#5E6A71" d="M150.629,57.977l-2.33,0.006v0.192c0.468,0.052,0.808,0.257,0.855,0.615
				c0.02,0.158,0.059,0.326,0.059,0.537v2.764c0,1.593-0.717,2.509-2.078,2.509c-1.481,0-1.928-1.064-1.928-2.459v-2.914
				c0-0.924,0.027-0.941,0.924-1.052v-0.192h-2.678v0.192c0.896,0.109,0.855,0.128,0.855,1.052v2.965
				c0,1.801,0.657,2.877,2.774,2.877c1.283,0,2.646-0.797,2.646-2.938v-2.803c0-0.02,0-0.035,0-0.051
				c-0.008-0.863,0.328-0.988,0.893-1.08L150.629,57.977z"/>
			<path fill="#5E6A71" d="M175.059,61.567c-0.785-0.59-1.334-0.918-1.334-1.467c0-0.582,0.407-0.816,0.862-0.816
				c0.629,0,0.927,0.439,0.988,0.988h0.203v-1.027c0-0.039-0.008-0.072-0.055-0.086c-0.312-0.109-0.761-0.15-1.099-0.15
				c-0.901,0-1.686,0.558-1.686,1.265c0,0.381,0.104,0.653,0.26,0.865h-0.004c0.004,0.002,0.008,0.006,0.01,0.008
				c0.189,0.254,0.451,0.416,0.683,0.569c1.178,0.775,1.442,1.191,1.452,1.699c0.021,1.135-2.1,1.729-3.493-0.444l-0.726-1.104
				c0.568-0.223,1.035-0.746,1.035-1.508c0-0.867-0.748-1.258-1.494-1.258h-2.154v0.19c0.666,0.08,0.636,0.043,0.636,0.73v3.33
				c0,0.69,0.03,0.651-0.636,0.733v0.193h1.99v-0.193c-0.666-0.082-0.637-0.043-0.637-0.733v-1.367h0.697
				c0.895,1.486,1.114,2.133,1.565,2.295c0.103,0.035,1.263,0.406,2.082,0.406c0.941,0,1.947-0.517,1.947-1.449
				C176.156,62.584,175.889,62.184,175.059,61.567z M170.479,61.827h-0.615v-2.412h0.568c0.541,0,0.987,0.281,0.987,1.088
				C171.42,61.338,171.123,61.827,170.479,61.827z"/>
		</g>
		<g display="inline">
			<path fill="#5E6A71" d="M84.764,63.35c0,0.688-0.031,0.651,0.635,0.733v0.191h-1.99v-0.191c0.666-0.082,0.637-0.047,0.637-0.733
				v-3.328c0-0.688-0.319-0.65-0.983-0.732v-0.19H85.4v0.19c-0.666,0.082-0.635,0.045-0.635,0.732v1.278h2.596v-1.278
				c0-0.688,0.029-0.65-0.637-0.732v-0.19h1.987v0.19c-0.664,0.082-0.635,0.045-0.635,0.732v3.328c0,0.688-0.029,0.651,0.635,0.733
				v0.191h-1.987v-0.191c0.666-0.082,0.637-0.047,0.637-0.733v-1.746h-2.596L84.764,63.35L84.764,63.35z"/>
			<path fill="#5E6A71" d="M90.881,63.35c0,0.688-0.028,0.651,0.636,0.733v0.191h-1.988v-0.191c0.666-0.082,0.635-0.047,0.635-0.733
				v-3.328c0-0.688,0.031-0.65-0.635-0.732v-0.19h1.988v0.19c-0.664,0.082-0.636,0.045-0.636,0.732V63.35z"/>
			<path fill="#5E6A71" d="M97.029,64.276c-1.176-1.392-2.396-2.848-3.6-4.271v3.271c0,0.152,0.026,0.279,0.043,0.397
				c0.036,0.267,0.289,0.369,0.774,0.408v0.191h-1.811v-0.191c0.354-0.039,0.6-0.143,0.637-0.408
				c0.014-0.118,0.043-0.245,0.043-0.397v-3.486c-0.207-0.266-0.438-0.502-0.857-0.502v-0.19h1.347
				c1.104,1.338,2.248,2.698,3.352,4.036h0.015v-3.038c0-0.156-0.029-0.283-0.046-0.4c-0.034-0.266-0.288-0.367-0.774-0.406v-0.19
				h1.812v0.19c-0.348,0.039-0.6,0.142-0.639,0.406c-0.014,0.117-0.043,0.244-0.043,0.4v4.18H97.029z"/>
			<path fill="#5E6A71" d="M98.121,61.657c0-1.139,0.961-2.648,2.957-2.648c0.719,0,1.06,0.134,1.42,0.252
				c0.209,0.068,0.289,0.171,0.289,0.289v0.953h-0.19c-0.023-0.592-0.4-1.233-1.576-1.233c-1.545,0-2.049,1.063-2.056,2.328
				c-0.008,1.17,0.582,2.51,2.084,2.51c0.927,0,1.007-0.342,1.007-0.918v-0.451c0-0.689,0.028-0.65-0.783-0.732v-0.19h2.139v0.19
				c-0.668,0.082-0.637,0.043-0.637,0.732v1.287c-0.476,0.184-1.096,0.342-1.771,0.342C99.488,64.366,98.121,63.639,98.121,61.657z"
				/>
			<path fill="#5E6A71" d="M105.945,63.35c0,0.688-0.029,0.651,0.637,0.733v0.191h-1.99v-0.191c0.666-0.082,0.638-0.047,0.638-0.733
				v-4.017h-0.601c-0.643,0-0.791,0.406-1.037,0.896h-0.182l0.199-1.131h3.955l0.201,1.131h-0.187
				c-0.242-0.488-0.391-0.896-1.035-0.896h-0.6L105.945,63.35L105.945,63.35z"/>
			<path fill="#5E6A71" d="M107.766,61.784c0-1.6,1.241-2.775,2.778-2.775c1.605,0,2.537,1.384,2.537,2.523
				c0,1.561-1.168,2.834-2.803,2.834C108.867,64.366,107.766,63.219,107.766,61.784z M112.24,61.752
				c0-1.768-0.955-2.483-1.857-2.483c-1.258,0-1.772,1.123-1.772,2.131c0,1.789,0.916,2.707,1.869,2.707
				C111.855,64.106,112.24,62.745,112.24,61.752z"/>
			<path fill="#5E6A71" d="M117.854,64.276c-1.176-1.392-2.396-2.848-3.603-4.271v3.271c0,0.152,0.029,0.279,0.045,0.397
				c0.037,0.267,0.287,0.369,0.775,0.408v0.191h-1.812v-0.191c0.355-0.039,0.601-0.143,0.638-0.408
				c0.016-0.118,0.045-0.245,0.045-0.397v-3.486c-0.207-0.266-0.438-0.502-0.859-0.502v-0.19h1.349
				c1.102,1.338,2.248,2.698,3.35,4.036h0.014v-3.038c0-0.156-0.028-0.283-0.043-0.4c-0.037-0.266-0.287-0.367-0.774-0.406v-0.19
				h1.811v0.19c-0.346,0.039-0.598,0.142-0.637,0.406c-0.014,0.117-0.043,0.244-0.043,0.4v4.18H117.854z"/>
			<path fill="#5E6A71" d="M76.545,58.108V58.1h-2v0.246c0.771,0.01,0.898,0.284,0.695,0.868l-1.516,4.123h-0.082l-1.783-5.153
				h-0.451l-1.875,5.153h-0.127l-1.342-4.096c-0.191-0.648,0.074-0.896,0.676-0.896V58.1h-2.375v0.246
				c0.506,0,0.596,0.395,0.92,1.325l1.725,5.095h0.453l1.845-5.195l1.817,5.201h0.508c0.777-2.068,1.871-5.131,2.273-5.953
				c0.15-0.312,0.422-0.469,0.674-0.469v-0.242H76.545z"/>
			<path fill="#5E6A71" d="M81.744,61.512c-0.771-0.58-1.313-0.906-1.313-1.447c0-0.574,0.401-0.808,0.85-0.808
				c0.621,0,0.914,0.435,0.977,0.978h0.201v-1.014c0-0.039-0.008-0.07-0.055-0.084c-0.31-0.109-0.75-0.148-1.082-0.148
				c-0.891,0-1.664,0.549-1.664,1.246c0,0.379,0.104,0.646,0.256,0.854H79.91c0.002,0.002,0.006,0.004,0.01,0.009
				c0.187,0.25,0.443,0.409,0.672,0.562c1.162,0.766,1.433,1.176,1.433,1.68c0,0.468-0.353,0.937-0.998,0.98
				c-0.662,0.049-1.514-0.271-1.873-1.201c-0.318-0.891-0.965-2.764-1.402-4.059h-0.426c-0.609,1.625-1.438,4.01-1.754,4.655
				c-0.117,0.242-0.33,0.367-0.529,0.367v0.191h0.316h1.021v-0.191c-0.323,0-0.463-0.242-0.366-0.531l0.338-0.981h1.875l0.315,0.947
				l0.244,0.729c0,0,1.314,0.344,2.17,0.344c0.93,0,1.873-0.51,1.873-1.432C82.828,62.518,82.564,62.122,81.744,61.512z
				 M76.461,62.29l0.875-2.391h0.015l0.778,2.391H76.461z"/>
		</g>
	</g>
</g>
</svg>
