<?xml version="1.0" encoding="utf-8"?>
<!-- Generator: Adobe Illustrator 16.0.0, SVG Export Plug-In . SVG Version: 6.00 Build 0)  -->
<!DOCTYPE svg PUBLIC "-//W3C//DTD SVG 1.1//EN" "http://www.w3.org/Graphics/SVG/1.1/DTD/svg11.dtd">
<svg version="1.1" id="Layer_1" xmlns="http://www.w3.org/2000/svg" xmlns:xlink="http://www.w3.org/1999/xlink" x="0px" y="0px"
	 width="300.227px" height="77.875px" viewBox="19.387 0 300.227 77.875" enable-background="new 19.387 0 300.227 77.875"
	 xml:space="preserve">
<g>
	<g>
		<path fill="#5E6A71" d="M68.669,71.875l-2.007-5.365l0.768-0.139c0.526,1.48,1.046,2.969,1.565,4.635h0.017
			c0.542-1.666,1.101-3.153,1.65-4.635l0.674,0.094l-2.163,5.41H68.669z"/>
		<path fill="#5E6A71" d="M74.053,66.451l2.022,5.426h-0.868l-0.558-1.599h-2.07l-0.581,1.599H71.27l2.209-5.426H74.053z
			 M74.472,69.735c-0.271-0.752-0.535-1.504-0.807-2.479H73.65c-0.279,0.977-0.566,1.729-0.86,2.479H74.472z"/>
		<path fill="#5E6A71" d="M81.84,71.875h-0.59c-1.178-1.412-3.201-3.846-3.526-4.317h-0.017v4.317h-0.62v-5.424h0.56
			c1.192,1.409,3.192,3.78,3.558,4.323h0.017v-4.323h0.619V71.875z"/>
		<path fill="#5E6A71" d="M87.636,67.373c-0.257-0.209-0.838-0.474-1.419-0.474c-1.341,0-2.131,0.961-2.131,2.231
			c0,1.371,0.945,2.295,2.131,2.295c0.59,0,1.055-0.188,1.372-0.403l0.294,0.449c-0.363,0.247-1.007,0.495-1.704,0.495
			c-1.938,0-2.923-1.323-2.923-2.819c0-1.364,1.07-2.791,3.016-2.791c0.774,0,1.317,0.271,1.674,0.552L87.636,67.373z"/>
		<path fill="#5E6A71" d="M88.951,69.069c0-1.521,1.147-2.713,2.713-2.713c1.566,0,2.713,1.192,2.713,2.713
			c0,1.621-1.039,2.897-2.713,2.897S88.951,70.69,88.951,69.069z M93.547,69.069c0-1.016-0.542-2.17-1.884-2.17
			c-1.341,0-1.883,1.154-1.883,2.17c0,1.062,0.479,2.356,1.883,2.356C93.067,71.425,93.547,70.13,93.547,69.069z"/>
		<path fill="#5E6A71" d="M96.468,66.451v3.284c0,1.125,0.419,1.714,1.388,1.714c1.016,0,1.355-0.806,1.355-1.58v-3.418h0.706v3.434
			c0,1.217-0.752,2.084-2.062,2.084c-1.527,0-2.14-0.805-2.14-2.201v-3.316H96.468z"/>
		<path fill="#5E6A71" d="M102.852,71.875l-2.007-5.365l0.767-0.139c0.527,1.48,1.046,2.969,1.566,4.635h0.016
			c0.542-1.666,1.101-3.153,1.651-4.635l0.674,0.094l-2.163,5.41H102.852z"/>
		<path fill="#5E6A71" d="M109.196,66.992h-1.922v1.752h1.884v0.543h-1.884v2.047h2.256v0.543h-3.007v-5.426h2.674L109.196,66.992
			L109.196,66.992z"/>
		<path fill="#5E6A71" d="M110.766,66.451h1.551c0.883,0,1.573,0.457,1.573,1.395c0,0.799-0.389,1.248-0.907,1.582l1.349,2.309
			l-0.76,0.232l-1.255-2.34h-0.799v2.248h-0.752V66.451z M111.518,69.083h0.427c0.961,0,1.139-0.713,1.139-1.17
			c0-0.668-0.418-0.924-0.922-0.924h-0.644V69.083z"/>
	</g>
	<g id="Good_WSU">
		<g>
			<g>
				<path fill="#5E6A71" d="M174.98,58.559c-0.793-0.595-1.347-0.927-1.347-1.479c0-0.586,0.41-0.824,0.869-0.824
					c0.634,0,0.935,0.443,0.996,0.998h0.207v-1.037c0-0.039-0.008-0.07-0.055-0.086c-0.318-0.11-0.769-0.149-1.107-0.149
					c-0.91,0-1.701,0.562-1.701,1.272c0,0.385,0.105,0.66,0.263,0.871h-0.004c0.004,0.004,0.01,0.008,0.012,0.01
					c0.191,0.256,0.455,0.418,0.688,0.574c1.187,0.783,1.455,1.203,1.464,1.715c0.022,1.143-2.117,1.744-3.523-0.449l-0.729-1.112
					c0.573-0.225,1.043-0.754,1.043-1.522c0-0.875-0.752-1.269-1.507-1.269h-2.172v0.194c0.67,0.08,0.642,0.044,0.642,0.736v3.359
					c0,0.695,0.028,0.656-0.642,0.739v0.194h2.008V61.1c-0.672-0.083-0.645-0.044-0.645-0.739v-1.38h0.705
					c0.9,1.499,1.125,2.151,1.58,2.313c0.1,0.035,1.271,0.412,2.1,0.412c0.949,0,1.963-0.523,1.963-1.465
					C176.086,59.587,175.818,59.183,174.98,58.559z M170.361,58.822h-0.623v-2.434h0.576c0.545,0,0.994,0.283,0.994,1.099
					C171.309,58.33,171.01,58.822,170.361,58.822z"/>
				<path fill="#5E6A71" d="M155.344,61.287c0,0,0,0-3.651-4.326v3.313c0,0.156,0.031,0.285,0.045,0.405
					c0.037,0.271,0.293,0.374,0.789,0.412v0.195h-1.84v-0.195c0.362-0.039,0.606-0.143,0.646-0.412
					c0.015-0.12,0.043-0.249,0.043-0.405v-3.532c-0.207-0.27-0.44-0.511-0.867-0.511v-0.194h1.363
					c1.117,1.358,2.281,2.737,3.398,4.096h0.014v-3.084c0-0.156-0.029-0.282-0.045-0.403c-0.037-0.271-0.291-0.374-0.787-0.413
					v-0.195h1.838v0.195c-0.352,0.039-0.606,0.143-0.646,0.413c-0.015,0.121-0.043,0.247-0.043,0.403v4.238H155.344z"/>
				<path fill="#5E6A71" d="M158.291,60.348c0,0.7-0.028,0.661,0.646,0.743v0.195h-2.019v-0.195
					c0.676-0.082,0.646-0.043,0.646-0.743v-3.374c0-0.696,0.031-0.66-0.646-0.743v-0.192h2.019v0.192
					c-0.674,0.083-0.646,0.047-0.646,0.743V60.348z"/>
				<path fill="#5E6A71" d="M167.834,59.937c-0.346,0.803-0.293,1.111-1.379,1.111c-0.676,0-0.969-0.055-0.969-0.691v-1.695h0.631
					c0.502,0,0.676,0.264,0.689,0.707H167v-1.601h-0.192c-0.015,0.466-0.218,0.653-0.689,0.653h-0.631v-2.145h1.188
					c0.539,0,0.691,0.411,0.765,0.967h0.195v-1.205h-3.455h-1.484v0.191c0.508,0,0.705,0.232,0.518,0.706
					c-0.467,1.147-0.924,2.302-1.403,3.448c-0.392-1.139-0.824-2.428-1.115-3.312c-0.25-0.721,0.053-0.842,0.465-0.842v-0.191
					h-1.908v0.191c0.363,0,0.459,0.232,0.738,1.034c0.455,1.276,0.967,2.724,1.426,4.021h0.381c0.632-1.537,1.269-3.066,1.896-4.604
					c0.158-0.377,0.271-0.452,0.488-0.452c0.676,0.083,0.577,0.047,0.577,0.743v3.374c0,0.7,0.099,0.661-0.577,0.743v0.195h3.623
					l0.227-1.351h-0.197V59.937z"/>
				<path fill="#5E6A71" d="M177.881,60.348c0,0.7-0.03,0.661,0.646,0.743v0.195h-2.019v-0.195c0.677-0.082,0.646-0.043,0.646-0.743
					v-3.374c0-0.696,0.029-0.66-0.646-0.743v-0.192h2.019v0.192c-0.676,0.083-0.646,0.047-0.646,0.743V60.348z"/>
				<path fill="#5E6A71" d="M185.553,56.039v0.192c0.44,0,0.682,0.218,0.426,0.677l-1.035,1.883l-0.908-1.883
					c-0.186-0.391-0.238-0.677,0.33-0.677v-0.192h-1.258h-0.521h-3.491l-0.203,1.146h0.188c0.248-0.494,0.396-0.905,1.049-0.905
					h0.609v4.07c0,0.699,0.029,0.66-0.646,0.744v0.193h2.019v-0.193c-0.676-0.084-0.646-0.045-0.646-0.744v-4.07h0.609
					c0.613,0,1.027,0.366,1.279,0.823l1.059,2.095v1.152c0,0.699,0.029,0.66-0.645,0.744v0.193h2.016v-0.193
					c-0.674-0.084-0.645-0.045-0.645-0.744v-0.84c0-0.188,0.016-0.397,0.09-0.547l1.252-2.272c0.203-0.36,0.403-0.458,0.615-0.458
					v-0.191h-1.543V56.039z"/>
			</g>
			<path fill="#5E6A71" d="M150.537,54.98l-2.363,0.006v0.195c0.476,0.051,0.816,0.259,0.867,0.624
				c0.021,0.159,0.062,0.331,0.062,0.543v2.804c0,1.615-0.728,2.542-2.107,2.542c-1.504,0-1.955-1.079-1.955-2.491v-2.955
				c0-0.938,0.027-0.955,0.937-1.065v-0.195h-2.715v0.195c0.909,0.11,0.868,0.128,0.868,1.065v3.006
				c0,1.826,0.666,2.916,2.812,2.916c1.303,0,2.686-0.807,2.686-2.977v-2.845c0-0.019,0-0.034,0-0.05
				c-0.008-0.877,0.332-1.004,0.904-1.096L150.537,54.98z"/>
		</g>
		<g>
			<path fill="#5E6A71" d="M124.535,56.373c-0.08-0.703-0.462-1.267-1.266-1.267c-0.583,0-1.172,0.304-1.172,1.046
				c0,0.702,0.702,1.124,1.708,1.878c1.063,0.794,1.406,1.308,1.406,2.14c0,1.197-1.16,1.858-2.363,1.858
				c-0.646,0-1.197-0.12-1.721-0.319c-0.039-0.021-0.068-0.062-0.068-0.141v-1.447h0.261c0.112,1.113,0.843,1.558,1.617,1.558
				c0.714,0,1.361-0.544,1.361-1.276c0-0.654-0.352-1.188-1.857-2.18c-0.542-0.361-1.215-0.756-1.215-1.85
				c0-0.906,0.937-1.617,2.092-1.617c0.432,0,1.005,0.051,1.407,0.191c0.061,0.018,0.069,0.061,0.069,0.109v1.316H124.535
				L124.535,56.373z"/>
			<path fill="#5E6A71" d="M127.748,60.324c0,0.696-0.028,0.656,0.644,0.741v0.19h-2.01v-0.19c0.673-0.085,0.644-0.045,0.644-0.741
				v-4.057h-0.606c-0.649,0-0.8,0.412-1.046,0.902h-0.185l0.2-1.143h3.995l0.202,1.143h-0.187c-0.247-0.49-0.396-0.902-1.045-0.902
				h-0.606V60.324z"/>
			<path fill="#5E6A71" d="M130.355,59.525l-0.342,1.001c-0.099,0.293,0.044,0.539,0.374,0.539v0.19h-1.36v-0.19
				c0.201,0,0.418-0.13,0.538-0.375c0.32-0.657,1.193-3.101,1.814-4.751h0.418c0.508,1.502,1.27,3.805,1.523,4.469
				c0.166,0.416,0.284,0.657,0.604,0.657v0.19h-1.739v-0.19c0.472,0,0.518-0.246,0.396-0.575l-0.322-0.965H130.355z M132.165,59.242
				l-0.792-2.428h-0.016l-0.889,2.428H132.165z"/>
			<path fill="#5E6A71" d="M135.967,60.324c0,0.696-0.028,0.656,0.642,0.741v0.19h-2.01v-0.19c0.674-0.085,0.645-0.045,0.645-0.741
				v-4.057h-0.606c-0.649,0-0.798,0.412-1.046,0.902h-0.187l0.203-1.143h3.996l0.201,1.143h-0.188
				c-0.244-0.49-0.393-0.902-1.043-0.902h-0.604v4.057H135.967z"/>
			<path fill="#5E6A71" d="M138.154,61.065c0.676-0.085,0.578-0.045,0.578-0.741v-3.361c0-0.694,0.098-0.657-0.578-0.74v-0.193
				h3.272v1.202h-0.194c-0.074-0.551-0.224-0.963-0.76-0.963h-1.019v2.14h0.627c0.471,0,0.672-0.189,0.688-0.652h0.192v1.591h-0.192
				c-0.017-0.441-0.187-0.702-0.688-0.702h-0.627v1.688c0,0.637,0.291,0.689,0.965,0.689c1.082,0,1.029-0.309,1.375-1.107h0.193
				l-0.225,1.344h-3.609L138.154,61.065L138.154,61.065z"/>
		</g>
		<g>
			<path fill="#5E6A71" d="M85.043,60.332c0,0.694-0.029,0.655,0.643,0.737v0.195h-2.009v-0.195
				c0.672-0.082,0.643-0.043,0.643-0.737v-3.363c0-0.691-0.323-0.655-0.995-0.736v-0.191h2.362v0.191
				c-0.672,0.081-0.643,0.045-0.643,0.736v1.295h2.621v-1.295c0-0.691,0.029-0.655-0.643-0.736v-0.191h2.009v0.191
				c-0.671,0.081-0.642,0.045-0.642,0.736v3.363c0,0.694-0.029,0.655,0.642,0.737v0.195h-2.009v-0.195
				c0.672-0.082,0.643-0.043,0.643-0.737v-1.764h-2.621L85.043,60.332L85.043,60.332z"/>
			<path fill="#5E6A71" d="M91.22,60.332c0,0.694-0.031,0.655,0.642,0.737v0.195h-2.008v-0.195c0.671-0.082,0.642-0.043,0.642-0.737
				v-3.363c0-0.691,0.03-0.655-0.642-0.736v-0.191h2.008v0.191c-0.672,0.081-0.642,0.045-0.642,0.736V60.332z"/>
			<path fill="#5E6A71" d="M97.427,61.264c-1.187-1.404-2.419-2.876-3.636-4.31v3.303c0,0.154,0.029,0.281,0.045,0.4
				c0.037,0.271,0.29,0.373,0.783,0.41v0.195H92.79v-0.195c0.358-0.037,0.605-0.141,0.644-0.41c0.014-0.119,0.044-0.246,0.044-0.4
				v-3.521c-0.21-0.269-0.441-0.507-0.867-0.507v-0.191h1.358c1.113,1.349,2.271,2.724,3.383,4.073h0.015v-3.067
				c0-0.157-0.03-0.285-0.045-0.404c-0.036-0.268-0.292-0.372-0.784-0.409v-0.192h1.83v0.192c-0.351,0.037-0.604,0.142-0.644,0.409
				c-0.015,0.119-0.043,0.247-0.043,0.404v4.22H97.427z"/>
			<path fill="#5E6A71" d="M98.528,58.621c0-1.149,0.971-2.675,2.986-2.675c0.725,0,1.067,0.136,1.434,0.257
				c0.209,0.065,0.292,0.17,0.292,0.289v0.965h-0.194c-0.021-0.6-0.402-1.248-1.59-1.248c-1.561,0-2.067,1.074-2.076,2.353
				c-0.007,1.181,0.591,2.532,2.106,2.532c0.934,0,1.016-0.346,1.016-0.926V59.71c0-0.695,0.029-0.657-0.792-0.739v-0.193h2.158
				v0.193c-0.672,0.082-0.641,0.044-0.641,0.739v1.299c-0.479,0.188-1.106,0.344-1.786,0.344
				C99.91,61.353,98.528,60.623,98.528,58.621z"/>
			<path fill="#5E6A71" d="M106.429,60.332c0,0.694-0.03,0.655,0.642,0.737v0.195h-2.009v-0.195
				c0.671-0.082,0.642-0.043,0.642-0.737v-4.056h-0.604c-0.649,0-0.799,0.408-1.045,0.903h-0.187l0.203-1.141h3.995l0.201,1.141
				h-0.188c-0.246-0.495-0.396-0.903-1.045-0.903h-0.604L106.429,60.332L106.429,60.332z"/>
			<path fill="#5E6A71" d="M108.266,58.748c0-1.615,1.255-2.802,2.808-2.802c1.62,0,2.561,1.397,2.561,2.548
				c0,1.576-1.18,2.859-2.83,2.859C109.378,61.353,108.266,60.197,108.266,58.748z M112.782,58.718c0-1.786-0.962-2.512-1.874-2.512
				c-1.269,0-1.791,1.137-1.791,2.15c0,1.809,0.925,2.734,1.888,2.734C112.395,61.091,112.782,59.718,112.782,58.718z"/>
			<path fill="#5E6A71" d="M118.451,61.264c-1.188-1.404-2.42-2.876-3.637-4.31v3.303c0,0.154,0.028,0.281,0.044,0.4
				c0.038,0.271,0.291,0.373,0.784,0.41v0.195h-1.829v-0.195c0.358-0.037,0.604-0.141,0.643-0.41c0.016-0.119,0.044-0.246,0.044-0.4
				v-3.521c-0.208-0.269-0.439-0.507-0.866-0.507v-0.191h1.359c1.112,1.349,2.27,2.724,3.383,4.073h0.015v-3.067
				c0-0.157-0.03-0.285-0.044-0.404c-0.038-0.268-0.291-0.372-0.785-0.409v-0.192h1.829v0.192c-0.351,0.037-0.604,0.142-0.642,0.409
				c-0.015,0.119-0.045,0.247-0.045,0.404v4.22H118.451z"/>
			<path fill="#5E6A71" d="M76.642,55.039v-0.01h-2.021v0.25c0.78,0.01,0.907,0.287,0.702,0.877l-1.528,4.162H73.71l-1.8-5.203
				h-0.456l-1.891,5.203h-0.129l-1.355-4.134c-0.191-0.656,0.077-0.905,0.684-0.905v-0.25h-2.397v0.25
				c0.509,0,0.601,0.396,0.928,1.338l1.74,5.146h0.458l1.861-5.248l1.835,5.251H73.7c0.785-2.087,1.89-5.18,2.296-6.01
				c0.152-0.312,0.425-0.473,0.681-0.473v-0.244H76.642z"/>
			<path fill="#5E6A71" d="M82.013,58.458c-0.786-0.59-1.337-0.918-1.337-1.469c0-0.582,0.409-0.818,0.864-0.818
				c0.629,0,0.927,0.44,0.99,0.992h0.204v-1.031c0-0.039-0.008-0.069-0.056-0.086c-0.313-0.108-0.763-0.149-1.1-0.149
				c-0.904,0-1.688,0.558-1.688,1.267c0,0.383,0.105,0.655,0.261,0.865h-0.003c0.003,0.004,0.006,0.006,0.01,0.01
				c0.19,0.254,0.452,0.416,0.683,0.569c1.18,0.778,1.454,1.194,1.454,1.705c0,0.476-0.356,0.952-1.014,1
				c-0.672,0.046-1.537-0.278-1.9-1.222c-0.323-0.905-0.979-2.809-1.425-4.121h-0.433c-0.62,1.65-1.46,4.07-1.782,4.727
				c-0.119,0.246-0.335,0.373-0.537,0.373v0.195h0.322h1.037V61.07c-0.329,0-0.472-0.246-0.374-0.537l0.344-1h1.904l0.32,0.963
				l0.247,0.741c0,0,1.335,0.351,2.204,0.351c0.943,0,1.901-0.52,1.901-1.453C83.112,59.48,82.846,59.08,82.013,58.458z
				 M76.646,59.248l0.889-2.429h0.015l0.792,2.429H76.646z"/>
		</g>
	</g>
	<g>
		<path fill="#5E6A71" d="M72.381,8.365c0,3.267-2.518,3.918-3.178,3.918c-0.784,0-2.668-0.053-2.668-2.65
			c0-2.236,1.604-3.724,3.495-3.724C71.333,5.909,72.381,6.674,72.381,8.365z M67.469,9.677c0,1.162,0.501,2.342,1.593,2.342
			c1.717,0,2.387-1.999,2.387-3.636c0-1.198-0.335-2.21-1.559-2.21C68.357,6.173,67.469,7.925,67.469,9.677z"/>
		<path fill="#5E6A71" d="M76.286,7.96l-0.211,0.185h-1.153c-0.432,2.095-1.136,4.886-1.638,6.225h-0.396l1.259-6.225h-0.836
			l0.079-0.37h0.827c0.467-1.875,2.017-2.069,2.387-2.069c0.202,0,0.625,0.035,0.757,0.159l-0.105,0.581l-0.22,0.105
			c-0.124-0.238-0.405-0.511-0.774-0.511c-0.528,0-0.925,0.361-1.137,1.312l-0.097,0.422h1.294L76.286,7.96z"/>
		<path fill="#5E6A71" d="M80.15,11.147c-0.062,0.273-0.053,0.449,0.071,0.449c0.062,0,0.157-0.035,0.236-0.07l0.414-0.203
			l0.07,0.194l-1.471,0.792c-0.158-0.053-0.221-0.176-0.237-0.282c-0.035-0.132,0-0.282,0.104-0.695l0.563-2.694
			c0.035-0.149,0.088-0.493-0.114-0.493h-1.726c-0.423,2.095-1.127,4.886-1.629,6.225h-0.396l1.25-6.225h-0.836l0.088-0.37h0.828
			c0.643-1.999,2.033-2.069,2.491-2.069c0.264,0,0.941,0.009,1.074,0.132l-0.149,0.784l-0.238,0.106
			c-0.123-0.238-0.246-0.661-0.941-0.661c-0.114,0-1.047,0.044-1.329,1.286l-0.098,0.422h1.102c0.599,0,1.03-0.053,1.435-0.105
			c0.168,0.018,0.143,0.185,0.099,0.378L80.15,11.147z"/>
		<path fill="#5E6A71" d="M84.894,8.55c-0.158-0.247-0.405-0.52-0.723-0.52c-1.013,0-1.654,1.435-1.654,2.474
			c0,0.563,0.185,1.224,0.854,1.224c0.388,0,0.891-0.282,1.321-0.599l0.104,0.211l-0.925,0.572c-0.414,0.255-0.748,0.37-0.933,0.37
			c-0.925,0-1.198-0.889-1.153-1.62c-0.01-0.141,0.035-1.77,1.575-2.633c0.396-0.22,0.811-0.361,1.092-0.361
			c0.291,0,0.66,0.062,0.837,0.194l-0.123,0.572L84.894,8.55z"/>
		<path fill="#5E6A71" d="M88.73,11.341l-0.935,0.572c-0.414,0.255-0.748,0.37-1.039,0.37c-0.854,0-1.047-0.968-1.047-1.62
			c0-1.444,1.285-2.994,2.729-2.994c0.476,0,0.688,0.264,0.688,0.792c0,0.863-1.136,1.743-2.589,1.391
			c-0.211,0.916-0.009,1.875,0.767,1.875c0.388,0,0.881-0.282,1.312-0.599L88.73,11.341z M88.492,8.294
			c0-0.247-0.158-0.414-0.29-0.414c-0.687,0-1.471,1.118-1.594,1.761C88.158,9.932,88.492,8.814,88.492,8.294z"/>
		<path fill="#5E6A71" d="M92.417,10.548c0-1.153,0.994-2.879,2.465-2.879c1.172,0,1.427,0.792,1.427,1.585
			c0,0.968-0.774,3.028-2.456,3.028C92.725,12.283,92.417,11.376,92.417,10.548z M95.498,8.832c0-0.916-0.555-0.951-0.694-0.951
			c-0.951,0-1.576,1.708-1.576,2.853c0,0.458,0.079,1.285,0.729,1.285C94.961,12.019,95.498,10.364,95.498,8.832z"/>
		<path fill="#5E6A71" d="M100.232,7.96l-0.211,0.185h-1.153c-0.432,2.095-1.136,4.886-1.638,6.225h-0.396l1.259-6.225h-0.836
			l0.079-0.37h0.828c0.466-1.875,2.017-2.069,2.386-2.069c0.202,0,0.625,0.035,0.758,0.159l-0.105,0.581l-0.22,0.105
			c-0.124-0.238-0.405-0.511-0.775-0.511c-0.527,0-0.924,0.361-1.136,1.312l-0.097,0.422h1.294L100.232,7.96z"/>
		<path fill="#5E6A71" d="M105.724,8.145h-1.029l-0.581,2.685c-0.15,0.757,0.097,0.88,0.36,0.88c0.256,0,0.669-0.123,0.89-0.211
			l0.062,0.255l-1.708,0.528c-0.325,0-0.59-0.414-0.476-0.986l0.695-3.152h-0.774l0.079-0.37h0.783l0.177-0.88
			c0.229-0.097,0.467-0.291,0.644-0.493h0.264l-0.334,1.374h1.294l-0.035,0.176L105.724,8.145z"/>
		<path fill="#5E6A71" d="M107.343,6.604c0.035-0.141,0.054-0.22,0.054-0.317c0-0.247-0.203-0.255-0.3-0.238l-0.448,0.044
			l0.044-0.193l1.619-0.194l-0.871,3.909l0.018,0.018c0.484-0.819,1.655-1.963,2.482-1.963c0.439,0,0.644,0.22,0.449,1.021
			l-0.625,2.447c-0.054,0.264-0.044,0.432,0.078,0.432c0.062,0,0.158-0.035,0.238-0.07l0.404-0.203l0.079,0.194l-1.47,0.792
			c-0.158-0.053-0.222-0.176-0.238-0.282c-0.035-0.132,0-0.282,0.105-0.695l0.563-2.219c0.097-0.387,0.237-0.88-0.124-0.88
			c-0.757,0-1.989,1.409-2.368,3.319l-0.141,0.651h-0.783L107.343,6.604z"/>
		<path fill="#5E6A71" d="M114.365,11.341l-0.934,0.572c-0.414,0.255-0.748,0.37-1.039,0.37c-0.854,0-1.047-0.968-1.047-1.62
			c0-1.444,1.284-2.994,2.729-2.994c0.476,0,0.688,0.264,0.688,0.792c0,0.863-1.137,1.743-2.59,1.391
			c-0.211,0.916-0.009,1.875,0.767,1.875c0.388,0,0.881-0.282,1.312-0.599L114.365,11.341z M114.127,8.294
			c0-0.247-0.157-0.414-0.29-0.414c-0.687,0-1.471,1.118-1.594,1.761C113.793,9.932,114.127,8.814,114.127,8.294z"/>
		<path fill="#5E6A71" d="M82.938,23.779c-0.979-0.799-3.197-1.806-5.418-1.806c-5.121,0-8.142,3.67-8.142,8.525
			c0,5.239,3.612,8.762,8.142,8.762c2.25,0,4.025-0.71,5.239-1.54l1.125,1.717c-1.392,0.947-3.849,1.895-6.513,1.895
			c-7.399,0-11.16-5.062-11.16-10.774c0-5.21,4.085-10.657,11.517-10.657c2.96,0,5.031,1.036,6.394,2.102L82.938,23.779z"/>
		<path fill="#5E6A71" d="M89.862,28.012c1.392-1.48,3.521-2.19,5.062-2.19c3.404,0,5.24,1.895,5.24,5.625v9.532H97.5V32.01
			c0-2.783-1.185-4.233-3.582-4.233c-2.102,0-4.025,1.451-4.025,4.292v8.91h-2.664V19.22h2.635L89.862,28.012L89.862,28.012z"/>
		<path fill="#5E6A71" d="M111.44,39.379c-1.036,1.037-2.339,1.955-3.7,1.955c-2.486,0-4.204-1.776-4.204-4.56
			c0-2.575,2.191-4.204,5.271-5.121l3.582-1.125c-0.118-1.806-1.511-2.96-2.96-2.96c-1.718,0-2.812,0.71-3.879,1.599l-1.035-1.333
			c1.479-1.421,2.988-2.013,5.062-2.013c2.221,0,5.478,0.71,5.478,5.032v6.513c0,1.125,0.147,2.545,0.65,3.611h-2.9
			c-0.354-0.622-0.414-1.569-0.414-2.516L111.44,39.379z M109.842,33.044c-2.339,0.711-3.552,1.835-3.552,3.701
			c0,1.539,1.065,2.516,2.131,2.516c1.896,0,4.322-2.339,3.968-6.957L109.842,33.044z"/>
		<path fill="#5E6A71" d="M121.978,28.012c1.392-1.48,3.521-2.19,5.062-2.19c3.404,0,5.24,1.895,5.24,5.625v9.532h-2.664V32.01
			c0-2.783-1.185-4.233-3.582-4.233c-2.102,0-4.026,1.451-4.026,4.292v8.91h-2.664V26.177h2.636L121.978,28.012L121.978,28.012z"/>
		<path fill="#5E6A71" d="M148.025,39.792c-1.45,1.037-3.197,1.541-4.47,1.541c-7.017,0-7.904-5.744-7.904-7.787
			c0-3.7,2.457-7.726,8.021-7.726c1.511,0,2.872,0.385,3.968,1.214l-0.889,1.51c-0.857-0.415-1.954-0.77-3.049-0.77
			c-2.428,0-5.181,1.599-5.181,5.625c0,3.079,1.567,5.979,5.149,5.979c1.273,0,2.457-0.326,3.611-1.065L148.025,39.792z"/>
		<path fill="#5E6A71" d="M152.643,33.755c-0.03,2.96,2.07,5.684,5.002,5.684c1.361,0,3.02-0.503,4.056-1.273l0.771,1.451
			c-1.539,1.094-3.374,1.717-4.914,1.717c-4.617,0-7.666-2.842-7.666-8.052c0-5.122,3.67-7.46,7.016-7.46
			c4.499,0,6.009,4.056,5.713,7.934H152.643z M160.19,31.979c0-2.309-0.978-4.263-3.315-4.263c-2.842,0-3.967,2.368-4.056,4.263
			H160.19z"/>
		<path fill="#5E6A71" d="M165.902,40.978V19.22h2.664v21.757L165.902,40.978L165.902,40.978z"/>
		<path fill="#5E6A71" d="M172.947,40.978V19.22h2.664v21.757L172.947,40.978L172.947,40.978z"/>
		<path fill="#5E6A71" d="M178.985,33.399c0-4.795,3.553-7.578,7.282-7.578s7.312,2.783,7.312,7.578
			c0,4.588-2.931,7.935-7.312,7.935C181.916,41.333,178.985,37.988,178.985,33.399z M181.857,33.399c0,2.783,0.947,6.039,4.41,6.039
			c3.492,0,4.439-3.256,4.439-6.039c0-2.664-1.095-5.684-4.439-5.684C182.952,27.716,181.857,30.735,181.857,33.399z"/>
		<path fill="#5E6A71" d="M199.559,28.012l1.064-1.125c0.621-0.622,1.6-1.065,2.221-1.065c0.65,0,1.628,0.474,2.456,1.451
			l-1.214,1.717c-0.649-0.326-1.302-0.622-1.981-0.622c-1.362,0-2.487,1.361-2.487,4.647v7.963h-2.664V26.177h2.605V28.012z"/>
	</g>
	<rect x="55.545" fill="#5E6A71" width="0.75" height="77.875"/>
	<g>
		<path fill="#5E6A71" d="M36.832,47.031l-4.615,3.29l-4.618-3.29c-3.283-2.246-6.099-4.17-7.572-7.094
			c1.217,5.48,6.574,7.529,12.19,11.924c5.613-4.395,10.972-6.443,12.188-11.924C42.93,42.861,40.115,44.785,36.832,47.031z"/>
		<path fill="#A90533" d="M19.387,20.236v0.574c0.356,0.125,0.473,0.236,0.512,0.76v13.242c0,7.365,5.994,9.314,12.319,14.262
			c6.324-4.947,12.32-6.896,12.32-14.262V21.42c0.047-0.4,0.174-0.498,0.496-0.609v-0.574L19.387,20.236L19.387,20.236z"/>
		<g>
			<g>
				<g>
					<path fill="#FFFFFF" d="M34.713,41.796c0,0,1.023-0.438,1.586-2.131c0.494,1.033,0.365,2.094,0.365,2.094
						C36.209,41.861,34.713,41.796,34.713,41.796z"/>
					<path fill="#FFFFFF" d="M40.213,32.107c0,0,0.627,3.406-1.586,3.521c-2.135,0.111-3.141-3.1-3.141-3.1s0.516,6.277,3.508,5.863
						C42.365,37.928,40.213,32.107,40.213,32.107z"/>
				</g>
			</g>
			<path fill="#FFFFFF" d="M23.959,40.988c0-0.002,0.004-0.002,0.004-0.002c2.496-0.568,4.404-3.482,4.97-4.65l0.354-0.74
				l0.215,0.791c0.013,0.043,0.244,0.918,0.244,2.072c0,0.129-0.006,0.26-0.012,0.393c0.861,0.033,1.477-0.141,1.858-0.539
				c0.548-0.566,0.714-1.641,0.507-3.283c-0.099-0.785-0.39-2.037-0.646-3.139c-0.131-0.564-0.256-1.098-0.33-1.477
				c-0.481-2.412,0.115-3.91,0.701-4.74c0.094-0.131,0.193-0.256,0.299-0.373c-1.727,0.582-3.176,1.486-4.668,2.979l1.051,1.219
				l0.431-0.402c0.405,1.516,0.112,2.908,0.112,2.908c-0.553-0.842-1.204-1.525-1.204-1.525L28.129,30l-0.946-1.102l-0.109-0.123
				c-1.164,1.602-1.541,2.91-1.541,2.91l0.826,0.756l0.479,0.436L27,32.412c0.888,1.664,0.076,3.219,0.076,3.219
				c-0.145-0.566-0.729-1.404-0.729-1.404l0.229-0.764l-1.229-1.111c-1.279,3.994-2.986,5.289-2.986,5.289s1.848-0.334,2.877-0.68
				C25.238,36.961,25.209,39.066,23.959,40.988z"/>
			<path fill="#FFFFFF" d="M42.615,26.574l-2.953,0.123c0.002,0.35-0.045,0.701-0.156,1.035c0.275,1.205,0.084,1.859,0.084,1.859
				c-0.493-1.15-0.87-1.469-0.87-1.469c-2.712-1.205-4.234,1.518-4.07,3.275c0.133,1.445,0.656,3.361,1.063,6.369
				c0.345,2.528-0.936,3.623-2.409,3.875c-0.031,0.004-0.064,0.012-0.097,0.019c-0.01,0-0.016,0-0.022,0
				c-0.24,0.03-0.492,0.045-0.765,0.039c-0.006-0.003-0.018-0.003-0.024-0.003c-0.031,0-0.06-0.006-0.088-0.006
				c-0.115-0.006-0.229-0.019-0.341-0.03c-1.146-0.16-3.715-0.625-6.364-0.689c1.559-0.912,2.778-2.488,3.459-3.605
				c0.041,0.309,0.071,0.688,0.071,1.104c0,0.207-0.006,0.426-0.026,0.646l-0.025,0.307l0.306,0.025
				c1.221,0.105,2.086-0.127,2.647-0.711c0.693-0.721,0.906-1.922,0.672-3.783c-0.1-0.816-0.396-2.084-0.656-3.201
				c-0.129-0.559-0.252-1.09-0.325-1.457c-0.439-2.201,0.086-3.537,0.602-4.27c0.404-0.574,0.963-0.994,1.574-1.197
				c0.012-0.002,0.022-0.004,0.033-0.006l1.008-3.094h0.315l-0.676,2.975c0.156-0.027,0.314-0.053,0.478-0.078l0.869-2.742h0.313
				l-0.57,2.656c0.9-0.115,1.879-0.207,2.961-0.285c0.177,0.07,0.363,0.271,0.531,0.557l2.842-0.875l0.105,0.307l-2.715,1.053
				c0.021,0.057,0.041,0.113,0.059,0.174l2.971-0.369l0.05,0.318l-2.882,0.576c0.011,0.053,0.021,0.107,0.027,0.16l2.998,0.098
				L42.615,26.574z M34.061,27.9c0.596-0.416,1.606-0.738,2.561-0.666c0.24,0.02,0.443-0.045,0.185-0.182
				c-0.711-0.375-2.367-0.248-2.953,0.152c-0.939,0.641-0.781,1.781-0.761,1.809C33.279,28.688,33.598,28.227,34.061,27.9z"/>
		</g>
	</g>
	<g id="bad_wsu" display="none">
		<g display="inline">
			<path fill="#5E6A71" d="M124.346,73.653c-0.08-0.696-0.459-1.256-1.255-1.256c-0.575,0-1.159,0.299-1.159,1.035
				c0,0.694,0.694,1.114,1.69,1.86c1.053,0.785,1.394,1.293,1.394,2.119c0,1.185-1.148,1.84-2.343,1.84
				c-0.637,0-1.184-0.121-1.7-0.317c-0.039-0.021-0.068-0.062-0.068-0.14v-1.434h0.258c0.109,1.104,0.834,1.541,1.603,1.541
				c0.707,0,1.35-0.535,1.35-1.262c0-0.648-0.35-1.176-1.842-2.16c-0.537-0.355-1.203-0.746-1.203-1.828
				c0-0.898,0.928-1.604,2.074-1.604c0.426,0,0.994,0.049,1.391,0.188c0.062,0.021,0.07,0.062,0.07,0.109v1.305h-0.259V73.653z"/>
			<path fill="#5E6A71" d="M127.816,77.565c0,0.688-0.029,0.649,0.637,0.729v0.193h-1.99v-0.193c0.666-0.08,0.638-0.043,0.638-0.729
				v-4.017H126.5c-0.645,0-0.793,0.406-1.035,0.896h-0.186l0.199-1.133h3.957l0.198,1.133h-0.184
				c-0.244-0.487-0.391-0.896-1.035-0.896h-0.6L127.816,77.565L127.816,77.565z"/>
			<path fill="#5E6A71" d="M130.447,76.798l-0.334,0.976c-0.096,0.285,0.043,0.526,0.363,0.526v0.189h-1.326V78.3
				c0.197,0,0.408-0.125,0.524-0.364c0.312-0.642,1.166-3.024,1.771-4.636h0.408c0.494,1.464,1.235,3.712,1.485,4.357
				c0.16,0.408,0.275,0.643,0.591,0.643v0.189h-1.697V78.3c0.457,0,0.502-0.241,0.385-0.561l-0.313-0.939h-1.857V76.798z
				 M132.211,76.522l-0.772-2.369h-0.015l-0.864,2.369H132.211z"/>
			<path fill="#5E6A71" d="M135.953,77.565c0,0.688-0.027,0.649,0.637,0.729v0.193H134.6v-0.193c0.666-0.08,0.637-0.043,0.637-0.729
				v-4.017h-0.6c-0.644,0-0.791,0.406-1.035,0.896h-0.187l0.201-1.133h3.957l0.199,1.133h-0.187
				c-0.242-0.487-0.391-0.896-1.032-0.896h-0.603L135.953,77.565L135.953,77.565z"/>
			<path fill="#5E6A71" d="M138.121,78.294c0.666-0.08,0.572-0.043,0.572-0.729v-3.33c0-0.687,0.094-0.649-0.572-0.731v-0.191h3.24
				V74.5h-0.191c-0.073-0.545-0.221-0.951-0.754-0.951h-1.006v2.115h0.621c0.465,0,0.666-0.186,0.68-0.645h0.193v1.574h-0.193
				c-0.014-0.436-0.184-0.693-0.68-0.693h-0.621v1.67c0,0.631,0.289,0.682,0.953,0.682c1.074,0,1.021-0.305,1.361-1.096h0.19
				l-0.221,1.332h-3.574L138.121,78.294L138.121,78.294z"/>
		</g>
		<g display="inline">
			<g>
				<path fill="#5E6A71" d="M155.391,78.49c0,0,0,0-3.603-4.269v3.271c0,0.153,0.031,0.28,0.043,0.397
					c0.037,0.269,0.289,0.37,0.777,0.405v0.193h-1.812v-0.193c0.355-0.035,0.599-0.139,0.636-0.405
					c0.016-0.117,0.045-0.244,0.045-0.397v-3.484c-0.207-0.266-0.438-0.502-0.857-0.502v-0.193h1.346
					c1.103,1.338,2.248,2.701,3.351,4.039h0.016v-3.039c0-0.156-0.028-0.283-0.045-0.4c-0.037-0.266-0.287-0.367-0.776-0.406v-0.192
					h1.812v0.192c-0.348,0.039-0.598,0.142-0.637,0.406c-0.015,0.117-0.043,0.244-0.043,0.4v4.178H155.391L155.391,78.49z"/>
			</g>
			<path fill="#5E6A71" d="M158.297,77.565c0,0.688-0.028,0.651,0.638,0.729v0.193h-1.99v-0.193
				c0.666-0.078,0.637-0.043,0.637-0.729v-3.328c0-0.688,0.029-0.651-0.637-0.731v-0.191h1.99v0.191
				c-0.666,0.08-0.638,0.045-0.638,0.731V77.565z"/>
			<path fill="#5E6A71" d="M167.709,77.158c-0.34,0.793-0.289,1.096-1.36,1.096c-0.664,0-0.955-0.051-0.955-0.683v-1.67h0.623
				c0.496,0,0.664,0.261,0.68,0.695h0.191V75.02h-0.191c-0.016,0.459-0.215,0.646-0.68,0.646h-0.623V73.55h1.176
				c0.531,0,0.68,0.406,0.752,0.953h0.193v-1.189h-3.406h-1.467v0.191c0.502,0,0.694,0.229,0.51,0.695
				c-0.459,1.133-0.91,2.27-1.383,3.401c-0.386-1.123-0.812-2.396-1.101-3.271c-0.246-0.711,0.051-0.828,0.457-0.828v-0.19h-1.881
				v0.19c0.355,0,0.451,0.229,0.728,1.021c0.45,1.259,0.954,2.687,1.405,3.965h0.377c0.619-1.516,1.25-3.022,1.871-4.538
				c0.154-0.371,0.267-0.445,0.482-0.445c0.664,0.08,0.567,0.045,0.567,0.731v3.328c0,0.688,0.097,0.651-0.567,0.729v0.193h3.572
				l0.223-1.332h-0.193V77.158z"/>
			<path fill="#5E6A71" d="M178.012,77.565c0,0.688-0.031,0.651,0.635,0.729v0.193h-1.99v-0.193
				c0.666-0.078,0.637-0.043,0.637-0.729v-3.328c0-0.688,0.029-0.651-0.637-0.731v-0.191h1.99v0.191
				c-0.666,0.08-0.635,0.045-0.635,0.731V77.565z"/>
			<path fill="#5E6A71" d="M185.574,73.313v0.19c0.436,0,0.674,0.213,0.422,0.666l-1.021,1.857l-0.896-1.857
				c-0.186-0.385-0.235-0.666,0.324-0.666v-0.19h-1.238h-0.514h-3.445l-0.201,1.131h0.188c0.242-0.487,0.391-0.896,1.033-0.896
				h0.602v4.017c0,0.688,0.029,0.651-0.637,0.729v0.193h1.99v-0.193c-0.666-0.078-0.638-0.043-0.638-0.729v-4.017h0.601
				c0.604,0,1.014,0.361,1.264,0.812l1.041,2.064v1.139c0,0.688,0.029,0.652-0.635,0.73v0.192h1.988v-0.192
				c-0.664-0.078-0.636-0.043-0.636-0.73v-0.828c0-0.184,0.015-0.393,0.088-0.539l1.234-2.242c0.201-0.354,0.4-0.451,0.607-0.451
				v-0.19H185.574z"/>
			<path fill="#5E6A71" d="M150.629,72.192l-2.33,0.007v0.192c0.468,0.051,0.808,0.256,0.855,0.614
				c0.02,0.158,0.059,0.326,0.059,0.537v2.765c0,1.592-0.717,2.508-2.078,2.508c-1.481,0-1.928-1.063-1.928-2.459v-2.914
				c0-0.924,0.027-0.94,0.924-1.051v-0.192h-2.678v0.192c0.896,0.108,0.855,0.127,0.855,1.051v2.966
				c0,1.801,0.657,2.877,2.774,2.877c1.283,0,2.646-0.798,2.646-2.938v-2.804c0-0.02,0-0.035,0-0.051
				c-0.008-0.863,0.328-0.988,0.893-1.08L150.629,72.192z"/>
			<path fill="#5E6A71" d="M175.059,75.783c-0.785-0.591-1.334-0.918-1.334-1.468c0-0.582,0.407-0.815,0.862-0.815
				c0.629,0,0.927,0.438,0.988,0.987h0.203V73.46c0-0.039-0.008-0.072-0.055-0.086c-0.312-0.109-0.761-0.15-1.099-0.15
				c-0.901,0-1.686,0.557-1.686,1.264c0,0.381,0.104,0.654,0.26,0.865h-0.004c0.004,0.002,0.008,0.006,0.01,0.008
				c0.189,0.254,0.451,0.416,0.683,0.57c1.178,0.775,1.442,1.191,1.452,1.699c0.021,1.135-2.1,1.729-3.493-0.445l-0.726-1.104
				c0.568-0.224,1.035-0.746,1.035-1.508c0-0.867-0.748-1.259-1.494-1.259h-2.154v0.19c0.666,0.08,0.636,0.043,0.636,0.73v3.33
				c0,0.691,0.03,0.652-0.636,0.734v0.193h1.99V78.3c-0.666-0.082-0.637-0.043-0.637-0.734v-1.365h0.697
				c0.895,1.485,1.114,2.133,1.565,2.295c0.103,0.034,1.263,0.405,2.082,0.405c0.941,0,1.947-0.517,1.947-1.448
				C176.156,76.798,175.889,76.399,175.059,75.783z M170.479,76.042h-0.615V73.63h0.568c0.541,0,0.987,0.281,0.987,1.088
				C171.42,75.553,171.123,76.042,170.479,76.042z"/>
		</g>
		<g display="inline">
			<path fill="#5E6A71" d="M84.764,77.565c0,0.688-0.031,0.651,0.635,0.733v0.191h-1.99v-0.191c0.666-0.082,0.637-0.047,0.637-0.733
				v-3.328c0-0.688-0.319-0.649-0.983-0.731v-0.191H85.4v0.191c-0.666,0.082-0.635,0.045-0.635,0.731v1.279h2.596v-1.279
				c0-0.688,0.029-0.649-0.637-0.731v-0.191h1.987v0.191c-0.664,0.082-0.635,0.045-0.635,0.731v3.328
				c0,0.688-0.029,0.651,0.635,0.733v0.191h-1.987v-0.191c0.666-0.082,0.637-0.047,0.637-0.733v-1.746h-2.596L84.764,77.565
				L84.764,77.565z"/>
			<path fill="#5E6A71" d="M90.881,77.565c0,0.688-0.028,0.651,0.636,0.733v0.191h-1.988v-0.191
				c0.666-0.082,0.635-0.047,0.635-0.733v-3.328c0-0.688,0.031-0.649-0.635-0.731v-0.191h1.988v0.191
				c-0.664,0.082-0.636,0.045-0.636,0.731V77.565z"/>
			<path fill="#5E6A71" d="M97.029,78.492c-1.176-1.392-2.396-2.849-3.6-4.271v3.271c0,0.152,0.026,0.279,0.043,0.398
				c0.036,0.266,0.289,0.369,0.774,0.408v0.191h-1.811v-0.191c0.354-0.039,0.6-0.144,0.637-0.408
				c0.014-0.119,0.043-0.246,0.043-0.398v-3.486c-0.207-0.266-0.438-0.502-0.857-0.502v-0.19h1.347
				c1.104,1.338,2.248,2.699,3.352,4.037h0.015v-3.039c0-0.156-0.029-0.283-0.046-0.399c-0.034-0.267-0.288-0.367-0.774-0.406
				v-0.191h1.812v0.191c-0.348,0.039-0.6,0.141-0.639,0.406c-0.014,0.116-0.043,0.243-0.043,0.399v4.181H97.029z"/>
			<path fill="#5E6A71" d="M98.121,75.873c0-1.14,0.961-2.648,2.957-2.648c0.719,0,1.06,0.133,1.42,0.252
				c0.209,0.068,0.289,0.17,0.289,0.289v0.953h-0.19c-0.023-0.592-0.4-1.234-1.576-1.234c-1.545,0-2.049,1.064-2.056,2.328
				c-0.008,1.17,0.582,2.51,2.084,2.51c0.927,0,1.007-0.342,1.007-0.918v-0.451c0-0.688,0.028-0.649-0.783-0.731V76.03h2.139v0.191
				c-0.668,0.082-0.637,0.043-0.637,0.731v1.287c-0.476,0.184-1.096,0.342-1.771,0.342C99.488,78.582,98.121,77.854,98.121,75.873z"
				/>
			<path fill="#5E6A71" d="M105.945,77.565c0,0.688-0.029,0.651,0.637,0.733v0.191h-1.99v-0.191
				c0.666-0.082,0.638-0.047,0.638-0.733v-4.017h-0.601c-0.643,0-0.791,0.406-1.037,0.896h-0.182l0.199-1.131h3.955l0.201,1.131
				h-0.187c-0.242-0.487-0.391-0.896-1.035-0.896h-0.6L105.945,77.565L105.945,77.565z"/>
			<path fill="#5E6A71" d="M107.766,76c0-1.601,1.241-2.775,2.778-2.775c1.605,0,2.537,1.383,2.537,2.523
				c0,1.561-1.168,2.834-2.803,2.834C108.867,78.582,107.766,77.434,107.766,76z M112.24,75.966c0-1.768-0.955-2.483-1.857-2.483
				c-1.258,0-1.772,1.123-1.772,2.132c0,1.788,0.916,2.706,1.869,2.706C111.855,78.321,112.24,76.958,112.24,75.966z"/>
			<path fill="#5E6A71" d="M117.854,78.492c-1.176-1.392-2.396-2.849-3.603-4.271v3.271c0,0.152,0.029,0.279,0.045,0.398
				c0.037,0.266,0.287,0.369,0.775,0.408v0.191h-1.812v-0.191c0.355-0.039,0.601-0.144,0.638-0.408
				c0.016-0.119,0.045-0.246,0.045-0.398v-3.486c-0.207-0.266-0.438-0.502-0.859-0.502v-0.19h1.349
				c1.102,1.338,2.248,2.699,3.35,4.037h0.014v-3.039c0-0.156-0.028-0.283-0.043-0.399c-0.037-0.267-0.287-0.367-0.774-0.406v-0.191
				h1.811v0.191c-0.346,0.039-0.598,0.141-0.637,0.406c-0.014,0.116-0.043,0.243-0.043,0.399v4.181H117.854z"/>
			<path fill="#5E6A71" d="M76.545,72.324v-0.009h-2v0.246c0.771,0.01,0.898,0.285,0.695,0.869l-1.516,4.123h-0.082l-1.783-5.154
				h-0.451l-1.875,5.154h-0.127l-1.342-4.097c-0.191-0.647,0.074-0.896,0.676-0.896v-0.246h-2.375v0.246
				c0.506,0,0.596,0.396,0.92,1.326l1.725,5.094h0.453l1.845-5.194l1.817,5.2h0.508c0.777-2.067,1.871-5.131,2.273-5.952
				c0.15-0.312,0.422-0.47,0.674-0.47v-0.241H76.545z"/>
			<path fill="#5E6A71" d="M81.744,75.727c-0.771-0.58-1.313-0.906-1.313-1.447c0-0.573,0.401-0.807,0.85-0.807
				c0.621,0,0.914,0.435,0.977,0.978h0.201v-1.015c0-0.039-0.008-0.069-0.055-0.084c-0.31-0.108-0.75-0.147-1.082-0.147
				c-0.891,0-1.664,0.549-1.664,1.246c0,0.379,0.104,0.646,0.256,0.854H79.91c0.002,0.002,0.006,0.004,0.01,0.008
				c0.187,0.25,0.443,0.41,0.672,0.562c1.162,0.766,1.433,1.176,1.433,1.68c0,0.467-0.353,0.936-0.998,0.98
				c-0.662,0.049-1.514-0.271-1.873-1.201c-0.318-0.892-0.965-2.765-1.402-4.06h-0.426c-0.609,1.625-1.438,4.011-1.754,4.656
				c-0.117,0.241-0.33,0.366-0.529,0.366v0.191h0.316h1.021v-0.191c-0.323,0-0.463-0.241-0.366-0.53l0.338-0.981h1.875l0.315,0.946
				l0.244,0.729c0,0,1.314,0.345,2.17,0.345c0.93,0,1.873-0.511,1.873-1.433C82.828,76.733,82.564,76.335,81.744,75.727z
				 M76.461,76.503l0.875-2.391h0.015l0.778,2.391H76.461z"/>
		</g>
	</g>
</g>
</svg>
