<?xml version="1.0" encoding="utf-8"?>
<!-- Generator: Adobe Illustrator 16.0.0, SVG Export Plug-In . SVG Version: 6.00 Build 0)  -->
<!DOCTYPE svg PUBLIC "-//W3C//DTD SVG 1.1//EN" "http://www.w3.org/Graphics/SVG/1.1/DTD/svg11.dtd">
<svg version="1.1" id="Layer_1" xmlns="http://www.w3.org/2000/svg" xmlns:xlink="http://www.w3.org/1999/xlink" x="0px" y="0px"
	 width="300.869px" height="67.752px" viewBox="19.387 0 300.869 67.752" enable-background="new 19.387 0 300.869 67.752"
	 xml:space="preserve">
<g>
	
		<text transform="matrix(1 0 0 1 66.7009 71.875)" display="none" fill="#5E6A71" enable-background="new    " font-family="'StoneSansStd-Medium'" font-size="7.7582">ZVANCOUVER</text>
	<g id="Good_WSU">
		<g>
			<g>
				<path fill="#5E6A71" d="M174.98,58.56c-0.793-0.596-1.346-0.927-1.346-1.479c0-0.586,0.41-0.824,0.869-0.824
					c0.633,0,0.934,0.443,0.996,0.998h0.207v-1.037c0-0.04-0.008-0.071-0.056-0.086c-0.317-0.11-0.768-0.149-1.106-0.149
					c-0.91,0-1.701,0.561-1.701,1.272c0,0.384,0.105,0.66,0.262,0.87h-0.004c0.004,0.005,0.01,0.008,0.012,0.01
					c0.191,0.256,0.455,0.419,0.688,0.574c1.186,0.784,1.455,1.203,1.463,1.716c0.023,1.142-2.117,1.743-3.522-0.45l-0.73-1.111
					c0.574-0.225,1.043-0.754,1.043-1.522c0-0.875-0.752-1.269-1.506-1.269h-2.172v0.193c0.67,0.08,0.641,0.045,0.641,0.736v3.359
					c0,0.695,0.029,0.656-0.641,0.74v0.193h2.008v-0.193c-0.672-0.084-0.645-0.045-0.645-0.74v-1.379h0.704
					c0.9,1.498,1.125,2.15,1.58,2.312c0.101,0.035,1.271,0.412,2.101,0.412c0.949,0,1.963-0.523,1.963-1.464
					C176.086,59.587,175.818,59.183,174.98,58.56z M170.361,58.821h-0.623v-2.434h0.576c0.545,0,0.994,0.283,0.994,1.1
					C171.309,58.33,171.01,58.821,170.361,58.821z"/>
				<path fill="#5E6A71" d="M155.344,61.287c0,0,0,0-3.652-4.327v3.314c0,0.156,0.031,0.285,0.045,0.404
					c0.037,0.271,0.293,0.375,0.789,0.413v0.194h-1.84v-0.194c0.363-0.039,0.607-0.143,0.646-0.413
					c0.014-0.119,0.043-0.248,0.043-0.404v-3.532c-0.207-0.271-0.441-0.511-0.867-0.511v-0.195h1.363
					c1.116,1.359,2.28,2.738,3.397,4.097h0.015v-3.084c0-0.157-0.029-0.282-0.046-0.403c-0.036-0.271-0.291-0.375-0.786-0.414
					v-0.194h1.838v0.194c-0.353,0.039-0.607,0.143-0.646,0.414c-0.014,0.121-0.043,0.246-0.043,0.403v4.238H155.344z"/>
				<path fill="#5E6A71" d="M158.291,60.349c0,0.699-0.029,0.66,0.645,0.743v0.194h-2.018v-0.194
					c0.676-0.083,0.645-0.044,0.645-0.743v-3.375c0-0.695,0.031-0.66-0.645-0.742v-0.192h2.018v0.192
					c-0.674,0.082-0.645,0.047-0.645,0.742V60.349z"/>
				<path fill="#5E6A71" d="M167.834,59.937c-0.347,0.804-0.293,1.111-1.379,1.111c-0.677,0-0.97-0.055-0.97-0.691v-1.695h0.632
					c0.502,0,0.676,0.265,0.688,0.707H167v-1.6h-0.193c-0.014,0.465-0.217,0.652-0.688,0.652h-0.632v-2.145h1.189
					c0.539,0,0.691,0.412,0.764,0.968h0.195v-1.206h-3.455h-1.484v0.191c0.509,0,0.705,0.232,0.519,0.707
					c-0.467,1.146-0.924,2.301-1.404,3.448c-0.391-1.139-0.824-2.429-1.115-3.312c-0.25-0.722,0.054-0.843,0.466-0.843v-0.191
					h-1.908v0.191c0.363,0,0.459,0.232,0.738,1.035c0.454,1.276,0.967,2.723,1.426,4.021h0.381c0.631-1.537,1.268-3.067,1.896-4.604
					c0.158-0.377,0.271-0.451,0.488-0.451c0.676,0.082,0.578,0.047,0.578,0.742v3.375c0,0.699,0.098,0.66-0.578,0.743v0.194h3.623
					l0.228-1.35h-0.197V59.937z"/>
				<path fill="#5E6A71" d="M177.881,60.349c0,0.699-0.031,0.66,0.645,0.743v0.194h-2.018v-0.194
					c0.676-0.083,0.646-0.044,0.646-0.743v-3.375c0-0.695,0.029-0.66-0.646-0.742v-0.192h2.018v0.192
					c-0.676,0.082-0.645,0.047-0.645,0.742V60.349z"/>
				<path fill="#5E6A71" d="M185.553,56.039v0.192c0.441,0,0.682,0.218,0.426,0.676l-1.035,1.884l-0.907-1.884
					c-0.187-0.391-0.238-0.676,0.33-0.676v-0.192h-1.259h-0.52h-3.492l-0.203,1.146h0.188c0.248-0.494,0.396-0.906,1.049-0.906
					h0.608v4.07c0,0.7,0.029,0.661-0.645,0.744v0.194h2.018v-0.194c-0.676-0.083-0.646-0.044-0.646-0.744v-4.07h0.609
					c0.612,0,1.026,0.367,1.278,0.824l1.06,2.095v1.151c0,0.7,0.028,0.661-0.646,0.744v0.194h2.017v-0.194
					c-0.675-0.083-0.646-0.044-0.646-0.744V59.51c0-0.188,0.016-0.397,0.09-0.547l1.252-2.272c0.203-0.36,0.404-0.459,0.615-0.459
					V56.04L185.553,56.039L185.553,56.039z"/>
			</g>
			<path fill="#5E6A71" d="M150.537,54.979l-2.363,0.006v0.195c0.475,0.051,0.816,0.26,0.867,0.625
				c0.02,0.159,0.061,0.33,0.061,0.543v2.803c0,1.615-0.727,2.543-2.106,2.543c-1.504,0-1.955-1.079-1.955-2.492v-2.955
				c0-0.938,0.026-0.954,0.936-1.064v-0.195h-2.715v0.195c0.91,0.11,0.869,0.127,0.869,1.064v3.006c0,1.826,0.666,2.917,2.812,2.917
				c1.304,0,2.687-0.808,2.687-2.978v-2.844c0-0.019,0-0.035,0-0.051c-0.008-0.876,0.332-1.004,0.904-1.096L150.537,54.979z"/>
		</g>
		<g>
			<path fill="#5E6A71" d="M124.535,56.373c-0.08-0.704-0.462-1.267-1.267-1.267c-0.583,0-1.172,0.303-1.172,1.045
				c0,0.703,0.703,1.125,1.708,1.879c1.064,0.794,1.407,1.307,1.407,2.14c0,1.196-1.16,1.858-2.364,1.858
				c-0.645,0-1.197-0.121-1.72-0.32c-0.039-0.021-0.069-0.062-0.069-0.141V60.12h0.261c0.112,1.113,0.844,1.559,1.617,1.559
				c0.714,0,1.362-0.544,1.362-1.277c0-0.653-0.353-1.187-1.858-2.18c-0.542-0.361-1.215-0.755-1.215-1.849
				c0-0.906,0.938-1.618,2.092-1.618c0.433,0,1.006,0.051,1.407,0.191c0.062,0.018,0.07,0.062,0.07,0.109v1.316L124.535,56.373
				L124.535,56.373z"/>
			<path fill="#5E6A71" d="M127.748,60.324c0,0.696-0.029,0.655,0.643,0.741v0.19h-2.009v-0.19c0.672-0.086,0.643-0.045,0.643-0.741
				v-4.058h-0.605c-0.65,0-0.8,0.412-1.046,0.903h-0.186l0.2-1.144h3.996l0.202,1.144h-0.188c-0.247-0.491-0.396-0.903-1.045-0.903
				h-0.605V60.324z"/>
			<path fill="#5E6A71" d="M130.355,59.524l-0.342,1.002c-0.098,0.293,0.044,0.539,0.374,0.539v0.19h-1.36v-0.19
				c0.201,0,0.418-0.131,0.538-0.375c0.321-0.658,1.194-3.101,1.815-4.752h0.418c0.507,1.502,1.269,3.805,1.522,4.469
				c0.166,0.416,0.284,0.658,0.604,0.658v0.19h-1.74v-0.19c0.473,0,0.519-0.246,0.397-0.576l-0.322-0.965H130.355z M132.165,59.241
				l-0.792-2.428h-0.017l-0.888,2.428H132.165z"/>
			<path fill="#5E6A71" d="M135.967,60.324c0,0.696-0.029,0.655,0.641,0.741v0.19h-2.01v-0.19c0.674-0.086,0.646-0.045,0.646-0.741
				v-4.058h-0.607c-0.649,0-0.797,0.412-1.045,0.903h-0.188l0.203-1.144h3.996l0.201,1.144h-0.188
				c-0.244-0.491-0.394-0.903-1.043-0.903h-0.605L135.967,60.324L135.967,60.324z"/>
			<path fill="#5E6A71" d="M138.154,61.065c0.677-0.086,0.578-0.045,0.578-0.741v-3.362c0-0.693,0.099-0.656-0.578-0.74v-0.193
				h3.273v1.203h-0.195c-0.073-0.551-0.223-0.963-0.76-0.963h-1.018v2.139h0.627c0.471,0,0.672-0.188,0.688-0.651h0.193v1.591
				h-0.193c-0.016-0.441-0.186-0.703-0.688-0.703h-0.627v1.688c0,0.637,0.291,0.688,0.965,0.688c1.082,0,1.029-0.308,1.375-1.106
				h0.192l-0.225,1.344h-3.609L138.154,61.065L138.154,61.065z"/>
		</g>
		<g>
			<path fill="#5E6A71" d="M85.043,60.331c0,0.695-0.03,0.656,0.642,0.738v0.195h-2.008v-0.195c0.671-0.082,0.642-0.043,0.642-0.738
				v-3.362c0-0.692-0.322-0.655-0.994-0.737V56.04h2.361v0.191c-0.672,0.082-0.642,0.045-0.642,0.737v1.294h2.621v-1.294
				c0-0.692,0.028-0.655-0.644-0.737V56.04h2.009v0.191c-0.671,0.082-0.642,0.045-0.642,0.737v3.362
				c0,0.695-0.029,0.656,0.642,0.738v0.195h-2.009v-0.195c0.672-0.082,0.644-0.043,0.644-0.738v-1.764h-2.621L85.043,60.331
				L85.043,60.331z"/>
			<path fill="#5E6A71" d="M91.22,60.331c0,0.695-0.031,0.656,0.642,0.738v0.195h-2.008v-0.195c0.671-0.082,0.643-0.043,0.643-0.738
				v-3.362c0-0.692,0.029-0.655-0.643-0.737V56.04h2.008v0.191c-0.672,0.082-0.642,0.045-0.642,0.737V60.331z"/>
			<path fill="#5E6A71" d="M97.427,61.265c-1.187-1.404-2.419-2.877-3.636-4.311v3.303c0,0.154,0.028,0.281,0.045,0.401
				c0.037,0.271,0.29,0.373,0.783,0.409v0.195H92.79v-0.195c0.357-0.036,0.604-0.141,0.643-0.409
				c0.014-0.12,0.044-0.247,0.044-0.401v-3.52c-0.21-0.27-0.44-0.508-0.867-0.508v-0.191h1.359c1.113,1.35,2.27,2.725,3.382,4.074
				h0.016v-3.067c0-0.157-0.03-0.285-0.046-0.405c-0.035-0.268-0.292-0.371-0.783-0.408v-0.192h1.83v0.192
				c-0.352,0.037-0.604,0.142-0.645,0.408c-0.014,0.12-0.043,0.248-0.043,0.405v4.22H97.427z"/>
			<path fill="#5E6A71" d="M98.528,58.62c0-1.148,0.972-2.674,2.986-2.674c0.725,0,1.068,0.136,1.435,0.256
				c0.209,0.066,0.292,0.171,0.292,0.29v0.964h-0.194c-0.022-0.6-0.403-1.248-1.59-1.248c-1.562,0-2.068,1.075-2.076,2.354
				c-0.007,1.18,0.59,2.531,2.105,2.531c0.935,0,1.017-0.345,1.017-0.926V59.71c0-0.695,0.029-0.656-0.792-0.738v-0.193h2.158v0.193
				c-0.673,0.082-0.642,0.043-0.642,0.738v1.3c-0.479,0.187-1.105,0.343-1.786,0.343C99.91,61.353,98.528,60.622,98.528,58.62z"/>
			<path fill="#5E6A71" d="M106.429,60.331c0,0.695-0.03,0.656,0.642,0.738v0.195h-2.009v-0.195
				c0.671-0.082,0.643-0.043,0.643-0.738v-4.055h-0.605c-0.648,0-0.798,0.408-1.045,0.902h-0.186l0.202-1.141h3.995l0.201,1.141
				h-0.187c-0.246-0.494-0.396-0.902-1.045-0.902h-0.605L106.429,60.331L106.429,60.331z"/>
			<path fill="#5E6A71" d="M108.266,58.747c0-1.614,1.255-2.801,2.809-2.801c1.619,0,2.561,1.396,2.561,2.548
				c0,1.575-1.18,2.858-2.831,2.858C109.378,61.353,108.266,60.196,108.266,58.747z M112.782,58.718
				c0-1.785-0.963-2.511-1.874-2.511c-1.27,0-1.791,1.136-1.791,2.149c0,1.81,0.925,2.734,1.888,2.734
				C112.395,61.092,112.782,59.718,112.782,58.718z"/>
			<path fill="#5E6A71" d="M118.451,61.265c-1.188-1.404-2.421-2.877-3.638-4.311v3.303c0,0.154,0.029,0.281,0.044,0.401
				c0.038,0.271,0.291,0.373,0.784,0.409v0.195h-1.829v-0.195c0.359-0.036,0.605-0.141,0.644-0.409
				c0.015-0.12,0.044-0.247,0.044-0.401v-3.52c-0.208-0.27-0.44-0.508-0.866-0.508v-0.191h1.359c1.111,1.35,2.269,2.725,3.383,4.074
				h0.014v-3.067c0-0.157-0.03-0.285-0.044-0.405c-0.038-0.268-0.291-0.371-0.785-0.408v-0.192h1.829v0.192
				c-0.35,0.037-0.604,0.142-0.641,0.408c-0.016,0.12-0.045,0.248-0.045,0.405v4.22H118.451z"/>
			<path fill="#5E6A71" d="M76.642,55.038v-0.01h-2.02v0.25c0.779,0.01,0.906,0.287,0.702,0.878l-1.528,4.161H73.71l-1.8-5.202
				h-0.456l-1.892,5.202h-0.129l-1.354-4.133c-0.192-0.656,0.076-0.906,0.683-0.906v-0.25h-2.396v0.25
				c0.509,0,0.601,0.397,0.928,1.339l1.74,5.146h0.458l1.86-5.248l1.835,5.25H73.7c0.784-2.086,1.89-5.179,2.296-6.009
				c0.151-0.312,0.425-0.474,0.681-0.474v-0.244H76.642z"/>
			<path fill="#5E6A71" d="M82.013,58.458c-0.786-0.589-1.336-0.918-1.336-1.469c0-0.581,0.409-0.817,0.864-0.817
				c0.629,0,0.927,0.44,0.989,0.991h0.204v-1.03c0-0.039-0.008-0.069-0.056-0.086c-0.312-0.108-0.762-0.149-1.099-0.149
				c-0.904,0-1.689,0.558-1.689,1.267c0,0.382,0.106,0.655,0.261,0.864h-0.003c0.003,0.004,0.006,0.007,0.011,0.01
				c0.189,0.254,0.451,0.417,0.683,0.57c1.179,0.777,1.454,1.193,1.454,1.705c0,0.475-0.357,0.951-1.014,1
				c-0.673,0.045-1.537-0.278-1.9-1.223c-0.324-0.904-0.98-2.809-1.425-4.121h-0.434c-0.62,1.65-1.46,4.07-1.781,4.727
				c-0.119,0.246-0.335,0.373-0.537,0.373v0.195h0.321h1.037v-0.195c-0.329,0-0.471-0.245-0.374-0.536l0.345-1.001h1.903
				l0.321,0.963l0.247,0.742c0,0,1.335,0.35,2.204,0.35c0.942,0,1.9-0.52,1.9-1.453C83.112,59.479,82.846,59.079,82.013,58.458z
				 M76.646,59.248l0.89-2.429h0.015l0.792,2.429H76.646z"/>
		</g>
	</g>
	<g>
		<path fill="#5E6A71" d="M65.928,11.948c0.722-0.097,0.757,0.018,0.906-0.678l0.872-4.35c0.141-0.669,0.062-0.599-0.635-0.678
			l0.054-0.229h2.879c1.752,0,2.686,0.924,2.686,2.536c0,1.708-1.348,3.627-3.962,3.627h-2.853L65.928,11.948z M68.701,6.261
			l-0.942,4.631c-0.149,0.713-0.114,0.995,1.057,0.995c2.069,0,2.923-1.928,2.923-3.39c0-1.268-0.527-2.236-1.944-2.236H68.701z"/>
		<path fill="#5E6A71" d="M76.41,11.341l-0.935,0.572c-0.414,0.255-0.748,0.37-1.039,0.37c-0.854,0-1.047-0.968-1.047-1.62
			c0-1.444,1.285-2.994,2.729-2.994c0.476,0,0.688,0.264,0.688,0.792c0,0.863-1.136,1.743-2.589,1.391
			c-0.211,0.916-0.009,1.875,0.766,1.875c0.389,0,0.882-0.282,1.312-0.599L76.41,11.341z M76.172,8.294
			c0-0.247-0.158-0.414-0.29-0.414c-0.688,0-1.471,1.118-1.594,1.761C75.838,9.932,76.172,8.814,76.172,8.294z"/>
		<path fill="#5E6A71" d="M77.536,8.928l0.704-0.334l0.256-1.118l0.827-0.352L79.06,8.233l0.695-0.317
			c0.432-0.211,0.757-0.247,0.924-0.247c0.731,0,0.723,0.889,0.723,1.145c0,2.095-1.619,3.451-3.188,3.363l-0.31,1.488
			c-0.034,0.159-0.053,0.282,0,0.379c0.027,0.053,0.055,0.123,0.731,0.123l-0.053,0.211h-2.21l0.044-0.211
			c0.202,0,0.352,0,0.493-0.053c0.123-0.07,0.176-0.185,0.236-0.449l1.021-4.781l-0.669,0.379L77.536,8.928z M78.302,11.825
			c0.114,0.035,0.256,0.053,0.44,0.053c0.897,0,1.849-1.391,1.849-2.905c0-0.423-0.167-0.828-0.476-0.828
			c-0.3,0-0.739,0.176-1.109,0.387L78.302,11.825z"/>
		<path fill="#5E6A71" d="M85.511,11.173c-0.098,0.414,0.009,0.511,0.308,0.361l0.414-0.203l0.079,0.194l-1.479,0.792
			c-0.149-0.053-0.211-0.176-0.229-0.282c-0.035-0.132,0-0.281,0.105-0.695l0.272-1.057l-0.018-0.018
			c-0.661,1.057-1.655,2.016-2.236,2.016c-0.511,0-0.59-0.695-0.59-1.091c0-1.752,1.146-3.417,3.257-3.417h0.881L85.511,11.173z
			 M84.674,8.145c-1.382,0.035-1.743,1.91-1.726,2.615c0.009,0.308,0.009,0.845,0.423,0.845c0.413,0,1.664-1.241,2.077-3.46H84.674z
			"/>
		<path fill="#5E6A71" d="M87.137,12.177l0.766-3.54C87.947,8.488,88,8.276,87.798,8.276c-0.079,0-0.149,0.026-0.229,0.053
			l-0.387,0.124l-0.053-0.167l1.584-0.616c0.177,0.018,0.149,0.176,0.105,0.378l-0.325,1.101h0.018
			c0.607-1.065,1.118-1.479,1.708-1.479l-0.141,0.784l-0.229,0.123c-0.097-0.079-0.211-0.149-0.29-0.149
			c-0.141,0-0.309,0.053-0.423,0.158c-0.36,0.326-0.713,1.242-0.871,1.963l-0.353,1.629L87.137,12.177L87.137,12.177z"/>
		<path fill="#5E6A71" d="M93.271,8.145h-1.028L91.66,10.83c-0.15,0.757,0.097,0.88,0.359,0.88c0.256,0,0.669-0.123,0.891-0.211
			l0.062,0.255l-1.708,0.528c-0.326,0-0.59-0.414-0.476-0.986l0.694-3.152h-0.773l0.079-0.37h0.782l0.178-0.88
			c0.229-0.097,0.467-0.291,0.643-0.493h0.264L92.32,7.775h1.294l-0.034,0.176L93.271,8.145z"/>
		<path fill="#5E6A71" d="M94.441,8.638c0.044-0.149,0.098-0.361-0.104-0.361c-0.079,0-0.149,0.026-0.229,0.053L93.72,8.453
			l-0.053-0.167l1.584-0.616c0.177,0.018,0.149,0.176,0.105,0.378l-0.37,1.567l0.026,0.018c0.44-0.792,1.646-1.963,2.456-1.963
			c0.828,0,0.432,1.004,0.088,1.946l0.02,0.018c0.447-0.81,1.662-1.963,2.395-1.963c0.476,0,0.643,0.264,0.432,1.092l-0.6,2.377
			c-0.053,0.264-0.044,0.432,0.08,0.432c0.062,0,0.158-0.035,0.229-0.07l0.414-0.203l0.07,0.194l-1.471,0.792
			c-0.149-0.053-0.211-0.176-0.237-0.282c-0.026-0.132,0.009-0.282,0.105-0.695l0.599-2.386c0.088-0.308,0.097-0.713-0.202-0.713
			c-0.388,0-1.611,0.995-2.21,3.328l-0.167,0.643h-0.775l0.863-3.258c0.079-0.308,0.088-0.713-0.212-0.713
			c-0.448,0-1.787,0.977-2.307,3.328l-0.142,0.643h-0.782L94.441,8.638z"/>
		<path fill="#5E6A71" d="M104.395,11.341l-0.934,0.572c-0.414,0.255-0.748,0.37-1.039,0.37c-0.854,0-1.047-0.968-1.047-1.62
			c0-1.444,1.285-2.994,2.729-2.994c0.477,0,0.688,0.264,0.688,0.792c0,0.863-1.136,1.743-2.589,1.391
			c-0.211,0.916-0.01,1.875,0.766,1.875c0.388,0,0.881-0.282,1.312-0.599L104.395,11.341z M104.156,8.294
			c0-0.247-0.157-0.414-0.289-0.414c-0.688,0-1.472,1.118-1.595,1.761C103.822,9.932,104.156,8.814,104.156,8.294z"/>
		<path fill="#5E6A71" d="M106.153,8.638c0.035-0.149,0.089-0.361-0.113-0.361c-0.07,0-0.149,0.026-0.229,0.053l-0.387,0.124
			l-0.053-0.167l1.593-0.616c0.168,0.018,0.142,0.176,0.098,0.378l-0.36,1.567l0.018,0.018c0.484-0.819,1.664-1.963,2.482-1.963
			c0.448,0,0.651,0.22,0.448,1.021l-0.615,2.447c-0.062,0.264-0.045,0.432,0.078,0.432c0.062,0,0.159-0.035,0.229-0.07l0.413-0.203
			l0.07,0.194l-1.471,0.792c-0.158-0.053-0.211-0.176-0.237-0.282c-0.026-0.132,0-0.282,0.105-0.695l0.563-2.219
			c0.097-0.387,0.236-0.88-0.124-0.88c-0.758,0-1.989,1.409-2.368,3.319l-0.142,0.651h-0.782L106.153,8.638z"/>
		<path fill="#5E6A71" d="M113.405,8.145h-1.028l-0.581,2.685c-0.15,0.757,0.097,0.88,0.359,0.88c0.257,0,0.67-0.123,0.891-0.211
			l0.062,0.255l-1.708,0.528c-0.325,0-0.59-0.414-0.476-0.986l0.695-3.152h-0.774l0.079-0.37h0.783l0.177-0.88
			c0.229-0.097,0.467-0.291,0.643-0.493h0.265l-0.334,1.374h1.294l-0.035,0.176L113.405,8.145z"/>
		<path fill="#5E6A71" d="M116.502,10.548c0-1.153,0.994-2.879,2.465-2.879c1.171,0,1.426,0.792,1.426,1.585
			c0,0.968-0.773,3.028-2.456,3.028C116.81,12.283,116.502,11.376,116.502,10.548z M119.583,8.832c0-0.916-0.556-0.951-0.695-0.951
			c-0.951,0-1.576,1.708-1.576,2.853c0,0.458,0.079,1.285,0.73,1.285C119.046,12.019,119.583,10.364,119.583,8.832z"/>
		<path fill="#5E6A71" d="M124.317,7.96l-0.211,0.185h-1.152c-0.433,2.095-1.137,4.886-1.639,6.225h-0.396l1.259-6.225h-0.836
			l0.079-0.37h0.828c0.466-1.875,2.016-2.069,2.386-2.069c0.202,0,0.625,0.035,0.757,0.159l-0.104,0.581l-0.221,0.105
			c-0.124-0.238-0.404-0.511-0.774-0.511c-0.528,0-0.924,0.361-1.136,1.312l-0.098,0.422h1.294L124.317,7.96z"/>
		<path fill="#5E6A71" d="M70.149,40.978h-2.872V20.256h5.21c4.382,0,7.075,1.954,7.075,5.98c0,3.493-2.99,6.66-7.638,6.66h-0.917
			v-1.895l0.947-0.029c2.781-0.148,4.527-1.628,4.527-4.707c0-2.279-1.271-3.937-4.352-3.937h-1.982L70.149,40.978L70.149,40.978z"
			/>
		<path fill="#5E6A71" d="M89.241,28.545c-1.066-0.711-1.926-0.947-2.725-0.947c-0.947,0-2.161,0.444-2.161,1.687
			c0,1.243,1.361,1.865,3.049,3.138c1.896,1.451,3.139,2.665,3.139,4.736c0,2.486-2.457,4.174-5.181,4.174
			c-1.688,0-3.582-0.74-4.56-1.865l1.303-1.51c0.858,0.799,2.015,1.48,3.197,1.48c1.243,0,2.517-0.651,2.517-2.103
			c0-1.717-1.54-2.457-2.931-3.463c-1.688-1.214-3.168-2.22-3.168-4.233c0-2.339,2.31-3.819,4.914-3.819
			c1.45,0,2.871,0.592,3.641,1.362L89.241,28.545z"/>
		<path fill="#5E6A71" d="M94.539,25.88c1.51,3.76,3.049,7.549,4.528,12.02h0.06c1.54-4.47,3.079-8.259,4.646-12.02l2.339,0.562
			l-7.606,17.14c-1.393,3.138-3.228,4.795-5.772,4.795h-1.332v-1.894h1.036c1.835,0,3.139-0.475,5.239-6.336L91.875,26.62
			L94.539,25.88z"/>
		<path fill="#5E6A71" d="M119.227,39.793c-1.45,1.036-3.197,1.54-4.47,1.54c-7.016,0-7.904-5.743-7.904-7.786
			c0-3.7,2.457-7.726,8.022-7.726c1.51,0,2.872,0.385,3.967,1.214l-0.888,1.51c-0.858-0.415-1.954-0.77-3.05-0.77
			c-2.428,0-5.181,1.599-5.181,5.625c0,3.08,1.568,5.979,5.15,5.979c1.272,0,2.457-0.325,3.61-1.065L119.227,39.793z"/>
		<path fill="#5E6A71" d="M124.731,28.012c1.393-1.48,3.522-2.19,5.062-2.19c3.403,0,5.24,1.895,5.24,5.625v9.532h-2.664v-8.97
			c0-2.783-1.186-4.233-3.582-4.233c-2.103,0-4.026,1.451-4.026,4.292v8.911h-2.664V19.22h2.635L124.731,28.012L124.731,28.012z"/>
		<path fill="#5E6A71" d="M138.405,33.399c0-4.795,3.554-7.578,7.282-7.578c3.73,0,7.312,2.783,7.312,7.578
			c0,4.588-2.932,7.934-7.312,7.934C141.336,41.333,138.405,37.987,138.405,33.399z M141.277,33.399c0,2.784,0.947,6.04,4.41,6.04
			c3.493,0,4.44-3.256,4.44-6.04c0-2.664-1.095-5.684-4.44-5.684C142.372,27.716,141.277,30.735,141.277,33.399z"/>
		<path fill="#5E6A71" d="M156.373,40.978V19.22h2.664v21.758H156.373L156.373,40.978z"/>
		<path fill="#5E6A71" d="M162.411,33.399c0-4.795,3.553-7.578,7.281-7.578c3.73,0,7.312,2.783,7.312,7.578
			c0,4.588-2.931,7.934-7.312,7.934C165.342,41.333,162.411,37.987,162.411,33.399z M165.283,33.399c0,2.784,0.946,6.04,4.409,6.04
			c3.493,0,4.44-3.256,4.44-6.04c0-2.664-1.095-5.684-4.44-5.684C166.378,27.716,165.283,30.735,165.283,33.399z"/>
		<path fill="#5E6A71" d="M193.67,40.444c0,5.654-3.522,7.934-7.52,7.934c-2.189,0-4.381-0.414-6.098-1.479l0.74-1.748
			c1.806,1.037,3.463,1.332,5.298,1.332c3.05,0,4.914-1.953,4.914-5.832V38.64h-0.06c-1.035,1.449-2.604,2.693-4.943,2.693
			c-4.085,0-6.631-3.197-6.631-7.934c0-3.848,2.842-7.578,7.074-7.578c1.776,0,3.672,0.888,4.5,2.398h0.06v-2.042h2.664
			L193.67,40.444L193.67,40.444z M191.006,33.104c0-2.783-1.51-5.388-4.41-5.388c-3.079,0-4.352,2.427-4.352,5.565
			c0,3.167,1.36,6.157,4.174,6.157C189.645,39.438,191.006,36.39,191.006,33.104z"/>
		<path fill="#5E6A71" d="M198.73,25.88c1.511,3.76,3.049,7.549,4.529,12.02h0.059c1.54-4.47,3.079-8.259,4.647-12.02l2.339,0.562
			l-7.606,17.14c-1.393,3.138-3.228,4.795-5.772,4.795h-1.332v-1.894h1.036c1.835,0,3.138-0.475,5.239-6.336l-5.803-13.527
			L198.73,25.88z"/>
	</g>
	<rect x="55.545" fill="#5E6A71" width="0.75" height="67.752"/>
	<g>
		<path fill="#5E6A71" d="M36.832,47.031l-4.615,3.29l-4.619-3.29c-3.283-2.246-6.098-4.171-7.572-7.095
			c1.218,5.48,6.574,7.529,12.191,11.924c5.613-4.395,10.971-6.443,12.188-11.924C42.93,42.86,40.115,44.785,36.832,47.031z"/>
		<path fill="#981E32" d="M19.387,20.236v0.574c0.357,0.125,0.473,0.236,0.512,0.76v13.242c0,7.365,5.994,9.314,12.32,14.263
			c6.324-4.948,12.32-6.897,12.32-14.263V21.42c0.047-0.4,0.174-0.498,0.496-0.609v-0.574L19.387,20.236L19.387,20.236z"/>
		<g>
			<g>
				<g>
					<path fill="#FFFFFF" d="M34.713,41.797c0,0,1.022-0.438,1.586-2.131c0.494,1.033,0.365,2.094,0.365,2.094
						C36.209,41.86,34.713,41.797,34.713,41.797z"/>
					<path fill="#FFFFFF" d="M40.213,32.107c0,0,0.627,3.406-1.586,3.521c-2.135,0.111-3.142-3.1-3.142-3.1s0.517,6.278,3.509,5.864
						C42.365,37.929,40.213,32.107,40.213,32.107z"/>
				</g>
			</g>
			<path fill="#FFFFFF" d="M23.959,40.987c0-0.002,0.004-0.002,0.004-0.002c2.496-0.567,4.404-3.481,4.969-4.649l0.355-0.739
				l0.215,0.791c0.012,0.043,0.244,0.918,0.244,2.071c0,0.129-0.006,0.26-0.013,0.394c0.861,0.032,1.478-0.142,1.859-0.539
				c0.547-0.566,0.713-1.642,0.506-3.283c-0.098-0.785-0.389-2.037-0.646-3.139c-0.132-0.564-0.257-1.098-0.33-1.477
				c-0.482-2.412,0.114-3.91,0.701-4.74c0.094-0.131,0.192-0.256,0.299-0.373c-1.728,0.582-3.177,1.486-4.668,2.979l1.051,1.219
				l0.43-0.402c0.406,1.516,0.113,2.908,0.113,2.908c-0.553-0.842-1.205-1.525-1.205-1.525L28.129,30l-0.947-1.102l-0.108-0.123
				c-1.164,1.602-1.541,2.91-1.541,2.91l0.825,0.756l0.48,0.436L27,32.412c0.887,1.664,0.076,3.219,0.076,3.219
				c-0.146-0.565-0.73-1.404-0.73-1.404l0.23-0.764l-1.229-1.111c-1.279,3.995-2.986,5.29-2.986,5.29s1.849-0.334,2.877-0.681
				C25.238,36.961,25.209,39.065,23.959,40.987z"/>
			<path fill="#FFFFFF" d="M42.615,26.574l-2.953,0.123c0.002,0.35-0.045,0.701-0.156,1.035c0.275,1.205,0.084,1.859,0.084,1.859
				c-0.494-1.15-0.871-1.469-0.871-1.469c-2.711-1.205-4.234,1.518-4.07,3.275c0.134,1.445,0.656,3.361,1.064,6.37
				c0.344,2.528-0.937,3.623-2.41,3.875c-0.031,0.004-0.064,0.012-0.096,0.018c-0.011,0-0.017,0-0.023,0
				c-0.24,0.031-0.492,0.045-0.764,0.039c-0.006-0.002-0.019-0.002-0.025-0.002c-0.031,0-0.059-0.006-0.088-0.006
				c-0.115-0.006-0.229-0.019-0.34-0.031c-1.146-0.16-3.715-0.625-6.365-0.689c1.56-0.912,2.779-2.488,3.459-3.604
				c0.041,0.309,0.072,0.688,0.072,1.104c0,0.207-0.006,0.427-0.027,0.646l-0.024,0.307l0.305,0.025
				c1.221,0.104,2.086-0.128,2.648-0.712c0.692-0.721,0.905-1.922,0.672-3.782c-0.101-0.816-0.396-2.084-0.656-3.201
				c-0.129-0.559-0.252-1.09-0.326-1.457c-0.438-2.201,0.086-3.537,0.603-4.27c0.403-0.574,0.963-0.994,1.573-1.197
				c0.013-0.002,0.023-0.004,0.033-0.006l1.008-3.094h0.316l-0.676,2.975c0.155-0.027,0.313-0.053,0.477-0.078l0.869-2.742h0.314
				l-0.57,2.656c0.899-0.115,1.879-0.207,2.961-0.285c0.176,0.07,0.363,0.271,0.531,0.557l2.842-0.875l0.104,0.307l-2.715,1.053
				c0.021,0.057,0.041,0.113,0.06,0.174l2.971-0.369l0.049,0.318l-2.881,0.576c0.01,0.053,0.02,0.107,0.027,0.16l2.998,0.098
				L42.615,26.574z M34.061,27.9c0.597-0.416,1.607-0.738,2.562-0.666c0.239,0.02,0.442-0.045,0.184-0.182
				c-0.711-0.375-2.367-0.248-2.953,0.152c-0.938,0.641-0.781,1.781-0.76,1.809C33.279,28.688,33.598,28.227,34.061,27.9z"/>
		</g>
	</g>
	<g id="bad_wsu" display="none">
		<g display="inline">
			<path fill="#5E6A71" d="M124.346,73.653c-0.08-0.697-0.459-1.256-1.254-1.256c-0.576,0-1.16,0.299-1.16,1.035
				c0,0.694,0.695,1.114,1.691,1.86c1.053,0.785,1.393,1.293,1.393,2.119c0,1.185-1.147,1.84-2.342,1.84
				c-0.637,0-1.184-0.121-1.701-0.317c-0.039-0.021-0.068-0.062-0.068-0.14V77.36h0.259c0.108,1.104,0.834,1.541,1.602,1.541
				c0.707,0,1.351-0.534,1.351-1.262c0-0.647-0.351-1.176-1.843-2.16c-0.537-0.354-1.203-0.746-1.203-1.828
				c0-0.897,0.929-1.604,2.074-1.604c0.426,0,0.994,0.049,1.392,0.189c0.061,0.02,0.069,0.061,0.069,0.109v1.305h-0.259V73.653z"/>
			<path fill="#5E6A71" d="M127.816,77.565c0,0.688-0.028,0.649,0.638,0.729v0.192h-1.99v-0.192c0.666-0.08,0.637-0.043,0.637-0.729
				v-4.017h-0.6c-0.646,0-0.793,0.406-1.035,0.896h-0.187l0.199-1.133h3.957l0.199,1.133h-0.184
				c-0.244-0.488-0.392-0.896-1.035-0.896h-0.601L127.816,77.565L127.816,77.565z"/>
			<path fill="#5E6A71" d="M130.447,76.799l-0.334,0.976c-0.096,0.285,0.044,0.526,0.363,0.526v0.188h-1.326v-0.188
				c0.197,0,0.408-0.125,0.525-0.364c0.312-0.642,1.166-3.025,1.771-4.636h0.408c0.494,1.464,1.236,3.712,1.486,4.357
				c0.16,0.407,0.275,0.643,0.59,0.643v0.188h-1.697v-0.188c0.457,0,0.502-0.241,0.386-0.562l-0.314-0.939L130.447,76.799
				L130.447,76.799z M132.211,76.522l-0.773-2.369h-0.014l-0.865,2.369H132.211z"/>
			<path fill="#5E6A71" d="M135.953,77.565c0,0.688-0.027,0.649,0.637,0.729v0.192h-1.99v-0.192c0.666-0.08,0.637-0.043,0.637-0.729
				v-4.017h-0.6c-0.643,0-0.791,0.406-1.035,0.896h-0.186l0.201-1.133h3.957l0.198,1.133h-0.186
				c-0.242-0.488-0.392-0.896-1.033-0.896h-0.602L135.953,77.565L135.953,77.565z"/>
			<path fill="#5E6A71" d="M138.121,78.295c0.666-0.08,0.571-0.043,0.571-0.729v-3.33c0-0.687,0.095-0.65-0.571-0.732v-0.191h3.239
				V74.5h-0.19c-0.074-0.545-0.221-0.951-0.754-0.951h-1.006v2.115h0.621c0.465,0,0.666-0.187,0.68-0.646h0.192v1.574h-0.192
				c-0.015-0.436-0.185-0.693-0.68-0.693h-0.621v1.67c0,0.632,0.289,0.683,0.952,0.683c1.074,0,1.021-0.306,1.361-1.096h0.191
				l-0.222,1.331h-3.573L138.121,78.295L138.121,78.295z"/>
		</g>
		<g display="inline">
			<g>
				<path fill="#5E6A71" d="M155.391,78.489c0,0,0,0-3.602-4.268v3.27c0,0.154,0.03,0.281,0.043,0.398
					c0.037,0.268,0.289,0.37,0.776,0.405v0.192h-1.811v-0.192c0.354-0.035,0.598-0.139,0.635-0.405
					c0.017-0.117,0.045-0.244,0.045-0.398v-3.484c-0.207-0.266-0.438-0.502-0.856-0.502v-0.193h1.346
					c1.102,1.338,2.248,2.701,3.35,4.039h0.017v-3.039c0-0.155-0.029-0.283-0.045-0.399c-0.037-0.267-0.287-0.367-0.777-0.406
					v-0.192h1.812v0.192c-0.349,0.039-0.599,0.142-0.638,0.406c-0.014,0.116-0.043,0.244-0.043,0.399v4.179L155.391,78.489
					L155.391,78.489z"/>
			</g>
			<path fill="#5E6A71" d="M158.297,77.565c0,0.688-0.029,0.651,0.637,0.729v0.192h-1.99v-0.192
				c0.666-0.078,0.638-0.043,0.638-0.729v-3.328c0-0.688,0.028-0.652-0.638-0.732v-0.191h1.99v0.191
				c-0.666,0.08-0.637,0.045-0.637,0.732V77.565z"/>
			<path fill="#5E6A71" d="M167.709,77.157c-0.34,0.793-0.289,1.096-1.361,1.096c-0.664,0-0.955-0.051-0.955-0.682v-1.67h0.623
				c0.496,0,0.664,0.26,0.68,0.695h0.191v-1.576h-0.191c-0.016,0.459-0.215,0.645-0.68,0.645h-0.623V73.55h1.176
				c0.531,0,0.681,0.406,0.752,0.953h0.193v-1.189h-3.406h-1.467v0.191c0.502,0,0.695,0.229,0.51,0.695
				c-0.459,1.133-0.909,2.27-1.383,3.402c-0.385-1.123-0.812-2.396-1.1-3.271c-0.246-0.711,0.051-0.828,0.457-0.828v-0.19h-1.881
				v0.19c0.354,0,0.45,0.229,0.727,1.021c0.451,1.258,0.955,2.686,1.406,3.965h0.377c0.619-1.516,1.25-3.023,1.871-4.539
				c0.153-0.371,0.266-0.445,0.481-0.445c0.664,0.08,0.568,0.045,0.568,0.732v3.328c0,0.688,0.096,0.651-0.568,0.729v0.192h3.572
				l0.223-1.331L167.709,77.157L167.709,77.157z"/>
			<path fill="#5E6A71" d="M178.012,77.565c0,0.688-0.031,0.651,0.635,0.729v0.192h-1.989v-0.192
				c0.665-0.078,0.637-0.043,0.637-0.729v-3.328c0-0.688,0.028-0.652-0.637-0.732v-0.191h1.989v0.191
				c-0.666,0.08-0.635,0.045-0.635,0.732V77.565z"/>
			<path fill="#5E6A71" d="M185.574,73.313v0.19c0.436,0,0.674,0.213,0.422,0.666l-1.021,1.856l-0.895-1.856
				c-0.187-0.385-0.236-0.666,0.323-0.666v-0.19h-1.237h-0.515h-3.444l-0.201,1.131h0.188c0.242-0.488,0.392-0.896,1.033-0.896
				h0.603v4.017c0,0.688,0.028,0.651-0.638,0.729v0.192h1.99v-0.192c-0.666-0.078-0.637-0.043-0.637-0.729v-4.017h0.6
				c0.605,0,1.015,0.361,1.265,0.812l1.041,2.064v1.139c0,0.688,0.028,0.652-0.636,0.73v0.193h1.988v-0.193
				c-0.664-0.078-0.635-0.043-0.635-0.73v-0.828c0-0.184,0.014-0.393,0.088-0.539l1.234-2.241c0.2-0.354,0.399-0.451,0.606-0.451
				v-0.19H185.574z"/>
			<path fill="#5E6A71" d="M150.629,72.192l-2.33,0.006v0.193c0.467,0.051,0.807,0.256,0.854,0.614
				c0.021,0.158,0.06,0.326,0.06,0.537v2.765c0,1.592-0.717,2.508-2.078,2.508c-1.482,0-1.928-1.064-1.928-2.459v-2.914
				c0-0.924,0.026-0.941,0.924-1.051v-0.193h-2.678v0.193c0.896,0.108,0.854,0.127,0.854,1.051v2.965
				c0,1.801,0.658,2.877,2.775,2.877c1.283,0,2.646-0.797,2.646-2.938v-2.804c0-0.021,0-0.035,0-0.051
				c-0.008-0.863,0.328-0.988,0.894-1.08L150.629,72.192z"/>
			<path fill="#5E6A71" d="M175.059,75.782c-0.785-0.59-1.334-0.918-1.334-1.467c0-0.582,0.408-0.816,0.863-0.816
				c0.629,0,0.926,0.439,0.988,0.988h0.202V73.46c0-0.039-0.008-0.072-0.055-0.086c-0.312-0.109-0.76-0.15-1.098-0.15
				c-0.902,0-1.687,0.558-1.687,1.264c0,0.382,0.105,0.654,0.261,0.865h-0.005c0.005,0.002,0.009,0.006,0.011,0.008
				c0.188,0.255,0.451,0.416,0.682,0.57c1.178,0.775,1.443,1.191,1.453,1.699c0.021,1.135-2.1,1.729-3.494-0.445l-0.725-1.104
				c0.567-0.223,1.035-0.746,1.035-1.508c0-0.867-0.748-1.258-1.494-1.258h-2.154v0.19c0.666,0.08,0.635,0.043,0.635,0.729v3.33
				c0,0.691,0.031,0.652-0.635,0.734v0.193h1.99V78.3c-0.666-0.082-0.638-0.043-0.638-0.734V76.2h0.697
				c0.896,1.486,1.115,2.133,1.566,2.295c0.102,0.035,1.262,0.406,2.082,0.406c0.94,0,1.946-0.517,1.946-1.449
				C176.156,76.799,175.889,76.399,175.059,75.782z M170.479,76.042h-0.615V73.63h0.568c0.541,0,0.988,0.281,0.988,1.088
				C171.42,75.554,171.123,76.042,170.479,76.042z"/>
		</g>
		<g display="inline">
			<path fill="#5E6A71" d="M84.764,77.565c0,0.688-0.031,0.651,0.635,0.733v0.191h-1.989v-0.191
				c0.666-0.082,0.637-0.047,0.637-0.733v-3.328c0-0.688-0.32-0.65-0.984-0.732v-0.191H85.4v0.191
				c-0.666,0.082-0.635,0.045-0.635,0.732v1.279h2.596v-1.279c0-0.688,0.029-0.65-0.637-0.732v-0.191h1.988v0.191
				c-0.664,0.082-0.635,0.045-0.635,0.732v3.328c0,0.688-0.029,0.651,0.635,0.733v0.191h-1.988v-0.191
				c0.666-0.082,0.637-0.047,0.637-0.733v-1.746h-2.596L84.764,77.565L84.764,77.565z"/>
			<path fill="#5E6A71" d="M90.881,77.565c0,0.688-0.029,0.651,0.635,0.733v0.191h-1.988v-0.191
				c0.666-0.082,0.636-0.047,0.636-0.733v-3.328c0-0.688,0.03-0.65-0.636-0.732v-0.191h1.988v0.191
				c-0.664,0.082-0.635,0.045-0.635,0.732V77.565z"/>
			<path fill="#5E6A71" d="M97.029,78.491c-1.176-1.391-2.396-2.848-3.6-4.27v3.271c0,0.151,0.027,0.278,0.043,0.397
				c0.037,0.267,0.289,0.369,0.775,0.408v0.191h-1.812v-0.191c0.354-0.039,0.601-0.143,0.638-0.408
				c0.014-0.119,0.043-0.246,0.043-0.397v-3.486c-0.207-0.266-0.438-0.502-0.857-0.502v-0.19h1.346
				c1.104,1.338,2.248,2.699,3.353,4.037h0.014v-3.039c0-0.156-0.029-0.283-0.045-0.4c-0.035-0.266-0.289-0.367-0.775-0.406v-0.191
				h1.812v0.191c-0.348,0.039-0.601,0.141-0.639,0.406c-0.015,0.117-0.044,0.244-0.044,0.4v4.18H97.029z"/>
			<path fill="#5E6A71" d="M98.121,75.872c0-1.139,0.961-2.648,2.957-2.648c0.719,0,1.059,0.133,1.42,0.252
				c0.209,0.068,0.289,0.17,0.289,0.289v0.953h-0.191c-0.022-0.592-0.4-1.234-1.576-1.234c-1.545,0-2.049,1.064-2.055,2.328
				c-0.008,1.17,0.582,2.511,2.084,2.511c0.926,0,1.006-0.343,1.006-0.919v-0.45c0-0.688,0.029-0.649-0.783-0.731V76.03h2.14v0.191
				c-0.668,0.082-0.638,0.043-0.638,0.731v1.287c-0.475,0.184-1.096,0.342-1.77,0.342C99.488,78.581,98.121,77.854,98.121,75.872z"
				/>
			<path fill="#5E6A71" d="M105.945,77.565c0,0.688-0.028,0.651,0.638,0.733v0.191h-1.99v-0.191
				c0.666-0.082,0.637-0.047,0.637-0.733v-4.017h-0.6c-0.644,0-0.791,0.406-1.037,0.896h-0.182l0.198-1.131h3.955l0.201,1.131
				h-0.186c-0.242-0.488-0.392-0.896-1.035-0.896h-0.601L105.945,77.565L105.945,77.565z"/>
			<path fill="#5E6A71" d="M107.766,75.999c0-1.6,1.242-2.775,2.779-2.775c1.604,0,2.537,1.383,2.537,2.523
				c0,1.561-1.168,2.834-2.804,2.834C108.867,78.581,107.766,77.435,107.766,75.999z M112.24,75.967
				c0-1.768-0.955-2.483-1.857-2.483c-1.258,0-1.773,1.123-1.773,2.131c0,1.789,0.916,2.707,1.869,2.707
				C111.855,78.321,112.24,76.959,112.24,75.967z"/>
			<path fill="#5E6A71" d="M117.854,78.491c-1.176-1.391-2.395-2.848-3.602-4.27v3.271c0,0.151,0.028,0.278,0.045,0.397
				c0.037,0.267,0.287,0.369,0.774,0.408v0.191h-1.812v-0.191c0.355-0.039,0.6-0.143,0.637-0.408
				c0.017-0.119,0.045-0.246,0.045-0.397v-3.486c-0.207-0.266-0.438-0.502-0.858-0.502v-0.19h1.348
				c1.103,1.338,2.248,2.699,3.35,4.037h0.015v-3.039c0-0.156-0.029-0.283-0.043-0.4c-0.037-0.266-0.287-0.367-0.775-0.406v-0.191
				h1.812v0.191c-0.347,0.039-0.599,0.141-0.638,0.406c-0.014,0.117-0.043,0.244-0.043,0.4v4.18H117.854z"/>
			<path fill="#5E6A71" d="M76.545,72.323v-0.008h-2v0.246c0.771,0.01,0.897,0.285,0.695,0.869l-1.517,4.123h-0.082l-1.783-5.154
				h-0.45l-1.875,5.154h-0.127l-1.343-4.097c-0.19-0.647,0.074-0.896,0.677-0.896v-0.246h-2.375v0.246
				c0.506,0,0.596,0.395,0.92,1.326l1.725,5.094h0.453l1.844-5.195l1.818,5.201h0.508c0.777-2.068,1.871-5.131,2.273-5.953
				c0.149-0.311,0.422-0.469,0.674-0.469v-0.242H76.545z"/>
			<path fill="#5E6A71" d="M81.744,75.728c-0.771-0.58-1.314-0.906-1.314-1.447c0-0.574,0.402-0.807,0.85-0.807
				c0.621,0,0.914,0.434,0.978,0.977h0.201v-1.014c0-0.039-0.008-0.07-0.056-0.084c-0.309-0.109-0.75-0.148-1.082-0.148
				c-0.891,0-1.663,0.549-1.663,1.246c0,0.379,0.104,0.646,0.256,0.854H79.91c0.002,0.002,0.006,0.004,0.01,0.008
				c0.186,0.25,0.442,0.41,0.672,0.562c1.162,0.766,1.432,1.176,1.432,1.68c0,0.467-0.352,0.937-0.998,0.98
				c-0.662,0.049-1.514-0.271-1.873-1.201c-0.317-0.891-0.965-2.764-1.401-4.059h-0.426c-0.609,1.625-1.438,4.01-1.755,4.656
				c-0.116,0.241-0.329,0.366-0.528,0.366v0.19h0.315h1.021v-0.19c-0.324,0-0.463-0.241-0.367-0.53l0.338-0.982h1.875l0.316,0.947
				l0.244,0.729c0,0,1.313,0.345,2.17,0.345c0.93,0,1.873-0.511,1.873-1.433C82.828,76.733,82.564,76.336,81.744,75.728z
				 M76.461,76.504l0.875-2.392h0.014l0.779,2.392H76.461z"/>
		</g>
	</g>
</g>
</svg>
