<?xml version="1.0" encoding="utf-8"?>
<!-- Generator: Adobe Illustrator 16.0.0, SVG Export Plug-In . SVG Version: 6.00 Build 0)  -->
<!DOCTYPE svg PUBLIC "-//W3C//DTD SVG 1.1//EN" "http://www.w3.org/Graphics/SVG/1.1/DTD/svg11.dtd">
<svg version="1.1" id="Layer_1" xmlns="http://www.w3.org/2000/svg" xmlns:xlink="http://www.w3.org/1999/xlink" x="0px" y="0px"
	 width="300.892px" height="67.752px" viewBox="19.387 0 300.892 67.752" enable-background="new 19.387 0 300.892 67.752"
	 xml:space="preserve">
<g>
	
		<text transform="matrix(1 0 0 1 66.7004 71.875)" display="none" fill="#5E6A71" enable-background="new    " font-family="'StoneSansStd-Medium'" font-size="7.7582">ZVANCOUVER</text>
	<g id="Good_WSU">
		<g>
			<g>
				<path fill="#5E6A71" d="M174.98,58.56c-0.793-0.596-1.347-0.927-1.347-1.479c0-0.586,0.41-0.824,0.869-0.824
					c0.634,0,0.935,0.443,0.996,0.998h0.207v-1.037c0-0.04-0.008-0.071-0.055-0.086c-0.318-0.11-0.769-0.149-1.107-0.149
					c-0.91,0-1.701,0.561-1.701,1.272c0,0.384,0.105,0.66,0.263,0.87h-0.004c0.004,0.005,0.01,0.008,0.012,0.01
					c0.191,0.256,0.455,0.419,0.688,0.574c1.187,0.784,1.455,1.203,1.464,1.716c0.022,1.142-2.117,1.743-3.523-0.45l-0.729-1.111
					c0.573-0.225,1.043-0.754,1.043-1.522c0-0.875-0.752-1.269-1.507-1.269h-2.172v0.193c0.67,0.08,0.642,0.045,0.642,0.736v3.359
					c0,0.695,0.028,0.656-0.642,0.74v0.193h2.008v-0.193c-0.672-0.084-0.645-0.045-0.645-0.74v-1.379h0.705
					c0.9,1.498,1.125,2.15,1.58,2.312c0.1,0.035,1.271,0.412,2.1,0.412c0.949,0,1.963-0.523,1.963-1.464
					C176.086,59.587,175.818,59.183,174.98,58.56z M170.361,58.821h-0.623v-2.434h0.576c0.545,0,0.994,0.283,0.994,1.1
					C171.309,58.33,171.01,58.821,170.361,58.821z"/>
				<path fill="#5E6A71" d="M155.344,61.287c0,0,0,0-3.651-4.327v3.314c0,0.156,0.031,0.285,0.045,0.404
					c0.037,0.271,0.293,0.375,0.789,0.413v0.194h-1.84v-0.194c0.362-0.039,0.606-0.143,0.646-0.413
					c0.015-0.119,0.043-0.248,0.043-0.404v-3.532c-0.207-0.271-0.44-0.511-0.867-0.511v-0.195h1.363
					c1.117,1.359,2.281,2.738,3.398,4.097h0.014v-3.084c0-0.157-0.029-0.282-0.045-0.403c-0.037-0.271-0.291-0.375-0.787-0.414
					v-0.194h1.838v0.194c-0.352,0.039-0.606,0.143-0.646,0.414c-0.015,0.121-0.043,0.246-0.043,0.403v4.238H155.344z"/>
				<path fill="#5E6A71" d="M158.291,60.349c0,0.699-0.028,0.66,0.646,0.743v0.194h-2.019v-0.194
					c0.676-0.083,0.646-0.044,0.646-0.743v-3.375c0-0.695,0.031-0.66-0.646-0.742v-0.192h2.019v0.192
					c-0.674,0.082-0.646,0.047-0.646,0.742V60.349z"/>
				<path fill="#5E6A71" d="M167.834,59.937c-0.346,0.804-0.293,1.111-1.379,1.111c-0.676,0-0.969-0.055-0.969-0.691v-1.695h0.631
					c0.502,0,0.676,0.265,0.689,0.707H167v-1.6h-0.192c-0.015,0.465-0.218,0.652-0.689,0.652h-0.631v-2.145h1.188
					c0.539,0,0.691,0.412,0.765,0.968h0.195v-1.206h-3.455h-1.484v0.191c0.508,0,0.705,0.232,0.518,0.707
					c-0.467,1.146-0.924,2.301-1.403,3.448c-0.392-1.139-0.824-2.429-1.115-3.312c-0.25-0.722,0.053-0.843,0.465-0.843v-0.191
					h-1.908v0.191c0.363,0,0.459,0.232,0.738,1.035c0.455,1.276,0.967,2.723,1.426,4.021h0.381c0.632-1.537,1.269-3.067,1.896-4.604
					c0.158-0.377,0.271-0.451,0.488-0.451c0.676,0.082,0.577,0.047,0.577,0.742v3.375c0,0.699,0.099,0.66-0.577,0.743v0.194h3.623
					l0.227-1.35h-0.197V59.937z"/>
				<path fill="#5E6A71" d="M177.881,60.349c0,0.699-0.03,0.66,0.646,0.743v0.194h-2.019v-0.194
					c0.677-0.083,0.646-0.044,0.646-0.743v-3.375c0-0.695,0.029-0.66-0.646-0.742v-0.192h2.019v0.192
					c-0.676,0.082-0.646,0.047-0.646,0.742V60.349z"/>
				<path fill="#5E6A71" d="M185.553,56.039v0.192c0.44,0,0.682,0.218,0.426,0.676l-1.035,1.884l-0.908-1.884
					c-0.186-0.391-0.238-0.676,0.33-0.676v-0.192h-1.258h-0.521h-3.491l-0.203,1.146h0.188c0.248-0.494,0.396-0.906,1.049-0.906
					h0.609v4.07c0,0.7,0.029,0.661-0.646,0.744v0.194h2.019v-0.194c-0.676-0.083-0.646-0.044-0.646-0.744v-4.07h0.609
					c0.613,0,1.027,0.367,1.279,0.824l1.059,2.095v1.151c0,0.7,0.029,0.661-0.645,0.744v0.194h2.016v-0.194
					c-0.674-0.083-0.645-0.044-0.645-0.744V59.51c0-0.188,0.016-0.397,0.09-0.547l1.252-2.272c0.203-0.36,0.403-0.459,0.615-0.459
					V56.04L185.553,56.039L185.553,56.039z"/>
			</g>
			<path fill="#5E6A71" d="M150.537,54.979l-2.363,0.006v0.195c0.476,0.051,0.816,0.26,0.867,0.625
				c0.021,0.159,0.062,0.33,0.062,0.543v2.803c0,1.615-0.728,2.543-2.107,2.543c-1.504,0-1.955-1.079-1.955-2.492v-2.955
				c0-0.938,0.027-0.954,0.937-1.064v-0.195h-2.715v0.195c0.909,0.11,0.868,0.127,0.868,1.064v3.006
				c0,1.826,0.666,2.917,2.812,2.917c1.303,0,2.686-0.808,2.686-2.978v-2.844c0-0.019,0-0.035,0-0.051
				c-0.008-0.876,0.332-1.004,0.904-1.096L150.537,54.979z"/>
		</g>
		<g>
			<path fill="#5E6A71" d="M124.535,56.373c-0.08-0.704-0.462-1.267-1.266-1.267c-0.583,0-1.172,0.303-1.172,1.045
				c0,0.703,0.702,1.125,1.708,1.879c1.063,0.794,1.406,1.307,1.406,2.14c0,1.196-1.16,1.858-2.363,1.858
				c-0.646,0-1.197-0.121-1.721-0.32c-0.039-0.021-0.068-0.062-0.068-0.141V60.12h0.261c0.112,1.113,0.843,1.559,1.617,1.559
				c0.714,0,1.361-0.544,1.361-1.277c0-0.653-0.352-1.187-1.857-2.18c-0.542-0.361-1.215-0.755-1.215-1.849
				c0-0.906,0.937-1.618,2.092-1.618c0.432,0,1.005,0.051,1.407,0.191c0.061,0.018,0.069,0.062,0.069,0.109v1.316L124.535,56.373
				L124.535,56.373z"/>
			<path fill="#5E6A71" d="M127.748,60.324c0,0.696-0.028,0.655,0.644,0.741v0.19h-2.01v-0.19c0.673-0.086,0.644-0.045,0.644-0.741
				v-4.058h-0.606c-0.649,0-0.8,0.412-1.046,0.903h-0.185l0.2-1.144h3.995l0.202,1.144h-0.187c-0.247-0.491-0.396-0.903-1.045-0.903
				h-0.606V60.324z"/>
			<path fill="#5E6A71" d="M130.355,59.524l-0.342,1.002c-0.099,0.293,0.044,0.539,0.374,0.539v0.19h-1.36v-0.19
				c0.201,0,0.418-0.131,0.538-0.375c0.32-0.658,1.193-3.101,1.814-4.752h0.418c0.508,1.502,1.27,3.805,1.523,4.469
				c0.166,0.416,0.284,0.658,0.604,0.658v0.19h-1.739v-0.19c0.472,0,0.518-0.246,0.396-0.576l-0.322-0.965H130.355z M132.165,59.241
				l-0.792-2.428h-0.016l-0.889,2.428H132.165z"/>
			<path fill="#5E6A71" d="M135.967,60.324c0,0.696-0.028,0.655,0.642,0.741v0.19h-2.01v-0.19c0.674-0.086,0.645-0.045,0.645-0.741
				v-4.058h-0.606c-0.649,0-0.798,0.412-1.046,0.903h-0.187l0.203-1.144h3.996l0.201,1.144h-0.188
				c-0.244-0.491-0.393-0.903-1.043-0.903h-0.604v4.058H135.967z"/>
			<path fill="#5E6A71" d="M138.154,61.065c0.676-0.086,0.578-0.045,0.578-0.741v-3.362c0-0.693,0.098-0.656-0.578-0.74v-0.193
				h3.272v1.203h-0.194c-0.074-0.551-0.224-0.963-0.76-0.963h-1.019v2.139h0.627c0.471,0,0.672-0.188,0.688-0.651h0.192v1.591
				h-0.192c-0.017-0.441-0.187-0.703-0.688-0.703h-0.627v1.688c0,0.637,0.291,0.688,0.965,0.688c1.082,0,1.029-0.308,1.375-1.106
				h0.193l-0.225,1.344h-3.609L138.154,61.065L138.154,61.065z"/>
		</g>
		<g>
			<path fill="#5E6A71" d="M85.043,60.331c0,0.695-0.029,0.656,0.643,0.738v0.195h-2.009v-0.195
				c0.672-0.082,0.643-0.043,0.643-0.738v-3.362c0-0.692-0.323-0.655-0.995-0.737V56.04h2.362v0.191
				c-0.672,0.082-0.643,0.045-0.643,0.737v1.294h2.621v-1.294c0-0.692,0.029-0.655-0.643-0.737V56.04h2.009v0.191
				c-0.671,0.082-0.642,0.045-0.642,0.737v3.362c0,0.695-0.029,0.656,0.642,0.738v0.195h-2.009v-0.195
				c0.672-0.082,0.643-0.043,0.643-0.738v-1.764h-2.621L85.043,60.331L85.043,60.331z"/>
			<path fill="#5E6A71" d="M91.22,60.331c0,0.695-0.031,0.656,0.642,0.738v0.195h-2.008v-0.195c0.671-0.082,0.642-0.043,0.642-0.738
				v-3.362c0-0.692,0.03-0.655-0.642-0.737V56.04h2.008v0.191c-0.672,0.082-0.642,0.045-0.642,0.737V60.331z"/>
			<path fill="#5E6A71" d="M97.427,61.265c-1.187-1.404-2.419-2.877-3.636-4.311v3.303c0,0.154,0.029,0.281,0.045,0.401
				c0.037,0.271,0.29,0.373,0.783,0.409v0.195H92.79v-0.195c0.358-0.036,0.605-0.141,0.644-0.409
				c0.014-0.12,0.044-0.247,0.044-0.401v-3.52c-0.21-0.27-0.441-0.508-0.867-0.508v-0.191h1.358c1.113,1.35,2.271,2.725,3.383,4.074
				h0.015v-3.067c0-0.157-0.03-0.285-0.045-0.405c-0.036-0.268-0.292-0.371-0.784-0.408v-0.192h1.83v0.192
				c-0.351,0.037-0.604,0.142-0.644,0.408c-0.015,0.12-0.043,0.248-0.043,0.405v4.22H97.427z"/>
			<path fill="#5E6A71" d="M98.528,58.62c0-1.148,0.971-2.674,2.986-2.674c0.725,0,1.067,0.136,1.434,0.256
				c0.209,0.066,0.292,0.171,0.292,0.29v0.964h-0.194c-0.021-0.6-0.402-1.248-1.59-1.248c-1.561,0-2.067,1.075-2.076,2.354
				c-0.007,1.18,0.591,2.531,2.106,2.531c0.934,0,1.016-0.345,1.016-0.926V59.71c0-0.695,0.029-0.656-0.792-0.738v-0.193h2.158
				v0.193c-0.672,0.082-0.641,0.043-0.641,0.738v1.3c-0.479,0.187-1.106,0.343-1.786,0.343C99.91,61.353,98.528,60.622,98.528,58.62
				z"/>
			<path fill="#5E6A71" d="M106.429,60.331c0,0.695-0.03,0.656,0.642,0.738v0.195h-2.009v-0.195
				c0.671-0.082,0.642-0.043,0.642-0.738v-4.055h-0.604c-0.649,0-0.799,0.408-1.045,0.902h-0.187l0.203-1.141h3.995l0.201,1.141
				h-0.188c-0.246-0.494-0.396-0.902-1.045-0.902h-0.604L106.429,60.331L106.429,60.331z"/>
			<path fill="#5E6A71" d="M108.266,58.747c0-1.614,1.255-2.801,2.808-2.801c1.62,0,2.561,1.396,2.561,2.548
				c0,1.575-1.18,2.858-2.83,2.858C109.378,61.353,108.266,60.196,108.266,58.747z M112.782,58.718c0-1.785-0.962-2.511-1.874-2.511
				c-1.269,0-1.791,1.136-1.791,2.149c0,1.81,0.925,2.734,1.888,2.734C112.395,61.092,112.782,59.718,112.782,58.718z"/>
			<path fill="#5E6A71" d="M118.451,61.265c-1.188-1.404-2.42-2.877-3.637-4.311v3.303c0,0.154,0.028,0.281,0.044,0.401
				c0.038,0.271,0.291,0.373,0.784,0.409v0.195h-1.829v-0.195c0.358-0.036,0.604-0.141,0.643-0.409
				c0.016-0.12,0.044-0.247,0.044-0.401v-3.52c-0.208-0.27-0.439-0.508-0.866-0.508v-0.191h1.359c1.112,1.35,2.27,2.725,3.383,4.074
				h0.015v-3.067c0-0.157-0.03-0.285-0.044-0.405c-0.038-0.268-0.291-0.371-0.785-0.408v-0.192h1.829v0.192
				c-0.351,0.037-0.604,0.142-0.642,0.408c-0.015,0.12-0.045,0.248-0.045,0.405v4.22H118.451z"/>
			<path fill="#5E6A71" d="M76.642,55.038v-0.01h-2.021v0.25c0.78,0.01,0.907,0.287,0.702,0.878l-1.528,4.161H73.71l-1.8-5.202
				h-0.456l-1.891,5.202h-0.129l-1.355-4.133c-0.191-0.656,0.077-0.906,0.684-0.906v-0.25h-2.397v0.25
				c0.509,0,0.601,0.397,0.928,1.339l1.74,5.146h0.458l1.861-5.248l1.835,5.25H73.7c0.785-2.086,1.89-5.179,2.296-6.009
				c0.152-0.312,0.425-0.474,0.681-0.474v-0.244H76.642z"/>
			<path fill="#5E6A71" d="M82.013,58.458c-0.786-0.589-1.337-0.918-1.337-1.469c0-0.581,0.409-0.817,0.864-0.817
				c0.629,0,0.927,0.44,0.99,0.991h0.204v-1.03c0-0.039-0.008-0.069-0.056-0.086c-0.313-0.108-0.763-0.149-1.1-0.149
				c-0.904,0-1.688,0.558-1.688,1.267c0,0.382,0.105,0.655,0.261,0.864h-0.003c0.003,0.004,0.006,0.007,0.01,0.01
				c0.19,0.254,0.452,0.417,0.683,0.57c1.18,0.777,1.454,1.193,1.454,1.705c0,0.475-0.356,0.951-1.014,1
				c-0.672,0.045-1.537-0.278-1.9-1.223c-0.323-0.904-0.979-2.809-1.425-4.121h-0.433c-0.62,1.65-1.46,4.07-1.782,4.727
				c-0.119,0.246-0.335,0.373-0.537,0.373v0.195h0.322h1.037v-0.195c-0.329,0-0.472-0.245-0.374-0.536l0.344-1.001h1.904l0.32,0.963
				l0.247,0.742c0,0,1.335,0.35,2.204,0.35c0.943,0,1.901-0.52,1.901-1.453C83.112,59.479,82.846,59.079,82.013,58.458z
				 M76.646,59.248l0.889-2.429h0.015l0.792,2.429H76.646z"/>
		</g>
	</g>
	<g>
		<path fill="#5E6A71" d="M72.381,8.365c0,3.267-2.518,3.918-3.178,3.918c-0.784,0-2.668-0.053-2.668-2.65
			c0-2.236,1.604-3.724,3.495-3.724C71.333,5.909,72.381,6.674,72.381,8.365z M67.469,9.677c0,1.162,0.501,2.342,1.593,2.342
			c1.717,0,2.387-1.999,2.387-3.636c0-1.198-0.335-2.21-1.559-2.21C68.357,6.173,67.469,7.925,67.469,9.677z"/>
		<path fill="#5E6A71" d="M76.286,7.96l-0.211,0.185h-1.153c-0.432,2.095-1.136,4.886-1.638,6.225h-0.396l1.259-6.225h-0.836
			l0.079-0.37h0.827c0.467-1.875,2.017-2.069,2.387-2.069c0.202,0,0.625,0.035,0.757,0.159l-0.105,0.581l-0.22,0.105
			c-0.124-0.238-0.405-0.511-0.774-0.511c-0.528,0-0.925,0.361-1.137,1.312l-0.097,0.422h1.294L76.286,7.96z"/>
		<path fill="#5E6A71" d="M80.15,11.147c-0.062,0.273-0.053,0.449,0.071,0.449c0.062,0,0.157-0.035,0.236-0.07l0.414-0.203
			l0.07,0.194l-1.471,0.792c-0.158-0.053-0.221-0.176-0.237-0.282c-0.035-0.132,0-0.282,0.104-0.695l0.563-2.694
			c0.035-0.149,0.088-0.493-0.114-0.493h-1.726c-0.423,2.095-1.127,4.886-1.629,6.225h-0.396l1.25-6.225h-0.836l0.088-0.37h0.828
			c0.643-1.999,2.033-2.069,2.491-2.069c0.264,0,0.941,0.009,1.074,0.132l-0.149,0.784l-0.238,0.106
			c-0.123-0.238-0.246-0.661-0.941-0.661c-0.114,0-1.047,0.044-1.329,1.286l-0.098,0.422h1.102c0.599,0,1.03-0.053,1.435-0.105
			c0.168,0.018,0.143,0.185,0.099,0.378L80.15,11.147z"/>
		<path fill="#5E6A71" d="M84.894,8.55c-0.158-0.247-0.405-0.52-0.723-0.52c-1.013,0-1.654,1.435-1.654,2.474
			c0,0.563,0.185,1.224,0.854,1.224c0.388,0,0.891-0.282,1.321-0.599l0.104,0.211l-0.925,0.572c-0.414,0.255-0.748,0.37-0.933,0.37
			c-0.925,0-1.198-0.889-1.153-1.62c-0.01-0.141,0.035-1.77,1.575-2.633c0.396-0.22,0.811-0.361,1.092-0.361
			c0.291,0,0.66,0.062,0.837,0.194l-0.123,0.572L84.894,8.55z"/>
		<path fill="#5E6A71" d="M88.73,11.341l-0.935,0.572c-0.414,0.255-0.748,0.37-1.039,0.37c-0.854,0-1.047-0.968-1.047-1.62
			c0-1.444,1.285-2.994,2.729-2.994c0.476,0,0.688,0.264,0.688,0.792c0,0.863-1.136,1.743-2.589,1.391
			c-0.211,0.916-0.009,1.875,0.767,1.875c0.388,0,0.881-0.282,1.312-0.599L88.73,11.341z M88.492,8.294
			c0-0.247-0.158-0.414-0.29-0.414c-0.687,0-1.471,1.118-1.594,1.761C88.158,9.932,88.492,8.814,88.492,8.294z"/>
		<path fill="#5E6A71" d="M92.417,10.548c0-1.153,0.994-2.879,2.465-2.879c1.172,0,1.427,0.792,1.427,1.585
			c0,0.968-0.774,3.028-2.456,3.028C92.725,12.283,92.417,11.376,92.417,10.548z M95.498,8.832c0-0.916-0.555-0.951-0.694-0.951
			c-0.951,0-1.576,1.708-1.576,2.853c0,0.458,0.079,1.285,0.729,1.285C94.961,12.019,95.498,10.364,95.498,8.832z"/>
		<path fill="#5E6A71" d="M100.232,7.96l-0.211,0.185h-1.153c-0.432,2.095-1.136,4.886-1.638,6.225h-0.396l1.259-6.225h-0.836
			l0.079-0.37h0.828c0.466-1.875,2.017-2.069,2.386-2.069c0.202,0,0.625,0.035,0.758,0.159l-0.105,0.581l-0.22,0.105
			c-0.124-0.238-0.405-0.511-0.775-0.511c-0.527,0-0.924,0.361-1.136,1.312l-0.097,0.422h1.294L100.232,7.96z"/>
		<path fill="#5E6A71" d="M82.938,23.779c-0.979-0.799-3.197-1.806-5.418-1.806c-5.121,0-8.142,3.67-8.142,8.525
			c0,5.239,3.612,8.762,8.142,8.762c2.25,0,4.025-0.71,5.239-1.54l1.125,1.717c-1.392,0.947-3.849,1.896-6.513,1.896
			c-7.399,0-11.16-5.062-11.16-10.775c0-5.21,4.085-10.657,11.517-10.657c2.96,0,5.031,1.036,6.394,2.102L82.938,23.779z"/>
		<path fill="#5E6A71" d="M85.481,33.399c0-4.795,3.552-7.578,7.281-7.578s7.312,2.783,7.312,7.578c0,4.588-2.931,7.934-7.312,7.934
			C88.411,41.333,85.481,37.987,85.481,33.399z M88.353,33.399c0,2.784,0.946,6.04,4.41,6.04c3.492,0,4.439-3.256,4.439-6.04
			c0-2.664-1.095-5.684-4.439-5.684C89.447,27.716,88.353,30.735,88.353,33.399z"/>
		<path fill="#5E6A71" d="M106.083,28.012c1.214-1.421,2.99-2.19,4.618-2.19c2.338,0,3.789,0.977,4.706,2.19
			c1.421-1.302,3.435-2.19,5.092-2.19c3.286,0,4.943,2.131,5.032,5.269v9.887h-2.664v-8.82c0-2.131-0.532-4.263-3.256-4.263
			c-2.25,0-3.789,1.184-3.789,4.174v8.91h-2.664v-8.82c0-2.783-1.185-4.263-3.346-4.263c-2.249,0-3.7,1.45-3.7,4.292v8.792h-2.664
			V26.177h2.635V28.012z"/>
		<path fill="#5E6A71" d="M132.545,28.012c1.214-1.421,2.989-2.19,4.618-2.19c2.338,0,3.789,0.977,4.706,2.19
			c1.421-1.302,3.436-2.19,5.092-2.19c3.286,0,4.943,2.131,5.032,5.269v9.887h-2.664v-8.82c0-2.131-0.533-4.263-3.256-4.263
			c-2.25,0-3.789,1.184-3.789,4.174v8.91h-2.664v-8.82c0-2.783-1.185-4.263-3.346-4.263c-2.249,0-3.7,1.45-3.7,4.292v8.792h-2.664
			V26.177h2.635V28.012L132.545,28.012z"/>
		<path fill="#5E6A71" d="M158.119,33.755c-0.03,2.96,2.071,5.684,5.002,5.684c1.362,0,3.021-0.502,4.056-1.272l0.771,1.45
			c-1.539,1.095-3.374,1.717-4.914,1.717c-4.617,0-7.666-2.842-7.666-8.052c0-5.122,3.67-7.46,7.016-7.46
			c4.499,0,6.01,4.056,5.714,7.934H158.119z M165.667,31.979c0-2.309-0.977-4.263-3.314-4.263c-2.843,0-3.968,2.368-4.057,4.263
			H165.667z"/>
		<path fill="#5E6A71" d="M173.984,28.012l1.064-1.125c0.621-0.622,1.6-1.065,2.221-1.065c0.65,0,1.628,0.474,2.457,1.451
			l-1.214,1.717c-0.65-0.326-1.303-0.622-1.982-0.622c-1.362,0-2.487,1.361-2.487,4.647v7.962h-2.664V26.177h2.605V28.012z"/>
		<path fill="#5E6A71" d="M192.515,39.793c-1.45,1.036-3.197,1.54-4.471,1.54c-7.016,0-7.902-5.743-7.902-7.786
			c0-3.7,2.456-7.726,8.021-7.726c1.51,0,2.871,0.385,3.967,1.214l-0.888,1.51c-0.858-0.415-1.954-0.77-3.05-0.77
			c-2.427,0-5.18,1.599-5.18,5.625c0,3.08,1.567,5.979,5.149,5.979c1.273,0,2.457-0.325,3.611-1.065L192.515,39.793z"/>
		<path fill="#5E6A71" d="M195.029,21.292c0-0.74,0.622-1.569,1.688-1.569c1.066,0,1.688,0.829,1.688,1.569
			c0,0.799-0.385,1.806-1.688,1.806C195.414,23.098,195.029,22.091,195.029,21.292z M198.049,26.177v14.801h-2.664V26.177H198.049z"
			/>
		<path fill="#5E6A71" d="M209.327,39.379c-1.036,1.036-2.339,1.954-3.7,1.954c-2.485,0-4.204-1.775-4.204-4.559
			c0-2.575,2.191-4.205,5.271-5.122l3.582-1.125c-0.118-1.806-1.51-2.96-2.96-2.96c-1.717,0-2.812,0.71-3.878,1.599l-1.036-1.333
			c1.479-1.421,2.989-2.013,5.062-2.013c2.222,0,5.478,0.71,5.478,5.032v6.513c0,1.125,0.147,2.546,0.65,3.611h-2.9
			c-0.354-0.623-0.414-1.569-0.414-2.517L209.327,39.379z M207.729,33.044c-2.339,0.711-3.553,1.835-3.553,3.701
			c0,1.539,1.065,2.516,2.132,2.516c1.895,0,4.321-2.339,3.967-6.957L207.729,33.044z"/>
		<path fill="#5E6A71" d="M216.934,40.978V19.22h2.664v21.758H216.934L216.934,40.978z"/>
		<path fill="#5E6A71" d="M223.327,21.292c0-0.74,0.622-1.569,1.688-1.569c1.065,0,1.688,0.829,1.688,1.569
			c0,0.799-0.385,1.806-1.688,1.806C223.712,23.098,223.327,22.091,223.327,21.292z M226.347,26.177v14.801h-2.664V26.177H226.347z"
			/>
		<path fill="#5E6A71" d="M241.266,27.331l-8.732,11.9h8.732v1.746h-12.434V40.12l9.177-12.226h-7.46v-1.717h10.717V27.331z"/>
		<path fill="#5E6A71" d="M250.945,39.379c-1.036,1.036-2.339,1.954-3.7,1.954c-2.486,0-4.203-1.775-4.203-4.559
			c0-2.575,2.19-4.205,5.27-5.122l3.582-1.125c-0.118-1.806-1.511-2.96-2.96-2.96c-1.718,0-2.812,0.71-3.878,1.599l-1.036-1.333
			c1.479-1.421,2.988-2.013,5.062-2.013c2.221,0,5.478,0.71,5.478,5.032v6.513c0,1.125,0.147,2.546,0.65,3.611h-2.9
			c-0.354-0.623-0.414-1.569-0.414-2.517L250.945,39.379z M249.347,33.044c-2.34,0.711-3.553,1.835-3.553,3.701
			c0,1.539,1.065,2.516,2.131,2.516c1.896,0,4.322-2.339,3.968-6.957L249.347,33.044z"/>
		<path fill="#5E6A71" d="M261.689,26.177h3.878v1.539h-3.878v8.377c0,2.072,0.414,3.315,2.042,3.315
			c0.978,0,1.54-0.237,2.043-0.503l0.65,1.479c-0.918,0.593-2.013,0.947-3.02,0.947c-2.96,0-4.381-1.717-4.381-4.735v-8.882h-2.072
			v-1.539h2.072v-3.553l2.664-0.888L261.689,26.177L261.689,26.177z"/>
		<path fill="#5E6A71" d="M268.26,21.292c0-0.74,0.622-1.569,1.688-1.569s1.688,0.829,1.688,1.569c0,0.799-0.385,1.806-1.688,1.806
			S268.26,22.091,268.26,21.292z M271.279,26.177v14.801h-2.664V26.177H271.279z"/>
		<path fill="#5E6A71" d="M274.653,33.399c0-4.795,3.553-7.578,7.282-7.578s7.312,2.783,7.312,7.578
			c0,4.588-2.931,7.934-7.312,7.934C277.584,41.333,274.653,37.987,274.653,33.399z M277.525,33.399c0,2.784,0.947,6.04,4.41,6.04
			c3.493,0,4.439-3.256,4.439-6.04c0-2.664-1.095-5.684-4.439-5.684C278.62,27.716,277.525,30.735,277.525,33.399z"/>
		<path fill="#5E6A71" d="M295.256,28.012c1.393-1.48,3.522-2.19,5.062-2.19c3.404,0,5.24,1.895,5.24,5.625v9.532h-2.664v-8.97
			c0-2.783-1.186-4.233-3.582-4.233c-2.103,0-4.026,1.451-4.026,4.292v8.911h-2.664V26.177h2.635L295.256,28.012L295.256,28.012z"/>
	</g>
	<rect x="55.545" fill="#5E6A71" width="0.75" height="67.752"/>
	<g>
		<path fill="#5E6A71" d="M36.832,47.031l-4.615,3.29l-4.618-3.29c-3.283-2.246-6.099-4.171-7.572-7.095
			c1.217,5.48,6.574,7.529,12.19,11.924c5.613-4.395,10.972-6.443,12.188-11.924C42.93,42.86,40.115,44.785,36.832,47.031z"/>
		<path fill="#981E32" d="M19.387,20.236v0.574c0.356,0.125,0.473,0.236,0.512,0.76v13.242c0,7.365,5.994,9.314,12.319,14.263
			c6.324-4.948,12.32-6.897,12.32-14.263V21.42c0.047-0.4,0.174-0.498,0.496-0.609v-0.574L19.387,20.236L19.387,20.236z"/>
		<g>
			<g>
				<g>
					<path fill="#FFFFFF" d="M34.713,41.797c0,0,1.023-0.438,1.586-2.131c0.494,1.033,0.365,2.094,0.365,2.094
						C36.209,41.86,34.713,41.797,34.713,41.797z"/>
					<path fill="#FFFFFF" d="M40.213,32.107c0,0,0.627,3.406-1.586,3.521c-2.135,0.111-3.141-3.1-3.141-3.1s0.516,6.278,3.508,5.864
						C42.365,37.929,40.213,32.107,40.213,32.107z"/>
				</g>
			</g>
			<path fill="#FFFFFF" d="M23.959,40.987c0-0.002,0.004-0.002,0.004-0.002c2.496-0.567,4.404-3.481,4.97-4.649l0.354-0.739
				l0.215,0.791c0.013,0.043,0.244,0.918,0.244,2.071c0,0.129-0.006,0.26-0.012,0.394c0.861,0.032,1.477-0.142,1.858-0.539
				c0.548-0.566,0.714-1.642,0.507-3.283c-0.099-0.785-0.39-2.037-0.646-3.139c-0.131-0.564-0.256-1.098-0.33-1.477
				c-0.481-2.412,0.115-3.91,0.701-4.74c0.094-0.131,0.193-0.256,0.299-0.373c-1.727,0.582-3.176,1.486-4.668,2.979l1.051,1.219
				l0.431-0.402c0.405,1.516,0.112,2.908,0.112,2.908c-0.553-0.842-1.204-1.525-1.204-1.525L28.129,30l-0.946-1.102l-0.109-0.123
				c-1.164,1.602-1.541,2.91-1.541,2.91l0.826,0.756l0.479,0.436L27,32.412c0.888,1.664,0.076,3.219,0.076,3.219
				c-0.145-0.565-0.729-1.404-0.729-1.404l0.229-0.764l-1.229-1.111c-1.279,3.995-2.986,5.29-2.986,5.29s1.848-0.334,2.877-0.681
				C25.238,36.961,25.209,39.065,23.959,40.987z"/>
			<path fill="#FFFFFF" d="M42.615,26.574l-2.953,0.123c0.002,0.35-0.045,0.701-0.156,1.035c0.275,1.205,0.084,1.859,0.084,1.859
				c-0.493-1.15-0.87-1.469-0.87-1.469c-2.712-1.205-4.234,1.518-4.07,3.275c0.133,1.445,0.656,3.361,1.063,6.37
				c0.345,2.528-0.936,3.623-2.409,3.875c-0.031,0.004-0.064,0.012-0.097,0.018c-0.01,0-0.016,0-0.022,0
				c-0.24,0.031-0.492,0.045-0.765,0.039c-0.006-0.002-0.018-0.002-0.024-0.002c-0.031,0-0.06-0.006-0.088-0.006
				c-0.115-0.006-0.229-0.019-0.341-0.031c-1.146-0.16-3.715-0.625-6.364-0.689c1.559-0.912,2.778-2.488,3.459-3.604
				c0.041,0.309,0.071,0.688,0.071,1.104c0,0.207-0.006,0.427-0.026,0.646l-0.025,0.307l0.306,0.025
				c1.221,0.104,2.086-0.128,2.647-0.712c0.693-0.721,0.906-1.922,0.672-3.782c-0.1-0.816-0.396-2.084-0.656-3.201
				c-0.129-0.559-0.252-1.09-0.325-1.457c-0.439-2.201,0.086-3.537,0.602-4.27c0.404-0.574,0.963-0.994,1.574-1.197
				c0.012-0.002,0.022-0.004,0.033-0.006l1.008-3.094h0.315l-0.676,2.975c0.156-0.027,0.314-0.053,0.478-0.078l0.869-2.742h0.313
				l-0.57,2.656c0.9-0.115,1.879-0.207,2.961-0.285c0.177,0.07,0.363,0.271,0.531,0.557l2.842-0.875l0.105,0.307l-2.715,1.053
				c0.021,0.057,0.041,0.113,0.059,0.174l2.971-0.369l0.05,0.318l-2.882,0.576c0.011,0.053,0.021,0.107,0.027,0.16l2.998,0.098
				L42.615,26.574z M34.061,27.9c0.596-0.416,1.606-0.738,2.561-0.666c0.24,0.02,0.443-0.045,0.185-0.182
				c-0.711-0.375-2.367-0.248-2.953,0.152c-0.939,0.641-0.781,1.781-0.761,1.809C33.279,28.688,33.598,28.227,34.061,27.9z"/>
		</g>
	</g>
	<g id="bad_wsu" display="none">
		<g display="inline">
			<path fill="#5E6A71" d="M124.346,73.653c-0.08-0.697-0.459-1.256-1.255-1.256c-0.575,0-1.159,0.299-1.159,1.035
				c0,0.694,0.694,1.114,1.69,1.86c1.053,0.785,1.394,1.293,1.394,2.119c0,1.185-1.148,1.84-2.343,1.84
				c-0.637,0-1.184-0.121-1.7-0.317c-0.039-0.021-0.068-0.062-0.068-0.14V77.36h0.258c0.109,1.104,0.834,1.541,1.603,1.541
				c0.707,0,1.35-0.534,1.35-1.262c0-0.647-0.35-1.176-1.842-2.16c-0.537-0.354-1.203-0.746-1.203-1.828
				c0-0.897,0.928-1.604,2.074-1.604c0.426,0,0.994,0.049,1.391,0.189c0.062,0.02,0.07,0.061,0.07,0.109v1.305h-0.259V73.653z"/>
			<path fill="#5E6A71" d="M127.816,77.565c0,0.688-0.029,0.649,0.637,0.729v0.192h-1.99v-0.192c0.666-0.08,0.638-0.043,0.638-0.729
				v-4.017H126.5c-0.645,0-0.793,0.406-1.035,0.896h-0.186l0.199-1.133h3.957l0.198,1.133h-0.184
				c-0.244-0.488-0.391-0.896-1.035-0.896h-0.6L127.816,77.565L127.816,77.565z"/>
			<path fill="#5E6A71" d="M130.447,76.799l-0.334,0.976c-0.096,0.285,0.043,0.526,0.363,0.526v0.188h-1.326v-0.188
				c0.197,0,0.408-0.125,0.524-0.364c0.312-0.642,1.166-3.025,1.771-4.636h0.408c0.494,1.464,1.235,3.712,1.485,4.357
				c0.16,0.407,0.275,0.643,0.591,0.643v0.188h-1.697v-0.188c0.457,0,0.502-0.241,0.385-0.562l-0.313-0.939L130.447,76.799
				L130.447,76.799z M132.211,76.522l-0.772-2.369h-0.015l-0.864,2.369H132.211z"/>
			<path fill="#5E6A71" d="M135.953,77.565c0,0.688-0.027,0.649,0.637,0.729v0.192H134.6v-0.192c0.666-0.08,0.637-0.043,0.637-0.729
				v-4.017h-0.6c-0.644,0-0.791,0.406-1.035,0.896h-0.187l0.201-1.133h3.957l0.199,1.133h-0.187
				c-0.242-0.488-0.391-0.896-1.032-0.896h-0.603L135.953,77.565L135.953,77.565z"/>
			<path fill="#5E6A71" d="M138.121,78.295c0.666-0.08,0.572-0.043,0.572-0.729v-3.33c0-0.687,0.094-0.65-0.572-0.732v-0.191h3.24
				V74.5h-0.191c-0.073-0.545-0.221-0.951-0.754-0.951h-1.006v2.115h0.621c0.465,0,0.666-0.187,0.68-0.646h0.193v1.574h-0.193
				c-0.014-0.436-0.184-0.693-0.68-0.693h-0.621v1.67c0,0.632,0.289,0.683,0.953,0.683c1.074,0,1.021-0.306,1.361-1.096h0.19
				l-0.221,1.331h-3.574L138.121,78.295L138.121,78.295z"/>
		</g>
		<g display="inline">
			<g>
				<path fill="#5E6A71" d="M155.391,78.489c0,0,0,0-3.603-4.268v3.27c0,0.154,0.031,0.281,0.043,0.398
					c0.037,0.268,0.289,0.37,0.777,0.405v0.192h-1.812v-0.192c0.355-0.035,0.599-0.139,0.636-0.405
					c0.016-0.117,0.045-0.244,0.045-0.398v-3.484c-0.207-0.266-0.438-0.502-0.857-0.502v-0.193h1.346
					c1.103,1.338,2.248,2.701,3.351,4.039h0.016v-3.039c0-0.155-0.028-0.283-0.045-0.399c-0.037-0.267-0.287-0.367-0.776-0.406
					v-0.192h1.812v0.192c-0.348,0.039-0.598,0.142-0.637,0.406c-0.015,0.116-0.043,0.244-0.043,0.399v4.179L155.391,78.489
					L155.391,78.489z"/>
			</g>
			<path fill="#5E6A71" d="M158.297,77.565c0,0.688-0.028,0.651,0.638,0.729v0.192h-1.99v-0.192
				c0.666-0.078,0.637-0.043,0.637-0.729v-3.328c0-0.688,0.029-0.652-0.637-0.732v-0.191h1.99v0.191
				c-0.666,0.08-0.638,0.045-0.638,0.732V77.565z"/>
			<path fill="#5E6A71" d="M167.709,77.157c-0.34,0.793-0.289,1.096-1.36,1.096c-0.664,0-0.955-0.051-0.955-0.682v-1.67h0.623
				c0.496,0,0.664,0.26,0.68,0.695h0.191v-1.576h-0.191c-0.016,0.459-0.215,0.645-0.68,0.645h-0.623V73.55h1.176
				c0.531,0,0.68,0.406,0.752,0.953h0.193v-1.189h-3.406h-1.467v0.191c0.502,0,0.694,0.229,0.51,0.695
				c-0.459,1.133-0.91,2.27-1.383,3.402c-0.386-1.123-0.812-2.396-1.101-3.271c-0.246-0.711,0.051-0.828,0.457-0.828v-0.19h-1.881
				v0.19c0.355,0,0.451,0.229,0.728,1.021c0.45,1.258,0.954,2.686,1.405,3.965h0.377c0.619-1.516,1.25-3.023,1.871-4.539
				c0.154-0.371,0.267-0.445,0.482-0.445c0.664,0.08,0.567,0.045,0.567,0.732v3.328c0,0.688,0.097,0.651-0.567,0.729v0.192h3.572
				l0.223-1.331L167.709,77.157L167.709,77.157z"/>
			<path fill="#5E6A71" d="M178.012,77.565c0,0.688-0.031,0.651,0.635,0.729v0.192h-1.99v-0.192
				c0.666-0.078,0.637-0.043,0.637-0.729v-3.328c0-0.688,0.029-0.652-0.637-0.732v-0.191h1.99v0.191
				c-0.666,0.08-0.635,0.045-0.635,0.732V77.565z"/>
			<path fill="#5E6A71" d="M185.574,73.313v0.19c0.436,0,0.674,0.213,0.422,0.666l-1.021,1.856l-0.896-1.856
				c-0.186-0.385-0.235-0.666,0.324-0.666v-0.19h-1.238h-0.514h-3.445l-0.201,1.131h0.188c0.242-0.488,0.391-0.896,1.033-0.896
				h0.602v4.017c0,0.688,0.029,0.651-0.637,0.729v0.192h1.99v-0.192c-0.666-0.078-0.638-0.043-0.638-0.729v-4.017h0.601
				c0.604,0,1.014,0.361,1.264,0.812l1.041,2.064v1.139c0,0.688,0.029,0.652-0.635,0.73v0.193h1.988v-0.193
				c-0.664-0.078-0.636-0.043-0.636-0.73v-0.828c0-0.184,0.015-0.393,0.088-0.539l1.234-2.241c0.201-0.354,0.4-0.451,0.607-0.451
				v-0.19H185.574z"/>
			<path fill="#5E6A71" d="M150.629,72.192l-2.33,0.006v0.193c0.468,0.051,0.808,0.256,0.855,0.614
				c0.02,0.158,0.059,0.326,0.059,0.537v2.765c0,1.592-0.717,2.508-2.078,2.508c-1.481,0-1.928-1.064-1.928-2.459v-2.914
				c0-0.924,0.027-0.941,0.924-1.051v-0.193h-2.678v0.193c0.896,0.108,0.855,0.127,0.855,1.051v2.965
				c0,1.801,0.657,2.877,2.774,2.877c1.283,0,2.646-0.797,2.646-2.938v-2.804c0-0.021,0-0.035,0-0.051
				c-0.008-0.863,0.328-0.988,0.893-1.08L150.629,72.192z"/>
			<path fill="#5E6A71" d="M175.059,75.782c-0.785-0.59-1.334-0.918-1.334-1.467c0-0.582,0.407-0.816,0.862-0.816
				c0.629,0,0.927,0.439,0.988,0.988h0.203V73.46c0-0.039-0.008-0.072-0.055-0.086c-0.312-0.109-0.761-0.15-1.099-0.15
				c-0.901,0-1.686,0.558-1.686,1.264c0,0.382,0.104,0.654,0.26,0.865h-0.004c0.004,0.002,0.008,0.006,0.01,0.008
				c0.189,0.255,0.451,0.416,0.683,0.57c1.178,0.775,1.442,1.191,1.452,1.699c0.021,1.135-2.1,1.729-3.493-0.445l-0.726-1.104
				c0.568-0.223,1.035-0.746,1.035-1.508c0-0.867-0.748-1.258-1.494-1.258h-2.154v0.19c0.666,0.08,0.636,0.043,0.636,0.729v3.33
				c0,0.691,0.03,0.652-0.636,0.734v0.193h1.99V78.3c-0.666-0.082-0.637-0.043-0.637-0.734V76.2h0.697
				c0.895,1.486,1.114,2.133,1.565,2.295c0.103,0.035,1.263,0.406,2.082,0.406c0.941,0,1.947-0.517,1.947-1.449
				C176.156,76.799,175.889,76.399,175.059,75.782z M170.479,76.042h-0.615V73.63h0.568c0.541,0,0.987,0.281,0.987,1.088
				C171.42,75.554,171.123,76.042,170.479,76.042z"/>
		</g>
		<g display="inline">
			<path fill="#5E6A71" d="M84.764,77.565c0,0.688-0.031,0.651,0.635,0.733v0.191h-1.99v-0.191c0.666-0.082,0.637-0.047,0.637-0.733
				v-3.328c0-0.688-0.319-0.65-0.983-0.732v-0.191H85.4v0.191c-0.666,0.082-0.635,0.045-0.635,0.732v1.279h2.596v-1.279
				c0-0.688,0.029-0.65-0.637-0.732v-0.191h1.987v0.191c-0.664,0.082-0.635,0.045-0.635,0.732v3.328
				c0,0.688-0.029,0.651,0.635,0.733v0.191h-1.987v-0.191c0.666-0.082,0.637-0.047,0.637-0.733v-1.746h-2.596L84.764,77.565
				L84.764,77.565z"/>
			<path fill="#5E6A71" d="M90.881,77.565c0,0.688-0.028,0.651,0.636,0.733v0.191h-1.988v-0.191
				c0.666-0.082,0.635-0.047,0.635-0.733v-3.328c0-0.688,0.031-0.65-0.635-0.732v-0.191h1.988v0.191
				c-0.664,0.082-0.636,0.045-0.636,0.732V77.565z"/>
			<path fill="#5E6A71" d="M97.029,78.491c-1.176-1.391-2.396-2.848-3.6-4.27v3.271c0,0.151,0.026,0.278,0.043,0.397
				c0.036,0.267,0.289,0.369,0.774,0.408v0.191h-1.811v-0.191c0.354-0.039,0.6-0.143,0.637-0.408
				c0.014-0.119,0.043-0.246,0.043-0.397v-3.486c-0.207-0.266-0.438-0.502-0.857-0.502v-0.19h1.347
				c1.104,1.338,2.248,2.699,3.352,4.037h0.015v-3.039c0-0.156-0.029-0.283-0.046-0.4c-0.034-0.266-0.288-0.367-0.774-0.406v-0.191
				h1.812v0.191c-0.348,0.039-0.6,0.141-0.639,0.406c-0.014,0.117-0.043,0.244-0.043,0.4v4.18H97.029z"/>
			<path fill="#5E6A71" d="M98.121,75.872c0-1.139,0.961-2.648,2.957-2.648c0.719,0,1.06,0.133,1.42,0.252
				c0.209,0.068,0.289,0.17,0.289,0.289v0.953h-0.19c-0.023-0.592-0.4-1.234-1.576-1.234c-1.545,0-2.049,1.064-2.056,2.328
				c-0.008,1.17,0.582,2.511,2.084,2.511c0.927,0,1.007-0.343,1.007-0.919v-0.45c0-0.688,0.028-0.649-0.783-0.731V76.03h2.139v0.191
				c-0.668,0.082-0.637,0.043-0.637,0.731v1.287c-0.476,0.184-1.096,0.342-1.771,0.342C99.488,78.581,98.121,77.854,98.121,75.872z"
				/>
			<path fill="#5E6A71" d="M105.945,77.565c0,0.688-0.029,0.651,0.637,0.733v0.191h-1.99v-0.191
				c0.666-0.082,0.638-0.047,0.638-0.733v-4.017h-0.601c-0.643,0-0.791,0.406-1.037,0.896h-0.182l0.199-1.131h3.955l0.201,1.131
				h-0.187c-0.242-0.488-0.391-0.896-1.035-0.896h-0.6L105.945,77.565L105.945,77.565z"/>
			<path fill="#5E6A71" d="M107.766,75.999c0-1.6,1.241-2.775,2.778-2.775c1.605,0,2.537,1.383,2.537,2.523
				c0,1.561-1.168,2.834-2.803,2.834C108.867,78.581,107.766,77.435,107.766,75.999z M112.24,75.967
				c0-1.768-0.955-2.483-1.857-2.483c-1.258,0-1.772,1.123-1.772,2.131c0,1.789,0.916,2.707,1.869,2.707
				C111.855,78.321,112.24,76.959,112.24,75.967z"/>
			<path fill="#5E6A71" d="M117.854,78.491c-1.176-1.391-2.396-2.848-3.603-4.27v3.271c0,0.151,0.029,0.278,0.045,0.397
				c0.037,0.267,0.287,0.369,0.775,0.408v0.191h-1.812v-0.191c0.355-0.039,0.601-0.143,0.638-0.408
				c0.016-0.119,0.045-0.246,0.045-0.397v-3.486c-0.207-0.266-0.438-0.502-0.859-0.502v-0.19h1.349
				c1.102,1.338,2.248,2.699,3.35,4.037h0.014v-3.039c0-0.156-0.028-0.283-0.043-0.4c-0.037-0.266-0.287-0.367-0.774-0.406v-0.191
				h1.811v0.191c-0.346,0.039-0.598,0.141-0.637,0.406c-0.014,0.117-0.043,0.244-0.043,0.4v4.18H117.854z"/>
			<path fill="#5E6A71" d="M76.545,72.323v-0.008h-2v0.246c0.771,0.01,0.898,0.285,0.695,0.869l-1.516,4.123h-0.082l-1.783-5.154
				h-0.451l-1.875,5.154h-0.127l-1.342-4.097c-0.191-0.647,0.074-0.896,0.676-0.896v-0.246h-2.375v0.246
				c0.506,0,0.596,0.395,0.92,1.326l1.725,5.094h0.453l1.845-5.195l1.817,5.201h0.508c0.777-2.068,1.871-5.131,2.273-5.953
				c0.15-0.311,0.422-0.469,0.674-0.469v-0.242H76.545z"/>
			<path fill="#5E6A71" d="M81.744,75.728c-0.771-0.58-1.313-0.906-1.313-1.447c0-0.574,0.401-0.807,0.85-0.807
				c0.621,0,0.914,0.434,0.977,0.977h0.201v-1.014c0-0.039-0.008-0.07-0.055-0.084c-0.31-0.109-0.75-0.148-1.082-0.148
				c-0.891,0-1.664,0.549-1.664,1.246c0,0.379,0.104,0.646,0.256,0.854H79.91c0.002,0.002,0.006,0.004,0.01,0.008
				c0.187,0.25,0.443,0.41,0.672,0.562c1.162,0.766,1.433,1.176,1.433,1.68c0,0.467-0.353,0.937-0.998,0.98
				c-0.662,0.049-1.514-0.271-1.873-1.201c-0.318-0.891-0.965-2.764-1.402-4.059h-0.426c-0.609,1.625-1.438,4.01-1.754,4.656
				c-0.117,0.241-0.33,0.366-0.529,0.366v0.19h0.316h1.021v-0.19c-0.323,0-0.463-0.241-0.366-0.53l0.338-0.982h1.875l0.315,0.947
				l0.244,0.729c0,0,1.314,0.345,2.17,0.345c0.93,0,1.873-0.511,1.873-1.433C82.828,76.733,82.564,76.336,81.744,75.728z
				 M76.461,76.504l0.875-2.392h0.015l0.778,2.392H76.461z"/>
		</g>
	</g>
</g>
</svg>
