<?xml version="1.0" encoding="utf-8"?>
<!-- Generator: Adobe Illustrator 16.0.0, SVG Export Plug-In . SVG Version: 6.00 Build 0)  -->
<!DOCTYPE svg PUBLIC "-//W3C//DTD SVG 1.1//EN" "http://www.w3.org/Graphics/SVG/1.1/DTD/svg11.dtd">
<svg version="1.1" id="Layer_1" xmlns="http://www.w3.org/2000/svg" xmlns:xlink="http://www.w3.org/1999/xlink" x="0px" y="0px"
	 width="300.078px" height="84.594px" viewBox="19.387 0 300.078 84.594" enable-background="new 19.387 0 300.078 84.594"
	 xml:space="preserve">
<g>
	
		<text transform="matrix(1 0 0 1 66.7004 88.6875)" display="none" fill="#5E6A71" enable-background="new    " font-family="'StoneSansStd-Medium'" font-size="7.7582">ZVANCOUVER</text>
	<g id="Good_WSU">
		<g>
			<g>
				<path fill="#5E6A71" d="M174.98,75.372c-0.793-0.595-1.347-0.927-1.347-1.479c0-0.586,0.41-0.824,0.869-0.824
					c0.634,0,0.935,0.443,0.996,0.998h0.207v-1.037c0-0.039-0.008-0.07-0.055-0.086c-0.318-0.11-0.769-0.149-1.107-0.149
					c-0.91,0-1.701,0.562-1.701,1.272c0,0.385,0.105,0.66,0.263,0.871h-0.004c0.004,0.004,0.01,0.008,0.012,0.01
					c0.191,0.256,0.455,0.419,0.688,0.574c1.187,0.783,1.455,1.203,1.464,1.715c0.022,1.143-2.117,1.744-3.523-0.449l-0.729-1.112
					c0.573-0.225,1.043-0.754,1.043-1.522c0-0.875-0.752-1.269-1.507-1.269h-2.172v0.194c0.67,0.08,0.642,0.044,0.642,0.736v3.359
					c0,0.695,0.028,0.656-0.642,0.739v0.194h2.008v-0.194c-0.672-0.083-0.645-0.044-0.645-0.739v-1.38h0.705
					c0.9,1.499,1.125,2.151,1.58,2.313c0.1,0.035,1.271,0.412,2.1,0.412c0.949,0,1.963-0.523,1.963-1.465
					C176.086,76.4,175.818,75.996,174.98,75.372z M170.361,75.634h-0.623V73.2h0.576c0.545,0,0.994,0.282,0.994,1.099
					C171.309,75.143,171.01,75.634,170.361,75.634z"/>
				<path fill="#5E6A71" d="M155.344,78.1c0,0,0,0-3.651-4.328v3.314c0,0.156,0.031,0.285,0.045,0.405
					c0.037,0.271,0.293,0.374,0.789,0.413v0.193h-1.84v-0.193c0.362-0.039,0.606-0.144,0.646-0.413
					c0.015-0.12,0.043-0.249,0.043-0.405v-3.531c-0.207-0.271-0.44-0.512-0.867-0.512v-0.195h1.363
					c1.117,1.359,2.281,2.738,3.398,4.098h0.014v-3.084c0-0.157-0.029-0.283-0.045-0.404c-0.037-0.271-0.291-0.374-0.787-0.413
					V72.85h1.838v0.194c-0.352,0.039-0.606,0.142-0.646,0.413c-0.015,0.121-0.043,0.247-0.043,0.404V78.1H155.344z"/>
				<path fill="#5E6A71" d="M158.291,77.161c0,0.7-0.028,0.661,0.646,0.743V78.1h-2.019v-0.195c0.676-0.082,0.646-0.043,0.646-0.743
					v-3.374c0-0.696,0.031-0.66-0.646-0.743v-0.192h2.019v0.192c-0.674,0.083-0.646,0.047-0.646,0.743V77.161z"/>
				<path fill="#5E6A71" d="M167.834,76.75c-0.346,0.803-0.293,1.111-1.379,1.111c-0.676,0-0.969-0.055-0.969-0.691v-1.695h0.631
					c0.502,0,0.676,0.265,0.689,0.707H167v-1.601h-0.192c-0.015,0.466-0.218,0.653-0.689,0.653h-0.631V73.09h1.188
					c0.539,0,0.691,0.411,0.765,0.967h0.195v-1.205h-3.455h-1.484v0.191c0.508,0,0.705,0.232,0.518,0.706
					c-0.467,1.147-0.924,2.302-1.403,3.449c-0.392-1.14-0.824-2.429-1.115-3.313c-0.25-0.721,0.053-0.842,0.465-0.842v-0.191h-1.908
					v0.191c0.363,0,0.459,0.232,0.738,1.034c0.455,1.276,0.967,2.724,1.426,4.021h0.381c0.632-1.537,1.269-3.066,1.896-4.604
					c0.158-0.377,0.271-0.452,0.488-0.452c0.676,0.083,0.577,0.047,0.577,0.743v3.374c0,0.7,0.099,0.661-0.577,0.743v0.195h3.623
					l0.227-1.351h-0.197V76.75z"/>
				<path fill="#5E6A71" d="M177.881,77.161c0,0.7-0.03,0.661,0.646,0.743V78.1h-2.019v-0.195c0.677-0.082,0.646-0.043,0.646-0.743
					v-3.374c0-0.696,0.029-0.66-0.646-0.743v-0.192h2.019v0.192c-0.676,0.083-0.646,0.047-0.646,0.743V77.161z"/>
				<path fill="#5E6A71" d="M185.553,72.852v0.191c0.44,0,0.682,0.218,0.426,0.676l-1.035,1.885l-0.908-1.885
					c-0.186-0.39-0.238-0.676,0.33-0.676v-0.191h-1.258h-0.521h-3.491l-0.203,1.145h0.188c0.248-0.494,0.396-0.905,1.049-0.905
					h0.609v4.07c0,0.7,0.029,0.661-0.646,0.743V78.1h2.019v-0.195c-0.676-0.082-0.646-0.043-0.646-0.743v-4.07h0.609
					c0.613,0,1.027,0.366,1.279,0.823l1.059,2.095v1.152c0,0.7,0.029,0.661-0.645,0.743V78.1h2.016v-0.195
					c-0.674-0.082-0.645-0.043-0.645-0.743v-0.839c0-0.188,0.016-0.398,0.09-0.547l1.252-2.273c0.203-0.359,0.403-0.458,0.615-0.458
					v-0.192H185.553L185.553,72.852z"/>
			</g>
			<path fill="#5E6A71" d="M150.537,71.792l-2.363,0.006v0.195c0.476,0.051,0.816,0.259,0.867,0.624
				c0.021,0.16,0.062,0.331,0.062,0.543v2.804c0,1.615-0.728,2.542-2.107,2.542c-1.504,0-1.955-1.079-1.955-2.492v-2.955
				c0-0.938,0.027-0.953,0.937-1.064v-0.195h-2.715v0.195c0.909,0.111,0.868,0.128,0.868,1.064v3.006
				c0,1.826,0.666,2.918,2.812,2.918c1.303,0,2.686-0.808,2.686-2.978V73.16c0-0.018,0-0.034,0-0.051
				c-0.008-0.875,0.332-1.004,0.904-1.096L150.537,71.792z"/>
		</g>
		<g>
			<path fill="#5E6A71" d="M124.535,73.186c-0.08-0.705-0.462-1.268-1.266-1.268c-0.583,0-1.172,0.303-1.172,1.046
				c0,0.702,0.702,1.124,1.708,1.878c1.063,0.794,1.406,1.307,1.406,2.141c0,1.195-1.16,1.857-2.363,1.857
				c-0.646,0-1.197-0.121-1.721-0.32c-0.039-0.021-0.068-0.062-0.068-0.14v-1.448h0.261c0.112,1.114,0.843,1.559,1.617,1.559
				c0.714,0,1.361-0.543,1.361-1.276c0-0.653-0.352-1.187-1.857-2.18c-0.542-0.361-1.215-0.755-1.215-1.849
				c0-0.906,0.937-1.619,2.092-1.619c0.432,0,1.005,0.052,1.407,0.192c0.061,0.017,0.069,0.062,0.069,0.109v1.315h-0.26V73.186z"/>
			<path fill="#5E6A71" d="M127.748,77.136c0,0.696-0.028,0.656,0.644,0.741v0.191h-2.01v-0.191
				c0.673-0.085,0.644-0.045,0.644-0.741V73.08h-0.606c-0.649,0-0.8,0.412-1.046,0.902h-0.185l0.2-1.143h3.995l0.202,1.143h-0.187
				c-0.247-0.49-0.396-0.902-1.045-0.902h-0.606V77.136z"/>
			<path fill="#5E6A71" d="M130.355,76.337l-0.342,1.001c-0.099,0.293,0.044,0.539,0.374,0.539v0.191h-1.36v-0.191
				c0.201,0,0.418-0.13,0.538-0.375c0.32-0.658,1.193-3.1,1.814-4.751h0.418c0.508,1.502,1.27,3.804,1.523,4.468
				c0.166,0.416,0.284,0.658,0.604,0.658v0.191h-1.739v-0.191c0.472,0,0.518-0.246,0.396-0.576l-0.322-0.964H130.355z
				 M132.165,76.053l-0.792-2.427h-0.016l-0.889,2.427H132.165z"/>
			<path fill="#5E6A71" d="M135.967,77.136c0,0.696-0.028,0.656,0.642,0.741v0.191h-2.01v-0.191
				c0.674-0.085,0.645-0.045,0.645-0.741V73.08h-0.606c-0.649,0-0.798,0.412-1.046,0.902h-0.187l0.203-1.143h3.996l0.201,1.143
				h-0.188c-0.244-0.49-0.393-0.902-1.043-0.902h-0.604v4.056H135.967z"/>
			<path fill="#5E6A71" d="M138.154,77.877c0.676-0.085,0.578-0.045,0.578-0.741v-3.362c0-0.693,0.098-0.656-0.578-0.739V72.84
				h3.272v1.202h-0.194c-0.074-0.551-0.224-0.963-0.76-0.963h-1.019v2.139h0.627c0.471,0,0.672-0.188,0.688-0.651h0.192v1.591
				h-0.192c-0.017-0.441-0.187-0.702-0.688-0.702h-0.627v1.688c0,0.637,0.291,0.689,0.965,0.689c1.082,0,1.029-0.309,1.375-1.107
				h0.193l-0.225,1.344h-3.609L138.154,77.877L138.154,77.877z"/>
		</g>
		<g>
			<path fill="#5E6A71" d="M85.043,77.143c0,0.695-0.029,0.656,0.643,0.738v0.195h-2.009v-0.195
				c0.672-0.082,0.643-0.043,0.643-0.738v-3.361c0-0.692-0.323-0.656-0.995-0.737v-0.192h2.362v0.192
				c-0.672,0.081-0.643,0.045-0.643,0.737v1.294h2.621v-1.294c0-0.692,0.029-0.656-0.643-0.737v-0.192h2.009v0.192
				c-0.671,0.081-0.642,0.045-0.642,0.737v3.361c0,0.695-0.029,0.656,0.642,0.738v0.195h-2.009v-0.195
				c0.672-0.082,0.643-0.043,0.643-0.738V75.38h-2.621L85.043,77.143L85.043,77.143z"/>
			<path fill="#5E6A71" d="M91.22,77.143c0,0.695-0.031,0.656,0.642,0.738v0.195h-2.008v-0.195c0.671-0.082,0.642-0.043,0.642-0.738
				v-3.361c0-0.692,0.03-0.656-0.642-0.737v-0.192h2.008v0.192c-0.672,0.081-0.642,0.045-0.642,0.737V77.143z"/>
			<path fill="#5E6A71" d="M97.427,78.077c-1.187-1.404-2.419-2.876-3.636-4.31v3.303c0,0.154,0.029,0.281,0.045,0.4
				c0.037,0.271,0.29,0.373,0.783,0.41v0.195H92.79v-0.195c0.358-0.037,0.605-0.141,0.644-0.41c0.014-0.119,0.044-0.246,0.044-0.4
				V73.55c-0.21-0.269-0.441-0.507-0.867-0.507v-0.191h1.358c1.113,1.349,2.271,2.724,3.383,4.073h0.015v-3.067
				c0-0.157-0.03-0.284-0.045-0.404c-0.036-0.268-0.292-0.372-0.784-0.409v-0.192h1.83v0.192c-0.351,0.037-0.604,0.142-0.644,0.409
				c-0.015,0.12-0.043,0.247-0.043,0.404v4.22H97.427z"/>
			<path fill="#5E6A71" d="M98.528,75.432c0-1.148,0.971-2.674,2.986-2.674c0.725,0,1.067,0.137,1.434,0.256
				c0.209,0.066,0.292,0.172,0.292,0.291v0.963h-0.194c-0.021-0.599-0.402-1.248-1.59-1.248c-1.561,0-2.067,1.075-2.076,2.354
				c-0.007,1.18,0.591,2.531,2.106,2.531c0.934,0,1.016-0.344,1.016-0.926v-0.455c0-0.695,0.029-0.657-0.792-0.739V75.59h2.158
				v0.193c-0.672,0.082-0.641,0.044-0.641,0.738v1.301c-0.479,0.187-1.106,0.343-1.786,0.343
				C99.91,78.166,98.528,77.434,98.528,75.432z"/>
			<path fill="#5E6A71" d="M106.429,77.143c0,0.695-0.03,0.656,0.642,0.738v0.195h-2.009v-0.195
				c0.671-0.082,0.642-0.043,0.642-0.738v-4.055h-0.604c-0.649,0-0.799,0.408-1.045,0.903h-0.187l0.203-1.142h3.995l0.201,1.142
				h-0.188c-0.246-0.495-0.396-0.903-1.045-0.903h-0.604L106.429,77.143L106.429,77.143z"/>
			<path fill="#5E6A71" d="M108.266,75.559c0-1.613,1.255-2.801,2.808-2.801c1.62,0,2.561,1.396,2.561,2.549
				c0,1.575-1.18,2.858-2.83,2.858C109.378,78.166,108.266,77.009,108.266,75.559z M112.782,75.531c0-1.786-0.962-2.512-1.874-2.512
				c-1.269,0-1.791,1.137-1.791,2.15c0,1.809,0.925,2.734,1.888,2.734C112.395,77.904,112.782,76.531,112.782,75.531z"/>
			<path fill="#5E6A71" d="M118.451,78.077c-1.188-1.404-2.42-2.876-3.637-4.31v3.303c0,0.154,0.028,0.281,0.044,0.4
				c0.038,0.271,0.291,0.373,0.784,0.41v0.195h-1.829v-0.195c0.358-0.037,0.604-0.141,0.643-0.41c0.016-0.119,0.044-0.246,0.044-0.4
				V73.55c-0.208-0.269-0.439-0.507-0.866-0.507v-0.191h1.359c1.112,1.349,2.27,2.724,3.383,4.073h0.015v-3.067
				c0-0.157-0.03-0.284-0.044-0.404c-0.038-0.268-0.291-0.372-0.785-0.409v-0.192h1.829v0.192c-0.351,0.037-0.604,0.142-0.642,0.409
				c-0.015,0.12-0.045,0.247-0.045,0.404v4.22H118.451z"/>
			<path fill="#5E6A71" d="M76.642,71.85v-0.009h-2.021v0.25c0.78,0.009,0.907,0.287,0.702,0.877l-1.528,4.162H73.71l-1.8-5.203
				h-0.456l-1.891,5.203h-0.129l-1.355-4.134c-0.191-0.656,0.077-0.905,0.684-0.905v-0.25h-2.397v0.25
				c0.509,0,0.601,0.397,0.928,1.339l1.74,5.145h0.458l1.861-5.248l1.835,5.251H73.7c0.785-2.087,1.89-5.179,2.296-6.009
				c0.152-0.312,0.425-0.475,0.681-0.475V71.85H76.642z"/>
			<path fill="#5E6A71" d="M82.013,75.27c-0.786-0.588-1.337-0.918-1.337-1.469c0-0.58,0.409-0.816,0.864-0.816
				c0.629,0,0.927,0.439,0.99,0.99h0.204v-1.029c0-0.039-0.008-0.07-0.056-0.086c-0.313-0.109-0.763-0.15-1.1-0.15
				c-0.904,0-1.688,0.559-1.688,1.268c0,0.381,0.105,0.654,0.261,0.864h-0.003c0.003,0.003,0.006,0.007,0.01,0.009
				c0.19,0.254,0.452,0.418,0.683,0.57c1.18,0.778,1.454,1.193,1.454,1.705c0,0.475-0.356,0.952-1.014,1
				c-0.672,0.046-1.537-0.277-1.9-1.223c-0.323-0.904-0.979-2.809-1.425-4.12h-0.433c-0.62,1.649-1.46,4.069-1.782,4.727
				c-0.119,0.246-0.335,0.373-0.537,0.373v0.195h0.322h1.037v-0.195c-0.329,0-0.472-0.246-0.374-0.537l0.344-1.001h1.904l0.32,0.963
				l0.247,0.742c0,0,1.335,0.35,2.204,0.35c0.943,0,1.901-0.519,1.901-1.453C83.112,76.292,82.846,75.891,82.013,75.27z
				 M76.646,76.061l0.889-2.43h0.015l0.792,2.43H76.646z"/>
		</g>
	</g>
	<g>
		<path fill="#5E6A71" d="M66.553,11.948c0.722-0.097,0.757,0.018,0.905-0.678l0.872-4.35c0.142-0.669,0.062-0.599-0.634-0.678
			l0.053-0.229h2.879c1.752,0,2.687,0.924,2.687,2.536c0,1.708-1.349,3.627-3.962,3.627H66.5L66.553,11.948z M69.326,6.261
			l-0.942,4.631c-0.148,0.713-0.113,0.995,1.058,0.995c2.068,0,2.923-1.928,2.923-3.39c0-1.268-0.528-2.236-1.945-2.236H69.326z"/>
		<path fill="#5E6A71" d="M77.035,11.341l-0.934,0.572c-0.414,0.255-0.748,0.37-1.039,0.37c-0.854,0-1.047-0.968-1.047-1.62
			c0-1.444,1.284-2.994,2.729-2.994c0.477,0,0.688,0.264,0.688,0.792c0,0.863-1.137,1.743-2.59,1.391
			c-0.211,0.916-0.009,1.875,0.767,1.875c0.388,0,0.881-0.282,1.312-0.599L77.035,11.341z M76.797,8.294
			c0-0.247-0.157-0.414-0.29-0.414c-0.687,0-1.471,1.118-1.594,1.761C76.463,9.932,76.797,8.814,76.797,8.294z"/>
		<path fill="#5E6A71" d="M78.161,8.928l0.704-0.334l0.256-1.118l0.827-0.352l-0.264,1.109l0.694-0.317
			c0.433-0.211,0.758-0.247,0.925-0.247c0.73,0,0.723,0.889,0.723,1.145c0,2.095-1.62,3.451-3.188,3.363l-0.309,1.488
			c-0.035,0.159-0.053,0.282,0,0.379c0.027,0.053,0.054,0.123,0.73,0.123l-0.053,0.211h-2.21l0.044-0.211
			c0.202,0,0.353,0,0.493-0.053c0.123-0.07,0.176-0.185,0.237-0.449l1.021-4.781l-0.669,0.379L78.161,8.928z M78.927,11.825
			c0.114,0.035,0.257,0.053,0.44,0.053c0.898,0,1.849-1.391,1.849-2.905c0-0.423-0.167-0.828-0.476-0.828
			c-0.299,0-0.739,0.176-1.109,0.387L78.927,11.825z"/>
		<path fill="#5E6A71" d="M86.136,11.173c-0.099,0.414,0.009,0.511,0.308,0.361l0.414-0.203l0.079,0.194l-1.479,0.792
			c-0.148-0.053-0.211-0.176-0.229-0.282c-0.035-0.132,0-0.281,0.104-0.695l0.273-1.057l-0.019-0.018
			c-0.66,1.057-1.654,2.016-2.235,2.016c-0.512,0-0.59-0.695-0.59-1.091c0-1.752,1.145-3.417,3.257-3.417h0.881L86.136,11.173z
			 M85.299,8.145c-1.382,0.035-1.742,1.91-1.726,2.615c0.009,0.308,0.009,0.845,0.423,0.845c0.413,0,1.664-1.241,2.077-3.46H85.299z
			"/>
		<path fill="#5E6A71" d="M87.762,12.177l0.766-3.54c0.044-0.149,0.097-0.361-0.105-0.361c-0.079,0-0.148,0.026-0.229,0.053
			l-0.387,0.124l-0.054-0.167l1.584-0.616c0.178,0.018,0.15,0.176,0.106,0.378l-0.326,1.101h0.019
			c0.606-1.065,1.117-1.479,1.708-1.479l-0.142,0.784l-0.229,0.123c-0.098-0.079-0.211-0.149-0.29-0.149
			c-0.142,0-0.31,0.053-0.423,0.158c-0.36,0.326-0.714,1.242-0.871,1.963l-0.354,1.629L87.762,12.177L87.762,12.177z"/>
		<path fill="#5E6A71" d="M93.896,8.145h-1.029l-0.581,2.685c-0.149,0.757,0.097,0.88,0.36,0.88c0.256,0,0.669-0.123,0.89-0.211
			l0.062,0.255l-1.708,0.528c-0.326,0-0.591-0.414-0.477-0.986l0.695-3.152h-0.774l0.079-0.37h0.783l0.177-0.88
			c0.229-0.097,0.467-0.291,0.644-0.493h0.264l-0.334,1.374h1.294l-0.035,0.176L93.896,8.145z"/>
		<path fill="#5E6A71" d="M95.066,8.638c0.044-0.149,0.097-0.361-0.105-0.361c-0.079,0-0.148,0.026-0.229,0.053l-0.387,0.124
			l-0.054-0.167l1.584-0.616c0.178,0.018,0.15,0.176,0.106,0.378l-0.37,1.567l0.026,0.018c0.439-0.792,1.646-1.963,2.456-1.963
			c0.827,0,0.432,1.004,0.088,1.946l0.019,0.018c0.448-0.81,1.663-1.963,2.396-1.963c0.476,0,0.643,0.264,0.432,1.092l-0.6,2.377
			c-0.054,0.264-0.045,0.432,0.079,0.432c0.062,0,0.158-0.035,0.229-0.07l0.414-0.203l0.07,0.194l-1.472,0.792
			c-0.148-0.053-0.211-0.176-0.236-0.282c-0.026-0.132,0.009-0.282,0.104-0.695l0.599-2.386c0.089-0.308,0.098-0.713-0.201-0.713
			c-0.389,0-1.611,0.995-2.21,3.328l-0.167,0.643h-0.775l0.863-3.258c0.079-0.308,0.088-0.713-0.212-0.713
			c-0.448,0-1.787,0.977-2.308,3.328l-0.141,0.643h-0.783L95.066,8.638z"/>
		<path fill="#5E6A71" d="M105.02,11.341l-0.935,0.572c-0.414,0.255-0.748,0.37-1.039,0.37c-0.854,0-1.047-0.968-1.047-1.62
			c0-1.444,1.285-2.994,2.729-2.994c0.476,0,0.688,0.264,0.688,0.792c0,0.863-1.136,1.743-2.589,1.391
			c-0.211,0.916-0.009,1.875,0.767,1.875c0.388,0,0.881-0.282,1.312-0.599L105.02,11.341z M104.781,8.294
			c0-0.247-0.158-0.414-0.29-0.414c-0.687,0-1.471,1.118-1.594,1.761C104.447,9.932,104.781,8.814,104.781,8.294z"/>
		<path fill="#5E6A71" d="M106.778,8.638c0.035-0.149,0.088-0.361-0.114-0.361c-0.069,0-0.148,0.026-0.229,0.053l-0.388,0.124
			l-0.053-0.167l1.593-0.616c0.168,0.018,0.143,0.176,0.099,0.378l-0.361,1.567l0.018,0.018c0.484-0.819,1.664-1.963,2.482-1.963
			c0.449,0,0.652,0.22,0.449,1.021l-0.616,2.447c-0.062,0.264-0.044,0.432,0.079,0.432c0.062,0,0.159-0.035,0.229-0.07l0.413-0.203
			l0.07,0.194l-1.47,0.792c-0.158-0.053-0.211-0.176-0.238-0.282c-0.026-0.132,0-0.282,0.106-0.695l0.562-2.219
			c0.097-0.387,0.237-0.88-0.124-0.88c-0.757,0-1.989,1.409-2.368,3.319l-0.141,0.651h-0.783L106.778,8.638z"/>
		<path fill="#5E6A71" d="M114.03,8.145h-1.029l-0.581,2.685c-0.149,0.757,0.098,0.88,0.36,0.88c0.256,0,0.669-0.123,0.89-0.211
			l0.062,0.255l-1.708,0.528c-0.326,0-0.59-0.414-0.477-0.986l0.695-3.152h-0.774l0.079-0.37h0.783l0.177-0.88
			c0.229-0.097,0.468-0.291,0.644-0.493h0.264l-0.334,1.374h1.294l-0.035,0.176L114.03,8.145z"/>
		<path fill="#5E6A71" d="M117.127,10.548c0-1.153,0.994-2.879,2.465-2.879c1.172,0,1.427,0.792,1.427,1.585
			c0,0.968-0.774,3.028-2.456,3.028C117.435,12.283,117.127,11.376,117.127,10.548z M120.208,8.832c0-0.916-0.555-0.951-0.694-0.951
			c-0.951,0-1.576,1.708-1.576,2.853c0,0.458,0.079,1.285,0.729,1.285C119.671,12.019,120.208,10.364,120.208,8.832z"/>
		<path fill="#5E6A71" d="M124.942,7.96l-0.211,0.185h-1.153c-0.432,2.095-1.136,4.886-1.638,6.225h-0.396l1.26-6.225h-0.837
			l0.079-0.37h0.828c0.466-1.875,2.017-2.069,2.386-2.069c0.202,0,0.625,0.035,0.758,0.159l-0.105,0.581l-0.22,0.105
			c-0.124-0.238-0.405-0.511-0.775-0.511c-0.527,0-0.924,0.361-1.136,1.312l-0.097,0.422h1.294L124.942,7.96z"/>
		<path fill="#5E6A71" d="M78.661,22.424c-0.713-0.583-2.334-1.318-3.954-1.318c-3.737,0-5.941,2.679-5.941,6.223
			c0,3.824,2.637,6.396,5.941,6.396c1.643,0,2.938-0.519,3.824-1.124l0.821,1.253c-1.017,0.691-2.811,1.383-4.754,1.383
			c-5.401,0-8.146-3.695-8.146-7.865c0-3.803,2.981-7.778,8.405-7.778c2.16,0,3.673,0.756,4.667,1.534L78.661,22.424z"/>
		<path fill="#5E6A71" d="M83.69,25.514l0.777-0.821c0.453-0.454,1.167-0.778,1.62-0.778c0.477,0,1.188,0.346,1.793,1.059
			l-0.886,1.253c-0.475-0.238-0.95-0.454-1.447-0.454c-0.993,0-1.814,0.994-1.814,3.392v5.812h-1.944V24.174h1.901V25.514z"/>
		<path fill="#5E6A71" d="M89.047,20.609c0-0.54,0.453-1.146,1.231-1.146c0.777,0,1.23,0.605,1.23,1.146
			c0,0.583-0.28,1.318-1.23,1.318C89.327,21.927,89.047,21.192,89.047,20.609z M91.251,24.174v10.803h-1.944V24.174H91.251z"/>
		<path fill="#5E6A71" d="M96.845,24.174h2.829v1.124h-2.829v6.115c0,1.512,0.303,2.42,1.49,2.42c0.713,0,1.123-0.173,1.49-0.368
			l0.476,1.081c-0.67,0.432-1.469,0.691-2.203,0.691c-2.16,0-3.197-1.253-3.197-3.457v-6.482h-1.513v-1.124H94.9v-2.593l1.944-0.648
			L96.845,24.174L96.845,24.174z"/>
		<path fill="#5E6A71" d="M101.64,20.609c0-0.54,0.452-1.146,1.23-1.146c0.777,0,1.231,0.605,1.231,1.146
			c0,0.583-0.281,1.318-1.231,1.318C101.92,21.927,101.64,21.192,101.64,20.609z M103.843,24.174v10.803h-1.943V24.174H103.843z"/>
		<path fill="#5E6A71" d="M114.904,34.113c-1.059,0.756-2.333,1.124-3.263,1.124c-5.12,0-5.77-4.192-5.77-5.683
			c0-2.701,1.793-5.639,5.855-5.639c1.102,0,2.096,0.281,2.896,0.886l-0.647,1.102c-0.627-0.302-1.427-0.562-2.227-0.562
			c-1.771,0-3.781,1.167-3.781,4.105c0,2.247,1.146,4.364,3.761,4.364c0.929,0,1.793-0.237,2.636-0.777L114.904,34.113z"/>
		<path fill="#5E6A71" d="M121.491,33.811c-0.756,0.756-1.707,1.426-2.7,1.426c-1.814,0-3.067-1.296-3.067-3.328
			c0-1.879,1.599-3.068,3.846-3.738l2.614-0.821c-0.086-1.318-1.103-2.161-2.16-2.161c-1.253,0-2.053,0.519-2.83,1.167l-0.757-0.972
			c1.08-1.037,2.183-1.469,3.693-1.469c1.621,0,3.998,0.519,3.998,3.673v4.754c0,0.821,0.107,1.858,0.476,2.636h-2.117
			c-0.259-0.454-0.303-1.145-0.303-1.836L121.491,33.811z M120.325,29.187c-1.707,0.519-2.593,1.339-2.593,2.701
			c0,1.124,0.776,1.837,1.556,1.837c1.383,0,3.154-1.707,2.896-5.078L120.325,29.187z"/>
		<path fill="#5E6A71" d="M127.257,34.978V19.097h1.945v15.881H127.257z"/>
		<path fill="#5E6A71" d="M150.243,22.424c-0.713-0.583-2.334-1.318-3.954-1.318c-3.738,0-5.941,2.679-5.941,6.223
			c0,3.824,2.637,6.396,5.941,6.396c1.643,0,2.938-0.519,3.824-1.124l0.821,1.253c-1.017,0.691-2.811,1.383-4.754,1.383
			c-5.401,0-8.146-3.695-8.146-7.865c0-3.803,2.981-7.778,8.405-7.778c2.16,0,3.673,0.756,4.667,1.534L150.243,22.424z"/>
		<path fill="#5E6A71" d="M160.588,33.725c-1.102,0.95-2.073,1.512-3.479,1.512c-2.485,0-3.824-1.383-3.824-4.105v-6.958h1.944
			v6.525c0,2.031,0.863,3.111,2.613,3.111c1.491,0,2.724-1.231,2.724-3.327v-6.309h1.943v10.803h-1.923L160.588,33.725
			L160.588,33.725z"/>
		<path fill="#5E6A71" d="M165.705,34.978V19.097h1.944v15.881H165.705z"/>
		<path fill="#5E6A71" d="M173.244,24.174h2.831v1.124h-2.831v6.115c0,1.512,0.303,2.42,1.491,2.42c0.713,0,1.123-0.173,1.49-0.368
			l0.476,1.081c-0.67,0.432-1.469,0.691-2.204,0.691c-2.16,0-3.197-1.253-3.197-3.457v-6.482h-1.513v-1.124h1.513v-2.593
			l1.944-0.648V24.174z"/>
		<path fill="#5E6A71" d="M185.515,33.725c-1.103,0.95-2.074,1.512-3.479,1.512c-2.484,0-3.824-1.383-3.824-4.105v-6.958h1.944
			v6.525c0,2.031,0.864,3.111,2.614,3.111c1.49,0,2.723-1.231,2.723-3.327v-6.309h1.944v10.803h-1.923L185.515,33.725
			L185.515,33.725z"/>
		<path fill="#5E6A71" d="M192.533,25.514l0.778-0.821c0.453-0.454,1.166-0.778,1.62-0.778c0.476,0,1.188,0.346,1.794,1.059
			l-0.888,1.253c-0.475-0.238-0.949-0.454-1.446-0.454c-0.994,0-1.814,0.994-1.814,3.392v5.812h-1.945V24.174h1.901V25.514z"/>
		<path fill="#5E6A71" d="M199.424,29.706c-0.021,2.161,1.513,4.148,3.651,4.148c0.994,0,2.203-0.367,2.96-0.929l0.562,1.059
			c-1.123,0.8-2.464,1.253-3.588,1.253c-3.369,0-5.596-2.074-5.596-5.877c0-3.738,2.679-5.445,5.121-5.445
			c3.284,0,4.386,2.96,4.17,5.791H199.424z M204.933,28.409c0-1.686-0.713-3.111-2.42-3.111c-2.074,0-2.896,1.729-2.96,3.111
			H204.933z"/>
		<path fill="#5E6A71" d="M206.961,38.305l1.427-3.803c0.562-1.556,0.8-2.031,1.643-2.031c0.475,0,1.556,0.454,0.475,2.269
			l-2.354,4.041L206.961,38.305z"/>
		<path fill="#5E6A71" d="M233.446,28.063v6.158c-1.469,0.519-3.306,1.016-5.229,1.016c-5.38,0-8.146-3.716-8.146-7.865
			c0-3.824,2.98-7.778,8.427-7.778c2.203,0,3.933,0.713,4.84,1.469l-0.863,1.253c-0.907-0.627-2.29-1.21-3.954-1.21
			c-3.934,0-6.138,2.679-6.138,6.223c0,3.824,2.615,6.396,5.898,6.396c1.275,0,2.226-0.13,3.068-0.541v-5.121H233.446z"/>
		<path fill="#5E6A71" d="M237.871,29.706c-0.021,2.161,1.512,4.148,3.651,4.148c0.994,0,2.203-0.367,2.96-0.929l0.562,1.059
			c-1.123,0.8-2.463,1.253-3.587,1.253c-3.37,0-5.596-2.074-5.596-5.877c0-3.738,2.679-5.445,5.121-5.445
			c3.284,0,4.386,2.96,4.17,5.791H237.871z M243.38,28.409c0-1.686-0.713-3.111-2.42-3.111c-2.073,0-2.895,1.729-2.96,3.111H243.38z
			"/>
		<path fill="#5E6A71" d="M249.47,25.514c1.016-1.08,2.57-1.599,3.694-1.599c2.484,0,3.824,1.383,3.824,4.105v6.957h-1.944V28.43
			c0-2.031-0.863-3.09-2.613-3.09c-1.534,0-2.939,1.059-2.939,3.133v6.503h-1.944V24.174h1.924L249.47,25.514L249.47,25.514z"/>
		<path fill="#5E6A71" d="M267.508,33.271h-0.043c-0.757,1.059-1.9,1.966-3.673,1.966c-2.917,0-4.774-2.333-4.774-5.791
			c0-2.809,2.03-5.531,4.99-5.531c1.47,0,2.787,0.562,3.457,1.599h0.043v-6.417h1.944v15.881h-1.944V33.271z M267.508,29.23
			c0-2.031-1.102-3.933-3.22-3.933c-2.246,0-3.176,1.771-3.176,4.062c0,2.312,0.994,4.494,3.047,4.494
			C266.514,33.854,267.508,31.628,267.508,29.23z"/>
		<path fill="#5E6A71" d="M273.445,29.706c-0.022,2.161,1.512,4.148,3.651,4.148c0.993,0,2.202-0.367,2.96-0.929l0.562,1.059
			c-1.123,0.8-2.463,1.253-3.587,1.253c-3.37,0-5.596-2.074-5.596-5.877c0-3.738,2.679-5.445,5.121-5.445
			c3.283,0,4.386,2.96,4.17,5.791H273.445z M278.954,28.409c0-1.686-0.713-3.111-2.42-3.111c-2.074,0-2.895,1.729-2.96,3.111
			H278.954z"/>
		<path fill="#5E6A71" d="M285.022,25.514l0.777-0.821c0.453-0.454,1.167-0.778,1.62-0.778c0.477,0,1.188,0.346,1.793,1.059
			l-0.886,1.253c-0.475-0.238-0.95-0.454-1.447-0.454c-0.993,0-1.814,0.994-1.814,3.392v5.812h-1.944V24.174h1.901V25.514
			L285.022,25.514z"/>
		<path fill="#5E6A71" d="M287.743,38.305l1.426-3.803c0.562-1.556,0.8-2.031,1.644-2.031c0.475,0,1.556,0.454,0.475,2.269
			l-2.354,4.041L287.743,38.305z"/>
		<path fill="#5E6A71" d="M76.757,53.197c0.626-1.274,0.217-3.502-0.627-4.711h-2.116l0.646-1.34h6.482l-0.67,1.34h-2.551
			c0.778,1.254,1.037,3.695,0,5.748l3.307,2.83l-1.923,0.973l-2.464-2.27c-1.167,1.318-2.874,2.27-4.97,2.27
			c-4.71,0-5.38-3.587-5.38-4.516c0-1.987,1.447-3.545,3.241-4.364c-0.843-0.8-1.966-1.837-1.966-3.394
			c0-1.771,1.62-3.371,4.04-3.371c1.146,0,2.139,0.346,3.09,1.037l-0.757,1.211c-0.367-0.238-1.21-0.734-2.14-0.734
			c-1.403,0-2.117,0.799-2.117,1.75c0,0.863,0.54,1.664,2.031,3.025L76.757,53.197z M70.685,50.193
			c-1.361,0.757-1.944,1.88-1.944,3.134c0,1.383,1.08,3.282,3.371,3.282c1.663,0,3.046-0.948,3.673-1.836L70.685,50.193z"/>
		<path fill="#5E6A71" d="M90.534,42.653h4.32c2.464,0,4.387,1.275,4.387,3.889c0,2.226-1.08,3.478-2.528,4.408l3.761,6.438
			l-2.117,0.647l-3.501-6.524H92.63v6.266h-2.096V42.653z M92.63,49.999h1.188c2.68,0,3.177-1.987,3.177-3.263
			c0-1.857-1.167-2.57-2.571-2.57H92.63V49.999z"/>
		<path fill="#5E6A71" d="M107.361,56.609c-0.756,0.758-1.706,1.428-2.7,1.428c-1.814,0-3.068-1.296-3.068-3.327
			c0-1.88,1.6-3.067,3.847-3.737l2.614-0.82c-0.087-1.318-1.103-2.161-2.16-2.161c-1.253,0-2.054,0.519-2.831,1.167l-0.756-0.973
			c1.08-1.037,2.183-1.47,3.694-1.47c1.62,0,3.997,0.519,3.997,3.673v4.754c0,0.82,0.107,1.857,0.476,2.637h-2.117
			c-0.259-0.454-0.303-1.146-0.303-1.838L107.361,56.609z M106.195,51.986c-1.707,0.52-2.593,1.341-2.593,2.701
			c0,1.123,0.776,1.836,1.556,1.836c1.383,0,3.154-1.707,2.896-5.076L106.195,51.986z"/>
		<path fill="#5E6A71" d="M121.424,56.913c-1.059,0.757-2.333,1.124-3.263,1.124c-5.12,0-5.769-4.191-5.769-5.684
			c0-2.701,1.793-5.639,5.854-5.639c1.103,0,2.096,0.281,2.896,0.885l-0.648,1.104c-0.627-0.303-1.426-0.562-2.226-0.562
			c-1.771,0-3.781,1.166-3.781,4.105c0,2.246,1.146,4.363,3.76,4.363c0.93,0,1.793-0.236,2.636-0.777L121.424,56.913z"/>
		<path fill="#5E6A71" d="M124.252,52.505c-0.021,2.161,1.513,4.147,3.651,4.147c0.994,0,2.203-0.366,2.96-0.928l0.562,1.059
			c-1.123,0.799-2.463,1.253-3.587,1.253c-3.37,0-5.596-2.074-5.596-5.877c0-3.737,2.679-5.445,5.121-5.445
			c3.284,0,4.386,2.959,4.17,5.791H124.252z M129.761,51.209c0-1.686-0.714-3.111-2.421-3.111c-2.073,0-2.895,1.729-2.96,3.111
			H129.761z"/>
		<path fill="#5E6A71" d="M147.431,44.986c-0.735-0.541-1.707-1.08-2.615-1.08c-1.512,0-2.354,0.886-2.354,2.052
			c0,1.081,0.93,1.88,2.873,3.284c2.074,1.513,3.284,2.896,3.284,4.84c0,2.398-2.269,3.954-4.688,3.954
			c-1.447,0-3.177-0.519-4.257-1.577l0.93-1.254c0.886,0.627,1.857,1.318,3.284,1.318c1.49,0,2.636-0.799,2.636-2.484
			c0-1.9-2.27-3.133-3.5-4.041c-1.253-0.973-2.657-1.9-2.657-4.04c0-2.031,1.966-3.565,4.321-3.565c1.577,0,2.895,0.562,3.736,1.513
			L147.431,44.986z"/>
		<path fill="#5E6A71" d="M153.108,46.975h2.83v1.123h-2.83v6.114c0,1.513,0.303,2.42,1.491,2.42c0.713,0,1.123-0.173,1.489-0.368
			l0.477,1.082c-0.67,0.432-1.469,0.69-2.204,0.69c-2.16,0-3.197-1.253-3.197-3.457v-6.481h-1.513v-1.123h1.513v-2.594l1.944-0.648
			V46.975z"/>
		<path fill="#5E6A71" d="M165.379,56.523c-1.102,0.951-2.073,1.514-3.479,1.514c-2.485,0-3.824-1.383-3.824-4.104v-6.959h1.944
			v6.524c0,2.03,0.863,3.11,2.613,3.11c1.491,0,2.724-1.229,2.724-3.325v-6.31h1.943v10.803h-1.923L165.379,56.523L165.379,56.523z"
			/>
		<path fill="#5E6A71" d="M178.253,56.07h-0.043c-0.756,1.06-1.9,1.967-3.673,1.967c-2.917,0-4.774-2.333-4.774-5.79
			c0-2.81,2.03-5.532,4.99-5.532c1.47,0,2.787,0.562,3.457,1.598h0.043v-6.417h1.944v15.881h-1.944V56.07z M178.253,52.029
			c0-2.03-1.102-3.932-3.219-3.932c-2.248,0-3.177,1.771-3.177,4.062c0,2.312,0.994,4.494,3.047,4.494
			C177.259,56.654,178.253,54.428,178.253,52.029z"/>
		<path fill="#5E6A71" d="M183.089,43.409c0-0.54,0.453-1.146,1.231-1.146c0.777,0,1.23,0.605,1.23,1.146
			c0,0.583-0.28,1.317-1.23,1.317C183.369,44.727,183.089,43.992,183.089,43.409z M185.292,46.975v10.803h-1.943V46.975H185.292z"/>
		<path fill="#5E6A71" d="M189.764,52.505c-0.022,2.161,1.512,4.147,3.65,4.147c0.994,0,2.203-0.366,2.96-0.928l0.562,1.059
			c-1.123,0.799-2.463,1.253-3.587,1.253c-3.37,0-5.597-2.074-5.597-5.877c0-3.737,2.68-5.445,5.121-5.445
			c3.284,0,4.387,2.959,4.17,5.791H189.764z M195.272,51.209c0-1.686-0.713-3.111-2.42-3.111c-2.074,0-2.896,1.729-2.96,3.111
			H195.272z"/>
		<path fill="#5E6A71" d="M204.518,48.703c-0.778-0.52-1.405-0.691-1.988-0.691c-0.691,0-1.577,0.324-1.577,1.231
			s0.994,1.36,2.227,2.291c1.383,1.059,2.289,1.942,2.289,3.457c0,1.813-1.793,3.046-3.78,3.046c-1.231,0-2.614-0.54-3.327-1.361
			l0.95-1.103c0.627,0.584,1.47,1.081,2.334,1.081c0.906,0,1.837-0.477,1.837-1.534c0-1.253-1.124-1.793-2.141-2.527
			c-1.23-0.887-2.312-1.62-2.312-3.09c0-1.707,1.686-2.788,3.587-2.788c1.059,0,2.096,0.432,2.657,0.995L204.518,48.703z"/>
	</g>
	<rect x="55.545" fill="#5E6A71" width="0.75" height="84.594"/>
	<g>
		<path fill="#5E6A71" d="M36.832,46.625l-4.615,3.29l-4.618-3.29c-3.283-2.246-6.099-4.17-7.572-7.094
			c1.217,5.479,6.574,7.529,12.19,11.924c5.613-4.395,10.972-6.444,12.188-11.924C42.93,42.455,40.115,44.379,36.832,46.625z"/>
		<path fill="#981E32" d="M19.387,19.83v0.574c0.356,0.125,0.473,0.236,0.512,0.76v13.242c0,7.365,5.994,9.314,12.319,14.262
			c6.324-4.947,12.32-6.897,12.32-14.262V21.014c0.047-0.4,0.174-0.498,0.496-0.609V19.83H19.387z"/>
		<g>
			<g>
				<g>
					<path fill="#FFFFFF" d="M34.713,41.391c0,0,1.023-0.438,1.586-2.131c0.494,1.033,0.365,2.094,0.365,2.094
						C36.209,41.455,34.713,41.391,34.713,41.391z"/>
					<path fill="#FFFFFF" d="M40.213,31.701c0,0,0.627,3.406-1.586,3.521c-2.135,0.111-3.141-3.1-3.141-3.1s0.516,6.277,3.508,5.863
						C42.365,37.521,40.213,31.701,40.213,31.701z"/>
				</g>
			</g>
			<path fill="#FFFFFF" d="M23.959,40.582c0-0.002,0.004-0.002,0.004-0.002c2.496-0.568,4.404-3.482,4.97-4.65l0.354-0.74
				l0.215,0.791c0.013,0.043,0.244,0.918,0.244,2.072c0,0.129-0.006,0.26-0.012,0.393c0.861,0.033,1.477-0.141,1.858-0.539
				c0.548-0.566,0.714-1.641,0.507-3.283c-0.099-0.785-0.39-2.037-0.646-3.139c-0.131-0.564-0.256-1.098-0.33-1.477
				c-0.481-2.412,0.115-3.91,0.701-4.74c0.094-0.131,0.193-0.256,0.299-0.373c-1.727,0.582-3.176,1.486-4.668,2.979l1.051,1.219
				l0.431-0.402c0.405,1.516,0.112,2.908,0.112,2.908c-0.553-0.842-1.204-1.525-1.204-1.525l0.284-0.479l-0.946-1.102l-0.109-0.123
				c-1.164,1.602-1.541,2.91-1.541,2.91l0.826,0.756l0.479,0.436L27,32.006c0.888,1.664,0.076,3.219,0.076,3.219
				c-0.145-0.566-0.729-1.404-0.729-1.404l0.229-0.764l-1.229-1.111c-1.279,3.994-2.986,5.289-2.986,5.289s1.848-0.334,2.877-0.68
				C25.238,36.555,25.209,38.66,23.959,40.582z"/>
			<path fill="#FFFFFF" d="M42.615,26.168l-2.953,0.123c0.002,0.35-0.045,0.701-0.156,1.035c0.275,1.205,0.084,1.859,0.084,1.859
				c-0.493-1.15-0.87-1.469-0.87-1.469c-2.712-1.205-4.234,1.518-4.07,3.275c0.133,1.445,0.656,3.361,1.063,6.369
				c0.345,2.529-0.936,3.623-2.409,3.875c-0.031,0.004-0.064,0.012-0.097,0.018c-0.01,0-0.016,0-0.022,0
				c-0.24,0.031-0.492,0.045-0.765,0.039c-0.006-0.002-0.018-0.002-0.024-0.002c-0.031,0-0.06-0.006-0.088-0.006
				c-0.115-0.006-0.229-0.018-0.341-0.031c-1.146-0.16-3.715-0.625-6.364-0.689c1.559-0.912,2.778-2.488,3.459-3.605
				c0.041,0.309,0.071,0.688,0.071,1.104c0,0.207-0.006,0.426-0.026,0.646l-0.025,0.307l0.306,0.025
				c1.221,0.105,2.086-0.127,2.647-0.711c0.693-0.721,0.906-1.922,0.672-3.783c-0.1-0.816-0.396-2.084-0.656-3.201
				c-0.129-0.559-0.252-1.09-0.325-1.457c-0.439-2.201,0.086-3.537,0.602-4.27c0.404-0.574,0.963-0.994,1.574-1.197
				c0.012-0.002,0.022-0.004,0.033-0.006l1.008-3.094h0.315l-0.676,2.975c0.156-0.027,0.314-0.053,0.478-0.078l0.869-2.742h0.313
				l-0.57,2.656c0.9-0.115,1.879-0.207,2.961-0.285c0.177,0.07,0.363,0.271,0.531,0.557l2.842-0.875l0.105,0.307l-2.715,1.053
				c0.021,0.057,0.041,0.113,0.059,0.174l2.971-0.369l0.05,0.318l-2.882,0.576c0.011,0.053,0.021,0.107,0.027,0.16l2.998,0.098
				L42.615,26.168z M34.061,27.494c0.596-0.416,1.606-0.738,2.561-0.666c0.24,0.02,0.443-0.045,0.185-0.182
				c-0.711-0.375-2.367-0.248-2.953,0.152c-0.939,0.641-0.781,1.781-0.761,1.809C33.279,28.281,33.598,27.82,34.061,27.494z"/>
		</g>
	</g>
</g>
</svg>
