<?xml version="1.0" encoding="utf-8"?>
<!-- Generator: Adobe Illustrator 16.0.0, SVG Export Plug-In . SVG Version: 6.00 Build 0)  -->
<!DOCTYPE svg PUBLIC "-//W3C//DTD SVG 1.1//EN" "http://www.w3.org/Graphics/SVG/1.1/DTD/svg11.dtd">
<svg version="1.1" xmlns="http://www.w3.org/2000/svg" xmlns:xlink="http://www.w3.org/1999/xlink" x="0px" y="0px"
	 width="313.91px" height="84.594px" viewBox="0 0 313.91 84.594" enable-background="new 0 0 313.91 84.594" xml:space="preserve">
<g id="Layer_1">
	<g>
		
			<text transform="matrix(1 0 0 1 47.314 88.688)" display="none" fill="#5E6A71" font-family="'StoneSansStd-Medium'" font-size="7.7582">ZVANCOUVER</text>
		<g id="Good_WSU">
			<g>
				<g>
					<path fill="#5E6A71" d="M155.594,75.372c-0.793-0.595-1.346-0.926-1.346-1.479c0-0.586,0.41-0.824,0.869-0.824
						c0.633,0,0.934,0.443,0.996,0.998h0.207V73.03c0-0.04-0.008-0.071-0.055-0.086c-0.318-0.111-0.768-0.15-1.107-0.15
						c-0.91,0-1.701,0.561-1.701,1.273c0,0.384,0.105,0.66,0.262,0.87h-0.004c0.004,0.005,0.01,0.008,0.012,0.01
						c0.191,0.256,0.455,0.419,0.688,0.574c1.186,0.784,1.455,1.203,1.463,1.716c0.023,1.142-2.117,1.743-3.523-0.45l-0.73-1.112
						c0.574-0.225,1.043-0.754,1.043-1.522c0-0.875-0.752-1.269-1.506-1.269h-2.172v0.194c0.67,0.08,0.641,0.044,0.641,0.736v3.36
						c0,0.695,0.029,0.656-0.641,0.739v0.194h2.008v-0.194c-0.672-0.083-0.645-0.044-0.645-0.739v-1.38h0.705
						c0.9,1.499,1.125,2.151,1.58,2.313c0.1,0.035,1.271,0.412,2.1,0.412c0.949,0,1.963-0.523,1.963-1.464
						C156.699,76.4,156.432,75.996,155.594,75.372z M150.975,75.634h-0.623v-2.434h0.576c0.545,0,0.994,0.283,0.994,1.099
						C151.922,75.142,151.623,75.634,150.975,75.634z"/>
					<path fill="#5E6A71" d="M135.957,78.099c0,0,0,0-3.652-4.327v3.314c0,0.156,0.031,0.285,0.045,0.405
						c0.037,0.271,0.293,0.374,0.789,0.413v0.194h-1.84v-0.194c0.363-0.039,0.607-0.143,0.646-0.413
						c0.014-0.12,0.043-0.249,0.043-0.405v-3.532c-0.207-0.27-0.441-0.511-0.867-0.511v-0.195h1.363
						c1.117,1.359,2.281,2.738,3.398,4.097h0.014v-3.084c0-0.157-0.029-0.283-0.045-0.404c-0.037-0.271-0.291-0.374-0.787-0.413
						v-0.195h1.838v0.195c-0.352,0.039-0.607,0.142-0.646,0.413c-0.014,0.121-0.043,0.247-0.043,0.404v4.238H135.957z"/>
					<path fill="#5E6A71" d="M138.904,77.161c0,0.7-0.029,0.661,0.645,0.744v0.194h-2.018v-0.194
						c0.676-0.083,0.645-0.044,0.645-0.744v-3.374c0-0.696,0.031-0.66-0.645-0.743v-0.192h2.018v0.192
						c-0.674,0.083-0.645,0.047-0.645,0.743V77.161z"/>
					<path fill="#5E6A71" d="M148.447,76.75c-0.346,0.803-0.293,1.111-1.379,1.111c-0.676,0-0.969-0.055-0.969-0.691v-1.696h0.631
						c0.502,0,0.676,0.265,0.689,0.707h0.193v-1.6h-0.193c-0.014,0.466-0.217,0.653-0.689,0.653H146.1V73.09h1.189
						c0.539,0,0.691,0.411,0.764,0.967h0.195v-1.206h-3.455h-1.484v0.192c0.508,0,0.705,0.232,0.518,0.706
						c-0.467,1.147-0.924,2.302-1.404,3.449c-0.391-1.139-0.824-2.429-1.115-3.313c-0.25-0.721,0.053-0.842,0.465-0.842v-0.192
						h-1.908v0.192c0.363,0,0.459,0.232,0.738,1.034c0.455,1.277,0.967,2.724,1.426,4.021h0.381
						c0.631-1.537,1.268-3.067,1.896-4.604c0.158-0.377,0.271-0.452,0.488-0.452c0.676,0.083,0.578,0.047,0.578,0.743v3.374
						c0,0.7,0.098,0.661-0.578,0.744v0.194h3.623l0.227-1.35H148.447z"/>
					<path fill="#5E6A71" d="M158.494,77.161c0,0.7-0.031,0.661,0.645,0.744v0.194h-2.018v-0.194
						c0.676-0.083,0.646-0.044,0.646-0.744v-3.374c0-0.696,0.029-0.66-0.646-0.743v-0.192h2.018v0.192
						c-0.676,0.083-0.645,0.047-0.645,0.743V77.161z"/>
					<path fill="#5E6A71" d="M166.166,72.851v0.192c0.441,0,0.682,0.218,0.426,0.676l-1.035,1.884l-0.908-1.884
						c-0.186-0.39-0.238-0.676,0.33-0.676v-0.192h-1.258h-0.52h-3.492l-0.203,1.145h0.188c0.248-0.494,0.396-0.905,1.049-0.905
						h0.609v4.07c0,0.7,0.029,0.661-0.645,0.744v0.194h2.018v-0.194c-0.676-0.083-0.646-0.044-0.646-0.744v-4.07h0.609
						c0.613,0,1.027,0.366,1.279,0.823l1.059,2.095v1.152c0,0.7,0.029,0.661-0.645,0.744v0.194h2.016v-0.194
						c-0.674-0.083-0.645-0.044-0.645-0.744v-0.839c0-0.188,0.016-0.398,0.09-0.547l1.252-2.273c0.203-0.36,0.404-0.458,0.615-0.458
						v-0.192H166.166z"/>
				</g>
				<path fill="#5E6A71" d="M131.15,71.792l-2.363,0.006v0.195c0.475,0.051,0.816,0.259,0.867,0.624
					c0.02,0.16,0.061,0.331,0.061,0.543v2.804c0,1.615-0.727,2.542-2.107,2.542c-1.504,0-1.955-1.079-1.955-2.492v-2.955
					c0-0.938,0.027-0.954,0.936-1.065v-0.195h-2.715v0.195c0.91,0.111,0.869,0.128,0.869,1.065v3.006
					c0,1.826,0.666,2.917,2.812,2.917c1.303,0,2.686-0.807,2.686-2.977v-2.845c0-0.018,0-0.034,0-0.05
					c-0.008-0.876,0.332-1.004,0.904-1.096L131.15,71.792z"/>
			</g>
			<g>
				<path fill="#5E6A71" d="M105.148,73.185c-0.08-0.704-0.462-1.267-1.266-1.267c-0.583,0-1.172,0.303-1.172,1.046
					c0,0.702,0.703,1.124,1.708,1.878c1.064,0.794,1.407,1.307,1.407,2.14c0,1.196-1.16,1.858-2.364,1.858
					c-0.645,0-1.197-0.121-1.72-0.32c-0.039-0.021-0.069-0.062-0.069-0.14v-1.448h0.261c0.112,1.114,0.843,1.558,1.617,1.558
					c0.714,0,1.362-0.543,1.362-1.276c0-0.654-0.352-1.187-1.858-2.18c-0.542-0.361-1.215-0.755-1.215-1.849
					c0-0.906,0.937-1.618,2.092-1.618c0.432,0,1.005,0.051,1.407,0.192c0.061,0.017,0.07,0.061,0.07,0.109v1.316H105.148z"/>
				<path fill="#5E6A71" d="M108.361,77.136c0,0.696-0.029,0.656,0.643,0.741v0.191h-2.009v-0.191
					c0.672-0.085,0.643-0.045,0.643-0.741V73.08h-0.606c-0.65,0-0.8,0.412-1.046,0.903h-0.185l0.2-1.143h3.996l0.202,1.143h-0.187
					c-0.247-0.491-0.396-0.903-1.045-0.903h-0.606V77.136z"/>
				<path fill="#5E6A71" d="M110.968,76.337l-0.342,1.001c-0.098,0.293,0.044,0.539,0.374,0.539v0.191h-1.36v-0.191
					c0.201,0,0.418-0.13,0.538-0.375c0.321-0.658,1.194-3.1,1.815-4.751h0.418c0.507,1.502,1.269,3.804,1.523,4.468
					c0.166,0.416,0.284,0.658,0.604,0.658v0.191h-1.74v-0.191c0.472,0,0.518-0.246,0.397-0.576l-0.322-0.964H110.968z
					 M112.778,76.053l-0.792-2.427h-0.016l-0.888,2.427H112.778z"/>
				<path fill="#5E6A71" d="M116.58,77.136c0,0.696-0.029,0.656,0.641,0.741v0.191h-2.01v-0.191
					c0.674-0.085,0.645-0.045,0.645-0.741V73.08h-0.607c-0.649,0-0.797,0.412-1.045,0.903h-0.187l0.203-1.143h3.996l0.201,1.143
					h-0.188c-0.244-0.491-0.393-0.903-1.043-0.903h-0.605V77.136z"/>
				<path fill="#5E6A71" d="M118.768,77.877c0.676-0.085,0.578-0.045,0.578-0.741v-3.362c0-0.694,0.098-0.657-0.578-0.74V72.84
					h3.273v1.202h-0.195c-0.074-0.551-0.223-0.963-0.76-0.963h-1.018v2.139h0.627c0.471,0,0.672-0.188,0.688-0.651h0.193v1.59
					h-0.193c-0.016-0.441-0.186-0.702-0.688-0.702h-0.627v1.688c0,0.637,0.291,0.689,0.965,0.689c1.082,0,1.029-0.308,1.375-1.107
					h0.193l-0.225,1.344h-3.609V77.877z"/>
			</g>
			<g>
				<path fill="#5E6A71" d="M65.657,77.143c0,0.695-0.03,0.656,0.642,0.738v0.195H64.29v-0.195c0.671-0.082,0.642-0.043,0.642-0.738
					v-3.362c0-0.692-0.323-0.656-0.995-0.737v-0.192h2.362v0.192c-0.672,0.081-0.642,0.045-0.642,0.737v1.294h2.621v-1.294
					c0-0.692,0.029-0.656-0.643-0.737v-0.192h2.009v0.192c-0.671,0.081-0.642,0.045-0.642,0.737v3.362
					c0,0.695-0.029,0.656,0.642,0.738v0.195h-2.009v-0.195c0.672-0.082,0.643-0.043,0.643-0.738V75.38h-2.621V77.143z"/>
				<path fill="#5E6A71" d="M71.833,77.143c0,0.695-0.031,0.656,0.642,0.738v0.195h-2.008v-0.195
					c0.671-0.082,0.642-0.043,0.642-0.738v-3.362c0-0.692,0.03-0.656-0.642-0.737v-0.192h2.008v0.192
					c-0.672,0.081-0.642,0.045-0.642,0.737V77.143z"/>
				<path fill="#5E6A71" d="M78.041,78.077c-1.187-1.404-2.419-2.876-3.636-4.31v3.303c0,0.154,0.029,0.281,0.045,0.401
					c0.037,0.27,0.29,0.373,0.783,0.41v0.195h-1.829v-0.195c0.358-0.037,0.605-0.141,0.643-0.41c0.014-0.12,0.044-0.247,0.044-0.401
					v-3.52c-0.21-0.269-0.441-0.507-0.867-0.507v-0.192h1.359c1.113,1.349,2.27,2.724,3.382,4.074h0.015v-3.067
					c0-0.158-0.03-0.285-0.045-0.405c-0.036-0.268-0.292-0.372-0.784-0.409v-0.192h1.83v0.192c-0.351,0.037-0.604,0.142-0.644,0.409
					c-0.014,0.12-0.043,0.247-0.043,0.405v4.219H78.041z"/>
				<path fill="#5E6A71" d="M79.142,75.432c0-1.149,0.971-2.674,2.986-2.674c0.725,0,1.068,0.136,1.434,0.256
					c0.209,0.066,0.292,0.171,0.292,0.29v0.964h-0.194c-0.022-0.599-0.403-1.248-1.59-1.248c-1.561,0-2.068,1.075-2.076,2.353
					c-0.007,1.18,0.59,2.532,2.106,2.532c0.934,0,1.016-0.345,1.016-0.926v-0.456c0-0.695,0.029-0.657-0.792-0.739V75.59h2.158
					v0.193c-0.672,0.082-0.641,0.044-0.641,0.739v1.3c-0.479,0.187-1.106,0.343-1.786,0.343
					C80.523,78.166,79.142,77.434,79.142,75.432z"/>
				<path fill="#5E6A71" d="M87.042,77.143c0,0.695-0.03,0.656,0.642,0.738v0.195h-2.009v-0.195
					c0.671-0.082,0.642-0.043,0.642-0.738v-4.055h-0.605c-0.649,0-0.798,0.408-1.045,0.903H84.48l0.203-1.141h3.995l0.201,1.141
					h-0.187c-0.246-0.495-0.396-0.903-1.045-0.903h-0.605V77.143z"/>
				<path fill="#5E6A71" d="M88.879,75.559c0-1.614,1.255-2.801,2.808-2.801c1.62,0,2.561,1.397,2.561,2.548
					c0,1.576-1.18,2.859-2.831,2.859C89.991,78.166,88.879,77.009,88.879,75.559z M93.396,75.531c0-1.786-0.962-2.511-1.874-2.511
					c-1.269,0-1.791,1.136-1.791,2.15c0,1.809,0.925,2.734,1.888,2.734C93.008,77.905,93.396,76.531,93.396,75.531z"/>
				<path fill="#5E6A71" d="M99.064,78.077c-1.188-1.404-2.42-2.876-3.637-4.31v3.303c0,0.154,0.029,0.281,0.044,0.401
					c0.038,0.27,0.291,0.373,0.784,0.41v0.195h-1.829v-0.195c0.359-0.037,0.605-0.141,0.643-0.41
					c0.015-0.12,0.044-0.247,0.044-0.401v-3.52c-0.208-0.269-0.44-0.507-0.866-0.507v-0.192h1.359
					c1.112,1.349,2.269,2.724,3.383,4.074h0.014v-3.067c0-0.158-0.03-0.285-0.044-0.405c-0.038-0.268-0.291-0.372-0.785-0.409
					v-0.192h1.829v0.192c-0.35,0.037-0.604,0.142-0.641,0.409c-0.015,0.12-0.045,0.247-0.045,0.405v4.219H99.064z"/>
				<path fill="#5E6A71" d="M57.255,71.85v-0.009h-2.02v0.25c0.78,0.009,0.907,0.287,0.702,0.877l-1.528,4.162h-0.085l-1.8-5.203
					h-0.456l-1.891,5.203h-0.129l-1.355-4.134c-0.192-0.656,0.077-0.905,0.683-0.905v-0.25h-2.397v0.25
					c0.509,0,0.601,0.397,0.928,1.338l1.74,5.145h0.458l1.861-5.248l1.835,5.251h0.513c0.785-2.087,1.89-5.179,2.296-6.009
					c0.152-0.312,0.425-0.474,0.681-0.474V71.85H57.255z"/>
				<path fill="#5E6A71" d="M62.626,75.27c-0.786-0.589-1.336-0.918-1.336-1.469c0-0.581,0.409-0.817,0.864-0.817
					c0.629,0,0.927,0.44,0.99,0.991h0.204v-1.03c0-0.039-0.008-0.07-0.056-0.086c-0.313-0.109-0.762-0.15-1.099-0.15
					c-0.904,0-1.689,0.558-1.689,1.267c0,0.382,0.106,0.655,0.261,0.865h-0.003c0.003,0.003,0.006,0.006,0.01,0.009
					c0.19,0.254,0.452,0.417,0.683,0.57c1.179,0.778,1.454,1.194,1.454,1.705c0,0.475-0.357,0.952-1.014,1
					c-0.672,0.046-1.537-0.278-1.9-1.222c-0.324-0.905-0.98-2.809-1.425-4.121h-0.433c-0.62,1.65-1.46,4.07-1.782,4.727
					c-0.119,0.246-0.335,0.373-0.537,0.373v0.195h0.322h1.037v-0.195c-0.329,0-0.471-0.246-0.374-0.537l0.344-1.001h1.904
					l0.321,0.963l0.247,0.742c0,0,1.335,0.35,2.204,0.35c0.943,0,1.901-0.519,1.901-1.453C63.726,76.292,63.459,75.891,62.626,75.27
					z M57.26,76.06l0.889-2.429h0.015l0.792,2.429H57.26z"/>
			</g>
		</g>
		<g>
			<path fill="#5E6A71" d="M53.206,7.661h-0.229c0.009-0.995-0.141-1.488-1.382-1.488c-1.902,0-2.888,1.638-2.888,3.53
				c0,1.039,0.466,2.298,1.778,2.298c1.338,0,1.726-0.801,2.201-1.497l0.202,0.07l-0.484,1.259c-0.079,0.202-0.96,0.449-1.937,0.449
				c-1.717,0-2.694-1.294-2.694-2.641c0-2.597,2.271-3.733,3.892-3.733c0.634,0,1.813,0.123,1.761,0.422L53.206,7.661z"/>
			<path fill="#5E6A71" d="M53.995,10.548c0-1.153,0.994-2.879,2.465-2.879c1.171,0,1.426,0.792,1.426,1.585
				c0,0.968-0.774,3.028-2.456,3.028C54.303,12.283,53.995,11.376,53.995,10.548z M57.076,8.832c0-0.916-0.555-0.951-0.695-0.951
				c-0.951,0-1.576,1.708-1.576,2.853c0,0.458,0.079,1.285,0.73,1.285C56.539,12.019,57.076,10.364,57.076,8.832z"/>
			<path fill="#5E6A71" d="M59.707,11.121c-0.053,0.282-0.044,0.449,0.08,0.449c0.062,0,0.158-0.035,0.229-0.07l0.414-0.203
				l0.07,0.194l-1.471,0.792c-0.149-0.053-0.211-0.176-0.237-0.282c-0.026-0.132,0.009-0.282,0.097-0.695l1.013-4.702
				c0.035-0.176,0.097-0.378,0-0.484c-0.07-0.08-0.212-0.08-0.353-0.062l-0.343,0.035L59.25,5.9l1.62-0.194L59.707,11.121z"/>
			<path fill="#5E6A71" d="M62.531,11.121c-0.053,0.282-0.044,0.449,0.08,0.449c0.062,0,0.158-0.035,0.229-0.07l0.414-0.203
				l0.07,0.194l-1.471,0.792c-0.149-0.053-0.211-0.176-0.237-0.282c-0.026-0.132,0.009-0.282,0.097-0.695l1.013-4.702
				c0.035-0.176,0.097-0.378,0-0.484c-0.07-0.08-0.212-0.08-0.353-0.062L62.03,6.093L62.074,5.9l1.62-0.194L62.531,11.121z"/>
			<path fill="#5E6A71" d="M67.275,11.341l-0.934,0.572c-0.414,0.255-0.748,0.37-1.039,0.37c-0.854,0-1.047-0.968-1.047-1.62
				c0-1.444,1.285-2.994,2.729-2.994c0.476,0,0.688,0.264,0.688,0.792c0,0.863-1.136,1.743-2.589,1.391
				c-0.211,0.916-0.009,1.875,0.766,1.875c0.388,0,0.881-0.282,1.312-0.599L67.275,11.341z M67.037,8.294
				c0-0.247-0.158-0.414-0.29-0.414c-0.687,0-1.471,1.118-1.594,1.761C66.703,9.932,67.037,8.814,67.037,8.294z"/>
			<path fill="#5E6A71" d="M71.376,8.083c0.149,0.203,0.176,0.379,0.176,0.528c0,0.705-0.51,1.259-0.845,1.479
				c-0.37,0.229-0.881,0.396-0.881,0.713c0,0.555,1.471,1.039,1.471,1.805c0,1.021-1.224,1.549-2.201,1.549
				c-0.651,0-1.638-0.203-1.638-0.933c0-0.845,1.276-1.312,1.911-1.55c-0.142-0.088-0.309-0.229-0.309-0.405
				c0-0.326,0.484-0.616,0.748-0.898c-0.097-0.009-0.193,0.018-0.281,0.009c-0.52,0.009-0.907-0.361-0.907-0.942
				c0-0.916,0.872-1.77,1.822-1.77c0.212,0,0.423,0.044,0.591,0.132c0.483,0.027,0.994-0.044,1.276-0.132l0.141,0.123l-0.255,0.291
				H71.376z M68.136,12.987c0,0.59,0.599,0.907,1.197,0.907c0.52,0,1.181-0.326,1.181-0.889c0-0.405-0.67-0.933-0.995-1.18
				C68.973,12.01,68.136,12.3,68.136,12.987z M69.897,10.196c0.581,0,0.933-0.863,0.933-1.409c0-0.378-0.097-0.88-0.546-0.88
				c-0.704,0-0.986,0.863-0.986,1.417C69.298,9.721,69.466,10.196,69.897,10.196z"/>
			<path fill="#5E6A71" d="M75.53,11.341l-0.934,0.572c-0.414,0.255-0.748,0.37-1.039,0.37c-0.854,0-1.047-0.968-1.047-1.62
				c0-1.444,1.285-2.994,2.729-2.994c0.476,0,0.688,0.264,0.688,0.792c0,0.863-1.136,1.743-2.589,1.391
				c-0.211,0.916-0.009,1.875,0.766,1.875c0.388,0,0.881-0.282,1.312-0.599L75.53,11.341z M75.292,8.294
				c0-0.247-0.158-0.414-0.29-0.414c-0.687,0-1.471,1.118-1.594,1.761C74.958,9.932,75.292,8.814,75.292,8.294z"/>
			<path fill="#5E6A71" d="M79.216,10.548c0-1.153,0.994-2.879,2.465-2.879c1.171,0,1.426,0.792,1.426,1.585
				c0,0.968-0.774,3.028-2.456,3.028C79.523,12.283,79.216,11.376,79.216,10.548z M82.297,8.832c0-0.916-0.555-0.951-0.695-0.951
				c-0.951,0-1.576,1.708-1.576,2.853c0,0.458,0.079,1.285,0.73,1.285C81.76,12.019,82.297,10.364,82.297,8.832z"/>
			<path fill="#5E6A71" d="M87.032,7.96l-0.211,0.185h-1.153c-0.432,2.095-1.136,4.886-1.638,6.225h-0.396l1.259-6.225h-0.836
				l0.079-0.37h0.828C85.43,5.9,86.979,5.706,87.35,5.706c0.202,0,0.625,0.035,0.757,0.159l-0.105,0.581l-0.22,0.105
				c-0.124-0.238-0.405-0.511-0.775-0.511c-0.528,0-0.924,0.361-1.136,1.312l-0.097,0.422h1.294L87.032,7.96z"/>
			<path fill="#5E6A71" d="M53.699,19.853l5.64,15.125h-2.42l-1.556-4.451h-5.769l-1.621,4.451h-2.031l6.158-15.125H53.699z
				 M54.866,29.014c-0.756-2.096-1.49-4.192-2.247-6.914h-0.043c-0.778,2.722-1.577,4.818-2.398,6.914H54.866z"/>
			<path fill="#5E6A71" d="M70.548,34.589c0,4.126-2.57,5.79-5.487,5.79c-1.6,0-3.198-0.302-4.451-1.08l0.54-1.275
				c1.318,0.756,2.528,0.972,3.867,0.972c2.226,0,3.587-1.426,3.587-4.256v-1.469h-0.043c-0.757,1.059-1.901,1.966-3.608,1.966
				c-2.981,0-4.84-2.333-4.84-5.791c0-2.809,2.074-5.531,5.164-5.531c1.296,0,2.679,0.648,3.284,1.75h0.043v-1.491h1.944V34.589z
				 M68.604,29.23c0-2.031-1.102-3.933-3.22-3.933c-2.246,0-3.176,1.771-3.176,4.062c0,2.312,0.994,4.494,3.047,4.494
				C67.609,33.854,68.604,31.628,68.604,29.23z"/>
			<path fill="#5E6A71" d="M75.168,25.514l0.778-0.821c0.453-0.454,1.166-0.778,1.62-0.778c0.476,0,1.188,0.346,1.794,1.059
				l-0.887,1.253c-0.475-0.238-0.95-0.454-1.447-0.454c-0.994,0-1.814,0.994-1.814,3.392v5.812h-1.945V24.174h1.901V25.514z"/>
			<path fill="#5E6A71" d="M80.524,20.609c0-0.54,0.453-1.146,1.231-1.146c0.777,0,1.231,0.605,1.231,1.146
				c0,0.583-0.281,1.318-1.231,1.318C80.805,21.927,80.524,21.192,80.524,20.609z M82.728,24.174v10.803h-1.944V24.174H82.728z"/>
			<path fill="#5E6A71" d="M94.221,34.113c-1.059,0.756-2.333,1.124-3.263,1.124c-5.12,0-5.769-4.192-5.769-5.683
				c0-2.701,1.793-5.639,5.855-5.639c1.102,0,2.096,0.281,2.896,0.886l-0.648,1.102c-0.627-0.302-1.426-0.562-2.226-0.562
				c-1.771,0-3.781,1.167-3.781,4.105c0,2.247,1.146,4.364,3.76,4.364c0.929,0,1.793-0.237,2.636-0.777L94.221,34.113z"/>
			<path fill="#5E6A71" d="M102.99,33.725c-1.102,0.95-2.074,1.512-3.479,1.512c-2.485,0-3.824-1.383-3.824-4.105v-6.958h1.944
				v6.525c0,2.031,0.864,3.111,2.614,3.111c1.491,0,2.723-1.231,2.723-3.327v-6.309h1.944v10.803h-1.923V33.725z"/>
			<path fill="#5E6A71" d="M108.107,34.978V19.097h1.944v15.881H108.107z"/>
			<path fill="#5E6A71" d="M115.646,24.174h2.831v1.124h-2.831v6.115c0,1.512,0.303,2.42,1.491,2.42c0.713,0,1.123-0.173,1.49-0.368
				l0.476,1.081c-0.67,0.432-1.469,0.691-2.204,0.691c-2.16,0-3.197-1.253-3.197-3.457v-6.482h-1.513v-1.124h1.513v-2.593
				l1.944-0.648V24.174z"/>
			<path fill="#5E6A71" d="M127.917,33.725c-1.102,0.95-2.074,1.512-3.479,1.512c-2.484,0-3.824-1.383-3.824-4.105v-6.958h1.944
				v6.525c0,2.031,0.864,3.111,2.614,3.111c1.491,0,2.723-1.231,2.723-3.327v-6.309h1.944v10.803h-1.923V33.725z"/>
			<path fill="#5E6A71" d="M134.936,25.514l0.778-0.821c0.453-0.454,1.166-0.778,1.62-0.778c0.476,0,1.188,0.346,1.794,1.059
				l-0.887,1.253c-0.475-0.238-0.95-0.454-1.447-0.454c-0.994,0-1.814,0.994-1.814,3.392v5.812h-1.945V24.174h1.901V25.514z"/>
			<path fill="#5E6A71" d="M145.585,33.811c-0.756,0.756-1.707,1.426-2.7,1.426c-1.815,0-3.068-1.296-3.068-3.328
				c0-1.879,1.599-3.068,3.846-3.738l2.614-0.821c-0.086-1.318-1.102-2.161-2.16-2.161c-1.253,0-2.053,0.519-2.83,1.167
				l-0.757-0.972c1.08-1.037,2.183-1.469,3.694-1.469c1.621,0,3.998,0.519,3.998,3.673v4.754c0,0.821,0.107,1.858,0.475,2.636
				h-2.117c-0.259-0.454-0.303-1.145-0.303-1.836L145.585,33.811z M144.419,29.187c-1.707,0.519-2.593,1.339-2.593,2.701
				c0,1.124,0.777,1.837,1.556,1.837c1.383,0,3.154-1.707,2.895-5.078L144.419,29.187z"/>
			<path fill="#5E6A71" d="M151.351,34.978V19.097h1.945v15.881H151.351z"/>
			<path fill="#5E6A71" d="M154.353,38.305l1.426-3.803c0.562-1.556,0.8-2.031,1.643-2.031c0.475,0,1.556,0.454,0.475,2.269
				l-2.354,4.041L154.353,38.305z"/>
			<path fill="#5E6A71" d="M179.823,34.978h-2.097v-7.519h-7.389v7.519h-2.097V19.853h2.097v6.093h7.389v-6.093h2.097V34.978z"/>
			<path fill="#5E6A71" d="M190.017,33.725c-1.102,0.95-2.074,1.512-3.479,1.512c-2.484,0-3.824-1.383-3.824-4.105v-6.958h1.944
				v6.525c0,2.031,0.864,3.111,2.614,3.111c1.491,0,2.723-1.231,2.723-3.327v-6.309h1.944v10.803h-1.923V33.725z"/>
			<path fill="#5E6A71" d="M197.057,25.514c0.886-1.037,2.183-1.599,3.371-1.599c1.707,0,2.766,0.713,3.436,1.599
				c1.037-0.95,2.506-1.599,3.716-1.599c2.398,0,3.608,1.556,3.674,3.846v7.217h-1.945v-6.438c0-1.556-0.389-3.111-2.377-3.111
				c-1.642,0-2.766,0.864-2.766,3.046v6.503h-1.944v-6.438c0-2.031-0.864-3.111-2.441-3.111c-1.642,0-2.7,1.059-2.7,3.133v6.417
				h-1.945V24.174h1.923V25.514z"/>
			<path fill="#5E6A71" d="M219.479,33.811c-0.756,0.756-1.706,1.426-2.7,1.426c-1.815,0-3.068-1.296-3.068-3.328
				c0-1.879,1.599-3.068,3.846-3.738l2.614-0.821c-0.086-1.318-1.102-2.161-2.16-2.161c-1.253,0-2.053,0.519-2.831,1.167
				l-0.756-0.972c1.08-1.037,2.183-1.469,3.695-1.469c1.62,0,3.997,0.519,3.997,3.673v4.754c0,0.821,0.107,1.858,0.475,2.636h-2.117
				c-0.259-0.454-0.303-1.145-0.303-1.836L219.479,33.811z M218.312,29.187c-1.707,0.519-2.593,1.339-2.593,2.701
				c0,1.124,0.777,1.837,1.556,1.837c1.383,0,3.154-1.707,2.895-5.078L218.312,29.187z"/>
			<path fill="#5E6A71" d="M227.167,25.514c1.016-1.08,2.571-1.599,3.695-1.599c2.484,0,3.824,1.383,3.824,4.105v6.957h-1.944
				v-6.547c0-2.031-0.864-3.09-2.614-3.09c-1.534,0-2.939,1.059-2.939,3.133v6.503h-1.944V24.174h1.923V25.514z"/>
			<path fill="#5E6A71" d="M235.741,38.305l1.426-3.803c0.562-1.556,0.8-2.031,1.643-2.031c0.475,0,1.556,0.454,0.475,2.269
				l-2.354,4.041L235.741,38.305z"/>
			<path fill="#5E6A71" d="M57.37,53.197c0.626-1.274,0.216-3.501-0.627-4.71h-2.117l0.647-1.34h6.482l-0.67,1.34h-2.55
				c0.778,1.253,1.037,3.694,0,5.747l3.306,2.831l-1.923,0.972l-2.463-2.269c-1.167,1.318-2.874,2.269-4.97,2.269
				c-4.71,0-5.38-3.587-5.38-4.516c0-1.987,1.447-3.544,3.241-4.364c-0.843-0.8-1.966-1.837-1.966-3.393
				c0-1.772,1.62-3.371,4.04-3.371c1.146,0,2.139,0.346,3.09,1.037l-0.757,1.21c-0.367-0.238-1.21-0.734-2.139-0.734
				c-1.404,0-2.117,0.799-2.117,1.75c0,0.864,0.54,1.664,2.031,3.025L57.37,53.197z M51.298,50.194
				c-1.361,0.756-1.944,1.879-1.944,3.133c0,1.383,1.08,3.283,3.371,3.283c1.663,0,3.046-0.949,3.673-1.836L51.298,50.194z"/>
			<path fill="#5E6A71" d="M84.392,57.778H82.75c-3.284-3.934-8.924-10.717-9.831-12.035h-0.043v12.035h-1.729V42.653h1.555
				c3.328,3.932,8.902,10.544,9.918,12.057h0.043V42.653h1.729V57.778z"/>
			<path fill="#5E6A71" d="M92.834,56.61c-0.756,0.757-1.706,1.427-2.7,1.427c-1.815,0-3.068-1.296-3.068-3.327
				c0-1.88,1.599-3.068,3.846-3.738l2.614-0.82c-0.086-1.318-1.102-2.161-2.16-2.161c-1.253,0-2.053,0.519-2.831,1.167l-0.756-0.973
				c1.08-1.037,2.183-1.469,3.695-1.469c1.62,0,3.997,0.519,3.997,3.672v4.754c0,0.821,0.107,1.858,0.475,2.637h-2.117
				c-0.259-0.454-0.303-1.146-0.303-1.837L92.834,56.61z M91.668,51.987c-1.707,0.519-2.593,1.34-2.593,2.701
				c0,1.123,0.777,1.836,1.556,1.836c1.383,0,3.154-1.707,2.895-5.077L91.668,51.987z"/>
			<path fill="#5E6A71" d="M100.674,46.974h2.831v1.124h-2.831v6.114c0,1.513,0.303,2.42,1.491,2.42c0.713,0,1.123-0.173,1.49-0.368
				l0.476,1.081c-0.67,0.433-1.469,0.691-2.204,0.691c-2.16,0-3.197-1.253-3.197-3.457v-6.481h-1.513v-1.124h1.513v-2.593
				l1.944-0.648V46.974z"/>
			<path fill="#5E6A71" d="M112.944,56.524c-1.102,0.951-2.074,1.513-3.479,1.513c-2.484,0-3.824-1.383-3.824-4.104v-6.958h1.944
				v6.524c0,2.031,0.864,3.111,2.614,3.111c1.491,0,2.723-1.23,2.723-3.326v-6.31h1.944v10.804h-1.923V56.524z"/>
			<path fill="#5E6A71" d="M119.963,48.313l0.778-0.82c0.453-0.454,1.166-0.778,1.62-0.778c0.476,0,1.188,0.346,1.794,1.059
				l-0.887,1.253c-0.475-0.237-0.95-0.454-1.447-0.454c-0.994,0-1.814,0.994-1.814,3.393v5.812h-1.945V46.974h1.901V48.313z"/>
			<path fill="#5E6A71" d="M130.612,56.61c-0.756,0.757-1.707,1.427-2.7,1.427c-1.815,0-3.068-1.296-3.068-3.327
				c0-1.88,1.599-3.068,3.846-3.738l2.614-0.82c-0.086-1.318-1.102-2.161-2.16-2.161c-1.253,0-2.053,0.519-2.83,1.167l-0.757-0.973
				c1.08-1.037,2.183-1.469,3.694-1.469c1.621,0,3.998,0.519,3.998,3.672v4.754c0,0.821,0.107,1.858,0.475,2.637h-2.117
				c-0.259-0.454-0.303-1.146-0.303-1.837L130.612,56.61z M129.446,51.987c-1.707,0.519-2.593,1.34-2.593,2.701
				c0,1.123,0.777,1.836,1.556,1.836c1.383,0,3.154-1.707,2.895-5.077L129.446,51.987z"/>
			<path fill="#5E6A71" d="M136.378,57.778V41.896h1.945v15.881H136.378z"/>
			<path fill="#5E6A71" d="M147.935,42.653h4.32c2.464,0,4.387,1.275,4.387,3.889c0,2.226-1.08,3.478-2.528,4.408l3.76,6.439
				l-2.117,0.647l-3.501-6.524h-2.225v6.266h-2.096V42.653z M150.03,49.999h1.188c2.68,0,3.177-1.987,3.177-3.262
				c0-1.858-1.167-2.571-2.571-2.571h-1.793V49.999z"/>
			<path fill="#5E6A71" d="M160.679,52.505c-0.021,2.161,1.512,4.148,3.651,4.148c0.993,0,2.204-0.367,2.96-0.929l0.562,1.059
				c-1.123,0.799-2.463,1.253-3.587,1.253c-3.37,0-5.596-2.074-5.596-5.877c0-3.737,2.68-5.445,5.121-5.445
				c3.284,0,4.386,2.959,4.17,5.791H160.679z M166.188,51.209c0-1.686-0.714-3.111-2.42-3.111c-2.074,0-2.896,1.729-2.961,3.111
				H166.188z"/>
			<path fill="#5E6A71" d="M175.433,48.703c-0.778-0.519-1.404-0.691-1.988-0.691c-0.691,0-1.577,0.324-1.577,1.231
				c0,0.908,0.994,1.361,2.226,2.291c1.383,1.059,2.29,1.943,2.29,3.457c0,1.814-1.793,3.046-3.781,3.046
				c-1.231,0-2.614-0.54-3.327-1.361l0.951-1.103c0.626,0.584,1.469,1.081,2.333,1.081c0.907,0,1.837-0.476,1.837-1.534
				c0-1.253-1.124-1.793-2.14-2.527c-1.231-0.887-2.312-1.621-2.312-3.09c0-1.707,1.686-2.788,3.587-2.788
				c1.059,0,2.096,0.432,2.657,0.995L175.433,48.703z"/>
			<path fill="#5E6A71" d="M178.022,52.247c0-3.5,2.593-5.532,5.315-5.532c2.722,0,5.337,2.032,5.337,5.532
				c0,3.349-2.14,5.79-5.337,5.79C180.161,58.037,178.022,55.595,178.022,52.247z M180.118,52.247c0,2.031,0.691,4.407,3.22,4.407
				c2.55,0,3.241-2.376,3.241-4.407c0-1.945-0.8-4.148-3.241-4.148C180.918,48.098,180.118,50.301,180.118,52.247z"/>
			<path fill="#5E6A71" d="M198.351,56.524c-1.102,0.951-2.074,1.513-3.479,1.513c-2.484,0-3.824-1.383-3.824-4.104v-6.958h1.944
				v6.524c0,2.031,0.864,3.111,2.614,3.111c1.491,0,2.723-1.23,2.723-3.326v-6.31h1.944v10.804h-1.923V56.524z"/>
			<path fill="#5E6A71" d="M205.369,48.313l0.778-0.82c0.453-0.454,1.166-0.778,1.62-0.778c0.476,0,1.188,0.346,1.794,1.059
				l-0.887,1.253c-0.475-0.237-0.95-0.454-1.447-0.454c-0.994,0-1.814,0.994-1.814,3.393v5.812h-1.945V46.974h1.901V48.313z"/>
			<path fill="#5E6A71" d="M218.893,56.913c-1.059,0.757-2.333,1.124-3.263,1.124c-5.12,0-5.769-4.192-5.769-5.683
				c0-2.701,1.793-5.639,5.855-5.639c1.102,0,2.096,0.281,2.896,0.885l-0.648,1.103c-0.627-0.302-1.426-0.562-2.226-0.562
				c-1.771,0-3.781,1.166-3.781,4.105c0,2.246,1.146,4.363,3.76,4.363c0.929,0,1.793-0.236,2.636-0.777L218.893,56.913z"/>
			<path fill="#5E6A71" d="M221.721,52.505c-0.022,2.161,1.512,4.148,3.651,4.148c0.994,0,2.203-0.367,2.96-0.929l0.562,1.059
				c-1.123,0.799-2.463,1.253-3.587,1.253c-3.37,0-5.596-2.074-5.596-5.877c0-3.737,2.679-5.445,5.121-5.445
				c3.284,0,4.386,2.959,4.17,5.791H221.721z M227.229,51.209c0-1.686-0.713-3.111-2.42-3.111c-2.074,0-2.895,1.729-2.96,3.111
				H227.229z"/>
			<path fill="#5E6A71" d="M244.899,44.986c-0.735-0.54-1.707-1.08-2.615-1.08c-1.512,0-2.354,0.886-2.354,2.052
				c0,1.081,0.929,1.88,2.873,3.284c2.074,1.513,3.284,2.896,3.284,4.84c0,2.398-2.269,3.954-4.688,3.954
				c-1.447,0-3.176-0.519-4.256-1.577l0.929-1.254c0.886,0.627,1.858,1.318,3.284,1.318c1.491,0,2.636-0.799,2.636-2.484
				c0-1.901-2.269-3.133-3.5-4.041c-1.253-0.972-2.657-1.9-2.657-4.04c0-2.031,1.966-3.565,4.321-3.565
				c1.577,0,2.895,0.562,3.737,1.513L244.899,44.986z"/>
			<path fill="#5E6A71" d="M256.692,56.913c-1.059,0.757-2.333,1.124-3.263,1.124c-5.12,0-5.769-4.192-5.769-5.683
				c0-2.701,1.793-5.639,5.855-5.639c1.102,0,2.096,0.281,2.896,0.885l-0.648,1.103c-0.627-0.302-1.426-0.562-2.226-0.562
				c-1.771,0-3.781,1.166-3.781,4.105c0,2.246,1.146,4.363,3.76,4.363c0.929,0,1.793-0.236,2.636-0.777L256.692,56.913z"/>
			<path fill="#5E6A71" d="M258.526,43.409c0-0.54,0.453-1.146,1.231-1.146c0.777,0,1.231,0.605,1.231,1.146
				c0,0.583-0.281,1.318-1.231,1.318C258.807,44.727,258.526,43.992,258.526,43.409z M260.729,46.974v10.804h-1.944V46.974H260.729z
				"/>
			<path fill="#5E6A71" d="M265.201,52.505c-0.022,2.161,1.512,4.148,3.651,4.148c0.994,0,2.203-0.367,2.96-0.929l0.562,1.059
				c-1.123,0.799-2.463,1.253-3.587,1.253c-3.37,0-5.596-2.074-5.596-5.877c0-3.737,2.679-5.445,5.121-5.445
				c3.284,0,4.386,2.959,4.17,5.791H265.201z M270.71,51.209c0-1.686-0.713-3.111-2.42-3.111c-2.074,0-2.895,1.729-2.96,3.111
				H270.71z"/>
			<path fill="#5E6A71" d="M276.8,48.313c1.016-1.08,2.571-1.598,3.695-1.598c2.484,0,3.824,1.383,3.824,4.106v6.957h-1.944v-6.547
				c0-2.031-0.864-3.09-2.614-3.09c-1.534,0-2.939,1.059-2.939,3.133v6.504h-1.944V46.974h1.923V48.313z"/>
			<path fill="#5E6A71" d="M295.378,56.913c-1.059,0.757-2.333,1.124-3.263,1.124c-5.12,0-5.769-4.192-5.769-5.683
				c0-2.701,1.793-5.639,5.855-5.639c1.102,0,2.096,0.281,2.896,0.885l-0.648,1.103c-0.627-0.302-1.426-0.562-2.226-0.562
				c-1.771,0-3.781,1.166-3.781,4.105c0,2.246,1.146,4.363,3.76,4.363c0.929,0,1.793-0.236,2.636-0.777L295.378,56.913z"/>
			<path fill="#5E6A71" d="M298.206,52.505c-0.021,2.161,1.512,4.148,3.651,4.148c0.993,0,2.204-0.367,2.96-0.929l0.562,1.059
				c-1.123,0.799-2.463,1.253-3.587,1.253c-3.37,0-5.596-2.074-5.596-5.877c0-3.737,2.68-5.445,5.121-5.445
				c3.284,0,4.386,2.959,4.17,5.791H298.206z M303.716,51.209c0-1.686-0.714-3.111-2.42-3.111c-2.074,0-2.896,1.729-2.961,3.111
				H303.716z"/>
			<path fill="#5E6A71" d="M312.96,48.703c-0.778-0.519-1.404-0.691-1.988-0.691c-0.691,0-1.577,0.324-1.577,1.231
				c0,0.908,0.994,1.361,2.226,2.291c1.383,1.059,2.29,1.943,2.29,3.457c0,1.814-1.793,3.046-3.781,3.046
				c-1.231,0-2.614-0.54-3.327-1.361l0.951-1.103c0.626,0.584,1.469,1.081,2.333,1.081c0.907,0,1.837-0.476,1.837-1.534
				c0-1.253-1.124-1.793-2.14-2.527c-1.231-0.887-2.312-1.621-2.312-3.09c0-1.707,1.686-2.788,3.587-2.788
				c1.059,0,2.096,0.432,2.657,0.995L312.96,48.703z"/>
		</g>
		<rect x="36.158" fill="#5E6A71" width="0.75" height="84.594"/>
		<g>
			<path fill="#5E6A71" d="M17.445,46.625l-4.615,3.29l-4.619-3.29c-3.283-2.246-6.098-4.17-7.572-7.094
				c1.217,5.48,6.574,7.529,12.191,11.924c5.613-4.395,10.971-6.444,12.188-11.924C23.543,42.455,20.729,44.379,17.445,46.625z"/>
			<path fill="#981E32" d="M0,19.83v0.574c0.357,0.125,0.473,0.236,0.512,0.76v13.242c0,7.365,5.994,9.314,12.32,14.262
				c6.324-4.948,12.32-6.897,12.32-14.262V21.014c0.047-0.4,0.174-0.498,0.496-0.609V19.83H0z"/>
			<g>
				<g>
					<g>
						<path fill="#FFFFFF" d="M15.326,41.391c0,0,1.023-0.438,1.586-2.131c0.494,1.033,0.365,2.094,0.365,2.094
							C16.822,41.455,15.326,41.391,15.326,41.391z"/>
						<path fill="#FFFFFF" d="M20.826,31.701c0,0,0.627,3.406-1.586,3.521c-2.135,0.111-3.141-3.1-3.141-3.1
							s0.516,6.277,3.508,5.863C22.979,37.521,20.826,31.701,20.826,31.701z"/>
					</g>
				</g>
				<path fill="#FFFFFF" d="M4.572,40.582c0-0.002,0.004-0.002,0.004-0.002c2.496-0.568,4.404-3.482,4.969-4.65l0.355-0.74
					l0.215,0.791c0.012,0.043,0.244,0.918,0.244,2.072c0,0.129-0.006,0.26-0.012,0.393c0.861,0.033,1.477-0.141,1.859-0.539
					c0.547-0.566,0.713-1.641,0.506-3.283c-0.098-0.785-0.389-2.037-0.646-3.139c-0.131-0.564-0.256-1.098-0.33-1.477
					c-0.482-2.412,0.115-3.91,0.701-4.74c0.094-0.131,0.193-0.256,0.299-0.373c-1.727,0.582-3.176,1.486-4.668,2.979l1.051,1.219
					l0.43-0.402c0.406,1.516,0.113,2.908,0.113,2.908c-0.553-0.842-1.205-1.525-1.205-1.525l0.285-0.479l-0.947-1.102l-0.109-0.123
					c-1.164,1.602-1.541,2.91-1.541,2.91l0.826,0.756l0.48,0.436l0.162-0.465c0.887,1.664,0.076,3.219,0.076,3.219
					c-0.145-0.566-0.73-1.404-0.73-1.404l0.23-0.764l-1.229-1.111c-1.279,3.994-2.986,5.289-2.986,5.289s1.848-0.334,2.877-0.68
					C5.852,36.555,5.822,38.66,4.572,40.582z"/>
				<path fill="#FFFFFF" d="M23.229,26.168l-2.953,0.123c0.002,0.35-0.045,0.701-0.156,1.035c0.275,1.205,0.084,1.859,0.084,1.859
					c-0.494-1.15-0.871-1.469-0.871-1.469c-2.711-1.205-4.234,1.518-4.07,3.275c0.133,1.445,0.656,3.361,1.064,6.369
					c0.344,2.529-0.936,3.623-2.41,3.875c-0.031,0.004-0.064,0.012-0.096,0.018c-0.01,0-0.016,0-0.023,0
					c-0.24,0.031-0.492,0.045-0.764,0.039c-0.006-0.002-0.018-0.002-0.025-0.002c-0.031,0-0.059-0.006-0.088-0.006
					c-0.115-0.006-0.229-0.018-0.34-0.031c-1.146-0.16-3.715-0.625-6.365-0.689c1.559-0.912,2.779-2.488,3.459-3.605
					c0.041,0.309,0.072,0.688,0.072,1.104c0,0.207-0.006,0.426-0.027,0.646l-0.025,0.307l0.305,0.025
					c1.221,0.105,2.086-0.127,2.648-0.711c0.693-0.721,0.906-1.922,0.672-3.783c-0.1-0.816-0.396-2.084-0.656-3.201
					c-0.129-0.559-0.252-1.09-0.326-1.457c-0.439-2.201,0.086-3.537,0.602-4.27c0.404-0.574,0.963-0.994,1.574-1.197
					c0.012-0.002,0.023-0.004,0.033-0.006l1.008-3.094h0.316l-0.676,2.975c0.156-0.027,0.314-0.053,0.477-0.078l0.869-2.742h0.314
					l-0.57,2.656c0.9-0.115,1.879-0.207,2.961-0.285c0.176,0.07,0.363,0.271,0.531,0.557l2.842-0.875l0.105,0.307l-2.715,1.053
					c0.021,0.057,0.041,0.113,0.059,0.174l2.971-0.369l0.049,0.318l-2.881,0.576c0.01,0.053,0.02,0.107,0.027,0.16l2.998,0.098
					L23.229,26.168z M14.674,27.494c0.596-0.416,1.607-0.738,2.561-0.666c0.24,0.02,0.443-0.045,0.184-0.182
					c-0.711-0.375-2.367-0.248-2.953,0.152c-0.939,0.641-0.781,1.781-0.76,1.809C13.893,28.281,14.211,27.82,14.674,27.494z"/>
			</g>
		</g>
	</g>
</g>
<g id="Guides_and_measurements" display="none">
	<rect x="45.529" y="78.586" display="inline" width="6" height="6"/>
	<rect x="43.654" y="0.016" display="inline" width="6" height="6"/>
	<rect x="36.908" y="21.872" display="inline" width="10.99" height="10.99"/>
	<rect x="25.161" y="21.872" display="inline" width="10.99" height="10.99"/>
</g>
</svg>
