<?xml version="1.0" encoding="utf-8"?>
<!-- Generator: Adobe Illustrator 16.0.0, SVG Export Plug-In . SVG Version: 6.00 Build 0)  -->
<!DOCTYPE svg PUBLIC "-//W3C//DTD SVG 1.1//EN" "http://www.w3.org/Graphics/SVG/1.1/DTD/svg11.dtd">
<svg version="1.1" id="Layer_1" xmlns="http://www.w3.org/2000/svg" xmlns:xlink="http://www.w3.org/1999/xlink" x="0px" y="0px"
	 width="300.133px" height="70.749px" viewBox="0 0 300.133 70.749" enable-background="new 0 0 300.133 70.749"
	 xml:space="preserve">
<g>
	
		<text transform="matrix(1 0 0 1 47.314 74.8501)" display="none" fill="#5E6A71" font-family="'StoneSansStd-Medium'" font-size="7.7582">ZVANCOUVER</text>
	<g id="Good_WSU">
		<g>
			<g>
				<path fill="#5E6A71" d="M155.594,61.535c-0.793-0.595-1.346-0.926-1.346-1.479c0-0.586,0.41-0.824,0.869-0.824
					c0.633,0,0.934,0.443,0.996,0.998h0.207v-1.037c0-0.04-0.008-0.071-0.055-0.086c-0.318-0.111-0.768-0.15-1.107-0.15
					c-0.91,0-1.701,0.561-1.701,1.273c0,0.384,0.105,0.66,0.262,0.87h-0.004c0.004,0.005,0.01,0.008,0.012,0.01
					c0.191,0.256,0.455,0.419,0.688,0.574c1.186,0.784,1.455,1.203,1.463,1.716c0.023,1.142-2.117,1.743-3.523-0.45l-0.73-1.112
					c0.574-0.225,1.043-0.754,1.043-1.522c0-0.875-0.752-1.269-1.506-1.269h-2.172v0.194c0.67,0.08,0.641,0.044,0.641,0.736v3.36
					c0,0.695,0.029,0.656-0.641,0.739v0.194h2.008v-0.194c-0.672-0.083-0.645-0.044-0.645-0.739v-1.38h0.705
					c0.9,1.499,1.125,2.151,1.58,2.313c0.1,0.035,1.271,0.412,2.1,0.412c0.949,0,1.963-0.523,1.963-1.464
					C156.699,62.563,156.432,62.159,155.594,61.535z M150.975,61.797h-0.623v-2.434h0.576c0.545,0,0.994,0.283,0.994,1.099
					C151.922,61.305,151.623,61.797,150.975,61.797z"/>
				<path fill="#5E6A71" d="M135.957,64.262c0,0,0,0-3.652-4.327v3.314c0,0.156,0.031,0.285,0.045,0.405
					c0.037,0.271,0.293,0.374,0.789,0.413v0.194h-1.84v-0.194c0.363-0.039,0.607-0.143,0.646-0.413
					c0.014-0.12,0.043-0.249,0.043-0.405v-3.532c-0.207-0.27-0.441-0.511-0.867-0.511v-0.195h1.363
					c1.117,1.359,2.281,2.738,3.398,4.097h0.014v-3.084c0-0.157-0.029-0.283-0.045-0.404c-0.037-0.271-0.291-0.374-0.787-0.413
					v-0.195h1.838v0.195c-0.352,0.039-0.607,0.142-0.646,0.413c-0.014,0.121-0.043,0.247-0.043,0.404v4.238H135.957z"/>
				<path fill="#5E6A71" d="M138.904,63.324c0,0.7-0.029,0.661,0.645,0.744v0.194h-2.018v-0.194
					c0.676-0.083,0.645-0.044,0.645-0.744V59.95c0-0.696,0.031-0.66-0.645-0.743v-0.192h2.018v0.192
					c-0.674,0.083-0.645,0.047-0.645,0.743V63.324z"/>
				<path fill="#5E6A71" d="M148.447,62.913c-0.346,0.803-0.293,1.111-1.379,1.111c-0.676,0-0.969-0.055-0.969-0.691v-1.696h0.631
					c0.502,0,0.676,0.265,0.689,0.707h0.193v-1.6h-0.193c-0.014,0.466-0.217,0.653-0.689,0.653H146.1v-2.144h1.189
					c0.539,0,0.691,0.411,0.764,0.967h0.195v-1.206h-3.455h-1.484v0.192c0.508,0,0.705,0.232,0.518,0.706
					c-0.467,1.147-0.924,2.302-1.404,3.449c-0.391-1.139-0.824-2.429-1.115-3.313c-0.25-0.721,0.053-0.842,0.465-0.842v-0.192
					h-1.908v0.192c0.363,0,0.459,0.232,0.738,1.034c0.455,1.277,0.967,2.724,1.426,4.021h0.381c0.631-1.537,1.268-3.067,1.896-4.604
					c0.158-0.377,0.271-0.452,0.488-0.452c0.676,0.083,0.578,0.047,0.578,0.743v3.374c0,0.7,0.098,0.661-0.578,0.744v0.194h3.623
					l0.227-1.35H148.447z"/>
				<path fill="#5E6A71" d="M158.494,63.324c0,0.7-0.031,0.661,0.645,0.744v0.194h-2.018v-0.194
					c0.676-0.083,0.646-0.044,0.646-0.744V59.95c0-0.696,0.029-0.66-0.646-0.743v-0.192h2.018v0.192
					c-0.676,0.083-0.645,0.047-0.645,0.743V63.324z"/>
				<path fill="#5E6A71" d="M166.166,59.014v0.192c0.441,0,0.682,0.218,0.426,0.676l-1.035,1.884l-0.908-1.884
					c-0.186-0.39-0.238-0.676,0.33-0.676v-0.192h-1.258h-0.52h-3.492l-0.203,1.145h0.188c0.248-0.494,0.396-0.905,1.049-0.905h0.609
					v4.07c0,0.7,0.029,0.661-0.645,0.744v0.194h2.018v-0.194c-0.676-0.083-0.646-0.044-0.646-0.744v-4.07h0.609
					c0.613,0,1.027,0.366,1.279,0.823l1.059,2.095v1.152c0,0.7,0.029,0.661-0.645,0.744v0.194h2.016v-0.194
					c-0.674-0.083-0.645-0.044-0.645-0.744v-0.839c0-0.188,0.016-0.398,0.09-0.547l1.252-2.273c0.203-0.36,0.404-0.458,0.615-0.458
					v-0.192H166.166z"/>
			</g>
			<path fill="#5E6A71" d="M131.15,57.956l-2.363,0.006v0.195c0.475,0.051,0.816,0.259,0.867,0.624
				c0.02,0.16,0.061,0.331,0.061,0.543v2.804c0,1.615-0.727,2.542-2.107,2.542c-1.504,0-1.955-1.079-1.955-2.492v-2.955
				c0-0.938,0.027-0.954,0.936-1.065v-0.195h-2.715v0.195c0.91,0.111,0.869,0.128,0.869,1.065v3.006
				c0,1.826,0.666,2.917,2.812,2.917c1.303,0,2.686-0.807,2.686-2.977v-2.845c0-0.018,0-0.034,0-0.05
				c-0.008-0.876,0.332-1.004,0.904-1.096L131.15,57.956z"/>
		</g>
		<g>
			<path fill="#5E6A71" d="M105.148,59.348c-0.08-0.704-0.462-1.267-1.266-1.267c-0.583,0-1.172,0.303-1.172,1.046
				c0,0.702,0.703,1.124,1.708,1.878c1.064,0.794,1.407,1.307,1.407,2.14c0,1.196-1.16,1.858-2.364,1.858
				c-0.645,0-1.197-0.121-1.72-0.32c-0.039-0.021-0.069-0.062-0.069-0.14v-1.448h0.261c0.112,1.114,0.843,1.558,1.617,1.558
				c0.714,0,1.362-0.543,1.362-1.276c0-0.654-0.352-1.187-1.858-2.18c-0.542-0.361-1.215-0.755-1.215-1.849
				c0-0.906,0.937-1.618,2.092-1.618c0.432,0,1.005,0.051,1.407,0.192c0.061,0.017,0.07,0.061,0.07,0.109v1.316H105.148z"/>
			<path fill="#5E6A71" d="M108.361,63.299c0,0.696-0.029,0.656,0.643,0.741v0.191h-2.009v-0.191
				c0.672-0.085,0.643-0.045,0.643-0.741v-4.057h-0.606c-0.65,0-0.8,0.412-1.046,0.903h-0.185l0.2-1.143h3.996l0.202,1.143h-0.187
				c-0.247-0.491-0.396-0.903-1.045-0.903h-0.606V63.299z"/>
			<path fill="#5E6A71" d="M110.968,62.5l-0.342,1.001c-0.098,0.293,0.044,0.539,0.374,0.539v0.191h-1.36v-0.191
				c0.201,0,0.418-0.13,0.538-0.375c0.321-0.658,1.194-3.1,1.815-4.751h0.418c0.507,1.502,1.269,3.804,1.523,4.468
				c0.166,0.416,0.284,0.658,0.604,0.658v0.191h-1.74v-0.191c0.472,0,0.518-0.246,0.397-0.576l-0.322-0.964H110.968z
				 M112.778,62.216l-0.792-2.427h-0.016l-0.888,2.427H112.778z"/>
			<path fill="#5E6A71" d="M116.58,63.299c0,0.696-0.029,0.656,0.641,0.741v0.191h-2.01v-0.191c0.674-0.085,0.645-0.045,0.645-0.741
				v-4.057h-0.607c-0.649,0-0.797,0.412-1.045,0.903h-0.187l0.203-1.143h3.996l0.201,1.143h-0.188
				c-0.244-0.491-0.393-0.903-1.043-0.903h-0.605V63.299z"/>
			<path fill="#5E6A71" d="M118.768,64.041c0.676-0.085,0.578-0.045,0.578-0.741v-3.362c0-0.694,0.098-0.657-0.578-0.74v-0.193
				h3.273v1.202h-0.195c-0.074-0.551-0.223-0.963-0.76-0.963h-1.018v2.139h0.627c0.471,0,0.672-0.188,0.688-0.651h0.193v1.59h-0.193
				c-0.016-0.441-0.186-0.702-0.688-0.702h-0.627v1.688c0,0.637,0.291,0.689,0.965,0.689c1.082,0,1.029-0.308,1.375-1.107h0.193
				l-0.225,1.344h-3.609V64.041z"/>
		</g>
		<g>
			<path fill="#5E6A71" d="M65.657,63.306c0,0.695-0.03,0.656,0.642,0.738v0.195H64.29v-0.195c0.671-0.082,0.642-0.043,0.642-0.738
				v-3.362c0-0.692-0.323-0.656-0.995-0.737v-0.192h2.362v0.192c-0.672,0.081-0.642,0.045-0.642,0.737v1.294h2.621v-1.294
				c0-0.692,0.029-0.656-0.643-0.737v-0.192h2.009v0.192c-0.671,0.081-0.642,0.045-0.642,0.737v3.362
				c0,0.695-0.029,0.656,0.642,0.738v0.195h-2.009v-0.195c0.672-0.082,0.643-0.043,0.643-0.738v-1.763h-2.621V63.306z"/>
			<path fill="#5E6A71" d="M71.833,63.306c0,0.695-0.031,0.656,0.642,0.738v0.195h-2.008v-0.195
				c0.671-0.082,0.642-0.043,0.642-0.738v-3.362c0-0.692,0.03-0.656-0.642-0.737v-0.192h2.008v0.192
				c-0.672,0.081-0.642,0.045-0.642,0.737V63.306z"/>
			<path fill="#5E6A71" d="M78.041,64.24c-1.187-1.404-2.419-2.876-3.636-4.31v3.303c0,0.154,0.029,0.281,0.045,0.401
				c0.037,0.27,0.29,0.373,0.783,0.41v0.195h-1.829v-0.195c0.358-0.037,0.605-0.141,0.643-0.41c0.014-0.12,0.044-0.247,0.044-0.401
				v-3.52c-0.21-0.269-0.441-0.507-0.867-0.507v-0.192h1.359c1.113,1.349,2.27,2.724,3.382,4.074h0.015v-3.067
				c0-0.158-0.03-0.285-0.045-0.405c-0.036-0.268-0.292-0.372-0.784-0.409v-0.192h1.83v0.192c-0.351,0.037-0.604,0.142-0.644,0.409
				c-0.014,0.12-0.043,0.247-0.043,0.405v4.219H78.041z"/>
			<path fill="#5E6A71" d="M79.142,61.595c0-1.149,0.971-2.674,2.986-2.674c0.725,0,1.068,0.136,1.434,0.256
				c0.209,0.066,0.292,0.171,0.292,0.29v0.964h-0.194c-0.022-0.599-0.403-1.248-1.59-1.248c-1.561,0-2.068,1.075-2.076,2.353
				c-0.007,1.18,0.59,2.532,2.106,2.532c0.934,0,1.016-0.345,1.016-0.926v-0.456c0-0.695,0.029-0.657-0.792-0.739v-0.193h2.158
				v0.193c-0.672,0.082-0.641,0.044-0.641,0.739v1.3c-0.479,0.187-1.106,0.343-1.786,0.343
				C80.523,64.329,79.142,63.597,79.142,61.595z"/>
			<path fill="#5E6A71" d="M87.042,63.306c0,0.695-0.03,0.656,0.642,0.738v0.195h-2.009v-0.195c0.671-0.082,0.642-0.043,0.642-0.738
				v-4.055h-0.605c-0.649,0-0.798,0.408-1.045,0.903H84.48l0.203-1.141h3.995l0.201,1.141h-0.187
				c-0.246-0.495-0.396-0.903-1.045-0.903h-0.605V63.306z"/>
			<path fill="#5E6A71" d="M88.879,61.722c0-1.614,1.255-2.801,2.808-2.801c1.62,0,2.561,1.397,2.561,2.548
				c0,1.576-1.18,2.859-2.831,2.859C89.991,64.329,88.879,63.172,88.879,61.722z M93.396,61.694c0-1.786-0.962-2.511-1.874-2.511
				c-1.269,0-1.791,1.136-1.791,2.15c0,1.809,0.925,2.734,1.888,2.734C93.008,64.068,93.396,62.694,93.396,61.694z"/>
			<path fill="#5E6A71" d="M99.064,64.24c-1.188-1.404-2.42-2.876-3.637-4.31v3.303c0,0.154,0.029,0.281,0.044,0.401
				c0.038,0.27,0.291,0.373,0.784,0.41v0.195h-1.829v-0.195c0.359-0.037,0.605-0.141,0.643-0.41c0.015-0.12,0.044-0.247,0.044-0.401
				v-3.52c-0.208-0.269-0.44-0.507-0.866-0.507v-0.192h1.359c1.112,1.349,2.269,2.724,3.383,4.074h0.014v-3.067
				c0-0.158-0.03-0.285-0.044-0.405c-0.038-0.268-0.291-0.372-0.785-0.409v-0.192h1.829v0.192c-0.35,0.037-0.604,0.142-0.641,0.409
				c-0.015,0.12-0.045,0.247-0.045,0.405v4.219H99.064z"/>
			<path fill="#5E6A71" d="M57.255,58.013v-0.009h-2.02v0.25c0.78,0.009,0.907,0.287,0.702,0.877l-1.528,4.162h-0.085l-1.8-5.203
				h-0.456l-1.891,5.203h-0.129l-1.355-4.134c-0.192-0.656,0.077-0.905,0.683-0.905v-0.25h-2.397v0.25
				c0.509,0,0.601,0.397,0.928,1.338l1.74,5.145h0.458l1.861-5.248l1.835,5.251h0.513c0.785-2.087,1.89-5.179,2.296-6.009
				c0.152-0.312,0.425-0.474,0.681-0.474v-0.244H57.255z"/>
			<path fill="#5E6A71" d="M62.626,61.433c-0.786-0.589-1.336-0.918-1.336-1.469c0-0.581,0.409-0.817,0.864-0.817
				c0.629,0,0.927,0.44,0.99,0.991h0.204v-1.03c0-0.039-0.008-0.07-0.056-0.086c-0.313-0.109-0.762-0.15-1.099-0.15
				c-0.904,0-1.689,0.558-1.689,1.267c0,0.382,0.106,0.655,0.261,0.865h-0.003c0.003,0.003,0.006,0.006,0.01,0.009
				c0.19,0.254,0.452,0.417,0.683,0.57c1.179,0.778,1.454,1.194,1.454,1.705c0,0.475-0.357,0.952-1.014,1
				c-0.672,0.046-1.537-0.278-1.9-1.222c-0.324-0.905-0.98-2.809-1.425-4.121h-0.433c-0.62,1.65-1.46,4.07-1.782,4.727
				c-0.119,0.246-0.335,0.373-0.537,0.373v0.195h0.322h1.037v-0.195c-0.329,0-0.471-0.246-0.374-0.537l0.344-1.001h1.904
				l0.321,0.963l0.247,0.742c0,0,1.335,0.35,2.204,0.35c0.943,0,1.901-0.519,1.901-1.453C63.726,62.456,63.459,62.054,62.626,61.433
				z M57.26,62.223l0.889-2.429h0.015l0.792,2.429H57.26z"/>
		</g>
	</g>
	<g>
		<path fill="#5E6A71" d="M49.853,21.151V7.539h-4.84V6.027H56.81v1.512h-4.861v13.612H49.853z"/>
		<path fill="#5E6A71" d="M60.436,11.688c1.016-1.08,2.571-1.599,3.695-1.599c2.484,0,3.824,1.383,3.824,4.105v6.957h-1.944v-6.547
			c0-2.031-0.864-3.09-2.615-3.09c-1.533,0-2.938,1.059-2.938,3.133v6.503h-1.945V5.271h1.923V11.688z"/>
		<path fill="#5E6A71" d="M72.208,15.879c-0.021,2.161,1.512,4.148,3.651,4.148c0.993,0,2.204-0.367,2.96-0.929l0.562,1.059
			c-1.123,0.8-2.463,1.253-3.587,1.253c-3.37,0-5.596-2.074-5.596-5.877c0-3.738,2.68-5.445,5.121-5.445
			c3.284,0,4.386,2.96,4.17,5.791H72.208z M77.718,14.583c0-1.686-0.714-3.111-2.42-3.111c-2.074,0-2.896,1.729-2.961,3.111H77.718z
			"/>
		<path fill="#5E6A71" d="M95.754,7.539h-5.358v4.883h5.25v1.512h-5.25v5.704h6.287v1.513H88.3V6.027h7.454V7.539z"/>
		<path fill="#5E6A71" d="M106.575,19.444h-0.043c-0.756,1.059-1.901,1.966-3.673,1.966c-2.917,0-4.775-2.333-4.775-5.791
			c0-2.809,2.031-5.531,4.991-5.531c1.469,0,2.787,0.562,3.457,1.599h0.043V5.271h1.944v15.881h-1.944V19.444z M106.575,15.404
			c0-2.031-1.102-3.933-3.219-3.933c-2.248,0-3.177,1.771-3.177,4.062c0,2.312,0.994,4.494,3.047,4.494
			C105.581,20.028,106.575,17.802,106.575,15.404z"/>
		<path fill="#5E6A71" d="M119.211,10.348c1.059,2.571,2.117,5.164,3.154,8.253h0.043c0.843-3.176,1.729-5.812,2.593-8.47
			l1.794,0.303l-3.803,10.717h-1.361c-1.08-2.679-2.183-5.358-3.241-8.427h-0.043c-1.037,3.068-2.096,5.748-3.154,8.427h-1.275
			l-3.737-10.544l1.901-0.476c0.886,2.658,1.793,5.294,2.657,8.47h0.043c1.037-3.089,2.096-5.682,3.155-8.253H119.211z"/>
		<path fill="#5E6A71" d="M133.53,19.984c-0.756,0.756-1.707,1.426-2.7,1.426c-1.815,0-3.068-1.296-3.068-3.328
			c0-1.879,1.599-3.068,3.846-3.738l2.614-0.821c-0.086-1.318-1.102-2.161-2.16-2.161c-1.253,0-2.053,0.519-2.83,1.167l-0.757-0.972
			c1.08-1.037,2.183-1.469,3.694-1.469c1.621,0,3.998,0.519,3.998,3.673v4.754c0,0.821,0.107,1.858,0.475,2.636h-2.117
			c-0.259-0.454-0.303-1.145-0.303-1.836L133.53,19.984z M132.364,15.361c-1.707,0.519-2.593,1.339-2.593,2.701
			c0,1.124,0.777,1.837,1.556,1.837c1.383,0,3.154-1.707,2.895-5.078L132.364,15.361z"/>
		<path fill="#5E6A71" d="M140.765,11.688l0.778-0.821c0.453-0.454,1.167-0.778,1.62-0.778c0.476,0,1.188,0.346,1.793,1.059
			l-0.886,1.253c-0.475-0.238-0.95-0.454-1.447-0.454c-0.994,0-1.815,0.994-1.815,3.392v5.812h-1.944V10.348h1.901V11.688z"/>
		<path fill="#5E6A71" d="M153.705,19.444h-0.043c-0.757,1.059-1.901,1.966-3.673,1.966c-2.917,0-4.775-2.333-4.775-5.791
			c0-2.809,2.031-5.531,4.991-5.531c1.469,0,2.787,0.562,3.457,1.599h0.043V5.271h1.944v15.881h-1.944V19.444z M153.705,15.404
			c0-2.031-1.102-3.933-3.22-3.933c-2.246,0-3.176,1.771-3.176,4.062c0,2.312,0.994,4.494,3.047,4.494
			C152.711,20.028,153.705,17.802,153.705,15.404z"/>
		<path fill="#5E6A71" d="M165.216,6.027h4.32c2.464,0,4.387,1.275,4.387,3.889c0,2.226-1.08,3.479-2.528,4.408l3.76,6.439
			l-2.117,0.648l-3.501-6.525h-2.225v6.266h-2.096V6.027z M167.312,13.373h1.188c2.68,0,3.177-1.988,3.177-3.263
			c0-1.858-1.167-2.571-2.571-2.571h-1.793V13.373z"/>
		<path fill="#5E6A71" d="M178.5,18.645c0.734,0,1.383,0.648,1.383,1.383c0,0.713-0.648,1.383-1.361,1.383
			c-0.756,0-1.404-0.626-1.404-1.383S177.766,18.645,178.5,18.645z"/>
		<path fill="#5E6A71" d="M206.044,21.151h-2.096V8.836h-0.043c-0.604,1.771-4.04,8.448-6.071,12.315h-0.843
			c-1.88-3.868-5.013-10.328-5.596-12.315h-0.043v12.315h-1.729V6.027h2.246c1.945,4.019,3.89,8.059,5.812,12.316
			c2.139-4.257,4.278-8.297,6.396-12.316h1.966V21.151z"/>
		<path fill="#5E6A71" d="M216.237,19.898c-1.102,0.95-2.074,1.512-3.479,1.512c-2.484,0-3.824-1.383-3.824-4.105v-6.958h1.944
			v6.525c0,2.031,0.864,3.111,2.614,3.111c1.491,0,2.723-1.231,2.723-3.327v-6.309h1.944v10.803h-1.923V19.898z"/>
		<path fill="#5E6A71" d="M223.256,11.688l0.778-0.821c0.453-0.454,1.166-0.778,1.62-0.778c0.476,0,1.188,0.346,1.794,1.059
			l-0.887,1.253c-0.475-0.238-0.95-0.454-1.447-0.454c-0.994,0-1.814,0.994-1.814,3.392v5.812h-1.945V10.348h1.901V11.688z"/>
		<path fill="#5E6A71" d="M230.772,11.688l0.778-0.821c0.453-0.454,1.167-0.778,1.62-0.778c0.476,0,1.188,0.346,1.793,1.059
			l-0.886,1.253c-0.475-0.238-0.95-0.454-1.447-0.454c-0.994,0-1.815,0.994-1.815,3.392v5.812h-1.944V10.348h1.901V11.688z"/>
		<path fill="#5E6A71" d="M235.221,15.62c0-3.5,2.593-5.531,5.315-5.531s5.337,2.031,5.337,5.531c0,3.349-2.14,5.791-5.337,5.791
			C237.359,21.411,235.221,18.969,235.221,15.62z M237.316,15.62c0,2.031,0.691,4.408,3.22,4.408c2.549,0,3.24-2.376,3.24-4.408
			c0-1.944-0.799-4.148-3.24-4.148C238.116,11.472,237.316,13.676,237.316,15.62z"/>
		<path fill="#5E6A71" d="M255.441,10.348c1.059,2.571,2.117,5.164,3.154,8.253h0.043c0.843-3.176,1.729-5.812,2.593-8.47
			l1.794,0.303l-3.803,10.717h-1.361c-1.08-2.679-2.183-5.358-3.241-8.427h-0.043c-1.037,3.068-2.096,5.748-3.154,8.427h-1.275
			l-3.737-10.544l1.901-0.476c0.886,2.658,1.793,5.294,2.657,8.47h0.043c1.037-3.089,2.096-5.682,3.155-8.253H255.441z"/>
		<path fill="#5E6A71" d="M58.149,31.398c-0.713-0.583-2.334-1.318-3.954-1.318c-3.738,0-5.942,2.679-5.942,6.223
			c0,3.824,2.637,6.395,5.942,6.395c1.642,0,2.938-0.518,3.824-1.123l0.821,1.253c-1.016,0.691-2.81,1.383-4.754,1.383
			c-5.401,0-8.146-3.694-8.146-7.864c0-3.803,2.981-7.779,8.405-7.779c2.16,0,3.673,0.756,4.667,1.534L58.149,31.398z"/>
		<path fill="#5E6A71" d="M60.003,38.42c0-3.5,2.593-5.532,5.315-5.532c2.722,0,5.337,2.032,5.337,5.532
			c0,3.349-2.14,5.79-5.337,5.79C62.142,44.21,60.003,41.769,60.003,38.42z M62.099,38.42c0,2.031,0.691,4.407,3.22,4.407
			c2.55,0,3.241-2.376,3.241-4.407c0-1.945-0.8-4.148-3.241-4.148C62.898,34.272,62.099,36.475,62.099,38.42z"/>
		<path fill="#5E6A71" d="M72.898,43.952V28.07h1.944v15.881H72.898z"/>
		<path fill="#5E6A71" d="M77.823,43.952V28.07h1.945v15.881H77.823z"/>
		<path fill="#5E6A71" d="M84.022,38.679c-0.021,2.161,1.512,4.148,3.651,4.148c0.993,0,2.204-0.367,2.96-0.929l0.562,1.059
			c-1.123,0.799-2.463,1.253-3.587,1.253c-3.37,0-5.596-2.074-5.596-5.877c0-3.737,2.68-5.445,5.121-5.445
			c3.284,0,4.386,2.959,4.17,5.791H84.022z M89.532,37.383c0-1.686-0.714-3.111-2.42-3.111c-2.074,0-2.896,1.729-2.961,3.111H89.532
			z"/>
		<path fill="#5E6A71" d="M103.399,43.563c0,4.126-2.57,5.789-5.487,5.789c-1.6,0-3.198-0.302-4.451-1.08l0.54-1.274
			c1.318,0.757,2.528,0.972,3.867,0.972c2.226,0,3.587-1.426,3.587-4.256v-1.469h-0.043c-0.757,1.059-1.901,1.966-3.608,1.966
			c-2.981,0-4.84-2.333-4.84-5.79c0-2.809,2.074-5.532,5.164-5.532c1.296,0,2.679,0.648,3.284,1.75h0.043v-1.491h1.944V43.563z
			 M101.455,38.204c0-2.031-1.102-3.932-3.22-3.932c-2.246,0-3.176,1.771-3.176,4.062c0,2.312,0.994,4.494,3.047,4.494
			C100.461,42.828,101.455,40.602,101.455,38.204z"/>
		<path fill="#5E6A71" d="M107.825,38.679c-0.021,2.161,1.512,4.148,3.651,4.148c0.993,0,2.204-0.367,2.96-0.929l0.562,1.059
			c-1.123,0.799-2.463,1.253-3.587,1.253c-3.37,0-5.596-2.074-5.596-5.877c0-3.737,2.68-5.445,5.121-5.445
			c3.284,0,4.386,2.959,4.17,5.791H107.825z M113.335,37.383c0-1.686-0.714-3.111-2.42-3.111c-2.074,0-2.896,1.729-2.961,3.111
			H113.335z"/>
		<path fill="#5E6A71" d="M122.966,38.42c0-3.5,2.593-5.532,5.315-5.532c2.722,0,5.337,2.032,5.337,5.532
			c0,3.349-2.14,5.79-5.337,5.79C125.104,44.21,122.966,41.769,122.966,38.42z M125.062,38.42c0,2.031,0.691,4.407,3.22,4.407
			c2.55,0,3.241-2.376,3.241-4.407c0-1.945-0.8-4.148-3.241-4.148C125.861,34.272,125.062,36.475,125.062,38.42z"/>
		<path fill="#5E6A71" d="M136.186,43.952v-9.68h-1.729v-1.124h1.729V31.83c0-2.896,1.944-3.76,3.154-3.76
			c0.562,0,1.231,0.108,1.707,0.454l-0.433,0.994c-0.323-0.086-0.626-0.151-1.059-0.151c-0.324,0-1.426,0.086-1.426,1.836v1.945
			h2.593v1.124h-2.593v9.68H136.186z"/>
		<path fill="#5E6A71" d="M160.316,31.398c-0.714-0.583-2.334-1.318-3.954-1.318c-3.738,0-5.942,2.679-5.942,6.223
			c0,3.824,2.637,6.395,5.942,6.395c1.642,0,2.938-0.518,3.824-1.123l0.821,1.253c-1.016,0.691-2.81,1.383-4.754,1.383
			c-5.401,0-8.146-3.694-8.146-7.864c0-3.803,2.981-7.779,8.405-7.779c2.16,0,3.673,0.756,4.667,1.534L160.316,31.398z"/>
		<path fill="#5E6A71" d="M162.171,38.42c0-3.5,2.593-5.532,5.315-5.532c2.722,0,5.337,2.032,5.337,5.532
			c0,3.349-2.14,5.79-5.337,5.79C164.31,44.21,162.171,41.769,162.171,38.42z M164.267,38.42c0,2.031,0.691,4.407,3.22,4.407
			c2.55,0,3.241-2.376,3.241-4.407c0-1.945-0.8-4.148-3.241-4.148C165.066,34.272,164.267,36.475,164.267,38.42z"/>
		<path fill="#5E6A71" d="M177.205,34.487c0.886-1.037,2.183-1.598,3.371-1.598c1.707,0,2.766,0.713,3.436,1.598
			c1.037-0.95,2.506-1.598,3.716-1.598c2.398,0,3.608,1.555,3.674,3.846v7.217h-1.945v-6.439c0-1.555-0.389-3.111-2.377-3.111
			c-1.642,0-2.766,0.865-2.766,3.047v6.504h-1.944v-6.439c0-2.031-0.864-3.111-2.441-3.111c-1.642,0-2.7,1.059-2.7,3.133v6.418
			h-1.945V33.148h1.923V34.487z"/>
		<path fill="#5E6A71" d="M196.516,34.487c0.886-1.037,2.183-1.598,3.371-1.598c1.707,0,2.766,0.713,3.436,1.598
			c1.037-0.95,2.506-1.598,3.716-1.598c2.398,0,3.608,1.555,3.674,3.846v7.217h-1.945v-6.439c0-1.555-0.389-3.111-2.377-3.111
			c-1.642,0-2.766,0.865-2.766,3.047v6.504h-1.944v-6.439c0-2.031-0.864-3.111-2.441-3.111c-1.642,0-2.7,1.059-2.7,3.133v6.418
			h-1.945V33.148h1.923V34.487z"/>
		<path fill="#5E6A71" d="M221.12,42.698c-1.102,0.951-2.074,1.513-3.479,1.513c-2.484,0-3.824-1.383-3.824-4.104v-6.958h1.944
			v6.524c0,2.031,0.864,3.111,2.614,3.111c1.491,0,2.723-1.23,2.723-3.326v-6.31h1.944v10.804h-1.923V42.698z"/>
		<path fill="#5E6A71" d="M228.16,34.487c1.016-1.08,2.571-1.598,3.695-1.598c2.484,0,3.824,1.383,3.824,4.106v6.957h-1.944v-6.547
			c0-2.031-0.864-3.09-2.615-3.09c-1.533,0-2.938,1.059-2.938,3.133v6.504h-1.945V33.148h1.923V34.487z"/>
		<path fill="#5E6A71" d="M238.614,29.583c0-0.54,0.453-1.146,1.231-1.146c0.777,0,1.231,0.605,1.231,1.146
			c0,0.583-0.281,1.318-1.231,1.318C238.895,30.901,238.614,30.166,238.614,29.583z M240.817,33.148v10.804h-1.944V33.148H240.817z"
			/>
		<path fill="#5E6A71" d="M252.311,43.086c-1.059,0.757-2.333,1.124-3.263,1.124c-5.12,0-5.769-4.192-5.769-5.683
			c0-2.701,1.793-5.639,5.855-5.639c1.102,0,2.096,0.281,2.896,0.885l-0.648,1.103c-0.627-0.302-1.426-0.562-2.226-0.562
			c-1.771,0-3.781,1.166-3.781,4.105c0,2.246,1.146,4.363,3.76,4.363c0.929,0,1.793-0.236,2.636-0.777L252.311,43.086z"/>
		<path fill="#5E6A71" d="M259.113,42.784c-0.756,0.757-1.706,1.427-2.7,1.427c-1.815,0-3.068-1.296-3.068-3.327
			c0-1.88,1.599-3.068,3.846-3.738l2.614-0.82c-0.086-1.318-1.102-2.161-2.16-2.161c-1.253,0-2.053,0.519-2.831,1.167l-0.756-0.973
			c1.08-1.037,2.183-1.469,3.695-1.469c1.62,0,3.997,0.519,3.997,3.672v4.754c0,0.821,0.107,1.858,0.475,2.637h-2.117
			c-0.259-0.454-0.303-1.146-0.303-1.837L259.113,42.784z M257.947,38.161c-1.707,0.519-2.593,1.34-2.593,2.701
			c0,1.123,0.777,1.836,1.556,1.836c1.383,0,3.154-1.707,2.895-5.077L257.947,38.161z"/>
		<path fill="#5E6A71" d="M266.953,33.148h2.831v1.124h-2.831v6.114c0,1.513,0.303,2.42,1.491,2.42c0.713,0,1.123-0.173,1.49-0.368
			l0.476,1.081c-0.67,0.433-1.469,0.691-2.204,0.691c-2.16,0-3.197-1.253-3.197-3.457v-6.481h-1.513v-1.124h1.513v-2.593
			l1.944-0.648V33.148z"/>
		<path fill="#5E6A71" d="M271.748,29.583c0-0.54,0.453-1.146,1.231-1.146c0.777,0,1.231,0.605,1.231,1.146
			c0,0.583-0.281,1.318-1.231,1.318C272.028,30.901,271.748,30.166,271.748,29.583z M273.952,33.148v10.804h-1.945V33.148H273.952z"
			/>
		<path fill="#5E6A71" d="M276.413,38.42c0-3.5,2.593-5.532,5.315-5.532c2.722,0,5.337,2.032,5.337,5.532
			c0,3.349-2.14,5.79-5.337,5.79C278.552,44.21,276.413,41.769,276.413,38.42z M278.509,38.42c0,2.031,0.691,4.407,3.22,4.407
			c2.55,0,3.241-2.376,3.241-4.407c0-1.945-0.8-4.148-3.241-4.148C279.309,34.272,278.509,36.475,278.509,38.42z"/>
		<path fill="#5E6A71" d="M291.447,34.487c1.016-1.08,2.571-1.598,3.695-1.598c2.484,0,3.824,1.383,3.824,4.106v6.957h-1.944v-6.547
			c0-2.031-0.864-3.09-2.615-3.09c-1.533,0-2.938,1.059-2.938,3.133v6.504h-1.945V33.148h1.923V34.487z"/>
	</g>
	<rect x="36.158" fill="#5E6A71" width="0.75" height="70.749"/>
	<g>
		<path fill="#5E6A71" d="M17.445,32.816l-4.615,3.29l-4.619-3.29c-3.283-2.246-6.098-4.17-7.572-7.094
			c1.217,5.48,6.574,7.529,12.191,11.924c5.613-4.395,10.971-6.444,12.188-11.924C23.543,28.646,20.729,30.57,17.445,32.816z"/>
		<path fill="#981E32" d="M0,6.021v0.574c0.357,0.125,0.473,0.236,0.512,0.76v13.242c0,7.365,5.994,9.314,12.32,14.262
			c6.324-4.948,12.32-6.897,12.32-14.262V7.205c0.047-0.4,0.174-0.498,0.496-0.609V6.021H0z"/>
		<g>
			<g>
				<g>
					<path fill="#FFFFFF" d="M15.326,27.582c0,0,1.023-0.438,1.586-2.131c0.494,1.033,0.365,2.094,0.365,2.094
						C16.822,27.646,15.326,27.582,15.326,27.582z"/>
					<path fill="#FFFFFF" d="M20.826,17.893c0,0,0.627,3.406-1.586,3.521c-2.135,0.111-3.141-3.1-3.141-3.1s0.516,6.277,3.508,5.863
						C22.979,23.713,20.826,17.893,20.826,17.893z"/>
				</g>
			</g>
			<path fill="#FFFFFF" d="M4.572,26.773c0-0.002,0.004-0.002,0.004-0.002c2.496-0.568,4.404-3.482,4.969-4.65l0.355-0.74
				l0.215,0.791c0.012,0.043,0.244,0.918,0.244,2.072c0,0.129-0.006,0.26-0.012,0.393c0.861,0.033,1.477-0.141,1.859-0.539
				c0.547-0.566,0.713-1.641,0.506-3.283c-0.098-0.785-0.389-2.037-0.646-3.139c-0.131-0.564-0.256-1.098-0.33-1.477
				c-0.482-2.412,0.115-3.91,0.701-4.74c0.094-0.131,0.193-0.256,0.299-0.373c-1.727,0.582-3.176,1.486-4.668,2.979l1.051,1.219
				l0.43-0.402c0.406,1.516,0.113,2.908,0.113,2.908c-0.553-0.842-1.205-1.525-1.205-1.525l0.285-0.479l-0.947-1.102l-0.109-0.123
				c-1.164,1.602-1.541,2.91-1.541,2.91l0.826,0.756l0.48,0.436l0.162-0.465c0.887,1.664,0.076,3.219,0.076,3.219
				c-0.145-0.566-0.73-1.404-0.73-1.404l0.23-0.764l-1.229-1.111c-1.279,3.994-2.986,5.289-2.986,5.289s1.848-0.334,2.877-0.68
				C5.852,22.746,5.822,24.852,4.572,26.773z"/>
			<path fill="#FFFFFF" d="M23.229,12.359l-2.953,0.123c0.002,0.35-0.045,0.701-0.156,1.035c0.275,1.205,0.084,1.859,0.084,1.859
				c-0.494-1.15-0.871-1.469-0.871-1.469c-2.711-1.205-4.234,1.518-4.07,3.275c0.133,1.445,0.656,3.361,1.064,6.369
				c0.344,2.529-0.936,3.623-2.41,3.875c-0.031,0.004-0.064,0.012-0.096,0.018c-0.01,0-0.016,0-0.023,0
				c-0.24,0.031-0.492,0.045-0.764,0.039c-0.006-0.002-0.018-0.002-0.025-0.002c-0.031,0-0.059-0.006-0.088-0.006
				c-0.115-0.006-0.229-0.018-0.34-0.031c-1.146-0.16-3.715-0.625-6.365-0.689c1.559-0.912,2.779-2.488,3.459-3.605
				c0.041,0.309,0.072,0.688,0.072,1.104c0,0.207-0.006,0.426-0.027,0.646l-0.025,0.307l0.305,0.025
				c1.221,0.105,2.086-0.127,2.648-0.711c0.693-0.721,0.906-1.922,0.672-3.783c-0.1-0.816-0.396-2.084-0.656-3.201
				c-0.129-0.559-0.252-1.09-0.326-1.457c-0.439-2.201,0.086-3.537,0.602-4.27c0.404-0.574,0.963-0.994,1.574-1.197
				c0.012-0.002,0.023-0.004,0.033-0.006l1.008-3.094h0.316l-0.676,2.975c0.156-0.027,0.314-0.053,0.477-0.078l0.869-2.742h0.314
				l-0.57,2.656c0.9-0.115,1.879-0.207,2.961-0.285c0.176,0.07,0.363,0.271,0.531,0.557l2.842-0.875l0.105,0.307l-2.715,1.053
				c0.021,0.057,0.041,0.113,0.059,0.174l2.971-0.369l0.049,0.318l-2.881,0.576c0.01,0.053,0.02,0.107,0.027,0.16l2.998,0.098
				L23.229,12.359z M14.674,13.686c0.596-0.416,1.607-0.738,2.561-0.666c0.24,0.02,0.443-0.045,0.184-0.182
				c-0.711-0.375-2.367-0.248-2.953,0.152c-0.939,0.641-0.781,1.781-0.76,1.809C13.893,14.473,14.211,14.012,14.674,13.686z"/>
		</g>
	</g>
	<g id="bad_wsu" display="none">
		<g display="inline">
			<path fill="#5E6A71" d="M104.959,59.438c-0.08-0.697-0.459-1.256-1.254-1.256c-0.576,0-1.16,0.299-1.16,1.035
				c0,0.695,0.695,1.115,1.691,1.861c1.053,0.785,1.393,1.293,1.393,2.119c0,1.184-1.148,1.84-2.342,1.84
				c-0.637,0-1.184-0.121-1.701-0.318c-0.039-0.021-0.068-0.061-0.068-0.139v-1.434h0.258c0.109,1.104,0.834,1.541,1.602,1.541
				c0.707,0,1.35-0.535,1.35-1.262c0-0.648-0.35-1.176-1.842-2.16c-0.537-0.355-1.203-0.746-1.203-1.828
				c0-0.898,0.928-1.604,2.074-1.604c0.426,0,0.994,0.049,1.391,0.189c0.061,0.02,0.07,0.061,0.07,0.109v1.305H104.959z"/>
			<path fill="#5E6A71" d="M108.43,63.35c0,0.688-0.029,0.65,0.637,0.73v0.193h-1.99v-0.193c0.666-0.08,0.637-0.043,0.637-0.73
				v-4.016h-0.6c-0.645,0-0.793,0.406-1.035,0.895h-0.186l0.199-1.133h3.957l0.199,1.133h-0.184
				c-0.244-0.488-0.391-0.895-1.035-0.895h-0.6V63.35z"/>
			<path fill="#5E6A71" d="M111.061,62.584l-0.334,0.975c-0.096,0.285,0.043,0.527,0.363,0.527v0.188h-1.326v-0.188
				c0.197,0,0.408-0.125,0.525-0.365c0.312-0.641,1.166-3.025,1.771-4.635h0.408c0.494,1.463,1.236,3.711,1.486,4.357
				c0.16,0.408,0.275,0.643,0.59,0.643v0.188h-1.697v-0.188c0.457,0,0.502-0.242,0.385-0.562l-0.314-0.939H111.061z M112.824,62.307
				l-0.773-2.369h-0.014l-0.865,2.369H112.824z"/>
			<path fill="#5E6A71" d="M116.566,63.35c0,0.688-0.027,0.65,0.637,0.73v0.193h-1.99v-0.193c0.666-0.08,0.637-0.043,0.637-0.73
				v-4.016h-0.6c-0.643,0-0.791,0.406-1.035,0.895h-0.186l0.201-1.133h3.957l0.199,1.133h-0.186
				c-0.242-0.488-0.391-0.895-1.033-0.895h-0.602V63.35z"/>
			<path fill="#5E6A71" d="M118.734,64.081c0.666-0.08,0.572-0.043,0.572-0.73v-3.33c0-0.686,0.094-0.65-0.572-0.732v-0.191h3.24
				v1.189h-0.191c-0.074-0.545-0.221-0.951-0.754-0.951h-1.006v2.115h0.621c0.465,0,0.666-0.186,0.68-0.645h0.193v1.574h-0.193
				c-0.014-0.436-0.184-0.693-0.68-0.693h-0.621v1.67c0,0.631,0.289,0.682,0.953,0.682c1.074,0,1.021-0.305,1.361-1.096h0.191
				l-0.221,1.332h-3.574V64.081z"/>
		</g>
		<g display="inline">
			<g>
				<path fill="#5E6A71" d="M136.004,64.274c0,0,0,0-3.602-4.268v3.27c0,0.154,0.031,0.281,0.043,0.398
					c0.037,0.268,0.289,0.371,0.777,0.406v0.193h-1.811v-0.193c0.355-0.035,0.598-0.139,0.635-0.406
					c0.016-0.117,0.045-0.244,0.045-0.398v-3.484c-0.207-0.266-0.438-0.502-0.857-0.502v-0.193h1.346
					c1.102,1.338,2.248,2.701,3.35,4.039h0.016v-3.039c0-0.156-0.029-0.283-0.045-0.4c-0.037-0.266-0.287-0.367-0.777-0.406v-0.193
					h1.812v0.193c-0.348,0.039-0.598,0.141-0.637,0.406c-0.014,0.117-0.043,0.244-0.043,0.4v4.178H136.004z"/>
			</g>
			<path fill="#5E6A71" d="M138.91,63.35c0,0.688-0.029,0.652,0.637,0.73v0.193h-1.99v-0.193c0.666-0.078,0.637-0.043,0.637-0.73
				v-3.328c0-0.688,0.029-0.652-0.637-0.732v-0.191h1.99v0.191c-0.666,0.08-0.637,0.045-0.637,0.732V63.35z"/>
			<path fill="#5E6A71" d="M148.322,62.942c-0.34,0.793-0.289,1.096-1.361,1.096c-0.664,0-0.955-0.051-0.955-0.682v-1.67h0.623
				c0.496,0,0.664,0.26,0.68,0.695h0.191v-1.576h-0.191c-0.016,0.459-0.215,0.645-0.68,0.645h-0.623v-2.115h1.176
				c0.531,0,0.68,0.406,0.752,0.953h0.193v-1.189h-3.406h-1.467v0.191c0.502,0,0.695,0.229,0.51,0.695
				c-0.459,1.133-0.91,2.27-1.383,3.402c-0.385-1.123-0.812-2.395-1.1-3.27c-0.246-0.711,0.051-0.828,0.457-0.828v-0.191h-1.881
				v0.191c0.355,0,0.451,0.229,0.727,1.02c0.451,1.258,0.955,2.686,1.406,3.965h0.377c0.619-1.516,1.25-3.023,1.871-4.539
				c0.154-0.371,0.266-0.445,0.482-0.445c0.664,0.08,0.568,0.045,0.568,0.732v3.328c0,0.688,0.096,0.652-0.568,0.73v0.193h3.572
				l0.223-1.332H148.322z"/>
			<path fill="#5E6A71" d="M158.625,63.35c0,0.688-0.031,0.652,0.635,0.73v0.193h-1.99v-0.193c0.666-0.078,0.637-0.043,0.637-0.73
				v-3.328c0-0.688,0.029-0.652-0.637-0.732v-0.191h1.99v0.191c-0.666,0.08-0.635,0.045-0.635,0.732V63.35z"/>
			<path fill="#5E6A71" d="M166.188,59.098v0.191c0.436,0,0.674,0.213,0.422,0.666l-1.021,1.857l-0.895-1.857
				c-0.186-0.385-0.236-0.666,0.324-0.666v-0.191h-1.238h-0.514h-3.445l-0.201,1.131h0.188c0.242-0.488,0.391-0.895,1.033-0.895
				h0.602v4.016c0,0.688,0.029,0.652-0.637,0.73v0.193h1.99v-0.193c-0.666-0.078-0.637-0.043-0.637-0.73v-4.016h0.6
				c0.605,0,1.014,0.361,1.264,0.812l1.041,2.064v1.139c0,0.688,0.029,0.652-0.635,0.73v0.193h1.988v-0.193
				c-0.664-0.078-0.635-0.043-0.635-0.73v-0.828c0-0.184,0.014-0.393,0.088-0.539l1.234-2.242c0.201-0.355,0.4-0.451,0.607-0.451
				v-0.191H166.188z"/>
			<path fill="#5E6A71" d="M131.242,57.977l-2.33,0.006v0.193c0.467,0.051,0.807,0.256,0.855,0.615
				c0.02,0.158,0.059,0.326,0.059,0.537v2.764c0,1.592-0.717,2.508-2.078,2.508c-1.482,0-1.928-1.064-1.928-2.459v-2.914
				c0-0.924,0.027-0.941,0.924-1.051v-0.193h-2.678v0.193c0.896,0.109,0.855,0.127,0.855,1.051v2.965
				c0,1.801,0.658,2.877,2.775,2.877c1.283,0,2.646-0.797,2.646-2.938v-2.803c0-0.02,0-0.035,0-0.051
				c-0.008-0.863,0.328-0.988,0.893-1.08L131.242,57.977z"/>
			<path fill="#5E6A71" d="M155.672,61.567c-0.785-0.59-1.334-0.918-1.334-1.467c0-0.582,0.408-0.816,0.863-0.816
				c0.629,0,0.926,0.439,0.988,0.988h0.203v-1.027c0-0.039-0.008-0.072-0.055-0.086c-0.312-0.109-0.76-0.15-1.098-0.15
				c-0.902,0-1.686,0.557-1.686,1.264c0,0.381,0.105,0.654,0.26,0.865h-0.004c0.004,0.002,0.008,0.006,0.01,0.008
				c0.189,0.254,0.451,0.416,0.682,0.57c1.178,0.775,1.443,1.191,1.453,1.699c0.021,1.135-2.1,1.729-3.494-0.445l-0.725-1.104
				c0.568-0.223,1.035-0.746,1.035-1.508c0-0.867-0.748-1.258-1.494-1.258h-2.154v0.191c0.666,0.08,0.635,0.043,0.635,0.73v3.33
				c0,0.691,0.031,0.652-0.635,0.734v0.193h1.99v-0.193c-0.666-0.082-0.637-0.043-0.637-0.734v-1.367h0.697
				c0.895,1.486,1.115,2.133,1.566,2.295c0.102,0.035,1.262,0.406,2.082,0.406c0.941,0,1.947-0.516,1.947-1.449
				C156.77,62.584,156.502,62.184,155.672,61.567z M151.092,61.827h-0.615v-2.412h0.568c0.541,0,0.988,0.281,0.988,1.088
				C152.033,61.338,151.736,61.827,151.092,61.827z"/>
		</g>
		<g display="inline">
			<path fill="#5E6A71" d="M65.377,63.35c0,0.688-0.031,0.652,0.635,0.734v0.191h-1.99v-0.191c0.666-0.082,0.637-0.047,0.637-0.734
				v-3.328c0-0.688-0.32-0.65-0.984-0.732v-0.191h2.338v0.191c-0.666,0.082-0.635,0.045-0.635,0.732v1.279h2.596v-1.279
				c0-0.688,0.029-0.65-0.637-0.732v-0.191h1.988v0.191c-0.664,0.082-0.635,0.045-0.635,0.732v3.328
				c0,0.688-0.029,0.652,0.635,0.734v0.191h-1.988v-0.191c0.666-0.082,0.637-0.047,0.637-0.734v-1.746h-2.596V63.35z"/>
			<path fill="#5E6A71" d="M71.494,63.35c0,0.688-0.029,0.652,0.635,0.734v0.191h-1.988v-0.191c0.666-0.082,0.635-0.047,0.635-0.734
				v-3.328c0-0.688,0.031-0.65-0.635-0.732v-0.191h1.988v0.191c-0.664,0.082-0.635,0.045-0.635,0.732V63.35z"/>
			<path fill="#5E6A71" d="M77.643,64.276c-1.176-1.391-2.396-2.848-3.6-4.27v3.271c0,0.152,0.027,0.279,0.043,0.398
				c0.037,0.266,0.289,0.369,0.775,0.408v0.191h-1.811v-0.191c0.354-0.039,0.6-0.143,0.637-0.408
				c0.014-0.119,0.043-0.246,0.043-0.398v-3.486c-0.207-0.266-0.438-0.502-0.857-0.502v-0.191h1.346
				c1.104,1.338,2.248,2.699,3.352,4.037h0.014v-3.039c0-0.156-0.029-0.283-0.045-0.4c-0.035-0.266-0.289-0.367-0.775-0.406v-0.191
				h1.812v0.191c-0.348,0.039-0.6,0.141-0.639,0.406c-0.014,0.117-0.043,0.244-0.043,0.4v4.18H77.643z"/>
			<path fill="#5E6A71" d="M78.734,61.657c0-1.139,0.961-2.648,2.957-2.648c0.719,0,1.059,0.133,1.42,0.252
				c0.209,0.068,0.289,0.17,0.289,0.289v0.953h-0.191c-0.023-0.592-0.4-1.234-1.576-1.234c-1.545,0-2.049,1.064-2.055,2.328
				c-0.008,1.17,0.582,2.51,2.084,2.51c0.926,0,1.006-0.342,1.006-0.918v-0.451c0-0.689,0.029-0.65-0.783-0.732v-0.191h2.139v0.191
				c-0.668,0.082-0.637,0.043-0.637,0.732v1.287c-0.475,0.184-1.096,0.342-1.77,0.342C80.102,64.366,78.734,63.639,78.734,61.657z"
				/>
			<path fill="#5E6A71" d="M86.559,63.35c0,0.688-0.029,0.652,0.637,0.734v0.191h-1.99v-0.191c0.666-0.082,0.637-0.047,0.637-0.734
				v-4.016h-0.6c-0.643,0-0.791,0.406-1.037,0.895h-0.182l0.199-1.131h3.955l0.201,1.131h-0.186
				c-0.242-0.488-0.391-0.895-1.035-0.895h-0.6V63.35z"/>
			<path fill="#5E6A71" d="M88.379,61.784c0-1.6,1.242-2.775,2.779-2.775c1.605,0,2.537,1.383,2.537,2.523
				c0,1.561-1.168,2.834-2.803,2.834C89.48,64.366,88.379,63.219,88.379,61.784z M92.854,61.752c0-1.768-0.955-2.484-1.857-2.484
				c-1.258,0-1.773,1.123-1.773,2.131c0,1.789,0.916,2.707,1.869,2.707C92.469,64.106,92.854,62.745,92.854,61.752z"/>
			<path fill="#5E6A71" d="M98.467,64.276c-1.176-1.391-2.395-2.848-3.602-4.27v3.271c0,0.152,0.029,0.279,0.045,0.398
				c0.037,0.266,0.287,0.369,0.775,0.408v0.191h-1.812v-0.191c0.355-0.039,0.6-0.143,0.637-0.408
				c0.016-0.119,0.045-0.246,0.045-0.398v-3.486c-0.207-0.266-0.438-0.502-0.859-0.502v-0.191h1.348
				c1.102,1.338,2.248,2.699,3.35,4.037h0.014v-3.039c0-0.156-0.029-0.283-0.043-0.4c-0.037-0.266-0.287-0.367-0.775-0.406v-0.191
				h1.811v0.191c-0.346,0.039-0.598,0.141-0.637,0.406c-0.014,0.117-0.043,0.244-0.043,0.4v4.18H98.467z"/>
			<path fill="#5E6A71" d="M57.158,58.108V58.1h-2v0.246c0.771,0.01,0.898,0.285,0.695,0.869l-1.516,4.123h-0.082l-1.783-5.154
				h-0.451l-1.875,5.154H50.02l-1.342-4.096c-0.191-0.648,0.074-0.896,0.676-0.896V58.1h-2.375v0.246
				c0.506,0,0.596,0.395,0.92,1.326l1.725,5.094h0.453l1.844-5.195l1.818,5.201h0.508c0.777-2.068,1.871-5.131,2.273-5.953
				c0.15-0.311,0.422-0.469,0.674-0.469v-0.242H57.158z"/>
			<path fill="#5E6A71" d="M62.357,61.512c-0.771-0.58-1.314-0.906-1.314-1.447c0-0.574,0.402-0.807,0.85-0.807
				c0.621,0,0.914,0.434,0.977,0.977h0.201v-1.014c0-0.039-0.008-0.07-0.055-0.084c-0.309-0.109-0.75-0.148-1.082-0.148
				c-0.891,0-1.664,0.549-1.664,1.246c0,0.379,0.104,0.646,0.256,0.854h-0.002c0.002,0.002,0.006,0.004,0.01,0.008
				c0.186,0.25,0.443,0.41,0.672,0.562c1.162,0.766,1.432,1.176,1.432,1.68c0,0.467-0.352,0.936-0.998,0.98
				c-0.662,0.049-1.514-0.271-1.873-1.201c-0.318-0.891-0.965-2.764-1.402-4.059h-0.426c-0.609,1.625-1.438,4.01-1.754,4.656
				c-0.117,0.242-0.33,0.367-0.529,0.367v0.191h0.316h1.021v-0.191c-0.324,0-0.463-0.242-0.367-0.531l0.338-0.982h1.875l0.316,0.947
				l0.244,0.73c0,0,1.314,0.344,2.17,0.344c0.93,0,1.873-0.51,1.873-1.432C63.441,62.518,63.178,62.122,62.357,61.512z
				 M57.074,62.29l0.875-2.391h0.014l0.779,2.391H57.074z"/>
		</g>
	</g>
</g>
</svg>
