<?xml version="1.0" encoding="utf-8"?>
<!-- Generator: Adobe Illustrator 16.0.0, SVG Export Plug-In . SVG Version: 6.00 Build 0)  -->
<!DOCTYPE svg PUBLIC "-//W3C//DTD SVG 1.1//EN" "http://www.w3.org/Graphics/SVG/1.1/DTD/svg11.dtd">
<svg version="1.1" id="Layer_1" xmlns="http://www.w3.org/2000/svg" xmlns:xlink="http://www.w3.org/1999/xlink" x="0px" y="0px"
	 width="300.06px" height="84.576px" viewBox="19.387 0 300.06 84.576" enable-background="new 19.387 0 300.06 84.576"
	 xml:space="preserve">
<g>
	
		<text transform="matrix(1 0 0 1 66.7004 88.6875)" display="none" fill="#5E6A71" enable-background="new    " font-family="'StoneSansStd-Medium'" font-size="7.7582">VANCOUVER</text>
	<g id="Good_WSU">
		<g>
			<g>
				<path fill="#5E6A71" d="M174.98,75.372c-0.793-0.596-1.347-0.926-1.347-1.479c0-0.586,0.41-0.824,0.869-0.824
					c0.634,0,0.935,0.443,0.996,0.998h0.207V73.03c0-0.04-0.008-0.071-0.055-0.086c-0.318-0.111-0.769-0.15-1.107-0.15
					c-0.91,0-1.701,0.561-1.701,1.273c0,0.384,0.105,0.66,0.263,0.869h-0.004c0.004,0.006,0.01,0.008,0.012,0.011
					c0.191,0.256,0.455,0.419,0.688,0.573c1.187,0.785,1.455,1.203,1.464,1.717c0.022,1.142-2.117,1.742-3.523-0.45l-0.729-1.112
					c0.573-0.225,1.043-0.754,1.043-1.521c0-0.875-0.752-1.27-1.507-1.27h-2.172v0.194c0.67,0.08,0.642,0.044,0.642,0.735v3.36
					c0,0.695,0.028,0.656-0.642,0.739v0.193h2.008v-0.193c-0.672-0.083-0.645-0.044-0.645-0.739v-1.38h0.705
					c0.9,1.499,1.125,2.15,1.58,2.312c0.1,0.035,1.271,0.412,2.1,0.412c0.949,0,1.963-0.522,1.963-1.463
					C176.086,76.399,175.818,75.996,174.98,75.372z M170.361,75.634h-0.623V73.2h0.576c0.545,0,0.994,0.283,0.994,1.099
					C171.309,75.142,171.01,75.634,170.361,75.634z"/>
				<path fill="#5E6A71" d="M155.344,78.099c0,0,0,0-3.651-4.326v3.313c0,0.156,0.031,0.285,0.045,0.405
					c0.037,0.271,0.293,0.374,0.789,0.412v0.195h-1.84v-0.195c0.362-0.038,0.606-0.143,0.646-0.412
					c0.015-0.12,0.043-0.249,0.043-0.405v-3.532c-0.207-0.27-0.44-0.511-0.867-0.511v-0.194h1.363
					c1.117,1.358,2.281,2.737,3.398,4.096h0.014V73.86c0-0.156-0.029-0.282-0.045-0.403c-0.037-0.271-0.291-0.374-0.787-0.413
					v-0.195h1.838v0.195c-0.352,0.039-0.606,0.143-0.646,0.413c-0.015,0.121-0.043,0.247-0.043,0.403v4.238H155.344z"/>
				<path fill="#5E6A71" d="M158.291,77.161c0,0.699-0.028,0.661,0.646,0.744v0.193h-2.019v-0.193
					c0.676-0.083,0.646-0.045,0.646-0.744v-3.374c0-0.696,0.031-0.66-0.646-0.743v-0.191h2.019v0.191
					c-0.674,0.083-0.646,0.047-0.646,0.743V77.161z"/>
				<path fill="#5E6A71" d="M167.834,76.75c-0.346,0.804-0.293,1.11-1.379,1.11c-0.676,0-0.969-0.055-0.969-0.69v-1.696h0.631
					c0.502,0,0.676,0.266,0.689,0.707H167v-1.6h-0.192c-0.015,0.466-0.218,0.652-0.689,0.652h-0.631V73.09h1.188
					c0.539,0,0.691,0.411,0.765,0.968h0.195v-1.207h-3.455h-1.484v0.192c0.508,0,0.705,0.231,0.518,0.706
					c-0.467,1.146-0.924,2.302-1.403,3.449c-0.392-1.139-0.824-2.43-1.115-3.313c-0.25-0.721,0.053-0.842,0.465-0.842v-0.192h-1.908
					v0.192c0.363,0,0.459,0.231,0.738,1.034c0.455,1.277,0.967,2.724,1.426,4.021h0.381c0.632-1.537,1.269-3.067,1.896-4.604
					c0.158-0.377,0.271-0.452,0.488-0.452c0.676,0.083,0.577,0.047,0.577,0.743v3.374c0,0.699,0.099,0.66-0.577,0.744v0.193h3.623
					l0.227-1.35h-0.197V76.75z"/>
				<path fill="#5E6A71" d="M177.881,77.161c0,0.699-0.03,0.661,0.646,0.744v0.193h-2.019v-0.193
					c0.677-0.083,0.646-0.045,0.646-0.744v-3.374c0-0.696,0.029-0.66-0.646-0.743v-0.191h2.019v0.191
					c-0.676,0.083-0.646,0.047-0.646,0.743V77.161z"/>
				<path fill="#5E6A71" d="M185.553,72.851v0.192c0.44,0,0.682,0.218,0.426,0.676l-1.035,1.884l-0.908-1.884
					c-0.186-0.39-0.238-0.676,0.33-0.676v-0.192h-1.258h-0.521h-3.491l-0.203,1.146h0.188c0.248-0.494,0.396-0.905,1.049-0.905
					h0.609v4.07c0,0.699,0.029,0.66-0.646,0.744v0.193h2.019v-0.193c-0.676-0.084-0.646-0.045-0.646-0.744v-4.07h0.609
					c0.613,0,1.027,0.366,1.279,0.823l1.059,2.095v1.152c0,0.699,0.029,0.66-0.645,0.744v0.193h2.016v-0.193
					c-0.674-0.084-0.645-0.045-0.645-0.744v-0.84c0-0.188,0.016-0.397,0.09-0.547l1.252-2.272c0.203-0.36,0.403-0.458,0.615-0.458
					v-0.191h-1.543V72.851z"/>
			</g>
			<path fill="#5E6A71" d="M150.537,71.792l-2.363,0.006v0.195c0.476,0.051,0.816,0.259,0.867,0.624
				c0.021,0.159,0.062,0.331,0.062,0.543v2.804c0,1.615-0.728,2.542-2.107,2.542c-1.504,0-1.955-1.079-1.955-2.491V73.06
				c0-0.938,0.027-0.955,0.937-1.065v-0.195h-2.715v0.195c0.909,0.11,0.868,0.128,0.868,1.065v3.006
				c0,1.826,0.666,2.916,2.812,2.916c1.303,0,2.686-0.807,2.686-2.977V73.16c0-0.019,0-0.034,0-0.05
				c-0.008-0.877,0.332-1.004,0.904-1.096L150.537,71.792z"/>
		</g>
		<g>
			<path fill="#5E6A71" d="M124.535,73.185c-0.08-0.703-0.462-1.267-1.266-1.267c-0.583,0-1.172,0.304-1.172,1.046
				c0,0.702,0.702,1.124,1.708,1.878c1.063,0.794,1.406,1.308,1.406,2.14c0,1.196-1.16,1.858-2.363,1.858
				c-0.646,0-1.197-0.121-1.721-0.319c-0.039-0.021-0.068-0.062-0.068-0.141v-1.447h0.261c0.112,1.113,0.843,1.558,1.617,1.558
				c0.714,0,1.361-0.544,1.361-1.276c0-0.654-0.352-1.188-1.857-2.18c-0.542-0.361-1.215-0.756-1.215-1.85
				c0-0.906,0.937-1.617,2.092-1.617c0.432,0,1.005,0.051,1.407,0.191c0.061,0.018,0.069,0.061,0.069,0.109v1.316H124.535
				L124.535,73.185z"/>
			<path fill="#5E6A71" d="M127.748,77.136c0,0.696-0.028,0.656,0.644,0.741v0.19h-2.01v-0.19c0.673-0.085,0.644-0.045,0.644-0.741
				V73.08h-0.606c-0.649,0-0.8,0.412-1.046,0.903h-0.185l0.2-1.144h3.995l0.202,1.144h-0.187c-0.247-0.491-0.396-0.903-1.045-0.903
				h-0.606V77.136z"/>
			<path fill="#5E6A71" d="M130.355,76.337l-0.342,1.001c-0.099,0.293,0.044,0.539,0.374,0.539v0.19h-1.36v-0.19
				c0.201,0,0.418-0.13,0.538-0.375c0.32-0.658,1.193-3.101,1.814-4.751h0.418c0.508,1.502,1.27,3.805,1.523,4.468
				c0.166,0.416,0.284,0.658,0.604,0.658v0.19h-1.739v-0.19c0.472,0,0.518-0.246,0.396-0.576l-0.322-0.964H130.355z M132.165,76.054
				l-0.792-2.428h-0.016l-0.889,2.428H132.165z"/>
			<path fill="#5E6A71" d="M135.967,77.136c0,0.696-0.028,0.656,0.642,0.741v0.19h-2.01v-0.19c0.674-0.085,0.645-0.045,0.645-0.741
				V73.08h-0.606c-0.649,0-0.798,0.412-1.046,0.903h-0.187l0.203-1.144h3.996l0.201,1.144h-0.188
				c-0.244-0.491-0.393-0.903-1.043-0.903h-0.604v4.056H135.967z"/>
			<path fill="#5E6A71" d="M138.154,77.877c0.676-0.085,0.578-0.045,0.578-0.741v-3.361c0-0.694,0.098-0.657-0.578-0.74V72.84h3.272
				v1.202h-0.194c-0.074-0.551-0.224-0.963-0.76-0.963h-1.019v2.139h0.627c0.471,0,0.672-0.188,0.688-0.65h0.192v1.59h-0.192
				c-0.017-0.441-0.187-0.702-0.688-0.702h-0.627v1.688c0,0.637,0.291,0.688,0.965,0.688c1.082,0,1.029-0.308,1.375-1.106h0.193
				l-0.225,1.344h-3.609L138.154,77.877L138.154,77.877z"/>
		</g>
		<g>
			<path fill="#5E6A71" d="M85.043,77.144c0,0.694-0.029,0.655,0.643,0.737v0.195h-2.009v-0.195
				c0.672-0.082,0.643-0.043,0.643-0.737v-3.362c0-0.692-0.323-0.656-0.995-0.737v-0.191h2.362v0.191
				c-0.672,0.081-0.643,0.045-0.643,0.737v1.294h2.621v-1.294c0-0.692,0.029-0.656-0.643-0.737v-0.191h2.009v0.191
				c-0.671,0.081-0.642,0.045-0.642,0.737v3.362c0,0.694-0.029,0.655,0.642,0.737v0.195h-2.009v-0.195
				c0.672-0.082,0.643-0.043,0.643-0.737V75.38h-2.621L85.043,77.144L85.043,77.144z"/>
			<path fill="#5E6A71" d="M91.22,77.144c0,0.694-0.031,0.655,0.642,0.737v0.195h-2.008v-0.195c0.671-0.082,0.642-0.043,0.642-0.737
				v-3.362c0-0.692,0.03-0.656-0.642-0.737v-0.191h2.008v0.191c-0.672,0.081-0.642,0.045-0.642,0.737V77.144z"/>
			<path fill="#5E6A71" d="M97.427,78.077c-1.187-1.404-2.419-2.876-3.636-4.311v3.303c0,0.154,0.029,0.281,0.045,0.402
				c0.037,0.27,0.29,0.372,0.783,0.409v0.195H92.79v-0.195c0.358-0.037,0.605-0.141,0.644-0.409
				c0.014-0.121,0.044-0.248,0.044-0.402v-3.52c-0.21-0.269-0.441-0.507-0.867-0.507v-0.192h1.358
				c1.113,1.35,2.271,2.725,3.383,4.074h0.015v-3.066c0-0.158-0.03-0.285-0.045-0.405c-0.036-0.269-0.292-0.372-0.784-0.409v-0.191
				h1.83v0.191c-0.351,0.037-0.604,0.143-0.644,0.409c-0.015,0.12-0.043,0.247-0.043,0.405v4.219H97.427z"/>
			<path fill="#5E6A71" d="M98.528,75.433c0-1.149,0.971-2.675,2.986-2.675c0.725,0,1.067,0.136,1.434,0.257
				c0.209,0.065,0.292,0.17,0.292,0.289v0.965h-0.194c-0.021-0.6-0.402-1.248-1.59-1.248c-1.561,0-2.067,1.074-2.076,2.353
				c-0.007,1.18,0.591,2.532,2.106,2.532c0.934,0,1.016-0.346,1.016-0.926v-0.457c0-0.694,0.029-0.656-0.792-0.738V75.59h2.158
				v0.193c-0.672,0.082-0.641,0.044-0.641,0.739v1.299c-0.479,0.188-1.106,0.344-1.786,0.344
				C99.91,78.166,98.528,77.435,98.528,75.433z"/>
			<path fill="#5E6A71" d="M106.429,77.144c0,0.694-0.03,0.655,0.642,0.737v0.195h-2.009v-0.195
				c0.671-0.082,0.642-0.043,0.642-0.737v-4.056h-0.604c-0.649,0-0.799,0.408-1.045,0.903h-0.187l0.203-1.141h3.995l0.201,1.141
				h-0.188c-0.246-0.495-0.396-0.903-1.045-0.903h-0.604L106.429,77.144L106.429,77.144z"/>
			<path fill="#5E6A71" d="M108.266,75.56c0-1.615,1.255-2.802,2.808-2.802c1.62,0,2.561,1.397,2.561,2.548
				c0,1.576-1.18,2.859-2.83,2.859C109.378,78.166,108.266,77.009,108.266,75.56z M112.782,75.531c0-1.786-0.962-2.511-1.874-2.511
				c-1.269,0-1.791,1.136-1.791,2.149c0,1.81,0.925,2.733,1.888,2.733C112.395,77.905,112.782,76.531,112.782,75.531z"/>
			<path fill="#5E6A71" d="M118.451,78.077c-1.188-1.404-2.42-2.876-3.637-4.311v3.303c0,0.154,0.028,0.281,0.044,0.402
				c0.038,0.27,0.291,0.372,0.784,0.409v0.195h-1.829v-0.195c0.358-0.037,0.604-0.141,0.643-0.409
				c0.016-0.121,0.044-0.248,0.044-0.402v-3.52c-0.208-0.269-0.439-0.507-0.866-0.507v-0.192h1.359
				c1.112,1.35,2.27,2.725,3.383,4.074h0.015v-3.066c0-0.158-0.03-0.285-0.044-0.405c-0.038-0.269-0.291-0.372-0.785-0.409v-0.191
				h1.829v0.191c-0.351,0.037-0.604,0.143-0.642,0.409c-0.015,0.12-0.045,0.247-0.045,0.405v4.219H118.451z"/>
			<path fill="#5E6A71" d="M76.642,71.851v-0.01h-2.021v0.25c0.78,0.01,0.907,0.287,0.702,0.877l-1.528,4.162H73.71l-1.8-5.203
				h-0.456l-1.891,5.203h-0.129l-1.355-4.134c-0.191-0.656,0.077-0.905,0.684-0.905v-0.25h-2.397v0.25
				c0.509,0,0.601,0.396,0.928,1.338l1.74,5.146h0.458l1.861-5.248l1.835,5.251H73.7c0.785-2.087,1.89-5.18,2.296-6.01
				c0.152-0.312,0.425-0.474,0.681-0.474v-0.243H76.642z"/>
			<path fill="#5E6A71" d="M82.013,75.271c-0.786-0.59-1.337-0.918-1.337-1.47c0-0.581,0.409-0.817,0.864-0.817
				c0.629,0,0.927,0.44,0.99,0.992h0.204v-1.031c0-0.038-0.008-0.069-0.056-0.086c-0.313-0.108-0.763-0.149-1.1-0.149
				c-0.904,0-1.688,0.558-1.688,1.267c0,0.383,0.105,0.655,0.261,0.865h-0.003c0.003,0.003,0.006,0.006,0.01,0.01
				c0.19,0.254,0.452,0.416,0.683,0.569c1.18,0.778,1.454,1.194,1.454,1.705c0,0.476-0.356,0.952-1.014,1
				c-0.672,0.046-1.537-0.278-1.9-1.222c-0.323-0.905-0.979-2.81-1.425-4.121h-0.433c-0.62,1.65-1.46,4.07-1.782,4.727
				c-0.119,0.246-0.335,0.373-0.537,0.373v0.195h0.322h1.037v-0.195c-0.329,0-0.472-0.246-0.374-0.537l0.344-1.001h1.904l0.32,0.964
				l0.247,0.741c0,0,1.335,0.351,2.204,0.351c0.943,0,1.901-0.52,1.901-1.453C83.112,76.292,82.846,75.892,82.013,75.271z
				 M76.646,76.06l0.889-2.429h0.015l0.792,2.429H76.646z"/>
		</g>
	</g>
	<g>
		<path fill="#5E6A71" d="M70.629,7.326H70.4c0.035-0.792-0.344-1.127-0.898-1.127c-0.537,0-1.057,0.317-1.057,0.986
			c0,0.555,0.458,0.898,1.215,1.664c0.74,0.731,0.812,1.233,0.812,1.788c0,0.695-0.724,1.646-2.097,1.646
			c-0.66,0-1.127-0.114-1.55-0.291c-0.026-0.018-0.053-0.053-0.035-0.123l0.247-1.268h0.229c-0.098,0.995,0.458,1.374,1.117,1.374
			c0.563,0,1.232-0.431,1.232-1.206c0-0.423-0.343-1.021-0.969-1.559c-0.704-0.616-1.003-1.127-1.003-1.628
			c0-0.925,0.94-1.673,1.84-1.673c0.405,0,0.872,0.035,1.303,0.158c0.053,0.018,0.07,0.08,0.062,0.124L70.629,7.326z"/>
		<path fill="#5E6A71" d="M74.526,8.55c-0.158-0.247-0.405-0.52-0.722-0.52c-1.014,0-1.655,1.435-1.655,2.474
			c0,0.563,0.185,1.224,0.854,1.224c0.389,0,0.891-0.282,1.321-0.599l0.105,0.211l-0.926,0.572c-0.414,0.255-0.748,0.37-0.933,0.37
			c-0.925,0-1.198-0.889-1.153-1.62c-0.01-0.141,0.035-1.77,1.575-2.633c0.396-0.22,0.812-0.361,1.092-0.361
			c0.291,0,0.66,0.062,0.837,0.194L74.8,8.436L74.526,8.55z"/>
		<path fill="#5E6A71" d="M76.612,6.604c0.035-0.141,0.053-0.22,0.053-0.317c0-0.247-0.203-0.255-0.3-0.238l-0.448,0.044L75.961,5.9
			l1.619-0.194l-0.871,3.909l0.019,0.018c0.483-0.819,1.654-1.963,2.481-1.963c0.44,0,0.645,0.22,0.449,1.021l-0.625,2.447
			c-0.053,0.264-0.044,0.432,0.079,0.432c0.062,0,0.158-0.035,0.238-0.07l0.403-0.203l0.079,0.194l-1.47,0.792
			c-0.158-0.053-0.221-0.176-0.238-0.282c-0.035-0.132,0-0.282,0.106-0.695l0.562-2.219c0.098-0.387,0.237-0.88-0.124-0.88
			c-0.757,0-1.988,1.409-2.368,3.319l-0.141,0.651H75.38L76.612,6.604z"/>
		<path fill="#5E6A71" d="M80.615,10.548c0-1.153,0.994-2.879,2.465-2.879c1.171,0,1.426,0.792,1.426,1.585
			c0,0.968-0.773,3.028-2.456,3.028C80.923,12.283,80.615,11.376,80.615,10.548z M83.696,8.832c0-0.916-0.555-0.951-0.695-0.951
			c-0.951,0-1.576,1.708-1.576,2.853c0,0.458,0.079,1.285,0.73,1.285C83.159,12.019,83.696,10.364,83.696,8.832z"/>
		<path fill="#5E6A71" d="M85.227,10.548c0-1.153,0.994-2.879,2.465-2.879c1.171,0,1.426,0.792,1.426,1.585
			c0,0.968-0.774,3.028-2.456,3.028C85.534,12.283,85.227,11.376,85.227,10.548z M88.308,8.832c0-0.916-0.556-0.951-0.695-0.951
			c-0.951,0-1.576,1.708-1.576,2.853c0,0.458,0.079,1.285,0.73,1.285C87.771,12.019,88.308,10.364,88.308,8.832z"/>
		<path fill="#5E6A71" d="M90.938,11.121c-0.054,0.282-0.044,0.449,0.08,0.449c0.062,0,0.157-0.035,0.229-0.07l0.414-0.203
			l0.07,0.194l-1.472,0.792c-0.148-0.053-0.211-0.176-0.236-0.282c-0.026-0.132,0.009-0.282,0.097-0.695l1.013-4.702
			c0.035-0.176,0.098-0.378,0-0.484c-0.069-0.08-0.212-0.08-0.353-0.062l-0.343,0.035L90.48,5.9l1.62-0.194L90.938,11.121z"/>
		<path fill="#5E6A71" d="M95.408,10.548c0-1.153,0.994-2.879,2.465-2.879c1.171,0,1.426,0.792,1.426,1.585
			c0,0.968-0.773,3.028-2.456,3.028C95.716,12.283,95.408,11.376,95.408,10.548z M98.489,8.832c0-0.916-0.555-0.951-0.695-0.951
			c-0.951,0-1.576,1.708-1.576,2.853c0,0.458,0.079,1.285,0.73,1.285C97.952,12.019,98.489,10.364,98.489,8.832z"/>
		<path fill="#5E6A71" d="M103.224,7.96l-0.211,0.185h-1.153c-0.432,2.095-1.136,4.886-1.638,6.225h-0.396l1.259-6.225h-0.836
			l0.079-0.37h0.828c0.466-1.875,2.016-2.069,2.386-2.069c0.202,0,0.625,0.035,0.757,0.159l-0.104,0.581l-0.22,0.105
			c-0.124-0.238-0.405-0.511-0.775-0.511c-0.528,0-0.924,0.361-1.136,1.312l-0.098,0.422h1.294L103.224,7.96z"/>
		<path fill="#5E6A71" d="M71.571,19.853c6.093,0,8.21,3.479,8.21,7.108c0,5.013-3.198,8.016-8.556,8.016h-4.494V19.853H71.571z
			 M68.827,33.465h2.333c4.257,0,6.311-2.117,6.311-6.546c0-3.371-1.881-5.553-5.855-5.553h-2.787L68.827,33.465L68.827,33.465z"/>
		<path fill="#5E6A71" d="M83.688,29.706c-0.022,2.161,1.512,4.148,3.65,4.148c0.994,0,2.203-0.367,2.96-0.929l0.562,1.059
			c-1.123,0.8-2.463,1.253-3.587,1.253c-3.37,0-5.596-2.074-5.596-5.877c0-3.738,2.679-5.445,5.12-5.445
			c3.284,0,4.387,2.96,4.171,5.791H83.688z M89.196,28.409c0-1.686-0.713-3.111-2.42-3.111c-2.074,0-2.896,1.729-2.96,3.111H89.196z
			"/>
		<path fill="#5E6A71" d="M98.441,25.903c-0.778-0.519-1.405-0.691-1.988-0.691c-0.69,0-1.577,0.324-1.577,1.231
			c0,0.908,0.994,1.361,2.227,2.291c1.383,1.059,2.29,1.944,2.29,3.457c0,1.815-1.793,3.046-3.781,3.046
			c-1.231,0-2.614-0.54-3.327-1.361l0.95-1.102c0.627,0.583,1.47,1.081,2.334,1.081c0.907,0,1.837-0.475,1.837-1.534
			c0-1.253-1.124-1.793-2.14-2.528c-1.231-0.886-2.312-1.621-2.312-3.09c0-1.707,1.687-2.787,3.587-2.787
			c1.06,0,2.097,0.432,2.657,0.994L98.441,25.903z"/>
		<path fill="#5E6A71" d="M101.507,20.609c0-0.54,0.453-1.146,1.231-1.146c0.777,0,1.231,0.605,1.231,1.146
			c0,0.583-0.281,1.318-1.231,1.318C101.787,21.927,101.507,21.192,101.507,20.609z M103.71,24.174v10.803h-1.943V24.174H103.71z"/>
		<path fill="#5E6A71" d="M116.607,34.589c0,4.126-2.571,5.79-5.487,5.79c-1.6,0-3.198-0.302-4.451-1.08l0.54-1.275
			c1.318,0.756,2.528,0.972,3.867,0.972c2.226,0,3.587-1.426,3.587-4.256v-1.469h-0.043c-0.756,1.059-1.9,1.966-3.607,1.966
			c-2.981,0-4.841-2.333-4.841-5.791c0-2.809,2.074-5.531,5.164-5.531c1.296,0,2.68,0.648,3.284,1.75h0.043v-1.491h1.944V34.589z
			 M114.663,29.23c0-2.031-1.102-3.933-3.219-3.933c-2.248,0-3.177,1.771-3.177,4.062c0,2.312,0.994,4.494,3.047,4.494
			C113.669,33.854,114.663,31.628,114.663,29.23z"/>
		<path fill="#5E6A71" d="M121.681,25.514c1.016-1.08,2.57-1.599,3.694-1.599c2.484,0,3.824,1.383,3.824,4.105v6.957h-1.944V28.43
			c0-2.031-0.863-3.09-2.613-3.09c-1.534,0-2.939,1.059-2.939,3.133v6.503h-1.944V24.174h1.924L121.681,25.514L121.681,25.514z"/>
		<path fill="#5E6A71" d="M148.835,30.397c0.626-1.275,0.216-3.5-0.627-4.71h-2.117l0.647-1.339h6.482l-0.671,1.339H150
			c0.778,1.253,1.037,3.695,0,5.748l3.307,2.831l-1.924,0.972l-2.463-2.269c-1.167,1.318-2.874,2.269-4.97,2.269
			c-4.71,0-5.38-3.586-5.38-4.516c0-1.988,1.447-3.543,3.241-4.365c-0.844-0.799-1.966-1.836-1.966-3.392
			c0-1.772,1.619-3.371,4.039-3.371c1.146,0,2.14,0.346,3.091,1.037l-0.758,1.21c-0.366-0.238-1.21-0.734-2.139-0.734
			c-1.404,0-2.117,0.799-2.117,1.75c0,0.864,0.54,1.664,2.031,3.025L148.835,30.397z M142.763,27.394
			c-1.361,0.756-1.944,1.88-1.944,3.133c0,1.383,1.08,3.284,3.371,3.284c1.663,0,3.046-0.95,3.673-1.836L142.763,27.394z"/>
		<path fill="#5E6A71" d="M78.161,45.224c-0.713-0.582-2.334-1.317-3.954-1.317c-3.737,0-5.941,2.679-5.941,6.223
			c0,3.824,2.637,6.396,5.941,6.396c1.643,0,2.938-0.519,3.824-1.123l0.821,1.252c-1.017,0.691-2.811,1.384-4.754,1.384
			c-5.401,0-8.146-3.694-8.146-7.864c0-3.803,2.981-7.779,8.405-7.779c2.16,0,3.673,0.755,4.667,1.535L78.161,45.224z"/>
		<path fill="#5E6A71" d="M80.555,52.247c0-3.5,2.593-5.532,5.314-5.532s5.337,2.032,5.337,5.532c0,3.35-2.14,5.79-5.337,5.79
			C82.693,58.037,80.555,55.595,80.555,52.247z M82.65,52.247c0,2.031,0.69,4.406,3.22,4.406c2.549,0,3.24-2.375,3.24-4.406
			c0-1.945-0.799-4.148-3.24-4.148C83.45,48.099,82.65,50.301,82.65,52.247z"/>
		<path fill="#5E6A71" d="M95.589,48.313c1.017-1.08,2.571-1.599,3.695-1.599c2.484,0,3.824,1.384,3.824,4.106v6.957h-1.944v-6.547
			c0-2.031-0.864-3.09-2.614-3.09c-1.533,0-2.938,1.059-2.938,3.133v6.504h-1.944V46.974h1.923L95.589,48.313L95.589,48.313z"/>
		<path fill="#5E6A71" d="M111.38,48.703c-0.777-0.519-1.403-0.69-1.987-0.69c-0.691,0-1.577,0.323-1.577,1.23
			c0,0.908,0.994,1.361,2.226,2.291c1.383,1.059,2.29,1.943,2.29,3.457c0,1.814-1.793,3.046-3.781,3.046
			c-1.23,0-2.613-0.54-3.326-1.361l0.95-1.103c0.626,0.584,1.47,1.08,2.333,1.08c0.907,0,1.837-0.475,1.837-1.533
			c0-1.253-1.123-1.793-2.14-2.527c-1.23-0.887-2.312-1.621-2.312-3.09c0-1.707,1.686-2.788,3.587-2.788
			c1.059,0,2.096,0.433,2.656,0.995L111.38,48.703z"/>
		<path fill="#5E6A71" d="M117.103,46.974h2.83v1.125h-2.83v6.113c0,1.514,0.303,2.42,1.49,2.42c0.714,0,1.123-0.173,1.49-0.367
			l0.477,1.08c-0.67,0.434-1.47,0.691-2.204,0.691c-2.16,0-3.197-1.253-3.197-3.457v-6.48h-1.513v-1.125h1.513v-2.593l1.944-0.647
			V46.974z"/>
		<path fill="#5E6A71" d="M124.058,48.313l0.777-0.82c0.453-0.454,1.167-0.778,1.62-0.778c0.477,0,1.188,0.347,1.793,1.06
			l-0.886,1.252c-0.475-0.236-0.95-0.453-1.447-0.453c-0.994,0-1.814,0.994-1.814,3.393v5.812h-1.944V46.974h1.901V48.313z"/>
		<path fill="#5E6A71" d="M136.89,56.524c-1.103,0.951-2.074,1.513-3.479,1.513c-2.484,0-3.824-1.384-3.824-4.104v-6.957h1.944
			v6.523c0,2.031,0.864,3.111,2.614,3.111c1.49,0,2.723-1.23,2.723-3.326v-6.311h1.944v10.805h-1.923L136.89,56.524L136.89,56.524z"
			/>
		<path fill="#5E6A71" d="M150.304,56.913c-1.06,0.757-2.333,1.124-3.264,1.124c-5.12,0-5.769-4.192-5.769-5.683
			c0-2.701,1.793-5.64,5.854-5.64c1.103,0,2.097,0.281,2.896,0.886l-0.648,1.103c-0.627-0.302-1.426-0.562-2.226-0.562
			c-1.771,0-3.781,1.166-3.781,4.104c0,2.246,1.146,4.362,3.76,4.362c0.93,0,1.793-0.235,2.637-0.776L150.304,56.913z"/>
		<path fill="#5E6A71" d="M154.795,46.974h2.831v1.125h-2.831v6.113c0,1.514,0.304,2.42,1.491,2.42c0.713,0,1.123-0.173,1.49-0.367
			l0.476,1.08c-0.67,0.434-1.469,0.691-2.204,0.691c-2.159,0-3.196-1.253-3.196-3.457v-6.48h-1.514v-1.125h1.514v-2.593l1.943-0.647
			V46.974z"/>
		<path fill="#5E6A71" d="M159.59,43.409c0-0.54,0.453-1.146,1.231-1.146c0.777,0,1.23,0.605,1.23,1.146
			c0,0.583-0.28,1.318-1.23,1.318C159.87,44.728,159.59,43.992,159.59,43.409z M161.794,46.974v10.805h-1.944V46.974H161.794z"/>
		<path fill="#5E6A71" d="M164.255,52.247c0-3.5,2.594-5.532,5.315-5.532s5.337,2.032,5.337,5.532c0,3.35-2.14,5.79-5.337,5.79
			C166.394,58.037,164.255,55.595,164.255,52.247z M166.351,52.247c0,2.031,0.69,4.406,3.22,4.406c2.55,0,3.241-2.375,3.241-4.406
			c0-1.945-0.8-4.148-3.241-4.148C167.15,48.099,166.351,50.301,166.351,52.247z"/>
		<path fill="#5E6A71" d="M179.289,48.313c1.017-1.08,2.571-1.599,3.695-1.599c2.483,0,3.824,1.384,3.824,4.106v6.957h-1.944v-6.547
			c0-2.031-0.864-3.09-2.615-3.09c-1.533,0-2.938,1.059-2.938,3.133v6.504h-1.945V46.974h1.923V48.313z"/>
	</g>
	<rect x="55.545" fill="#5E6A71" width="0.75" height="84.576"/>
	<g>
		<path fill="#5E6A71" d="M36.832,46.625l-4.615,3.29l-4.618-3.29c-3.283-2.246-6.099-4.17-7.572-7.094
			c1.217,5.479,6.574,7.528,12.19,11.924c5.613-4.396,10.972-6.444,12.188-11.924C42.93,42.455,40.115,44.379,36.832,46.625z"/>
		<path fill="#981E32" d="M19.387,19.83v0.574c0.356,0.125,0.473,0.236,0.512,0.76v13.242c0,7.365,5.994,9.313,12.319,14.262
			c6.324-4.948,12.32-6.897,12.32-14.262V21.014c0.047-0.4,0.174-0.498,0.496-0.609V19.83H19.387z"/>
		<g>
			<g>
				<g>
					<path fill="#FFFFFF" d="M34.713,41.391c0,0,1.023-0.438,1.586-2.131c0.494,1.033,0.365,2.094,0.365,2.094
						C36.209,41.455,34.713,41.391,34.713,41.391z"/>
					<path fill="#FFFFFF" d="M40.213,31.701c0,0,0.627,3.406-1.586,3.521c-2.135,0.111-3.141-3.1-3.141-3.1s0.516,6.277,3.508,5.863
						C42.365,37.521,40.213,31.701,40.213,31.701z"/>
				</g>
			</g>
			<path fill="#FFFFFF" d="M23.959,40.582c0-0.002,0.004-0.002,0.004-0.002c2.496-0.568,4.404-3.482,4.97-4.65l0.354-0.74
				l0.215,0.791c0.013,0.043,0.244,0.918,0.244,2.072c0,0.129-0.006,0.26-0.012,0.393c0.861,0.033,1.477-0.141,1.858-0.539
				c0.548-0.566,0.714-1.641,0.507-3.283c-0.099-0.785-0.39-2.037-0.646-3.139c-0.131-0.564-0.256-1.098-0.33-1.477
				c-0.481-2.412,0.115-3.91,0.701-4.74c0.094-0.131,0.193-0.256,0.299-0.373c-1.727,0.582-3.176,1.486-4.668,2.979l1.051,1.219
				l0.431-0.402c0.405,1.516,0.112,2.908,0.112,2.908c-0.553-0.842-1.204-1.525-1.204-1.525l0.284-0.479l-0.946-1.102l-0.109-0.123
				c-1.164,1.602-1.541,2.91-1.541,2.91l0.826,0.756l0.479,0.436L27,32.006c0.888,1.664,0.076,3.219,0.076,3.219
				c-0.145-0.566-0.729-1.404-0.729-1.404l0.229-0.764l-1.229-1.111c-1.279,3.994-2.986,5.289-2.986,5.289s1.848-0.334,2.877-0.68
				C25.238,36.555,25.209,38.66,23.959,40.582z"/>
			<path fill="#FFFFFF" d="M42.615,26.168l-2.953,0.123c0.002,0.35-0.045,0.701-0.156,1.035c0.275,1.205,0.084,1.859,0.084,1.859
				c-0.493-1.15-0.87-1.469-0.87-1.469c-2.712-1.205-4.234,1.518-4.07,3.275c0.133,1.445,0.656,3.361,1.063,6.369
				c0.345,2.529-0.936,3.623-2.409,3.875c-0.031,0.004-0.064,0.012-0.097,0.018c-0.01,0-0.016,0-0.022,0
				c-0.24,0.031-0.492,0.045-0.765,0.039c-0.006-0.002-0.018-0.002-0.024-0.002c-0.031,0-0.06-0.006-0.088-0.006
				c-0.115-0.006-0.229-0.018-0.341-0.031c-1.146-0.16-3.715-0.625-6.364-0.689c1.559-0.912,2.778-2.488,3.459-3.605
				c0.041,0.309,0.071,0.688,0.071,1.104c0,0.207-0.006,0.426-0.026,0.646l-0.025,0.307l0.306,0.025
				c1.221,0.105,2.086-0.127,2.647-0.711c0.693-0.721,0.906-1.922,0.672-3.783c-0.1-0.816-0.396-2.084-0.656-3.201
				c-0.129-0.559-0.252-1.09-0.325-1.457c-0.439-2.201,0.086-3.537,0.602-4.27c0.404-0.574,0.963-0.994,1.574-1.197
				c0.012-0.002,0.022-0.004,0.033-0.006l1.008-3.094h0.315l-0.676,2.975c0.156-0.027,0.314-0.053,0.478-0.078l0.869-2.742h0.313
				l-0.57,2.656c0.9-0.115,1.879-0.207,2.961-0.285c0.177,0.07,0.363,0.271,0.531,0.557l2.842-0.875l0.105,0.307l-2.715,1.053
				c0.021,0.057,0.041,0.113,0.059,0.174l2.971-0.369l0.05,0.318l-2.882,0.576c0.011,0.053,0.021,0.107,0.027,0.16l2.998,0.098
				L42.615,26.168z M34.061,27.494c0.596-0.416,1.606-0.738,2.561-0.666c0.24,0.02,0.443-0.045,0.185-0.182
				c-0.711-0.375-2.367-0.248-2.953,0.152c-0.939,0.641-0.781,1.781-0.761,1.809C33.279,28.281,33.598,27.82,34.061,27.494z"/>
		</g>
	</g>
</g>
</svg>
