<?xml version="1.0" encoding="utf-8"?>
<!-- Generator: Adobe Illustrator 16.0.0, SVG Export Plug-In . SVG Version: 6.00 Build 0)  -->
<!DOCTYPE svg PUBLIC "-//W3C//DTD SVG 1.1//EN" "http://www.w3.org/Graphics/SVG/1.1/DTD/svg11.dtd">
<svg version="1.1" id="Layer_1" xmlns="http://www.w3.org/2000/svg" xmlns:xlink="http://www.w3.org/1999/xlink" x="0px" y="0px"
	 width="300.172px" height="94.68px" viewBox="19.387 0 300.172 94.68" enable-background="new 19.387 0 300.172 94.68"
	 xml:space="preserve">
<g>
	<g>
		<path fill="#5E6A71" d="M68.669,88.688l-2.007-5.364l0.767-0.14c0.527,1.48,1.046,2.969,1.566,4.635h0.016
			c0.542-1.666,1.101-3.153,1.651-4.635l0.674,0.094l-2.163,5.41H68.669z"/>
		<path fill="#5E6A71" d="M74.053,83.262l2.023,5.426h-0.868L74.65,87.09h-2.07l-0.581,1.598H71.27l2.209-5.426H74.053z
			 M74.472,86.547c-0.271-0.752-0.535-1.504-0.806-2.48H73.65c-0.279,0.978-0.566,1.729-0.86,2.48H74.472z"/>
		<path fill="#5E6A71" d="M81.84,88.688h-0.589c-1.178-1.412-3.201-3.846-3.527-4.317h-0.015v4.317h-0.62v-5.426h0.558
			c1.194,1.41,3.194,3.781,3.558,4.324h0.016v-4.324h0.62L81.84,88.688L81.84,88.688z"/>
		<path fill="#5E6A71" d="M87.636,84.184c-0.256-0.209-0.837-0.473-1.418-0.473c-1.341,0-2.131,0.961-2.131,2.231
			c0,1.371,0.945,2.295,2.131,2.295c0.589,0,1.054-0.188,1.372-0.403l0.294,0.449c-0.364,0.248-1.007,0.495-1.705,0.495
			c-1.938,0-2.922-1.323-2.922-2.819c0-1.365,1.07-2.791,3.015-2.791c0.775,0,1.318,0.271,1.674,0.551L87.636,84.184z"/>
		<path fill="#5E6A71" d="M88.951,85.881c0-1.521,1.147-2.713,2.713-2.713s2.713,1.192,2.713,2.713c0,1.621-1.039,2.897-2.713,2.897
			S88.951,87.502,88.951,85.881z M93.548,85.881c0-1.016-0.542-2.17-1.884-2.17c-1.341,0-1.883,1.154-1.883,2.17
			c0,1.062,0.48,2.356,1.883,2.356C93.067,88.24,93.548,86.944,93.548,85.881z"/>
		<path fill="#5E6A71" d="M96.468,83.262v3.285c0,1.125,0.418,1.713,1.387,1.713c1.016,0,1.356-0.805,1.356-1.58v-3.418h0.706v3.434
			c0,1.218-0.752,2.084-2.062,2.084c-1.527,0-2.139-0.805-2.139-2.2v-3.316L96.468,83.262L96.468,83.262z"/>
		<path fill="#5E6A71" d="M102.852,88.688l-2.007-5.364l0.767-0.14c0.527,1.48,1.046,2.969,1.566,4.635h0.016
			c0.542-1.666,1.101-3.153,1.651-4.635l0.674,0.094l-2.163,5.41H102.852z"/>
		<path fill="#5E6A71" d="M109.197,83.803h-1.922v1.752h1.884v0.543h-1.884v2.047h2.256v0.543h-3.008v-5.426h2.674V83.803z"/>
		<path fill="#5E6A71" d="M110.767,83.262h1.551c0.883,0,1.573,0.457,1.573,1.396c0,0.799-0.388,1.247-0.907,1.582l1.349,2.309
			l-0.76,0.231l-1.255-2.34h-0.799v2.248h-0.752V83.262z M111.519,85.897h0.427c0.961,0,1.139-0.713,1.139-1.17
			c0-0.668-0.418-0.924-0.922-0.924h-0.644V85.897z"/>
	</g>
	<g id="Good_WSU">
		<g>
			<g>
				<path fill="#5E6A71" d="M174.98,75.372c-0.793-0.596-1.347-0.927-1.347-1.479c0-0.586,0.41-0.824,0.869-0.824
					c0.634,0,0.935,0.443,0.996,0.998h0.207V73.03c0-0.039-0.008-0.07-0.056-0.086c-0.317-0.11-0.768-0.149-1.106-0.149
					c-0.91,0-1.701,0.561-1.701,1.272c0,0.385,0.105,0.66,0.263,0.87h-0.004c0.004,0.005,0.01,0.008,0.012,0.011
					c0.191,0.256,0.455,0.419,0.688,0.573c1.186,0.784,1.455,1.203,1.463,1.716c0.023,1.143-2.117,1.743-3.522-0.449l-0.729-1.112
					c0.573-0.225,1.043-0.754,1.043-1.522c0-0.875-0.752-1.269-1.507-1.269h-2.172v0.194c0.67,0.08,0.642,0.044,0.642,0.735v3.36
					c0,0.695,0.028,0.656-0.642,0.739v0.193h2.008v-0.193c-0.672-0.083-0.645-0.044-0.645-0.739v-1.38h0.704
					c0.9,1.499,1.125,2.15,1.58,2.312c0.101,0.035,1.271,0.412,2.101,0.412c0.949,0,1.963-0.522,1.963-1.464
					C176.086,76.4,175.818,75.996,174.98,75.372z M170.361,75.634h-0.623V73.2h0.576c0.545,0,0.994,0.282,0.994,1.099
					C171.309,75.142,171.01,75.634,170.361,75.634z"/>
				<path fill="#5E6A71" d="M155.344,78.099c0,0,0,0-3.652-4.327v3.314c0,0.156,0.031,0.285,0.045,0.405
					c0.037,0.271,0.293,0.374,0.789,0.412v0.194h-1.839v-0.194c0.363-0.038,0.607-0.143,0.646-0.412
					c0.014-0.12,0.043-0.249,0.043-0.405v-3.532c-0.207-0.27-0.441-0.511-0.867-0.511v-0.195h1.363
					c1.117,1.359,2.281,2.738,3.398,4.097h0.014v-3.084c0-0.156-0.029-0.282-0.045-0.403c-0.037-0.271-0.291-0.374-0.787-0.413
					v-0.195h1.838v0.195c-0.352,0.039-0.607,0.142-0.646,0.413c-0.014,0.121-0.043,0.247-0.043,0.403v4.238H155.344z"/>
				<path fill="#5E6A71" d="M158.291,77.161c0,0.699-0.029,0.661,0.645,0.743v0.194h-2.018v-0.194
					c0.676-0.082,0.645-0.044,0.645-0.743v-3.374c0-0.696,0.031-0.66-0.645-0.743v-0.192h2.018v0.192
					c-0.674,0.083-0.645,0.047-0.645,0.743V77.161z"/>
				<path fill="#5E6A71" d="M167.834,76.75c-0.346,0.803-0.293,1.11-1.379,1.11c-0.676,0-0.969-0.055-0.969-0.69v-1.696h0.631
					c0.502,0,0.676,0.266,0.689,0.707H167v-1.6h-0.193c-0.014,0.466-0.217,0.652-0.688,0.652h-0.632V73.09h1.189
					c0.539,0,0.691,0.411,0.764,0.967h0.195v-1.206h-3.455h-1.484v0.192c0.509,0,0.705,0.231,0.519,0.706
					c-0.467,1.146-0.924,2.302-1.403,3.449c-0.392-1.14-0.824-2.43-1.115-3.313c-0.25-0.721,0.053-0.842,0.465-0.842v-0.192h-1.908
					v0.192c0.363,0,0.459,0.231,0.738,1.034c0.455,1.276,0.967,2.724,1.426,4.021h0.381c0.631-1.537,1.268-3.066,1.896-4.604
					c0.158-0.377,0.271-0.452,0.488-0.452c0.676,0.083,0.577,0.047,0.577,0.743v3.374c0,0.699,0.099,0.66-0.577,0.743v0.194h3.623
					l0.227-1.35h-0.197V76.75z"/>
				<path fill="#5E6A71" d="M177.881,77.161c0,0.699-0.031,0.661,0.645,0.743v0.194h-2.018v-0.194
					c0.676-0.082,0.646-0.044,0.646-0.743v-3.374c0-0.696,0.029-0.66-0.646-0.743v-0.192h2.018v0.192
					c-0.676,0.083-0.645,0.047-0.645,0.743V77.161z"/>
				<path fill="#5E6A71" d="M185.553,72.851v0.192c0.441,0,0.682,0.218,0.426,0.676l-1.035,1.884l-0.907-1.884
					c-0.187-0.39-0.238-0.676,0.33-0.676v-0.192h-1.259h-0.52h-3.492l-0.203,1.146h0.188c0.248-0.494,0.396-0.905,1.049-0.905h0.608
					v4.07c0,0.699,0.029,0.66-0.645,0.743v0.194h2.018v-0.194c-0.676-0.083-0.646-0.044-0.646-0.743v-4.07h0.609
					c0.612,0,1.026,0.366,1.278,0.823l1.06,2.095v1.152c0,0.699,0.028,0.66-0.646,0.743v0.194h2.017v-0.194
					c-0.675-0.083-0.646-0.044-0.646-0.743v-0.84c0-0.188,0.016-0.397,0.09-0.547l1.252-2.272c0.203-0.36,0.404-0.458,0.615-0.458
					v-0.192L185.553,72.851L185.553,72.851z"/>
			</g>
			<path fill="#5E6A71" d="M150.537,71.792l-2.363,0.006v0.195c0.475,0.051,0.816,0.259,0.867,0.624
				c0.02,0.159,0.061,0.331,0.061,0.543v2.804c0,1.615-0.727,2.542-2.107,2.542c-1.504,0-1.955-1.079-1.955-2.492v-2.955
				c0-0.938,0.027-0.954,0.936-1.064v-0.195h-2.715v0.195c0.91,0.11,0.869,0.128,0.869,1.064v3.006c0,1.826,0.666,2.917,2.812,2.917
				c1.303,0,2.686-0.807,2.686-2.977V73.16c0-0.019,0-0.034,0-0.051c-0.008-0.876,0.332-1.004,0.904-1.096L150.537,71.792z"/>
		</g>
		<g>
			<path fill="#5E6A71" d="M124.535,73.185c-0.08-0.704-0.462-1.267-1.266-1.267c-0.583,0-1.172,0.303-1.172,1.046
				c0,0.702,0.703,1.124,1.708,1.878c1.064,0.794,1.407,1.307,1.407,2.14c0,1.196-1.16,1.858-2.364,1.858
				c-0.645,0-1.197-0.121-1.72-0.32c-0.039-0.021-0.069-0.062-0.069-0.14v-1.448h0.261c0.112,1.114,0.843,1.559,1.617,1.559
				c0.714,0,1.362-0.544,1.362-1.276c0-0.654-0.352-1.188-1.858-2.18c-0.542-0.361-1.215-0.756-1.215-1.85
				c0-0.906,0.937-1.618,2.092-1.618c0.432,0,1.005,0.052,1.407,0.192c0.061,0.017,0.07,0.061,0.07,0.109v1.315L124.535,73.185
				L124.535,73.185z"/>
			<path fill="#5E6A71" d="M127.748,77.136c0,0.696-0.029,0.656,0.643,0.741v0.19h-2.009v-0.19c0.672-0.085,0.643-0.045,0.643-0.741
				V73.08h-0.606c-0.65,0-0.8,0.412-1.046,0.902h-0.185l0.2-1.143h3.996l0.202,1.143h-0.187c-0.247-0.49-0.396-0.902-1.045-0.902
				h-0.606V77.136z"/>
			<path fill="#5E6A71" d="M130.355,76.337l-0.342,1.001c-0.098,0.293,0.044,0.539,0.374,0.539v0.19h-1.36v-0.19
				c0.201,0,0.418-0.13,0.538-0.375c0.321-0.658,1.194-3.101,1.815-4.751h0.418c0.507,1.502,1.269,3.804,1.523,4.468
				c0.166,0.416,0.284,0.658,0.604,0.658v0.19h-1.74v-0.19c0.472,0,0.518-0.246,0.397-0.576l-0.322-0.964H130.355z M132.165,76.053
				l-0.792-2.427h-0.016l-0.888,2.427H132.165z"/>
			<path fill="#5E6A71" d="M135.967,77.136c0,0.696-0.029,0.656,0.641,0.741v0.19h-2.01v-0.19c0.674-0.085,0.645-0.045,0.645-0.741
				V73.08h-0.607c-0.649,0-0.797,0.412-1.045,0.902h-0.187l0.203-1.143h3.996l0.201,1.143h-0.188
				c-0.244-0.49-0.393-0.902-1.043-0.902h-0.605v4.056H135.967z"/>
			<path fill="#5E6A71" d="M138.154,77.877c0.676-0.085,0.578-0.045,0.578-0.741v-3.362c0-0.693,0.098-0.656-0.578-0.739V72.84
				h3.273v1.202h-0.195c-0.074-0.551-0.223-0.963-0.76-0.963h-1.018v2.139h0.627c0.471,0,0.672-0.188,0.688-0.651h0.193v1.591
				h-0.193c-0.016-0.441-0.186-0.702-0.688-0.702h-0.627v1.688c0,0.637,0.291,0.689,0.965,0.689c1.082,0,1.029-0.309,1.375-1.107
				h0.193l-0.225,1.344h-3.609L138.154,77.877L138.154,77.877z"/>
		</g>
		<g>
			<path fill="#5E6A71" d="M85.043,77.143c0,0.695-0.03,0.656,0.642,0.738v0.195h-2.008v-0.195c0.671-0.082,0.642-0.043,0.642-0.738
				v-3.361c0-0.692-0.323-0.656-0.995-0.737v-0.192h2.362v0.192c-0.672,0.081-0.642,0.045-0.642,0.737v1.294h2.621v-1.294
				c0-0.692,0.029-0.656-0.643-0.737v-0.192h2.009v0.192c-0.671,0.081-0.642,0.045-0.642,0.737v3.361
				c0,0.695-0.029,0.656,0.642,0.738v0.195h-2.009v-0.195c0.672-0.082,0.643-0.043,0.643-0.738V75.38h-2.621L85.043,77.143
				L85.043,77.143z"/>
			<path fill="#5E6A71" d="M91.22,77.143c0,0.695-0.031,0.656,0.642,0.738v0.195h-2.008v-0.195c0.671-0.082,0.642-0.043,0.642-0.738
				v-3.361c0-0.692,0.03-0.656-0.642-0.737v-0.192h2.008v0.192c-0.672,0.081-0.642,0.045-0.642,0.737V77.143z"/>
			<path fill="#5E6A71" d="M97.427,78.077c-1.187-1.404-2.419-2.876-3.636-4.311v3.303c0,0.154,0.029,0.281,0.045,0.401
				c0.037,0.271,0.29,0.373,0.783,0.41v0.195H92.79v-0.195c0.358-0.037,0.605-0.141,0.643-0.41c0.014-0.12,0.044-0.247,0.044-0.401
				v-3.52c-0.21-0.269-0.441-0.507-0.867-0.507v-0.192h1.359c1.113,1.35,2.27,2.725,3.382,4.074h0.015v-3.067
				c0-0.157-0.03-0.284-0.045-0.404c-0.036-0.269-0.292-0.372-0.784-0.409v-0.192h1.83v0.192c-0.351,0.037-0.604,0.142-0.644,0.409
				c-0.014,0.12-0.043,0.247-0.043,0.404v4.22H97.427z"/>
			<path fill="#5E6A71" d="M98.528,75.432c0-1.148,0.971-2.674,2.986-2.674c0.725,0,1.068,0.136,1.434,0.256
				c0.209,0.066,0.292,0.171,0.292,0.29v0.964h-0.194c-0.022-0.599-0.403-1.248-1.59-1.248c-1.561,0-2.068,1.075-2.076,2.354
				c-0.007,1.18,0.59,2.531,2.106,2.531c0.934,0,1.016-0.345,1.016-0.926v-0.456c0-0.694,0.029-0.656-0.792-0.738V75.59h2.158v0.193
				c-0.672,0.082-0.641,0.044-0.641,0.738v1.3c-0.479,0.188-1.106,0.344-1.786,0.344C99.91,78.166,98.528,77.434,98.528,75.432z"/>
			<path fill="#5E6A71" d="M106.429,77.143c0,0.695-0.03,0.656,0.642,0.738v0.195h-2.009v-0.195
				c0.671-0.082,0.642-0.043,0.642-0.738v-4.055h-0.605c-0.649,0-0.798,0.408-1.045,0.903h-0.186l0.203-1.142h3.995l0.201,1.142
				h-0.187c-0.246-0.495-0.396-0.903-1.045-0.903h-0.605L106.429,77.143L106.429,77.143z"/>
			<path fill="#5E6A71" d="M108.266,75.559c0-1.614,1.255-2.801,2.808-2.801c1.62,0,2.561,1.396,2.561,2.548
				c0,1.576-1.18,2.859-2.831,2.859C109.378,78.166,108.266,77.009,108.266,75.559z M112.782,75.531
				c0-1.786-0.962-2.512-1.874-2.512c-1.269,0-1.791,1.137-1.791,2.15c0,1.809,0.925,2.733,1.888,2.733
				C112.395,77.905,112.782,76.531,112.782,75.531z"/>
			<path fill="#5E6A71" d="M118.451,78.077c-1.188-1.404-2.42-2.876-3.637-4.311v3.303c0,0.154,0.029,0.281,0.044,0.401
				c0.038,0.271,0.291,0.373,0.784,0.41v0.195h-1.829v-0.195c0.359-0.037,0.605-0.141,0.643-0.41
				c0.015-0.12,0.044-0.247,0.044-0.401v-3.52c-0.208-0.269-0.44-0.507-0.866-0.507v-0.192h1.359
				c1.112,1.35,2.269,2.725,3.383,4.074h0.014v-3.067c0-0.157-0.03-0.284-0.044-0.404c-0.038-0.269-0.291-0.372-0.785-0.409v-0.192
				h1.829v0.192c-0.35,0.037-0.604,0.142-0.641,0.409c-0.015,0.12-0.045,0.247-0.045,0.404v4.22H118.451z"/>
			<path fill="#5E6A71" d="M76.642,71.85v-0.009h-2.02v0.25c0.78,0.009,0.907,0.287,0.702,0.877l-1.528,4.162H73.71l-1.8-5.203
				h-0.456l-1.891,5.203h-0.129l-1.355-4.134c-0.192-0.656,0.077-0.905,0.683-0.905v-0.25h-2.397v0.25
				c0.509,0,0.601,0.396,0.928,1.338l1.74,5.146h0.458l1.861-5.248l1.835,5.251H73.7c0.785-2.087,1.89-5.18,2.296-6.01
				c0.152-0.312,0.425-0.474,0.681-0.474V71.85H76.642z"/>
			<path fill="#5E6A71" d="M82.013,75.27c-0.786-0.589-1.336-0.918-1.336-1.469c0-0.581,0.409-0.817,0.864-0.817
				c0.629,0,0.927,0.44,0.99,0.991h0.204v-1.03c0-0.038-0.008-0.069-0.056-0.086c-0.313-0.108-0.762-0.149-1.099-0.149
				c-0.904,0-1.689,0.558-1.689,1.267c0,0.382,0.106,0.655,0.261,0.865h-0.003c0.003,0.003,0.006,0.006,0.01,0.009
				c0.19,0.254,0.452,0.417,0.683,0.57c1.179,0.778,1.454,1.193,1.454,1.705c0,0.475-0.357,0.952-1.014,1
				c-0.672,0.046-1.537-0.278-1.9-1.223c-0.324-0.904-0.98-2.809-1.425-4.12h-0.433c-0.62,1.649-1.46,4.069-1.782,4.727
				c-0.119,0.246-0.335,0.373-0.537,0.373v0.195h0.322h1.037v-0.195c-0.329,0-0.471-0.246-0.374-0.537l0.344-1.001h1.904
				l0.321,0.963l0.247,0.742c0,0,1.335,0.35,2.204,0.35c0.943,0,1.901-0.519,1.901-1.453C83.112,76.292,82.846,75.891,82.013,75.27z
				 M76.646,76.06l0.889-2.429h0.015l0.792,2.429H76.646z"/>
		</g>
	</g>
	<g>
		<path fill="#5E6A71" d="M73.006,8.365c0,3.267-2.518,3.918-3.178,3.918c-0.784,0-2.668-0.054-2.668-2.65
			c0-2.236,1.603-3.724,3.495-3.724C71.958,5.909,73.006,6.674,73.006,8.365z M68.094,9.677c0,1.162,0.501,2.342,1.593,2.342
			c1.717,0,2.387-1.999,2.387-3.636c0-1.198-0.335-2.21-1.559-2.21C68.982,6.173,68.094,7.925,68.094,9.677z"/>
		<path fill="#5E6A71" d="M76.911,7.96L76.7,8.145h-1.153c-0.432,2.096-1.136,4.887-1.638,6.226h-0.396l1.259-6.226h-0.836
			l0.079-0.37h0.828c0.466-1.875,2.016-2.068,2.386-2.068c0.202,0,0.625,0.035,0.757,0.159l-0.106,0.58l-0.22,0.105
			c-0.124-0.238-0.405-0.511-0.775-0.511c-0.528,0-0.924,0.36-1.136,1.312l-0.097,0.422h1.294L76.911,7.96z"/>
		<path fill="#5E6A71" d="M80.775,11.147c-0.062,0.273-0.053,0.449,0.071,0.449c0.062,0,0.158-0.035,0.237-0.07l0.414-0.202
			l0.07,0.193l-1.471,0.792c-0.158-0.053-0.22-0.176-0.237-0.282c-0.035-0.132,0-0.281,0.105-0.694l0.563-2.694
			c0.035-0.148,0.088-0.493-0.114-0.493h-1.726c-0.423,2.096-1.127,4.887-1.629,6.226h-0.396l1.25-6.226h-0.836l0.088-0.37h0.828
			c0.643-1.999,2.033-2.068,2.491-2.068c0.264,0,0.942,0.009,1.074,0.132L81.41,6.622l-0.238,0.105
			c-0.123-0.237-0.246-0.661-0.942-0.661c-0.114,0-1.047,0.044-1.329,1.286l-0.097,0.422h1.101c0.599,0,1.03-0.053,1.435-0.104
			c0.168,0.018,0.142,0.185,0.098,0.378L80.775,11.147z"/>
		<path fill="#5E6A71" d="M85.519,8.55c-0.158-0.247-0.405-0.52-0.722-0.52c-1.013,0-1.655,1.435-1.655,2.474
			c0,0.562,0.185,1.224,0.854,1.224c0.388,0,0.89-0.282,1.321-0.599l0.105,0.211l-0.925,0.572c-0.414,0.255-0.748,0.37-0.933,0.37
			c-0.925,0-1.198-0.89-1.153-1.62c-0.01-0.142,0.035-1.771,1.575-2.634c0.396-0.22,0.811-0.36,1.092-0.36
			c0.291,0,0.66,0.062,0.837,0.193l-0.123,0.572L85.519,8.55z"/>
		<path fill="#5E6A71" d="M89.355,11.341l-0.934,0.572c-0.414,0.255-0.748,0.37-1.039,0.37c-0.854,0-1.047-0.969-1.047-1.62
			c0-1.444,1.285-2.994,2.729-2.994c0.476,0,0.688,0.264,0.688,0.792c0,0.863-1.136,1.743-2.589,1.391
			c-0.211,0.916-0.009,1.875,0.766,1.875c0.388,0,0.881-0.282,1.312-0.599L89.355,11.341z M89.117,8.294
			c0-0.247-0.158-0.414-0.29-0.414c-0.687,0-1.471,1.118-1.594,1.761C88.783,9.932,89.117,8.814,89.117,8.294z"/>
		<path fill="#5E6A71" d="M93.042,10.548c0-1.153,0.994-2.879,2.465-2.879c1.171,0,1.426,0.792,1.426,1.585
			c0,0.968-0.774,3.028-2.456,3.028C93.35,12.283,93.042,11.376,93.042,10.548z M96.123,8.832c0-0.916-0.555-0.951-0.695-0.951
			c-0.951,0-1.576,1.708-1.576,2.853c0,0.458,0.079,1.285,0.73,1.285C95.586,12.019,96.123,10.365,96.123,8.832z"/>
		<path fill="#5E6A71" d="M100.857,7.96l-0.211,0.185h-1.153c-0.432,2.096-1.136,4.887-1.638,6.226h-0.396l1.259-6.226h-0.836
			l0.079-0.37h0.828c0.466-1.875,2.016-2.068,2.386-2.068c0.202,0,0.625,0.035,0.757,0.159l-0.105,0.58l-0.22,0.105
			c-0.124-0.238-0.405-0.511-0.775-0.511c-0.528,0-0.924,0.36-1.136,1.312l-0.097,0.422h1.294L100.857,7.96z"/>
		<path fill="#5E6A71" d="M73.817,22.187c-0.734-0.54-1.706-1.08-2.614-1.08c-1.512,0-2.354,0.887-2.354,2.053
			c0,1.081,0.929,1.88,2.873,3.283c2.074,1.514,3.284,2.896,3.284,4.841c0,2.397-2.269,3.953-4.688,3.953
			c-1.447,0-3.176-0.519-4.256-1.576l0.929-1.253c0.886,0.627,1.858,1.317,3.284,1.317c1.491,0,2.636-0.8,2.636-2.484
			c0-1.901-2.269-3.134-3.5-4.041c-1.253-0.973-2.657-1.901-2.657-4.041c0-2.031,1.966-3.565,4.321-3.565
			c1.577,0,2.895,0.562,3.737,1.513L73.817,22.187z"/>
		<path fill="#5E6A71" d="M80.145,24.174h2.831v1.124h-2.831v6.115c0,1.512,0.303,2.42,1.491,2.42c0.713,0,1.123-0.173,1.49-0.368
			l0.476,1.081c-0.67,0.432-1.469,0.69-2.204,0.69c-2.16,0-3.197-1.253-3.197-3.456v-6.482h-1.513v-1.124H78.2v-2.593l1.944-0.648
			L80.145,24.174L80.145,24.174z"/>
		<path fill="#5E6A71" d="M92.415,33.725c-1.102,0.95-2.074,1.512-3.479,1.512c-2.484,0-3.824-1.383-3.824-4.104v-6.958h1.944v6.525
			c0,2.03,0.864,3.11,2.614,3.11c1.491,0,2.723-1.23,2.723-3.327v-6.309h1.944v10.803h-1.923L92.415,33.725L92.415,33.725z"/>
		<path fill="#5E6A71" d="M105.289,33.271h-0.043c-0.757,1.06-1.901,1.966-3.673,1.966c-2.917,0-4.775-2.333-4.775-5.791
			c0-2.809,2.031-5.53,4.991-5.53c1.469,0,2.787,0.562,3.457,1.599h0.043v-6.417h1.944v15.881h-1.944V33.271z M105.289,29.23
			c0-2.03-1.102-3.933-3.22-3.933c-2.246,0-3.176,1.771-3.176,4.062c0,2.312,0.994,4.494,3.047,4.494
			C104.295,33.854,105.289,31.628,105.289,29.23z"/>
		<path fill="#5E6A71" d="M111.659,29.706c-0.021,2.161,1.512,4.147,3.651,4.147c0.993,0,2.204-0.367,2.96-0.929l0.562,1.059
			c-1.123,0.801-2.463,1.253-3.587,1.253c-3.37,0-5.596-2.073-5.596-5.877c0-3.737,2.68-5.444,5.121-5.444
			c3.284,0,4.386,2.96,4.17,5.791H111.659z M117.169,28.409c0-1.687-0.714-3.111-2.42-3.111c-2.074,0-2.896,1.729-2.961,3.111
			H117.169z"/>
		<path fill="#5E6A71" d="M123.258,25.514c1.016-1.08,2.571-1.599,3.695-1.599c2.484,0,3.824,1.383,3.824,4.104v6.957h-1.944V28.43
			c0-2.031-0.864-3.09-2.615-3.09c-1.533,0-2.938,1.059-2.938,3.133v6.503h-1.945V24.174h1.923V25.514z"/>
		<path fill="#5E6A71" d="M136.369,24.174h2.831v1.124h-2.831v6.115c0,1.512,0.303,2.42,1.491,2.42c0.713,0,1.123-0.173,1.49-0.368
			l0.476,1.081c-0.67,0.432-1.469,0.69-2.204,0.69c-2.16,0-3.197-1.253-3.197-3.456v-6.482h-1.513v-1.124h1.513v-2.593l1.944-0.648
			V24.174z"/>
		<path fill="#5E6A71" d="M71.571,42.653c6.093,0,8.21,3.479,8.21,7.108c0,5.013-3.198,8.017-8.556,8.017h-4.494V42.653H71.571z
			 M68.827,56.264h2.333c4.257,0,6.31-2.117,6.31-6.546c0-3.371-1.88-5.553-5.855-5.553h-2.787L68.827,56.264L68.827,56.264z"/>
		<path fill="#5E6A71" d="M83.688,52.505c-0.022,2.161,1.512,4.147,3.651,4.147c0.994,0,2.203-0.366,2.96-0.929l0.562,1.06
			c-1.123,0.799-2.463,1.253-3.587,1.253c-3.37,0-5.596-2.074-5.596-5.877c0-3.737,2.679-5.445,5.121-5.445
			c3.284,0,4.386,2.959,4.17,5.791H83.688z M89.196,51.209c0-1.687-0.713-3.111-2.42-3.111c-2.074,0-2.895,1.729-2.96,3.111H89.196z
			"/>
		<path fill="#5E6A71" d="M96.345,57.778l-4.472-10.501l1.944-0.519c1.102,2.745,2.204,5.51,3.284,8.771h0.043
			c1.124-3.262,2.247-6.026,3.393-8.771l1.707,0.389l-4.688,10.631H96.345z"/>
		<path fill="#5E6A71" d="M105.223,52.505c-0.022,2.161,1.512,4.147,3.651,4.147c0.994,0,2.203-0.366,2.96-0.929l0.562,1.06
			c-1.123,0.799-2.463,1.253-3.587,1.253c-3.37,0-5.596-2.074-5.596-5.877c0-3.737,2.679-5.445,5.121-5.445
			c3.284,0,4.386,2.959,4.17,5.791H105.223z M110.731,51.209c0-1.687-0.713-3.111-2.42-3.111c-2.074,0-2.895,1.729-2.96,3.111
			H110.731z"/>
		<path fill="#5E6A71" d="M114.898,57.778V41.896h1.944v15.881L114.898,57.778L114.898,57.778z"/>
		<path fill="#5E6A71" d="M119.305,52.247c0-3.5,2.593-5.532,5.315-5.532c2.722,0,5.337,2.032,5.337,5.532
			c0,3.349-2.14,5.79-5.337,5.79C121.443,58.037,119.305,55.595,119.305,52.247z M121.4,52.247c0,2.03,0.691,4.406,3.22,4.406
			c2.549,0,3.24-2.376,3.24-4.406c0-1.945-0.799-4.148-3.24-4.148C122.2,48.098,121.4,50.301,121.4,52.247z"/>
		<path fill="#5E6A71" d="M134.36,48.659h0.044c0.799-1.295,2.333-1.944,3.543-1.944c4.214,0,4.905,3.782,4.905,5.336
			c0,3.285-1.945,5.985-5.121,5.985c-1.361,0-2.528-0.647-3.327-1.686h-0.044v6.826h-1.944V46.974h1.944V48.659z M140.757,52.073
			c0-1.967-0.994-3.976-3.004-3.976c-2.204,0-3.393,1.707-3.393,4.494c0,2.074,0.951,4.062,3.371,4.062
			C140.065,56.654,140.757,54.04,140.757,52.073z"/>
		<path fill="#5E6A71" d="M147.233,48.313c0.887-1.037,2.183-1.598,3.371-1.598c1.707,0,2.766,0.713,3.436,1.598
			c1.037-0.95,2.506-1.598,3.716-1.598c2.398,0,3.608,1.555,3.674,3.846v7.217h-1.945v-6.438c0-1.555-0.389-3.111-2.375-3.111
			c-1.644,0-2.767,0.865-2.767,3.047v6.504h-1.944V51.34c0-2.031-0.864-3.111-2.441-3.111c-1.642,0-2.701,1.06-2.701,3.133v6.418
			h-1.944V46.974h1.923v1.339H147.233z"/>
		<path fill="#5E6A71" d="M165.896,52.505c-0.022,2.161,1.512,4.147,3.65,4.147c0.994,0,2.203-0.366,2.96-0.929l0.562,1.06
			c-1.123,0.799-2.463,1.253-3.586,1.253c-3.371,0-5.596-2.074-5.596-5.877c0-3.737,2.678-5.445,5.12-5.445
			c3.284,0,4.386,2.959,4.17,5.791H165.896z M171.404,51.209c0-1.687-0.713-3.111-2.42-3.111c-2.073,0-2.895,1.729-2.959,3.111
			H171.404z"/>
		<path fill="#5E6A71" d="M177.495,48.313c1.017-1.08,2.571-1.598,3.694-1.598c2.484,0,3.824,1.383,3.824,4.105v6.957h-1.943v-6.547
			c0-2.03-0.864-3.09-2.614-3.09c-1.534,0-2.938,1.06-2.938,3.133v6.504h-1.944V46.974h1.923L177.495,48.313L177.495,48.313z"/>
		<path fill="#5E6A71" d="M190.605,46.974h2.83v1.124h-2.83v6.114c0,1.513,0.304,2.42,1.492,2.42c0.713,0,1.123-0.173,1.489-0.368
			l0.476,1.081c-0.67,0.433-1.469,0.691-2.203,0.691c-2.16,0-3.197-1.253-3.197-3.457v-6.481h-1.514v-1.124h1.514v-2.593
			l1.943-0.648V46.974z"/>
	</g>
	<rect x="55.545" y="0" fill="#5E6A71" width="0.75" height="94.68"/>
	<g>
		<path fill="#5E6A71" d="M36.832,46.625l-4.615,3.29l-4.619-3.29c-3.283-2.246-6.098-4.17-7.572-7.094
			c1.217,5.479,6.574,7.528,12.191,11.924c5.613-4.396,10.971-6.444,12.188-11.924C42.93,42.455,40.115,44.379,36.832,46.625z"/>
		<path fill="#981E32" d="M19.387,19.83v0.573c0.357,0.125,0.473,0.236,0.512,0.761v13.242c0,7.364,5.994,9.313,12.32,14.262
			c6.324-4.948,12.32-6.897,12.32-14.262V21.014c0.047-0.399,0.174-0.498,0.496-0.608V19.83H19.387z"/>
		<g>
			<g>
				<g>
					<path fill="#FFFFFF" d="M34.713,41.391c0,0,1.023-0.438,1.586-2.131c0.494,1.033,0.365,2.094,0.365,2.094
						C36.209,41.455,34.713,41.391,34.713,41.391z"/>
					<path fill="#FFFFFF" d="M40.213,31.701c0,0,0.627,3.405-1.586,3.521c-2.135,0.111-3.141-3.1-3.141-3.1s0.516,6.276,3.508,5.862
						C42.365,37.521,40.213,31.701,40.213,31.701z"/>
				</g>
			</g>
			<path fill="#FFFFFF" d="M23.959,40.582c0-0.002,0.004-0.002,0.004-0.002c2.496-0.568,4.404-3.482,4.969-4.65l0.355-0.74
				l0.215,0.791c0.012,0.043,0.244,0.918,0.244,2.072c0,0.129-0.006,0.26-0.012,0.393c0.861,0.033,1.477-0.141,1.859-0.538
				c0.547-0.566,0.713-1.642,0.506-3.283c-0.098-0.785-0.389-2.037-0.646-3.14c-0.131-0.563-0.256-1.098-0.33-1.477
				c-0.482-2.412,0.115-3.91,0.701-4.74c0.094-0.131,0.193-0.256,0.299-0.373c-1.727,0.582-3.176,1.486-4.668,2.979l1.051,1.219
				l0.43-0.402c0.406,1.517,0.113,2.908,0.113,2.908c-0.553-0.842-1.205-1.524-1.205-1.524l0.285-0.479l-0.947-1.102l-0.109-0.123
				c-1.164,1.602-1.541,2.91-1.541,2.91l0.826,0.756l0.48,0.436L27,32.006c0.887,1.664,0.076,3.219,0.076,3.219
				c-0.145-0.565-0.73-1.404-0.73-1.404l0.23-0.764l-1.229-1.111c-1.279,3.994-2.986,5.289-2.986,5.289s1.848-0.334,2.877-0.68
				C25.238,36.555,25.209,38.66,23.959,40.582z"/>
			<path fill="#FFFFFF" d="M42.615,26.168l-2.953,0.123c0.002,0.35-0.045,0.701-0.156,1.035c0.275,1.205,0.084,1.858,0.084,1.858
				c-0.494-1.149-0.871-1.469-0.871-1.469c-2.711-1.205-4.234,1.518-4.07,3.275c0.133,1.444,0.656,3.36,1.064,6.368
				c0.344,2.529-0.936,3.623-2.41,3.875c-0.031,0.005-0.064,0.013-0.096,0.019c-0.01,0-0.016,0-0.023,0
				c-0.24,0.031-0.492,0.045-0.764,0.039c-0.006-0.002-0.018-0.002-0.025-0.002c-0.031,0-0.059-0.006-0.088-0.006
				c-0.115-0.007-0.229-0.019-0.34-0.031c-1.146-0.16-3.715-0.625-6.365-0.689c1.559-0.912,2.779-2.487,3.459-3.604
				c0.041,0.309,0.072,0.688,0.072,1.104c0,0.207-0.006,0.427-0.027,0.646l-0.025,0.307l0.305,0.025
				c1.221,0.104,2.086-0.127,2.648-0.711c0.693-0.722,0.906-1.922,0.672-3.783c-0.1-0.816-0.396-2.084-0.656-3.201
				c-0.129-0.559-0.252-1.09-0.326-1.457c-0.439-2.201,0.086-3.537,0.602-4.27c0.404-0.574,0.963-0.994,1.574-1.197
				c0.012-0.002,0.023-0.004,0.033-0.006l1.008-3.094h0.316l-0.676,2.975c0.156-0.027,0.314-0.053,0.477-0.078l0.869-2.742h0.314
				l-0.57,2.656c0.9-0.115,1.879-0.207,2.961-0.285c0.176,0.07,0.363,0.271,0.531,0.558l2.842-0.875l0.105,0.307l-2.715,1.053
				c0.021,0.058,0.041,0.113,0.059,0.174l2.971-0.369l0.049,0.318l-2.881,0.576c0.01,0.053,0.02,0.106,0.027,0.16l2.998,0.098
				L42.615,26.168z M34.061,27.494c0.596-0.416,1.607-0.738,2.561-0.666c0.24,0.02,0.443-0.045,0.184-0.183
				c-0.711-0.375-2.367-0.248-2.953,0.152c-0.939,0.641-0.781,1.781-0.76,1.809C33.279,28.281,33.598,27.82,34.061,27.494z"/>
		</g>
	</g>
</g>
</svg>
